<svg width="420" height="420" viewBox="0 0 420 420" fill="none" xmlns="http://www.w3.org/2000/svg">
<path d="M405.625 197.828C395.464 182.874 379.522 168.851 357.794 156.819C276.167 111.616 143.825 111.615 62.1985 156.817C40.4702 168.849 24.5278 182.872 14.3672 197.826V255.212C24.5278 240.259 40.4702 226.236 62.1985 214.203C143.825 169.001 276.167 169.002 357.794 214.205C379.522 226.238 395.464 240.261 405.625 255.214V197.828Z" fill="#F5F5F5"/>
<path d="M405.627 199.508C405.089 199.508 404.56 199.25 404.236 198.772C393.888 183.543 377.989 169.923 356.98 158.289C275.934 113.407 144.059 113.406 63.0129 158.287C42.0037 169.921 26.105 183.542 15.757 198.77C15.2371 199.537 14.1913 199.738 13.4235 199.215C12.6558 198.693 12.4567 197.649 12.9783 196.882C23.6253 181.213 39.9112 167.239 61.3858 155.348C143.331 109.969 276.664 109.97 358.608 155.349C380.082 167.241 396.368 181.216 407.016 196.884C407.537 197.652 407.338 198.696 406.57 199.218C406.281 199.414 405.951 199.508 405.627 199.508Z" fill="#F7EBFF"/>
<path d="M388.93 236.849C390.384 238.054 391.793 239.27 393.157 240.497C393.157 228.227 393.157 205.967 393.157 183.111C391.794 181.884 390.385 180.667 388.93 179.463C388.93 201.457 388.93 223.363 388.93 236.849Z" fill="#F7EBFF"/>
<path d="M321.642 140.79C320.241 140.299 318.831 139.819 317.414 139.348C317.414 162.564 317.414 184.986 317.414 196.734C318.831 197.205 320.241 197.685 321.642 198.176C321.642 187.119 321.642 164.476 321.642 140.79Z" fill="#F7EBFF"/>
<path d="M246.82 182.111C248.232 182.25 249.641 182.396 251.048 182.551C251.048 173.756 251.048 150.342 251.048 125.165C249.641 125.009 248.232 124.864 246.82 124.725C246.82 149.657 246.82 172.94 246.82 182.111Z" fill="#F7EBFF"/>
<path d="M24.6406 242.514C26.0065 241.226 27.4051 239.947 28.8683 238.683C28.8683 225.762 28.8683 203.696 28.8683 181.297C27.4051 182.56 26.0065 183.84 24.6406 185.127C24.6406 208.578 24.6406 231.111 24.6406 242.514Z" fill="#F7EBFF"/>
<path d="M170.977 124.943C169.565 125.091 168.157 125.249 166.75 125.414C166.75 150.738 166.75 174.234 166.75 182.8C168.157 182.636 169.566 182.477 170.977 182.33C170.977 173.343 170.977 149.998 170.977 124.943Z" fill="#F7EBFF"/>
<path d="M96.1562 198.955C97.5574 198.45 98.966 197.955 100.384 197.47C100.384 186.059 100.384 163.53 100.384 140.084C98.966 140.569 97.5574 141.063 96.1562 141.568C96.1562 165.54 96.1562 188.323 96.1562 198.955Z" fill="#F7EBFF"/>
<path d="M65.2338 205.426C-14.7149 251.585 -14.7132 326.423 65.238 372.582C145.189 418.74 274.815 418.74 354.764 372.582C434.714 326.423 434.711 251.585 354.76 205.426C274.808 159.267 145.182 159.267 65.2338 205.426Z" fill="#FAFAFA"/>
<path d="M57.6089 344.364C71.4545 344.364 82.6787 337.311 82.6787 328.611C82.6787 319.91 71.4545 312.857 57.6089 312.857C43.7632 312.857 32.5391 319.91 32.5391 328.611C32.5391 337.311 43.7632 344.364 57.6089 344.364Z" fill="#F7EBFF"/>
<path d="M334.393 355.634C363.701 355.634 387.459 340.705 387.459 322.289C387.459 303.873 363.701 288.943 334.393 288.943C305.086 288.943 281.328 303.873 281.328 322.289C281.328 340.705 305.086 355.634 334.393 355.634Z" fill="#F7EBFF"/>
<path d="M178.319 376.946L107.312 335.95L235.723 261.941L306.729 302.938L178.319 376.946Z" fill="#F7EBFF"/>
<path d="M219.085 286.986L155.297 323.814L91.5078 286.986L155.297 250.158L219.085 286.986Z" fill="#F7EBFF"/>
<path d="M70.5563 317.659C63.4046 313.53 51.81 313.53 44.6583 317.659C41.0816 319.724 39.3058 322.429 39.3125 325.135C39.3142 325.972 39.3142 327.099 39.3125 327.936C39.3058 330.641 41.0816 333.346 44.6583 335.412C51.81 339.54 63.4046 339.54 70.5563 335.412C74.133 333.347 75.9088 330.641 75.9021 327.936C75.9004 327.099 75.9004 325.972 75.9021 325.135C75.9088 322.429 74.133 319.724 70.5563 317.659Z" fill="#37474F"/>
<path d="M44.6607 317.659C37.5089 321.788 37.5089 328.482 44.6607 332.611C51.8125 336.74 63.407 336.74 70.5587 332.611C77.7105 328.482 77.7105 321.788 70.5587 317.659C63.407 313.53 51.8125 313.53 44.6607 317.659Z" fill="#455A64"/>
<path d="M69.2388 314.992C62.8145 311.284 52.3985 311.284 45.9742 314.992C42.7612 316.847 41.166 319.278 41.1719 321.708C41.1736 322.46 41.1736 322.797 41.1719 323.549C41.166 325.979 42.7612 328.409 45.9742 330.264C52.3985 333.974 62.8145 333.974 69.2388 330.264C72.4518 328.41 74.047 325.98 74.0411 323.549C74.0394 322.797 74.0394 322.46 74.0411 321.708C74.047 319.278 72.4518 316.848 69.2388 314.992Z" fill="#37474F"/>
<path d="M57.6068 331.207C66.6922 331.207 74.0574 326.954 74.0574 321.709C74.0574 316.463 66.6922 312.211 57.6068 312.211C48.5214 312.211 41.1562 316.463 41.1562 321.709C41.1562 326.954 48.5214 331.207 57.6068 331.207Z" fill="#455A64"/>
<path d="M59.5773 63.3336C59.5773 62.3432 58.7743 61.541 57.7847 61.541C56.7944 61.541 55.9922 62.3441 55.9922 63.3336V323.703C55.9922 323.968 56.1669 324.233 56.5172 324.435C57.2177 324.839 58.3526 324.839 59.0531 324.435C59.4034 324.233 59.5781 323.968 59.5781 323.703L59.5773 63.3336Z" fill="#37474F"/>
<path opacity="0.2" d="M57.7847 61.541C56.7944 61.541 55.9922 62.3441 55.9922 63.3336V65.4579C56.5491 65.673 57.1497 65.8032 57.7831 65.8032C58.4181 65.8032 59.0195 65.673 59.5781 65.4571V63.3344C59.5773 62.3441 58.7743 61.541 57.7847 61.541Z" fill="black"/>
<path d="M57.7778 64.7217C59.6572 64.7217 61.1807 63.1982 61.1807 61.3189C61.1807 59.4395 59.6572 57.916 57.7778 57.916C55.8985 57.916 54.375 59.4395 54.375 61.3189C54.375 63.1982 55.8985 64.7217 57.7778 64.7217Z" fill="#455A64"/>
<path d="M35.3718 222.314C34.0202 236.405 56.0459 245.886 73.1197 242.308L68.1973 174.385L40.5487 177.865L35.3718 222.314Z" fill="#9903FF"/>
<path opacity="0.7" d="M35.3718 222.314C34.0202 236.405 56.0459 245.886 73.1197 242.308L68.1973 174.385L40.5487 177.865L35.3718 222.314Z" fill="white"/>
<path d="M36.273 219.833C35.8647 220.945 35.5707 222.103 35.375 223.337L44.2908 147.869C59.4284 152.257 71.2774 164.912 73.8218 181.669C76.5174 199.42 42.9518 200.649 36.273 219.833Z" fill="#9903FF"/>
<path opacity="0.35" d="M36.273 219.833C35.8647 220.945 35.5707 222.103 35.375 223.337L44.2908 147.869C59.4284 152.257 71.2774 164.912 73.8218 181.669C76.5174 199.42 42.9518 200.649 36.273 219.833Z" fill="white"/>
<path opacity="0.2" d="M59.3047 58.2898C58.8453 58.0588 58.3345 57.916 57.7852 57.916C57.2358 57.916 56.7251 58.058 56.2656 58.2898C56.7024 58.6762 57.2241 58.9249 57.7852 58.9249C58.3463 58.9249 58.8679 58.6762 59.3047 58.2898Z" fill="black"/>
<path d="M60.5552 55.087C60.5552 56.6191 59.3128 58.4436 57.7815 58.4436C56.2493 58.4436 55.0078 56.6191 55.0078 55.087C55.0078 53.5548 57.7815 40.8691 57.7815 40.8691C57.7815 40.8691 60.5552 53.5548 60.5552 55.087Z" fill="#455A64"/>
<path d="M55.9844 64.2148L37.5312 155.126C37.5312 155.126 51.0317 159.377 59.0277 163.961C72.1838 171.505 73.8176 181.67 73.8176 181.67L55.9844 64.2148Z" fill="#9903FF"/>
<path opacity="0.7" d="M55.9844 64.2148L37.5312 155.126C37.5312 155.126 51.0317 159.377 59.0277 163.961C72.1838 171.505 73.8176 181.67 73.8176 181.67L55.9844 64.2148Z" fill="white"/>
<path d="M123.578 299.069C123.578 299.454 123.623 299.805 123.692 300.123C123.861 300.791 124.19 301.289 124.643 301.595L124.677 301.618C125.414 302.094 126.456 302.048 127.6 301.391C129.82 300.111 131.622 296.995 131.622 294.423C131.622 293.178 131.18 292.317 130.489 291.875L130.501 291.863L130.308 291.75H130.296C129.809 291.535 129.231 291.5 128.586 291.682C128.269 291.772 127.94 291.919 127.601 292.113C125.379 293.393 123.578 296.508 123.578 299.069Z" fill="#455A64"/>
<path d="M124.677 290.424C125.312 290.062 125.924 289.881 126.467 289.881C126.887 289.881 127.271 289.994 127.601 290.198L127.702 290.255L130.296 291.751C129.809 291.536 129.231 291.501 128.586 291.683C128.268 291.773 127.94 291.92 127.601 292.114C125.38 293.394 123.579 296.509 123.579 299.07C123.579 299.455 123.624 299.806 123.692 300.124C123.862 300.792 124.19 301.291 124.644 301.596L121.982 300.056L121.936 300.033L121.71 299.897C121.687 299.885 121.664 299.874 121.642 299.852C121.03 299.398 120.656 298.538 120.656 297.382C120.655 294.821 122.456 291.705 124.677 290.424Z" fill="#263238"/>
<path d="M167.086 275.673C167.086 276.059 167.131 276.41 167.199 276.727C167.369 277.396 167.697 277.894 168.151 278.2L168.185 278.223C168.92 278.698 169.963 278.653 171.107 277.996C173.327 276.716 175.129 273.6 175.129 271.029C175.129 269.783 174.687 268.922 173.996 268.48L174.007 268.469L173.814 268.355H173.803C173.315 268.14 172.737 268.106 172.092 268.287C171.775 268.378 171.446 268.525 171.106 268.718C168.887 269.997 167.086 273.113 167.086 275.673Z" fill="#455A64"/>
<path d="M168.188 267.03C168.822 266.667 169.434 266.486 169.978 266.486C170.397 266.486 170.782 266.6 171.11 266.803L171.212 266.859L173.806 268.354C173.318 268.139 172.74 268.105 172.095 268.286C171.778 268.377 171.449 268.524 171.109 268.717C168.889 269.998 167.087 273.113 167.087 275.673C167.087 276.059 167.133 276.41 167.201 276.728C167.37 277.396 167.699 277.894 168.152 278.2L165.49 276.66L165.444 276.637L165.217 276.501C165.195 276.489 165.172 276.478 165.149 276.455C164.538 276.003 164.164 275.141 164.164 273.986C164.166 271.425 165.967 268.31 168.188 267.03Z" fill="#263238"/>
<path d="M159.324 308.204C159.324 308.589 159.279 308.94 159.212 309.257C159.041 309.926 158.714 310.424 158.26 310.73L158.226 310.753C157.49 311.228 156.448 311.183 155.303 310.526C153.083 309.246 151.281 306.13 151.281 303.558C151.281 302.312 151.723 301.451 152.414 301.01L152.403 300.998L152.595 300.884H152.606C153.093 300.669 153.671 300.635 154.317 300.816C154.635 300.907 154.963 301.054 155.302 301.247C157.523 302.528 159.324 305.644 159.324 308.204Z" fill="#455A64"/>
<path d="M158.228 299.559C157.594 299.196 156.982 299.016 156.438 299.016C156.019 299.016 155.634 299.129 155.306 299.333L155.204 299.389L152.609 300.885C153.097 300.67 153.674 300.635 154.32 300.817C154.638 300.907 154.966 301.054 155.306 301.248C157.526 302.528 159.327 305.643 159.327 308.204C159.327 308.588 159.281 308.939 159.214 309.257C159.044 309.926 158.716 310.424 158.263 310.729L160.925 309.189L160.97 309.166L161.197 309.03C161.219 309.018 161.242 309.007 161.265 308.985C161.876 308.532 162.25 307.671 162.25 306.515C162.249 303.955 160.448 300.839 158.228 299.559Z" fill="#263238"/>
<path d="M187.567 294.369C187.567 294.755 187.522 295.106 187.454 295.423C187.284 296.091 186.956 296.589 186.502 296.895L186.469 296.918C185.732 297.394 184.69 297.348 183.545 296.691C181.325 295.411 179.523 292.295 179.523 289.724C179.523 288.478 179.965 287.617 180.657 287.176L180.646 287.164L180.838 287.05H180.85C181.337 286.835 181.915 286.801 182.561 286.982C182.878 287.073 183.207 287.221 183.546 287.413C185.765 288.693 187.567 291.809 187.567 294.369Z" fill="#455A64"/>
<path d="M186.47 285.726C185.835 285.363 185.224 285.182 184.68 285.182C184.261 285.182 183.876 285.295 183.547 285.499L183.445 285.556L180.852 287.051C181.339 286.836 181.917 286.802 182.563 286.983C182.88 287.074 183.209 287.222 183.548 287.414C185.768 288.695 187.57 291.81 187.57 294.37C187.57 294.756 187.525 295.107 187.456 295.424C187.287 296.092 186.958 296.591 186.505 296.896L189.167 295.355L189.212 295.332L189.439 295.196C189.462 295.184 189.484 295.173 189.507 295.151C190.118 294.697 190.492 293.836 190.492 292.681C190.491 290.122 188.69 287.006 186.47 285.726Z" fill="#263238"/>
<path d="M132.973 277.403C132.973 277.788 132.927 278.139 132.859 278.456C132.69 279.125 132.361 279.623 131.908 279.928L131.874 279.951C131.137 280.427 130.096 280.381 128.952 279.724C126.731 278.444 124.93 275.329 124.93 272.757C124.93 271.511 125.372 270.65 126.062 270.208L126.051 270.197L126.244 270.084H126.255C126.742 269.869 127.32 269.834 127.965 270.016C128.283 270.106 128.611 270.253 128.952 270.446C131.171 271.727 132.973 274.842 132.973 277.403Z" fill="#455A64"/>
<path d="M131.87 268.759C131.235 268.396 130.624 268.215 130.08 268.215C129.66 268.215 129.275 268.328 128.946 268.532L128.845 268.589L126.25 270.084C126.737 269.869 127.315 269.834 127.96 270.016C128.278 270.107 128.606 270.254 128.946 270.447C131.167 271.727 132.968 274.842 132.968 277.403C132.968 277.788 132.923 278.139 132.855 278.456C132.685 279.125 132.357 279.623 131.903 279.929L134.566 278.387L134.611 278.365L134.838 278.228C134.861 278.218 134.884 278.206 134.906 278.183C135.518 277.73 135.892 276.869 135.892 275.713C135.892 273.154 134.091 270.038 131.87 268.759Z" fill="#263238"/>
<path d="M156.984 268.902L171.343 264.785V267.851L156.984 276.134V268.902Z" fill="#EBEBEB"/>
<path d="M156.987 268.903L155.57 268.035L169.973 264.1L171.346 264.786L156.987 268.903Z" fill="#F5F5F5"/>
<path d="M150.771 278.055L130.414 270.428V267.324L150.771 269.143V278.055Z" fill="#EBEBEB"/>
<path d="M130.414 267.323L131.91 266.928L151.982 268.224L150.771 269.142L130.414 267.323Z" fill="#F5F5F5"/>
<path d="M150.227 277.073C150.227 279.379 157.307 279.379 157.307 277.073V256.943H150.227V277.073Z" fill="#FAFAFA"/>
<path d="M155.534 271.834L159.428 297.112H156.766L153.125 271.834C154.037 272.094 154.811 272.025 155.534 271.834Z" fill="#F5F5F5"/>
<path d="M153.125 271.834V278.776L156.766 301.391V297.112L153.125 271.834Z" fill="#EBEBEB"/>
<path d="M159.428 297.111H156.766V301.39H159.428V297.111Z" fill="#F7EBFF"/>
<path d="M151.914 278.571L125.664 292.332V288.094L151.914 271.855V278.571Z" fill="#EBEBEB"/>
<path d="M151.912 271.855C151.285 271.765 150.705 271.554 150.227 271.092L124.023 286.988L125.662 288.093L151.912 271.855Z" fill="#F5F5F5"/>
<path d="M125.662 292.332V288.094L124.023 286.988V291.095L125.662 292.332Z" fill="#F7EBFF"/>
<path d="M185.005 287.472L156.961 277.869V271.57L185.005 283.235V287.472Z" fill="#EBEBEB"/>
<path d="M156.961 271.571C157.189 271.51 157.288 271.102 157.306 270.482L185.834 282.893L185.005 283.235L156.961 271.571Z" fill="#F5F5F5"/>
<path d="M185.837 282.893V286.993L185.008 287.471V283.234L185.837 282.893Z" fill="#F7EBFF"/>
<path opacity="0.1" d="M159.428 297.113H156.766V301.392H159.428V297.113Z" fill="black"/>
<path opacity="0.1" d="M125.662 292.332V288.094L124.023 286.988V291.095L125.662 292.332Z" fill="black"/>
<path opacity="0.1" d="M185.837 282.893V286.993L185.008 287.471V283.234L185.837 282.893Z" fill="black"/>
<path d="M159.765 221.873H147.773V263.392C147.773 266.837 159.764 266.837 159.764 263.392L159.765 221.873Z" fill="#F0F0F0"/>
<path d="M111.247 216.123L157.192 192.123C157.192 192.123 160.421 176.407 149.535 159.281C149.535 159.281 152.773 128.75 147.339 118.596C143.364 110.853 138.595 111.912 138.595 111.912L86.4141 135.47L111.247 216.123Z" fill="#9903FF"/>
<path d="M138.595 111.911L86.4141 135.469L88.1293 141.039L145.196 115.276C141.832 111.197 138.595 111.911 138.595 111.911Z" fill="#9903FF"/>
<path opacity="0.2" d="M138.595 111.911L86.4141 135.469L88.1293 141.039L145.196 115.276C141.832 111.197 138.595 111.911 138.595 111.911Z" fill="white"/>
<path opacity="0.4" d="M138.788 160.745C138.897 161.554 139.597 161.857 140.352 161.421C141.107 160.985 141.631 159.975 141.523 159.166C141.414 158.357 140.714 158.055 139.959 158.49C139.203 158.927 138.679 159.937 138.788 160.745Z" fill="white"/>
<path opacity="0.4" d="M130.834 165.339C130.944 166.148 131.643 166.451 132.399 166.015C133.154 165.579 133.678 164.569 133.57 163.76C133.46 162.951 132.761 162.648 132.005 163.084C131.25 163.52 130.726 164.53 130.834 165.339Z" fill="white"/>
<path opacity="0.4" d="M122.874 169.934C122.983 170.744 123.683 171.046 124.438 170.61C125.193 170.174 125.717 169.165 125.609 168.356C125.5 167.547 124.8 167.244 124.044 167.679C123.289 168.115 122.765 169.124 122.874 169.934Z" fill="white"/>
<path opacity="0.4" d="M114.92 174.528C115.029 175.337 115.729 175.64 116.485 175.204C117.24 174.768 117.764 173.759 117.655 172.95C117.546 172.141 116.846 171.838 116.091 172.274C115.336 172.709 114.812 173.719 114.92 174.528Z" fill="white"/>
<path d="M209.705 211.701V214.234C209.705 217.022 207.703 220.334 205.233 221.63L154.009 248.516C151.54 249.812 147.581 249.732 145.165 248.338L115.623 231.281C113.208 229.887 111.25 226.496 111.25 223.707V221.175C111.25 218.386 113.253 215.079 115.726 213.787L164.206 188.462C166.678 187.171 170.704 187.136 173.197 188.384L205.189 204.392C207.683 205.64 209.705 208.912 209.705 211.701Z" fill="#9903FF"/>
<path d="M154.012 235.883L205.236 208.997C207.706 207.701 207.686 205.639 205.192 204.39L173.2 188.382C170.706 187.134 166.681 187.169 164.209 188.461L115.728 213.785C113.256 215.076 113.21 217.253 115.626 218.648L145.168 235.704C147.583 237.099 151.543 237.179 154.012 235.883Z" fill="#9903FF"/>
<path opacity="0.2" d="M154.012 235.883L205.236 208.997C207.706 207.701 207.686 205.639 205.192 204.39L173.2 188.382C170.706 187.134 166.681 187.169 164.209 188.461L115.728 213.785C113.256 215.076 113.21 217.253 115.626 218.648L145.168 235.704C147.583 237.099 151.543 237.179 154.012 235.883Z" fill="white"/>
<path d="M150.717 249.394C148.759 249.555 146.664 249.199 145.162 248.337L115.62 231.283C113.209 229.883 111.25 226.496 111.25 223.709V221.171C111.25 218.626 112.913 215.658 115.087 214.176C113.263 215.482 113.437 217.387 115.619 218.646L145.162 235.707C146.401 236.42 148.043 236.784 149.679 236.797L150.717 249.394Z" fill="#9903FF"/>
<path opacity="0.2" d="M150.717 249.394C148.759 249.555 146.664 249.199 145.162 248.337L115.62 231.283C113.209 229.883 111.25 226.496 111.25 223.709V221.171C111.25 218.626 112.913 215.658 115.087 214.176C113.263 215.482 113.437 217.387 115.619 218.646L145.162 235.707C146.401 236.42 148.043 236.784 149.679 236.797L150.717 249.394Z" fill="black"/>
<path d="M138.594 111.911C138.594 111.911 146.145 106.797 154.108 111.394C162.071 115.991 159.439 131.455 158.588 141.42C157.737 151.385 157.457 168.753 164.435 175.068C171.412 181.384 194.261 172.989 204.231 172.989L195.439 205.407C185.745 200.127 170.237 194.707 157.191 192.121C157.191 192.121 157.617 171.911 148.35 160.367C148.35 160.367 151.768 152.281 149.533 136.086C147.464 121.096 144.667 115.418 138.594 111.911Z" fill="#9903FF"/>
<path opacity="0.15" d="M138.594 111.911C138.594 111.911 146.145 106.797 154.108 111.394C162.071 115.991 159.439 131.455 158.588 141.42C157.737 151.385 157.457 168.753 164.435 175.068C171.412 181.384 194.261 172.989 204.231 172.989L195.439 205.407C185.745 200.127 170.237 194.707 157.191 192.121C157.191 192.121 157.617 171.911 148.35 160.367C148.35 160.367 151.768 152.281 149.533 136.086C147.464 121.096 144.667 115.418 138.594 111.911Z" fill="white"/>
<path opacity="0.4" d="M195.442 205.408L199.03 192.177L156.086 179.623C157.308 186.569 157.194 192.123 157.194 192.123C170.24 194.708 185.748 200.127 195.442 205.408Z" fill="#9903FF"/>
<path opacity="0.15" d="M164.436 175.068C157.459 168.752 157.739 151.385 158.59 141.42C159.441 131.455 162.072 115.991 154.109 111.394C148.87 108.369 143.81 109.548 140.961 110.709C147.954 109.51 154.031 113.665 156.171 118.604C158.311 123.542 157.817 130.127 156.829 141.65C155.842 153.173 154.36 172.927 163.908 178.524C173.456 184.121 195.349 176.055 201.441 176.713C202.049 176.779 202.656 176.731 203.255 176.598L204.233 172.99C194.263 172.989 171.413 181.384 164.436 175.068Z" fill="white"/>
<path d="M195.434 205.408C194.983 202.511 193.145 185.827 196.256 178.566C198.962 172.25 206.066 171.879 208.298 174.586C210.416 177.153 208.536 180.572 204.984 185.207C201.985 189.12 200.905 192.776 200.905 202.25L195.434 205.408Z" fill="#9903FF"/>
<path d="M179.596 251.756C175.7 251.232 172.362 254.353 172.044 255.35C171.614 256.697 171.761 259.426 173.349 262.792C174.727 265.709 175.355 270.309 175.07 273.389C174.786 276.469 173.322 284.153 176.429 288.015C179.536 291.877 186.442 295.24 188.893 289.952C189.695 288.223 188.079 282.225 187.359 277.851C185.922 269.135 184.812 260.476 184.812 260.476L179.596 251.756Z" fill="#263238"/>
<path d="M179.387 273.185C179.549 276.932 180.483 279.511 181.895 281.336C183.675 283.637 188.13 284.923 187.602 280.107C187.234 276.754 184.812 260.477 184.812 260.477L178.375 258.713C178.819 261.757 179.441 266.825 179.365 271.5C179.356 272.087 179.364 272.648 179.387 273.185Z" fill="#C8856A"/>
<path opacity="0.15" d="M173.342 253.811C173.162 256.689 174.716 264.337 178.613 270.741C182.434 277.019 188.035 284.404 189.101 288.886C189.206 286.827 188.339 283.058 187.696 279.702C187.682 279.628 187.668 279.555 187.654 279.481C187.617 279.285 187.581 279.093 187.547 278.9C187.53 278.812 187.514 278.723 187.498 278.636C187.453 278.386 187.411 278.141 187.371 277.901C187.368 277.885 187.365 277.868 187.363 277.852C186.913 275.129 186.497 272.411 186.135 269.96C185.846 268.001 185.594 266.212 185.388 264.73C185.285 263.989 185.195 263.323 185.117 262.752C185.079 262.467 185.043 262.204 185.011 261.967C184.885 261.018 184.816 260.478 184.816 260.478L179.598 251.757C179.336 251.721 179.09 251.713 178.842 251.7C176.585 251.658 174.585 252.76 173.342 253.811Z" fill="black"/>
<path d="M196.304 200.948C183.529 191.479 167.091 181.453 167.091 181.453L128.148 183.381L168.554 213.395L185.955 225.093C185.955 225.093 189.272 224.823 187.256 230.006C186.616 231.652 185.651 234.947 184.633 238.674L192.766 260.852C192.766 260.852 197.834 253.427 203.349 239.054C208.93 224.503 209.268 219.708 208.677 216.826C207.903 213.054 206.742 208.684 196.304 200.948Z" fill="#455A64"/>
<path d="M164.484 204.818C164.998 205.165 167.268 206.74 167.864 207.158C175.904 212.807 189.489 223.756 191.022 228.566C191.974 231.544 195.569 240.216 197.564 251.478C197.564 251.478 197.289 244.012 196.986 236.696C196.562 226.464 194.698 223.589 191.367 219.819C188.148 216.193 171.05 205.83 169.859 205.138C172.799 202.798 174.23 197.987 174.217 195.561C174.217 195.561 169.916 202.922 164.484 204.818Z" fill="#263238"/>
<path d="M187.665 282.676C186.696 282.535 186.459 284.301 185.647 286.503C185.12 287.93 184.153 290.306 184.672 293.21C185.191 296.114 189.353 297.014 191.056 300.948C192.759 304.881 195.065 311.874 202.31 314.706C209.556 317.537 215.721 315.748 217.518 313.572C219.315 311.395 218.427 308.945 214.096 305.293C209.498 301.415 208.201 300.283 208.201 300.283L187.665 282.676Z" fill="#37474F"/>
<path d="M185.297 274.667C186.038 276.08 186.635 277.466 186.993 278.938C187.597 281.424 187.642 282.685 187.337 284.684C187.169 285.79 187.548 287.076 188.247 288.155C188.972 289.274 189.746 290.339 190.578 291.389C192.791 294.183 195.86 301.271 199.692 304.861C203.524 308.451 211.02 308.873 212.963 307.385C213.949 306.63 213.939 305.791 213.391 305.006C212.776 304.124 211.019 302.058 210.268 300.969C206.818 295.965 203.826 290.711 202.245 285.413C202.012 284.632 201.262 279.266 200.317 272.189" fill="#C8856A"/>
<path d="M194.859 232.085C194.01 227.501 192.777 224.972 189.096 221.685C180.542 214.05 164.75 204.872 164.75 204.872C164.75 204.872 165.881 190.935 163.131 183.264L121.285 179.773C120.513 191.407 123.587 202.385 126.074 208.242C128.147 213.122 134.305 218.773 145.122 224.739C155.623 230.53 168.399 236.919 171.016 238.139C173.633 239.36 173.429 241.197 173.949 246.492C174.484 251.943 174.814 254.231 179.825 264.844C181.718 268.854 183.801 271.816 185.296 274.667C190.944 277.146 195.989 276.516 200.315 272.19C198.408 257.908 195.706 236.657 194.859 232.085Z" fill="#455A64"/>
<path d="M209.229 199.954C207.79 199.408 206.27 199.024 204.86 198.423C203.889 198.009 202.949 197.487 201.995 197.041C201.704 196.905 199.749 195.993 200.001 195.171C200.213 194.481 203.093 195.733 206.394 195.695C209.698 195.657 210.331 193.363 208.636 192.912C205.891 192.181 202.988 191.134 199.879 189.214C196.771 187.294 190.976 187.861 188.552 186.707C185.493 185.252 170.949 175.135 170.949 175.135C170.949 175.135 167.312 162.729 165.407 155.423C162.879 145.73 161.773 141.052 156.172 139.194C153.084 138.168 151.006 138.343 151.006 138.343L149.562 157.464C149.562 157.464 151.492 169.789 154.423 177.62C156.867 184.153 157.452 184.869 162.453 187.408C168.064 190.257 185.562 198.349 185.562 198.349C188.042 200.3 190.005 203.049 192.891 204.315C194.259 204.914 195.506 205.295 196.934 205.71C198.166 206.068 199.313 206.331 200.623 206.072C201.266 205.944 201.9 205.593 202.557 205.546C203.165 205.503 203.783 205.706 204.39 205.701C206.048 205.69 206.963 204.903 208.153 203.915C209.014 203.2 210.154 203.201 211.126 202.674C213.307 201.492 210.301 200.361 209.229 199.954Z" fill="#C8856A"/>
<path d="M150.238 137.635C152.967 137.635 156.563 135.594 161.521 139.677C166.479 143.759 166.284 148.619 167.159 153.966C168.034 159.312 171.436 174.851 171.436 174.851L183.781 183.587C183.781 183.587 179.946 183.582 178.413 187.097C176.879 190.612 177.901 194.785 177.901 194.785C177.901 194.785 163.082 188.521 160.063 186.757C157.045 184.992 155.301 183.146 152.579 174.729C149.857 166.311 148.891 157.174 148.891 157.174L150.238 137.635Z" fill="#263238"/>
<path d="M197.434 195.098C196.911 195.052 196.373 195.164 195.847 195.184C195.206 195.208 194.568 195.16 193.941 195.023C192.156 194.632 190.512 193.503 189.463 192.01C189.348 191.847 189.251 192.074 189.319 192.193C190.131 193.599 191.309 194.684 192.83 195.291C193.601 195.599 194.426 195.771 195.256 195.802C195.937 195.828 196.975 195.848 197.509 195.356C197.572 195.296 197.53 195.107 197.434 195.098Z" fill="#AF6152"/>
<path d="M132.43 216.702C118.46 206.376 118.536 195.646 117.673 175.028C116.95 157.736 117.209 144.639 121.797 142.185C121.797 142.185 128.012 139.327 134.279 137.646C138.988 136.581 150.238 137.635 150.238 137.635C157.172 141.687 162.917 145.452 166.262 150.187C169.766 155.146 169.23 162.326 165.111 167.485L167.387 180.133C167.387 180.133 173.18 183.491 180.867 188.756C189.572 194.718 205.248 204.366 207.988 211.239C210.728 218.112 209.352 223.993 206.146 233.309C200.192 244.294 180.495 247.861 173.752 247.548C173.235 245.681 173.314 243.993 172.656 241.388C172.195 239.561 172.908 239.223 164.015 235.258C155.121 231.292 144.003 225.365 132.43 216.702Z" fill="#37474F"/>
<path d="M192.091 221.532C193.044 223.342 193.747 225.509 194.23 227.49C194.593 228.983 194.754 230.53 195.27 231.977C195.377 232.278 195.549 232.615 195.864 232.671C196.245 232.737 196.551 232.331 196.615 231.95C197.05 229.372 197.428 226.793 197.189 224.136C196.666 218.287 193.206 213.87 188.779 210.279C185.756 207.827 182.145 206.092 178.328 205.318C178 205.251 177.621 205.204 177.365 205.419C176.892 205.817 177.311 206.574 177.746 207.013C182.561 211.875 188.901 215.479 192.091 221.532Z" fill="#263238"/>
<path d="M119.195 117.87C119.054 119.627 118.82 121.372 118.3 123.076C117.705 125.023 116.827 127.461 116.664 129.492C116.36 133.287 118.274 136.586 123.16 137.741C122.587 136.991 121.879 136.037 121.891 134.864C125.563 137.911 130.358 138.413 135.109 137.727C134.206 137.197 133.513 136.318 133.21 135.316C135.886 136.442 138.798 136.9 141.694 137.094C143.359 137.205 145.037 137.233 146.693 137.028C149.396 136.694 152.008 135.708 154.287 134.219C155.385 133.502 157.377 132.034 159.647 128.396C157.627 128.83 155.414 128.23 153.888 126.837C151.351 124.519 151.799 121.337 151.983 118.248C152.039 117.321 152.12 116.355 152.607 115.565C153.017 114.901 153.672 114.431 154.309 113.981C155.775 112.944 156.977 112.297 157.693 110.641C158.454 108.88 158.898 107.032 158.39 105.127C158.045 103.831 157.304 102.667 156.415 101.663C154.602 99.6138 152.169 98.1799 149.592 97.2618C142.263 94.6503 133.586 94.9216 126.883 99.0678C123.848 100.945 121.62 104.119 120.507 107.471C119.395 110.817 119.477 114.366 119.195 117.87Z" fill="#263238"/>
<path d="M146.547 104.608C146.829 104.388 147.114 104.075 147.45 103.884C148.482 103.3 149.86 103.554 150.879 104.102C154.287 105.933 154.805 110.72 154.334 114.175C154.113 115.796 155.16 117.671 155.192 119.305C155.368 128.354 151.862 132.444 150.294 133.402C148.726 134.361 146.93 134.705 143.731 134.611L143.732 138.335C146.2 141.556 147.14 145.159 146.741 148.597C137.926 145.605 134.063 144.285 128.263 139.707L128.233 126.679C128.233 126.679 126.635 128.469 123.583 126.841C120.314 125.097 119.767 120.644 121.279 118.183C122.498 116.196 125.8 114.941 127.348 117.312C127.852 118.085 128.126 119.629 129.397 118.909C130.041 118.544 130.37 117.786 130.449 117.05C130.528 116.314 130.401 115.575 130.357 114.836C130.353 114.768 130.351 114.694 130.389 114.638C130.434 114.572 130.518 114.548 130.594 114.526C131.784 114.195 132.774 113.332 133.469 112.311C134.163 111.291 134.593 110.115 134.963 108.936C135.241 108.051 135.498 107.135 136.044 106.385C136.654 105.547 137.589 104.979 138.586 104.696C139.583 104.412 140.641 104.397 141.67 104.514C142.405 104.598 143.501 105.14 143.501 105.14C145.192 105.667 145.859 105.145 146.547 104.608Z" fill="#C8856A"/>
<path d="M128.262 138.728L125.078 140.718C125.078 140.718 127.869 148.391 136.969 151.325C146.069 154.259 146.742 148.598 146.742 148.598C146.742 148.598 153.84 149.905 152.675 145.478C151.511 141.051 146.141 137.352 146.141 137.352L143.731 136.547L143.732 138.338C145.373 141.773 146.447 145.006 146.504 147.873C139.741 146.266 133.761 143.004 128.262 138.728Z" fill="#F0F0F0"/>
<path d="M143.733 134.613C140.377 134.632 131.918 132.572 130.617 127.121C130.617 127.121 130.161 130.358 133.262 133.065C136.615 135.993 143.733 136.547 143.733 136.547V134.613Z" fill="#AF6152"/>
<path d="M141.411 116.621C141.541 117.485 140.97 118.283 140.139 118.405C139.307 118.525 138.529 117.924 138.401 117.061C138.272 116.197 138.843 115.399 139.674 115.277C140.505 115.156 141.284 115.758 141.411 116.621Z" fill="#263238"/>
<path d="M152.019 116.401C152.119 117.269 151.524 118.049 150.69 118.144C149.855 118.238 149.096 117.612 148.995 116.745C148.895 115.878 149.49 115.098 150.325 115.004C151.159 114.909 151.918 115.535 152.019 116.401Z" fill="#263238"/>
<path d="M140.645 111.635L137.261 113.564C136.689 112.642 136.983 111.463 137.917 110.93C138.852 110.399 140.073 110.714 140.645 111.635Z" fill="#263238"/>
<path d="M148.797 111.413L152.628 112.115C152.864 111.056 152.197 110.041 151.139 109.846C150.08 109.653 149.032 110.354 148.797 111.413Z" fill="#263238"/>
<path d="M144.586 114.697L145.236 123.791L150.23 122.11L144.586 114.697Z" fill="#AF6152"/>
<path d="M141.055 124.771C141.055 124.78 141.055 124.791 141.056 124.801C141.066 124.969 141.265 125.159 141.372 125.275C142.116 126.071 143.219 126.496 144.295 126.566C144.584 126.584 144.874 126.575 145.159 126.526C145.274 126.507 145.508 126.411 145.366 126.294C145.279 126.22 144.876 126.179 144.752 126.163C144.28 126.105 143.957 126.049 143.567 125.914C142.814 125.653 142.102 125.272 141.471 124.784C141.332 124.677 141.06 124.53 141.055 124.771Z" fill="#AF6152"/>
<path d="M135.913 109.562C136.589 108.209 138.225 105.799 139.768 105.277C141.522 104.684 142.13 104.863 143.503 105.14C139.842 102.78 134.879 103.488 132.302 107.174C131.422 108.433 131.043 109.866 130.338 111.862C129.826 113.31 129.492 114.9 128.473 116.048C127.352 117.312 125.686 118.008 124.156 117.884C125.616 119.526 128.179 119.833 130.082 119.243C131.916 118.675 133.106 116.709 133.809 114.922C134.608 112.885 135.053 111.279 135.913 109.562Z" fill="#455A64"/>
<path d="M169.738 188.603C167.465 188.671 165.213 188.932 162.945 189.124C160.632 189.32 158.296 189.362 155.99 189.062C155.892 189.049 155.764 188.998 155.782 188.9C155.79 188.855 155.83 188.823 155.867 188.795C156.784 188.12 157.827 187.609 158.647 186.818C159.467 186.028 160.043 184.832 159.685 183.752C159.659 183.673 159.627 183.594 159.57 183.534C159.398 183.351 159.098 183.414 158.863 183.504C158.131 183.786 157.519 184.214 156.764 184.437C156.005 184.661 155.237 184.862 154.454 184.985C153.499 185.136 152.524 185.173 151.59 185.42C150.299 185.761 149.158 186.485 148.102 187.279C147.101 188.032 146.403 188.485 145.144 188.683C142.702 189.068 140.703 188.881 135.578 187.776C127.559 186.047 123.29 184.942 123.29 184.942L125.182 165.054C126.106 153.983 124.165 145.494 121.208 143.297C118.336 144.589 114.748 146.979 113.237 148.923C110.543 152.387 109.968 154.975 108.812 166.494C108.042 174.155 107.396 178.89 107.041 185.813C106.487 196.595 107.401 197.258 116.882 198.782C123.392 199.828 130.134 199.83 135.58 199.742C137.819 199.722 152.121 200.722 154.505 200.406C156.888 200.09 158.775 199.132 160.043 197.887C160.415 197.522 160.759 197.132 161.123 196.761C161.433 196.445 161.654 196.143 162.076 195.959C162.381 195.826 162.705 195.74 163.005 195.594C163.762 195.226 164.206 194.544 164.405 193.751C164.683 192.644 165.912 192.392 166.85 192.112C168.805 191.527 171.368 190.885 172.756 190.237C172.805 190.214 172.85 190.18 172.876 190.133C172.903 190.083 172.9 190.023 172.891 189.966C172.695 188.585 170.77 188.572 169.738 188.603Z" fill="#C8856A"/>
<path d="M121.793 142.186C117.079 143.131 114.523 141.59 110.177 146.834C105.831 152.078 108.771 160.386 108.259 164.22C107.747 168.055 106.086 183.904 106.086 189.145C106.086 194.386 107.332 197.495 110.991 198.688C114.65 199.882 131.657 200.773 137.242 200.277C137.242 200.277 135.756 198.43 135.981 194.287C136.286 188.67 138.603 188.176 138.603 188.176L124 184.657C124 184.657 125.466 171.446 126.129 165.66C126.794 159.875 126.635 147.376 121.793 142.186Z" fill="#263238"/>
<path d="M124.004 184.656C120.304 184.061 114.309 184.884 111.984 186.755C111.984 186.755 114.399 182.501 124.217 182.742L124.004 184.656Z" fill="black"/>
<path d="M109.051 230.325L144.527 247.972L144.059 235.072L149.241 231.914C148.847 221.781 146.07 211.388 138.899 209.084C129.931 206.249 118.291 205.331 111.313 199.015C104.336 192.699 104.616 175.33 105.467 165.365C106.318 155.4 108.949 139.937 100.987 135.339C93.0236 130.742 85.4729 135.856 85.4729 135.856C82.0692 138.063 78.1145 139.661 78.4496 142.342C78.6445 143.9 79.4879 144.787 80.8697 145.071L100.666 219.995C101.85 224.481 104.905 228.242 109.051 230.325Z" fill="#9903FF"/>
<g opacity="0.2">
<path d="M109.051 230.325L144.527 247.972L144.059 235.072L149.241 231.914C148.847 221.781 146.07 211.388 138.899 209.084C129.931 206.249 118.291 205.331 111.313 199.015C104.336 192.699 104.616 175.33 105.467 165.365C106.318 155.4 108.949 139.937 100.987 135.339C93.0236 130.742 85.4729 135.856 85.4729 135.856C82.0692 138.063 78.1145 139.661 78.4496 142.342C78.6445 143.9 79.4879 144.787 80.8697 145.071L100.666 219.995C101.85 224.481 104.905 228.242 109.051 230.325Z" fill="black"/>
</g>
<path d="M95.7713 144.58C98.9565 148.392 100.599 154.446 100.012 169.327C99.4253 184.206 99.6605 196.202 105.483 203.493C112.386 212.138 136.056 219.028 136.056 219.028L145.301 214.799C143.732 212.025 141.636 209.964 138.899 209.084C129.931 206.249 118.291 205.331 111.313 199.015C104.336 192.699 104.616 175.33 105.467 165.365C106.318 155.4 108.949 139.937 100.987 135.339C93.0236 130.742 85.4729 135.856 85.4729 135.856C82.0692 138.063 78.1145 139.661 78.4496 142.342C78.6445 143.9 79.4879 144.787 80.8697 145.071C85.304 143.612 92.586 140.768 95.7713 144.58Z" fill="#9903FF"/>
<path opacity="0.15" d="M95.7713 144.58C98.9565 148.392 100.599 154.446 100.012 169.327C99.4253 184.206 99.6605 196.202 105.483 203.493C112.386 212.138 136.056 219.028 136.056 219.028L145.301 214.799C143.732 212.025 141.636 209.964 138.899 209.084C129.931 206.249 118.291 205.331 111.313 199.015C104.336 192.699 104.616 175.33 105.467 165.365C106.318 155.4 108.949 139.937 100.987 135.339C93.0236 130.742 85.4729 135.856 85.4729 135.856C82.0692 138.063 78.1145 139.661 78.4496 142.342C78.6445 143.9 79.4879 144.787 80.8697 145.071C85.304 143.612 92.586 140.768 95.7713 144.58Z" fill="white"/>
<path opacity="0.15" d="M138.899 209.082C129.931 206.247 118.291 205.329 111.313 199.013C104.336 192.697 104.616 175.328 105.467 165.363C106.318 155.398 108.949 139.935 100.986 135.337C93.0237 130.74 85.4721 135.854 85.4721 135.854C84.2726 136.632 83.0076 137.334 81.8828 138.035C92.4063 133.499 101.231 136.84 102.59 144.765C103.949 152.691 103.949 156.087 103.269 169.9C102.59 183.713 101.91 195.714 108.25 201.601C114.591 207.488 135.423 214.175 135.423 214.175L142.96 211.653C141.798 210.475 140.455 209.582 138.899 209.082Z" fill="white"/>
<path d="M144.064 235.07L149.534 231.912C149.534 225.849 147.971 212.669 140.296 209.484C134.204 206.955 131.263 210.673 131.329 212.965C131.404 215.548 132.976 217.249 136.058 219.026C140.141 221.378 144.064 225.597 144.064 235.07Z" fill="#9903FF"/>
<path d="M162.089 357.715L178.489 367.183L178.488 277.174L116.992 241.67L116.993 331.678L162.089 357.715Z" fill="#263238"/>
<path d="M178.484 277.175L292.499 211.438L292.5 301.446L178.485 367.184L178.484 277.175Z" fill="#455A64"/>
<path d="M231.007 175.932L116.992 241.669L178.488 277.173L292.503 211.436L231.007 175.932Z" fill="#9903FF"/>
<path opacity="0.1" d="M231.007 175.932L116.992 241.669L178.488 277.173L292.503 211.436L231.007 175.932Z" fill="black"/>
<path opacity="0.2" d="M202.219 276.595V347.603L203.39 346.927L203.391 275.918L202.219 276.595Z" fill="black"/>
<path opacity="0.2" d="M205.148 274.899V345.907L206.319 345.231L206.32 274.223L205.148 274.899Z" fill="black"/>
<path opacity="0.2" d="M208.07 273.206V344.214L209.241 343.538L209.243 272.529L208.07 273.206Z" fill="black"/>
<path opacity="0.2" d="M267.125 239.132V310.14L268.297 309.464L268.298 238.455L267.125 239.132Z" fill="black"/>
<path opacity="0.2" d="M270.055 237.439V308.446L271.226 307.77L271.227 236.762L270.055 237.439Z" fill="black"/>
<path opacity="0.2" d="M272.977 235.745V306.753L274.148 306.077L274.149 235.068L272.977 235.745Z" fill="black"/>
<path opacity="0.1" d="M214.234 274.227L261.849 246.904V308.444L214.515 335.768L214.234 274.227Z" fill="black"/>
<path opacity="0.25" d="M259.932 307.197L261.853 308.444L214.519 335.767L214.508 333.419L259.932 307.197Z" fill="black"/>
<path opacity="0.1" d="M259.93 248.006L214.234 274.227L214.504 333.42L259.929 307.198L259.93 248.006Z" fill="black"/>
<path d="M250.746 263.748L222.594 279.903L222.76 316.372L224.276 317.383L252.263 301.228V264.759L250.746 263.748Z" fill="#37474F"/>
<path d="M252.262 264.76L224.109 280.915L224.276 317.383L252.262 301.228V264.76Z" fill="#455A64"/>
<path d="M222.594 279.902L224.111 280.914L224.277 317.382L222.76 316.371L222.594 279.902Z" fill="#263238"/>
<path d="M246.637 283.234C246.636 283.233 246.637 283.231 246.636 283.229L244.016 279.138C244.021 279.107 244.041 279.076 244.041 279.046V278.829C244.041 278.631 243.921 278.54 243.772 278.626L238.412 281.721V280.014C238.412 279.658 238.247 279.466 238.043 279.584C237.84 279.701 237.674 280.084 237.674 280.439V282.146L232.314 285.24C232.166 285.326 232.046 285.556 232.046 285.754V285.811L229.424 292.935C229.421 292.945 229.427 292.954 229.425 292.964C229.419 292.987 229.406 293.007 229.406 293.031C229.406 294.46 229.853 295.538 230.633 295.988C230.882 296.132 231.156 296.204 231.444 296.204C231.796 296.204 232.167 296.096 232.537 295.884C234.11 294.975 235.39 292.29 235.39 289.898C235.39 289.845 235.374 289.796 235.348 289.754C235.347 289.752 235.348 289.75 235.347 289.748L232.859 285.862L237.676 283.081V297.497L235.931 298.505C235.479 298.766 235.112 299.467 235.112 300.07V300.629L234.712 300.861C233.828 301.371 233.111 302.74 233.111 303.918V304.078L242.979 298.381V298.222C242.979 297.044 242.262 296.502 241.379 297.012L240.978 297.244V296.685C240.978 296.082 240.611 295.805 240.159 296.066L238.414 297.073V282.656L243.097 279.953L240.717 286.416C240.713 286.426 240.72 286.435 240.718 286.446C240.712 286.468 240.7 286.489 240.7 286.513C240.7 287.943 241.146 289.02 241.925 289.47C242.174 289.614 242.449 289.686 242.736 289.686C243.088 289.686 243.459 289.579 243.83 289.365C245.403 288.457 246.683 285.773 246.683 283.38C246.679 283.327 246.663 283.278 246.637 283.234ZM232.465 286.282L234.718 289.802L230.211 292.405L232.465 286.282ZM232.258 295.401C231.757 295.69 231.291 295.725 230.91 295.506C230.343 295.178 229.994 294.319 229.965 293.191L234.814 290.39C234.661 292.468 233.573 294.642 232.258 295.401ZM246.01 283.284L241.502 285.886L243.757 279.763L246.01 283.284ZM243.549 288.881C243.045 289.171 242.579 289.205 242.201 288.987C241.634 288.66 241.286 287.801 241.256 286.672L246.105 283.873C245.952 285.949 244.864 288.123 243.549 288.881Z" fill="#263238"/>
<path d="M178.509 281.143L178.508 273.679L297.86 204.904L297.861 212.367L178.509 281.143Z" fill="#9903FF"/>
<path d="M178.509 273.679L114.156 236.525V243.988L178.509 281.142V273.679Z" fill="#9903FF"/>
<path opacity="0.25" d="M178.509 273.679L114.156 236.525V243.988L178.509 281.142V273.679Z" fill="black"/>
<path opacity="0.2" d="M292.5 219.751V215.463L178.512 281.142L116.992 245.624V249.911L178.511 285.43L292.5 219.751Z" fill="black"/>
<path d="M178.509 273.68L114.156 236.526L233.508 167.75L297.861 204.905L178.509 273.68Z" fill="#9903FF"/>
<path opacity="0.3" d="M178.509 273.68L114.156 236.526L233.508 167.75L297.861 204.905L178.509 273.68Z" fill="white"/>
<g opacity="0.2">
<path d="M160.309 222.856L194.901 242.828C195.439 243.139 196.311 243.139 196.849 242.828L222.306 228.13C222.844 227.82 222.844 227.317 222.306 227.006L187.714 207.034C187.177 206.723 186.305 206.723 185.766 207.034L160.309 221.731C159.772 222.042 159.772 222.546 160.309 222.856Z" fill="black"/>
</g>
<path d="M160.309 221.053L194.902 241.025C195.44 241.336 196.312 241.336 196.849 241.025L222.307 226.328C222.844 226.017 222.844 225.514 222.307 225.203L187.714 205.231C187.177 204.92 186.305 204.92 185.766 205.231L160.309 219.929C159.772 220.239 159.772 220.743 160.309 221.053Z" fill="#EBEBEB"/>
<path d="M185.768 205.231L161.594 219.188L194.903 238.419C195.442 238.73 196.313 238.73 196.851 238.419L221.025 224.462L187.715 205.231C187.178 204.92 186.306 204.92 185.768 205.231Z" fill="#F7EBFF"/>
<path d="M160.309 217.538L194.901 237.51C195.439 237.82 196.311 237.82 196.849 237.51L222.306 222.812C222.844 222.501 222.844 221.998 222.306 221.687L187.714 201.716C187.177 201.405 186.305 201.405 185.766 201.716L160.309 216.413C159.772 216.724 159.772 217.227 160.309 217.538Z" fill="#FAFAFA"/>
<path opacity="0.55" d="M266.742 211.781C274.638 211.781 281.039 208.085 281.039 203.526C281.039 198.967 274.638 195.271 266.742 195.271C258.846 195.271 252.445 198.967 252.445 203.526C252.445 208.085 258.846 211.781 266.742 211.781Z" fill="#9903FF"/>
<path d="M257.569 195.132C262.637 192.206 270.852 192.206 275.919 195.132C278.454 196.595 279.712 198.512 279.707 200.43C279.705 201.023 279.705 201.822 279.707 202.415C279.711 204.331 278.454 206.248 275.919 207.712C270.852 210.637 262.637 210.637 257.569 207.712C255.035 206.248 253.776 204.331 253.781 202.415C253.783 201.822 253.783 201.023 253.781 200.43C253.776 198.512 255.035 196.595 257.569 195.132Z" fill="#9903FF"/>
<path opacity="0.3" d="M257.569 195.132C262.637 192.206 270.852 192.206 275.919 195.132C278.454 196.595 279.712 198.512 279.707 200.43C279.705 201.023 279.705 201.822 279.707 202.415C279.711 204.331 278.454 206.248 275.919 207.712C270.852 210.637 262.637 210.637 257.569 207.712C255.035 206.248 253.776 204.331 253.781 202.415C253.783 201.822 253.783 201.023 253.781 200.43C253.776 198.512 255.035 196.595 257.569 195.132Z" fill="black"/>
<path d="M275.917 195.132C280.984 198.058 280.984 202.801 275.917 205.727C270.849 208.652 262.634 208.652 257.566 205.727C252.498 202.801 252.499 198.058 257.566 195.132C262.633 192.206 270.849 192.206 275.917 195.132Z" fill="#9903FF"/>
<path d="M259.746 193.918C263.607 191.689 269.868 191.689 273.729 193.918C275.66 195.033 276.62 196.494 276.615 197.955C276.615 198.407 276.615 198.818 276.615 199.27C276.619 200.731 275.66 202.191 273.729 203.306C269.868 205.535 263.607 205.535 259.746 203.306C257.814 202.191 256.856 200.731 256.859 199.27C256.86 198.818 256.86 198.407 256.859 197.955C256.855 196.494 257.814 195.034 259.746 193.918Z" fill="#9903FF"/>
<path opacity="0.3" d="M259.746 193.918C263.607 191.689 269.868 191.689 273.729 193.918C275.66 195.033 276.62 196.494 276.615 197.955C276.615 198.407 276.615 198.818 276.615 199.27C276.619 200.731 275.66 202.191 273.729 203.306C269.868 205.535 263.607 205.535 259.746 203.306C257.814 202.191 256.856 200.731 256.859 199.27C256.86 198.818 256.86 198.407 256.859 197.955C256.855 196.494 257.814 195.034 259.746 193.918Z" fill="black"/>
<path d="M273.731 193.918C277.593 196.147 277.593 199.762 273.731 201.991C269.87 204.221 263.609 204.221 259.748 201.991C255.886 199.762 255.886 196.147 259.748 193.918C263.609 191.689 269.87 191.689 273.731 193.918Z" fill="#9903FF"/>
<path d="M254.015 176.689C256.643 175.172 258.886 175.776 259.773 177.938C259.943 178.351 260.593 179.929 260.75 180.316C260.956 180.826 261.069 181.442 261.069 182.154C261.069 185.316 258.849 189.161 256.111 190.742C255.491 191.099 254.899 191.31 254.352 191.386C253.941 191.443 252.262 191.666 251.824 191.727C249.501 192.047 247.852 190.406 247.852 187.367C247.85 183.436 250.61 178.655 254.015 176.689Z" fill="#37474F"/>
<path d="M256.114 179.292C258.852 177.711 261.072 178.993 261.072 182.155C261.072 185.317 258.852 189.161 256.114 190.742C253.376 192.323 251.156 191.041 251.156 187.88C251.155 184.718 253.376 180.873 256.114 179.292Z" fill="#263238"/>
<path d="M262.348 179.71C261.385 179.159 260.058 179.238 258.592 180.085C255.646 181.786 253.258 185.922 253.258 189.324C253.258 191.024 253.856 192.215 254.82 192.771C255.143 192.956 263.754 197.987 264.076 198.174C265.04 198.733 266.371 198.656 267.844 197.806C270.79 196.105 273.178 191.969 273.178 188.567C273.178 186.866 272.579 185.674 271.613 185.119C271.291 184.934 262.674 179.897 262.348 179.71Z" fill="#455A64"/>
<path d="M270.472 195.486L253.952 185.893C253.511 187.042 253.258 188.222 253.258 189.325C253.258 191.024 253.856 192.215 254.82 192.771C255.143 192.957 263.754 197.988 264.076 198.174C265.04 198.734 266.371 198.656 267.844 197.806C268.801 197.254 269.697 196.443 270.472 195.486Z" fill="#37474F"/>
<path d="M267.843 185.482C270.789 183.781 273.177 185.161 273.177 188.563C273.177 191.965 270.789 196.102 267.843 197.803C264.897 199.504 262.508 198.124 262.508 194.722C262.508 191.32 264.896 187.183 267.843 185.482Z" fill="#263238"/>
<path d="M264.469 195.567C264.469 192.405 266.688 188.561 269.426 186.98C270.091 186.597 270.724 186.382 271.302 186.321C271.323 186.319 273.41 186.083 273.861 186.028C276.145 185.752 277.761 187.39 277.761 190.398C277.761 194.33 275.001 199.11 271.595 201.077C269.001 202.575 266.781 202.005 265.872 199.909C265.688 199.486 264.998 197.889 264.829 197.507C264.597 196.978 264.469 196.327 264.469 195.567Z" fill="#37474F"/>
<path d="M271.595 186.838C275 184.872 277.761 186.466 277.761 190.398C277.761 194.33 275.001 199.11 271.595 201.077C268.191 203.042 265.43 201.449 265.43 197.517C265.43 193.585 268.191 188.804 271.595 186.838Z" fill="#455A64"/>
<path d="M277.765 190.396C277.797 192.237 277.266 194.055 276.472 195.711C275.653 197.359 274.554 198.887 273.153 200.101C272.449 200.7 271.67 201.222 270.811 201.584C270.594 201.668 270.381 201.764 270.152 201.816L269.815 201.91C269.701 201.933 269.584 201.946 269.468 201.965C269.006 202.047 268.527 202.018 268.068 201.921C267.607 201.812 267.181 201.592 266.811 201.302C266.723 201.225 266.643 201.138 266.558 201.058L266.434 200.934L266.33 200.793L266.122 200.511L265.958 200.203C265.538 199.369 265.408 198.429 265.433 197.515L265.481 198.2L265.59 198.875C265.654 199.094 265.702 199.317 265.78 199.53L265.91 199.844C265.932 199.896 265.95 199.95 265.976 199.999L266.061 200.146L266.227 200.44L266.433 200.707L266.536 200.839L266.659 200.954C266.741 201.03 266.819 201.111 266.905 201.182C267.264 201.448 267.669 201.647 268.106 201.739C268.982 201.917 269.9 201.731 270.724 201.38C271.552 201.025 272.309 200.508 272.993 199.917C274.379 198.743 275.461 197.236 276.304 195.627C276.722 194.818 277.058 193.966 277.312 193.091C277.573 192.219 277.734 191.314 277.765 190.396Z" fill="#37474F"/>
<path d="M259.466 193.446C259.287 192.695 258.541 191.909 257.801 191.69C257.433 191.581 257.135 191.633 256.951 191.805L256.949 191.807L256.948 191.808L252.086 196.411C252.085 196.412 252.084 196.413 252.083 196.414L252.082 196.415C251.9 196.59 251.832 196.883 251.922 197.257C252.102 198.008 252.848 198.794 253.588 199.013C253.958 199.123 254.257 199.07 254.44 198.896L259.302 194.294L259.301 194.293C259.487 194.119 259.557 193.824 259.466 193.446Z" fill="#37474F"/>
<path d="M259.298 194.294C259.484 194.12 259.553 193.824 259.463 193.447C259.395 193.164 259.248 192.876 259.049 192.615L252.781 198.56C253.03 198.769 253.308 198.931 253.585 199.014C253.956 199.124 254.254 199.071 254.437 198.897L259.298 194.294Z" fill="#263238"/>
<path d="M238.466 207.909L251.262 196.63L251.263 196.629L251.277 196.617L251.278 196.618C251.519 196.402 251.899 196.336 252.371 196.476C253.335 196.762 254.305 197.786 254.539 198.763C254.657 199.253 254.566 199.637 254.327 199.864L242.463 212.163L242.459 212.158C242.098 212.51 241.643 212.776 241.118 212.904C239.553 213.286 237.974 212.327 237.591 210.761C237.329 209.686 237.7 208.604 238.466 207.909Z" fill="#9903FF"/>
<path opacity="0.2" d="M238.421 207.953C238.117 208.29 237.983 208.767 238.098 209.239C238.284 209.998 239.048 210.463 239.807 210.278C240.035 210.222 240.238 210.114 240.402 209.969L240.401 209.969L253.639 197.275C254.074 197.705 254.415 198.24 254.541 198.764C254.659 199.254 254.568 199.638 254.329 199.865L242.465 212.164L242.461 212.16C242.098 212.512 241.645 212.778 241.12 212.906C239.555 213.288 237.974 212.327 237.592 210.762C237.335 209.711 237.686 208.649 238.421 207.953Z" fill="black"/>
<path d="M322.936 315.147L317.977 313.657L319.401 310.393L322.538 312.91L322.936 315.147Z" fill="black"/>
<path d="M327.525 306.404C327.525 306.404 327.878 309.447 327.972 310.407C328.065 311.367 323.966 314.596 322.935 315.149L322.537 312.911C321.674 313.843 321.185 314.992 320.289 316.693C319.542 318.111 318.633 320.764 316.474 322.659C313.267 325.472 308.126 327.098 302.82 327.582C297.515 328.067 294.405 326.98 292.835 325.954C291.266 324.929 290.718 323.656 291.028 322.333C291.339 321.01 327.525 306.404 327.525 306.404Z" fill="#263238"/>
<path d="M312.761 296.782L312.605 295.014C311.624 295.041 311.64 297.613 310.328 299.945C308.564 303.08 305.934 307.03 303.328 309.583C298.185 314.619 293.53 317.861 291.237 320.127C288.168 323.159 294.058 327.373 302.71 326.417C307.005 325.943 314.545 323.427 316.566 320.853C318.587 318.28 319.709 314.384 321.337 312.506C322.965 310.628 326.566 308.625 327.526 306.403C328.052 305.181 327.856 303.516 327.622 300.212C327.467 298.027 327.653 294.488 326.404 294.827L326.372 295.945C325.904 296.92 323.579 298.694 320.135 299.454C318.417 299.835 313.253 300.275 312.761 296.782Z" fill="#37474F"/>
<path opacity="0.15" d="M317.35 299.7C315.685 299.655 313.874 299.227 313.104 297.826C313.095 297.809 313.081 297.798 313.072 297.781C313.072 297.781 313.591 299.413 312.131 301.25C310.672 303.086 301.516 315.971 301.516 315.971C301.516 315.971 310.105 305.284 311.754 303.27C314.193 300.292 314.997 299.915 317.359 299.703C317.355 299.702 317.352 299.701 317.35 299.7Z" fill="black"/>
<path opacity="0.15" d="M315.359 303.092C315.406 303.371 315.679 303.558 315.968 303.511C316.258 303.463 316.455 303.199 316.408 302.921C316.361 302.642 316.088 302.454 315.798 302.501C315.508 302.548 315.311 302.813 315.359 303.092Z" fill="black"/>
<path opacity="0.15" d="M312.936 305.963C312.983 306.242 313.256 306.429 313.545 306.382C313.835 306.334 314.032 306.071 313.985 305.792C313.938 305.513 313.666 305.325 313.376 305.372C313.087 305.42 312.89 305.684 312.936 305.963Z" fill="black"/>
<path opacity="0.15" d="M310.523 308.834C310.57 309.113 310.843 309.3 311.132 309.253C311.421 309.205 311.618 308.942 311.571 308.663C311.524 308.384 311.251 308.197 310.962 308.244C310.672 308.291 310.476 308.555 310.523 308.834Z" fill="black"/>
<path opacity="0.15" d="M308.109 311.705C308.156 311.984 308.429 312.171 308.718 312.124C309.007 312.077 309.204 311.813 309.157 311.534C309.11 311.255 308.837 311.068 308.547 311.115C308.258 311.162 308.061 311.425 308.109 311.705Z" fill="black"/>
<path opacity="0.15" d="M305.687 314.576C305.734 314.855 306.007 315.042 306.296 314.995C306.585 314.948 306.782 314.684 306.735 314.405C306.688 314.126 306.416 313.939 306.126 313.986C305.836 314.034 305.64 314.298 305.687 314.576Z" fill="black"/>
<path d="M315.913 303.21C315.963 303.203 316.011 303.179 316.045 303.141C316.124 303.055 316.116 302.925 316.027 302.85C315.914 302.754 313.238 300.526 309.909 300.9C309.909 300.9 309.907 300.9 309.905 300.9C309.79 300.916 309.707 301.017 309.72 301.129C309.733 301.242 309.838 301.323 309.956 301.31C313.099 300.958 315.718 303.139 315.744 303.161C315.792 303.202 315.855 303.218 315.913 303.21Z" fill="#263238"/>
<path d="M313.492 306.071C313.542 306.064 313.59 306.041 313.624 306.002C313.703 305.916 313.695 305.786 313.606 305.711C313.493 305.616 310.818 303.387 307.487 303.761C307.487 303.761 307.485 303.761 307.483 303.761C307.368 303.777 307.286 303.878 307.298 303.989C307.311 304.102 307.417 304.183 307.534 304.17C310.672 303.818 313.297 306 313.322 306.021C313.371 306.063 313.434 306.079 313.492 306.071Z" fill="#263238"/>
<path d="M311.078 308.952C311.128 308.945 311.176 308.922 311.21 308.883C311.289 308.797 311.281 308.667 311.192 308.592C311.079 308.497 308.404 306.268 305.073 306.642C305.073 306.642 305.071 306.642 305.069 306.643C304.954 306.659 304.871 306.759 304.884 306.871C304.897 306.984 305.003 307.065 305.12 307.052C308.258 306.7 310.883 308.881 310.908 308.903C310.957 308.943 311.019 308.959 311.078 308.952Z" fill="#263238"/>
<path d="M308.656 311.822C308.705 311.815 308.753 311.792 308.788 311.753C308.866 311.667 308.859 311.538 308.77 311.462C308.657 311.367 305.982 309.137 302.651 309.511C302.651 309.511 302.649 309.511 302.647 309.511C302.532 309.526 302.45 309.628 302.462 309.739C302.475 309.852 302.581 309.933 302.698 309.92C305.836 309.568 308.461 311.75 308.486 311.772C308.535 311.814 308.597 311.83 308.656 311.822Z" fill="#263238"/>
<path d="M306.241 314.694C306.29 314.687 306.338 314.664 306.373 314.625C306.451 314.539 306.444 314.408 306.355 314.334C306.242 314.239 303.567 312.01 300.237 312.384C300.237 312.384 300.235 312.384 300.233 312.385C300.118 312.4 300.036 312.502 300.048 312.613C300.061 312.726 300.166 312.807 300.284 312.794C303.422 312.442 306.047 314.623 306.072 314.645C306.12 314.686 306.182 314.702 306.241 314.694Z" fill="#263238"/>
<path d="M353.883 330.018C354.229 334.072 354.95 336.751 356.502 339.104C358.055 341.457 361.206 342.012 363.608 341.763C366.987 341.412 370.465 339.508 372.182 335.062C373.215 332.388 373 329.19 372.259 325.438L353.883 330.018Z" fill="#263238"/>
<path d="M366.097 300.314C367.275 300.382 367.757 305.825 368.57 311.269C369.442 317.104 371.38 320.341 372.081 324.273C373.054 329.723 372.721 332.191 370.812 335.539C368.903 338.888 360.345 342.374 356.754 337.694C353.826 333.878 353.604 329.591 353.725 324.116C353.852 318.456 353.988 314.474 353.641 310.187C353.31 306.089 352.918 302.119 353.929 301.644C354.022 302.245 354.118 303.008 354.216 303.598C354.292 304.051 354.464 306.27 355.123 306.279C355.171 305.754 355.148 305.266 355.098 304.734C355.055 304.27 355.083 303.764 355.388 303.405C355.694 303.043 356.204 302.919 356.679 302.819C357.83 302.577 358.99 302.358 360.163 302.235C360.747 302.173 361.334 302.136 361.922 302.131C362.399 302.128 364.551 302.047 365.007 302.199C365.286 302.294 365.548 302.479 365.657 302.745C365.737 302.941 365.729 303.158 365.734 303.369C365.743 303.748 365.803 304.126 365.909 304.491C365.956 304.651 366.077 304.847 366.244 304.805C366.379 304.771 366.43 304.606 366.427 304.471C366.415 303.81 366.316 303.33 366.265 302.562C366.241 302.207 366.169 301.724 366.156 301.367C366.142 301.015 366.13 300.665 366.097 300.314Z" fill="#37474F"/>
<path opacity="0.15" d="M367.804 325.705C367.833 325.923 367.672 326.12 367.447 326.146C367.222 326.172 367.016 326.017 366.988 325.799C366.959 325.582 367.12 325.384 367.345 325.358C367.57 325.333 367.776 325.488 367.804 325.705Z" fill="black"/>
<path opacity="0.15" d="M367.32 321.932C367.347 322.149 367.188 322.347 366.963 322.373C366.738 322.399 366.532 322.243 366.503 322.026C366.475 321.808 366.635 321.611 366.861 321.585C367.085 321.559 367.291 321.714 367.32 321.932Z" fill="black"/>
<path opacity="0.15" d="M366.859 318.371C366.887 318.589 366.727 318.786 366.502 318.812C366.277 318.838 366.071 318.683 366.042 318.465C366.014 318.248 366.174 318.05 366.399 318.024C366.625 317.999 366.83 318.154 366.859 318.371Z" fill="black"/>
<path opacity="0.15" d="M366.405 314.859C366.433 315.077 366.273 315.274 366.048 315.3C365.823 315.326 365.617 315.171 365.589 314.953C365.561 314.736 365.721 314.538 365.946 314.512C366.171 314.487 366.377 314.643 366.405 314.859Z" fill="black"/>
<path opacity="0.15" d="M357.108 315.588C357.137 315.806 356.976 316.003 356.751 316.029C356.526 316.055 356.32 315.9 356.292 315.682C356.264 315.465 356.424 315.267 356.649 315.241C356.874 315.215 357.079 315.37 357.108 315.588Z" fill="black"/>
<path opacity="0.15" d="M357.569 319.123C357.597 319.341 357.437 319.538 357.212 319.564C356.987 319.59 356.781 319.435 356.753 319.217C356.725 319 356.885 318.802 357.11 318.776C357.335 318.75 357.541 318.906 357.569 319.123Z" fill="black"/>
<path opacity="0.15" d="M358.03 322.686C358.058 322.903 357.898 323.101 357.673 323.127C357.448 323.153 357.242 322.997 357.214 322.78C357.186 322.562 357.346 322.365 357.571 322.339C357.796 322.313 358.001 322.468 358.03 322.686Z" fill="black"/>
<path opacity="0.15" d="M358.515 326.461C358.543 326.679 358.383 326.876 358.158 326.902C357.932 326.928 357.727 326.773 357.698 326.555C357.671 326.338 357.83 326.14 358.055 326.114C358.281 326.088 358.487 326.244 358.515 326.461Z" fill="black"/>
<path opacity="0.15" d="M362.018 328.182L358.203 301.856L359.72 301.799L362.018 328.182Z" fill="black"/>
<path d="M367.422 325.954C367.402 325.956 367.38 325.955 367.359 325.951C364.628 325.42 359.999 325.772 358.204 326.66C358.102 326.714 357.976 326.672 357.922 326.573C357.869 326.474 357.909 326.353 358.011 326.303C359.913 325.361 364.582 325 367.439 325.557C367.552 325.578 367.626 325.684 367.603 325.793C367.586 325.882 367.51 325.945 367.422 325.954Z" fill="#263238"/>
<path d="M366.93 322.179C366.894 322.182 366.857 322.178 366.823 322.162C364.726 321.254 359.762 321.872 357.711 322.887C357.608 322.939 357.484 322.899 357.43 322.8C357.376 322.701 357.417 322.58 357.52 322.529C359.659 321.47 364.782 320.837 366.993 321.796C367.098 321.842 367.146 321.961 367.098 322.061C367.067 322.129 367.002 322.171 366.93 322.179Z" fill="#263238"/>
<path d="M366.469 318.619C366.433 318.623 366.396 318.618 366.361 318.603C364.265 317.695 359.301 318.313 357.251 319.327C357.148 319.38 357.023 319.338 356.969 319.239C356.915 319.14 356.956 319.019 357.058 318.969C359.194 317.908 364.318 317.277 366.53 318.236C366.636 318.282 366.683 318.401 366.636 318.502C366.606 318.569 366.54 318.612 366.469 318.619Z" fill="#263238"/>
<path d="M366.016 315.106C365.98 315.11 365.943 315.106 365.909 315.09C363.812 314.182 358.848 314.8 356.797 315.815C356.696 315.868 356.57 315.826 356.516 315.727C356.462 315.628 356.503 315.507 356.605 315.457C358.744 314.398 363.866 313.765 366.078 314.723C366.184 314.769 366.231 314.888 366.184 314.989C366.153 315.057 366.087 315.1 366.016 315.106Z" fill="#263238"/>
<path d="M362.93 165.248C365.766 198.53 366.32 247.599 366.32 247.599C366.572 250.127 368.875 255.185 369.253 267.714C369.714 282.999 368.177 304.617 368.177 304.617C368.177 304.617 360.381 308.835 352.635 306.38C352.635 306.38 344.448 276.687 341.505 257.467C339.214 242.5 335.26 214.532 335.26 214.532L333.09 242.788C333.09 242.788 333.654 252.275 333.384 258.915C333.07 266.638 327.863 298.034 327.863 298.034C327.863 298.034 318.818 302.517 310.488 298.307C310.488 298.307 308.094 252.628 307.838 243.339C307.335 225.12 307.925 189.212 308.537 165.684L362.93 165.248Z" fill="#263238"/>
<path d="M309.93 293.803C309.93 293.803 312.139 295.52 317.161 295.932C322.183 296.345 328.946 293.803 328.946 293.803L328.142 298.886C328.142 298.886 323.388 301.455 317.228 300.858C311.067 300.261 310.13 298.955 310.13 298.955L309.93 293.803Z" fill="#455A64"/>
<path d="M368.656 300.43C368.656 300.43 364.979 302.417 359.957 302.83C354.935 303.242 351.258 301.799 351.258 301.799L352.061 306.883C352.061 306.883 354.719 308.68 360.88 308.083C367.04 307.486 368.454 305.582 368.454 305.582L368.656 300.43Z" fill="#455A64"/>
<path d="M348.516 206.646C348.816 213.79 349.205 220.933 349.667 228.073C349.891 231.644 350.135 235.214 350.394 238.783L350.781 244.137L350.987 246.814C351.048 247.707 351.207 248.593 351.312 249.483C352.256 256.597 353.596 269.493 354.664 276.597C355.727 283.703 356.897 290.799 358.171 297.885C357.515 290.751 356.754 283.627 355.886 276.513C355.024 269.398 353.779 256.501 352.792 249.395C352.681 248.506 352.516 247.62 352.449 246.729L352.228 244.055L351.761 238.709C351.451 235.145 351.125 231.582 350.779 228.019C350.104 220.893 349.355 213.77 348.516 206.646Z" fill="black"/>
<path d="M315.526 207.549C314.578 213.861 314.038 220.218 313.624 226.573C313.241 232.92 312.823 239.308 313.032 245.677C313.136 252.048 313.202 262.724 313.413 269.096C313.601 275.466 313.888 281.838 314.272 288.208C314.476 281.841 314.582 275.475 314.592 269.109C314.622 262.743 314.619 252.071 314.542 245.704L314.457 240.929L314.437 239.736L314.468 238.553L314.532 236.168L314.797 226.629L315.11 217.089C315.194 213.907 315.36 210.73 315.526 207.549Z" fill="black"/>
<path d="M335.256 214.532L331.821 196.311C331.821 196.311 322.438 195.033 317.617 190.893C317.617 190.893 320.736 196.379 329.588 198.499L332.995 214.594L333.085 242.789L335.256 214.532Z" fill="black"/>
<path d="M287.357 136.147C287.357 136.147 277.434 130.385 273.531 127.867C273.436 127.806 273.353 127.748 273.262 127.687C269.926 125.472 269.414 123.941 268.009 121.634C267.914 121.477 267.814 121.317 267.709 121.152C266.019 118.513 263.868 117.591 261.875 115.285C259.881 112.979 259.222 111.367 258.177 112.898C257.132 114.429 259.214 117.727 259.545 118.503C259.988 119.538 261.59 121.123 259.429 120.526C257.664 120.039 256.261 119.432 254.865 118.193C253.423 116.912 252.214 115.386 250.763 114.115C250.407 113.804 250.021 113.499 249.561 113.385C249.102 113.271 248.551 113.398 248.299 113.799C247.766 113.206 247.028 112.725 246.233 112.769C245.438 112.812 244.673 113.566 244.845 114.343C245 115.046 245.823 116.56 245.823 116.56C245.823 116.56 245.244 116.93 245.134 117.27C244.955 117.82 245.277 118.715 245.627 119.64C245.911 120.393 246.401 121.311 246.487 121.661C246.233 121.87 246.046 122.16 246.021 122.556C245.985 123.132 246.723 124.832 247.356 125.554C248.504 126.861 249.652 128.103 251.006 129.207C253.707 131.407 256.789 133.097 259.954 134.527C260.987 134.994 262.051 135.477 263.042 136.015C264.085 136.582 265.743 138.073 266.559 138.916C269.62 142.081 272.322 144.596 277.445 148.866C283.864 154.216 286.425 155.954 291.464 151.993L287.357 136.147Z" fill="#FFBDA7"/>
<path d="M264.39 130.813C264.012 130.244 263.558 129.742 263.203 129.154C262.82 128.522 262.531 127.844 262.327 127.135C262.117 126.409 262.008 125.68 261.951 124.928C261.923 124.566 261.921 124.201 261.944 123.839C261.967 123.499 262.059 123.162 262.066 122.823C262.068 122.729 261.912 122.43 261.812 122.617C261.48 123.231 261.438 124.139 261.411 124.825C261.38 125.595 261.506 126.395 261.717 127.134C261.922 127.853 262.227 128.552 262.605 129.196C263.013 129.89 263.587 130.687 264.29 131.104C264.46 131.205 264.437 130.885 264.39 130.813Z" fill="#F0997A"/>
<path d="M255.532 121.312C252.905 119.007 250.976 116.042 248.296 113.799C250.551 116.428 252.534 119.451 255.532 121.312ZM245.82 116.561C247.638 115.584 248.661 118.926 249.737 119.909C250.99 121.381 252.412 122.694 253.973 123.814C252.622 122.452 251.274 121.098 250.059 119.641C249.007 118.612 247.645 115.223 245.82 116.561ZM246.483 121.662C248.064 121.032 248.852 122.878 249.805 123.798C250.812 124.878 251.897 125.874 253.072 126.764C252.107 125.65 251.088 124.6 250.112 123.518C249.253 122.588 247.955 120.611 246.483 121.662Z" fill="#F0997A"/>
<path d="M274.785 128.386L272.418 126.764C272.418 126.764 272.788 130.156 270.745 133.331C268.702 136.506 265.641 138.441 265.641 138.441L267.783 140.486C267.783 140.486 270.076 140.625 273.181 136.22C276.286 131.817 274.785 128.386 274.785 128.386Z" fill="#EBEBEB"/>
<path d="M285.952 134.662C285.952 134.662 297.507 123.464 301.9 119.365C305.929 115.604 307.942 113.88 310.311 112.564C313.368 110.867 316.305 110.59 319.461 110.012L318.215 132.627C318.215 132.627 307.224 142.561 298.88 148.392C294.89 151.18 290.777 154.209 286.844 154.679C284.578 154.582 282.661 153.131 278.745 150.392C277.488 149.513 267.141 140.407 267.141 140.407C271.642 137.749 274.53 134.378 274.467 128.021L285.952 134.662Z" fill="#37474F"/>
<path d="M360.082 111.915C360.082 111.915 366.274 116.325 364.193 128.163C362.561 137.449 361.904 147.477 361.867 151.509C361.811 157.692 363.561 176.003 363.561 176.003C354.674 187.683 314.346 187.279 308.766 177.449C308.766 177.449 308.85 135.153 310.578 125.948C312.086 117.92 314.339 113.109 317.283 110.688L329.451 107.129L342.611 107.688L360.082 111.915Z" fill="#F5F5F5"/>
<path d="M350.67 75.2687C350.442 74.7866 350.167 74.3195 349.838 73.8735C349.152 72.9445 348.137 72.2162 346.992 72.0683C347.237 70.5731 346.626 69.0275 345.637 67.8801C344.646 66.7327 343.312 65.9363 341.939 65.2937C335.329 62.1975 327.219 62.1807 321.283 66.7847C318.543 68.9091 316.517 72.0465 316.092 75.4871C315.946 76.6707 316.001 77.9265 316.569 78.9748C317.341 80.4003 319.02 81.2873 320.607 81.1261C322.319 80.953 324.032 80.78 325.745 80.6061C329.453 80.2315 333.16 79.856 336.868 79.4813C337.828 79.3839 338.788 79.2873 339.748 79.1899C339.59 80.1895 339.531 81.415 339.722 82.8523C340.155 86.1207 343.954 89.3303 343.954 89.3303L343.873 93.9033L343.937 100.459C343.937 100.459 345.566 99.974 346.314 98.4191C347.061 96.8643 348.775 94.4081 350.078 88.87C351.057 84.7045 352.617 79.399 350.67 75.2687Z" fill="#263238"/>
<path d="M349.932 95.607C346.595 97.3777 344.952 94.7477 344.952 94.7477L344.951 109.473C341.959 113.788 334.845 114.958 331.316 118.212C330.67 118.808 329.795 118.555 329.412 117.905C327.716 115.024 326.83 112.667 328.135 108.749L328.015 104.604C328.015 104.604 326.872 104.641 325.065 104.393C320.571 103.775 319.014 100.831 318.3 97.5306C317.216 92.5149 317.512 85.4631 318.303 78.0174C318.474 76.4046 319.218 74.6708 320.645 73.9014C324.189 71.9904 327.616 74.4423 332.709 76.2223C334.819 76.9598 339.878 77.1371 341.187 76.4651C339.502 78.4626 340.694 83.4404 341.217 85.0095C341.97 87.2742 342.976 88.3553 343.456 88.4384C345.529 88.7979 345.706 87.023 346.595 86.0234C347.493 85.0314 350.926 84.0452 352.532 87.1692C354.155 90.3503 353.023 93.9665 349.932 95.607Z" fill="#FFBDA7"/>
<path d="M343.061 96.75C342.356 104.659 335.69 105.961 328.062 106.416L328.008 104.605C328.008 104.605 330.324 104.411 333.587 103.898C341.313 102.686 343.061 96.75 343.061 96.75Z" fill="#F0997A"/>
<path d="M332.68 81.4103L336.047 82.7342C336.393 81.7715 335.92 80.6947 334.99 80.3293C334.059 79.963 333.025 80.4477 332.68 81.4103Z" fill="#263238"/>
<path d="M320.136 81.8262L323.6 80.6888C323.32 79.7128 322.317 79.176 321.361 79.4902C320.403 79.8052 319.855 80.8501 320.136 81.8262Z" fill="#263238"/>
<path d="M334.395 85.1098C334.395 85.9238 333.734 86.584 332.92 86.584C332.105 86.584 331.445 85.9238 331.445 85.109C331.445 84.295 332.106 83.6348 332.92 83.6348C333.734 83.6356 334.395 84.2958 334.395 85.1098Z" fill="#263238"/>
<path d="M323.465 84.5336C323.465 85.3476 322.805 86.0078 321.99 86.0078C321.175 86.0078 320.516 85.3476 320.516 84.5328C320.516 83.7188 321.176 83.0586 321.991 83.0586C322.805 83.0586 323.465 83.7188 323.465 84.5336Z" fill="#263238"/>
<path d="M328.15 83.4395L326.958 92.2309L322.398 91.2557C324.031 87.2791 325.862 85.2488 328.15 83.4395Z" fill="#F0997A"/>
<path d="M332.099 93.2012L327.062 95.2869C327.616 96.7317 329.193 97.4364 330.584 96.861C331.975 96.2848 332.654 94.646 332.099 93.2012Z" fill="#B16668"/>
<path d="M331.626 94.1706C331.844 94.1059 332.062 94.0757 332.277 94.0605C332.351 95.2449 331.706 96.3966 330.588 96.8594C330.307 96.9753 330.02 97.0266 329.734 97.0425C329.432 95.8506 330.257 94.578 331.626 94.1706Z" fill="#F28F8F"/>
<path d="M327.317 119.905C327.317 119.905 325.037 115.639 325.023 113.962L327.729 111.133L328.63 118.113L327.317 119.905Z" fill="#9903FF"/>
<path opacity="0.2" d="M327.317 119.905C327.317 119.905 325.037 115.639 325.023 113.962L327.729 111.133L328.63 118.113L327.317 119.905Z" fill="black"/>
<path d="M331.031 118.37L335.65 115.18L339.54 117.754L332.438 121.449L331.031 118.37Z" fill="#9903FF"/>
<path opacity="0.2" d="M331.031 118.37L335.65 115.18L339.54 117.754L332.438 121.449L331.031 118.37Z" fill="black"/>
<path d="M333.659 161.404C331.124 148.18 330.543 127.415 330.79 123.778L328.248 123.549C326.519 127.925 321.525 149.209 321.733 159.539C321.636 163.14 326.355 172.757 328.784 172.825C331.212 172.893 334.072 163.558 333.659 161.404Z" fill="#9903FF"/>
<path opacity="0.1" d="M333.659 161.404C331.124 148.18 330.543 127.415 330.79 123.778L328.248 123.549C326.519 127.925 321.525 149.209 321.733 159.539C321.636 163.14 326.355 172.757 328.784 172.825C331.212 172.893 334.072 163.558 333.659 161.404Z" fill="white"/>
<path opacity="0.5" d="M328.055 124.101C328.131 123.873 328.182 123.721 328.249 123.553C328.25 123.551 328.25 123.549 328.25 123.549L330.792 123.778C330.771 124.086 330.775 124.389 330.797 124.895C329.88 125.046 328.559 124.48 328.055 124.101Z" fill="black"/>
<path d="M331.087 118.019C329.988 117.824 328.687 117.937 328.687 117.937C328.687 117.937 327.806 118.697 327.312 119.906C327.312 119.906 327.372 122.143 328.244 123.55C328.244 123.55 329.235 124.248 330.786 123.779C330.786 123.779 332.206 122.745 332.596 121.322C332.655 120.1 331.656 118.364 331.087 118.019Z" fill="#9903FF"/>
<path opacity="0.1" d="M331.087 118.019C329.988 117.824 328.687 117.937 328.687 117.937C328.687 117.937 327.806 118.697 327.312 119.906C327.312 119.906 327.372 122.143 328.244 123.55C328.244 123.55 329.235 124.248 330.786 123.779C330.786 123.779 332.206 122.745 332.596 121.322C332.655 120.1 331.656 118.364 331.087 118.019Z" fill="white"/>
<path d="M349.62 109.047C349.62 109.047 346.667 117.142 342.002 126.604C336.519 137.724 324.62 154.155 324.62 154.155C324.62 154.155 317.04 129.231 325.276 107.971L315.699 110.7C315.699 110.7 309.366 116.493 308.643 131.246C307.92 146 307.719 184.681 307.719 184.681C307.719 184.681 315.049 194.784 340.815 193.715C354.23 193.159 364.281 185.598 364.281 185.598C364.281 185.598 362.701 159.107 362.992 151.408C363.281 143.71 364.616 133.406 365.187 127.299C366.053 118.024 362.435 112.298 362.435 112.298L349.62 109.047Z" fill="#455A64"/>
<path d="M331.039 118.01C331.121 118.012 331.231 118.199 331.313 118.213C333.069 117.235 333.347 116.908 333.818 117.034C334.712 117.275 336.859 120.951 337.396 122.141C337.943 123.32 337.841 123.317 339.46 122.209C342.593 120.05 345.232 117.242 346.761 114.965C348.9 111.782 349.615 109.047 349.615 109.047C349.615 109.047 347.718 106.5 347.158 105.526C346.075 103.642 346.008 102.825 344.931 103.005L344.913 104.056C344.75 105.715 342.529 107.561 340.243 109.593C337.956 111.635 334.244 113.579 333.373 114.445C332.736 115.071 331.828 116.535 331.039 118.01Z" fill="#E6E6E6"/>
<path d="M323.889 119.906C324.16 120.574 326.007 115.665 327.063 115.76C327.572 115.794 327.722 116.438 328.692 117.937C328.692 117.937 329.302 117.911 329.41 117.906C328.748 116.327 328.405 114.958 328.262 113.896C328.021 112.101 328.133 108.75 328.133 108.75L328.013 104.606C327.734 104.624 327.479 104.573 327.126 104.589C326.863 104.863 325.915 106.504 325.654 106.952C324.647 108.653 323.785 110.696 323.474 112.719C322.974 115.962 323.784 119.656 323.889 119.906Z" fill="#E6E6E6"/>
<path d="M362.43 112.297C369.375 113.517 372.783 117.874 375.836 126.892C380.007 139.212 383.669 151.349 384.458 157.518L368.077 153.039L359.317 135.404C359.317 135.404 355.375 121.118 362.43 112.297Z" fill="#37474F"/>
<path d="M329.609 183.97L365.048 178.522L370.438 133.09L334.999 138.537L329.609 183.97Z" fill="#9903FF"/>
<path opacity="0.2" d="M329.609 183.97L365.048 178.522L370.438 133.09L334.999 138.537L329.609 183.97Z" fill="black"/>
<path d="M330.922 181.978L364.876 176.751L369.904 134.379L335.949 139.607L330.922 181.978Z" fill="#FAFAFA"/>
<path d="M370.434 133.076L365.05 178.529L333.281 185.988L338.674 140.535L370.434 133.076Z" fill="#9903FF"/>
<path d="M333.132 138.974C332.586 139.102 332.114 139.637 332.046 140.205L330.446 153.697C330.37 154.336 330.832 154.761 331.447 154.617L333.138 154.22L335 138.537L333.132 138.974Z" fill="#9903FF"/>
<path opacity="0.2" d="M333.132 138.974C332.586 139.102 332.114 139.637 332.046 140.205L330.446 153.697C330.37 154.336 330.832 154.761 331.447 154.617L333.138 154.22L335 138.537L333.132 138.974Z" fill="black"/>
<path d="M384.227 157.517C384.249 162.174 383.536 162.95 378.426 165.569C373.316 168.187 360.423 172.217 350.208 173.203C343.553 173.845 340.126 173.533 337.542 172.509C333.988 171.1 329.875 166.964 330.875 160.803C329.767 157.587 331.452 157.152 332.836 156.803L332.586 158.908C332.586 158.908 335.572 160.94 338.323 160.977C341.074 161.015 338.519 157.793 338.026 155.85C337.533 153.907 337.634 152.786 339.227 151.866C340.121 151.857 340.414 153.092 343.191 155.854C345.298 157.952 346.942 161.78 350.209 161.337C352.773 160.989 367.971 153.938 367.971 153.938L368.66 148.115L384.227 157.517Z" fill="#FFBDA7"/>
<path d="M355.482 159.145L352.68 160.363C352.68 160.363 355.088 162.465 355.789 165.749C356.489 169.032 355.701 172.823 355.701 172.823L359.204 171.923C359.204 171.923 359.992 168.683 359.379 165.398C358.765 162.115 357.058 159.764 355.482 159.145Z" fill="#EBEBEB"/>
<path d="M384.457 157.517C384.654 160.42 384.141 161.942 382.801 163.192C381.46 164.442 375.938 167.046 372.545 168.229C369.153 169.413 359.613 172.188 357.91 172.504C358.647 170.907 358.73 166.9 357.843 164.173C356.661 160.539 354.297 159.532 354.297 159.532L367.99 153.749L368.935 145.785L384.457 157.517Z" fill="#37474F"/>
<path d="M367.992 153.75C370.945 152.223 374.732 152.409 376.984 153.564C375.154 150.393 368.215 151.875 368.215 151.875L367.992 153.75Z" fill="#263238"/>
<path d="M294.499 68.4314C290.408 62.4758 279.471 57.5367 265.948 57.409C253.647 57.2922 238.675 60.9093 234.933 72.7281C231.742 82.8072 241.566 92.1724 251.767 94.1665C256.191 95.0317 260.313 95.4038 264.077 95.4677C265.967 98.999 270.403 101.17 273.742 101.396C272.016 99.3518 271.563 96.994 271.526 95.1863C275.286 94.8326 278.483 94.2136 280.977 93.5894C298.686 89.1626 299.075 75.0943 294.499 68.4314Z" fill="#9903FF"/>
<path opacity="0.4" d="M294.499 68.4314C290.408 62.4758 279.471 57.5367 265.948 57.409C253.647 57.2922 238.675 60.9093 234.933 72.7281C231.742 82.8072 241.566 92.1724 251.767 94.1665C256.191 95.0317 260.313 95.4038 264.077 95.4677C265.967 98.999 270.403 101.17 273.742 101.396C272.016 99.3518 271.563 96.994 271.526 95.1863C275.286 94.8326 278.483 94.2136 280.977 93.5894C298.686 89.1626 299.075 75.0943 294.499 68.4314Z" fill="white"/>
<path d="M248.446 72.6602C246.417 72.6602 244.773 74.304 244.773 76.3326C244.773 78.3612 246.417 80.0051 248.446 80.0051C250.474 80.0051 252.118 78.3612 252.118 76.3326C252.118 74.304 250.474 72.6602 248.446 72.6602ZM265.644 72.6602C263.616 72.6602 261.972 74.304 261.972 76.3326C261.972 78.3612 263.615 80.0051 265.644 80.0051C267.673 80.0051 269.317 78.3612 269.317 76.3326C269.317 74.304 267.673 72.6602 265.644 72.6602ZM282.843 72.6602C280.815 72.6602 279.171 74.304 279.171 76.3326C279.171 78.3612 280.814 80.0051 282.843 80.0051C284.872 80.0051 286.516 78.3612 286.516 76.3326C286.516 74.304 284.872 72.6602 282.843 72.6602Z" fill="white"/>
</svg>
