<svg width="420" height="420" viewBox="0 0 420 420" fill="none" xmlns="http://www.w3.org/2000/svg">
<path d="M346.655 212.051C270.693 168.194 147.927 168.194 72.4534 212.051C-3.02059 255.907 -2.61739 327.03 73.3438 370.886C149.305 414.742 272.079 414.742 347.553 370.886C423.027 327.03 422.624 255.915 346.655 212.051Z" fill="#F7EBFF"/>
<path d="M191.248 353.875C177.808 346.122 156.102 346.122 142.755 353.875C129.407 361.629 129.474 374.212 142.914 381.965C156.354 389.718 178.06 389.727 191.408 381.965C204.755 374.203 204.688 361.637 191.248 353.875Z" fill="#F7EBFF"/>
<path d="M273.086 358.857C259.688 351.129 238.049 351.129 224.744 358.857C211.438 366.585 211.514 379.126 224.903 386.854C238.293 394.582 259.94 394.59 273.237 386.854C286.534 379.117 286.475 366.593 273.086 358.857Z" fill="#F7EBFF"/>
<path d="M335.256 296.78C323.496 289.993 304.504 289.993 292.828 296.78C281.152 303.567 281.21 314.571 292.962 321.35C304.714 328.129 323.714 328.137 335.39 321.35C347.066 314.563 347.008 303.567 335.256 296.78Z" fill="#F7EBFF"/>
<path d="M291.568 249.697C279.06 242.473 258.85 242.473 246.426 249.697C234.003 256.921 234.062 268.623 246.569 275.847C259.077 283.071 279.287 283.071 291.711 275.847C304.134 268.623 304.076 256.921 291.568 249.697Z" fill="#F7EBFF"/>
<path d="M268.461 186.244C268.461 184.094 267.696 182.573 266.478 181.842H266.428L259.195 177.642C259.04 177.538 258.874 177.45 258.7 177.382C258.342 177.231 257.962 177.14 257.574 177.113C257.337 177.092 257.098 177.092 256.86 177.113H256.625L256.096 177.214L255.827 177.29C255.636 177.343 255.448 177.407 255.264 177.483L255.012 177.584C254.723 177.705 254.443 177.845 254.172 178.004L62.0894 288.606C61.8342 288.752 61.5875 288.912 61.3502 289.085L61.115 289.253L60.6194 289.64L60.3674 289.858L59.9138 290.27L59.6702 290.513L59.2418 290.975L59.015 291.219L58.595 291.731C58.5278 291.815 58.469 291.899 58.4018 291.975C58.259 292.168 58.1162 292.361 57.9818 292.563L57.8306 292.781C57.6794 293 57.5366 293.226 57.3938 293.462C57.3599 293.51 57.3291 293.561 57.3014 293.613C57.0274 294.073 56.7779 294.546 56.5538 295.032C56.5538 295.116 56.4782 295.192 56.4362 295.276L56.2346 295.772C56.1842 295.881 56.1422 295.982 56.1002 296.091C56.0582 296.2 55.991 296.393 55.9322 296.553C55.8734 296.712 55.8566 296.796 55.8146 296.914C55.7649 297.054 55.7228 297.197 55.6886 297.342L55.5878 297.754L55.4366 298.199C55.4366 298.35 55.3778 298.502 55.3526 298.653C55.3526 298.77 55.3022 298.888 55.2854 299.006C55.2854 299.174 55.2854 299.35 55.2266 299.518C55.2266 299.61 55.2266 299.711 55.2266 299.804C55.2266 300.064 55.2266 300.333 55.2266 300.585L55.571 303.886C55.5512 304.793 55.72 305.694 56.0666 306.532C56.2156 306.876 56.4106 307.198 56.6462 307.49C56.8651 307.761 57.1227 307.999 57.4106 308.195C57.5335 308.278 57.6627 308.351 57.797 308.414L64.9286 312.572L65.0378 312.63H65.0882C66.3314 313.286 68.0198 313.16 69.8846 312.093L131.28 276.729L163.2 295.889C163.612 296.124 164.04 296.343 164.452 296.553L164.872 296.754C165.157 296.889 165.451 297.023 165.712 297.141L166.216 297.342C166.485 297.452 166.762 297.552 167.056 297.645L167.593 297.83L168.433 298.073L168.979 298.216C169.257 298.292 169.534 298.35 169.819 298.409L170.34 298.518C170.643 298.577 170.953 298.628 171.264 298.67L171.709 298.737C172.163 298.796 172.625 298.846 173.087 298.88C173.549 298.913 174.061 298.922 174.549 298.922C175.036 298.922 175.523 298.922 176.019 298.88C176.994 298.819 177.965 298.696 178.925 298.51C179.479 298.401 180.025 298.266 180.563 298.124L181.067 297.972C181.453 297.855 181.823 297.737 182.201 297.603L182.755 297.393C183.125 297.25 183.495 297.099 183.856 296.939L184.351 296.721C184.864 296.469 185.376 296.208 185.88 295.923L210.417 281.886C212.07 280.922 213.383 279.469 214.174 277.726C214.966 275.984 215.196 274.039 214.835 272.159C214.603 270.875 214.097 269.656 213.352 268.585C212.607 267.514 211.64 266.616 210.517 265.952L196.489 257.552L190.534 253.982C190.241 253.799 189.96 253.597 189.694 253.377C188.331 252.297 187.353 250.807 186.905 249.126C186.727 248.449 186.637 247.752 186.636 247.052V244.859L261.942 201.49C265.756 199.289 268.847 193.93 268.83 189.554L268.461 186.244Z" fill="#F7EBFF"/>
<path d="M363.971 273.772L360.074 270.58C359.839 264.432 359.595 257.98 360.62 251.907C361.645 245.834 364.022 239.845 368.356 235.494C370.171 233.671 372.422 232.134 374.984 231.823C377.546 231.512 380.393 232.814 381.275 235.233C382.157 237.652 380.805 240.517 379.327 242.793C376.168 247.59 372.397 251.966 369.305 256.804C366.062 261.891 364.222 267.745 363.971 273.772Z" fill="#9903FF"/>
<path d="M363.971 274.613L367.868 277.813C370.749 271.732 374.723 266.104 380.199 262.206C382.158 260.995 383.987 259.588 385.659 258.006C387.239 256.326 388.331 253.999 387.877 251.74C387.289 248.85 384.215 246.935 381.258 246.918C378.301 246.901 375.537 248.397 373.253 250.278C366.239 255.99 362.198 265.717 363.971 274.613Z" fill="#9903FF"/>
<path opacity="0.3" d="M363.971 274.613L367.868 277.813C370.749 271.732 374.723 266.104 380.199 262.206C382.158 260.995 383.987 259.588 385.659 258.006C387.239 256.326 388.331 253.999 387.877 251.74C387.289 248.85 384.215 246.935 381.258 246.918C378.301 246.901 375.537 248.397 373.253 250.278C366.239 255.99 362.198 265.717 363.971 274.613Z" fill="black"/>
<path d="M361.773 272.31C361.684 272.306 361.6 272.268 361.538 272.204C361.475 272.14 361.44 272.055 361.438 271.966C361.597 262.86 363.647 246.035 375.549 235.695C375.617 235.635 375.706 235.606 375.796 235.612C375.886 235.618 375.969 235.66 376.028 235.728C376.087 235.796 376.117 235.885 376.111 235.974C376.104 236.064 376.063 236.148 375.995 236.207C370.955 240.575 362.479 251.025 362.118 271.974C362.114 272.063 362.076 272.148 362.012 272.21C361.948 272.272 361.863 272.308 361.773 272.31Z" fill="white"/>
<path d="M365.851 276.501C365.807 276.497 365.764 276.484 365.725 276.463C365.686 276.443 365.651 276.414 365.623 276.38C365.595 276.345 365.574 276.306 365.561 276.263C365.548 276.221 365.544 276.176 365.549 276.132C366.338 267.942 369.917 256.669 382.408 249.445C382.485 249.4 382.578 249.389 382.665 249.412C382.751 249.436 382.825 249.493 382.87 249.571C382.914 249.649 382.926 249.741 382.902 249.828C382.879 249.915 382.821 249.988 382.744 250.033C370.496 257.106 366.994 268.169 366.212 276.191C366.209 276.235 366.197 276.278 366.177 276.317C366.157 276.357 366.13 276.392 366.096 276.421C366.063 276.45 366.024 276.472 365.982 276.486C365.94 276.5 365.895 276.505 365.851 276.501Z" fill="white"/>
<path d="M41.5721 259.45C39.2957 257.535 36.7673 255.913 34.6169 253.855C33.1553 252.453 31.8029 250.647 31.9037 248.622C31.9941 247.681 32.3477 246.783 32.9241 246.033C33.5005 245.283 34.2763 244.71 35.1629 244.38C36.9563 243.744 38.9214 243.792 40.6817 244.515C42.4194 245.246 44.0211 246.266 45.4193 247.53C53.3282 254.303 58.3198 263.865 59.3549 274.225C59.5653 275.396 59.428 276.602 58.9601 277.695C58.6447 278.245 58.1799 278.695 57.6195 278.992C57.0591 279.29 56.426 279.422 55.7933 279.375C52.5509 279.064 52.1477 274.847 51.1649 272.512C49.8187 269.304 47.998 266.317 45.7637 263.65C44.4908 262.131 43.0884 260.726 41.5721 259.45Z" fill="#9903FF"/>
<path d="M56.3624 276.065C56.302 276.063 56.244 276.042 56.197 276.004C56.15 275.966 56.1166 275.914 56.102 275.855C54.9176 270.983 50.012 254.511 36.572 247.295C36.5406 247.278 36.5128 247.255 36.4903 247.227C36.4678 247.199 36.451 247.167 36.4409 247.133C36.4307 247.099 36.4274 247.063 36.4312 247.027C36.435 246.991 36.4457 246.957 36.4628 246.926C36.4799 246.894 36.503 246.866 36.5308 246.844C36.5587 246.821 36.5907 246.804 36.625 246.794C36.6593 246.784 36.6953 246.781 36.7309 246.785C36.7665 246.788 36.801 246.799 36.8324 246.816C50.474 254.166 55.4384 270.832 56.6312 275.763C56.6399 275.797 56.6416 275.834 56.6361 275.869C56.6307 275.904 56.6182 275.938 56.5994 275.969C56.5806 276 56.5559 276.026 56.5268 276.047C56.4976 276.068 56.4646 276.082 56.4296 276.09L56.3624 276.065Z" fill="#EBEBEB"/>
<path d="M58.7985 282.886C58.7683 284.01 58.5109 285.117 58.0417 286.139C57.5725 287.161 56.9013 288.078 56.0685 288.833C54.465 290.019 52.5626 290.735 50.5749 290.9C48.5598 291.064 46.5324 290.987 44.5353 290.673C43.5441 290.538 42.4269 290.32 42.1077 289.194C42.03 288.897 42.0199 288.585 42.078 288.283C42.1361 287.981 42.2611 287.695 42.4437 287.447C42.5962 287.225 42.7617 287.012 42.9393 286.809C43.0195 286.717 43.0702 286.603 43.0847 286.483C43.0992 286.362 43.0769 286.239 43.0206 286.131C42.9643 286.023 42.8767 285.934 42.7693 285.877C42.6618 285.82 42.5396 285.796 42.4185 285.809C41.8613 285.881 41.3003 285.921 40.7385 285.927C39.4224 285.974 38.1175 285.67 36.9585 285.045C36.1119 284.545 35.4043 283.84 34.9005 282.995C34.6486 282.661 34.494 282.264 34.454 281.847C34.414 281.43 34.49 281.011 34.6737 280.635C34.9769 280.251 35.3813 279.961 35.8413 279.795C36.2361 279.627 36.6309 279.467 37.0341 279.324C37.1472 279.282 37.2434 279.203 37.3086 279.102C37.3738 279 37.4044 278.879 37.3959 278.759C37.3874 278.638 37.3403 278.523 37.2615 278.432C37.1827 278.34 37.0764 278.276 36.9585 278.249L35.0685 277.863C34.5341 277.801 34.0234 277.607 33.5817 277.3C33.2784 276.997 33.0459 276.63 32.9007 276.226C32.7555 275.823 32.7012 275.392 32.7417 274.965C32.7417 273.831 32.9097 272.705 32.9517 271.605C33.0469 270.458 32.8624 269.305 32.4141 268.245C35.613 267.234 38.9672 266.804 42.3177 266.976C43.3178 266.983 44.3053 267.201 45.2157 267.615C45.8024 267.961 46.291 268.451 46.635 269.04C46.979 269.628 47.167 270.294 47.1813 270.975C47.1859 271.034 47.2116 271.09 47.2537 271.133C47.2958 271.175 47.3517 271.201 47.4112 271.206C47.4708 271.211 47.5302 271.195 47.5789 271.16C47.6275 271.126 47.6623 271.075 47.6769 271.017L48.3909 268.74C48.4957 268.413 48.7223 268.138 49.0239 267.972C49.3256 267.806 49.6792 267.763 50.0121 267.85C51.0876 268.144 52.0913 268.655 52.9605 269.354C53.4372 269.719 53.8359 270.177 54.1331 270.699C54.4303 271.221 54.6199 271.798 54.6909 272.394C54.8741 274.04 54.919 275.698 54.8253 277.35C54.8174 277.444 54.8394 277.538 54.8882 277.619C54.9369 277.699 55.0099 277.762 55.0967 277.798C55.1835 277.835 55.2796 277.843 55.3712 277.821C55.4627 277.8 55.5451 277.749 55.6065 277.678H55.6569C55.91 277.386 56.2639 277.2 56.6481 277.157C57.6561 277.09 58.1013 278.039 58.3281 278.879C58.6465 280.191 58.8044 281.536 58.7985 282.886Z" fill="#9903FF"/>
<path opacity="0.2" d="M58.7985 282.886C58.7683 284.01 58.5109 285.117 58.0417 286.139C57.5725 287.161 56.9013 288.078 56.0685 288.833C54.465 290.019 52.5626 290.735 50.5749 290.9C48.5598 291.064 46.5324 290.987 44.5353 290.673C43.5441 290.538 42.4269 290.32 42.1077 289.194C42.03 288.897 42.0199 288.585 42.078 288.283C42.1361 287.981 42.2611 287.695 42.4437 287.447C42.5962 287.225 42.7617 287.012 42.9393 286.809C43.0195 286.717 43.0702 286.603 43.0847 286.483C43.0992 286.362 43.0769 286.239 43.0206 286.131C42.9643 286.023 42.8767 285.934 42.7693 285.877C42.6618 285.82 42.5396 285.796 42.4185 285.809C41.8613 285.881 41.3003 285.921 40.7385 285.927C39.4224 285.974 38.1175 285.67 36.9585 285.045C36.1119 284.545 35.4043 283.84 34.9005 282.995C34.6486 282.661 34.494 282.264 34.454 281.847C34.414 281.43 34.49 281.011 34.6737 280.635C34.9769 280.251 35.3813 279.961 35.8413 279.795C36.2361 279.627 36.6309 279.467 37.0341 279.324C37.1472 279.282 37.2434 279.203 37.3086 279.102C37.3738 279 37.4044 278.879 37.3959 278.759C37.3874 278.638 37.3403 278.523 37.2615 278.432C37.1827 278.34 37.0764 278.276 36.9585 278.249L35.0685 277.863C34.5341 277.801 34.0234 277.607 33.5817 277.3C33.2784 276.997 33.0459 276.63 32.9007 276.226C32.7555 275.823 32.7012 275.392 32.7417 274.965C32.7417 273.831 32.9097 272.705 32.9517 271.605C33.0469 270.458 32.8624 269.305 32.4141 268.245C35.613 267.234 38.9672 266.804 42.3177 266.976C43.3178 266.983 44.3053 267.201 45.2157 267.615C45.8024 267.961 46.291 268.451 46.635 269.04C46.979 269.628 47.167 270.294 47.1813 270.975C47.1859 271.034 47.2116 271.09 47.2537 271.133C47.2958 271.175 47.3517 271.201 47.4112 271.206C47.4708 271.211 47.5302 271.195 47.5789 271.16C47.6275 271.126 47.6623 271.075 47.6769 271.017L48.3909 268.74C48.4957 268.413 48.7223 268.138 49.0239 267.972C49.3256 267.806 49.6792 267.763 50.0121 267.85C51.0876 268.144 52.0913 268.655 52.9605 269.354C53.4372 269.719 53.8359 270.177 54.1331 270.699C54.4303 271.221 54.6199 271.798 54.6909 272.394C54.8741 274.04 54.919 275.698 54.8253 277.35C54.8174 277.444 54.8394 277.538 54.8882 277.619C54.9369 277.699 55.0099 277.762 55.0967 277.798C55.1835 277.835 55.2796 277.843 55.3712 277.821C55.4627 277.8 55.5451 277.749 55.6065 277.678H55.6569C55.91 277.386 56.2639 277.2 56.6481 277.157C57.6561 277.09 58.1013 278.039 58.3281 278.879C58.6465 280.191 58.8044 281.536 58.7985 282.886Z" fill="black"/>
<path d="M54.6001 288.841C53.4713 286.341 52.0893 283.962 50.4757 281.743C50.4568 281.667 50.4085 281.6 50.3413 281.559C50.2573 281.441 50.1649 281.323 50.0809 281.197C49.7854 278.092 50.0703 274.959 50.9209 271.957C50.9325 271.924 50.9373 271.888 50.9351 271.853C50.933 271.817 50.9238 271.782 50.9082 271.75C50.8926 271.718 50.8709 271.69 50.8442 271.666C50.8176 271.643 50.7865 271.625 50.7529 271.613C50.7192 271.601 50.6836 271.597 50.6481 271.599C50.6126 271.601 50.5779 271.61 50.5459 271.626C50.5139 271.641 50.4853 271.663 50.4617 271.69C50.4382 271.716 50.4201 271.747 50.4085 271.781C49.5902 274.573 49.2605 277.486 49.4341 280.391C45.8101 275.53 41.0283 271.652 35.5237 269.11C35.4568 269.081 35.3814 269.081 35.3139 269.107C35.2463 269.134 35.192 269.186 35.1625 269.253C35.1342 269.319 35.1333 269.395 35.16 269.462C35.1867 269.53 35.2389 269.584 35.3053 269.614C40.9364 272.225 45.7996 276.243 49.4257 281.281C46.2513 280.54 42.93 280.739 39.8665 281.853C39.8099 281.878 39.7636 281.922 39.7351 281.977C39.7065 282.033 39.6973 282.096 39.7089 282.157C39.7205 282.218 39.7523 282.273 39.7992 282.314C39.846 282.355 39.9052 282.379 39.9673 282.382H40.0681C43.2485 281.233 46.7091 281.11 49.9633 282.029C51.5637 284.226 52.9345 286.582 54.0541 289.06C54.0753 289.109 54.1104 289.151 54.1551 289.181C54.1998 289.211 54.2523 289.227 54.3061 289.228H54.4069C54.4474 289.219 54.4854 289.201 54.5181 289.176C54.5509 289.15 54.5775 289.118 54.596 289.081C54.6146 289.044 54.6245 289.003 54.6252 288.962C54.6259 288.92 54.6173 288.879 54.6001 288.841Z" fill="#EBEBEB"/>
<path d="M76.5301 47.3263C80.0581 45.2851 83.0485 46.2847 83.9977 49.4515C84.8595 47.7281 86.1788 46.2751 87.8113 45.2515C90.5833 43.6471 92.8513 44.9323 92.8513 48.1159V49.5607L96.5977 47.3851C98.5381 46.2679 100.117 47.1667 100.126 49.4011C100.055 50.6145 99.6981 51.7939 99.085 52.8434C98.472 53.8929 97.6197 54.7829 96.5977 55.4407L65.0977 73.6435C63.1573 74.7607 61.5781 73.8619 61.5781 71.6359C61.6412 70.4202 61.9915 69.2366 62.6004 68.1824C63.2093 67.1282 64.0593 66.2333 65.0809 65.5711L68.7937 63.4207V60.7327C68.7685 55.8019 72.2377 49.8043 76.5301 47.3263Z" fill="#F7EBFF"/>
<path d="M107.391 59.2382C109.911 57.7766 112.07 58.4906 112.75 60.767C113.361 59.5151 114.309 58.4589 115.488 57.7178C117.471 56.567 119.092 57.491 119.1 59.7758V60.8258L121.797 59.2802C123.191 58.4402 124.317 59.129 124.317 60.725C124.267 61.5969 124.013 62.4449 123.575 63.2007C123.137 63.9565 122.528 64.5989 121.797 65.0762L99.1841 78.1214C97.7897 78.9614 96.6641 78.281 96.6641 76.685C96.7095 75.812 96.9616 74.9622 97.3997 74.2057C97.8378 73.4493 98.4494 72.8077 99.1841 72.3338L101.855 70.7882V68.8814C101.95 66.951 102.502 65.0706 103.464 63.3944C104.426 61.7182 105.772 60.2938 107.391 59.2382Z" fill="#F7EBFF"/>
<path opacity="0.2" d="M214.835 263.416C214.603 262.132 214.097 260.913 213.352 259.841C212.607 258.77 211.64 257.872 210.517 257.208L190.534 245.221C189.336 244.502 188.345 243.485 187.657 242.269C186.97 241.053 186.609 239.68 186.611 238.283V228.766L141.436 254.881L137.664 257.04V267.758C137.662 268.841 137.879 269.913 138.3 270.91C138.721 271.907 139.339 272.81 140.117 273.563C140.335 273.773 140.57 273.974 140.814 274.168C141.098 274.388 141.399 274.588 141.713 274.764L163.175 287.137C166.188 288.882 169.562 289.908 173.036 290.136C173.524 290.17 174.011 290.186 174.498 290.186C174.985 290.186 175.472 290.186 175.968 290.186C179.439 289.972 182.814 288.96 185.83 287.23L210.366 273.185C212.042 272.231 213.375 270.774 214.177 269.021C214.979 267.268 215.209 265.307 214.835 263.416Z" fill="#455A64"/>
<path d="M214.835 263.416C214.603 262.132 214.097 260.913 213.352 259.841C212.607 258.77 211.64 257.872 210.517 257.208L190.534 245.221C189.336 244.502 188.345 243.485 187.657 242.269C186.97 241.053 186.609 239.68 186.611 238.283V228.766L141.436 254.881L137.664 257.04V267.758C137.663 269.179 138.036 270.575 138.747 271.805C139.458 273.035 140.481 274.056 141.713 274.764L163.175 287.137C166.625 289.12 170.535 290.164 174.515 290.164C178.495 290.164 182.405 289.12 185.855 287.137L210.391 273.092C212.045 272.14 213.361 270.697 214.157 268.963C214.954 267.229 215.19 265.29 214.835 263.416Z" fill="#455A64"/>
<path d="M210.358 269.725L185.998 283.661C182.498 285.669 178.533 286.725 174.498 286.725C170.463 286.725 166.498 285.669 162.998 283.661L144.922 273.236C143.867 272.632 142.992 271.76 142.382 270.708C141.773 269.656 141.452 268.463 141.452 267.247V254.916L137.664 257.041V267.76C137.663 269.18 138.036 270.576 138.747 271.806C139.458 273.036 140.481 274.057 141.713 274.765L163.175 287.138C166.625 289.122 170.535 290.165 174.515 290.165C178.495 290.165 182.405 289.122 185.855 287.138L210.391 273.094C212.06 272.143 213.39 270.694 214.193 268.95C214.996 267.205 215.232 265.252 214.868 263.366C214.634 264.694 214.107 265.953 213.327 267.052C212.547 268.152 211.533 269.065 210.358 269.725Z" fill="#37474F"/>
<path d="M144.922 273.201C143.867 272.597 142.992 271.724 142.382 270.673C141.773 269.621 141.452 268.427 141.452 267.212V254.881L137.664 257.04V267.758C137.663 269.179 138.036 270.575 138.747 271.805C139.458 273.035 140.481 274.056 141.713 274.764L149.323 279.157V275.73L144.922 273.201Z" fill="#263238"/>
<path d="M144.923 273.202L149.325 275.722L196.491 248.766L190.535 245.196C189.338 244.477 188.347 243.46 187.659 242.244C186.972 241.028 186.611 239.655 186.613 238.258V228.766L141.438 254.881V267.212C141.439 268.429 141.763 269.624 142.375 270.676C142.987 271.728 143.866 272.599 144.923 273.202Z" fill="#37474F"/>
<path d="M268.46 26.3095C268.46 24.1507 267.696 22.6303 266.478 21.8995H266.428L259.195 17.6995C259.038 17.6005 258.872 17.5162 258.7 17.4475C258.342 17.2962 257.961 17.2054 257.574 17.1787C256.372 17.1414 255.187 17.4663 254.172 18.1111L62.0891 128.672C61.8371 128.815 61.5935 128.974 61.3499 129.142L61.1147 129.319L60.6191 129.705L60.3671 129.923L59.9135 130.335L59.6699 130.579L59.2415 131.032L59.0147 131.284C58.8719 131.452 58.7291 131.62 58.5947 131.797L58.4015 132.04C58.2587 132.233 58.1159 132.427 57.9815 132.628L57.8303 132.838C57.6791 133.065 57.5363 133.292 57.3935 133.527C57.3597 133.576 57.3288 133.626 57.3011 133.678C57.0272 134.138 56.7776 134.612 56.5535 135.098L56.4359 135.341L56.2343 135.837C56.1839 135.938 56.1419 136.047 56.0999 136.156L55.9319 136.61L55.8143 136.979C55.7639 137.122 55.7219 137.265 55.6799 137.408L55.5791 137.819L55.4783 138.214C55.4783 138.365 55.4195 138.517 55.3943 138.659C55.3691 138.802 55.3439 138.903 55.3271 139.012C55.3103 139.121 55.3271 139.365 55.2683 139.533C55.2095 139.701 55.2683 139.718 55.2683 139.819C55.2683 140.079 55.2683 140.339 55.2683 140.6L55.6127 295.109C55.593 296.016 55.7618 296.917 56.1083 297.755C56.3837 298.434 56.8507 299.018 57.4523 299.435C57.5772 299.515 57.7062 299.588 57.8387 299.654L64.9703 303.812L65.0795 303.871H65.1299C66.3731 304.526 68.0615 304.4 69.9263 303.325L261.917 192.755C265.73 190.555 268.822 185.195 268.805 180.819L268.46 26.3095ZM69.3803 144.875C69.547 143.183 70.2236 141.58 71.3207 140.281C70.2374 141.577 69.57 143.169 69.4055 144.85L69.3803 144.875ZM256.7 32.9875L72.8243 138.827L261.648 30.1651L256.759 32.9875H256.7ZM69.3803 145.934L69.7163 290.338V295.546L69.3803 145.934Z" fill="#37474F"/>
<path d="M268.462 26.3089C268.462 24.1501 267.698 22.6297 266.48 21.8989H266.43L259.197 17.6989C257.937 16.8589 256.156 16.9681 254.157 18.1105L62.0912 128.671C58.2692 130.88 55.1864 136.231 55.2032 140.608L55.5476 295.117C55.5476 297.184 56.2532 298.662 57.3872 299.426C57.5121 299.506 57.641 299.579 57.7736 299.645L64.9052 303.803L65.0144 303.862H65.0648C66.308 304.517 67.9964 304.391 69.8612 303.316L261.919 192.755C265.732 190.554 268.824 185.195 268.807 180.818L268.462 26.3089ZM257.089 178.45C256.96 179.639 256.584 180.788 255.985 181.824C255.386 182.86 254.578 183.759 253.611 184.464L69.7184 290.338V295.546L69.3824 144.875C69.5106 143.686 69.8862 142.538 70.4852 141.504C71.0841 140.469 71.8931 139.572 72.86 138.869L261.65 30.1645L256.761 32.9869L257.089 178.45Z" fill="#37474F"/>
<path d="M257.087 178.449L256.76 32.9863L72.8838 138.826C71.917 139.529 71.108 140.427 70.509 141.461C69.9101 142.495 69.5344 143.644 69.4062 144.832L69.7171 290.337L253.601 184.497C254.573 183.789 255.386 182.885 255.986 181.843C256.587 180.801 256.962 179.645 257.087 178.449Z" fill="#9903FF"/>
<path opacity="0.3" d="M257.087 178.449L256.76 32.9863L72.8838 138.826C71.917 139.529 71.108 140.427 70.509 141.461C69.9101 142.495 69.5344 143.644 69.4062 144.832L69.7171 290.337L253.601 184.497C254.573 183.789 255.386 182.885 255.986 181.843C256.587 180.801 256.962 179.645 257.087 178.449Z" fill="black"/>
<path opacity="0.2" d="M257.087 178.449L256.76 32.9863L72.8838 138.826C71.917 139.529 71.108 140.427 70.509 141.461C69.9101 142.495 69.5344 143.644 69.4062 144.832L69.7171 290.337L253.601 184.497C254.573 183.789 255.386 182.885 255.986 181.843C256.587 180.801 256.962 179.645 257.087 178.449Z" fill="white"/>
<path d="M259.161 17.6403C257.901 16.8003 256.12 16.9095 254.121 18.0519L62.0883 128.672C59.8173 130.105 57.9883 132.141 56.8047 134.551L64.1967 138.819C65.3751 136.407 67.2017 134.371 69.4719 132.939L261.521 22.3611C263.419 21.2607 265.142 21.1515 266.393 21.8571L259.161 17.6403Z" fill="#455A64"/>
<path d="M55.2031 140.609L55.5475 295.118C55.5475 297.185 56.2531 298.663 57.3871 299.427C57.512 299.507 57.641 299.58 57.7735 299.646L64.9051 303.804C63.6787 303.073 62.9227 301.544 62.9227 299.394L62.5783 144.893C62.6396 142.772 63.1947 140.696 64.1995 138.828L56.8075 134.561C55.8079 136.424 55.2584 138.495 55.2031 140.609Z" fill="#263238"/>
<path d="M261.65 30.1641L256.762 32.9865L257.089 178.449C256.96 179.639 256.584 180.788 255.985 181.824C255.386 182.859 254.578 183.758 253.612 184.464L69.7188 290.337V295.545L258.509 186.841C259.476 186.138 260.285 185.241 260.884 184.206C261.482 183.172 261.858 182.023 261.986 180.835L261.65 30.1641Z" fill="#263238"/>
<path d="M89.7848 171.755L89.7512 160.599L82.25 156.273L82.2836 167.177V167.429L89.7848 171.755Z" fill="#F7EBFF"/>
<path d="M90.1491 301.013L89.7879 171.754L82.3203 167.428L82.6815 296.435C82.6425 296.853 82.7126 297.274 82.8848 297.657C83.0571 298.039 83.3257 298.371 83.6643 298.619L91.0815 303.138C90.7633 302.888 90.5117 302.563 90.3491 302.192C90.1865 301.822 90.1178 301.417 90.1491 301.013Z" fill="#EBEBEB"/>
<path d="M89.7686 160.574V154.148C89.8297 152.954 90.173 151.792 90.7702 150.757C91.3674 149.722 92.2015 148.843 93.2042 148.192L287.958 35.7417C288.303 35.4921 288.707 35.3375 289.13 35.2933C289.553 35.249 289.98 35.3168 290.369 35.4897L282.943 30.9453C282.545 30.7425 282.099 30.6548 281.654 30.6919C281.208 30.729 280.782 30.8895 280.423 31.1553L85.6778 143.64C84.674 144.291 83.8392 145.171 83.2419 146.208C82.6446 147.245 82.302 148.409 82.2422 149.604V156.03V156.282L89.7434 160.608L89.7686 160.574Z" fill="#9903FF"/>
<path opacity="0.3" d="M89.7686 160.574V154.148C89.8297 152.954 90.173 151.792 90.7702 150.757C91.3674 149.722 92.2015 148.843 93.2042 148.192L287.958 35.7417C288.303 35.4921 288.707 35.3375 289.13 35.2933C289.553 35.249 289.98 35.3168 290.369 35.4897L282.943 30.9453C282.545 30.7425 282.099 30.6548 281.654 30.6919C281.208 30.729 280.782 30.8895 280.423 31.1553L85.6778 143.64C84.674 144.291 83.8392 145.171 83.2419 146.208C82.6446 147.245 82.302 148.409 82.2422 149.604V156.03V156.282L89.7434 160.608L89.7686 160.574Z" fill="white"/>
<path opacity="0.2" d="M89.7848 171.755L89.7512 160.599L82.25 156.273L82.2836 167.177V167.429L89.7848 171.755Z" fill="#F7EBFF"/>
<path d="M287.955 35.7416C289.854 34.6412 291.408 35.5316 291.408 37.7156V44.15L89.7656 160.574V154.148C89.8268 152.954 90.17 151.792 90.7672 150.757C91.3644 149.722 92.1986 148.843 93.2012 148.192L287.955 35.7416Z" fill="#9903FF"/>
<path d="M274.894 46.3762C275.919 45.7882 276.742 46.2586 276.75 47.4346C276.715 48.0723 276.529 48.6927 276.21 49.2457C275.89 49.7987 275.445 50.2689 274.911 50.6182C273.894 51.2062 273.062 50.7274 273.062 49.5598C273.095 48.9222 273.277 48.3013 273.595 47.7479C273.914 47.1945 274.359 46.7244 274.894 46.3762Z" fill="white"/>
<path d="M280.56 43.1247C281.576 42.5367 282.408 43.0155 282.416 44.1831C282.378 44.8223 282.191 45.4436 281.868 45.9968C281.546 46.5499 281.097 47.0192 280.56 47.3667C279.535 47.9547 278.712 47.4843 278.703 46.3083C278.741 45.6691 278.928 45.0477 279.251 44.4946C279.573 43.9414 280.022 43.4721 280.56 43.1247Z" fill="white"/>
<path d="M286.144 39.882C287.169 39.294 287.992 39.7644 288.001 40.9404C287.965 41.5782 287.78 42.1986 287.46 42.7516C287.141 43.3046 286.696 43.7747 286.161 44.124C285.145 44.712 284.313 44.2332 284.305 43.0656C284.34 42.4279 284.525 41.8075 284.845 41.2545C285.164 40.7015 285.61 40.2314 286.144 39.882Z" fill="white"/>
<path d="M130.336 130.787C131.092 130.35 131.797 130.417 132.159 130.98L133.99 133.802C134.351 134.365 135.048 134.449 135.813 134.004L291.414 44.166V55.3464L89.7891 171.77V160.598L95.7615 157.146C96.6098 156.601 97.2514 155.788 97.5843 154.836L99.3903 149.922C99.7226 148.975 100.361 148.165 101.205 147.62L130.336 130.787Z" fill="#F7EBFF"/>
<path d="M291.481 55.3301L291.843 184.581C291.782 185.774 291.438 186.937 290.841 187.972C290.244 189.007 289.41 189.886 288.407 190.536L93.6111 302.979C91.7043 304.079 90.1587 303.197 90.1503 301.013L89.7891 171.754L291.481 55.3301Z" fill="#F5F5F5"/>
<path d="M283.461 51.0384C284.814 50.2572 285.914 50.8788 285.914 52.4328C285.866 53.2749 285.62 54.0938 285.197 54.8235C284.774 55.5531 284.185 56.1729 283.478 56.6328L112.782 155.215C111.421 156.005 110.32 155.375 110.32 153.821C110.369 152.978 110.615 152.158 111.04 151.428C111.465 150.699 112.056 150.079 112.765 149.621L283.461 51.0384Z" fill="white"/>
<path d="M93.0094 161.591C93.0462 161.565 93.0902 161.551 93.1354 161.551C93.1805 161.551 93.2245 161.565 93.2614 161.591C93.3874 161.675 93.379 161.935 93.2614 162.162L92.1778 163.918L95.0086 162.288C95.2018 162.179 95.353 162.288 95.353 162.481C95.3462 162.602 95.3116 162.719 95.2518 162.824C95.1921 162.929 95.1088 163.019 95.0086 163.086L92.1862 164.716L93.2698 165.228C93.4042 165.295 93.421 165.539 93.2698 165.774C93.2107 165.884 93.1238 165.977 93.0178 166.043C92.981 166.06 92.9408 166.069 92.9002 166.069C92.8595 166.069 92.8194 166.06 92.7826 166.043L91.0522 165.203L90.9766 165.136V165.001V164.825L91.0438 164.682L92.7238 161.86C92.7933 161.746 92.8919 161.653 93.0094 161.591Z" fill="#F7EBFF"/>
<path d="M99.1159 158.063C99.1534 158.044 99.1952 158.033 99.2377 158.033C99.2801 158.033 99.3219 158.044 99.3595 158.063L101.09 158.903L101.157 158.979V159.122V159.298L101.098 159.433L99.3679 162.272C99.3096 162.368 99.2289 162.449 99.1327 162.507C99.0943 162.529 99.0509 162.541 99.0067 162.541C98.9624 162.541 98.919 162.529 98.8807 162.507C98.7547 162.423 98.7631 162.171 98.8807 161.936L99.9559 160.189L97.1335 161.818C96.9403 161.927 96.7891 161.818 96.7891 161.617C96.7961 161.499 96.8301 161.385 96.8884 161.283C96.9467 161.181 97.0276 161.094 97.1251 161.029L99.9559 159.399L98.8723 158.887C98.7295 158.819 98.7295 158.567 98.8723 158.332C98.9283 158.223 99.0124 158.13 99.1159 158.063Z" fill="#F7EBFF"/>
<path d="M104.931 154.703C105.101 154.591 105.292 154.514 105.493 154.478C105.694 154.442 105.9 154.447 106.098 154.493L106.359 154.149C106.409 154.08 106.472 154.02 106.544 153.972C106.6 153.941 106.664 153.926 106.728 153.93C106.846 153.93 106.905 154.073 106.888 154.241L106.745 155.308C106.726 155.437 106.674 155.558 106.594 155.661C106.539 155.726 106.477 155.785 106.409 155.837H106.317L105.477 156.072C105.448 156.081 105.417 156.084 105.388 156.079C105.358 156.075 105.329 156.064 105.304 156.047C105.279 156.03 105.258 156.008 105.243 155.981C105.228 155.955 105.219 155.926 105.216 155.896C105.208 155.81 105.218 155.724 105.244 155.641C105.27 155.559 105.312 155.483 105.368 155.417L105.452 155.3C105.264 155.308 105.081 155.366 104.922 155.468C104.564 155.703 104.265 156.02 104.05 156.392C103.836 156.764 103.712 157.181 103.688 157.61C103.688 158.399 104.25 158.71 104.931 158.324C105.435 157.999 105.819 157.518 106.023 156.954C106.075 156.796 106.183 156.662 106.325 156.576C106.372 156.545 106.428 156.527 106.485 156.526C106.653 156.526 106.72 156.744 106.628 156.988C106.318 157.863 105.727 158.61 104.948 159.113C103.889 159.726 103.016 159.231 103.016 158.004C103.051 157.342 103.244 156.698 103.577 156.124C103.909 155.55 104.374 155.063 104.931 154.703Z" fill="#F7EBFF"/>
<g opacity="0.3">
<path d="M93.0094 161.591C93.0462 161.565 93.0902 161.551 93.1354 161.551C93.1805 161.551 93.2245 161.565 93.2614 161.591C93.3874 161.675 93.379 161.935 93.2614 162.162L92.1778 163.918L95.0086 162.288C95.2018 162.179 95.353 162.288 95.353 162.481C95.3462 162.602 95.3116 162.719 95.2518 162.824C95.1921 162.929 95.1088 163.019 95.0086 163.086L92.1862 164.716L93.2698 165.228C93.4042 165.295 93.421 165.539 93.2698 165.774C93.2107 165.884 93.1238 165.977 93.0178 166.043C92.981 166.06 92.9408 166.069 92.9002 166.069C92.8595 166.069 92.8194 166.06 92.7826 166.043L91.0522 165.203L90.9766 165.136V165.001V164.825L91.0438 164.682L92.7238 161.86C92.7933 161.746 92.8919 161.653 93.0094 161.591Z" fill="black"/>
</g>
<g opacity="0.3">
<path d="M99.1159 158.063C99.1534 158.044 99.1952 158.033 99.2377 158.033C99.2801 158.033 99.3219 158.044 99.3595 158.063L101.09 158.903L101.157 158.979V159.122V159.298L101.098 159.433L99.3679 162.272C99.3096 162.368 99.2289 162.449 99.1327 162.507C99.0943 162.529 99.0509 162.541 99.0067 162.541C98.9624 162.541 98.919 162.529 98.8807 162.507C98.7547 162.423 98.7631 162.171 98.8807 161.936L99.9559 160.189L97.1335 161.818C96.9403 161.927 96.7891 161.818 96.7891 161.617C96.7961 161.499 96.8301 161.385 96.8884 161.283C96.9467 161.181 97.0276 161.094 97.1251 161.029L99.9559 159.399L98.8723 158.887C98.7295 158.819 98.7295 158.567 98.8723 158.332C98.9283 158.223 99.0124 158.13 99.1159 158.063Z" fill="black"/>
</g>
<g opacity="0.3">
<path d="M104.931 154.703C105.101 154.591 105.292 154.514 105.493 154.478C105.694 154.442 105.9 154.447 106.098 154.493L106.359 154.149C106.409 154.08 106.472 154.02 106.544 153.972C106.6 153.941 106.664 153.926 106.728 153.93C106.846 153.93 106.905 154.073 106.888 154.241L106.745 155.308C106.726 155.437 106.674 155.558 106.594 155.661C106.539 155.726 106.477 155.785 106.409 155.837H106.317L105.477 156.072C105.448 156.081 105.417 156.084 105.388 156.079C105.358 156.075 105.329 156.064 105.304 156.047C105.279 156.03 105.258 156.008 105.243 155.981C105.228 155.955 105.219 155.926 105.216 155.896C105.208 155.81 105.218 155.724 105.244 155.641C105.27 155.559 105.312 155.483 105.368 155.417L105.452 155.3C105.264 155.308 105.081 155.366 104.922 155.468C104.564 155.703 104.265 156.02 104.05 156.392C103.836 156.764 103.712 157.181 103.688 157.61C103.688 158.399 104.25 158.71 104.931 158.324C105.435 157.999 105.819 157.518 106.023 156.954C106.075 156.796 106.183 156.662 106.325 156.576C106.372 156.545 106.428 156.527 106.485 156.526C106.653 156.526 106.72 156.744 106.628 156.988C106.318 157.863 105.727 158.61 104.948 159.113C103.889 159.726 103.016 159.231 103.016 158.004C103.051 157.342 103.244 156.698 103.577 156.124C103.909 155.55 104.374 155.063 104.931 154.703Z" fill="black"/>
</g>
<path d="M139.404 187.73L139.413 190.519L101.126 212.628L101.117 209.839L139.404 187.73Z" fill="#F7EBFF"/>
<path d="M186.496 155.484L186.504 158.273L101.11 207.573L101.102 204.792L186.496 155.484Z" fill="#F7EBFF"/>
<path d="M186.48 150.436L186.489 153.216L101.094 202.516L101.086 199.735L186.48 150.436Z" fill="#F7EBFF"/>
<path d="M186.464 145.379L186.473 148.168L101.078 197.467V194.678L186.464 145.379Z" fill="#F7EBFF"/>
<path d="M160.699 141.406L160.708 144.531L155.575 147.488L155.584 148.924L160.086 146.329L160.095 149.294L155.592 151.889L155.601 153.502L160.918 150.436L160.926 153.544L152.073 158.66L152.039 146.413L160.699 141.406Z" fill="#37474F"/>
<path d="M151.102 146.949L151.11 150.15L147.986 151.956L148.011 160.994L144.424 163.069L144.399 154.03L141.274 155.828L141.266 152.628L151.102 146.949Z" fill="#37474F"/>
<path d="M134.16 165.21L136.402 167.73L132.572 169.948L130.749 167.915L129.775 168.478V171.552L126.18 173.627V161.388L131.312 158.423C134.286 156.743 136.167 157.407 136.176 160.238C136.121 162.083 135.406 163.848 134.16 165.21ZM131.077 164.572C131.506 164.364 131.869 164.041 132.125 163.639C132.382 163.237 132.522 162.772 132.53 162.296C132.53 161.405 132.06 161.128 131.068 161.699L129.758 162.455V165.328L131.068 164.572" fill="#37474F"/>
<path d="M124.507 162.305V169.025C124.516 170.82 124.04 172.583 123.13 174.13C122.219 175.677 120.907 176.948 119.333 177.811C116.065 179.701 114.133 178.693 114.125 175.014V168.294L117.712 166.227V172.838C117.712 174.711 118.35 175.047 119.392 174.468C120.433 173.888 121.013 172.83 121.013 170.957V164.346L124.507 162.305Z" fill="#37474F"/>
<path d="M106.897 172.199C110.366 170.2 112.911 171.426 112.92 175.131C112.928 178.835 110.4 183.01 106.93 185.009C103.461 187.008 100.908 185.79 100.891 182.077C100.874 178.365 103.419 174.198 106.897 172.199ZM106.897 181.666C107.634 181.184 108.238 180.524 108.653 179.748C109.069 178.971 109.282 178.103 109.274 177.222C109.274 175.315 108.199 174.778 106.88 175.542C106.14 176.021 105.533 176.68 105.115 177.457C104.698 178.234 104.485 179.104 104.494 179.986C104.494 181.901 105.561 182.43 106.897 181.666Z" fill="#37474F"/>
<path d="M169.32 136.432L174.016 145.991L170.303 148.133L169.581 146.453L165.524 148.796L164.818 151.316L161.164 153.425L165.792 138.49L169.32 136.432ZM166.506 145.21L168.581 144.017L167.54 141.497L166.506 145.176" fill="#37474F"/>
<path d="M187.314 126.041L187.381 138.271L184.105 140.161L184.055 134.592L181.762 140.413L180.174 141.329L177.847 138.372L177.864 143.765L174.588 145.655L174.555 133.408L177.503 131.703L180.997 136.23L184.366 127.746L187.314 126.041Z" fill="#37474F"/>
<path d="M211.382 159.877L211.567 225.8L147.911 262.55L147.727 196.627L211.382 159.877Z" fill="#9903FF"/>
<path d="M283.34 70.2246L283.449 107.369L197.383 157.055L197.273 119.911L283.34 70.2246Z" fill="#9903FF"/>
<path d="M141.519 200.213L141.704 266.136L101.342 289.438L101.148 223.523L141.519 200.213Z" fill="#455A64"/>
<path d="M282.802 118.641L282.987 184.564L217.786 222.213L217.602 156.289L282.802 118.641Z" fill="#455A64"/>
<path opacity="0.4" d="M141.519 200.213L141.704 266.136L101.342 289.438L101.148 223.523L141.519 200.213Z" fill="white"/>
<path opacity="0.4" d="M282.802 118.641L282.987 184.564L217.786 222.213L217.602 156.289L282.802 118.641Z" fill="white"/>
<path d="M228.206 108.553L228.214 112.954L203.837 127.066L203.82 122.665L228.206 108.553Z" fill="#9903FF"/>
<path d="M234.268 112.248L234.276 114.928L203.86 132.433L203.852 129.754L234.268 112.248Z" fill="#9903FF"/>
<g opacity="0.3">
<path d="M228.206 108.553L228.214 112.954L203.837 127.066L203.82 122.665L228.206 108.553Z" fill="white"/>
<path d="M234.26 112.248L234.269 114.928L203.852 132.433L203.844 129.754L234.26 112.248Z" fill="white"/>
<path d="M229.032 131.207L229.04 133.903L203.899 148.57L203.891 145.882L229.032 131.207Z" fill="white"/>
<path d="M234.292 123L234.3 125.688L203.876 143.194L203.867 140.506L234.292 123Z" fill="white"/>
<path d="M218.081 126.916L218.09 129.604L203.86 137.819L203.852 135.131L218.081 126.916Z" fill="white"/>
</g>
<path d="M121.4 218.197L121.417 222.221L105.86 231.2L105.852 227.177L121.4 218.197Z" fill="#455A64"/>
<path d="M136.896 215.703L136.905 217.593L105.883 235.51L105.875 233.612L136.896 215.703Z" fill="#455A64"/>
<path d="M136.912 219.492V221.382L105.891 239.299V237.401L136.912 219.492Z" fill="#455A64"/>
<path d="M127.914 233.754L127.93 237.778L105.922 250.487L105.914 246.463L127.914 233.754Z" fill="#455A64"/>
<path d="M121.405 232.234L121.413 234.124L105.898 243.079V241.189L121.405 232.234Z" fill="#455A64"/>
<path d="M114.383 274.924V276.814L106.008 281.652V279.762L114.383 274.924Z" fill="#455A64"/>
<g opacity="0.8">
<path d="M121.4 218.197L121.417 222.221L105.86 231.2L105.852 227.177L121.4 218.197Z" fill="white"/>
<path d="M136.888 215.703L136.897 217.593L105.876 235.51L105.867 233.612L136.888 215.703Z" fill="white"/>
<path d="M136.904 219.492V221.382L105.883 239.299V237.401L136.904 219.492Z" fill="white"/>
<path d="M127.914 233.754L127.93 237.778L105.922 250.487L105.914 246.463L127.914 233.754Z" fill="white"/>
<path d="M121.397 232.234L121.405 234.124L105.891 243.079V241.189L121.397 232.234Z" fill="white"/>
<path d="M114.375 274.924V276.814L106 281.652V279.762L114.375 274.924Z" fill="white"/>
<path d="M137.013 258.064V259.954L105.992 277.863V275.973L137.013 258.064Z" fill="white"/>
<path d="M136.998 254.275L137.006 256.165L105.985 274.083L105.977 272.184L136.998 254.275Z" fill="white"/>
<path d="M119.443 257.973L119.451 261.988L105.969 269.766L105.961 265.751L119.443 257.973Z" fill="white"/>
<path d="M131.456 245.75V247.64L105.954 262.365L105.945 260.467L131.456 245.75Z" fill="white"/>
<path d="M136.959 238.77L136.967 240.668L105.946 258.577L105.938 256.687L136.959 238.77Z" fill="white"/>
<path d="M136.951 234.99L136.959 236.889L105.93 254.797V252.899L136.951 234.99Z" fill="white"/>
</g>
<path d="M188.508 193.141L175.866 217.156L172.288 223.96L174.749 216.299L167.786 210.89L160.016 226.312L160.041 235.729L200.781 212.209L200.756 202.784L188.508 193.141Z" fill="#9903FF"/>
<path d="M175.158 205.875C176.165 205.217 177.003 204.332 177.605 203.29C178.206 202.248 178.553 201.079 178.619 199.877C178.619 197.677 177.048 196.786 175.133 197.895C174.124 198.549 173.284 199.433 172.683 200.474C172.081 201.515 171.735 202.684 171.672 203.884C171.68 206.093 173.234 206.975 175.158 205.875Z" fill="#9903FF"/>
<g opacity="0.3">
<path d="M188.508 193.141L175.866 217.156L172.288 223.96L174.749 216.299L167.786 210.89L160.016 226.312L160.041 235.729L200.781 212.209L200.756 202.784L188.508 193.141Z" fill="white"/>
<path d="M175.15 205.875C176.157 205.217 176.996 204.332 177.597 203.29C178.198 202.248 178.545 201.079 178.611 199.877C178.611 197.677 177.04 196.786 175.125 197.895C174.116 198.549 173.276 199.433 172.675 200.474C172.073 201.515 171.727 202.684 171.664 203.884C171.672 206.093 173.226 206.975 175.15 205.875Z" fill="white"/>
</g>
<path d="M260.61 152.301L247.968 176.316L244.39 183.12L246.851 175.46L239.879 170.05L232.117 185.472L232.142 194.889L272.882 171.369L272.857 161.944L260.61 152.301Z" fill="#455A64"/>
<path d="M247.243 165.035C248.253 164.38 249.093 163.495 249.694 162.452C250.296 161.41 250.642 160.24 250.704 159.038C250.704 156.837 249.142 155.946 247.226 157.055C246.215 157.706 245.373 158.589 244.771 159.631C244.169 160.672 243.824 161.843 243.766 163.044C243.766 165.254 245.328 166.136 247.243 165.035Z" fill="#455A64"/>
<g opacity="0.8">
<path d="M260.61 152.301L247.968 176.316L244.39 183.12L246.851 175.46L239.879 170.05L232.117 185.472L232.142 194.889L272.882 171.369L272.857 161.944L260.61 152.301Z" fill="white"/>
<path d="M247.243 165.035C248.253 164.38 249.093 163.495 249.694 162.452C250.296 161.41 250.642 160.24 250.704 159.038C250.704 156.837 249.142 155.946 247.226 157.055C246.215 157.706 245.373 158.589 244.771 159.631C244.169 160.672 243.824 161.843 243.766 163.044C243.766 165.254 245.328 166.136 247.243 165.035Z" fill="white"/>
</g>
<path d="M229.032 131.207L229.04 133.903L203.899 148.57L203.891 145.882L229.032 131.207Z" fill="#9903FF"/>
<path d="M234.3 123L234.308 125.688L203.883 143.194L203.875 140.506L234.3 123Z" fill="#9903FF"/>
<path d="M218.089 126.916L218.097 129.604L203.868 137.819L203.859 135.131L218.089 126.916Z" fill="#9903FF"/>
<path d="M137.021 258.064V259.954L106 277.863V275.973L137.021 258.064Z" fill="#455A64"/>
<path d="M137.006 254.275L137.014 256.165L105.993 274.083L105.984 272.184L137.006 254.275Z" fill="#455A64"/>
<path d="M119.443 257.973L119.451 261.988L105.969 269.766L105.961 265.751L119.443 257.973Z" fill="#455A64"/>
<path d="M131.456 245.75V247.64L105.954 262.365L105.945 260.467L131.456 245.75Z" fill="#455A64"/>
<path d="M136.959 238.77L136.967 240.668L105.946 258.577L105.938 256.687L136.959 238.77Z" fill="#455A64"/>
<path d="M136.951 234.99L136.959 236.889L105.93 254.797V252.899L136.951 234.99Z" fill="#455A64"/>
<path d="M278.157 103.865L275.805 105.218L277.216 127.301L279.459 140.481L287.178 141.38L284.02 127.301L280.45 103.991L278.157 103.865Z" fill="#FFCAC9"/>
<path d="M278.75 138.868C284.076 136.877 287.553 139.708 287.553 139.708L288.393 162.295L278.893 156.861L278.75 138.868Z" fill="#9903FF"/>
<path d="M278.75 138.868C284.076 136.877 287.553 139.708 287.553 139.708L288.393 162.295L278.893 156.861L278.75 138.868Z" fill="#455A64"/>
<path opacity="0.1" d="M278.75 138.868C284.076 136.877 287.553 139.708 287.553 139.708L288.393 162.295L278.893 156.861L278.75 138.868Z" fill="white"/>
<path d="M272.947 81.6719L247.789 96.1955L247.848 115.423L273.006 100.899L272.947 81.6719Z" fill="#9903FF"/>
<path d="M272.945 81.6721L273.004 100.9L275.331 102.252L275.272 80.3281L272.945 81.6721Z" fill="#9903FF"/>
<path d="M247.844 115.424L247.852 118.12L275.329 102.253L273.002 100.9L247.844 115.424Z" fill="#9903FF"/>
<path d="M278.082 75.4727L244.969 94.5911L245.053 122.983L278.157 103.865L278.082 75.4727ZM247.842 118.119V115.423L247.8 96.1955L272.958 81.6719L275.284 80.3279L275.343 102.252L247.842 118.119Z" fill="#9903FF"/>
<path d="M278.08 75.4735L275.745 74.1211L242.641 93.2395L244.967 94.5919L278.08 75.4735Z" fill="#9903FF"/>
<path d="M242.641 93.2402L242.716 121.624L245.051 122.985L244.967 94.5926L242.641 93.2402Z" fill="#9903FF"/>
<path d="M247.789 96.1955L272.947 81.6719L273.006 100.899L247.848 115.423L247.789 96.1955Z" fill="#9903FF"/>
<path d="M264.96 88.9727L271.814 94.3739L271.831 99.6491L249.017 112.829L249 107.545L253.351 98.9099L257.249 101.942L255.871 106.235L257.879 102.421L264.96 88.9727Z" fill="#9903FF"/>
<path d="M257.455 91.6353C258.531 91.0137 259.404 91.5094 259.413 92.7442C259.376 93.4174 259.182 94.0726 258.845 94.6564C258.507 95.2403 258.037 95.7363 257.472 96.1042C256.397 96.7258 255.523 96.2218 255.523 94.987C255.557 94.3153 255.75 93.6613 256.086 93.0786C256.422 92.496 256.891 92.0013 257.455 91.6353Z" fill="#9903FF"/>
<path opacity="0.5" d="M272.945 81.6721L273.004 100.9L275.331 102.252L275.272 80.3281L272.945 81.6721Z" fill="white"/>
<path opacity="0.8" d="M247.844 115.424L247.852 118.12L275.329 102.253L273.002 100.9L247.844 115.424Z" fill="white"/>
<path opacity="0.7" d="M278.082 75.4727L244.969 94.5911L245.053 122.983L278.157 103.865L278.082 75.4727ZM247.842 118.119V115.423L247.8 96.1955L272.958 81.6719L275.284 80.3279L275.343 102.252L247.842 118.119Z" fill="white"/>
<path opacity="0.9" d="M278.08 75.4735L275.745 74.1211L242.641 93.2395L244.967 94.5919L278.08 75.4735Z" fill="white"/>
<path opacity="0.5" d="M242.641 93.2402L242.716 121.624L245.051 122.985L244.967 94.5926L242.641 93.2402Z" fill="white"/>
<path opacity="0.6" d="M272.946 81.6719L247.797 96.1955L247.856 115.423L272.997 100.899L272.946 81.6719ZM257.457 91.6343C258.532 91.0127 259.406 91.5083 259.414 92.7431C259.378 93.4163 259.183 94.0715 258.846 94.6553C258.509 95.2392 258.039 95.7352 257.474 96.1031C256.398 96.7247 255.525 96.2207 255.525 94.9859C255.559 94.3142 255.752 93.6602 256.087 93.0775C256.423 92.4949 256.893 92.0002 257.457 91.6343ZM249.015 112.827V107.552L253.366 98.9087L257.264 101.941L255.886 106.233L257.894 102.42L264.975 88.9799L271.829 94.3811V99.6563L249.015 112.827Z" fill="white"/>
<path opacity="0.3" d="M264.96 88.9727L257.879 102.421L255.871 106.235L257.249 101.942L253.351 98.9099L249 107.545L249.017 112.829L271.831 99.6491L271.814 94.3739L264.96 88.9727Z" fill="white"/>
<path opacity="0.3" d="M257.472 96.1042C258.037 95.7363 258.507 95.2403 258.845 94.6564C259.182 94.0726 259.376 93.4174 259.413 92.7442C259.413 91.5094 258.531 91.0137 257.455 91.6353C256.89 92.0021 256.42 92.4981 256.084 93.0823C255.748 93.6665 255.556 94.3222 255.523 94.9953C255.523 96.2217 256.397 96.7258 257.472 96.1042Z" fill="white"/>
<path d="M255.424 145.866L251.089 140.28L246.268 117.525C246.137 116.915 246.189 116.281 246.419 115.702L247.007 114.249C247.31 113.482 247.453 112.662 247.427 111.838L247.326 108.646C247.316 108.394 247.208 108.156 247.027 107.981C246.846 107.806 246.604 107.707 246.352 107.705C246.124 107.705 245.904 107.785 245.729 107.931C245.554 108.077 245.436 108.279 245.394 108.503L244.899 111.275L243.723 112.619L242.664 108.831V103.992L240.279 107.453C239.639 108.382 239.383 109.523 239.565 110.637L240.564 116.693L243.025 141.616C243.277 144.155 244.264 146.566 245.865 148.554L248.561 151.914L255.424 145.866Z" fill="#FFCAC9"/>
<path d="M268.883 278.526C268.585 279.218 268.093 279.81 267.468 280.23C266.842 280.65 266.109 280.881 265.355 280.895C263.853 280.897 262.357 280.705 260.903 280.324C257.602 279.728 254.41 280.324 251.109 280.24C250.027 280.248 248.947 280.133 247.892 279.896C246.828 279.648 245.866 279.079 245.136 278.266C244.727 277.786 244.452 277.206 244.338 276.586C244.27 277.065 244.306 277.553 244.444 278.017C244.581 278.481 244.818 278.91 245.136 279.274C245.866 280.087 246.828 280.656 247.892 280.904C248.947 281.141 250.027 281.256 251.109 281.248C254.41 281.332 257.602 280.736 260.903 281.332C262.357 281.713 263.853 281.905 265.355 281.903C266.109 281.889 266.842 281.658 267.468 281.238C268.093 280.818 268.585 280.226 268.883 279.534C269.02 279.04 269.057 278.523 268.992 278.014C268.97 278.187 268.933 278.359 268.883 278.526Z" fill="#455A64"/>
<path d="M268.798 275.789L268.193 272.781C268.118 272.245 267.944 271.726 267.681 271.253C267.548 271.016 267.354 270.82 267.119 270.685C266.883 270.551 266.616 270.483 266.345 270.488C264.531 270.245 261.985 269.59 260.465 270.623C258.086 272.251 255.248 273.075 252.367 272.975C250.879 272.799 249.379 272.74 247.882 272.798C246.395 272.975 244.849 273.806 244.404 275.234C244.283 275.66 244.257 276.108 244.329 276.545C244.442 277.165 244.717 277.745 245.127 278.225C245.856 279.038 246.818 279.606 247.882 279.854C248.938 280.091 250.017 280.207 251.099 280.199C254.4 280.274 257.592 279.686 260.893 280.283C262.347 280.663 263.843 280.855 265.345 280.854C266.099 280.84 266.832 280.609 267.458 280.189C268.084 279.768 268.575 279.177 268.873 278.485C268.926 278.304 268.962 278.118 268.983 277.931C269.034 277.211 268.971 276.489 268.798 275.789Z" fill="#455A64"/>
<path d="M260.034 267.473L259.899 271.387C259.885 271.79 260.028 272.182 260.298 272.481C260.567 272.78 260.942 272.963 261.344 272.991C262.655 273.097 263.973 273.097 265.284 272.991C265.816 272.939 266.311 272.698 266.682 272.314C267.053 271.929 267.275 271.425 267.308 270.891L267.459 268.002L260.034 267.473Z" fill="#FFCAC9"/>
<path d="M285.595 265.389C285.58 265.968 285.4 266.531 285.074 267.01C284.607 267.572 283.949 267.943 283.226 268.052C282.361 268.199 281.473 268.1 280.661 267.766C279.85 267.432 279.15 266.876 278.64 266.162C278.144 265.448 277.867 264.608 277.397 263.877C276.693 262.894 275.823 262.041 274.826 261.357C273.829 260.667 272.955 259.815 272.239 258.837C271.899 258.364 271.677 257.818 271.591 257.242C271.505 256.666 271.557 256.079 271.744 255.527C271.648 255.658 271.566 255.799 271.5 255.947C271.281 256.527 271.209 257.151 271.29 257.765C271.37 258.379 271.601 258.964 271.962 259.467C272.695 260.462 273.59 261.328 274.608 262.029C275.625 262.73 276.512 263.602 277.229 264.608C277.708 265.355 277.993 266.221 278.497 266.96C279.013 267.694 279.726 268.266 280.555 268.611C281.383 268.956 282.292 269.059 283.176 268.909C283.914 268.795 284.585 268.412 285.057 267.833C285.482 267.163 285.676 266.373 285.612 265.582C285.595 265.557 285.595 265.439 285.595 265.389Z" fill="#455A64"/>
<path d="M284.415 260.476C283.222 258.393 280.769 256.872 278.871 255.436C277.835 254.534 276.56 253.95 275.2 253.756C274.522 253.676 273.836 253.8 273.229 254.111C272.622 254.422 272.121 254.907 271.789 255.503C271.789 255.503 271.789 255.579 271.747 255.612C271.561 256.164 271.509 256.751 271.595 257.327C271.681 257.902 271.903 258.449 272.243 258.922C272.959 259.9 273.833 260.752 274.83 261.442C275.827 262.126 276.697 262.978 277.401 263.962C277.871 264.693 278.148 265.533 278.644 266.247C279.154 266.961 279.854 267.517 280.665 267.851C281.476 268.185 282.365 268.284 283.23 268.137C283.953 268.028 284.611 267.657 285.078 267.095C285.403 266.616 285.584 266.053 285.599 265.474C285.599 265.289 285.599 265.096 285.599 264.911C285.58 263.357 285.173 261.832 284.415 260.476Z" fill="#455A64"/>
<path d="M279.25 258.67V262.232C280.124 262.641 281.085 262.831 282.049 262.787C283.013 262.744 283.952 262.466 284.786 261.98L285.122 258.779L279.25 258.67Z" fill="#FFCAC9"/>
<path d="M286.053 194.107C287.12 197.316 285.81 212.52 285.213 227.111C287.523 232.63 286.893 248.287 285.566 259.401C285.566 259.401 283.256 260.829 279.073 259.401L273.84 228.715L273.109 211.369C273.109 211.369 271.79 226.758 270.278 236.628C271.698 244.188 271.345 245.616 267.834 268.876C266.612 269.488 265.265 269.807 263.898 269.807C262.532 269.807 261.184 269.488 259.963 268.876C257.972 236.2 258.703 206.422 259.081 195.712L286.053 194.107Z" fill="#9903FF"/>
<path opacity="0.5" d="M286.053 194.107C287.12 197.316 285.81 212.52 285.213 227.111C287.523 232.63 286.893 248.287 285.566 259.401C285.566 259.401 283.256 260.829 279.073 259.401L273.84 228.715L273.109 211.369C273.109 211.369 271.79 226.758 270.278 236.628C271.698 244.188 271.345 245.616 267.834 268.876C266.612 269.488 265.265 269.807 263.898 269.807C262.532 269.807 261.184 269.488 259.963 268.876C257.972 236.2 258.703 206.422 259.081 195.712L286.053 194.107Z" fill="black"/>
<path opacity="0.1" d="M286.053 194.107C287.12 197.316 285.81 212.52 285.213 227.111C287.523 232.63 286.893 248.287 285.566 259.401C285.566 259.401 283.256 260.829 279.073 259.401L273.84 228.715L273.109 211.369C273.109 211.369 271.79 226.758 270.278 236.628C271.698 244.188 271.345 245.616 267.834 268.876C266.612 269.488 265.265 269.807 263.898 269.807C262.532 269.807 261.184 269.488 259.963 268.876C257.972 236.2 258.703 206.422 259.081 195.712L286.053 194.107Z" fill="white"/>
<path opacity="0.3" d="M273.518 221.928L272.922 207.783C276.576 207.783 279.969 205.053 282.548 202.457C280.82 205.269 278.281 207.491 275.265 208.833L273.518 221.928Z" fill="black"/>
<path d="M258.484 196.559C274.797 203.396 285.364 197.222 286.809 194.039C286.053 182.766 288.724 169.57 288.489 163.967C288.254 158.364 287.624 152.039 278.93 153.299L269.69 154.198L265.003 155.34L259.383 167.016L258.484 196.559Z" fill="#455A64"/>
<path d="M278.925 148.872C279.584 148.913 280.232 148.692 280.731 148.259C280.919 148.052 281.056 147.804 281.131 147.534C281.205 147.264 281.215 146.98 281.159 146.705C281.434 146.654 281.691 146.535 281.908 146.359C282.125 146.183 282.295 145.955 282.402 145.697C282.486 145.414 282.503 145.115 282.454 144.824C282.404 144.533 282.289 144.257 282.117 144.017C282.512 143.914 282.882 143.728 283.199 143.47C283.516 143.212 283.775 142.889 283.956 142.522C284.14 142.144 284.242 141.732 284.255 141.312C284.268 140.892 284.192 140.474 284.032 140.086C284.467 139.971 284.866 139.746 285.19 139.433C285.513 139.12 285.751 138.728 285.88 138.297C286.017 137.848 286.041 137.373 285.95 136.913C285.859 136.453 285.656 136.022 285.359 135.659C285.733 135.158 285.967 134.567 286.04 133.946C286.112 133.325 286.019 132.696 285.771 132.123C285.482 131.548 285.051 131.057 284.519 130.697C283.987 130.337 283.37 130.119 282.73 130.065C282.819 129.463 282.757 128.848 282.548 128.276C282.34 127.704 281.992 127.193 281.537 126.789C281.078 126.405 280.529 126.143 279.941 126.029C279.354 125.914 278.747 125.95 278.177 126.134C277.967 125.632 277.633 125.192 277.208 124.853C276.782 124.515 276.278 124.289 275.743 124.197C275.207 124.105 274.656 124.15 274.142 124.327C273.628 124.503 273.167 124.807 272.801 125.21C272.536 124.901 272.198 124.663 271.819 124.517C271.439 124.37 271.029 124.32 270.625 124.37C270.216 124.408 269.822 124.546 269.478 124.771C269.134 124.997 268.85 125.303 268.651 125.663C268.136 125.429 267.569 125.332 267.006 125.38C266.442 125.428 265.9 125.62 265.432 125.938C264.964 126.256 264.585 126.689 264.333 127.196C264.08 127.702 263.962 128.265 263.989 128.83C263.576 128.951 263.214 129.205 262.96 129.553C262.706 129.901 262.575 130.323 262.587 130.754C262.624 131.194 262.8 131.612 263.09 131.945C263.38 132.279 263.768 132.512 264.199 132.61C265.015 137.036 266.476 141.318 268.534 145.319C269.449 147.1 270.575 148.906 272.347 149.83C274.271 150.846 277.287 150.275 278.925 148.872Z" fill="#37474F"/>
<path d="M263.548 138.432L261.633 141.758L263.724 142.539L263.548 138.432Z" fill="#FFA8A7"/>
<path d="M264.201 132.645C262.929 137.251 262.742 142.09 263.655 146.782C263.743 147.585 264.032 148.354 264.495 149.016C265.13 149.693 266.004 150.094 266.931 150.133C267.846 150.168 268.761 150.08 269.653 149.873V154.199C272.937 154.972 276.322 155.283 278.893 153.3V148.873C277.039 149.464 275.068 149.585 273.156 149.226C270.888 148 270.434 143.859 270.753 142.767C270.953 143.035 271.229 143.237 271.544 143.348C271.86 143.459 272.202 143.473 272.526 143.388C272.838 143.303 273.13 143.155 273.384 142.955C273.638 142.754 273.849 142.504 274.004 142.221C274.303 141.645 274.489 141.018 274.55 140.373C274.711 139.595 274.592 138.786 274.214 138.088C273.919 137.706 273.517 137.422 273.058 137.272C272.6 137.122 272.107 137.114 271.644 137.248C270.711 137.545 269.933 138.196 269.476 139.062C269.331 139.333 269.205 139.614 269.098 139.902C269.058 140.011 268.983 140.103 268.884 140.164C268.784 140.224 268.668 140.249 268.553 140.234C268.437 140.22 268.331 140.167 268.25 140.083C268.169 140 268.118 139.892 268.107 139.776C267.986 138.504 268.224 137.223 268.796 136.08C268.421 136.042 268.06 135.92 267.739 135.724C267.418 135.528 267.145 135.262 266.94 134.946C266.724 134.65 266.579 134.308 266.518 133.946C266.457 133.585 266.48 133.214 266.587 132.863C265.785 132.927 264.978 132.853 264.201 132.645Z" fill="#FFCAC9"/>
<path d="M264.996 155.34L255.025 143.941C249.296 145.344 246.062 151.291 246.062 151.291L259.377 167.016C269.137 170.855 264.996 155.34 264.996 155.34Z" fill="#9903FF"/>
<path d="M277.321 104.345L276.59 101.497L275.826 98.0619C275.769 97.8492 275.797 97.6226 275.906 97.4309C276.014 97.2392 276.193 97.0978 276.405 97.0371C276.514 96.9953 276.63 96.9766 276.747 96.9823C276.863 96.988 276.977 97.0179 277.082 97.07C277.186 97.1222 277.278 97.1955 277.353 97.2852C277.427 97.375 277.482 97.4793 277.514 97.5915L278.152 99.4563V94.1895L280.353 98.1207C280.679 98.7127 280.825 99.3872 280.773 100.061L280.446 103.992L277.321 104.345Z" fill="#FFCAC9"/>
<path d="M264.996 155.34L255.025 143.941C249.296 145.344 246.062 151.291 246.062 151.291L259.377 167.016C269.137 170.855 264.996 155.34 264.996 155.34Z" fill="#455A64"/>
<path opacity="0.1" d="M264.996 155.34L255.025 143.941C249.296 145.344 246.062 151.291 246.062 151.291L259.377 167.016C269.137 170.855 264.996 155.34 264.996 155.34Z" fill="white"/>
<path d="M342.868 216.217C341.875 212.773 340.683 209.391 339.298 206.086C334.93 194.393 332.049 191.327 326.883 192.285L330.444 209.085L334.938 217.754L330.856 224.583L335.367 231.715L342.179 221.147C342.644 220.424 342.946 219.609 343.065 218.758C343.184 217.906 343.117 217.039 342.868 216.217Z" fill="#FFBEA7"/>
<path d="M318.922 314.731C318.555 315.269 318.076 315.721 317.518 316.056C316.96 316.391 316.335 316.601 315.688 316.671C314.207 316.801 312.715 316.708 311.261 316.394C309.071 316.091 306.853 316.034 304.65 316.226C303.288 316.404 301.917 316.502 300.543 316.52C299.154 316.534 297.798 316.105 296.67 315.294C295.894 314.682 295.378 313.8 295.226 312.824C295.155 313.461 295.251 314.106 295.504 314.695C295.758 315.284 296.159 315.797 296.67 316.184C297.798 316.995 299.154 317.425 300.543 317.411C301.917 317.396 303.288 317.298 304.65 317.117C306.853 316.925 309.071 316.981 311.261 317.285C312.731 317.495 314.327 317.915 315.797 317.671C316.443 317.601 317.066 317.391 317.623 317.056C318.18 316.721 318.658 316.268 319.023 315.731L318.922 314.731Z" fill="#263238"/>
<path d="M302.876 312.12C304.102 312.12 303.648 310.288 304.824 309.07C304.346 309.07 303.867 309.07 303.388 309.07C302.338 310.624 302.036 312.12 302.876 312.12Z" fill="white"/>
<path d="M305.442 312.018C306.677 312.018 306.357 309.843 307.575 308.574C307.298 308.667 307.013 308.751 306.735 308.818C306.458 308.885 306.248 308.91 306.005 308.952C304.921 310.489 304.593 312.018 305.442 312.018Z" fill="white"/>
<path d="M317.643 307.852C317.558 307.448 317.328 307.089 316.996 306.844L310.335 306.676C309.627 307.573 308.663 308.235 307.571 308.574C306.353 309.843 306.672 312.018 305.437 312.018C304.597 312.018 304.9 310.489 305.992 308.952C305.605 309.011 305.219 309.045 304.824 309.07C303.648 310.288 304.102 312.119 302.875 312.119C302.035 312.119 302.338 310.624 303.388 309.103H302.455C302.17 309.103 301.893 309.103 301.615 309.053C299.163 310.993 298.953 313.093 299.272 316.395C299.694 316.469 300.12 316.514 300.549 316.529C301.922 316.51 303.294 316.412 304.656 316.235C306.859 316.043 309.077 316.099 311.267 316.403C312.72 316.716 314.213 316.81 315.694 316.68C316.341 316.61 316.965 316.4 317.524 316.065C318.082 315.73 318.561 315.278 318.928 314.74L317.643 307.852Z" fill="#455A64"/>
<path d="M301.611 309.044C300.498 308.865 299.363 308.865 298.251 309.044C297.565 309.176 296.926 309.488 296.399 309.946C295.872 310.405 295.476 310.995 295.252 311.657C295.155 312.039 295.138 312.436 295.201 312.824C295.354 313.8 295.87 314.683 296.646 315.294C297.409 315.866 298.3 316.241 299.242 316.386C298.948 313.085 299.158 310.985 301.611 309.044Z" fill="white"/>
<path d="M310.148 304.777V307.986C310.148 308.337 310.287 308.673 310.534 308.922C310.781 309.17 311.117 309.311 311.467 309.313H314.827C315.391 309.314 315.932 309.095 316.336 308.703C316.741 308.311 316.977 307.776 316.994 307.213L317.078 304.777H310.148Z" fill="#FFBEA7"/>
<path d="M332.36 303.351C332.173 303.741 331.888 304.077 331.534 304.326C331.179 304.574 330.766 304.727 330.335 304.77C329.436 304.834 328.54 304.614 327.773 304.14C326.622 303.401 326.169 302.25 325.379 301.209C324.554 300.2 323.619 299.287 322.59 298.487C321.484 297.668 320.574 296.612 319.928 295.396C319.768 295.035 319.664 294.653 319.617 294.262C319.512 295.002 319.62 295.756 319.928 296.437C320.574 297.653 321.484 298.709 322.59 299.529C323.619 300.329 324.554 301.242 325.379 302.25C326.169 303.292 326.622 304.443 327.773 305.182C328.54 305.655 329.436 305.876 330.335 305.812C330.766 305.769 331.179 305.616 331.534 305.367C331.888 305.119 332.173 304.783 332.36 304.392C332.495 303.806 332.534 303.202 332.477 302.603C332.479 302.857 332.439 303.109 332.36 303.351Z" fill="#263238"/>
<path d="M324.786 296.302C324.671 296.46 324.615 296.653 324.627 296.848C324.645 296.943 324.688 297.033 324.751 297.106C324.814 297.18 324.896 297.236 324.988 297.268C325.119 297.298 325.255 297.296 325.385 297.262C325.515 297.229 325.635 297.164 325.735 297.075C325.929 296.885 326.104 296.677 326.256 296.453C326.694 295.893 327.274 295.461 327.936 295.202C328.267 295.084 328.611 295.008 328.961 294.975L328.121 294.219C327.596 294.249 327.081 294.374 326.601 294.588C325.838 294.966 325.206 295.562 324.786 296.302Z" fill="white"/>
<path d="M324.963 293.656C324.188 294.014 323.54 294.6 323.106 295.336C322.991 295.494 322.935 295.687 322.947 295.882C322.964 295.977 323.006 296.065 323.07 296.138C323.134 296.21 323.216 296.264 323.308 296.293C323.439 296.329 323.576 296.329 323.707 296.296C323.838 296.262 323.958 296.194 324.056 296.1C324.251 295.916 324.426 295.71 324.576 295.487C325.012 294.925 325.593 294.492 326.256 294.235C326.794 294.04 327.367 293.963 327.936 294.009L327.096 293.261C326.363 293.203 325.627 293.34 324.963 293.656Z" fill="white"/>
<path d="M326.628 292.815C325.87 292.08 324.985 291.488 324.015 291.068C323.427 290.812 322.78 290.723 322.144 290.81C321.508 290.897 320.909 291.158 320.412 291.564C320.078 291.92 319.833 292.349 319.696 292.818C319.559 293.286 319.534 293.78 319.622 294.26C319.669 294.651 319.774 295.033 319.933 295.394C320.155 295.865 320.438 296.306 320.773 296.704C321.084 293.832 323.57 292.496 326.628 292.815Z" fill="white"/>
<path d="M332.418 300.536C332.436 299.562 332.214 298.598 331.772 297.73L330.15 296.05L328.991 294.992C328.642 295.025 328.297 295.102 327.966 295.219C327.304 295.478 326.724 295.91 326.286 296.47C326.134 296.694 325.959 296.903 325.766 297.092C325.665 297.182 325.545 297.246 325.415 297.28C325.285 297.313 325.149 297.315 325.018 297.285C324.926 297.253 324.845 297.197 324.781 297.124C324.718 297.05 324.675 296.961 324.657 296.865C324.645 296.67 324.701 296.477 324.816 296.319C325.253 295.586 325.9 295.001 326.673 294.639C327.153 294.425 327.668 294.3 328.193 294.27L328.008 294.093C327.439 294.047 326.866 294.125 326.328 294.32C325.665 294.576 325.084 295.009 324.648 295.572C324.498 295.795 324.323 296 324.128 296.185C324.03 296.279 323.91 296.346 323.779 296.38C323.648 296.414 323.511 296.413 323.38 296.378C323.288 296.349 323.206 296.295 323.142 296.223C323.078 296.15 323.036 296.061 323.019 295.966C323.007 295.771 323.063 295.578 323.178 295.42C323.577 294.717 324.173 294.146 324.892 293.777C325.612 293.409 326.423 293.258 327.227 293.346L326.732 292.892C323.674 292.573 321.188 293.908 320.852 296.781C321.41 297.429 322.026 298.025 322.691 298.562C323.72 299.362 324.655 300.275 325.48 301.284C326.27 302.325 326.723 303.476 327.874 304.215C328.641 304.689 329.537 304.909 330.436 304.845C330.867 304.802 331.28 304.649 331.634 304.401C331.989 304.152 332.273 303.816 332.46 303.426C332.54 303.184 332.58 302.932 332.578 302.678C332.565 301.962 332.511 301.246 332.418 300.536Z" fill="#455A64"/>
<path d="M326.578 295.463L326.771 298.907C328.947 300.158 331.232 299.478 331.996 298.688L332.139 295.463H326.578Z" fill="#FFBEA7"/>
<path d="M330.858 220.971C330.67 220.602 330.559 220.2 330.53 219.787L330.345 216.83L309.27 218.182C308.992 219.661 308.707 221.475 308.43 223.525C315.964 225.486 323.957 224.576 330.858 220.971Z" fill="#FFBEA7"/>
<path d="M317.211 193.663L311.566 194.771C310.323 197.048 309.046 199.19 307.803 201.491C306.871 203.171 305.905 205.036 305.972 206.993C306.025 208.035 306.367 209.042 306.961 209.899C307.554 210.757 308.376 211.432 309.332 211.849L308.685 219.551C317.539 222.256 328.366 219.879 330.744 217.829C331.441 214.604 332.062 211.168 332.76 207.943C333.284 205.864 333.61 203.741 333.734 201.601C333.843 199.441 333.324 197.297 332.239 195.427V195.376C331.498 194.263 330.449 193.389 329.22 192.861C327.991 192.333 326.635 192.174 325.317 192.403L317.211 193.663Z" fill="#9903FF"/>
<path opacity="0.1" d="M317.211 193.663L311.566 194.771C310.323 197.048 309.046 199.19 307.803 201.491C306.871 203.171 305.905 205.036 305.972 206.993C306.025 208.035 306.367 209.042 306.961 209.899C307.554 210.757 308.376 211.432 309.332 211.849L308.685 219.551C317.539 222.256 328.366 219.879 330.744 217.829C331.441 214.604 332.062 211.168 332.76 207.943C333.284 205.864 333.61 203.741 333.734 201.601C333.843 199.441 333.324 197.297 332.239 195.427V195.376C331.498 194.263 330.449 193.389 329.22 192.861C327.991 192.333 326.635 192.174 325.317 192.403L317.211 193.663Z" fill="black"/>
<path opacity="0.3" d="M317.211 193.663L311.566 194.771C310.323 197.048 309.046 199.19 307.803 201.491C306.871 203.171 305.905 205.036 305.972 206.993C306.025 208.035 306.367 209.042 306.961 209.899C307.554 210.757 308.376 211.432 309.332 211.849L308.685 219.551C317.539 222.256 328.366 219.879 330.744 217.829C331.441 214.604 332.062 211.168 332.76 207.943C333.284 205.864 333.61 203.741 333.734 201.601C333.843 199.441 333.324 197.297 332.239 195.427V195.376C331.498 194.263 330.449 193.389 329.22 192.861C327.991 192.333 326.635 192.174 325.317 192.403L317.211 193.663Z" fill="black"/>
<path d="M331.183 221.508C331.056 221.34 330.946 221.16 330.855 220.971C323.953 224.562 315.963 225.46 308.436 223.491C306.84 235.31 305.479 255.335 306.319 268.54C307.016 283.912 309.838 305.685 309.838 305.685C313.534 306.794 316.298 306.113 317.348 305.315C318.574 290.069 321.279 279.611 319.188 269.523C320.582 262.475 321.489 253.613 321.489 253.613L322.556 269.229L326.16 296.621C327.173 297.14 328.305 297.382 329.442 297.325C330.578 297.267 331.68 296.912 332.636 296.294C335.265 280.628 336.248 270.018 333.955 262.24C337.458 236.536 337.676 229.967 331.183 221.508Z" fill="#9903FF"/>
<path opacity="0.4" d="M331.183 221.508C331.056 221.34 330.946 221.16 330.855 220.971C323.953 224.562 315.963 225.46 308.436 223.491C306.84 235.31 305.479 255.335 306.319 268.54C307.016 283.912 309.838 305.685 309.838 305.685C313.534 306.794 316.298 306.113 317.348 305.315C318.574 290.069 321.279 279.611 319.188 269.523C320.582 262.475 321.489 253.613 321.489 253.613L322.556 269.229L326.16 296.621C327.173 297.14 328.305 297.382 329.442 297.325C330.578 297.267 331.68 296.912 332.636 296.294C335.265 280.628 336.248 270.018 333.955 262.24C337.458 236.536 337.676 229.967 331.183 221.508Z" fill="white"/>
<path opacity="0.2" d="M323.038 250.573L324.978 242.459C326.521 242.204 327.994 241.634 329.306 240.784C330.619 239.934 331.742 238.823 332.605 237.52C329.933 239.61 326.649 240.767 323.256 240.812L321.492 253.681L321.862 259.166L322.013 257.176C322.18 254.951 322.522 252.743 323.038 250.573Z" fill="black"/>
<path d="M310.691 194.671C307.196 194.83 301.955 195.41 296.814 195.309C293.878 195.265 290.953 194.945 288.078 194.351C288.078 194.351 281.19 186.405 279.174 182.877C279.653 180.987 280.14 179.131 280.619 177.249C280.782 176.606 280.741 175.927 280.501 175.309C280.169 174.453 279.749 173.634 279.249 172.864C278.577 171.865 278.124 170.815 276.965 170.487C275.192 170 277.149 172.377 277.729 173.335C276.753 173.676 275.822 174.136 274.957 174.704C274.821 174.791 274.706 174.906 274.619 175.042C274.532 175.177 274.475 175.33 274.453 175.49C274.431 175.649 274.443 175.812 274.49 175.966C274.536 176.12 274.615 176.263 274.722 176.384L275.007 176.711C274.459 177.743 274.162 178.889 274.142 180.057C274.121 181.225 274.378 182.381 274.89 183.431L280.938 199.072C281.304 200.012 281.906 200.842 282.686 201.482C283.465 202.121 284.397 202.55 285.39 202.726L295.1 204.406L307.213 206.523C308.496 206.734 309.811 206.457 310.899 205.746C311.987 205.036 312.77 203.943 313.093 202.684C313.471 201.155 313.874 199.87 314.109 198.375C314.178 197.897 314.139 197.41 313.995 196.949C313.852 196.488 313.608 196.065 313.28 195.71C312.953 195.356 312.551 195.078 312.103 194.898C311.655 194.719 311.172 194.641 310.691 194.671Z" fill="#FFBEA7"/>
<path d="M309.45 180.146L307.711 183.17L309.618 183.876L309.45 180.146Z" fill="#E39B81"/>
<path d="M309.256 178.795C309.534 176.141 310.306 173.638 312.037 172.369C311.577 175.671 312.28 179.03 314.028 181.87C314.203 180.993 314.653 180.196 315.313 179.593C315.576 179.311 315.909 179.103 316.277 178.989C316.646 178.876 317.038 178.86 317.415 178.945C317.791 179.03 318.138 179.212 318.423 179.473C318.707 179.734 318.918 180.065 319.034 180.433C319.265 181.006 319.326 181.633 319.211 182.24C319.096 182.847 318.809 183.408 318.385 183.856C317.96 184.305 317.415 184.622 316.816 184.77C316.216 184.918 315.587 184.891 315.002 184.692C315.243 185.871 315.822 186.954 316.667 187.81C317.513 188.666 318.589 189.258 319.765 189.514C321.315 189.825 322.923 189.67 324.385 189.068L325.099 192.647C322.184 195.755 317.211 193.672 317.211 193.672L316.556 190.152C310.827 190.488 310.29 190.396 309.66 187.237C309.139 184.455 309.003 181.614 309.256 178.795Z" fill="#FFBEA7"/>
<path d="M317.13 167.681C314.417 166.707 311.199 168.177 309.721 170.646C309.034 171.918 308.651 173.33 308.6 174.774C308.549 176.218 308.832 177.654 309.427 178.971C309.425 176.519 310.356 174.159 312.031 172.368C311.493 176.434 311.964 179.391 314.022 181.869C314.468 182.401 314.714 183.073 314.719 183.767C314.719 184.448 314.559 185.128 314.601 185.808C314.702 187.236 315.668 188.438 316.575 189.546C317.483 190.655 318.423 191.89 318.457 193.326C318.499 195.704 317.777 198.215 317.617 200.584C317.403 202.97 317.969 205.36 319.23 207.396C320.228 208.777 321.598 209.847 323.18 210.48C324.762 211.114 326.492 211.285 328.167 210.975C329.833 210.619 331.387 209.862 332.693 208.768C333.999 207.674 335.018 206.278 335.66 204.7C336.277 203.113 336.562 201.416 336.499 199.714C336.435 198.012 336.024 196.342 335.291 194.805C334.089 192.226 332.099 190.076 330.939 187.48C329.654 184.599 329.461 181.382 329.091 178.24C328.722 175.098 328.075 171.864 326.101 169.403C324.998 168.177 323.525 167.345 321.905 167.034C320.285 166.723 318.608 166.95 317.13 167.681Z" fill="#263238"/>
<path d="M271.263 276.628L272.842 279.946L269.07 284.096L269.348 293.991L281.494 283.449C282.045 282.98 282.425 282.342 282.577 281.634C282.729 280.927 282.643 280.189 282.334 279.535L278.63 271.832L271.263 276.628Z" fill="#8C5757"/>
<path d="M275.006 282.912C274.055 282.114 273.311 281.097 272.839 279.947L271.898 280.98C272.64 282.009 273.756 282.703 275.006 282.912Z" fill="#6E3636"/>
<path d="M270.962 277.426C275.792 277.006 279.077 272.008 279.077 272.008C274.759 263.172 270.996 253.344 263.461 255.687L270.962 277.426Z" fill="#9903FF"/>
<path opacity="0.4" d="M270.962 277.426C275.792 277.006 279.077 272.008 279.077 272.008C274.759 263.172 270.996 253.344 263.461 255.687L270.962 277.426Z" fill="white"/>
<path d="M252.135 381.36C251.681 382.796 250.11 383.611 248.607 383.737C247.102 383.739 245.602 383.547 244.146 383.166C240.828 382.561 237.636 383.166 234.327 383.082C233.241 383.091 232.159 382.973 231.101 382.729C230.035 382.481 229.07 381.913 228.338 381.1C227.921 380.605 227.645 380.007 227.54 379.369C227.474 379.851 227.511 380.341 227.648 380.807C227.786 381.273 228.021 381.705 228.338 382.074C229.068 382.888 230.034 383.454 231.101 383.695C232.159 383.939 233.241 384.057 234.327 384.048C237.636 384.124 240.828 383.536 244.146 384.132C245.613 384.522 247.123 384.719 248.64 384.72C249.395 384.707 250.13 384.476 250.756 384.054C251.382 383.632 251.873 383.038 252.168 382.343C252.313 381.85 252.353 381.332 252.286 380.822C252.251 381.006 252.2 381.185 252.135 381.36Z" fill="#263238"/>
<path d="M252.051 378.596C251.849 377.588 251.639 376.588 251.438 375.58C251.363 375.043 251.189 374.525 250.925 374.052C250.793 373.815 250.599 373.619 250.363 373.484C250.128 373.35 249.861 373.282 249.59 373.287C247.775 373.044 245.222 372.388 243.71 373.422C241.327 375.057 238.483 375.884 235.595 375.782C234.104 375.603 232.602 375.542 231.101 375.597C229.614 375.782 228.06 376.614 227.624 378.05C227.495 378.472 227.466 378.917 227.54 379.352C227.646 379.99 227.921 380.588 228.338 381.082C229.071 381.895 230.035 382.464 231.101 382.712C232.171 382.95 233.265 383.06 234.36 383.04C237.67 383.115 240.862 382.519 244.18 383.124C245.636 383.505 247.135 383.697 248.64 383.695C250.144 383.569 251.715 382.754 252.168 381.318C252.224 381.137 252.263 380.951 252.286 380.763C252.318 380.033 252.239 379.302 252.051 378.596Z" fill="#9903FF"/>
<path d="M243.276 370.271L243.141 374.194C243.129 374.596 243.273 374.987 243.542 375.286C243.811 375.585 244.185 375.769 244.586 375.799C245.904 375.89 247.227 375.876 248.543 375.757C249.076 375.707 249.573 375.468 249.945 375.083C250.316 374.697 250.537 374.191 250.567 373.657L250.718 370.759L243.276 370.271Z" fill="#FFA8A7"/>
<path d="M268.89 368.181C268.872 368.76 268.688 369.323 268.36 369.802C267.896 370.367 267.237 370.738 266.512 370.843C265.646 370.995 264.755 370.897 263.942 370.563C263.128 370.228 262.427 369.67 261.918 368.953C261.422 368.239 261.136 367.399 260.674 366.669C259.97 365.683 259.097 364.83 258.096 364.149C257.096 363.459 256.219 362.607 255.5 361.629C255.16 361.154 254.938 360.606 254.852 360.029C254.766 359.452 254.818 358.863 255.004 358.311C254.91 358.443 254.829 358.583 254.761 358.731C254.54 359.312 254.467 359.94 254.547 360.557C254.628 361.174 254.86 361.761 255.223 362.267C255.961 363.26 256.858 364.126 257.877 364.829C258.897 365.532 259.787 366.408 260.506 367.416C260.985 368.164 261.271 369.029 261.775 369.768C262.291 370.504 263.005 371.078 263.835 371.423C264.665 371.768 265.576 371.87 266.462 371.717C267.205 371.608 267.879 371.225 268.352 370.642C268.773 369.97 268.965 369.18 268.898 368.391C268.898 368.349 268.89 368.265 268.89 368.181Z" fill="#263238"/>
<path d="M267.698 363.258C266.505 361.167 264.044 359.646 262.145 358.168C261.109 357.261 259.83 356.677 258.466 356.488C257.787 356.406 257.099 356.528 256.49 356.839C255.881 357.151 255.378 357.636 255.047 358.235C255.047 358.235 255.047 358.311 255.005 358.344C254.819 358.897 254.767 359.486 254.853 360.063C254.939 360.64 255.161 361.188 255.501 361.662C256.22 362.641 257.097 363.492 258.096 364.182C259.098 364.864 259.971 365.717 260.675 366.702C261.137 367.433 261.423 368.273 261.918 368.987C262.428 369.704 263.129 370.262 263.943 370.596C264.756 370.931 265.647 371.028 266.513 370.877C267.237 370.772 267.896 370.4 268.361 369.835C268.689 369.357 268.873 368.794 268.89 368.214C268.89 368.029 268.89 367.836 268.89 367.651C268.87 366.11 268.46 364.598 267.698 363.258Z" fill="#9903FF"/>
<path d="M262.523 361.443V365.013C263.401 365.422 264.364 365.613 265.331 365.569C266.297 365.525 267.239 365.248 268.076 364.761L268.412 361.553L262.523 361.443Z" fill="#FFA8A7"/>
<path d="M269.343 296.746C270.41 299.955 270.082 316.78 269.461 331.396C270.477 338.511 270.444 353.933 269.108 365.072C267.713 365.696 266.206 366.034 264.678 366.064C263.15 366.095 261.631 365.817 260.212 365.248L257.037 331.421L256.306 314.042C256.306 314.042 254.988 329.464 253.476 339.359C254.022 346.625 252.82 360.511 251.754 375.32C251.754 375.32 246.033 378.68 240.355 375.001C238.356 342.24 241.59 309.094 242.253 298.35L269.343 296.746Z" fill="#455A64"/>
<path opacity="0.3" d="M256.783 324.626L256.203 310.447C259.874 310.447 263.268 307.709 265.855 305.113C264.121 307.931 261.577 310.159 258.555 311.506L256.783 324.626Z" fill="black"/>
<path d="M241.719 271.455V299.225C258.065 306.071 268.658 299.881 270.102 296.663C269.346 285.365 272.018 272.144 271.782 266.524C271.547 260.905 270.884 254.579 262.173 255.848L252.933 256.755L248.254 257.881L241.719 271.455Z" fill="#9903FF"/>
<path opacity="0.3" d="M241.719 271.455V299.225C258.065 306.071 268.658 299.881 270.102 296.663C269.346 285.365 272.018 272.144 271.782 266.524C271.547 260.905 270.884 254.579 262.173 255.848L252.933 256.755L248.254 257.881L241.719 271.455Z" fill="white"/>
<path d="M233.042 269.95L229.925 273.192L222.441 263.28C223.451 260.647 224.068 257.878 224.272 255.065C224.278 254.945 224.259 254.826 224.217 254.713C224.176 254.601 224.112 254.498 224.029 254.411C223.947 254.324 223.848 254.254 223.738 254.207C223.628 254.159 223.51 254.134 223.39 254.133C223.221 254.128 223.054 254.174 222.912 254.265C222.769 254.357 222.658 254.489 222.592 254.645L221.206 257.551C221.012 257.483 220.836 257.373 220.69 257.227C220.545 257.082 220.434 256.905 220.366 256.711L220.097 255.939C219.913 255.424 219.819 254.881 219.82 254.334V252.419C219.818 252.152 219.746 251.89 219.613 251.659C219.479 251.428 219.288 251.235 219.058 251.1C218.828 250.965 218.567 250.891 218.3 250.887C218.033 250.883 217.77 250.947 217.535 251.075C216.666 251.544 215.897 252.18 215.276 252.948C214.674 253.679 214.347 254.597 214.352 255.544V258.131C214.352 258.796 214.469 259.455 214.696 260.08L216.048 263.801C216.17 264.14 216.324 264.467 216.51 264.775L226.162 280.945C226.508 281.526 226.979 282.024 227.539 282.402C228.1 282.78 228.737 283.03 229.406 283.133C230.074 283.237 230.757 283.192 231.406 283.001C232.055 282.81 232.653 282.478 233.159 282.029L239.308 276.569L233.042 269.95Z" fill="#8C5757"/>
<path d="M228.009 277.2C228.318 275.736 228.975 274.367 229.924 273.21L229.084 272.076C228.412 273.252 227.496 275.587 228.009 277.2Z" fill="#6E3636"/>
<path d="M228.009 277.2C228.318 275.736 228.975 274.367 229.924 273.21L229.084 272.076C228.412 273.252 227.496 275.587 228.009 277.2Z" fill="#6E3636"/>
<path d="M232.266 269.967L241.077 261.332C243.03 259.408 245.57 258.19 248.293 257.871H248.444C252.165 266.011 247.251 269.984 247.251 269.984L239.086 277.485C235.995 275.865 233.578 273.201 232.266 269.967Z" fill="#9903FF"/>
<path opacity="0.4" d="M232.266 269.967L241.077 261.332C243.03 259.408 245.57 258.19 248.293 257.871H248.444C252.165 266.011 247.251 269.984 247.251 269.984L239.086 277.485C235.995 275.865 233.578 273.201 232.266 269.967Z" fill="white"/>
<path d="M248.51 237.719C248.337 237.523 248.227 237.281 248.193 237.022C248.158 236.763 248.201 236.5 248.317 236.266C248.088 236.325 247.849 236.336 247.616 236.297C247.383 236.258 247.161 236.17 246.964 236.039C246.765 235.918 246.603 235.744 246.496 235.536C246.39 235.329 246.342 235.096 246.359 234.863C246.385 234.631 246.486 234.413 246.647 234.244C246.808 234.074 247.019 233.961 247.25 233.922C246.818 233.829 246.441 233.569 246.2 233.2C245.931 232.851 245.811 232.411 245.864 231.974C245.941 231.574 246.126 231.202 246.398 230.899C246.671 230.595 247.02 230.372 247.409 230.252C248.196 230.025 249.023 229.982 249.829 230.126C249.701 229.685 249.733 229.213 249.919 228.794C250.105 228.374 250.433 228.034 250.845 227.832C251.216 227.705 251.613 227.673 252 227.737C252.387 227.802 252.752 227.961 253.063 228.202C253.676 228.684 254.205 229.266 254.625 229.924C255.507 229.448 256.483 229.169 257.484 229.107C258.485 229.046 259.487 229.202 260.421 229.567C261.355 229.931 262.199 230.495 262.894 231.218C263.589 231.941 264.118 232.806 264.445 233.754C265.178 233.997 265.841 234.416 266.375 234.974C266.909 235.532 267.299 236.212 267.511 236.955C267.887 238.444 267.796 240.013 267.25 241.449C266.706 242.871 266.001 244.226 265.15 245.489L263.991 247.329C263.504 248.093 262.269 250 261.782 250.773C260.694 251.277 259.497 251.501 258.3 251.426C257.104 251.352 255.944 250.98 254.927 250.344C252.938 249.022 251.404 247.118 250.534 244.893C249.622 242.575 248.944 240.172 248.51 237.719Z" fill="#263238"/>
<path d="M258.794 251.563C257.4 251.562 256.034 251.175 254.846 250.446C252.834 249.109 251.283 247.185 250.403 244.935C249.498 242.611 248.829 240.202 248.403 237.745C248.238 237.566 248.126 237.345 248.078 237.107C248.031 236.868 248.05 236.621 248.135 236.392C247.698 236.463 247.251 236.373 246.875 236.14C246.658 236.006 246.483 235.816 246.368 235.589C246.252 235.363 246.201 235.109 246.219 234.855C246.24 234.661 246.308 234.475 246.418 234.314C246.528 234.153 246.676 234.021 246.849 233.931C246.543 233.775 246.278 233.547 246.077 233.268C245.795 232.893 245.668 232.423 245.724 231.957C245.803 231.537 245.997 231.146 246.282 230.828C246.568 230.51 246.936 230.276 247.345 230.151C248.092 229.932 248.877 229.878 249.647 229.992C249.558 229.544 249.62 229.079 249.824 228.67C250.028 228.261 250.361 227.931 250.772 227.732C251.16 227.602 251.574 227.569 251.978 227.634C252.382 227.7 252.764 227.864 253.091 228.11C253.696 228.579 254.219 229.147 254.636 229.79C255.524 229.333 256.497 229.067 257.494 229.009C258.491 228.951 259.489 229.103 260.424 229.454C261.355 229.837 262.197 230.407 262.898 231.13C263.599 231.852 264.144 232.712 264.498 233.654C265.239 233.904 265.907 234.33 266.446 234.897C266.985 235.463 267.377 236.152 267.589 236.905C267.965 238.417 267.872 240.008 267.32 241.466C266.773 242.896 266.065 244.26 265.212 245.532C264.834 246.145 264.439 246.758 264.053 247.371L262.919 249.135C262.499 249.799 262.079 250.454 261.835 250.815C260.894 251.3 259.852 251.557 258.794 251.563ZM248.521 236.04L248.412 236.283C248.305 236.495 248.263 236.733 248.293 236.968C248.323 237.204 248.423 237.424 248.58 237.602C249.002 240.059 249.669 242.468 250.571 244.792C251.44 246.992 252.958 248.876 254.922 250.194C255.917 250.82 257.053 251.188 258.226 251.264C259.4 251.341 260.574 251.123 261.642 250.63C261.877 250.244 262.297 249.606 262.709 248.95C263.12 248.295 263.549 247.59 263.834 247.203C264.221 246.59 264.607 245.985 264.993 245.364C265.841 244.106 266.543 242.756 267.085 241.34C267.616 239.927 267.706 238.387 267.345 236.922C267.137 236.196 266.755 235.533 266.232 234.988C265.71 234.444 265.063 234.035 264.347 233.797H264.296V233.746C263.96 232.818 263.433 231.97 262.748 231.258C262.064 230.546 261.238 229.986 260.323 229.614C259.402 229.267 258.418 229.119 257.436 229.182C256.455 229.244 255.497 229.514 254.628 229.975L254.544 230.017L254.493 229.941C254.077 229.298 253.554 228.73 252.948 228.261C252.651 228.036 252.305 227.886 251.937 227.824C251.57 227.763 251.193 227.792 250.839 227.908C250.455 228.1 250.149 228.419 249.974 228.811C249.799 229.204 249.767 229.645 249.882 230.059L249.941 230.227H249.764C248.978 230.089 248.171 230.132 247.404 230.353C247.034 230.466 246.702 230.675 246.442 230.961C246.182 231.246 246.004 231.596 245.925 231.974C245.89 232.383 246.001 232.791 246.238 233.126C246.474 233.461 246.822 233.702 247.219 233.805L248.059 233.931L247.219 234.024C247.013 234.059 246.824 234.159 246.68 234.311C246.536 234.462 246.445 234.656 246.421 234.864C246.404 235.077 246.448 235.29 246.545 235.48C246.643 235.67 246.792 235.829 246.975 235.939C247.163 236.061 247.376 236.141 247.598 236.173C247.819 236.205 248.046 236.188 248.261 236.124L248.521 236.04Z" fill="#272525"/>
<path d="M247.446 242.441L245.984 244.961L247.429 245.491C247.381 244.475 247.387 243.457 247.446 242.441Z" fill="#6E3636"/>
<path d="M248.506 237.719C247.968 239.257 247.613 240.852 247.447 242.473C247.393 243.497 247.393 244.523 247.447 245.548C247.51 246.992 247.678 248.429 247.951 249.848C248.042 250.628 248.331 251.371 248.791 252.007C249.396 252.661 250.236 253.048 251.126 253.082C252.01 253.112 252.894 253.027 253.756 252.83V257.03C256.922 257.778 259.543 258.106 262.021 256.19L261.761 250.831C260.237 251.041 258.685 250.796 257.3 250.126C255.116 248.941 254.503 247.06 254.78 246.01C254.972 246.261 255.233 246.452 255.532 246.558C255.83 246.664 256.153 246.68 256.46 246.606C256.762 246.526 257.043 246.385 257.287 246.191C257.532 245.997 257.733 245.755 257.88 245.48C258.173 244.931 258.353 244.328 258.409 243.708C258.566 242.96 258.453 242.18 258.09 241.507C257.811 241.132 257.425 240.851 256.982 240.701C256.539 240.551 256.061 240.539 255.612 240.667C255.167 240.805 254.754 241.03 254.397 241.328C254.039 241.627 253.744 241.993 253.529 242.406C253.383 242.676 253.26 242.956 253.159 243.246C253.121 243.351 253.048 243.439 252.952 243.498C252.857 243.556 252.745 243.58 252.634 243.566C252.523 243.553 252.42 243.502 252.342 243.423C252.263 243.343 252.214 243.239 252.202 243.128C252.088 241.928 252.306 240.719 252.832 239.634C252.468 239.812 252.069 239.906 251.664 239.911C251.45 239.91 251.239 239.864 251.044 239.774C250.85 239.684 250.677 239.553 250.538 239.39C250.407 239.223 250.333 239.018 250.325 238.805C250.317 238.592 250.377 238.382 250.496 238.206C250.152 238.317 249.784 238.33 249.432 238.244C249.081 238.158 248.76 237.976 248.506 237.719Z" fill="#8C5757"/>
<path d="M172.982 367.92C175.64 370.573 178.962 372.464 182.6 373.397C183.641 373.666 184.868 373.985 185.254 374.993C185.368 375.488 185.325 376.007 185.131 376.476C184.937 376.946 184.601 377.344 184.17 377.614C182.814 378.531 181.161 378.902 179.542 378.655C177.942 378.405 176.378 377.968 174.88 377.353C173.382 376.735 171.804 376.33 170.193 376.152C169.426 376.149 168.661 376.104 167.9 376.018C167.52 375.973 167.153 375.85 166.824 375.656C166.494 375.462 166.208 375.202 165.984 374.892C165.984 370.23 167.194 368.558 167.194 368.558L172.982 367.92Z" fill="#455A64"/>
<path d="M173.091 365.861V369.02C170.966 371.338 167.597 369.793 167.211 368.558L167.102 365.861H173.091Z" fill="#FFA8A7"/>
<path d="M157.224 354.538C160.995 351.127 163.104 351.262 164.003 351.942C164.901 352.623 166.523 354.815 162.323 358.503C158.123 362.19 158.45 364.467 155.535 364.467C152.621 364.467 153.175 361.552 153.175 361.552C153.208 360.543 153.36 359.542 153.629 358.57L157.224 354.538Z" fill="#455A64"/>
<path d="M158.578 356.723V358.957C156.806 360.477 153.824 359.612 153.664 358.571L153.798 356.361L158.578 356.723Z" fill="#FFA8A7"/>
<path d="M175.889 294.712L177.569 333.504L173.133 365.86C170.773 367.381 167.127 365.86 167.127 365.86C166.64 355.906 164.456 341.786 166.187 334.234L162.911 313.377L161.777 330.118C161.592 339.955 159.038 350.421 158.585 356.704C157.813 357.01 156.981 357.136 156.153 357.074C155.325 357.011 154.522 356.761 153.805 356.343C152.335 343.264 149.42 336.183 152.209 326.868C150.269 309.27 148.605 298.308 151.05 293.881L175.889 294.712Z" fill="#263238"/>
<path opacity="0.2" d="M162.235 309.404L162.865 313.378L162.521 318.661L161.277 310.379C160.175 310.236 159.119 309.851 158.182 309.253C157.246 308.655 156.453 307.858 155.859 306.918C157.747 308.259 159.937 309.114 162.235 309.404Z" fill="black"/>
<path d="M168.354 258.383L156.913 256.855C152.125 256.393 150.067 261.643 150.134 266.498C150.134 269.362 151.663 276.578 152.579 284.087C151.557 286.503 150.867 289.046 150.529 291.647C149.395 297.233 168.262 300.367 175.46 296.587C175.895 296.35 176.254 295.996 176.498 295.566C176.741 295.135 176.859 294.645 176.838 294.151C176.51 283.987 175.267 271.681 175.267 271.681L168.354 258.383Z" fill="#455A64"/>
<path opacity="0.3" d="M168.354 258.383L156.913 256.855C152.125 256.393 150.067 261.643 150.134 266.498C150.134 269.362 151.663 276.578 152.579 284.087C151.557 286.503 150.867 289.046 150.529 291.647C149.395 297.233 168.262 300.367 175.46 296.587C175.895 296.35 176.254 295.996 176.498 295.566C176.741 295.135 176.859 294.645 176.838 294.151C176.51 283.987 175.267 271.681 175.267 271.681L168.354 258.383Z" fill="white"/>
<path d="M173.881 241.995C174.757 240.333 175.155 238.46 175.032 236.585C174.956 235.653 174.659 234.752 174.165 233.957C173.672 233.162 172.995 232.497 172.192 232.016C171.375 231.573 170.432 231.421 169.517 231.582C168.602 231.744 167.769 232.211 167.152 232.906C165.66 232.071 163.968 231.657 162.258 231.71C160.548 231.763 158.885 232.281 157.447 233.207C156.008 234.133 154.849 235.434 154.094 236.968C153.338 238.503 153.015 240.215 153.158 241.919C153.284 243.86 153.998 245.775 153.78 247.715C153.645 248.849 153.2 250 153.494 251.075C153.645 251.531 153.886 251.951 154.204 252.311C154.521 252.67 154.909 252.961 155.342 253.167C156.182 253.612 158.181 253.495 159.114 253.688C161.978 256.292 165.573 255.317 167.858 252.99C170.143 250.664 173.881 241.995 173.881 241.995Z" fill="#F28F8F"/>
<path opacity="0.5" d="M173.881 241.995C174.757 240.333 175.155 238.46 175.032 236.585C174.956 235.653 174.659 234.752 174.165 233.957C173.672 233.162 172.995 232.497 172.192 232.016C171.375 231.573 170.432 231.421 169.517 231.582C168.602 231.744 167.769 232.211 167.152 232.906C165.66 232.071 163.968 231.657 162.258 231.71C160.548 231.763 158.885 232.281 157.447 233.207C156.008 234.133 154.849 235.434 154.094 236.968C153.338 238.503 153.015 240.215 153.158 241.919C153.284 243.86 153.998 245.775 153.78 247.715C153.645 248.849 153.2 250 153.494 251.075C153.645 251.531 153.886 251.951 154.204 252.311C154.521 252.67 154.909 252.961 155.342 253.167C156.182 253.612 158.181 253.495 159.114 253.688C161.978 256.292 165.573 255.317 167.858 252.99C170.143 250.664 173.881 241.995 173.881 241.995Z" fill="black"/>
<path d="M173.881 241.995C174.757 240.333 175.155 238.46 175.032 236.585C174.956 235.653 174.659 234.752 174.165 233.957C173.672 233.162 172.995 232.497 172.192 232.016C171.375 231.573 170.432 231.421 169.517 231.582C168.602 231.744 167.769 232.211 167.152 232.906C165.66 232.071 163.968 231.657 162.258 231.71C160.548 231.763 158.885 232.281 157.447 233.207C156.008 234.133 154.849 235.434 154.094 236.968C153.338 238.503 153.015 240.215 153.158 241.919C153.284 243.86 153.998 245.775 153.78 247.715C153.645 248.849 153.2 250 153.494 251.075C153.645 251.531 153.886 251.951 154.204 252.311C154.521 252.67 154.909 252.961 155.342 253.167C156.182 253.612 158.181 253.495 159.114 253.688C161.978 256.292 165.573 255.317 167.858 252.99C170.143 250.664 173.881 241.995 173.881 241.995Z" fill="#8C5757"/>
<path d="M174.45 244.582L176.239 247.69L174.273 248.412L174.45 244.582Z" fill="#F28F8F"/>
<path d="M174.652 243.196C174.366 240.466 173.568 237.896 171.787 236.594C172.259 239.986 171.538 243.436 169.746 246.355C169.566 245.452 169.1 244.63 168.419 244.011C168.09 243.696 167.68 243.48 167.235 243.385C166.79 243.29 166.328 243.32 165.899 243.473C165.317 243.756 164.865 244.253 164.639 244.859C164.4 245.448 164.335 246.093 164.452 246.717C164.57 247.342 164.864 247.919 165.301 248.38C165.738 248.842 166.298 249.168 166.915 249.32C167.532 249.471 168.179 249.442 168.78 249.236C168.533 250.447 167.94 251.56 167.072 252.44C166.204 253.32 165.099 253.928 163.891 254.192C162.299 254.509 160.649 254.351 159.145 253.738L158.406 257.417C161.397 260.601 166.512 258.459 166.512 258.459L167.184 254.847C173.064 255.191 173.619 255.091 174.265 251.857C174.785 249 174.915 246.087 174.652 243.196Z" fill="#FFA8A7"/>
<path d="M161.613 239.239C160.788 236.866 159.124 234.876 156.934 233.645C155.683 234.62 154.687 235.883 154.028 237.327C153.37 238.77 153.071 240.351 153.154 241.935C153.28 243.876 153.994 245.791 153.776 247.731C153.642 248.865 153.196 250.016 153.49 251.091C153.641 251.547 153.882 251.967 154.2 252.327C154.518 252.686 154.905 252.978 155.338 253.183C156.178 253.628 158.178 253.511 159.11 253.704L159.488 254.015C160.486 252.115 161.267 250.109 161.815 248.034C162.616 245.146 162.546 242.087 161.613 239.239Z" fill="#6E3636"/>
<path d="M159.984 237.19C159.516 235.673 158.579 234.343 157.308 233.392C156.036 232.441 154.496 231.919 152.908 231.899C151.32 231.879 149.768 232.364 148.473 233.283C147.178 234.202 146.209 235.508 145.704 237.014C143.931 242.39 148.476 248.102 147.485 253.671C147.123 255.678 146.065 257.51 145.695 259.509C145.488 260.667 145.518 261.855 145.784 263.001C146.051 264.147 146.548 265.227 147.245 266.174C147.942 267.122 148.825 267.918 149.839 268.514C150.854 269.109 151.979 269.492 153.146 269.639C151.869 268.228 151.844 266.052 152.575 264.297C153.434 262.599 154.491 261.008 155.725 259.559C160.236 253.368 162.21 244.532 159.984 237.19Z" fill="#F28F8F"/>
<path opacity="0.5" d="M159.984 237.19C159.516 235.673 158.579 234.343 157.308 233.392C156.036 232.441 154.496 231.919 152.908 231.899C151.32 231.879 149.768 232.364 148.473 233.283C147.178 234.202 146.209 235.508 145.704 237.014C143.931 242.39 148.476 248.102 147.485 253.671C147.123 255.678 146.065 257.51 145.695 259.509C145.488 260.667 145.518 261.855 145.784 263.001C146.051 264.147 146.548 265.227 147.245 266.174C147.942 267.122 148.825 267.918 149.839 268.514C150.854 269.109 151.979 269.492 153.146 269.639C151.869 268.228 151.844 266.052 152.575 264.297C153.434 262.599 154.491 261.008 155.725 259.559C160.236 253.368 162.21 244.532 159.984 237.19Z" fill="black"/>
<path d="M159.984 237.19C159.516 235.673 158.579 234.343 157.308 233.392C156.036 232.441 154.496 231.919 152.908 231.899C151.32 231.879 149.768 232.364 148.473 233.283C147.178 234.202 146.209 235.508 145.704 237.014C143.931 242.39 148.476 248.102 147.485 253.671C147.123 255.678 146.065 257.51 145.695 259.509C145.488 260.667 145.518 261.855 145.784 263.001C146.051 264.147 146.548 265.227 147.245 266.174C147.942 267.122 148.825 267.918 149.839 268.514C150.854 269.109 151.979 269.492 153.146 269.639C151.869 268.228 151.844 266.052 152.575 264.297C153.434 262.599 154.491 261.008 155.725 259.559C160.236 253.368 162.21 244.532 159.984 237.19Z" fill="#8C5757"/>
<path d="M206.349 249.203L198.311 272.496L181.695 263.273L189.642 240.24L206.349 249.203Z" fill="#9903FF"/>
<path opacity="0.3" d="M206.349 249.203L198.311 272.496L181.695 263.273L189.642 240.24L206.349 249.203Z" fill="black"/>
<path opacity="0.2" d="M206.349 249.203L198.311 272.496L181.695 263.273L189.642 240.24L206.349 249.203Z" fill="white"/>
<path d="M184.164 262.332L190.783 243.146L203.87 250.169L197.184 269.556L184.164 262.332Z" fill="white"/>
<path d="M193.086 244.573L200.36 248.387L200.68 247.421L199.268 246.178L195.278 244.17L193.464 243.834L193.086 244.573Z" fill="#455A64"/>
<path d="M195.281 244.171L195.6 243.432L199.49 245.523L199.271 246.178L195.281 244.171Z" fill="#455A64"/>
<path d="M193.344 242.222L202.139 246.943L202.517 246.027L193.646 241.365L193.344 242.222Z" fill="#455A64"/>
<path d="M195.719 242.456C196.483 240.037 201.086 242.313 200.188 244.808L195.719 242.456Z" fill="#455A64"/>
<path d="M180.504 268L186.636 275.964L197.295 265.48C197.889 264.893 198.27 264.125 198.379 263.297C198.883 259.315 199.992 256.476 201.403 256.98C202.293 257.29 201.151 261.18 201.151 261.18L202.478 260.424L204.032 255.93H204.729C205.098 255.93 205.458 256.045 205.759 256.258C206.06 256.472 206.287 256.774 206.409 257.122L207.073 259.038C207.466 260.172 207.486 261.402 207.131 262.549C206.776 263.696 206.064 264.699 205.099 265.413L202.755 267.118C202.409 267.384 202.108 267.705 201.865 268.068C198.17 273.741 193.988 279.081 189.366 284.028C188.847 284.555 188.161 284.886 187.425 284.962C186.689 285.039 185.95 284.857 185.334 284.448C178.807 280.13 173.414 272.839 173.414 272.839L180.504 268Z" fill="#FFA8A7"/>
<path d="M168.351 258.383L169.393 258.509C171.098 258.718 172.744 259.264 174.235 260.117C175.727 260.969 177.033 262.11 178.079 263.473L185.891 273.646C185.723 275.426 184.997 277.108 183.816 278.451C182.634 279.794 181.058 280.729 179.313 281.122L170.729 272.05C166.251 267.161 168.351 258.383 168.351 258.383Z" fill="#455A64"/>
<path opacity="0.4" d="M168.351 258.383L169.393 258.509C171.098 258.718 172.744 259.264 174.235 260.117C175.727 260.969 177.033 262.11 178.079 263.473L185.891 273.646C185.723 275.426 184.997 277.108 183.816 278.451C182.634 279.794 181.058 280.729 179.313 281.122L170.729 272.05C166.251 267.161 168.351 258.383 168.351 258.383Z" fill="white"/>
</svg>
