<svg width="276" height="174" viewBox="0 0 276 174" fill="none" xmlns="http://www.w3.org/2000/svg">
<path d="M109.793 25.9145C96.1578 34.759 43.4593 -15.5441 0.849121 4.95488V172.5H193C309.554 172.5 294 24.7838 199 11C148.019 3.60306 126.837 14.8589 109.793 25.9145Z" fill="#BB8BF8"/>
<path fill-rule="evenodd" clip-rule="evenodd" d="M181.514 120.968C180.478 120.968 179.441 121.037 178.428 121.152C172.923 113.551 166.612 107.102 159.979 103.002C142.705 92.3613 118.981 95.4015 96.8467 103.601C81.6222 109.221 62.344 127.371 49.9755 140.223C33.8527 141.444 21.4612 152.407 22.1982 164.96C22.3595 167.701 23.1426 170.28 24.4094 172.653L78.5128 173.021C78.605 172.883 78.6971 172.722 78.7892 172.584L159.035 172.307C159.127 172.422 159.219 172.538 159.311 172.676L203.741 172.607C207.864 167.148 210.328 160.169 210.328 152.545C210.328 135.087 197.43 120.968 181.514 120.968Z" fill="#9903FF"/>
<path fill-rule="evenodd" clip-rule="evenodd" d="M161.568 104.039C141.138 116.707 122.804 116.983 110.92 114.933C99.9101 113.045 91.9639 108.807 89.3842 107.148C88.9466 107.402 88.509 107.655 88.0483 107.908C90.1673 109.359 98.4591 114.15 110.436 116.246C114.352 116.937 118.29 117.283 122.252 117.283C126.282 117.283 130.313 116.937 134.321 116.223C144.017 114.496 153.576 110.695 162.789 104.914C162.374 104.592 161.983 104.315 161.568 104.039Z" fill="white"/>
<path fill-rule="evenodd" clip-rule="evenodd" d="M159.449 125.804C162.697 121.244 166.704 118.687 171.38 118.181C173.545 117.95 175.365 118.25 176.447 118.503C176.01 117.95 175.572 117.398 175.134 116.868C174.075 116.73 172.762 116.661 171.311 116.822C167.787 117.19 162.674 118.895 158.321 125.021C158.09 125.321 158.182 125.758 158.482 125.989C158.597 126.081 158.735 126.127 158.873 126.127C159.104 126.104 159.311 126.012 159.449 125.804Z" fill="white"/>
<path fill-rule="evenodd" clip-rule="evenodd" d="M159.702 141.996C160.094 141.996 160.393 141.697 160.416 141.328C160.462 139.302 161.268 134.695 164.101 130.365C167.372 125.321 172.209 122.234 178.428 121.129C178.128 120.714 177.829 120.3 177.506 119.885C171.288 121.152 166.266 124.492 162.927 129.605C160.14 133.889 159.08 138.588 159.011 141.282C159.011 141.674 159.311 141.996 159.702 141.996Z" fill="white"/>
<path fill-rule="evenodd" clip-rule="evenodd" d="M49.5146 140.269C49.5146 140.269 49.5375 140.269 49.5604 140.269C49.5375 140.246 49.5146 140.269 49.5146 140.269C49.5146 140.269 49.4917 140.269 49.5146 140.269Z" fill="white"/>
<path fill-rule="evenodd" clip-rule="evenodd" d="M40.1318 173.416C40.1318 173.416 46.3819 150.104 67.641 154.158C88.9 158.211 117.99 166.918 117.99 166.918L118.327 173.416L40.1318 173.416Z" fill="white"/>
<path fill-rule="evenodd" clip-rule="evenodd" d="M206.689 89.9199C206.689 89.9199 204.985 89.0677 204.777 87.11C204.57 85.1522 205.883 76.6301 208.002 75.4324C210.144 74.2348 219.887 68.9603 221.683 69.0755C223.48 69.1906 224.217 84.8297 206.689 89.9199Z" fill="white"/>
<path fill-rule="evenodd" clip-rule="evenodd" d="M207.726 76.3767C211.365 63.6397 214.336 60.7837 216.063 62.0275C217.63 63.1561 214.451 71.2635 213.53 75.4785" fill="white"/>
<path fill-rule="evenodd" clip-rule="evenodd" d="M212.034 63.5798L212.146 63.4127C213.619 61.249 215.148 60.517 216.468 61.4669C217.245 62.0273 217.329 63.1855 217.018 65.0268L216.972 65.2864C216.764 66.4255 216.422 67.7555 215.863 69.6896L214.948 72.8106C214.52 74.2848 214.377 74.8377 214.205 75.626C214.124 75.9988 213.755 76.235 213.382 76.1535C213.01 76.072 212.773 75.7037 212.855 75.3309L212.92 75.0371C213.069 74.3824 213.221 73.8081 213.569 72.6028L214.491 69.4584C215.106 67.3386 215.46 65.9562 215.656 64.7966L215.684 64.6216C215.871 63.4195 215.812 62.6979 215.66 62.5882C215.13 62.2067 214.323 62.614 213.189 64.3389L213.086 64.4973C211.631 66.7829 210.041 70.7884 208.39 76.5666C208.285 76.9335 207.903 77.146 207.536 77.0411C207.169 76.9363 206.957 76.5539 207.061 76.1869L207.18 75.7735C208.863 69.9589 210.495 65.9218 212.034 63.5798Z" fill="#2E186A"/>
<path fill-rule="evenodd" clip-rule="evenodd" d="M223.78 73.6127C225.599 70.6415 228.616 70.8027 227.05 75.8468C225.507 80.7758 224.378 87.1788 221.499 90.0809C218.62 92.983 217.584 94.2729 217.584 94.2729C217.584 94.2729 211.826 115.762 208.555 133.635C203.833 159.478 194.897 164.453 186.559 161.482C178.221 158.534 176.678 146.833 188.056 124.146C199.434 101.436 205.446 88.2153 205.446 88.2153" fill="white"/>
<path fill-rule="evenodd" clip-rule="evenodd" d="M223.19 73.252C224.223 71.5654 225.725 70.6194 226.93 71.0785C228.257 71.584 228.516 73.3864 227.741 75.9505L227.573 76.4939C227.374 77.1507 227.169 77.8709 226.897 78.8537L226.397 80.6717C224.933 85.9532 223.849 88.6588 222.049 90.5078L221.596 90.9662C220.655 91.9223 219.87 92.7483 219.229 93.4489L218.974 93.7286C218.708 94.0238 218.489 94.2722 218.316 94.4752L218.212 94.5969L217.848 95.9779L217.522 97.232C217.205 98.4547 216.862 99.7939 216.498 101.233C215.183 106.442 213.869 111.891 212.641 117.314L212.376 118.492C211.807 121.034 211.271 123.509 210.775 125.903L210.575 126.87C210.148 128.954 209.755 130.96 209.397 132.88L209.234 133.76C206.982 146.089 203.664 154.33 199.416 158.838C195.615 162.87 191.129 163.844 186.328 162.133C181.715 160.502 179.229 156.43 179.223 150.217C179.217 143.749 181.869 135.01 187.273 124.166L188.335 122.043C192.639 113.43 196.439 105.648 199.722 98.7762L200.999 96.0945C201.787 94.4326 202.503 92.9133 203.144 91.5405L204.153 89.3707L204.816 87.9295C204.974 87.5821 205.384 87.4285 205.731 87.5865C206.066 87.7388 206.221 88.1252 206.09 88.4641L206.003 88.6568L205.285 90.2153L204.299 92.3328C203.552 93.9311 202.706 95.723 201.765 97.7024L200.798 99.7284C197.323 106.996 193.276 115.269 188.673 124.456C178.222 145.295 178.234 157.806 186.791 160.831C191.087 162.362 194.994 161.514 198.41 157.89C202.401 153.656 205.601 145.762 207.808 133.873L207.875 133.511C208.33 131.024 208.848 128.388 209.422 125.622C209.996 122.852 210.623 119.973 211.294 117.009C212.455 111.876 213.695 106.72 214.939 101.767L215.445 99.7628C215.68 98.8377 215.906 97.9591 216.12 97.1318L216.549 95.4825L216.916 94.0942C216.941 94.0015 216.985 93.915 217.045 93.8402L217.14 93.7253L217.265 93.5772C217.447 93.3645 217.674 93.1066 217.949 92.8022L218.298 92.4193C219.024 91.6286 219.922 90.6892 221.008 89.5945L221.113 89.4865C222.589 87.9361 223.59 85.5171 224.881 80.9602L225.709 77.9678C225.938 77.1453 226.122 76.5101 226.307 75.9102L226.39 75.6421C227.012 73.6379 226.864 72.532 226.438 72.3699C226.013 72.2079 225.096 72.7853 224.368 73.9737C224.169 74.2992 223.744 74.4014 223.418 74.2021C223.093 74.0028 222.991 73.5774 223.19 73.252Z" fill="#2E186A"/>
<path fill-rule="evenodd" clip-rule="evenodd" d="M205.652 88.6071C203.994 87.4785 204.201 80.9833 202.336 78.1503C200.032 74.6264 197.775 70.9642 202.036 71.517C205.698 71.9776 206.85 75.2022 207.702 76.3538" fill="white"/>
<path fill-rule="evenodd" clip-rule="evenodd" d="M199.054 73.4712C198.575 71.5424 199.7 70.5168 202.123 70.8312C204.157 71.087 205.63 72.0933 206.823 73.6995L206.878 73.776C207.314 74.3856 208.143 75.7747 208.252 75.9338L208.258 75.9426C208.485 76.2493 208.42 76.682 208.114 76.909C207.807 77.136 207.374 77.0714 207.147 76.7646L207.124 76.7311C206.927 76.4401 206.065 74.9978 205.713 74.5234C204.728 73.1971 203.57 72.4061 201.948 72.202C201.101 72.0921 200.608 72.1701 200.428 72.335C200.321 72.4324 200.285 72.6588 200.381 73.0795L200.395 73.1381C200.635 74.1031 201.327 75.338 202.836 77.6515L202.913 77.7701C203.619 78.8415 204.053 80.259 204.496 82.5259L204.586 82.9937L204.856 84.4555C205.277 86.6852 205.606 87.7125 206.02 88.0206L206.042 88.0357C206.357 88.2504 206.439 88.6802 206.224 88.9957C206.009 89.3112 205.579 89.3929 205.264 89.1782C204.4 88.59 204.028 87.5028 203.524 84.8479L203.212 83.168L203.167 82.9332C202.757 80.801 202.365 79.481 201.795 78.5859L201.367 77.9266C199.976 75.7688 199.327 74.5694 199.054 73.4712Z" fill="#2E186A"/>
<path fill-rule="evenodd" clip-rule="evenodd" d="M221.66 79.0024C221.66 79.0024 224.908 71.1253 225.99 67.4631C227.188 63.4785 222.996 62.9027 220.969 68.6378" fill="white"/>
<path fill-rule="evenodd" clip-rule="evenodd" d="M224.644 63.716C226.441 63.5992 227.316 65.3487 226.675 67.5834L226.653 67.6589C226.322 68.7784 225.78 70.3336 225.072 72.2236L224.945 72.5606C224.847 72.8203 224.747 73.0848 224.644 73.3536C224.195 74.5284 223.719 75.7439 223.238 76.9456L222.845 77.9253L222.437 78.9299L222.299 79.2657C222.154 79.6186 221.75 79.7866 221.397 79.6412C221.057 79.5009 220.888 79.1203 221.007 78.777L221.563 77.4079C221.624 77.2579 221.686 77.1033 221.75 76.9445C222.228 75.7537 222.707 74.5416 223.16 73.3632L223.454 72.5949L223.652 72.0732C224.39 70.1158 224.957 68.5043 225.3 67.361L225.329 67.2642C225.77 65.7964 225.406 65.0513 224.734 65.095C223.739 65.1597 222.457 66.5015 221.621 68.868C221.494 69.2278 221.099 69.4164 220.739 69.2892C220.379 69.1621 220.191 68.7673 220.318 68.4075C221.319 65.5751 222.992 63.8234 224.644 63.716Z" fill="#2E186A"/>
<path fill-rule="evenodd" clip-rule="evenodd" d="M217.836 76.9295C217.836 76.9295 224.216 62.4881 221.36 61.1983C218.758 60.0236 216.777 65.2981 213.506 75.4785" fill="white"/>
<path fill-rule="evenodd" clip-rule="evenodd" d="M217.165 63.578C218.551 60.8987 219.959 59.8072 221.646 60.5685C223.38 61.3519 223.051 64.3428 221.5 69.2271C221.236 70.0566 220.94 70.9226 220.617 71.815C220.199 72.967 219.756 74.1124 219.309 75.2104L219.142 75.6198C218.985 75.9999 218.839 76.3493 218.705 76.663L218.469 77.2087C218.315 77.5578 217.907 77.7157 217.558 77.5615C217.209 77.4073 217.051 76.9993 217.205 76.6502L217.385 76.2348L217.535 75.8828C217.638 75.6384 217.748 75.3746 217.864 75.0938C218.359 73.8898 218.855 72.6201 219.317 71.3443C219.635 70.4684 219.925 69.6197 220.183 68.8088L220.296 68.4485C221.458 64.6835 221.72 62.1184 221.077 61.828C220.277 61.4671 219.425 62.1575 218.302 64.3907L218.173 64.6512C217.139 66.7755 216.033 69.8764 214.165 75.6898C214.048 76.0531 213.659 76.253 213.296 76.1363C212.932 76.0196 212.732 75.6304 212.849 75.2671L213.251 74.0232C214.958 68.7595 216.007 65.8955 217.034 63.8366L217.165 63.578Z" fill="#2E186A"/>
<path fill-rule="evenodd" clip-rule="evenodd" d="M113.568 87.4324L114.467 103.716C114.467 103.716 112.946 112.515 125.154 110.879C137.315 109.267 135.818 102.058 135.818 102.058L132.063 81.8354L113.568 87.4324Z" fill="white"/>
<path fill-rule="evenodd" clip-rule="evenodd" d="M131.864 81.174L113.369 86.771C113.064 86.8633 112.861 87.1522 112.879 87.4704L113.773 103.683L113.764 103.757C113.759 103.797 113.754 103.843 113.749 103.893C113.636 105.063 113.767 106.397 114.342 107.681C115.745 110.818 119.24 112.369 125.246 111.564C130.148 110.914 133.337 109.325 135.086 107.048C136.357 105.394 136.702 103.654 136.534 102.179L136.522 102.085C136.515 102.028 136.507 101.98 136.5 101.943L132.743 81.7093C132.668 81.3045 132.258 81.0548 131.864 81.174ZM114.289 87.9363L131.526 82.7201L135.145 102.22C135.15 102.248 135.155 102.285 135.161 102.335C135.292 103.483 135.016 104.87 133.99 106.206C132.485 108.166 129.629 109.589 125.063 110.194C119.62 110.924 116.733 109.643 115.603 107.117C115.142 106.084 115.032 104.978 115.125 104.026L115.135 103.929C115.14 103.883 115.145 103.851 115.148 103.834L115.155 103.782C115.158 103.748 115.159 103.713 115.157 103.678L114.289 87.9363Z" fill="#2E186A"/>
<path fill-rule="evenodd" clip-rule="evenodd" d="M136.74 61.2903C136.74 61.2903 146.183 57.7433 146.552 67.5782C146.92 77.4131 136.74 74.8565 136.74 74.8565" fill="white"/>
<path fill-rule="evenodd" clip-rule="evenodd" d="M137.654 60.3065C139.018 59.984 140.426 59.8684 141.762 60.0862C145.017 60.6166 147.071 62.9978 147.242 67.5524C147.418 72.2619 145.322 74.8397 141.798 75.6108C140.364 75.9247 138.853 75.9063 137.425 75.6892L137.202 75.6535C136.921 75.6062 136.707 75.5607 136.571 75.5267C136.201 75.4338 135.976 75.0584 136.069 74.6882C136.159 74.3313 136.511 74.1097 136.868 74.1776L137.018 74.2115L137.09 74.2266C137.248 74.2592 137.43 74.2921 137.633 74.323C138.908 74.5168 140.258 74.5332 141.503 74.2608C144.386 73.6298 146.012 71.6309 145.861 67.6041L145.85 67.3701C145.651 63.6272 144.086 61.8651 141.54 61.4501C140.409 61.2658 139.174 61.3673 137.972 61.6514C137.739 61.7064 137.524 61.7646 137.331 61.8231L137.236 61.8523C137.166 61.8744 137.108 61.8935 137.063 61.9087L136.982 61.9372C136.625 62.0714 136.227 61.8906 136.093 61.5333C135.958 61.1761 136.139 60.7777 136.497 60.6435L136.586 60.6111C136.825 60.5264 137.191 60.4159 137.654 60.3065Z" fill="#2E186A"/>
<path fill-rule="evenodd" clip-rule="evenodd" d="M119.027 92.3844C108.801 92.3844 100.509 84.0926 100.509 73.8662V57.6973C100.509 51.1561 105.83 45.8356 112.371 45.8356H128.586C133.538 45.8356 137.569 49.8663 137.569 54.8183V73.8432C137.569 84.0696 129.277 92.3844 119.027 92.3844Z" fill="white"/>
<path fill-rule="evenodd" clip-rule="evenodd" d="M128.586 45.1447H112.371C105.448 45.1447 99.8179 50.7745 99.8179 57.6974V73.8662C99.8179 84.4743 108.419 93.0754 119.027 93.0754L119.34 93.0729C129.834 92.9026 138.259 84.3406 138.259 73.8432V54.8183C138.259 49.4847 133.919 45.1447 128.586 45.1447ZM112.371 46.5266H128.586C133.156 46.5266 136.877 50.2479 136.877 54.8183V73.8432C136.877 83.586 129.057 91.5331 119.323 91.691L119.021 91.6935C109.182 91.6935 101.2 83.7111 101.2 73.8662V57.6974C101.2 51.5378 106.211 46.5266 112.371 46.5266Z" fill="#2E186A"/>
<path fill-rule="evenodd" clip-rule="evenodd" d="M141.876 82.6184C141.853 76.3305 140.978 71.747 140.748 70.5954C140.748 70.5263 140.771 70.4342 140.771 70.3651C140.771 68.914 139.596 67.7394 138.145 67.7394V70.3651L138.214 72.9908C138.767 72.9678 139.273 72.7835 139.688 72.4841C140.54 77.7816 142.222 93.5819 135.128 107.01C133.838 109.474 132.617 111.755 131.419 113.943C124.74 126.403 120.318 134.649 120.433 141.996C120.433 142.365 120.755 142.687 121.124 142.687C121.515 142.687 121.815 142.365 121.815 141.996C121.723 134.994 126.076 126.887 132.64 114.611C133.815 112.399 135.035 110.142 136.348 107.655C140.978 98.8794 141.922 89.2057 141.876 82.6184Z" fill="#FF9555"/>
<path fill-rule="evenodd" clip-rule="evenodd" d="M98.7126 73.2903C99.0351 73.4746 99.3805 73.5898 99.7721 73.6128V68.3844C98.5514 68.4996 97.584 69.4209 97.4228 70.6186C97.3537 70.7337 97.3076 70.8719 97.3076 71.0101C97.3076 72.0696 97.3076 96.8757 104.678 108.069C112.21 119.54 114.536 126.081 115.066 137.183C115.089 137.551 115.388 137.851 115.757 137.851H115.78C116.171 137.828 116.448 137.505 116.448 137.137C115.918 125.712 113.546 119.033 105.83 107.309C99.9333 98.3728 98.8969 79.7625 98.7126 73.2903Z" fill="#FF9555"/>
<path fill-rule="evenodd" clip-rule="evenodd" d="M113.35 62.0505C113.718 62.0444 114.023 62.3269 114.05 62.6892L114.052 62.7298L114.3 77.3517L114.311 77.3559C114.361 77.3721 114.417 77.3686 114.493 77.3405L114.527 77.3269C114.882 77.175 115.35 76.6609 115.887 75.6771C116.07 75.3421 116.49 75.2189 116.825 75.4018C117.16 75.5847 117.283 76.0045 117.1 76.3394C115.838 78.6512 114.479 79.2323 113.394 78.4123C113.233 78.2905 113.12 78.1652 113.048 78.0612C112.979 77.9627 112.938 77.8484 112.927 77.7295L112.924 77.6783L112.671 62.7532C112.664 62.3717 112.968 62.0571 113.35 62.0505Z" fill="#2E186A"/>
<path fill-rule="evenodd" clip-rule="evenodd" d="M120.63 79.5297C121.015 79.2774 121.535 79.4659 121.669 79.9065L121.685 79.9636C121.702 80.0274 121.721 80.1113 121.739 80.2133C121.881 81.0231 121.804 81.9188 121.341 82.7766C120.569 84.2058 118.902 85.1375 116.216 85.402C115.836 85.4394 115.498 85.1619 115.461 84.7821C115.423 84.4023 115.701 84.0641 116.081 84.0267C118.342 83.804 119.593 83.105 120.125 82.1201C120.256 81.8773 120.339 81.6255 120.382 81.3741L120.397 81.2765L120.376 81.2881C117.373 82.9056 114.372 83.0135 112.885 81.35L112.836 81.2933C112.588 81.003 112.623 80.5668 112.913 80.3192C113.203 80.0715 113.639 80.1061 113.887 80.3965C114.956 81.6498 117.786 81.391 120.63 79.5297Z" fill="#2E186A"/>
<path fill-rule="evenodd" clip-rule="evenodd" d="M119.642 56.6598C121.149 55.5131 122.939 55.3905 124.87 56.9263C125.169 57.1638 125.218 57.5985 124.981 57.8972C124.743 58.1958 124.308 58.2453 124.01 58.0078C122.613 56.8965 121.514 56.9717 120.478 57.7597C120.338 57.8663 120.213 57.9754 120.078 58.105L119.824 58.3557C119.789 58.39 119.759 58.4174 119.726 58.4437C119.637 58.5159 119.559 58.5645 119.425 58.598C119.055 58.6906 118.68 58.4655 118.587 58.0953C118.518 57.8176 118.627 57.5371 118.842 57.3752L118.872 57.3537L119.023 57.2033C119.23 56.9984 119.419 56.8295 119.642 56.6598Z" fill="#2E186A"/>
<path d="M124.44 68.9142C125.076 68.9142 125.591 68.1202 125.591 67.1407C125.591 66.1612 125.076 65.3672 124.44 65.3672C123.804 65.3672 123.288 66.1612 123.288 67.1407C123.288 68.1202 123.804 68.9142 124.44 68.9142Z" fill="#2E186A"/>
<path d="M107.696 69.3517C108.332 69.3517 108.847 68.5577 108.847 67.5782C108.847 66.5987 108.332 65.8047 107.696 65.8047C107.06 65.8047 106.544 66.5987 106.544 67.5782C106.544 68.5577 107.06 69.3517 107.696 69.3517Z" fill="#2E186A"/>
<path fill-rule="evenodd" clip-rule="evenodd" d="M104.483 56.4416C106.208 55.0657 108.099 55.001 109.76 57.1346C109.995 57.4357 109.941 57.8698 109.64 58.1043C109.339 58.3387 108.904 58.2847 108.67 57.9835C107.549 56.5433 106.528 56.5782 105.345 57.5219C105.185 57.6496 105.04 57.78 104.88 57.9364L104.609 58.2074C104.572 58.2431 104.542 58.2713 104.51 58.2976C104.416 58.3762 104.342 58.4243 104.201 58.4597C103.83 58.5523 103.455 58.3272 103.363 57.957C103.293 57.6793 103.402 57.3989 103.618 57.2369L103.644 57.2179L103.822 57.0397C104.049 56.8129 104.25 56.628 104.483 56.4416Z" fill="#2E186A"/>
<path fill-rule="evenodd" clip-rule="evenodd" d="M123.657 41.805C119.165 41.8741 115.756 42.0813 113.73 42.4729C97.2382 46.2272 99.91 58.4345 99.91 58.4345C99.91 58.4345 107.971 59.9776 114.536 50.2579C114.536 50.2579 123.541 57.6053 136.877 60.5765C137.085 60.5304 137.338 60.4613 137.568 60.3922V61.0602C138.351 60.8529 139.618 60.6226 140.931 60.7147C140.793 55.9009 139.918 49.8203 135.956 45.9048C133.146 43.1178 129 41.7359 123.657 41.805Z" fill="#2E186A"/>
<path fill-rule="evenodd" clip-rule="evenodd" d="M114.095 40.9822C116.723 40.6173 120.86 40.3775 124.424 40.3999C131.543 40.4753 136.3 43.0983 139.12 47.7245C140.23 49.5457 141.004 51.6186 141.525 53.944C141.91 55.6607 142.117 57.2339 142.31 59.4569C142.343 59.8371 142.062 60.1721 141.682 60.2052C141.302 60.2384 140.967 59.957 140.933 59.5768L140.896 59.1635C140.467 54.5229 139.73 51.3813 137.94 48.4437C135.372 44.2307 131.058 41.8522 124.412 41.7818L124.006 41.7804C120.603 41.7781 116.745 42.0095 114.285 42.351C113.907 42.4035 113.558 42.1397 113.506 41.7617C113.453 41.3837 113.717 41.0347 114.095 40.9822Z" fill="white"/>
<path fill-rule="evenodd" clip-rule="evenodd" d="M166.935 31.7857C161.246 15.5247 145.123 6.38079 130.912 11.3558C119.235 15.4326 112.486 27.8011 113.592 41.0908C115.734 40.7223 119.097 40.492 123.657 40.4229C129.392 40.3538 133.861 41.8509 136.947 44.9142C141.323 49.2444 142.221 55.8086 142.337 60.9219C144.455 61.4977 146.413 63.2251 146.574 67.5783C146.598 68.0159 146.206 71.4017 146.298 71.3786C146.298 72.4612 146.528 73.8201 147.335 75.156C148.924 77.7126 152.148 79.3018 156.939 79.8546C156.962 79.8546 156.985 79.8546 157.031 79.8546C157.377 79.8546 157.676 79.6013 157.722 79.2558C157.768 78.8873 157.492 78.5418 157.123 78.4957C152.793 77.989 149.891 76.6301 148.532 74.442C147.979 73.5667 147.772 72.6685 147.703 71.8854C148.878 73.2673 150.928 74.7644 154.175 74.7644C154.958 74.7644 155.811 74.6723 156.732 74.488C157.1 74.4189 157.354 74.0504 157.262 73.6819C157.193 73.3134 156.824 73.06 156.455 73.1522C152.264 74.0274 149.937 72.4381 148.717 71.0101C149.661 70.8028 150.582 70.5495 151.503 70.227C165.692 65.229 172.601 48.0236 166.935 31.7857Z" fill="#2E186A"/>
<path fill-rule="evenodd" clip-rule="evenodd" d="M125.43 58.4573C120.393 58.4573 116.31 62.5408 116.31 67.5782C116.31 72.6155 120.393 76.6991 125.43 76.6991C130.468 76.6991 134.551 72.6155 134.551 67.5782C134.551 62.5408 130.468 58.4573 125.43 58.4573ZM125.43 59.8392C129.705 59.8392 133.169 63.3041 133.169 67.5782C133.169 71.8523 129.705 75.3171 125.43 75.3171C121.156 75.3171 117.692 71.8523 117.692 67.5782C117.692 63.3041 121.156 59.8392 125.43 59.8392Z" fill="#2E186A"/>
<path fill-rule="evenodd" clip-rule="evenodd" d="M116.816 66.6801C117.198 66.6801 117.507 66.9894 117.507 67.371C117.507 67.739 117.22 68.0398 116.857 68.0608L116.816 68.062H111.335C110.953 68.062 110.644 67.7526 110.644 67.371C110.644 67.003 110.931 66.7022 111.294 66.6812L111.335 66.6801H116.816Z" fill="#2E186A"/>
<path fill-rule="evenodd" clip-rule="evenodd" d="M137.229 60.205C137.561 60.0173 137.982 60.1344 138.17 60.4666C138.351 60.7865 138.249 61.1892 137.945 61.3863L137.909 61.4081L133.141 64.1029C132.809 64.2907 132.387 64.1736 132.199 63.8414C132.019 63.5215 132.12 63.1187 132.425 62.9217L132.461 62.8998L137.229 60.205Z" fill="#2E186A"/>
<path fill-rule="evenodd" clip-rule="evenodd" d="M102.628 58.4573C97.5909 58.4573 93.5073 62.5408 93.5073 67.5782C93.5073 72.6155 97.5909 76.6991 102.628 76.6991C107.666 76.6991 111.749 72.6155 111.749 67.5782C111.749 62.5408 107.666 58.4573 102.628 58.4573ZM102.628 59.8392C106.902 59.8392 110.367 63.3041 110.367 67.5782C110.367 71.8523 106.902 75.3171 102.628 75.3171C98.3541 75.3171 94.8893 71.8523 94.8893 67.5782C94.8893 63.3041 98.3541 59.8392 102.628 59.8392Z" fill="#2E186A"/>
<path fill-rule="evenodd" clip-rule="evenodd" d="M160.769 165.271H155.978L153.628 130.422C153.467 127.981 151.348 126 148.907 126H82.1354C79.6939 126 77.8283 127.981 78.0126 130.422L80.6152 169.002C80.7765 171.443 82.8955 173.424 85.3369 173.424L160.745 173.332C162.127 173.332 163.233 172.203 163.233 170.844V167.781C163.256 166.399 162.15 165.271 160.769 165.271Z" fill="#FF9555"/>
<path fill-rule="evenodd" clip-rule="evenodd" d="M120.063 147.593C119.119 146.58 117.852 145.935 116.516 145.682C116.723 145.382 116.862 145.014 116.908 144.622C117.023 143.378 116.125 142.227 114.927 142.043C114.904 142.043 114.881 142.043 114.858 142.043C114.604 141.098 114.121 139.532 113.568 138.864C113.361 138.611 112.969 138.519 112.693 138.68C112.439 138.841 112.393 139.164 112.601 139.417C112.969 139.854 113.407 141.213 113.683 142.25C113.061 142.572 112.624 143.194 112.555 143.977C112.485 144.691 112.762 145.359 113.199 145.843C112.785 145.981 112.393 146.142 112.025 146.373C109.629 147.87 109.33 150.818 111.357 153.006C113.384 155.171 117 155.724 119.395 154.227C121.814 152.73 122.113 149.758 120.063 147.593Z" fill="white"/>
<path fill-rule="evenodd" clip-rule="evenodd" d="M119.05 138.749C119.05 138.749 115.595 138.058 115.134 140.937C115.157 140.937 117.875 141.904 119.05 138.749Z" fill="white"/>
</svg>
