<svg width="450" height="280" viewBox="0 0 450 280" fill="none" xmlns="http://www.w3.org/2000/svg">
<g clip-path="url(#clip0_5358_51018)">
<path d="M111.653 239.456C146.448 278.599 185.82 229.03 224.17 254.586C247.349 270.039 249.8 287.879 279.172 292.3C299.62 295.376 320.474 288.995 342.485 293.228C380.105 300.475 425.567 298.525 429.675 249.268C431.385 228.717 424.951 202.191 399.113 183.923C377.123 168.376 353.756 182.046 331.432 171.045C288.765 150.014 306.095 82.7294 248.507 76.1604C197.915 70.436 187.144 127.617 135.385 120.527C96.597 115.209 30.7197 93.8236 20.689 157.188C16.4244 184.204 34.7132 200.637 55.8486 209.01C85.0023 220.605 88.7872 213.765 111.653 239.456Z" fill="#CC9EFF"/>
<path opacity="0.9" d="M111.653 239.456C146.448 278.599 185.82 229.03 224.17 254.586C247.349 270.039 249.8 287.879 279.172 292.3C299.62 295.376 320.474 288.995 342.485 293.228C380.105 300.475 425.567 298.525 429.675 249.268C431.385 228.717 424.951 202.191 399.113 183.923C377.123 168.376 353.756 182.046 331.432 171.045C288.765 150.014 306.095 82.7294 248.507 76.1604C197.915 70.436 187.144 127.617 135.385 120.527C96.597 115.209 30.7197 93.8236 20.689 157.188C16.4244 184.204 34.7132 200.637 55.8486 209.01C85.0023 220.605 88.7872 213.765 111.653 239.456Z" fill="white"/>
<path d="M88.8848 304.19H347.472L315.149 248.198H121.208L88.8848 304.19Z" fill="#CC9EFF"/>
<path opacity="0.3" d="M88.8848 304.19H347.472L315.149 248.198H121.208L88.8848 304.19Z" fill="white"/>
<path d="M153.53 192.215L121.207 248.197H315.148L282.824 192.215H153.53Z" fill="#CC9EFF"/>
<path opacity="0.2" d="M153.53 192.215L121.207 248.197H315.148L282.824 192.215H153.53Z" fill="white"/>
<path d="M250.502 136.233H185.855L153.531 192.216H282.825L250.502 136.233Z" fill="#CC9EFF"/>
<path opacity="0.1" d="M250.502 136.233H185.855L153.531 192.216H282.825L250.502 136.233Z" fill="black"/>
<path d="M117.859 62.1528C117.328 62.549 116.608 63.1121 115.972 63.6334C115.336 64.1548 114.69 64.6761 114.053 65.2913C112.802 66.4383 111.561 67.6061 110.394 68.8365C108.085 71.2824 106.025 73.9508 104.242 76.8027C103.856 77.4387 103.199 78.5127 103.314 78.3667C103.181 78.7336 103.142 79.1277 103.199 79.5136C103.42 80.9645 103.867 82.3718 104.523 83.6844C106.055 86.7924 107.836 89.7705 109.851 92.589L106.921 95.4043C103.893 92.9286 101.235 90.0318 99.0283 86.8021C97.7639 84.9818 96.8319 82.9519 96.2756 80.8066C95.9228 79.3987 95.9014 77.9282 96.213 76.5107C96.3013 76.097 96.427 75.6922 96.5884 75.3012C96.7004 75.0157 96.8292 74.7372 96.9742 74.467L97.6311 73.1219C99.4598 69.5912 101.726 66.3051 104.377 63.3415C105.676 61.8802 107.051 60.488 108.496 59.1707C109.226 58.5138 109.977 57.8673 110.738 57.2417C111.499 56.6161 112.25 56.0531 113.219 55.3857L117.859 62.1528Z" fill="#B55B52"/>
<path d="M118.558 50.068C113.428 50.2974 105.701 60.6201 105.701 60.6201L113.949 70.4005C113.949 70.4005 124.376 64.7804 125.523 57.346C126.075 53.634 123.604 49.8386 118.558 50.068Z" fill="#CC9EFF"/>
<path d="M108.56 91.3691L114.67 96.5826L108.935 98.032C108.935 98.032 105.369 95.9466 106.412 93.0375L108.56 91.3691Z" fill="#B55B52"/>
<path d="M114.71 99.6377L111.728 102.526L108.934 98.0841L114.668 96.6348L114.71 99.6377Z" fill="#B55B52"/>
<path d="M157.033 36.8884C156.783 37.4202 156.866 38.0041 157.221 38.1813C157.575 38.3586 158.055 38.0562 158.263 37.5244C158.472 36.9927 158.43 36.4088 158.086 36.2315C157.742 36.0542 157.283 36.3462 157.033 36.8884Z" fill="#263238"/>
<path d="M157.951 36.1797L159.421 36.4508C159.421 36.4508 158.285 37.1285 157.951 36.1797Z" fill="#263238"/>
<path d="M157.241 37.6392C157.148 39.1098 157.254 40.5863 157.554 42.0289C157.184 42.086 156.806 42.0624 156.446 41.9599C156.086 41.8573 155.753 41.6781 155.469 41.4346L157.241 37.6392Z" fill="#A02724"/>
<path d="M159.432 33.6565C159.376 33.643 159.326 33.6141 159.286 33.573C158.971 33.2546 158.588 33.0128 158.165 32.8664C157.741 32.7199 157.29 32.6727 156.846 32.7285C156.801 32.7391 156.754 32.7405 156.708 32.7325C156.662 32.7246 156.619 32.7074 156.58 32.682C156.541 32.6567 156.507 32.6237 156.481 32.5851C156.455 32.5465 156.438 32.503 156.429 32.4574C156.41 32.3662 156.428 32.2713 156.479 32.1933C156.53 32.1153 156.609 32.0603 156.7 32.0403C157.257 31.964 157.824 32.0186 158.356 32.1996C158.888 32.3806 159.371 32.683 159.766 33.083C159.798 33.115 159.824 33.1531 159.842 33.1952C159.859 33.2373 159.868 33.2824 159.868 33.328C159.868 33.3736 159.859 33.4188 159.842 33.4608C159.824 33.5029 159.798 33.541 159.766 33.573C159.722 33.6141 159.668 33.6433 159.61 33.6579C159.551 33.6725 159.49 33.672 159.432 33.6565Z" fill="#263238"/>
<path d="M136.774 37.3784C136.92 41.8516 135.001 49.067 131.498 51.3505C131.498 51.3505 133.761 56.1886 141.81 57.7422C150.663 59.4626 146.763 54.197 146.763 54.197C142.123 52.1117 142.832 48.5665 144.229 45.3863L136.774 37.3784Z" fill="#B55B52"/>
<path d="M159.681 62.3096C160.088 64.5826 160.515 67.0017 161.016 69.3373C161.516 71.673 161.975 74.0607 162.528 76.3964C163.08 78.732 163.654 81.0572 164.269 83.3615C164.571 84.5189 164.916 85.6554 165.249 86.792L166.135 89.5551C166.501 90.1336 166.988 90.6248 167.564 90.994C168.402 91.5668 169.288 92.0657 170.212 92.4851C172.296 93.4482 174.446 94.2602 176.646 94.9146C178.888 95.634 181.213 96.2492 183.559 96.8018C185.905 97.3545 188.282 97.8445 190.618 98.3555L190.243 102.412C185.175 102.337 180.123 101.824 175.144 100.879C172.557 100.396 170.014 99.6987 167.543 98.7934C166.194 98.2957 164.895 97.6707 163.664 96.927C162.112 96.0449 160.792 94.8044 159.817 93.3088C159.669 93.0761 159.533 92.836 159.41 92.5894L159.233 92.1931L159.097 91.8595L158.753 90.9628L158.075 89.1798C157.648 87.9807 157.21 86.792 156.814 85.5825C156.011 83.1843 155.281 80.7652 154.655 78.2836C153.33 73.4122 152.286 68.4686 151.527 63.4774L159.681 62.3096Z" fill="#B55B52"/>
<path d="M217.688 71.9229L176.512 121.764L240.262 132.503L217.688 71.9229Z" fill="#CC9EFF"/>
<path d="M189.295 98.7411L195.145 96.7495L195.822 102.213C195.822 102.213 190.484 105.07 188.523 101.171L189.295 98.7411Z" fill="#B55B52"/>
<path d="M198.167 98.5219L200.106 103.662L195.779 102.223L195.102 96.7598L198.167 98.5219Z" fill="#B55B52"/>
<path d="M115.92 265.874L123.313 266.417L125.513 249.442L118.12 248.899L115.92 265.874Z" fill="#B55B52"/>
<path d="M69.125 245.396L75.9234 248.555L85.0261 234.145L78.2277 230.986L69.125 245.396Z" fill="#B55B52"/>
<path d="M77.726 246.928L71.0424 241.788C70.9351 241.691 70.7958 241.638 70.6513 241.638C70.5069 241.638 70.3676 241.691 70.2603 241.788L65.5578 246.345C65.444 246.467 65.3571 246.611 65.3028 246.769C65.2486 246.927 65.2282 247.094 65.2429 247.26C65.2577 247.427 65.3073 247.588 65.3885 247.734C65.4697 247.88 65.5806 248.007 65.7142 248.107C68.0811 249.858 69.3115 250.588 72.2519 252.84C74.0557 254.227 76.5686 256.448 79.0607 258.367C81.5527 260.285 83.5338 257.981 82.6684 256.97C78.7479 252.413 79.0398 250.505 78.4976 248.013C78.3658 247.577 78.0948 247.196 77.726 246.928Z" fill="#263238"/>
<path d="M123.781 265.363H115.44C115.294 265.362 115.153 265.412 115.042 265.506C114.931 265.6 114.857 265.731 114.835 265.874L113.719 272.454C113.695 272.618 113.707 272.785 113.754 272.944C113.8 273.103 113.881 273.25 113.99 273.375C114.099 273.5 114.234 273.599 114.385 273.667C114.536 273.735 114.7 273.769 114.866 273.767C117.765 273.715 119.162 273.548 122.822 273.548C125.074 273.548 129.714 273.778 132.821 273.778C135.929 273.778 136.168 270.712 134.907 270.431C129.141 269.18 126.899 267.459 124.991 265.822C124.653 265.533 124.226 265.371 123.781 265.363Z" fill="#263238"/>
<path opacity="0.2" d="M125.514 249.452L124.294 258.878L116.984 257.658L118.11 248.899L125.514 249.452Z" fill="black"/>
<path opacity="0.2" d="M78.2271 230.996L85.0255 234.155L80.9903 240.537L74.3379 237.138L78.2271 230.996Z" fill="black"/>
<path d="M116.473 95.1021L146.137 100.827C160.151 59.5672 156.794 58.2325 156.794 58.2325C154.617 57.055 152.371 56.0104 150.068 55.1044L149.672 54.948C147.774 54.2599 147.378 54.1556 144.834 53.4153C140.465 52.3726 136.399 51.5384 131.373 50.819C131.049 50.819 130.726 50.7147 130.413 50.6834C129.496 50.5687 128.589 50.4749 127.723 50.3915C127.129 50.3185 126.545 50.2872 125.982 50.2455L124.063 50.1412C120.821 49.9848 118.506 50.0265 118.506 50.0265C120.195 75.8019 118.954 83.205 116.473 95.1021Z" fill="#CC9EFF"/>
<path opacity="0.2" d="M150.798 70.8176C149.948 75.1322 150.246 79.5945 151.663 83.7574C154.124 75.687 155.532 70.2024 156.282 66.3966C154.009 66.1046 151.59 66.8345 150.798 70.8176Z" fill="black"/>
<path d="M156.544 58.1283C161.487 61.3502 164.646 68.5552 165.48 72.653L154.01 82.0372C154.01 82.0372 147.754 68.0756 149.84 64.5096C151.935 60.7559 154.678 56.8979 156.544 58.1283Z" fill="#CC9EFF"/>
<path d="M139.767 26.4303C137.098 33.239 135.816 36.0647 137.567 41.1218C140.195 48.723 149.11 50.7876 153.75 44.9693C157.921 39.7559 161.612 29.4854 156.377 23.6358C155.282 22.3353 153.866 21.3428 152.27 20.7565C150.673 20.1701 148.952 20.0101 147.275 20.2923C145.598 20.5744 144.023 21.2889 142.707 22.3653C141.39 23.4417 140.377 24.8428 139.767 26.4303Z" fill="#B55B52"/>
<path d="M152.373 33.8856C152.042 35.2071 152.129 36.5991 152.624 37.8687C153.301 39.6621 154.709 39.6204 155.387 38.3483C156.065 37.0762 156.429 34.8866 155.314 33.4685C154.198 32.0505 152.801 32.4258 152.373 33.8856Z" fill="#B55B52"/>
<path d="M140.612 14.8043C138.643 14.5321 136.639 14.9077 134.903 15.8746C133.167 16.8414 131.793 18.3469 130.988 20.1638C128.475 25.2208 126.066 31.8941 122.469 30.5073C123.146 31.55 125.284 32.7074 126.014 32.2277C123.584 34.6572 123.105 36.6279 122.583 41.612C121.937 47.7743 118.527 46.4188 118.527 46.4188C118.527 46.4188 122.51 52.873 135.555 55.1565C147.149 57.2419 152.519 54.5935 154.083 52.4247C152.477 51.9033 149.975 46.1685 152.175 42.9153C154.375 39.6621 158.181 30.6637 157.555 27.056C158.963 29.2873 159.036 32.8325 160.214 29.2665C161.392 25.7005 161.924 21.9676 157.555 17.5362C153.666 13.5427 142.311 11.5928 140.612 14.8043Z" fill="#263238"/>
<path d="M138.306 99.3354C138.306 99.3354 123.854 147.748 116.795 175.588C109.351 204.981 83.9819 239.505 83.9819 239.505L74.5977 234.291C74.5977 234.291 89.9878 201.311 97.2032 173.878C111.801 118.187 104.804 106.384 116.483 95.0708L138.306 99.3354Z" fill="#263238"/>
<path d="M84.8585 240.422L73.2012 233.916L74.9007 230.475L88.6539 236.804L84.8585 240.422Z" fill="#CC9EFF"/>
<path opacity="0.2" d="M131.519 109.637C122.041 116.936 121.405 144.807 121.624 157.392C126.442 139.802 132.145 120.231 135.482 108.897C134.575 108.125 133.261 108.292 131.519 109.637Z" fill="black"/>
<path d="M80.5839 250.004C80.5001 250.036 80.4125 250.057 80.3232 250.067C79.3848 250.15 78.1649 248.868 77.5288 248.086C77.5113 248.058 77.502 248.025 77.502 247.992C77.502 247.959 77.5113 247.926 77.5288 247.898C77.5501 247.867 77.5818 247.845 77.6182 247.835C77.6545 247.826 77.6932 247.83 77.7269 247.846C78.0397 247.846 80.7299 248.128 81.1678 248.962C81.221 249.052 81.2491 249.154 81.2491 249.259C81.2491 249.364 81.221 249.466 81.1678 249.556C81.0342 249.772 80.8266 249.931 80.5839 250.004ZM78.0815 248.201C78.9677 249.243 79.7811 249.765 80.292 249.723C80.4007 249.709 80.5039 249.667 80.5915 249.601C80.6792 249.535 80.7484 249.448 80.7925 249.348C80.8153 249.308 80.8274 249.263 80.8274 249.217C80.8274 249.171 80.8153 249.127 80.7925 249.087C80.5735 248.649 79.1554 248.336 78.0815 248.201Z" fill="#CC9EFF"/>
<path d="M145.689 100.826C145.689 100.826 147.534 159.373 143.395 181.416C139.099 204.355 125.992 256.49 125.992 256.49L115.336 255.145C115.336 255.145 122.072 202.437 124.939 179.654C128.067 154.806 123.969 96.6138 123.969 96.6138L145.689 100.826Z" fill="#263238"/>
<path d="M128.265 257.157L113.062 255.197L113.25 251.589L129.787 252.309L128.265 257.157Z" fill="#CC9EFF"/>
<path d="M79.9362 247.773C79.2064 248.071 78.4185 248.199 77.6319 248.149C77.6023 248.144 77.5744 248.132 77.5507 248.114C77.527 248.096 77.5083 248.072 77.4963 248.044C77.4833 248.017 77.4766 247.986 77.4766 247.956C77.4766 247.925 77.4833 247.895 77.4963 247.867C77.5589 247.804 78.831 246.157 79.8945 246.084C80.0336 246.069 80.1744 246.085 80.3062 246.132C80.438 246.179 80.5575 246.256 80.6557 246.355C80.7663 246.442 80.8434 246.564 80.8738 246.701C80.9043 246.838 80.8861 246.981 80.8225 247.106C80.6113 247.422 80.2988 247.658 79.9362 247.773ZM78.0073 247.825C78.9144 247.825 80.3116 247.408 80.5306 246.949C80.5306 246.877 80.5931 246.762 80.4263 246.605C80.3646 246.542 80.2895 246.493 80.2065 246.463C80.1235 246.432 80.0348 246.42 79.9467 246.428C79.3106 246.47 78.466 247.304 78.0073 247.846V247.825Z" fill="#CC9EFF"/>
<path d="M126.524 266.615C125.743 266.601 124.964 266.513 124.199 266.354C124.164 266.347 124.132 266.33 124.107 266.303C124.083 266.277 124.068 266.244 124.064 266.208C124.06 266.172 124.066 266.136 124.083 266.105C124.1 266.073 124.126 266.047 124.157 266.031C124.502 265.853 127.494 264.342 128.38 264.852C128.465 264.895 128.537 264.961 128.586 265.042C128.636 265.123 128.662 265.216 128.662 265.311C128.682 265.47 128.662 265.632 128.604 265.781C128.546 265.931 128.451 266.063 128.328 266.166C127.796 266.517 127.159 266.675 126.524 266.615ZM124.794 266.104C126.42 266.375 127.64 266.302 128.099 265.906C128.176 265.835 128.235 265.747 128.273 265.649C128.311 265.552 128.327 265.447 128.318 265.343C128.317 265.305 128.307 265.268 128.289 265.236C128.271 265.203 128.245 265.175 128.214 265.155C127.776 264.925 126.024 265.572 124.794 266.145V266.104Z" fill="#CC9EFF"/>
<path d="M124.241 266.396C124.207 266.406 124.171 266.406 124.137 266.396C124.111 266.38 124.09 266.356 124.077 266.329C124.064 266.301 124.06 266.27 124.064 266.239C124.064 266.104 124.419 263.111 126.077 263.111H126.223C126.702 263.163 126.838 263.403 126.869 263.601C127.005 264.436 125.211 266.031 124.314 266.437L124.241 266.396ZM126.087 263.403C125.044 263.403 124.596 265.155 124.46 265.906C125.388 265.364 126.598 264.102 126.546 263.601C126.546 263.601 126.546 263.435 126.202 263.403H126.087Z" fill="#CC9EFF"/>
<path d="M116.307 93.2879L114.534 95.6756C114.398 95.8529 114.607 96.1135 114.951 96.1761L146.055 102.203C146.326 102.255 146.565 102.203 146.607 102.005L147.316 99.4189C147.368 99.2312 147.16 99.0331 146.868 98.981L116.828 93.1627C116.738 93.1376 116.642 93.136 116.551 93.1578C116.46 93.1797 116.376 93.2245 116.307 93.2879Z" fill="#CC9EFF"/>
<path opacity="0.3" d="M116.307 93.2879L114.534 95.6756C114.398 95.8529 114.607 96.1135 114.951 96.1761L146.055 102.203C146.326 102.255 146.565 102.203 146.607 102.005L147.316 99.4189C147.368 99.2312 147.16 99.0331 146.868 98.981L116.828 93.1627C116.738 93.1376 116.642 93.136 116.551 93.1578C116.46 93.1797 116.376 93.2245 116.307 93.2879Z" fill="black"/>
<path d="M119.8 97.4063L118.997 97.2603C118.841 97.2603 118.726 97.1144 118.757 97.0205L119.706 93.6631C119.706 93.5692 119.883 93.5066 120.04 93.5379L120.853 93.6943C121.009 93.6943 121.114 93.8299 121.093 93.9341L120.144 97.2916C120.113 97.3855 119.967 97.4376 119.8 97.4063Z" fill="#263238"/>
<path d="M140.11 101.39L139.307 101.233C139.151 101.233 139.046 101.098 139.067 101.004L140.016 97.6464C140.016 97.5526 140.193 97.49 140.35 97.5213L141.163 97.6777C141.319 97.6777 141.424 97.8133 141.403 97.9175L140.454 101.275C140.433 101.369 140.287 101.421 140.11 101.39Z" fill="#263238"/>
<path d="M150.527 273.778H60.772C59.7515 273.776 58.7407 273.976 57.7977 274.366C56.8546 274.756 55.9977 275.328 55.2761 276.05C54.5545 276.772 53.9823 277.628 53.5924 278.572C53.2025 279.515 53.0026 280.525 53.0039 281.546V281.807C53.0026 282.179 53.0746 282.547 53.216 282.891C53.3574 283.235 53.5653 283.548 53.8279 283.811C54.0904 284.075 54.4023 284.284 54.7459 284.427C55.0894 284.569 55.4577 284.643 55.8296 284.643H155.469C155.841 284.643 156.21 284.569 156.553 284.427C156.897 284.284 157.209 284.075 157.471 283.811C157.734 283.548 157.942 283.235 158.083 282.891C158.224 282.547 158.296 282.179 158.295 281.807V281.546C158.296 280.525 158.096 279.515 157.706 278.572C157.317 277.628 156.744 276.772 156.023 276.05C155.301 275.328 154.444 274.756 153.501 274.366C152.558 273.976 151.547 273.776 150.527 273.778Z" fill="#CC9EFF"/>
<path d="M347.973 156.193C350.173 160.249 352.206 164.306 354.156 168.455C356.106 172.605 357.931 176.797 359.63 181.124L360.256 182.751L360.569 183.574L360.746 184.054L361.007 184.878C361.488 186.671 361.552 188.551 361.194 190.373C360.677 193.055 359.738 195.638 358.41 198.026C357.268 200.179 355.964 202.242 354.511 204.199C353.101 206.13 351.565 207.966 349.912 209.694L345.241 206.347C347.114 202.49 348.754 198.524 350.152 194.471C350.75 192.761 351.118 190.98 351.247 189.174C351.247 188.486 351.132 187.933 351.049 187.954L350.913 187.662L350.548 186.922L349.829 185.441C347.869 181.479 345.835 177.506 343.792 173.533L337.713 161.594L347.973 156.193Z" fill="#FF8B7B"/>
<path d="M346.096 205.335L341.717 207.754L348.296 213.385C348.296 213.385 351.028 210.684 350.559 207.431L346.096 205.335Z" fill="#FF8B7B"/>
<path d="M337.494 212.019L343.156 216.409L348.276 213.375L341.696 207.754L337.494 212.019Z" fill="#FF8B7B"/>
<path d="M314.097 127.092C314.003 127.634 313.648 128.03 313.304 127.968C312.96 127.905 312.731 127.436 312.814 126.925C312.897 126.414 313.252 125.987 313.607 126.049C313.961 126.112 314.18 126.55 314.097 127.092Z" fill="#263238"/>
<path d="M313.7 128.03C312.796 129.566 311.683 130.97 310.395 132.201C310.722 132.525 311.118 132.772 311.552 132.925C311.986 133.078 312.449 133.134 312.907 133.087L313.7 128.03Z" fill="#FF5652"/>
<path d="M316.525 124.402C316.482 124.402 316.44 124.394 316.401 124.378C316.361 124.362 316.326 124.338 316.295 124.308C316.017 124.017 315.673 123.796 315.292 123.664C314.912 123.531 314.505 123.491 314.106 123.547C314.023 123.562 313.937 123.545 313.867 123.498C313.797 123.451 313.748 123.379 313.73 123.297C313.721 123.256 313.72 123.214 313.727 123.174C313.734 123.133 313.75 123.094 313.772 123.059C313.794 123.024 313.823 122.994 313.857 122.97C313.891 122.946 313.93 122.93 313.97 122.921C314.476 122.838 314.994 122.88 315.479 123.043C315.965 123.207 316.403 123.487 316.754 123.86C316.784 123.889 316.808 123.924 316.824 123.962C316.841 124.001 316.849 124.042 316.849 124.084C316.849 124.126 316.841 124.167 316.824 124.206C316.808 124.244 316.784 124.279 316.754 124.308C316.724 124.338 316.688 124.362 316.649 124.378C316.61 124.394 316.567 124.402 316.525 124.402Z" fill="#263238"/>
<path d="M332.113 133.046C331.144 138.009 330.174 147.091 333.646 150.396C333.646 150.396 332.291 155.433 323.073 155.433C312.938 155.433 318.235 150.396 318.235 150.396C323.761 149.083 323.615 144.974 322.656 141.127L332.113 133.046Z" fill="#FF8B7B"/>
<path d="M339.121 155.432C338.98 155.153 338.881 154.855 338.829 154.546C337.932 149.719 334.157 145.923 329.267 145.735C324.054 145.548 318.288 146.424 314.836 150.48C313.324 152.252 315.003 154.849 315.003 154.849L339.121 155.432Z" fill="#CC9EFF"/>
<path d="M335.783 163.44C336.493 165.265 337.264 167.037 338.057 168.653C339.402 171.531 340.747 174.044 341.727 175.785C342.603 177.35 343.176 178.278 343.176 178.278L357.982 170.979C357.982 170.979 352.018 153.826 345.783 151.918C339.548 150.01 332.582 155.265 335.783 163.44Z" fill="#263238"/>
<path opacity="0.2" d="M342.342 165.14C341.06 166.088 340.132 168.643 339.475 171.636C340.319 173.283 341.101 174.764 341.727 175.806C342.603 177.37 343.166 178.298 343.166 178.298L344.865 177.454C344.828 173.225 343.971 169.043 342.342 165.14Z" fill="black"/>
<path d="M304.473 174.378C304.473 176.682 304.525 179.226 304.66 182.021C304.994 189.622 305.818 199.1 307.413 210.872H343.667C343.918 205.315 340.414 178.152 345.753 151.929C341.744 151.16 337.69 150.648 333.616 150.396C328.483 150.104 323.338 150.104 318.205 150.396C314.686 150.757 311.2 151.388 307.778 152.283C307.778 152.283 304.462 156.058 304.473 174.378Z" fill="#263238"/>
<path opacity="0.2" d="M305.535 169.488C305.201 170.218 304.847 170.958 304.492 171.75C304.492 172.595 304.492 173.471 304.492 174.378C304.492 174.743 304.492 175.118 304.492 175.494C308.997 172.751 311.947 166.996 311.947 166.996L305.535 169.488Z" fill="black"/>
<path d="M315.378 164.556L314.335 165.203L313.417 165.734C312.802 166.099 312.229 166.36 311.645 166.683C310.477 167.257 309.33 167.799 308.173 168.32C305.868 169.363 303.512 170.239 301.145 171.073C296.259 172.806 291.183 173.947 286.026 174.472C285.327 174.472 284.681 174.608 283.94 174.597H282.074H281.688C279.988 174.47 278.319 174.068 276.746 173.409C274.256 172.364 271.889 171.049 269.687 169.488C265.597 166.64 261.823 163.365 258.426 159.718L262.054 155.255C266.079 157.487 270.187 159.822 274.202 161.678C276.064 162.579 278 163.318 279.989 163.889C280.639 164.078 281.314 164.166 281.991 164.149L283.304 164.024C283.763 164.024 284.285 163.878 284.775 163.816C289.029 163.016 293.195 161.804 297.214 160.198C299.299 159.416 301.385 158.54 303.408 157.653C304.45 157.195 305.42 156.736 306.379 156.256L307.756 155.537L308.392 155.203L308.892 154.911L315.378 164.556Z" fill="#FF8B7B"/>
<path d="M263.316 156.663L259.083 151.199L254.787 158.425C254.787 158.425 258.739 161.365 261.898 160.834L263.316 156.663Z" fill="#FF8B7B"/>
<path d="M252.754 148.978L250.502 154.942L254.787 158.425L259.083 151.199L252.754 148.978Z" fill="#FF8B7B"/>
<path d="M321.5 163.044C317.986 168.487 298.873 174.441 298.873 174.441L291.512 159.301C296.624 156.311 302.069 153.931 307.736 152.21C319.936 148.874 325.722 156.506 321.5 163.044Z" fill="#263238"/>
<path d="M332.333 128.771C330.884 135.34 330.373 139.26 326.484 142.138C320.645 146.476 312.929 142.138 312.387 135.288C311.897 129.094 314.347 119.397 321.249 117.77C322.771 117.404 324.361 117.433 325.868 117.855C327.375 118.276 328.749 119.076 329.86 120.179C330.971 121.281 331.781 122.649 332.214 124.153C332.647 125.657 332.688 127.247 332.333 128.771Z" fill="#FF8B7B"/>
<path d="M338.369 112.672C344.135 112.828 346.231 122.41 344.511 125.267C344.511 125.267 342.665 126.31 340.423 129.824C337.024 135.183 332.687 140.981 327.598 140.637C321.28 140.199 320.3 132.9 320.518 126.112C317.182 122.984 315.357 122.733 313.72 118.198C308.663 104.215 318.381 97.2083 338.369 112.672Z" fill="#263238"/>
<path d="M323.241 128.135C323.063 129.831 322.33 131.422 321.156 132.66C319.581 134.276 318.028 133.192 317.84 131.148C317.663 129.313 318.267 126.268 320.144 125.413C322.021 124.558 323.429 126.08 323.241 128.135Z" fill="#FF8B7B"/>
<path d="M320.269 210.872C320.269 210.872 319.487 259.117 325.545 278.032C335.148 307.988 351.613 348.288 351.613 348.288L364 345.16C364 345.16 350.351 304.308 345.919 279.075C341.936 256.406 343.626 229.422 343.626 210.903L320.269 210.872Z" fill="#CC9EFF"/>
<path opacity="0.2" d="M327.036 219.162C328.318 227.858 323.783 252.059 322.219 259.983C320.571 245.166 320.269 227.587 320.248 217.994C323.564 215.742 326.442 215.158 327.036 219.162Z" fill="black"/>
<path d="M307.401 210.872C307.401 210.872 297.193 254.154 296.474 274.831C295.671 298.01 303.773 352.699 303.773 352.699H315.242C315.242 352.699 316.692 297.635 317.171 276.468C317.734 253.445 331.289 210.872 331.289 210.872H307.401Z" fill="#CC9EFF"/>
</g>
<defs>
<clipPath id="clip0_5358_51018">
<rect width="450" height="280" fill="white"/>
</clipPath>
</defs>
</svg>
