<svg width="440" height="199" viewBox="0 0 440 199" fill="none" xmlns="http://www.w3.org/2000/svg">
<g clip-path="url(#clip0_13579_2917)">
<path d="M0 16C0 7.16343 7.16344 0 16 0H424C432.837 0 440 7.16344 440 16V199H0V16Z" fill="#CC9EFF"/>
<path d="M369.022 145.386L385.931 145.089L394.289 144.966H402.61L402.17 145.427V133.954L402.648 134.467L385.854 134.405L377.457 134.313L369.06 134.2L369.29 133.954L369.022 145.386ZM369.022 145.386L368.793 133.913V133.677H369.022L377.419 133.564L385.816 133.472L402.61 133.4H403.087V133.913L403.04 145.386V145.858H394.136L385.701 145.735L369.022 145.386Z" fill="#F7EBFF"/>
<path d="M387.755 159.853L404.663 159.556L413.022 159.432H421.342L420.903 159.894V148.421L421.38 148.933L404.587 148.872L396.19 148.78L387.793 148.667L388.022 148.421L387.755 159.853ZM387.755 159.853L387.525 148.38V148.185H387.755L396.152 148.072L404.548 147.98L421.342 147.908H421.82V160.366H412.917L404.482 160.242L387.755 159.853Z" fill="#F7EBFF"/>
<path d="M440 133.924H406.412V145.397H440V133.924Z" fill="#F7EBFF"/>
<path d="M113.174 0H77.6484V12.1361H113.174V0Z" fill="#F7EBFF"/>
<path d="M57.8353 27.4284L75.7192 27.1139L84.5601 26.9837H93.3607L92.8959 27.4718V15.3357L93.4011 15.8779L75.6384 15.802L66.7671 15.6719L57.8858 15.5526L58.0778 15.2489L57.8353 27.4284ZM57.8353 27.4284L57.5928 15.2489V14.9994H57.8353L66.7671 14.9235L75.6485 14.8259L93.4112 14.75H93.9164V27.8839H84.4995L75.5778 27.7538L57.8353 27.4284Z" fill="#F7EBFF"/>
<path d="M0.219724 198.518L17.1281 198.221L25.4868 198.098L33.8072 198.047L33.3678 198.518V187.045L33.8454 187.558L17.0517 187.486L8.6548 187.404L0.257914 187.291L0.4872 187.045L0.219724 198.518ZM0.219724 198.518L0 187.045V186.81H0.229257L8.62614 186.697L17.023 186.615L33.8168 186.543H34.2944V199H33.8646L25.3912 198.949L16.9562 198.826L0.219724 198.518Z" fill="#F7EBFF"/>
<path d="M181.242 16.0051H195.674L210.206 182.227H195.788C188.969 182.099 183.326 176.911 182.632 170.12L170.199 28.112C169.547 22.1153 173.871 16.7281 179.853 16.0618C180.307 16.0051 180.775 15.9909 181.242 16.0051Z" fill="#25003F"/>
<path d="M172.311 32.6762C172.24 32.024 171.701 31.5278 171.049 31.5137C170.468 31.5137 170 31.9815 170 32.5627C170 32.6053 170 32.6478 170 32.6762L170.978 43.8191C171.035 44.4712 171.574 44.9674 172.226 44.9674C172.793 44.9815 173.275 44.5421 173.289 43.9608C173.289 43.9183 173.289 43.8616 173.289 43.8191L172.311 32.6762Z" fill="#25003F"/>
<path opacity="0.5" d="M172.311 32.6762C172.24 32.024 171.701 31.5278 171.049 31.5137C170.468 31.5137 170 31.9815 170 32.5627C170 32.6053 170 32.6478 170 32.6762L170.978 43.8191C171.035 44.4712 171.574 44.9674 172.226 44.9674C172.793 44.9815 173.275 44.5421 173.289 43.9608C173.289 43.9183 173.289 43.8616 173.289 43.8191L172.311 32.6762Z" fill="white"/>
<path d="M198.736 182.228H258.165C264.19 182.341 269.166 177.535 269.266 171.51C269.266 171.042 269.266 170.589 269.209 170.121L256.776 28.1128C256.081 21.3221 250.439 16.1335 243.62 16.0059H184.205C178.18 15.8925 173.218 20.6842 173.091 26.6951C173.091 27.1629 173.091 27.645 173.162 28.1128L185.581 170.078C186.247 176.883 191.903 182.1 198.736 182.228Z" fill="#25003F"/>
<path opacity="0.5" d="M198.736 182.228H258.165C264.19 182.341 269.166 177.535 269.266 171.51C269.266 171.042 269.266 170.589 269.209 170.121L256.776 28.1128C256.081 21.3221 250.439 16.1335 243.62 16.0059H184.205C178.18 15.8925 173.218 20.6842 173.091 26.6951C173.091 27.1629 173.091 27.645 173.162 28.1128L185.581 170.078C186.247 176.883 191.903 182.1 198.736 182.228Z" fill="white"/>
<path d="M184.446 18.7839H199.885C200.919 18.7981 201.813 19.5353 202.039 20.5418L202.139 21.0239C202.706 23.4764 204.861 25.2343 207.384 25.2769H222.099C224.509 25.3336 226.523 23.4339 226.593 21.0239V20.5418C226.622 19.5495 227.444 18.7556 228.436 18.7839H243.875C249.134 18.8832 253.487 22.881 254.011 28.1122L266.43 170.078C266.94 174.699 263.609 178.853 259.001 179.363C258.647 179.406 258.293 179.42 257.924 179.406H198.495C193.236 179.307 188.883 175.309 188.359 170.078L175.926 28.0697C175.444 23.4481 178.804 19.3085 183.44 18.8265C183.78 18.7981 184.106 18.7839 184.446 18.7839Z" fill="white"/>
<path d="M217.847 20.3573C217.918 21.0236 218.456 21.5198 219.123 21.534C219.704 21.534 220.2 21.0804 220.2 20.4849C220.2 20.4424 220.2 20.3999 220.2 20.3573C220.129 19.691 219.59 19.1948 218.924 19.1807C218.343 19.1807 217.847 19.6343 217.847 20.2297C217.847 20.2723 217.847 20.3148 217.847 20.3573Z" fill="#263238"/>
<path d="M209.411 19.1807H213.451C214.117 19.1807 214.67 19.691 214.741 20.3573C214.798 20.9386 214.387 21.4631 213.791 21.534C213.749 21.534 213.706 21.534 213.664 21.534H209.623C208.957 21.534 208.404 21.0236 208.333 20.3573C208.277 19.7761 208.688 19.2515 209.283 19.1807C209.326 19.1807 209.368 19.1807 209.411 19.1807Z" fill="#263238"/>
<path d="M262.206 122.344H184.134L177.315 44.2871H255.372L262.206 122.344Z" fill="#263238"/>
<path d="M193.533 35.0162C193.916 38.1209 191.69 40.9562 188.586 41.3248C188.302 41.3532 188.019 41.3674 187.735 41.3674C184.162 41.2965 181.2 38.5746 180.831 35.0162C180.448 31.9115 182.674 29.0762 185.779 28.7076C186.062 28.6792 186.346 28.665 186.629 28.665C190.202 28.7359 193.165 31.4579 193.533 35.0162Z" fill="#263238"/>
<path d="M245.959 37.9365H233.767C232.123 37.9082 230.762 36.6606 230.592 35.0161C230.436 33.5701 231.485 32.2658 232.931 32.1099C233.044 32.1099 233.143 32.0957 233.257 32.0957H245.449C247.093 32.1241 248.454 33.3716 248.624 35.0161C248.78 36.4621 247.731 37.7664 246.285 37.9223C246.172 37.9223 246.072 37.9365 245.959 37.9365Z" fill="#263238"/>
<path d="M219.264 133.218H193.179C191.591 133.189 190.272 131.97 190.131 130.382C189.946 129.007 190.925 127.745 192.286 127.561C192.413 127.547 192.541 127.533 192.683 127.547H218.782C220.37 127.575 221.688 128.794 221.83 130.382C222 131.772 220.993 133.033 219.604 133.203C219.491 133.203 219.377 133.218 219.264 133.218Z" fill="#263238"/>
<path d="M253.288 144.205H194.171C192.583 144.162 191.279 142.957 191.123 141.37C190.953 139.98 191.96 138.718 193.349 138.548C193.462 138.548 193.576 138.534 193.689 138.534H252.806C254.394 138.563 255.712 139.782 255.868 141.37C256.038 142.759 255.032 144.021 253.643 144.191C253.529 144.191 253.402 144.205 253.288 144.205Z" fill="#263238"/>
<path d="M239.253 152.739H194.923C193.335 152.697 192.031 151.491 191.875 149.904C191.705 148.514 192.683 147.267 194.072 147.083C194.185 147.068 194.313 147.068 194.426 147.068H238.771C240.359 147.111 241.663 148.316 241.819 149.904C241.989 151.293 240.983 152.555 239.593 152.725C239.48 152.725 239.367 152.739 239.253 152.739Z" fill="#263238"/>
<path d="M247.844 161.273H195.674C194.086 161.245 192.767 160.026 192.626 158.438C192.456 157.049 193.434 155.801 194.823 155.617C194.936 155.603 195.064 155.603 195.177 155.603H247.362C248.95 155.645 250.254 156.85 250.41 158.438C250.58 159.827 249.573 161.089 248.184 161.259C248.071 161.259 247.957 161.273 247.844 161.273Z" fill="#263238"/>
<path d="M212.389 169.808H196.411C194.824 169.766 193.519 168.561 193.363 166.973C193.193 165.584 194.2 164.322 195.589 164.152C195.703 164.152 195.816 164.138 195.929 164.138H211.892C213.48 164.166 214.799 165.385 214.94 166.973C215.111 168.362 214.132 169.61 212.743 169.794C212.63 169.808 212.502 169.808 212.389 169.808Z" fill="#263238"/>
<path opacity="0.9" d="M262.206 122.344H184.134L177.315 44.2871H255.372L262.206 122.344Z" fill="white"/>
<path opacity="0.9" d="M193.533 35.0162C193.916 38.1209 191.69 40.9562 188.586 41.3248C188.302 41.3532 188.019 41.3674 187.735 41.3674C184.162 41.2965 181.2 38.5746 180.831 35.0162C180.448 31.9115 182.674 29.0762 185.779 28.7076C186.062 28.6792 186.346 28.665 186.629 28.665C190.202 28.7359 193.165 31.4579 193.533 35.0162Z" fill="white"/>
<path opacity="0.9" d="M245.959 37.9365H233.767C232.123 37.9082 230.762 36.6606 230.592 35.0161C230.436 33.5701 231.485 32.2658 232.931 32.1099C233.044 32.1099 233.143 32.0957 233.257 32.0957H245.449C247.093 32.1241 248.454 33.3716 248.624 35.0161C248.78 36.4621 247.731 37.7664 246.285 37.9223C246.172 37.9223 246.072 37.9365 245.959 37.9365Z" fill="white"/>
<path opacity="0.9" d="M219.264 133.218H193.179C191.591 133.189 190.272 131.97 190.131 130.382C189.946 129.007 190.925 127.745 192.286 127.561C192.413 127.547 192.541 127.533 192.683 127.547H218.782C220.37 127.575 221.688 128.794 221.83 130.382C222 131.772 220.993 133.033 219.604 133.203C219.491 133.203 219.377 133.218 219.264 133.218Z" fill="white"/>
<path opacity="0.9" d="M253.288 144.205H194.171C192.583 144.162 191.279 142.957 191.123 141.37C190.953 139.98 191.96 138.718 193.349 138.548C193.462 138.548 193.576 138.534 193.689 138.534H252.806C254.394 138.563 255.712 139.782 255.868 141.37C256.038 142.759 255.032 144.021 253.643 144.191C253.529 144.191 253.402 144.205 253.288 144.205Z" fill="white"/>
<path opacity="0.9" d="M239.253 152.739H194.923C193.335 152.697 192.031 151.491 191.875 149.904C191.705 148.514 192.683 147.267 194.072 147.083C194.185 147.068 194.313 147.068 194.426 147.068H238.771C240.359 147.111 241.663 148.316 241.819 149.904C241.989 151.293 240.983 152.555 239.593 152.725C239.48 152.725 239.367 152.739 239.253 152.739Z" fill="white"/>
<path opacity="0.9" d="M247.844 161.273H195.674C194.086 161.245 192.767 160.026 192.626 158.438C192.456 157.049 193.434 155.801 194.823 155.617C194.936 155.603 195.064 155.603 195.177 155.603H247.362C248.95 155.645 250.254 156.85 250.41 158.438C250.58 159.827 249.573 161.089 248.184 161.259C248.071 161.259 247.957 161.273 247.844 161.273Z" fill="white"/>
<path opacity="0.9" d="M212.389 169.808H196.411C194.824 169.766 193.519 168.561 193.363 166.973C193.193 165.584 194.2 164.322 195.589 164.152C195.703 164.152 195.816 164.138 195.929 164.138H211.892C213.48 164.166 214.799 165.385 214.94 166.973C215.111 168.362 214.132 169.61 212.743 169.794C212.63 169.808 212.502 169.808 212.389 169.808Z" fill="white"/>
<path d="M235.823 107.56H211.836C208.377 107.504 205.513 104.867 205.159 101.422L203.061 77.4349C202.905 75.7904 203.443 74.1459 204.549 72.9126C205.669 71.7075 207.257 71.0271 208.901 71.0412H232.888C236.348 71.0979 239.211 73.7348 239.566 77.1797L241.664 101.167C241.82 102.811 241.281 104.456 240.175 105.689C239.055 106.894 237.467 107.575 235.823 107.56ZM208.887 73.9191C207.285 73.8624 205.938 75.1241 205.896 76.7261C205.896 76.882 205.896 77.0238 205.91 77.1797L208.008 101.167C208.207 103.137 209.851 104.64 211.822 104.683H235.809C237.411 104.739 238.758 103.478 238.8 101.876C238.8 101.72 238.8 101.578 238.786 101.422L236.688 77.4349C236.489 75.4644 234.845 73.9616 232.874 73.9191H208.887Z" fill="#263238"/>
<g opacity="0.5">
<path d="M235.823 107.558H211.836C208.377 107.502 205.513 104.865 205.159 101.42L203.061 77.433C202.905 75.7885 203.443 74.144 204.549 72.9106C205.669 71.7056 207.257 71.0251 208.901 71.0393H232.888C236.348 71.096 239.211 73.7329 239.566 77.1778L241.664 101.165C241.82 102.809 241.281 104.454 240.175 105.687C239.055 106.892 237.467 107.573 235.823 107.558ZM208.887 73.9171C207.285 73.8604 205.938 75.1222 205.896 76.7241C205.896 76.8801 205.896 77.0219 205.91 77.1778L208.008 101.165C208.207 103.135 209.851 104.638 211.822 104.681H235.809C237.411 104.737 238.758 103.476 238.8 101.874C238.8 101.718 238.8 101.576 238.786 101.42L236.688 77.433C236.489 75.4624 234.845 73.9597 232.874 73.9171H208.887Z" fill="white"/>
</g>
<path d="M217.392 99.2937L199.076 82.4517C197.8 81.2609 197.715 79.2762 198.892 77.9861C200.083 76.7102 202.067 76.6251 203.358 77.8018L216.996 90.3482L243.449 61.371C244.612 60.0809 246.611 59.9817 247.901 61.1583C249.191 62.335 249.276 64.3339 248.113 65.624L217.392 99.2937Z" fill="#25003F"/>
<g opacity="0.2">
<path d="M217.392 99.2927L199.076 82.4508C197.8 81.2599 197.715 79.2752 198.892 77.9851C200.083 76.7092 202.067 76.6241 203.358 77.8008L216.996 90.3472L243.449 61.37C244.612 60.0799 246.611 59.9807 247.901 61.1574C249.191 62.334 249.276 64.3329 248.113 65.623L217.392 99.2927Z" fill="black"/>
</g>
</g>
<defs>
<clipPath id="clip0_13579_2917">
<path d="M0 16C0 7.16343 7.16344 0 16 0H424C432.837 0 440 7.16344 440 16V199H0V16Z" fill="white"/>
</clipPath>
</defs>
</svg>
