<svg version="1.2" xmlns="http://www.w3.org/2000/svg" viewBox="0 0 443 336" width="443" height="336"><style>.a{fill:#455a64}.b{fill:#fff}.c{fill:#263238}.d{fill:#e0e0e0}.e{fill:#f5f5f5}.f{fill:#7e57c2}.g{fill:#553c85}.h{fill:#bb7964}.i{opacity:.1}.j{fill:#ebebeb}.k{fill:#dbdbdb}.l{fill:#a6a6a6}.m{opacity:.6;fill:#dbdbdb}.n{fill:#37474f}</style><path class="a" d="m282.4 178.2l-107.9-0.1q-1.2 0-2.3-0.4-1.1-0.5-1.9-1.4-0.9-0.8-1.3-1.9-0.5-1.1-0.5-2.3l0.1-160.1q0-1.2 0.4-2.3 0.5-1.1 1.4-1.9 0.8-0.9 1.9-1.3 1.1-0.5 2.3-0.5l107.9 0.1c1.6 0 3.1 0.6 4.3 1.7 1.1 1.2 1.7 2.7 1.7 4.3l-0.1 160q0 1.2-0.4 2.3-0.5 1.1-1.3 2-0.9 0.8-2 1.3-1.1 0.5-2.3 0.5z"/><path class="b" d="m284.5 161.7h-112.4v-143.8h112.4z"/><path class="c" d="m233.1 169.5c0 0.9-0.3 1.8-0.8 2.6-0.5 0.7-1.2 1.3-2.1 1.6-0.8 0.4-1.7 0.5-2.6 0.3-0.9-0.2-1.7-0.6-2.4-1.3-0.6-0.6-1.1-1.4-1.2-2.3-0.2-0.9-0.1-1.8 0.2-2.7 0.4-0.8 1-1.5 1.7-2 0.8-0.5 1.7-0.8 2.6-0.8 1.2 0 2.4 0.5 3.2 1.3 0.9 0.9 1.4 2.1 1.4 3.3z"/><rect class="c" x="210.5" y="11" width="36.1" height="1.9" rx=".5"></rect><path class="d" d="m284.5 28.2h-112.4v-10.3h112.4z"/><circle class="b" cx="177.1" cy="23" r="1.5"/><circle class="b" cx="182" cy="23" r="1.5"/><path class="b" d="m188.4 22.9q0 0.5-0.2 0.9-0.3 0.4-0.7 0.6-0.4 0.1-0.9 0-0.4 0-0.8-0.4-0.3-0.3-0.4-0.7-0.1-0.5 0.1-0.9 0.2-0.5 0.6-0.7 0.4-0.3 0.8-0.3c0.4 0 0.8 0.2 1.1 0.5 0.3 0.3 0.4 0.6 0.4 1z"/><path class="e" d="m284.5 40.9h-112.4v-12.7h112.4z"/><path fill-rule="evenodd" class="d" d="m284.5 40.9h-112.4v-12.7h112.4zm-112.3 0h112.3v-12.6h-112.3z"/><path class="d" d="m199.1 35.5c0 0-4.6 0.1-10.2 0.1-5.7 0-10.3-0.1-10.3-0.1 0-0.1 4.6-0.1 10.3-0.1 5.6 0 10.2 0 10.2 0.1z"/><path class="d" d="m227.3 35.5c0 0-4.6 0.1-10.3 0.1-5.6 0-10.2-0.1-10.2-0.1 0-0.1 4.6-0.1 10.2-0.1 5.7 0 10.3 0 10.3 0.1z"/><path class="b" d="m257.8 41.4h-29.3v-13.2h29.3z"/><path class="d" d="m254.5 35.5c0 0-4.6 0.1-10.2 0.1-5.7 0-10.2-0.1-10.2-0.1 0-0.1 4.5-0.1 10.2-0.1 5.6 0 10.2 0 10.2 0.1z"/><path class="d" d="m284.5 51.6c0 0-25.2 0.1-56.2 0.1-31 0-56.2-0.1-56.2-0.1 0-0.1 25.2-0.1 56.2-0.1 31.1 0 56.2 0 56.2 0.1z"/><path fill-rule="evenodd" class="d" d="m180.1 48.9h-4.2q-0.2 0-0.3-0.2-0.2-0.1-0.2-0.4v-4.1q0-0.1 0.1-0.2 0-0.1 0.1-0.2 0.1-0.1 0.2-0.1 0.1 0 0.2 0h2.9q0.2 0 0.4 0.2l1.2 1.2q0.1 0 0.1 0.1 0 0.1 0 0.2v2.9q0 0.3-0.1 0.4-0.2 0.2-0.4 0.2zm-4.2-4.9q0 0 0 0zm-0.1 0q0 0.1 0 0.1 0 0 0 0.1v4.1q0 0.1 0 0.2 0.1 0 0.2 0h4.1q0.1 0 0.2 0 0-0.1 0-0.2v-2.9q0 0 0-0.1 0 0 0 0l-1.2-1.2q-0.1-0.1-0.2-0.1h-2.9q-0.1 0-0.2 0z"/><path fill-rule="evenodd" class="d" d="m179.4 48.9h-2.7v-2.1h2.7zm-2.4-0.3h2.1v-1.5h-2.1z"/><path fill-rule="evenodd" class="d" d="m179 46h-2.3v-2.3h2.3zm-2-0.3h1.7v-1.6l-1.7-0.1z"/><path fill-rule="evenodd" class="d" d="m192.2 48.9q0 0 0 0l-1.6-0.9-1.6 0.9q0 0-0.1 0 0 0-0.1 0 0-0.1 0-0.1 0 0 0-0.1l0.3-1.8-1.3-1.2q-0.1 0-0.1-0.1 0 0 0-0.1 0.1 0 0.1 0 0-0.1 0.1-0.1l1.7-0.2 0.8-1.6q0.1-0.1 0.1-0.1 0 0 0.1 0 0 0 0.1 0 0 0 0 0.1l0.8 1.5 1.8 0.3q0 0 0.1 0 0 0.1 0 0.1 0 0 0 0.1 0 0 0 0.1l-1.3 1.2 0.3 1.8q0 0 0 0.1 0 0-0.1 0 0 0.1-0.1 0.1zm-1.6-1.2q0 0 0.1 0l1.3 0.7-0.2-1.5q0-0.1 0-0.1 0 0 0-0.1l1.1-1.1-1.5-0.2q0 0-0.1 0 0 0 0-0.1l-0.7-1.4-0.7 1.4q0 0.1-0.1 0.1 0 0 0 0l-1.6 0.2 1.2 1.1q0 0.1 0 0.1 0 0 0 0.1l-0.3 1.5 1.4-0.7q0 0 0.1 0z"/><path class="d" d="m202 47.9c-0.3 0-0.6-0.1-0.9-0.4-0.2-0.2-0.4-0.5-0.4-0.8 0-0.3 0.1-0.6 0.3-0.9 0.2-0.2 0.5-0.4 0.8-0.4 0-0.4 0.2-0.8 0.5-1.1 0.3-0.3 0.6-0.5 1-0.5 0.4 0 0.8 0.2 1.1 0.4 0.3 0.3 0.5 0.7 0.5 1.1q0.4-0.1 0.7 0.1 0.4 0.1 0.6 0.4 0.3 0.4 0.3 0.8 0 0.4-0.2 0.8-0.3 0.3-0.7 0.4-0.5 0.1-0.9-0.1 0 0 0-0.1 0-0.1 0-0.1 0-0.1 0.1-0.1 0.1 0 0.1 0 0.3 0.2 0.6 0.1 0.3-0.1 0.5-0.3 0.2-0.3 0.2-0.6 0-0.3-0.2-0.6-0.3-0.2-0.6-0.3-0.3-0.2-0.6-0.1 0 0-0.1 0 0 0 0 0-0.1-0.1-0.1-0.1 0 0 0-0.1 0-0.2-0.1-0.5 0-0.2-0.2-0.4-0.2-0.2-0.4-0.3-0.3-0.1-0.5-0.1-0.3 0-0.5 0.1-0.3 0.1-0.4 0.3-0.2 0.2-0.3 0.5-0.1 0.2 0 0.5 0 0 0 0.1 0 0-0.1 0 0 0.1-0.1 0.1-0.3 0-0.5 0.1-0.2 0.2-0.4 0.4-0.1 0.2-0.1 0.5 0.1 0.3 0.2 0.5 0.2 0.2 0.5 0.3 0.2 0.1 0.5 0 0.1 0 0.1 0 0.1 0.1 0.1 0.1 0 0.1 0 0.1 0 0 0 0.1 0 0 0 0-0.1 0-0.1 0-0.2 0.1-0.3 0.1z"/><path class="d" d="m204.3 47q0 0-0.1 0 0 0 0-0.1l-0.7-0.8-0.7 0.8q0 0 0 0.1-0.1 0-0.1 0 0 0-0.1 0 0 0 0-0.1 0 0-0.1 0 0 0 0-0.1 0 0 0 0 0-0.1 0.1-0.1l0.8-1q0 0 0 0 0.1 0 0.1 0 0 0 0.1 0 0 0 0 0l0.8 1q0.1 0.1 0.1 0.1 0 0.1-0.1 0.1 0 0.1 0 0.1-0.1 0-0.1 0z"/><path class="d" d="m203.5 48.5q-0.1 0-0.1-0.1-0.1 0-0.1-0.1v-2.5q0 0 0.1 0 0-0.1 0.1-0.1 0.1 0 0.1 0.1 0 0 0.1 0v2.5q0 0.1-0.1 0.1 0 0.1-0.1 0.1z"/><path fill-rule="evenodd" class="d" d="m237.8 48.9c-0.6 0-1.2-0.2-1.7-0.5-0.4-0.3-0.8-0.8-1-1.3-0.2-0.5-0.3-1.1-0.2-1.6 0.1-0.6 0.4-1.1 0.8-1.5 0.4-0.4 0.9-0.7 1.5-0.8 0.5-0.1 1.1-0.1 1.6 0.2 0.6 0.2 1 0.5 1.3 1 0.4 0.5 0.5 1 0.5 1.6 0 0.8-0.3 1.5-0.8 2-0.6 0.6-1.3 0.9-2.1 0.9zm0-5.4c-0.5 0-1 0.1-1.4 0.4-0.4 0.3-0.7 0.7-0.9 1.1-0.2 0.5-0.3 1-0.2 1.5 0.1 0.5 0.4 1 0.7 1.3 0.4 0.4 0.8 0.6 1.3 0.7 0.5 0.1 1.1 0.1 1.5-0.1 0.5-0.2 0.9-0.5 1.2-0.9 0.3-0.5 0.4-1 0.4-1.5 0-0.7-0.3-1.3-0.7-1.8-0.5-0.5-1.2-0.7-1.9-0.7z"/><path class="d" d="m238.9 46.1q-0.1 0-0.2 0l-1-0.9-1 0.9q0 0 0 0 0 0-0.1 0 0 0 0 0-0.1 0-0.1 0 0-0.1 0-0.1 0-0.1 0-0.1l1.1-1q0.1-0.1 0.1-0.1 0.1 0 0.1 0.1l1.1 1q0.1 0 0.1 0 0 0.1 0 0.1 0 0.1-0.1 0.1 0 0-0.1 0z"/><path class="d" d="m237.8 47.6q-0.1 0-0.2 0 0-0.1 0-0.1v-2.4q0-0.1 0-0.2 0.1 0 0.1 0 0.1 0 0.1 0 0 0 0.1 0 0 0.1 0 0.1 0 0 0 0.1v2.4q0 0 0 0 0 0.1 0 0.1-0.1 0-0.1 0 0 0-0.1 0z"/><path fill-rule="evenodd" class="d" d="m266.1 49c-0.6 0-1.1-0.1-1.6-0.5-0.5-0.3-0.8-0.7-1.1-1.2-0.2-0.6-0.2-1.2-0.1-1.7 0.1-0.6 0.4-1.1 0.8-1.5 0.4-0.4 0.9-0.7 1.4-0.8 0.6-0.1 1.2 0 1.7 0.2 0.5 0.2 1 0.6 1.3 1.1 0.3 0.4 0.5 1 0.5 1.6 0 0.7-0.3 1.4-0.9 2-0.5 0.5-1.2 0.8-2 0.8zm0-5.4c-0.5 0-1 0.2-1.4 0.4-0.5 0.3-0.8 0.7-1 1.2-0.2 0.5-0.2 1-0.1 1.5 0.1 0.5 0.3 0.9 0.7 1.3 0.3 0.3 0.8 0.6 1.3 0.7 0.5 0.1 1 0 1.5-0.2 0.4-0.2 0.8-0.5 1.1-0.9 0.3-0.4 0.5-0.9 0.5-1.4 0-0.7-0.3-1.4-0.8-1.8-0.5-0.5-1.1-0.8-1.8-0.8z"/><path class="d" d="m267.2 46.4h-2.2q-0.1 0-0.1 0-0.1-0.1-0.1-0.1 0-0.1 0.1-0.2 0 0 0.1 0h2.2q0.1 0 0.1 0 0.1 0.1 0.1 0.2 0 0-0.1 0.1 0 0-0.1 0z"/><path fill-rule="evenodd" class="d" d="m277.4 48.8c-0.6 0-1.1-0.1-1.6-0.4-0.5-0.4-0.8-0.8-1.1-1.3-0.2-0.6-0.2-1.1-0.1-1.7 0.1-0.6 0.4-1.1 0.8-1.5 0.4-0.4 0.9-0.7 1.4-0.8 0.6-0.1 1.2 0 1.7 0.2 0.5 0.2 1 0.6 1.3 1.1 0.3 0.4 0.5 1 0.5 1.6 0 0.7-0.3 1.5-0.9 2-0.5 0.5-1.2 0.8-2 0.8zm0-5.4c-0.5 0-1 0.2-1.4 0.4-0.4 0.3-0.8 0.7-1 1.2-0.2 0.5-0.2 1-0.1 1.5 0.1 0.5 0.3 0.9 0.7 1.3 0.3 0.4 0.8 0.6 1.3 0.7 0.5 0.1 1 0 1.5-0.2 0.5-0.1 0.9-0.5 1.1-0.9 0.3-0.4 0.5-0.9 0.5-1.4 0-0.7-0.3-1.4-0.8-1.8-0.5-0.5-1.1-0.8-1.8-0.8z"/><path class="d" d="m278.5 46.2h-2.2q-0.1 0-0.1 0 0 0 0 0-0.1 0-0.1-0.1 0 0 0 0 0-0.1 0-0.1 0 0 0.1-0.1 0 0 0 0 0 0 0.1 0h2.2q0.1 0 0.1 0 0 0 0.1 0 0 0.1 0 0.1 0 0 0 0.1 0 0 0 0 0 0.1 0 0.1-0.1 0-0.1 0 0 0-0.1 0z"/><path class="d" d="m277.4 47.3q-0.1 0-0.1 0-0.1-0.1-0.1-0.2v-2.2q0 0 0-0.1 0.1 0 0.1 0 0-0.1 0-0.1 0.1 0 0.1 0 0 0 0.1 0 0 0 0 0.1 0 0 0.1 0 0 0.1 0 0.1v2.2q0 0.1-0.1 0.2 0 0-0.1 0z"/><path fill-rule="evenodd" class="d" d="m249.4 48.9c-0.6 0-1.1-0.2-1.6-0.5-0.5-0.3-0.8-0.8-1.1-1.3-0.2-0.5-0.2-1.1-0.1-1.7 0.1-0.5 0.4-1 0.8-1.4 0.4-0.4 0.9-0.7 1.4-0.8 0.6-0.1 1.2-0.1 1.7 0.2 0.5 0.2 1 0.5 1.3 1 0.3 0.5 0.5 1 0.5 1.6q0 0.6-0.2 1.1-0.3 0.5-0.7 0.9-0.4 0.4-0.9 0.7-0.5 0.2-1.1 0.2zm0-5.4c-0.5 0-1 0.1-1.4 0.4-0.4 0.3-0.8 0.7-1 1.1-0.2 0.5-0.2 1-0.1 1.5 0.1 0.5 0.3 1 0.7 1.3 0.3 0.4 0.8 0.6 1.3 0.7 0.5 0.1 1 0.1 1.5-0.1 0.5-0.2 0.9-0.5 1.1-0.9 0.3-0.5 0.5-1 0.5-1.5 0-0.7-0.3-1.3-0.8-1.8-0.5-0.5-1.1-0.7-1.8-0.7z"/><path class="d" d="m249.4 47.2q-0.1 0-0.1 0l-1.1-1q-0.1-0.1-0.1-0.1 0-0.1 0.1-0.1 0-0.1 0-0.1 0.1 0 0.1 0 0 0 0.1 0 0 0 0 0.1l1 0.8 1-0.8q0-0.1 0.1-0.1 0 0 0 0 0.1 0 0.1 0 0 0 0 0.1 0.1 0 0.1 0.1 0 0-0.1 0.1l-1.1 1q0 0 0 0-0.1 0-0.1 0z"/><path class="d" d="m249.4 47.1q-0.1 0-0.1 0-0.1-0.1-0.1-0.1v-2.5q0.1 0 0.1-0.1 0 0 0.1 0 0.1 0 0.1 0 0.1 0.1 0.1 0.1v2.5q0 0 0 0-0.1 0.1-0.1 0.1 0 0 0 0-0.1 0-0.1 0z"/><path class="c" d="m230.7 63.4c0 0-8.7 0.1-19.5 0.1-10.8 0-19.5-0.1-19.5-0.1 0-0.1 8.7-0.1 19.5-0.1 10.8 0 19.5 0 19.5 0.1z"/><ellipse class="d" cx="182.6" cy="106.6" rx=".1" ry="55"/><path fill-rule="evenodd" class="d" d="m180 61.7h-2.9q-0.1 0-0.2 0-0.1 0-0.2-0.1-0.1-0.1-0.1-0.2-0.1-0.1-0.1-0.2v-4q0-0.3 0.2-0.4 0.2-0.2 0.4-0.2h2.1q0.2 0 0.4 0.1l1 1v3.5q0 0.1-0.1 0.2 0 0.1-0.1 0.2-0.1 0.1-0.2 0.1-0.1 0-0.2 0zm-2.9-4.8q-0.1 0-0.2 0.1-0.1 0.1-0.1 0.2v4q0 0.1 0.1 0.1 0.1 0.1 0.2 0.1h2.9q0.1 0 0.2-0.1 0.1 0 0.1-0.1v-3.4l-1-0.8q0-0.1-0.1-0.1z"/><path class="d" d="m178.4 63.3h-2.9q-0.2 0-0.4-0.2-0.2-0.1-0.2-0.4v-3.8q0-0.1 0.1-0.2 0-0.1 0.1-0.2 0.1-0.1 0.2-0.1 0.1-0.1 0.2-0.1h1.2v0.4h-1.2q0 0-0.1 0 0 0-0.1 0 0 0.1 0 0.1-0.1 0.1-0.1 0.1v3.8q0.1 0.1 0.1 0.2 0.1 0.1 0.2 0.1h2.9q0 0 0.1 0 0-0.1 0.1-0.1 0 0 0-0.1 0 0 0-0.1v-1.1h0.4v1.1q-0.1 0.3-0.2 0.4-0.2 0.2-0.4 0.2z"/><path fill-rule="evenodd" class="d" d="m179.8 78.2q-0.1 0-0.1 0l-1.7-1.3-1.6 1.3q0 0-0.1 0-0.1 0-0.1 0-0.1 0-0.2-0.1 0-0.1 0-0.1v-6.1h4.1v6.1q0 0-0.1 0.1 0 0.1-0.1 0.1 0 0-0.1 0zm-1.8-1.6q0.1 0 0.2 0l1.6 1.2v-5.6h-3.5v5.6l1.6-1.2q0 0 0.1 0z"/><path class="d" d="m176.6 92.6q-0.5 0-0.9-0.2-0.4-0.3-0.6-0.8-0.2-0.4-0.1-0.9 0.1-0.5 0.4-0.9l2.5-2.6q0.2-0.2 0.4-0.3 0.3-0.1 0.5-0.1c0.4 0 0.7 0.2 0.9 0.4 0.3 0.2 0.4 0.5 0.4 0.9q0 0.2-0.1 0.5-0.1 0.2-0.3 0.4l-1.3 1.3q-0.2 0.2-0.5 0.2-0.3 0-0.5-0.2-0.1-0.1-0.1-0.2-0.1-0.2-0.1-0.3 0-0.1 0.1-0.3 0-0.1 0.1-0.2l1.1-1 0.2 0.2-1 1.1q-0.1 0.1-0.1 0.2 0 0.1 0 0.1 0 0.1 0.1 0.2 0.1 0.1 0.2 0.1 0.1 0 0.2-0.1l1.4-1.4q0.1-0.1 0.2-0.3 0.1-0.1 0.1-0.3 0-0.2-0.1-0.4-0.1-0.2-0.2-0.3-0.1-0.1-0.3-0.2-0.2-0.1-0.4-0.1-0.2 0-0.3 0.1-0.2 0.1-0.3 0.2l-2.5 2.7c-0.3 0.2-0.4 0.6-0.4 0.9 0 0.4 0.1 0.7 0.4 1 0.2 0.2 0.6 0.4 0.9 0.3 0.4 0 0.7-0.1 1-0.3l2.7-2.7 0.3 0.2-2.8 2.7c-0.3 0.3-0.7 0.5-1.2 0.4z"/><path fill-rule="evenodd" class="d" d="m218.9 47.8h-5.6q0 0-0.1 0 0 0-0.1-0.1 0 0 0-0.1-0.1 0-0.1-0.1v-2.4q0 0 0.1-0.1 0 0 0-0.1 0.1 0 0.1 0 0.1 0 0.1 0h5.6q0 0 0.1 0 0 0 0.1 0 0 0.1 0 0.1 0 0.1 0 0.1v2.4q0 0.1 0 0.1 0 0.1 0 0.1-0.1 0.1-0.1 0.1-0.1 0-0.1 0zm-5.5-0.3h5.4v-2.3h-5.4z"/><path fill-rule="evenodd" class="d" d="m218 45.2h-3.7q0 0-0.1 0 0-0.1-0.1-0.1 0 0 0-0.1 0 0 0-0.1v-1.3q0-0.1 0-0.1 0-0.1 0-0.1 0.1 0 0.1-0.1 0.1 0 0.1 0h3.7q0 0 0.1 0 0 0.1 0.1 0.1 0 0 0 0.1 0 0 0 0.1v1.3q0 0.1 0 0.2-0.1 0.1-0.2 0.1zm-3.6-0.3h3.5v-1.2h-3.5z"/><path class="d" d="m218.3 45.9h-0.5v-0.3h0.5z"/><path class="b" d="m218.1 46.6v2.1q0 0-0.1 0.1h-3.7q-0.1-0.1-0.1-0.1v-2.1q0-0.1 0.1-0.1h3.7q0.1 0 0.1 0.1z"/><path fill-rule="evenodd" class="d" d="m218 48.9h-3.7q0 0-0.1 0 0 0-0.1-0.1 0 0 0 0 0-0.1 0-0.2v-2q0-0.1 0-0.1 0-0.1 0-0.1 0.1-0.1 0.1-0.1 0.1 0 0.1 0h3.7q0.1 0 0.2 0.1 0 0 0 0.2v2q0 0.2 0 0.2-0.1 0.1-0.2 0.1zm-3.6-0.3h3.5v-2h-3.5z"/><path class="d" d="m228.3 50.5c0 0-0.1-2-0.1-4.5 0-2.5 0.1-4.6 0.1-4.6 0.1 0 0.1 2.1 0.1 4.6 0 2.5 0 4.5-0.1 4.5z"/><path class="d" d="m257.8 51.5c0 0-0.1-2.4-0.1-5.3 0-2.9 0.1-5.3 0.1-5.3 0.1 0 0.1 2.4 0.1 5.3 0 2.9 0 5.3-0.1 5.3z"/><path class="f" d="m268.8 81.5h-20.9v-4.6h20.9z"/><path class="f" d="m274.7 75.4h-10.6v-3.2h10.6z"/><path class="f" d="m213.2 111.5h-24.8v-4.6h24.8z"/><path class="f" d="m272.7 145.6h-56.8v-4.7h56.8z"/><path class="c" d="m262 74c0 0-16.1 0.1-35.8 0.1-19.8 0-35.9-0.1-35.9-0.1 0-0.1 16.1-0.2 35.9-0.2 19.7 0 35.8 0.1 35.8 0.2z"/><path class="c" d="m245.4 79.4c0 0-12.3 0.1-27.5 0.1-15.2 0-27.6-0.1-27.6-0.1 0-0.1 12.4-0.1 27.6-0.1 15.2 0 27.5 0 27.5 0.1z"/><path class="c" d="m272.7 74q-1.7 0.1-3.3 0.1-1.7 0-3.3-0.1 1.6-0.2 3.3-0.2 1.6 0 3.3 0.2z"/><path class="c" d="m267.4 79c0 0.1-4 0.1-8.9 0.1-5 0-9 0-9-0.1 0-0.1 4-0.1 9-0.1 4.9 0 8.9 0 8.9 0.1z"/><path class="c" d="m211.5 85.6c0 0-4.8 0.1-10.6 0.1-5.8 0-10.6-0.1-10.6-0.1 0-0.1 4.8-0.1 10.6-0.1 5.8 0 10.6 0 10.6 0.1z"/><path class="c" d="m227.3 85.1c0 0.1-2.4 0.1-5.3 0.1-2.9 0-5.2 0-5.2-0.1 0-0.1 2.3-0.1 5.2-0.1 2.9 0 5.3 0 5.3 0.1z"/><path class="c" d="m264.9 84.9c0 0-7.2 0.1-16.2 0.1-8.9 0-16.1-0.1-16.1-0.1 0-0.1 7.2-0.2 16.1-0.2 9 0 16.2 0.1 16.2 0.2z"/><path class="c" d="m274.1 84.9q-2.7 0.2-5.5 0 2.8-0.3 5.5 0z"/><path class="c" d="m225.2 91.3c0 0.1-7.8 0.1-17.4 0.1-9.7 0-17.5 0-17.5-0.1 0-0.1 7.8-0.1 17.5-0.1 9.6 0 17.4 0.1 17.4 0.1z"/><path class="c" d="m238 91.2c0 0.1-1.9 0.1-4.4 0.1-2.4 0-4.4 0-4.4-0.1 0-0.1 2-0.1 4.4-0.1 2.5 0 4.4 0 4.4 0.1z"/><path class="c" d="m272.4 91.2c0 0.1-6.7 0.1-14.9 0.1-8.2 0-14.9 0-14.9-0.1 0-0.1 6.7-0.1 14.9-0.1 8.3 0 14.9 0 14.9 0.1z"/><path class="c" d="m262 97.8c0 0-16.1 0.1-35.8 0.1-19.8 0-35.9-0.1-35.9-0.1 0-0.1 16.1-0.1 35.9-0.1 19.7 0 35.8 0 35.8 0.1z"/><path class="c" d="m245.4 103.2c0 0-12.3 0.1-27.5 0.1-15.2 0-27.6-0.1-27.6-0.1 0-0.1 12.4-0.1 27.6-0.1 15.2 0 27.5 0 27.5 0.1z"/><path class="c" d="m272.7 97.8q-1.7 0.1-3.3 0.1-1.7 0-3.3-0.1 1.6-0.2 3.3-0.1 1.6-0.1 3.3 0.1z"/><path class="c" d="m267.4 102.8c0 0.1-4 0.1-8.9 0.1-5 0-9 0-9-0.1 0 0 4-0.1 9-0.1 4.9 0 8.9 0.1 8.9 0.1z"/><path class="c" d="m211.5 109.4c0 0.1-4.8 0.1-10.6 0.1-5.8 0-10.6 0-10.6-0.1 0 0 4.8-0.1 10.6-0.1 5.8 0 10.6 0.1 10.6 0.1z"/><path class="c" d="m227.3 108.9c0 0.1-2.4 0.1-5.3 0.1-2.9 0-5.2 0-5.2-0.1 0 0 2.3-0.1 5.2-0.1 2.9 0 5.3 0.1 5.3 0.1z"/><path class="c" d="m264.9 108.7c0 0-7.2 0.1-16.2 0.1-8.9 0-16.1-0.1-16.1-0.1 0-0.1 7.2-0.1 16.1-0.1 9 0 16.2 0 16.2 0.1z"/><path class="c" d="m274.1 108.7q-2.7 0.2-5.5 0 2.8-0.2 5.5 0z"/><path class="c" d="m225.2 115.1c0 0.1-7.8 0.2-17.4 0.2-9.7 0-17.5-0.1-17.5-0.2 0 0 7.8-0.1 17.5-0.1 9.6 0 17.4 0.1 17.4 0.1z"/><path class="c" d="m238 115c0 0.1-1.9 0.1-4.4 0.1-2.4 0-4.4 0-4.4-0.1q2.2-0.1 4.4-0.1 2.2 0 4.4 0.1z"/><path class="c" d="m272.4 115c0 0.1-6.7 0.1-14.9 0.1-8.2 0-14.9 0-14.9-0.1 0 0 6.7-0.1 14.9-0.1 8.3 0 14.9 0.1 14.9 0.1z"/><ellipse class="c" cx="236.8" cy="138" rx="35.8" ry=".1"/><ellipse class="c" cx="245.1" cy="132.6" rx="27.5" ry=".1"/><path class="c" d="m190.3 138q1.6-0.2 3.3-0.1 1.6-0.1 3.2 0.1-1.6 0.2-3.2 0.1-1.7 0.1-3.3-0.1z"/><ellipse class="c" cx="201.9" cy="132.9" rx="11.6" ry=".1"/><ellipse class="c" cx="255.2" cy="120.6" rx="17.4" ry=".1"/><path class="c" d="m224.9 120.7c0 0 2-0.1 4.4-0.1 2.5 0 4.4 0.1 4.4 0.1 0 0.1-1.9 0.2-4.4 0.2-2.4 0-4.4-0.1-4.4-0.2z"/><ellipse class="c" cx="205.4" cy="120.7" rx="14.9" ry=".1"/><path class="d" d="m284.4 161.7h-4.3v-110.2h4.3z"/><path class="e" d="m282.3 71.5c-0.6 0-1.2-0.2-1.6-0.6-0.4-0.4-0.6-1-0.6-1.6v-7.7c0-0.6 0.2-1.2 0.6-1.6 0.4-0.4 1-0.6 1.6-0.6 0.6 0 1.1 0.2 1.5 0.6 0.4 0.4 0.7 1 0.7 1.6v7.8c0 0.5-0.3 1.1-0.7 1.5-0.4 0.4-0.9 0.6-1.5 0.6z"/><path fill-rule="evenodd" class="d" d="m283.8 70.9q0.5-0.5 0.6-1.1 0 0.2-0.1 0.4-0.1 0.4-0.4 0.8-0.4 0.3-0.8 0.5-0.4 0.1-0.8 0.1-0.5 0-0.9-0.1-0.4-0.2-0.7-0.5-0.3-0.4-0.5-0.8 0-0.2-0.1-0.4 0.2 0.6 0.6 1.1c0.4 0.4 1 0.6 1.6 0.6 0.6 0 1.1-0.2 1.5-0.6zm-3.7-1.6v-7.7q0-0.5 0.1-0.9 0.2-0.4 0.5-0.7 0.3-0.4 0.7-0.5 0.4-0.2 0.9-0.2 0.4 0 0.8 0.2 0.5 0.1 0.8 0.5 0.3 0.3 0.4 0.7 0.2 0.4 0.2 0.9v7.8q0 0.2-0.1 0.4 0.1-0.2 0.1-0.4v-7.8c0-0.6-0.3-1.1-0.7-1.6-0.4-0.4-0.9-0.6-1.5-0.6-0.6 0-1.2 0.2-1.6 0.6-0.4 0.5-0.6 1-0.6 1.6v7.8q0 0.2 0 0.4 0-0.2 0-0.5z"/><ellipse class="c" cx="236.8" cy="148.9" rx="35.8" ry=".1"/><ellipse class="c" cx="245.1" cy="143.5" rx="27.5" ry=".1"/><path class="c" d="m190.3 148.9q1.7-0.2 3.3-0.1 1.7-0.1 3.3 0.1-1.6 0.1-3.3 0.1-1.6 0-3.3-0.1z"/><ellipse class="c" cx="201.9" cy="143.8" rx="11.6" ry=".1"/><path class="c" d="m272.8 155.7c0 0.1-18.4 0.1-41.1 0.1-22.8 0-41.2 0-41.2-0.1 0-0.1 18.4-0.1 41.2-0.1 22.7 0 41.1 0 41.1 0.1z"/><path class="f" d="m273.4 79.6q0 0.3-0.2 0.6-0.2 0.3-0.6 0.5-0.3 0.1-0.7 0-0.3 0-0.6-0.3-0.2-0.2-0.3-0.6-0.1-0.4 0.1-0.7 0.1-0.3 0.4-0.5 0.3-0.2 0.7-0.2c0.3 0 0.6 0.1 0.8 0.3 0.2 0.2 0.4 0.5 0.4 0.9z"/><path class="f" d="m277.8 143.4q0 0.4-0.2 0.7-0.2 0.3-0.6 0.4-0.3 0.1-0.7 0.1-0.3-0.1-0.6-0.4-0.2-0.2-0.3-0.6-0.1-0.3 0.1-0.7 0.1-0.3 0.4-0.5 0.3-0.2 0.7-0.2c0.3 0 0.6 0.1 0.8 0.3 0.2 0.3 0.4 0.6 0.4 0.9z"/><path class="f" d="m279.5 73.6q0 0.4-0.2 0.7-0.2 0.3-0.5 0.4-0.4 0.2-0.7 0.1-0.4-0.1-0.6-0.3-0.3-0.3-0.4-0.7 0-0.3 0.1-0.6 0.2-0.4 0.5-0.6 0.3-0.2 0.6-0.2c0.3 0 0.6 0.1 0.9 0.4 0.2 0.2 0.3 0.5 0.3 0.8z"/><rect class="b" x="294.7" y="71.9" width="36.1" height="42.8" rx="2.5"></rect><path class="c" d="m328.3 114.7q0 0 0.4 0 0.5-0.1 1-0.5c0.5-0.3 0.9-0.9 1-1.5q0.1-0.6 0-1.2 0-0.6 0-1.4c0-3.8 0-9.5 0-16.4 0-3.5 0-7.3 0-11.4q0-3 0-6.3v-1.6c0-0.6-0.2-1.1-0.5-1.5-0.4-0.4-0.8-0.7-1.4-0.8q-0.4-0.1-0.8-0.1h-0.9-29.8c-0.7 0-1.3 0.3-1.7 0.7-0.5 0.5-0.7 1.1-0.7 1.7 0 1.3 0 2.6 0 3.9 0 2.6 0 5.1 0 7.6q0 7.5 0 14.4 0 3.4 0 6.7 0 1.6 0 3.2 0 0.8 0 1.6-0.1 0.8 0.2 1.5c0.2 0.4 0.6 0.8 1 1q0.7 0.4 1.4 0.3h2.9 5.4l16.5 0.1h4.5 1.1 0.4-0.4-1.1-4.5-16.5-8.4q-0.3 0-0.7 0-0.6-0.2-1.1-0.5-0.4-0.4-0.7-0.9-0.3-0.8-0.3-1.6v-25.8q0-3.8 0-7.6v-3.9c0-0.7 0.3-1.4 0.8-1.9 0.5-0.5 1.2-0.7 1.9-0.7h29.8 0.9q0.4 0 0.8 0c0.6 0.2 1.1 0.5 1.5 0.9 0.4 0.5 0.6 1.1 0.6 1.7v1.6q0 3.3 0 6.3 0 6.2 0 11.4c0 6.9-0.1 12.5-0.1 16.4q0 0.8 0 1.4 0.1 0.6 0 1.2c-0.2 0.6-0.5 1.2-1.1 1.6q-0.4 0.3-1 0.4-0.2 0-0.3 0z"/><path class="f" d="m328.9 77.9c-2.7-0.5-4.5-3-4.1-5.6 0.5-2.7 3-4.5 5.6-4 2.7 0.4 4.5 2.9 4.1 5.6-0.5 2.6-3 4.4-5.6 4z"/><path class="c" d="m315.6 84.1c0 0-4 0.1-8.9 0.1-4.9 0-8.9-0.1-8.9-0.1 0-0.1 4-0.2 8.9-0.2 4.9 0 8.9 0.1 8.9 0.2z"/><path class="c" d="m315.5 77.7c0 0.1-4 0.2-8.9 0.2-4.9 0-8.9-0.1-8.9-0.2 0-0.1 4-0.2 8.9-0.2 4.9 0 8.9 0.1 8.9 0.2z"/><path class="c" d="m322.8 84q-2.6 0.2-5.2 0 2.6-0.3 5.2 0z"/><path class="c" d="m328.1 83.8q-1.6 0.2-3.3 0 1.7-0.2 3.3 0z"/><path class="c" d="m315.6 86.7c0 0.1-4 0.1-8.9 0.1-4.9 0-8.9 0-8.9-0.1 0 0 4-0.1 8.9-0.1 4.9 0 8.9 0.1 8.9 0.1z"/><path class="c" d="m328.1 86.7c0 0-2.3 0.1-5.2 0.1-3 0-5.3-0.1-5.3-0.1 0-0.1 2.3-0.2 5.3-0.2 2.9 0 5.2 0.1 5.2 0.2z"/><ellipse class="c" cx="319.3" cy="91.8" rx="8.9" ry=".1"/><path class="c" d="m303.2 91.9q2.6-0.2 5.2 0-2.6 0.2-5.2 0z"/><path class="c" d="m297.8 92.1q1.7-0.3 3.4 0-1.7 0.2-3.4 0z"/><path class="c" d="m310.4 89.1c0 0 4-0.1 8.9-0.1 4.9 0 8.8 0.1 8.8 0.1 0 0.1-3.9 0.1-8.8 0.1-4.9 0-8.9 0-8.9-0.1z"/><path class="c" d="m297.8 89.2c0-0.1 2.4-0.1 5.3-0.1 2.9 0 5.3 0 5.3 0.1 0 0.1-2.4 0.1-5.3 0.1-2.9 0-5.3 0-5.3-0.1z"/><path class="c" d="m315.6 95.3c0 0.1-4 0.1-8.9 0.1-4.9 0-8.9 0-8.9-0.1 0 0 4-0.1 8.9-0.1 4.9 0 8.9 0.1 8.9 0.1z"/><path class="c" d="m322.8 95.3q-2.6 0.2-5.2 0 2.6-0.3 5.2 0z"/><path class="c" d="m328.1 95.1q-1.6 0.2-3.3 0 1.7-0.3 3.3 0z"/><path class="c" d="m315.6 98c0 0.1-4 0.1-8.9 0.1-4.9 0-8.9 0-8.9-0.1 0 0 4-0.1 8.9-0.1 4.9 0 8.9 0.1 8.9 0.1z"/><path class="c" d="m328.1 97.9c0 0.1-2.3 0.2-5.2 0.2-3 0-5.3-0.1-5.3-0.2 0 0 2.3-0.1 5.3-0.1 2.9 0 5.2 0.1 5.2 0.1z"/><path class="c" d="m310.4 103.1c0-0.1 4-0.1 8.9-0.1 4.9 0 8.8 0 8.8 0.1 0 0-3.9 0.1-8.8 0.1-4.9 0-8.9-0.1-8.9-0.1z"/><path class="c" d="m303.2 103.2q2.6-0.3 5.2 0-2.6 0.2-5.2 0z"/><path class="c" d="m297.8 103.4q1.7-0.3 3.4 0-1.7 0.2-3.4 0z"/><path class="c" d="m310.4 100.4c0-0.1 4-0.1 8.9-0.1 4.9 0 8.8 0 8.8 0.1 0 0.1-3.9 0.1-8.8 0.1-4.9 0-8.9 0-8.9-0.1z"/><path class="c" d="m297.8 100.5c0-0.1 2.4-0.1 5.3-0.1 2.9 0 5.3 0 5.3 0.1 0 0-2.4 0.1-5.3 0.1-2.9 0-5.3-0.1-5.3-0.1z"/><path class="c" d="m327.6 110.6c0 0.1-2.5 0.1-5.6 0.1-3.1 0-5.6 0-5.6-0.1 0 0 2.5-0.1 5.6-0.1 3.1 0 5.6 0.1 5.6 0.1z"/><path class="b" d="m328.6 74.8l-0.7-0.7 3.1-3.1 0.7 0.7z"/><path class="b" d="m331.7 74.1l-0.7 0.7-3.1-3.1 0.7-0.7z"/><rect class="b" x="294.7" y="127.7" width="36.1" height="22.6" rx="2.5"></rect><path class="c" d="m315.5 133c0 0.1-4 0.2-8.9 0.2-4.9 0-8.9-0.1-8.9-0.2 0-0.1 4-0.3 8.9-0.3 4.9 0 8.9 0.1 8.9 0.3z"/><path class="c" d="m328.3 150.3q0.5 0 1.1-0.3 0.6-0.3 1-0.9 0.2-0.4 0.3-0.8 0.1-0.5 0-1c0-2.9 0-7 0-12.1q0-1.9 0-4 0-0.5 0-1.1c0-0.5-0.2-1-0.5-1.4-0.4-0.4-0.8-0.7-1.4-0.8q-0.5-0.1-1.1-0.1h-30.4q-0.8 0-1.4 0.4-0.5 0.4-0.8 1-0.3 0.7-0.2 1.4v1.4q0 2.9 0 5.6 0 2.8 0 5.4v2.7q0 0.6 0 1.3-0.1 0.6 0 1.2 0.1 0.6 0.5 1.1 0.4 0.5 0.9 0.7 0.6 0.2 1.2 0.2h1.2 4.7 8.3 12.1l3.3 0.1h0.9 0.3-0.3-0.9-3.3-12.1-8.3-5.9q-0.7 0-1.3-0.2-0.6-0.3-1-0.8-0.4-0.5-0.5-1.1-0.1-0.7-0.1-1.3v-16.3q0-0.4 0.1-0.7 0-0.4 0.2-0.8 0.3-0.7 0.9-1.1c0.5-0.3 1-0.4 1.5-0.4h22 4.9 3.5q0.6 0 1.2 0.1 0.5 0.1 1 0.5 0.4 0.3 0.7 0.8 0.3 0.5 0.3 1.1 0 0.6 0 1.1 0 2.1 0 4c0 5.1 0 9.2-0.1 12.1q0.1 0.5 0 1-0.1 0.5-0.4 0.8-0.4 0.6-1 1-0.4 0.1-0.8 0.2-0.3 0-0.3 0z"/><circle class="f" cx="329.6" cy="128.9" r="4.9"/><path class="c" d="m315.6 139.9c0 0-4 0.1-8.9 0.1-4.9 0-8.9-0.1-8.9-0.1 0-0.1 4-0.2 8.9-0.2 4.9 0 8.9 0.1 8.9 0.2z"/><path class="c" d="m322.8 139.8q-2.6 0.2-5.2 0 2.6-0.2 5.2 0z"/><path class="c" d="m328.1 139.6q-1.6 0.2-3.3 0 1.7-0.2 3.3 0z"/><path class="c" d="m315.6 142.5c0 0.1-4 0.1-8.9 0.1-4.9 0-8.9 0-8.9-0.1 0 0 4-0.1 8.9-0.1 4.9 0 8.9 0.1 8.9 0.1z"/><path class="c" d="m328.1 142.5c0 0-2.3 0.1-5.2 0.1-3 0-5.3-0.1-5.3-0.1 0-0.1 2.3-0.2 5.3-0.2 2.9 0 5.2 0.1 5.2 0.2z"/><ellipse class="c" cx="319.3" cy="144.9" rx="8.9" ry=".1"/><path class="c" d="m297.8 145c0-0.1 2.4-0.1 5.3-0.1 2.9 0 5.3 0 5.3 0.1 0 0.1-2.4 0.1-5.3 0.1-2.9 0-5.3 0-5.3-0.1z"/><path class="b" d="m328.6 130.6l-0.7-0.7 3.1-3.1 0.7 0.7z"/><path class="b" d="m331.7 129.9l-0.7 0.7-3.1-3.1 0.7-0.7z"/><rect class="b" x="294.7" y="35.2" width="36.1" height="22.6" rx="2.5"></rect><path class="c" d="m315.5 40.5c0 0.1-4 0.2-8.9 0.2-4.9 0-8.9-0.1-8.9-0.2 0-0.1 4-0.2 8.9-0.2 4.9 0 8.9 0.1 8.9 0.2z"/><path class="c" d="m328.3 57.8q0.5 0 1.1-0.2 0.6-0.4 1-1 0.2-0.3 0.3-0.8 0.1-0.5 0-1c0-2.8 0-7 0-12.1q0-1.9 0-4 0-0.5 0-1c0-0.6-0.2-1.1-0.5-1.5-0.4-0.4-0.8-0.7-1.4-0.8q-0.5-0.1-1.1-0.1h-30.4q-0.7 0-1.3 0.4-0.6 0.4-0.9 1.1-0.3 0.6-0.2 1.3 0 0.7 0 1.4 0 2.9 0 5.7 0 2.7 0 5.4 0 1.3 0 2.6v1.3q-0.1 0.6 0 1.2 0.1 0.6 0.5 1.1 0.4 0.5 0.9 0.7 0.6 0.3 1.2 0.2h5.9 8.3l12.2 0.1h3.2 0.9 0.3-0.3-0.9-3.2-12.2-8.3-5.9q-0.7 0.1-1.3-0.2-0.6-0.2-1-0.7-0.4-0.6-0.5-1.2-0.1-0.7-0.1-1.3v-16.3q0-0.4 0-0.7c0.1-0.7 0.4-1.2 0.9-1.7 0.5-0.4 1.1-0.6 1.8-0.6h22 4.9 3.5q0.6 0 1.2 0.1 0.5 0.1 1 0.5 0.5 0.3 0.7 0.9 0.3 0.5 0.3 1 0 0.6 0 1.1 0 2.1 0 4c0 5.1-0.1 9.3-0.1 12.1q0.1 0.5 0 1-0.1 0.6-0.5 1.1-0.4 0.4-0.9 0.7-0.4 0.2-0.8 0.2-0.2 0-0.3 0z"/><circle class="f" cx="329.6" cy="36.4" r="4.9"/><path class="c" d="m315.6 47.4c0 0-4 0.1-8.9 0.1-4.9 0-8.9-0.1-8.9-0.1 0-0.1 4-0.1 8.9-0.1 4.9 0 8.9 0 8.9 0.1z"/><path class="c" d="m322.8 47.3q-2.6 0.2-5.2 0 2.6-0.2 5.2 0z"/><path class="c" d="m328.1 47.1q-1.6 0.2-3.3 0 1.7-0.2 3.3 0z"/><path class="c" d="m315.6 50.1c0 0-4 0.1-8.9 0.1-4.9 0-8.9-0.1-8.9-0.1 0-0.1 4-0.2 8.9-0.2 4.9 0 8.9 0.1 8.9 0.2z"/><path class="c" d="m328.1 50c0 0-2.3 0.1-5.2 0.1-3 0-5.3-0.1-5.3-0.1 0-0.1 2.3-0.1 5.3-0.1 2.9 0 5.2 0 5.2 0.1z"/><path class="c" d="m310.4 52.5c0-0.1 4-0.2 8.9-0.2 4.9 0 8.8 0.1 8.8 0.2 0 0-3.9 0.1-8.8 0.1-4.9 0-8.9-0.1-8.9-0.1z"/><path class="c" d="m297.8 52.5c0 0 2.4-0.1 5.3-0.1 2.9 0 5.3 0.1 5.3 0.1 0 0.1-2.4 0.1-5.3 0.1-2.9 0-5.3 0-5.3-0.1z"/><path class="b" d="m328.6 38.1l-0.7-0.6 3.1-3.1 0.6 0.7z"/><path class="b" d="m331.7 37.5l-0.7 0.6-3.1-3 0.7-0.7z"/><path class="f" d="m289.1 143.6h-12.5v-0.4h12.5c0.7 0 1.4-0.3 1.8-0.8 0.5-0.5 0.8-1.1 0.8-1.8v-0.1c0-0.8 0.3-1.6 0.9-2.1 0.5-0.6 1.3-0.9 2.1-0.9v0.4c-0.7 0-1.3 0.3-1.8 0.8-0.5 0.5-0.8 1.1-0.8 1.8v0.1c0 0.8-0.3 1.6-0.9 2.1-0.5 0.6-1.3 0.9-2.1 0.9z"/><path class="f" d="m294.7 95.6h-8.1c-1 0-1.9-0.4-2.6-1.1-0.6-0.7-1-1.6-1-2.5v-9.1c0-0.8-0.3-1.6-0.9-2.2-0.6-0.6-1.4-0.9-2.3-0.9h-7.6v-0.5h7.6c1 0 1.9 0.4 2.6 1.1 0.6 0.7 1 1.6 1 2.5v9.1c0 0.8 0.3 1.6 0.9 2.2 0.6 0.6 1.4 0.9 2.3 0.9h8.1z"/><path class="f" d="m278.5 73.6h-0.4v-13c0-0.9 0.3-1.7 0.9-2.3 0.6-0.6 1.4-0.9 2.3-0.9h7.5c0.7 0 1.4-0.3 1.9-0.8 0.6-0.5 0.9-1.2 0.9-2v-4.3c0-0.9 0.3-1.7 0.9-2.3 0.6-0.6 1.4-0.9 2.2-0.9v0.4c-0.7 0-1.4 0.3-1.9 0.8-0.5 0.5-0.8 1.2-0.8 2v4.3c0 0.9-0.4 1.7-1 2.3-0.5 0.6-1.4 0.9-2.2 0.9h-7.5c-0.7 0-1.4 0.3-2 0.8-0.5 0.5-0.8 1.2-0.8 2z"/><path class="c" d="m-10 303.8l50.7-0.3 50.6-0.1 101.2-0.1 101.2 0.1 50.7 0.1 50.6 0.3-50.6 0.2-50.7 0.1-101.2 0.2-101.2-0.2-50.6-0.1z"/><path class="c" d="m94.4 83.6c0 0-7.3-7.8-13.8-6-8.8 2.5-15.8 14.1-14.2 46.9 2.5 52.4-19.3 77.4-42.6 72.9-20.9-3.9-20.6-31.3 3.4-63.8 19.8-27 16-68.7 43.6-76 12.8-3.5 26.2 5.6 32.4 19.4z"/><path class="c" d="m67.8 121.9c0.6 5.2 1.2 10.3 1.5 15.5 0.7 10.4 0.6 21.1-2.1 31.4-1.4 5.2-3.7 10.1-6.9 14.5q-1.3 1.6-2.7 3l-1.5 1.4-1.5 1.4q-3.1 2.7-6.6 4.7-3.6 2.1-7.5 3.3-3.9 1.2-8 1.4c-2.7 0.1-5.4-0.1-8-0.7-2.7-0.5-5.2-1.5-7.4-3q1.7 1.1 3.6 1.5 1.9 0.6 3.9 0.9c2.6 0.4 5.2 0.4 7.8 0.1 5.2-0.5 10.2-2.3 14.6-5.1 4.4-2.8 8.3-6.2 11.4-10.3 3-4.1 5.2-8.8 6.4-13.8 1.3-4.9 2.1-10 2.4-15.1q0.5-7.8 0.2-15.5c-0.1-5.2-0.5-10.3-0.8-15.5-0.3-5.2-0.7-10.4-0.6-15.6 0.4 5.2 1.1 10.3 1.8 15.5z"/><path class="c" d="m97.1 69c-2.2-2.9-4.7-5.5-7.5-7.7-2.8-2.2-6.1-3.7-9.6-4.4-3.4-0.7-7-0.7-10.4 0.2q-2.6 0.7-5 1.8-2.4 1-4.6 2.5c-2.7 2.2-5.1 4.7-7 7.7q-2.8 4.5-4.6 9.5c-2.6 6.6-4.4 13.7-6.5 20.6q-2.9 10.6-7.5 20.7c-3.3 6.5-7.1 12.8-11.4 18.7-4.1 6-8.4 11.8-11.6 18.2-1.8 3.2-3.1 6.6-3.9 10l-0.6 2.7c-0.1 0.9-0.2 1.8-0.3 2.6l-0.1 1.3v1.4l0.1 2.7c-1.2-7.2 0.4-14.7 3.5-21.3 3.1-6.6 7.2-12.7 11.1-18.9 3.9-6.1 7.8-12.1 10.8-18.6q4.3-9.9 7.2-20.3c2.1-6.9 3.9-14 6.7-20.8q2-5.3 5-10c2.2-3.1 4.8-5.8 7.9-8q2.4-1.5 5-2.6 2.6-1 5.4-1.7c3.6-0.8 7.4-0.7 11.1 0.2 3.6 0.9 6.9 2.7 9.7 5.2 2.8 2.4 5.2 5.2 7.1 8.3z"/><path class="g" d="m94.3 87.7c0 0-5.7-2.7-4.7-6 1-3.2 13.6-8.9 15.2-8.5 1.7 0.4 3.7 3.7 3.7 6.4z"/><path class="h" d="m114.9 176.6c17.3 24.3 38.9 55.9 41.2 58.5 2.3 2.6 46.9 6.1 68.2 10.6 6.4 1.3 10.9 2.7 11.9 4 4.4 6-10.6 50.7-17.5 49.7-2.8-0.4-6.7-1-11.4-1.7-15.3-2.5-30.4-5.9-45.2-10.3-13.8-4.3-27.2-9.9-36.4-17.1-11.5-9-22.3-43.6-29.6-86.9-4-24.1 6.7-23.9 18.8-6.8z"/><path class="h" d="m220.8 245.6c0 0 26.4-1 50.9 6 8.4 2.4 31.8 24.8 26.6 31.9q-0.4 0.6-1 0.9-0.5 0.4-1.2 0.4c2.4 3.8 3.3 7.4 0.9 9.7-1.4 1.3-3.3 1.4-5.5 0.6 0.9 2 0.7 3.8-1 5-3.1 2.1-10.4-1.9-17.3-6.6 4.2 4 7 8 4.3 10-7 5.3-21.3-7-32.1-13.9-5.6-3.6-14.1-7.8-16-4.1-1.1 2.2 2.9 5.9 6.2 7.5 6.3 2.9 15.4 6.9 13.5 10.9-2.6 5.8-18.5 0.9-24-1-7.3-2.4-19.1-8.7-19.9-9.2 0 0 5.6-40.8 15.6-48.1z"/><path class="c" d="m242.6 272.2c5.9 1.2 11.4 3.6 16.3 7.1 5.6 4.3 9.9 9.9 15.1 14.6 0.1 0.1-0.1 0.3-0.3 0.2-2.4-2.4-5-4.6-7.5-7-2.5-2.4-4.9-4.6-7.5-6.7-4.7-3.9-10.2-6.7-16.1-8.1-0.1 0 0-0.1 0-0.1z"/><path class="c" d="m247.7 261.9c6.4 2.1 13 4.2 18.9 7.5 6.5 3.7 11.4 9.4 16.3 14.9q4.3 5 8.5 10.2c0.1 0.1-0.1 0.3-0.2 0.2q-7.4-8.6-15.3-16.6c-4.8-5.1-10.6-9.1-17-11.9-3.6-1.6-7.4-2.9-11.2-4.1q0 0 0-0.1 0 0 0 0 0 0 0 0 0 0 0 0 0 0 0 0 0 0 0 0 0-0.1 0-0.1 0 0 0 0z"/><path class="c" d="m255.1 253.1c6.2 1.5 11.7 2.9 17.2 6.5 7.2 4.8 14 12.7 16.4 15.5 2.6 3.1 5.2 6.3 7.6 9.5 0.1 0.1-0.1 0.3-0.2 0.1q-8.6-10.5-18.4-19.9c-3.1-3-6.6-5.6-10.5-7.5q-5.9-2.6-12.1-4.2c0 0-0.1 0 0 0z"/><path class="g" d="m93.7 183.5c-2.1-17.9 3.4-27.5 17.2-15.2 13.7 12.2 29.8 38.2 29.8 38.2l-37.7 22.3c0 0-7.2-27.5-9.3-45.3z"/><path fill-rule="evenodd" class="b" d="m115.4 217.5q-0.4 2.2-1.4 4.3-0.1 0.3-0.3 0.7l-1.5 0.9q0.3-1.1 0.8-2.1 0.9-2.1 2.4-3.8zm-15.4-19.9q-2-1-4.3-1.4c2.4 2 5.2 3.3 8.2 3.8q-1.8-1.5-3.9-2.4zm13-22q0.7 2.1 2.1 4c-0.3-3-1.4-6-3.2-8.4q0.2 2.3 1.1 4.4zm17.3 17.9q-1.9 0.3-3.7 0.9-2.1 0.8-4 2.2 2.3-0.2 4.5-1 1.7-0.7 3.3-1.7 0-0.2-0.1-0.4z"/><path class="c" d="m135 201.3c-5.7 3.6-22.9 14.3-31.9 19-0.1 0.1-0.2-0.2-0.2-0.2 9.7-7.2 25.9-16.1 31.9-19.2 0.1-0.1 0.3 0.3 0.2 0.4z"/><path class="c" d="m137.6 208.4l-34.6 20.4c0 0-7.2-27.5-9.3-45.3-1.4-11.6 0.5-19.6 5.6-20.6z"/><path class="g" d="m139.4 303.7h-124.6c0 0 27.1-104.5 52.1-134q0.9-1 1.7-1.9c0.2-0.1 0.3-0.2 0.4-0.3 1.9-2.1 4.2-3.9 6.7-5.2q0.6-0.4 1.3-0.7c9.7-4.4 19.9-0.7 27.2 5.6 2.3 2 28.8 36.3 31.1 49.4 2 11.6-5.8 24-5.8 24z"/><path fill-rule="evenodd" class="b" d="m84.4 176.2q-0.4 2.3-1.4 4.3-0.9 2.1-2.4 3.9 0.4-2.3 1.4-4.3 0.9-2.1 2.4-3.9zm-16.4 54.7c-0.5 3-1.8 5.8-3.7 8.2q0.3-2.3 1.3-4.4 0.9-2.1 2.4-3.8zm-15.4 61c-0.5 3.1-1.8 5.9-3.7 8.2q0.3-2.2 1.3-4.3 0.9-2.1 2.4-3.9zm62.8-74.4q-0.4 2.2-1.4 4.3-0.9 2.1-2.4 3.8 0.4-2.2 1.4-4.3 0.9-2.1 2.4-3.8zm17.6 45.7q-0.7 1.2-1.6 2.3 0.4-2.3 1.3-4.3zm-45.3 22.6q-0.4 2.2-1.4 4.3-0.9 2.1-2.4 3.9 0.4-2.3 1.4-4.4 0.9-2.1 2.4-3.8zm12.3-88.2q2.1 1 3.9 2.4c-3-0.5-5.9-1.8-8.2-3.7q2.3 0.3 4.3 1.3zm8.3 49.6q2.1 1 3.8 2.4-2.3-0.3-4.3-1.3-2.1-0.9-3.9-2.4 2.3 0.3 4.4 1.3zm3 54.3q2.1 0.9 3.8 2.4c-3-0.5-5.8-1.8-8.2-3.8q2.3 0.4 4.4 1.4zm-60.3-45.7q2.1 0.9 3.8 2.4-2.2-0.4-4.3-1.4-2.1-0.9-3.9-2.4 2.3 0.4 4.4 1.4zm81-24.5q0 0 0 0 0 0 0 0zm0 0q0.6 0.8 1.1 1.7-0.2 0.7-0.5 1.3-0.5-1.4-0.6-3zm-2.4 57.9q-0.8-2.1-1-4.4 1.3 1.8 2.1 4 0.8 2.1 1 4.4-1.3-1.8-2.1-4zm-64.6-83.9q-0.8-2.1-1-4.4 1.3 1.8 2.1 4 0.8 2.1 1 4.4-1.3-1.9-2.1-4zm19.8 51.3q-0.8-2.2-1-4.5 1.3 1.9 2.1 4 0.8 2.2 1 4.5-1.3-1.9-2.1-4zm-54.8 16.4q1.4 1.9 2.2 4 0.8 2.2 1 4.5-1.4-1.9-2.1-4-0.9-2.2-1.1-4.5zm73.4 3.2q1.8-1.4 4-2.1 2.1-0.9 4.4-1-1.8 1.3-4 2.1-2.1 0.8-4.4 1zm-63.7-41.5q-1.8 1.4-4 2.1l-0.6 0.2q0.2-0.7 0.5-1.4 2-0.7 4.1-0.9zm85.6-38.7q-1.3 0.4-2.7 0.5 1-0.8 2.1-1.3 0.3 0.4 0.6 0.8zm-64.1 80.2q1.9-1.4 4-2.1 2.2-0.9 4.5-1-1.9 1.3-4 2.1-2.2 0.8-4.5 1zm-38.7 20.5q-1.9 1.3-4 2.1-1.3 0.5-2.7 0.8 0.2-0.5 0.3-1 1-0.5 2-0.9 2.1-0.8 4.4-1zm63.6-77.2q-2.1 0.8-4.4 1 1.8-1.3 4-2.1 2.1-0.8 4.4-1-1.8 1.3-4 2.1z"/><path class="c" d="m110.9 236.6c-5.4 1-10.6 2.4-15.8 3.8-2.6 0.7-5.2 1.5-7.8 2.2q-1.9 0.4-3.7 0.7-2 0.2-4 0.1 0 0 0 0 0-0.1 0-0.1 0 0 0-0.1 0 0 0 0 2.1-0.1 4.1-0.8 1.9-0.5 3.8-1.2c2.5-0.8 5-1.6 7.6-2.3q7.7-2 15.7-2.7c0.3-0.1 0.3 0.4 0.1 0.4z"/><path class="c" d="m124 241.1c-4.4 0-8.8 0.2-13.2 0.4q-3.3 0.1-6.6 0.2l-3.3 0.1c-1 0.1-2.2 0-3.2 0.1-0.1 0-0.2-0.2 0-0.2 1.1-0.2 2.3-0.5 3.4-0.6 1-0.2 2.1-0.3 3.1-0.4 2.2-0.2 4.4-0.5 6.6-0.5q6.6-0.1 13.2 0.6c0.2 0 0.2 0.3 0 0.3z"/><path class="h" d="m79.4 189.6c-5.8 31.4-12.4 49.9-11.2 52.2 1 2.1 51.3 3.7 58.2 4.5 8.3 1 24.2 52 16.4 52-17 0-112.6-0.2-127.8-14.9-15.2-14.6 29-90.7 48.8-111.9 8.7-9.3 21.8-15.5 15.6 18.1z"/><path class="h" d="m154 235.8c17.2-2.4 22-0.3 35.4-10.1 8.8-6.3 16.6-3.4 11.6 6.7-8.2 16.6-29.7 24.3-38 24.8z"/><path class="h" d="m108.3 252.4c0 0 19.4-10.7 37.4-15.1 12.5-3 41.7-7.8 67.1 21 8 9.1 8.4 21.9-3.9 14.2-9.5-5.9-14.6-11.9-21-13.6 0 0 3.5 18.2-3.3 24.2q-8.9 8-18.9 14.7-1.6-1.6-3-3.3c0 0-6.9 5.1-19.9 3.9z"/><path class="h" d="m158.1 236.3c6 3.1 18.5 9.9 26.8 19.1 9.3 10.1 24.3 32.2 16.8 38.9-5.6 5-12-3-12-3 0 0 4.3 10.5-1.7 13.8-5.5 3.1-10.1-3.3-10.1-3.3 0 0 1.5 6.8-4.3 8.7-7 2.4-9.1-12.2-18.2-16-2.1-0.8 2.7-58.2 2.7-58.2z"/><path class="c" d="m172.3 263.5c5.1 3.9 14.5 15.6 17.1 27.7 0.1 0.3-0.1 0.5-0.2 0.3-4.5-10-10.2-19.3-17-27.9-0.1-0.1 0-0.2 0.1-0.1z"/><path class="c" d="m162.6 273c4.1 3.8 13.2 16.3 15.5 28.7 0 0.3-0.2 0.5-0.3 0.2-4-10.1-9.1-19.8-15.3-28.8-0.1-0.1 0-0.2 0.1-0.1z"/><path class="c" d="m146.6 298.5q3.1 0 6.1-0.4c2-0.3 4-0.8 5.9-1.7q3 2.8 5.4 6 1.2 1.7 2.1 3.5 0.9 1.7 2.4 3.1c0.9 0.9 2.2 1.5 3.5 1.6 1.3 0 2.5-0.5 3.5-1.4 0.9-0.9 1.5-2.1 1.7-3.4q0.5-1.9 0.3-3.9v-0.8l0.5 0.6c1.3 1.8 3.1 3.1 5.2 3.7 1 0.3 2.1 0.3 3.1 0 1.1-0.2 2-0.8 2.7-1.5 1.4-1.6 1.7-4 1.5-6.1q-0.2-3.3-1.3-6.4l-0.6-1.7 1.1 1.4c1.4 1.7 3.2 3.1 5.2 4 1 0.4 2.1 0.5 3.2 0.4 1.1-0.1 2.1-0.5 2.9-1.2 0.9-0.6 1.5-1.5 1.8-2.6q0.5-1.6 0.4-3.2c-0.1-2.2-0.6-4.4-1.4-6.5-1.6-4.3-3.7-8.3-6.2-12q-3.7-5.7-8.1-10.9l-0.9-1.1 1.4 0.4q2.3 0.8 4.5 2.1 2.1 1.2 4.1 2.6c2.6 1.8 5.1 3.9 7.7 5.8 2.4 1.9 5.1 3.6 8 5 1.4 0.5 3 1 4.2 0.2 1.3-0.7 1.6-2.2 1.5-3.7q-0.1-2.4-1-4.5-1-2.2-2.4-4.1-2.7-3.9-6.2-7.3-3.4-3.3-7.2-6.2-3.8-3-7.9-5.4l-0.4-0.2 0.3-0.4c2.9-2.8 5.4-6 7.3-9.6 1-1.7 1.5-3.7 1.6-5.6 0-1-0.3-2-0.8-2.8q-0.3-0.6-0.9-1-0.6-0.4-1.3-0.6c-1.9-0.3-3.9 0.1-5.6 1.1q-2.7 1.3-5.3 3c-3.4 2.1-6.7 4.7-10.7 6q-2.9 0.8-6 1.2c-2 0.3-4 0.5-6 0.7-4 0.5-8.1 1-12.1 1.7-8.1 1.2-16 3.2-23.7 6.1 7.6-3 15.5-5.1 23.6-6.4 4-0.7 8.1-1.3 12.1-1.8l6-0.8q3-0.4 5.9-1.2c3.9-1.3 7.1-3.8 10.6-6 1.7-1.2 3.4-2.2 5.3-3.2 1.8-1 4-1.4 6.1-1.1 1.1 0.3 2 1 2.6 1.9 0.5 0.9 0.8 2 0.8 3.1 0 2.1-0.5 4.1-1.5 6-2 3.6-4.5 6.9-7.5 9.8v-0.6q4.2 2.4 8 5.3 3.8 3 7.3 6.4 3.5 3.3 6.3 7.3 1.5 2 2.5 4.2c0.6 1.5 1 3.2 1.1 4.8q0.1 1.3-0.3 2.6c-0.2 0.9-0.8 1.6-1.6 2.1-0.8 0.4-1.7 0.6-2.6 0.5q-1.3-0.2-2.5-0.7c-2.9-1.3-5.7-3.1-8.3-5.1-2.6-1.9-5-4-7.6-5.8q-2-1.4-4-2.6-2-1.2-4.2-2l0.4-0.7q4.4 5.3 8.1 11c2.5 3.8 4.6 7.9 6.2 12.2 0.8 2.2 1.3 4.4 1.5 6.7q0 1.8-0.5 3.5c-0.3 1.2-1 2.2-2 3-0.9 0.7-2.1 1.1-3.3 1.3-1.2 0.1-2.4-0.1-3.5-0.5-2.1-0.9-4-2.4-5.4-4.2l0.5-0.4q1.1 3.3 1.4 6.6 0.1 1.8-0.2 3.4c-0.2 1.2-0.7 2.3-1.5 3.2-0.8 0.8-1.8 1.4-3 1.7-1.1 0.3-2.3 0.3-3.4-0.1-2.2-0.7-4.1-2-5.5-3.9l0.5-0.2q0.2 2.1-0.3 4.1c-0.3 1.4-1 2.7-2 3.6-1 1-2.4 1.5-3.8 1.4-1.4-0.1-2.7-0.7-3.7-1.6q-1.5-1.5-2.4-3.3-1-1.8-2.1-3.4-2.3-3.3-5.3-6.1h0.1c-1.9 0.8-3.9 1.3-5.9 1.6q-3 0.4-6.1 0.4z"/><path class="g" d="m61.7 172.5c12.4-13 23.4-14.9 22.7 3.5-0.7 18.4-10.4 47.4-10.4 47.4l-41.2-14.8c0 0 16.5-23.2 28.9-36.1z"/><path fill-rule="evenodd" class="b" d="m84.4 176.2q-0.4 2.3-1.4 4.3-0.9 2.1-2.4 3.9 0.4-2.3 1.4-4.3 0.9-2.1 2.4-3.9zm-43 31q-0.3 2.1-1.2 4l-1.1-0.3q0.9-2.1 2.3-3.7zm22.6-6.3q1.4 1.9 2.1 4 0.8 2.2 1 4.4-1.3-1.8-2.1-4-0.8-2.1-1-4.4zm-6.9-17.2q-1.9 1.4-4 2.1-1.8 0.7-3.7 1l0.7-0.9q1.2-0.7 2.6-1.2 2.1-0.8 4.4-1z"/><path class="c" d="m74.3 215.6c-6.4-2.1-25.6-8.5-35-12.4-0.1 0 0-0.3 0.1-0.3 11.7 2.9 28.9 9.7 35.1 12.3 0.2 0.1 0 0.5-0.2 0.4z"/><path class="c" d="m80.9 204.3q-0.5 1.4-1.2 2.6-2 8.5-5 16.6-0.1 0.2-0.3 0.3-0.2 0.1-0.4 0c-1.1-0.4-2.2-0.7-3.4-1q0 0 0-0.1-0.1 0-0.1-0.1 0.1 0 0.1-0.1 0 0 0.1 0 1.6 0.2 3.1 0.3c2.6-9.6 5.6-19 8.4-28.5q0-0.1 0-0.1 0 0 0 0 0.1 0 0.1 0 0 0 0 0.1-0.8 4.8-1.9 9.7 0.9-2.2 2-4.4c0-0.1 0.1 0 0.1 0q-0.6 2.4-1.6 4.7z"/><path class="h" d="m87.9 147.7q0.3-1.1 0.6-2.2c0.2-0.8 0.4-1.5 0.6-2.2q0.4-1.4 0.8-2.8c0.1-0.3 0.3-0.7 0.3-1q0.2-0.4 0.3-0.9c1.8-6.1 3.3-11 3.3-11l2.8 2.2 19.4 16.8-6.7 17.5-0.4 1.3c0 0-2.5 17.6-5.7 17.2-9.9-0.9-18.2-16.4-18.4-18.6-0.1-1 1.2-8.8 3.1-16.3z"/><path class="c" d="m93.8 127.5l2.8 2.3 19.4 16.7-6.6 17.6c-4.8-2.6-9-6.2-12.3-10.6-3.2-4.4-5.5-9.5-6.6-14.9 1.8-6.1 3.3-11.1 3.3-11.1z"/><path class="h" d="m144.9 121.1c-1.7 33-21.6 35.6-28.7 35.2-6.5-0.3-28.4-2.3-30.1-35.2-1.7-33 14.1-42.6 28.9-42.6 14.8 0 31.6 9.6 29.9 42.6z"/><path class="c" d="m140.5 115.1q-1.1-0.2-2.2-0.6c-0.8-0.1-1.5-0.5-2.1-1.1q-0.2-0.3-0.2-0.7 0-0.4 0.3-0.7 0.6-0.5 1.4-0.6 0.8-0.2 1.5 0.1c1.1 0.3 2 0.9 2.6 1.7q0.2 0.4 0.2 0.7 0 0.4-0.2 0.7-0.2 0.3-0.6 0.5-0.3 0.1-0.7 0z"/><path class="c" d="m118.8 113.5q-0.3-0.1-0.5-0.5-0.1-0.3-0.1-0.7 0.1-0.4 0.3-0.6c0.7-0.8 1.7-1.3 2.8-1.4q0.8-0.1 1.5 0.1 0.8 0.3 1.3 0.8 0.2 0.4 0.2 0.8 0 0.4-0.3 0.7c-0.6 0.5-1.4 0.7-2.2 0.7-0.8 0.1-1.5 0.3-2.3 0.3q-0.4 0-0.7-0.2z"/><path class="c" d="m120.1 127.7c-0.1 0-0.1-0.2 0-0.2 2.1-0.6 2.5-3.2 2.5-5.4 0-0.1 0.2-0.3 0.2-0.2 0.3 2.1-0.2 5.5-2.7 5.8z"/><path class="c" d="m120.9 119.4c-3.6-0.4-4.2 6.8-0.9 7.2 3.3 0.5 3.9-6.8 0.9-7.2z"/><path class="c" d="m119.9 120.2c-0.5 1.3-1.4 2.5-2.9 2.2-1.5-0.4-1.9-1.8-1.7-3.2 0-0.1 0.1-0.2 0.1-0.1 0.5 0.8 1.2 1.6 2 1.6 0.8 0 1.4-0.7 2.1-1 0.2-0.1 0.4 0.3 0.4 0.5z"/><path class="c" d="m135.1 122.5c0-0.1 0.1 0.1 0.1 0.2-0.3 2.2-0.2 4.9 1.7 5.8 0.1 0 0 0.1 0 0.1-2.4-0.6-2.4-4-1.8-6.1z"/><path class="c" d="m137.3 120.4c3.6 0 3.2 7.3-0.1 7.2-3.4-0.1-2.9-7.3 0.1-7.2z"/><path class="c" d="m138.8 120.9c0.5 0.4 1.1 1.2 1.7 1.3 0.7 0 1.5-0.7 2-1.4 0.1-0.1 0.2 0 0.2 0.1-0.1 1.3-0.6 2.8-2 3-1.3 0.2-2-1.1-2.3-2.5-0.1-0.3 0.2-0.6 0.4-0.5z"/><path class="c" d="m121.1 139.1c0.5 0.6 0.9 1.4 1.7 1.6q1.3 0.1 2.5-0.3 0 0 0.1 0 0 0.1 0 0.1 0 0 0 0 0 0.1 0 0.1c-0.4 0.4-0.9 0.7-1.4 0.8q-0.8 0.2-1.6 0-0.7-0.3-1.1-0.9-0.4-0.6-0.4-1.3c0-0.1 0.2-0.2 0.2-0.1z"/><path class="c" d="m130.7 132.8c0 0 0.2 3.4 0.1 5 0 0.2-5.9 0.9-8.1-3.2q0 0 0-0.1 0 0 0-0.1 0.1 0 0.1 0 0.1 0 0.2 0c1.9 1.6 4.2 2.4 6.7 2.5 0.1-0.4-0.6-5.7-0.3-5.7q1.8 0.3 3.5 1c-0.2-7-1.6-14-1.7-21q0-0.1 0.1-0.1 0-0.1 0.1-0.1 0.1 0 0.1 0 0.1 0.1 0.1 0.1c2 7.2 2.4 15.3 2.8 22.6 0.1 0.9-3.1-0.6-3.7-0.9z"/><path class="c" d="m85.2 91.6c3.8-7.6 13.1-8.6 13.1-8.6 0 0 7.3-7.5 16-8.6 15.2-1.9 24.9 7.3 28.7 15.9 4.3 9.8 1.9 22.6 1.9 22.6-0.8-2.2-5.6-4.8-11-19.5 0 0-9.4 17.5-37.6 18.2-0.7 2.2-2 4.1-3.8 5.7-1.7 1.5-3.8 2.6-6.1 3.1 0 0-7.7-16.2-1.2-28.8z"/><path class="c" d="m134.3 92.3c-1 3.6-2.9 7-5.6 9.7-2.7 2.8-5.8 5-9.3 6.6l-2.7 1c-0.9 0.3-1.9 0.5-2.8 0.7q-2.7 0.7-5.6 1c-1.9 0.2-3.8 0.1-5.7 0.2-1.9-0.2-3.7-0.3-5.6-0.5 1.9-0.1 3.8 0 5.6-0.1 1.9-0.1 3.8-0.2 5.6-0.5 3.7-0.5 7.3-1.4 10.7-2.9 3.4-1.4 6.5-3.5 9.2-6.1 2.7-2.6 4.8-5.7 6.2-9.1z"/><path fill-rule="evenodd" class="a" d="m115.4 132.7c-1.9-0.4-3.6-1.3-5.1-2.7-1.4-1.3-2.4-3.1-2.8-5-0.5-1.9-0.5-3.9 0.2-5.8 0.6-1.8 1.7-3.5 3.2-4.7 1.5-1.3 3.3-2.1 5.2-2.4 2-0.3 4 0 5.8 0.8 1.8 0.8 3.3 2.1 4.4 3.7 1.1 1.6 1.7 3.5 1.8 5.5 0.1 2.7-0.9 5.4-2.8 7.5-1.9 2-4.5 3.2-7.3 3.3q-1.3 0.1-2.6-0.2zm4.1-19.1q-1.1-0.2-2.2-0.2c-2.3 0.1-4.5 1.1-6.1 2.7-1.7 1.7-2.6 3.9-2.6 6.2-0.1 2.3 0.7 4.5 2.3 6.2 1.5 1.7 3.7 2.8 6 3 2.3 0.2 4.5-0.5 6.3-1.9 1.9-1.5 3-3.5 3.4-5.8 0.3-2.3-0.2-4.6-1.5-6.5-1.4-1.9-3.3-3.2-5.6-3.7z"/><path fill-rule="evenodd" class="a" d="m139.4 134.8c-3.9-0.8-6.6-5.6-6.1-11 0.2-2.6 1.2-5.1 2.9-7.1 0.6-0.9 1.5-1.6 2.5-2.1 1.1-0.5 2.2-0.6 3.3-0.5 1.1 0.1 2.2 0.4 3.1 1.1 1 0.6 1.7 1.5 2.2 2.5 1.3 2.3 1.8 4.9 1.5 7.5-0.5 5.7-4.4 10.1-8.7 9.7q-0.4 0-0.7-0.1zm3-19.3q-0.3 0-0.5 0c-0.9-0.1-1.8 0.1-2.6 0.5-0.8 0.3-1.6 0.9-2.1 1.6-1.5 1.8-2.4 4-2.5 6.3-0.5 5 2 9.3 5.5 9.6 3.5 0.4 6.7-3.4 7.2-8.4 0.3-2.3-0.2-4.6-1.3-6.7q-0.6-1-1.6-1.8-0.9-0.7-2.1-1z"/><path class="a" d="m127.6 123.2l-0.8-1.1c1.7-1.2 5.6-2.6 7.9 0.3l-1.1 0.9c-2.1-2.7-5.8-0.2-6-0.1z"/><path class="a" d="m80.9 121.6l-1.2-0.8c0.4-0.5 3.6-5.4 6.7-5.6 3-0.2 21.5 3.3 22.3 3.5l-0.3 1.4c-5.3-1-19.6-3.6-21.9-3.5-2.1 0.2-4.7 3.6-5.6 5z"/><path class="h" d="m92 130.4q-0.5 1-1.5 1.7-0.9 0.7-2 0.9-1.1 0.3-2.2 0.1-1.1-0.2-2.1-0.8c-5.1-2.7-8.5-18.3-3.5-20.2 5-1.9 10.7 9.3 10.7 9.3z"/><path class="c" d="m89 129.9q0 0.1 0 0.1c0.1 0.4-0.6 0.5-0.7 0.2q-0.5-1.7-1.4-3.3c-0.3-0.6-0.8-1.1-1.5-1.4-0.6-0.3-1.3-0.4-2-0.3q-0.1 0-0.1 0-0.1-0.1-0.1-0.1 0 0 0-0.1 0.1 0 0.1 0c2.1-1.1 3.5-0.1 4.4 1.4-0.9-3.8-2.4-7.6-6-9.7 0 0 0-0.1 0.1-0.1 5.1 1.2 8 8.5 7.2 13.3z"/><path class="c" d="m223.1 303.8q-4.8-0.5-9.6-1.5-4.8-1-9.5-2.5c6.5 0.7 12.9 2 19.1 3.9z"/><path class="c" d="m251 295.2c-0.4-3.8-0.5-7.6-0.5-11.5q-0.1-5.7 0.5-11.5 0.5 5.8 0.5 11.5c-0.1 3.9-0.1 7.7-0.5 11.5z"/><path class="c" d="m241.2 295.4q-3.3-4.4-6.1-9-2.8-4.7-5.1-9.6c4.3 5.9 8 12.1 11.2 18.6z"/><path class="c" d="m206.2 277.7c2.2 1.7 4.3 3.5 6.5 5.3q3.2 2.7 6.3 5.5 3.1 2.8 6.2 5.7l3 2.9q1.5 1.5 3 3c-1.2-0.9-2.2-1.8-3.3-2.6l-3.2-2.7c-2.2-1.8-4.3-3.7-6.4-5.5q-3.1-2.8-6.1-5.7c-2.1-1.9-4.1-3.9-6-5.9z"/><path class="c" d="m269.1 302q4.7-1.5 9.5-2.4 4.8-1.1 9.7-1.5c-6.3 1.9-12.7 3.2-19.2 3.9z"/><path class="c" d="m284.5 275.7c-1.9 2-4 4-6 5.9-2 1.9-4.1 3.8-6.2 5.7q-3.1 2.8-6.3 5.5l-3.2 2.7c-1.1 0.8-2.2 1.7-3.3 2.6q1.5-1.5 3-3l3-2.9c2-1.9 4.1-3.8 6.2-5.7q3.1-2.8 6.3-5.5c2.2-1.8 4.3-3.6 6.5-5.3z"/><path class="c" d="m411 184.5l-32.8-46.3 2.5-2 33 46.4 4.6 111.1-2.9 0.4z"/><path class="g" d="m416.4 183.6c0 0.8-0.2 1.5-0.7 2.2-0.4 0.6-1.1 1.2-1.8 1.5-0.7 0.3-1.5 0.3-2.3 0.2-0.8-0.2-1.5-0.6-2-1.1-0.6-0.6-1-1.3-1.1-2.1-0.2-0.7-0.1-1.5 0.2-2.3 0.3-0.7 0.8-1.3 1.5-1.8 0.6-0.4 1.4-0.6 2.2-0.6 1 0 2.1 0.4 2.8 1.1 0.8 0.8 1.2 1.8 1.2 2.9z"/><path class="g" d="m383.8 137.6c0 0.8-0.2 1.6-0.7 2.2-0.4 0.7-1 1.2-1.8 1.5-0.7 0.3-1.5 0.4-2.3 0.2-0.7-0.1-1.5-0.5-2-1.1-0.6-0.5-1-1.2-1.1-2-0.2-0.8-0.1-1.6 0.2-2.3 0.3-0.8 0.8-1.4 1.5-1.8 0.7-0.5 1.4-0.7 2.2-0.7 1.1 0 2.1 0.4 2.8 1.2 0.8 0.7 1.2 1.7 1.2 2.8z"/><path class="g" d="m365.1 133.5l7.7-3.4 11.7 17.8-6.3 5.7-10.3 9.3-15.5-23.7z"/><path class="i" d="m365.1 133.5l13.1 20.1-10.3 9.3-15.5-23.7z"/><path class="g" d="m356.4 131.4l20.3 31-25.9 24.4-27.1-41.4z"/><path class="g" d="m393.9 288.4h42.9l3 15.4h-48.9z"/><path class="j" d="m211.5 312.9h-8.1v-5.3h8.1z"/><path class="j" d="m222 312.5h-8.1v-5.3h8.1z"/><path class="j" d="m232.6 312.2h-8.1v-5.3h8.1z"/><path class="j" d="m243.1 311.8h-8.1v-5.3h8.1z"/><path class="j" d="m253.7 311.5h-8.2v-5.3h8.2z"/><path class="j" d="m264.2 311.1h-8.1v-5.3h8.1z"/><path class="j" d="m274.8 310.8h-8.2v-5.3h8.2z"/><path class="j" d="m285.3 310.4h-8.1v-5.3h8.1z"/><path class="j" d="m295.8 310.1h-8.1v-5.3h8.1z"/><path class="k" d="m297.8 315.9h-96.4v-6.4l96.4-2.7z"/><path class="j" d="m369.8 293.6h-134.4l21.3-100.1h134.4z"/><path class="k" d="m374.7 293.6h-134.4l21.4-100.1h134.4z"/><path class="b" d="m314.9 243.8c-2.8-3.1-2.2-8.4 1.4-11.7 3.7-3.4 9-3.6 11.8-0.5 2.9 3.1 2.3 8.4-1.3 11.7-3.7 3.4-9 3.6-11.9 0.5z"/><path class="j" d="m336.7 319.7h-66.1v-5.1l66.1-2.2z"/><path class="j" d="m354.7 319.7h-35.5l-21.4-56.1h35.5z"/><path class="l" d="m360.5 319.7h-35.4l-21.4-56.1h35.5z"/><path class="k" d="m192.5 321.1l-68.1-0.1c-5.8 0 2.6-16.5 23.8-22.9 21.3-6.3 51 16.7 44.3 22.9z"/><path class="c" d="m165.8 321.1q0.1-2.9 0.9-5.6 0.9-2.7 2.3-5.2c1-1.6 2.2-3.1 3.6-4.4 1.5-1.3 3.1-2.3 4.8-3-0.7 0.6-1.5 1-2.2 1.7l-1 0.9-1 1q-1.9 2-3.3 4.3-1.4 2.4-2.4 4.9-1 2.6-1.7 5.3z"/><path class="c" d="m173.9 305.3q3 1 5.9 2.4 2.8 1.4 5.4 3.2 2.7 1.9 4.8 4.3 1 1.3 1.8 2.8 0.7 1.4 0.7 3.1-0.3-1.6-1.2-2.9-0.8-1.3-1.9-2.4-2.2-2.3-4.7-4c-1.7-1.3-3.5-2.4-5.3-3.4q-1.4-0.8-2.7-1.6-1.4-0.7-2.8-1.5z"/><path class="m" d="m73.7 263c-2-9.5-22.8-19.5-22.8-34.4 0-14.8 21.7-22.2 21.7-22.2 0 0-13.7 6.9-13.7 18.6 0 11.7 31.5 21.4 31.5 36.4 0 15-24.3 26.2-24.3 26.2 0 0 10.3-11.5 7.6-24.6z"/><path class="m" d="m67.3 287.6c0 0-24.3-8.8-24.3-20.6 0-11.8 31.5-19.4 31.5-28.6 0-9.3-13.7-14.7-13.7-14.7 0 0 21.7 5.9 21.7 17.5 0 11.7-23.9 19.7-25.6 29.2-1.7 9.3 10.4 17.2 10.4 17.2z"/><path class="a" d="m77.9 329h-23.1v-3.6h23.1z"/><path class="c" d="m77.9 327.7h-23.1v-2.3h23.1z"/><path class="a" d="m26.4 290.8c1.8-2.3 4.7-2.5 7.4-2.3q2.7 0.4 5.3 1.1c0.5 0.2 0.8 0.3 1.1 0.3l-0.3 2.6-0.1 2.6q-1.1-0.1-2.1-0.4-1.3-0.4-2.3-0.6c-3.8-0.8-4.7-0.3-4.9 0-3.2 3.9-2 14.1 1.1 18.5 0.7 1 4.2 5.4 9.7 2.9q0.9-0.4 1.7-1l3 4.3q-1.6 1.1-3.3 1.7-1.1 0.5-2.3 0.7c-2.5 0.4-5.1 0.1-7.4-0.9-2.3-0.9-4.2-2.6-5.6-4.7-4-5.5-6.1-18.5-1-24.8z"/><path class="c" d="m46 318.8q-1.6 1.1-3.3 1.8l-1.4-5.1q0.9-0.4 1.7-1z"/><path class="c" d="m39.1 289.6c0.5 0.2 0.9 0.3 1.1 0.3l-0.2 2.6-0.1 2.6q-1.1-0.1-2.1-0.4-1.4-0.4-2.4-0.6l-1.5-5.6q2.6 0.4 5.2 1.1z"/><path class="a" d="m97.1 281.7c0 0-2.8 23.6-7.6 33.5-4.7 9.9-11.4 11-15.6 11h-15.1c-4.2 0-10.8-1.1-15.6-11-4.8-9.9-7.6-33.5-7.6-33.5z"/><path fill-rule="evenodd" class="n" d="m45.6 287.5c0 0.5-0.1 1-0.4 1.5-0.3 0.4-0.7 0.8-1.2 1-0.5 0.2-1.1 0.2-1.6 0.1-0.5-0.1-1-0.3-1.4-0.7-0.4-0.4-0.7-0.9-0.8-1.4-0.1-0.5 0-1.1 0.2-1.6 0.2-0.5 0.5-0.9 1-1.2 0.4-0.3 1-0.5 1.5-0.5q0.6 0 1.1 0.2 0.5 0.2 0.8 0.6 0.4 0.4 0.6 0.9 0.2 0.5 0.2 1.1zm21.4-3.3c-0.5 0-1.1 0.1-1.5 0.4-0.5 0.3-0.8 0.7-1 1.2-0.2 0.5-0.3 1.1-0.2 1.6 0.1 0.6 0.4 1 0.8 1.4 0.4 0.4 0.9 0.7 1.4 0.8 0.5 0.1 1.1 0 1.6-0.2 0.5-0.2 0.9-0.5 1.2-1 0.3-0.4 0.4-1 0.4-1.5 0-0.7-0.2-1.4-0.8-1.9-0.5-0.6-1.2-0.8-1.9-0.8zm0 34.2c-0.5 0-1.1 0.2-1.5 0.5-0.5 0.3-0.8 0.7-1 1.2-0.2 0.5-0.3 1.1-0.2 1.6 0.1 0.5 0.4 1 0.8 1.4 0.4 0.4 0.9 0.7 1.4 0.8 0.5 0.1 1.1 0 1.6-0.2 0.5-0.2 0.9-0.6 1.2-1 0.3-0.5 0.4-1 0.4-1.5 0-0.7-0.2-1.4-0.8-2-0.5-0.5-1.2-0.8-1.9-0.8zm19.8-15.4c-0.5 0-1.1 0.2-1.5 0.5-0.5 0.3-0.8 0.7-1 1.2-0.2 0.5-0.3 1-0.2 1.6 0.1 0.5 0.4 1 0.8 1.4 0.4 0.3 0.9 0.6 1.4 0.7 0.5 0.1 1.1 0.1 1.6-0.1 0.5-0.3 0.9-0.6 1.2-1.1 0.3-0.4 0.4-0.9 0.4-1.5 0-0.7-0.2-1.4-0.8-1.9-0.5-0.5-1.2-0.8-1.9-0.8zm-30.3 8.1c-0.5 0-1.1 0.1-1.5 0.4-0.5 0.3-0.8 0.7-1 1.2-0.2 0.5-0.3 1.1-0.2 1.6 0.1 0.5 0.4 1 0.8 1.4 0.4 0.4 0.8 0.7 1.4 0.8 0.5 0.1 1.1 0 1.5-0.2 0.5-0.2 1-0.6 1.3-1 0.3-0.5 0.4-1 0.4-1.5 0-0.7-0.3-1.4-0.8-1.9-0.5-0.6-1.2-0.8-1.9-0.8zm32-26.9c-0.5 0-1.1 0.1-1.5 0.4-0.5 0.3-0.8 0.7-1 1.2-0.2 0.5-0.3 1.1-0.2 1.6 0.1 0.6 0.4 1 0.8 1.4 0.4 0.4 0.8 0.7 1.4 0.8 0.5 0.1 1.1 0 1.6-0.2 0.4-0.2 0.9-0.5 1.2-1 0.3-0.4 0.4-1 0.4-1.5 0-0.7-0.3-1.4-0.8-1.9-0.5-0.6-1.2-0.8-1.9-0.8zm-21.8 18.4c-0.6 0-1.1 0.1-1.6 0.4-0.4 0.3-0.8 0.7-1 1.2-0.2 0.5-0.2 1.1-0.1 1.6 0.1 0.6 0.3 1 0.7 1.4 0.4 0.4 0.9 0.7 1.4 0.8 0.6 0.1 1.1 0 1.6-0.2 0.5-0.2 0.9-0.5 1.2-1 0.3-0.4 0.5-1 0.5-1.5 0-0.7-0.3-1.4-0.8-1.9-0.5-0.5-1.2-0.8-1.9-0.8zm-20.7 0.4c-0.6 0-1.1 0.1-1.5 0.4-0.5 0.3-0.8 0.8-1 1.3-0.2 0.5-0.3 1-0.2 1.6 0.1 0.5 0.4 1 0.8 1.3 0.3 0.4 0.8 0.7 1.4 0.8 0.5 0.1 1 0 1.5-0.2 0.5-0.2 1-0.5 1.3-1 0.3-0.4 0.4-0.9 0.4-1.5 0-0.7-0.3-1.4-0.8-1.9-0.5-0.5-1.2-0.8-1.9-0.8zm31.9-9.1c-0.5 0-1 0.1-1.5 0.4-0.4 0.3-0.8 0.7-1 1.2-0.2 0.5-0.2 1.1-0.1 1.6 0.1 0.6 0.3 1 0.7 1.4 0.4 0.4 0.9 0.7 1.4 0.8 0.5 0.1 1.1 0 1.6-0.2 0.5-0.2 0.9-0.5 1.2-1 0.3-0.4 0.5-1 0.5-1.5 0-0.7-0.3-1.4-0.8-1.9-0.5-0.5-1.2-0.8-1.9-0.8zm-0.8 17.6c-0.5 0-1 0.2-1.5 0.5-0.4 0.3-0.8 0.7-1 1.2-0.2 0.5-0.3 1-0.2 1.6 0.2 0.5 0.4 1 0.8 1.4 0.4 0.4 0.9 0.6 1.4 0.7 0.5 0.1 1.1 0.1 1.6-0.1 0.5-0.2 0.9-0.6 1.2-1 0.3-0.5 0.5-1 0.5-1.6 0-0.7-0.3-1.4-0.8-1.9-0.5-0.5-1.2-0.8-1.9-0.8zm-22-17.6c-0.6 0-1.1 0.1-1.6 0.4-0.4 0.3-0.8 0.7-1 1.2-0.2 0.5-0.2 1.1-0.1 1.6 0.1 0.5 0.3 1 0.7 1.4 0.4 0.4 0.9 0.7 1.4 0.8 0.5 0.1 1.1 0 1.6-0.2 0.5-0.2 0.9-0.5 1.2-1 0.3-0.4 0.5-1 0.5-1.5 0-0.7-0.3-1.4-0.8-1.9-0.5-0.5-1.2-0.8-1.9-0.8z"/></svg>