<?xml version="1.0" encoding="UTF-8"?>
<svg width="2000px" height="1300px" viewBox="0 0 2000 1300" version="1.1" xmlns="http://www.w3.org/2000/svg" xmlns:xlink="http://www.w3.org/1999/xlink">
    <title>Group</title>
    <g id="HearMe_DesignSystem_Illustrations" stroke="none" stroke-width="1" fill="none" fill-rule="evenodd">
        <g id="Support" transform="translate(-152.000000, -124.000000)">
            <g id="Group" transform="translate(152.000000, 124.000000)">
                <rect id="Rectangle-Copy-53" x="0" y="0" width="2000" height="1300" rx="80"></rect>
                <g transform="translate(390.000000, 381.000000)" id="support/solid">
                    <g transform="translate(-3.000000, 0.000000)" id="support_solid">
                        <g id="suculent" transform="translate(150.000000, 397.000000)">
                            <path d="M309.9,71.5 C300.3,66.4 292.1,68.8 283.1,78.4 C287.2,55.2 287.1,27.1 268.7,22.4 C249.8,17.5 239.1,29.3 228,57.8 C228.4,33.4 223.6,1.9 203.4,0.6 C180.7,-0.8 173.1,17.9 167.5,59.4 C160.4,36.2 140.9,-4.5 117.9,3.6 C95.4,11.5 96.9,33.2 109.4,77.4 C97.1,58.3 72.4,29.9 55.9,40.7 C40.2,50.9 44.5,67.6 61.9,98.6 C50.4,93.6 38.5,93.1 28.9,102.5 C7.4,123.7 17.8,143.8 47.5,181.1 C77.3,218.4 291.2,152.4 301.3,135.6 C311.5,118.7 327.4,80.9 309.9,71.5 Z" id="succulent"></path>
                            <path d="M176.229529,12.7894822 C172.099285,20.2985683 169.089902,30.6986159 166.503843,45.8938391 L166.324,46.961 L166.301096,46.9031765 C162.178276,36.4245126 156.87243,26.0749671 151.101649,18.0159174 C140.597883,3.34712693 128.974618,-3.48079515 116.90347,0.77034827 C104.797853,5.02076357 98.6558939,13.2030288 97.570901,26.1851764 L97.5062624,27.0532809 C96.940353,35.6629336 98.39958,46.3885903 102.092359,61.5609172 L102.294,62.387 L102.036319,62.0653727 C96.9448718,55.7382101 91.4862141,49.9788334 86.1443929,45.5318698 C74.2318695,35.6149225 63.2174852,32.3248653 54.2570225,38.1898954 C45.5018609,43.8779414 42.0584028,51.705578 43.5156924,62.2603166 L43.5726761,62.658171 C44.716809,70.3704512 48.3826878,79.6884757 55.101813,92.4066139 L55.537,93.227 L55.2850331,93.1634468 C44.4880627,90.4859004 34.7297147,92.5930585 26.8011256,100.356469 C15.4392463,111.559784 12.117876,122.981499 16.1216714,136.60821 L16.3416085,137.336658 C19.9264613,148.900408 28.4045233,161.934298 45.1531028,182.968709 C59.5792782,201.02564 111.583642,198.458222 182.483205,181.555718 C240.634934,167.692306 298.039559,146.845772 303.871127,137.145737 C310.111822,126.805772 316.099378,113.105313 318.904376,101.43881 C322.692348,85.6839386 320.840738,73.9713461 311.319597,68.8571333 L310.952373,68.6650173 C302.774974,64.4533434 295.256504,65.0281439 287.72644,70.3090333 L287.306,70.608 L287.367795,70.110964 C288.57758,60.0322839 288.634547,50.7286458 287.29388,42.9527793 C285.126039,30.379297 279.338511,22.0211217 269.442465,19.4933274 L268.846208,19.343023 C252.3828,15.3122419 241.293777,22.5716737 231.018839,43.3506318 L230.659,44.084 L230.647097,43.9091248 C230.015557,34.8943357 228.579758,26.5541908 226.272651,19.5936337 C221.866982,6.3016996 214.396317,-1.69852245 203.592671,-2.39380661 C191.194348,-3.15847162 182.476805,1.65579565 176.421422,12.4441209 L176.229529,12.7894822 Z M203.215329,3.5943107 C218.140265,4.55483713 225.508064,26.7835351 225.000403,57.7508263 C224.945553,61.0966633 229.581029,62.006897 230.795461,58.8887587 C242.010887,30.0923955 251.78766,21.1145028 267.947114,25.3039907 C281.646898,28.803412 285.188394,49.3440897 280.145778,77.8779176 C279.626584,80.8157936 283.248141,82.6283249 285.288612,80.4518234 L285.947849,79.7602532 C293.930823,71.5282493 300.560219,69.9353047 308.492534,74.1493472 C314.85785,77.5684666 316.291765,86.6388759 313.070624,100.03619 C310.421492,111.054419 304.676503,124.199847 298.731553,134.049813 C296.801502,137.260186 282.15586,144.375971 260.549418,152.222368 C237.615777,160.550737 208.989219,169.068517 181.091795,175.719282 C113.021466,191.947295 62.0177811,194.46531 49.843832,179.227448 L47.8301183,176.686054 C32.5539254,157.307746 24.9090387,145.231656 21.8783286,134.91679 C18.5178095,123.479438 21.1796429,114.325776 31.0063645,104.636172 C38.847397,96.9585195 48.8572662,96.2005339 60.7038217,101.35121 C63.3398368,102.497304 65.9229748,99.6381617 64.5160777,97.1316209 C46.5029581,65.0392812 44.6458982,51.5891196 57.5344018,43.2156969 C69.2212092,35.5661711 90.0671659,52.9200303 106.877753,79.0242745 C108.744011,81.9222864 113.224803,79.900455 112.28678,76.5836031 C98.9665064,29.4831172 100.17446,13.0031798 118.893853,6.43059303 C127.794225,3.29611548 137.093304,8.7587273 146.223351,21.5090826 C153.71888,31.9767906 160.494944,46.7618356 164.63133,60.2779121 C165.573308,63.3559278 170.042594,62.9912003 170.473054,59.8011832 C176.339437,16.3270965 184.146338,2.41824961 203.215329,3.5943107 Z" id="succulent_2_" fill="#FE7624"></path>
                            <path d="M311.6,134.8 L311.8,134.2 L24.1,135.1 L24.3,135.7 C9,138.7 -1.9,153.3 0.6,169.4 L22.1,308.2 L313.7,307.3 L335.2,168.5 C337.8,152.5 326.9,137.8 311.6,134.8 Z" id="pot" fill="#FEBA91"></path>
                        </g>
                        <g id="woman" transform="translate(240.000000, 0.000000)">
                            <g id="body" transform="translate(0.000000, 218.000000)">
                                <path d="M692.8,263.8 C688.3,263.8 683.8,264.1 679.4,264.6 C655.5,231.6 628.1,203.6 599.3,185.8 C524.3,139.6 421.3,152.8 325.2,188.4 C259.1,212.8 175.4,291.6 121.7,347.4 C51.7,352.7 -2.1,400.3 1.1,454.8 C1.8,466.7 5.2,477.9 10.7,488.2 L245.6,489.8 C246,489.2 246.4,488.5 246.8,487.9 L595.2,486.7 C595.6,487.2 596,487.7 596.4,488.3 L789.3,488 C807.2,464.3 817.9,434 817.9,400.9 C817.9,325.1 761.9,263.8 692.8,263.8 Z" id="clothing" fill="#5D21D1"></path>
                                <g id="clothing_lines" transform="translate(119.000000, 190.000000)" fill="#FFFFFF">
                                    <path d="M487.2,0.3 C398.5,55.3 318.9,56.5 267.3,47.6 C219.5,39.4 185,21 173.8,13.8 C171.9,14.9 170,16 168,17.1 C177.2,23.4 213.2,44.2 265.2,53.3 C282.2,56.3 299.3,57.8 316.5,57.8 C334,57.8 351.5,56.3 368.9,53.2 C411,45.7 452.5,29.2 492.5,4.1 C490.7,2.7 489,1.5 487.2,0.3 Z" id="Path"></path>
                                    <path d="M478,94.8 C492.1,75 509.5,63.9 529.8,61.7 C539.2,60.7 547.1,62 551.8,63.1 C549.9,60.7 548,58.3 546.1,56 C541.5,55.4 535.8,55.1 529.5,55.8 C514.2,57.4 492,64.8 473.1,91.4 C472.1,92.7 472.5,94.6 473.8,95.6 C474.3,96 474.9,96.2 475.5,96.2 C476.5,96.1 477.4,95.7 478,94.8 Z" id="Path"></path>
                                    <path d="M479.1,165.1 C479.1,165.1 479.1,165.1 479.1,165.1 C480.8,165.1 482.1,163.8 482.2,162.2 C482.4,153.4 485.9,133.4 498.2,114.6 C512.4,92.7 533.4,79.3 560.4,74.5 C559.1,72.7 557.8,70.9 556.4,69.1 C529.4,74.6 507.6,89.1 493.1,111.3 C481,129.9 476.4,150.3 476.1,162 C476.1,163.7 477.4,165.1 479.1,165.1 Z" id="Path"></path>
                                    <path d="M55.4,135.6 C42.7,135.1 30.5,136.3 21.5,138.2 C18.5,141.2 15.5,144.2 12.6,147.2 C23.7,141.1 86.9,133.5 113,163.2 C113.6,163.9 114.4,164.2 115.3,164.2 C116,164.2 116.7,164 117.3,163.5 C118.5,162.4 118.7,160.5 117.6,159.3 C100.7,140 71.4,136.2 55.4,135.6 Z" id="Path"></path>
                                    <g id="Group" transform="translate(0.000000, 150.000000)">
                                        <path d="M0.7,7.6 C0.7,7.6 0.8,7.6 0.9,7.6 C0.8,7.5 0.7,7.6 0.7,7.6 C0.6,7.6 0.7,7.6 0.7,7.6 Z" id="Path"></path>
                                        <path d="M106.8,28.5 C71.5,1.8 27.5,0.2 8.9,1 C6.8,3.2 4.7,5.3 2.7,7.4 C13.4,6.5 64.5,4.1 103.2,33.3 C103.7,33.7 104.4,33.9 105,33.9 C105.9,33.9 106.8,33.5 107.4,32.7 C108.4,31.4 108.1,29.5 106.8,28.5 Z" id="Path"></path>
                                    </g>
                                </g>
                                <path d="M73.3,487.3 C73.3,487.3 106.1,390.3 198.4,407.9 C290.7,425.5 417,463.3 417,463.3 L417,487.6 L73.3,487.3 Z" id="hand" fill="#FFFFFF"></path>
                                <path d="M134.707584,411.892402 C119.018063,419.214318 105.570158,430.49868 94.2102045,444.654912 C86.9069448,453.755886 80.9010641,463.493997 76.1001317,473.233785 C74.4181169,476.646136 73.0054758,479.818497 71.8514431,482.671648 L71.3625206,483.901691 C71.2106371,484.291028 71.0698097,484.659428 70.9399348,485.006112 L70.551951,486.068386 C70.5128007,486.179273 70.4815328,486.269658 70.4580784,486.33902 C69.8007587,488.282923 71.245352,490.298208 73.2973814,490.299999 L416.997381,490.600001 C418.655258,490.601446 420,489.257877 420,487.6 L420,463.3 C420,461.97445 419.13006,460.806022 417.860165,460.425958 L413.868337,459.242817 L408.475947,457.660806 C400.952729,455.463455 392.446224,453.015211 383.12967,450.378771 C356.511415,442.846216 328.733171,435.313656 301.179773,428.282479 C287.330806,424.74845 273.864408,421.42627 260.881425,418.352507 L257.237729,417.493398 C236.075625,412.524646 216.543442,408.305585 198.961923,404.953096 C175.040829,400.391761 153.636595,403.058695 134.707584,411.892402 Z M197.838077,410.846904 C216.329817,414.372956 237.012117,418.867235 259.499118,424.191105 C272.446793,427.256509 285.879672,430.570419 299.696213,434.096175 C325.747706,440.744089 352.006173,447.842619 377.290999,454.96487 L381.495919,456.152059 C389.950338,458.544528 397.735805,460.781544 404.722018,462.815969 L414,465.537 L414,484.597 L77.666,484.304 L77.9395152,483.64354 C78.9365561,481.260421 80.1154505,478.658593 81.4818502,475.88654 C86.1004913,466.516571 91.8803582,457.144926 98.8897734,448.410127 C109.709057,434.927651 122.456969,424.230666 137.244937,417.329482 C155.03153,409.028913 175.154758,406.521591 197.838077,410.846904 Z" id="hand_2_" fill="#2E186A"></path>
                                <g id="hand_II_1_" transform="translate(682.000000, 0.000000)">
                                    <path d="M120.1,129 C120.1,129 112.7,125.3 111.8,116.8 C110.9,108.3 116.6,71.3 125.8,66.1 C135.1,60.9 177.4,38 185.2,38.5 C193,39 196.2,106.9 120.1,129 Z" id="Path" fill="#FFFFFF"></path>
                                    <path d="M124.6,70.2 C140.4,14.9 153.3,2.5 160.8,7.9 C167.6,12.8 153.8,48 149.8,66.3" id="Path" fill="#FFFFFF"></path>
                                    <path d="M143.30556,14.6396985 L143.790705,13.9143007 C150.18495,4.52035555 156.826016,1.34203047 162.553857,5.46607606 C165.930732,7.89941222 166.294809,12.9279029 164.94432,20.9221622 L164.746072,22.0494565 C163.842849,26.9946788 162.356487,32.7695109 159.927203,41.1666428 L155.956665,54.7168451 C154.09863,61.1173932 153.478963,63.5177887 152.730804,66.940613 C152.377004,68.5592516 150.778026,69.5846053 149.159387,69.2308045 C147.540748,68.8770037 146.515395,67.2780256 146.869196,65.659387 L147.15282,64.383871 C147.79738,61.5411993 148.457172,59.0475651 149.970996,53.8148189 L153.97123,40.1626512 C156.643977,30.9591626 158.177673,24.9571246 159.028145,19.9227291 L159.151465,19.1629816 C159.963386,13.9436771 159.708086,10.8109125 159.047086,10.334603 C156.746318,8.67805023 153.241635,10.4467482 148.31944,17.9353015 L147.874344,18.623374 C141.555024,28.5467229 134.652262,45.9372484 127.484572,71.0241634 C127.029399,72.6172684 125.368942,73.5397447 123.775837,73.0845718 C122.182732,72.629399 121.260255,70.9689417 121.715428,69.3758366 L122.231536,67.5810121 C129.537864,42.3359721 136.622069,24.8078608 143.30556,14.6396985 Z" id="Path_2_" fill="#2E186A"></path>
                                    <path d="M194.3,58.2 C202.2,45.3 215.3,46 208.5,67.9 C201.8,89.3 196.9,117.1 184.4,129.7 C171.9,142.3 167.4,147.9 167.4,147.9 C167.4,147.9 142.4,241.2 128.2,318.8 C107.7,431 68.9,452.6 32.7,439.7 C-3.5,426.9 -10.2,376.1 39.2,277.6 C88.6,179 114.7,121.6 114.7,121.6" id="hand_II_3_" fill="#FFFFFF"></path>
                                    <path d="M191.741626,56.633244 C196.226072,49.3105418 202.747753,45.2031148 207.980486,47.1965368 C213.741483,49.3912023 214.864276,57.216639 211.49993,68.3492842 L210.773478,70.7084213 C209.907608,73.5603178 209.016241,76.6869107 207.837742,80.9540575 L205.66496,88.847431 C199.307816,111.77787 194.602145,123.524756 186.785746,131.55239 L184.820341,133.542679 C180.734505,137.693942 177.32629,141.280001 174.542692,144.32191 L173.438658,145.536025 C172.280932,146.8176 171.332148,147.896339 170.578644,148.777652 L170.129,149.306 L168.548903,155.302046 L167.130962,160.746635 C165.754993,166.055425 164.266561,171.869743 162.689108,178.118198 C156.980069,200.732283 151.271019,224.392782 145.943203,247.938037 L144.792005,253.050959 C142.320099,264.085478 139.994687,274.83382 137.838622,285.226233 L136.972706,289.425451 C135.118708,298.472235 133.40933,307.182242 131.856615,315.518416 L131.151146,319.339202 C121.371205,372.866487 106.966455,408.648077 88.5207051,428.220075 C72.0202109,445.728046 52.542778,449.955836 31.699905,442.528394 C11.6703407,435.446117 0.875343446,417.767007 0.849599862,390.790318 C0.823621183,362.708658 12.3395971,324.767048 35.8031337,277.685688 L40.4145406,268.46761 C59.0981225,231.071241 75.5962263,197.284597 89.849436,167.451284 L95.3935016,155.80803 C98.8171074,148.59264 101.923281,141.996396 104.709084,136.036293 L109.091326,126.615484 L111.969064,120.358233 C112.654873,118.849978 114.433513,118.183254 115.941767,118.869064 C117.396156,119.530379 118.068049,121.207861 117.499264,122.679196 L117.123176,123.516136 L114.005544,130.282314 L109.724191,139.476071 C106.478003,146.415446 102.808245,154.195048 98.7193818,162.789033 L94.5236748,171.585242 C79.4360293,203.137991 61.8658158,239.057475 41.8816461,278.944907 C-3.49398964,369.420618 -3.44296331,423.738149 33.7070308,436.874068 C52.3617997,443.521762 69.3249326,439.839729 84.1542949,424.104925 C101.480703,405.720613 115.377645,371.446971 124.959949,319.829474 L125.249001,318.259998 C127.225132,307.460856 129.472273,296.016389 131.963723,284.007396 C134.459131,271.979322 137.179946,259.479353 140.091153,246.613837 C145.134173,224.32718 150.516794,201.942505 155.918292,180.435576 L158.11673,171.734593 C159.137739,167.718296 160.116386,163.903562 161.04573,160.311517 L162.90988,153.151121 L164.502225,147.123533 C164.610053,146.72112 164.800513,146.345577 165.061473,146.020827 L165.473397,145.521574 L166.018231,144.878598 C166.807696,143.955223 167.792505,142.835525 168.986342,141.513975 L170.501401,139.851373 C173.655235,136.418729 177.555202,132.339911 182.270245,127.587148 L182.725914,127.118178 C189.132147,120.386719 193.47833,109.884309 199.08308,90.0998207 L202.67836,77.1076915 C203.674704,73.5365312 204.473307,70.7786822 205.273874,68.1742545 L205.634935,67.0103909 C208.336782,58.3088548 207.691982,53.5072606 205.844514,52.8034632 C203.99847,52.1002084 200.018213,54.6070185 196.858374,59.766756 C195.993078,61.1797067 194.146195,61.6236691 192.733244,60.7583737 C191.320293,59.8930782 190.876331,58.0461948 191.741626,56.633244 Z" id="hand_II_4_" fill="#2E186A"></path>
                                    <path d="M115.6,123.3 C108.4,118.4 109.3,90.2 101.2,77.9 C91.2,62.6 81.4,46.7 99.9,49.1 C115.8,51.1 120.8,65.1 124.5,70.1" id="Path" fill="#FFFFFF"></path>
                                    <path d="M86.9509267,57.5855081 C84.8714174,49.211268 89.7538559,44.7586041 100.274408,46.1234553 C109.105744,47.2343152 115.500742,51.6033355 120.679343,58.5766917 L120.920885,58.9087563 C122.811576,61.5554108 126.410966,67.5866327 126.884632,68.2774256 L126.911526,68.315471 C127.897094,69.6473199 127.616378,71.5259575 126.284529,72.5115257 C124.95268,73.4970939 123.074042,73.2163779 122.088474,71.884529 L121.986718,71.7390603 C121.133072,70.4757801 117.391903,64.2135753 115.862348,62.1539205 C111.585886,56.3953583 106.559408,52.9613015 99.514045,52.0750695 C95.8367956,51.598021 93.6985733,51.9367911 92.9137041,52.6525725 C92.4500155,53.0754451 92.2933599,54.058339 92.7132208,55.885127 L92.7740733,56.1394919 C93.8144749,60.3292172 96.8205659,65.6907178 103.369457,75.735237 L103.705513,76.2500283 C106.768698,80.9015324 108.653923,87.055968 110.578342,96.8980676 L110.967154,98.9291115 L112.140663,105.276005 C113.969556,114.956605 115.397693,119.416669 117.196105,120.754516 L117.287872,120.819861 C118.657615,121.752047 119.012325,123.618129 118.080139,124.987872 C117.147953,126.357615 115.281871,126.712325 113.912128,125.780139 C110.160065,123.226652 108.546713,118.506343 106.355959,106.979473 L105.004157,99.6860531 L104.809593,98.666422 C103.02608,89.4092867 101.324154,83.6783654 98.8511846,79.7921562 L96.9926866,76.9296812 C90.9524805,67.5610296 88.1349135,62.3534553 86.9509267,57.5855081 Z" id="Path_2_" fill="#2E186A"></path>
                                    <path d="M185.1,81.6 C185.1,81.6 199.2,47.4 203.9,31.5 C209.1,14.2 190.9,11.7 182.1,36.6" id="Path" fill="#FFFFFF"></path>
                                    <path d="M198.055411,15.2313175 C205.856762,14.7242297 209.65546,22.3198866 206.873221,32.0225704 L206.776941,32.3504166 C205.340258,37.2106859 202.984282,43.9631555 199.911,52.16891 L199.361251,53.631981 C198.93626,54.7594519 198.500371,55.9076561 198.054379,57.0748277 C196.10537,62.1754253 194.035429,67.4526166 191.950457,72.6700687 L190.242104,76.9236796 L188.471262,81.2852948 L187.87353,82.743473 C187.242007,84.2752514 185.488305,85.0050528 183.956527,84.3735302 C182.479455,83.7645619 181.748099,82.1121385 182.26399,80.6214341 L184.678458,74.6773829 C184.941452,74.0258772 185.211782,73.3546108 185.488714,72.6652269 C187.565515,67.4953188 189.642218,62.2328649 191.612192,57.1163393 L192.889036,53.7807283 L193.74687,51.5156827 C196.950332,43.0171372 199.413087,36.0206208 200.901768,31.0569037 L201.026979,30.6364329 C202.942417,24.2639179 201.36268,21.0290067 198.444589,21.2186825 C194.124107,21.4995139 188.559709,27.3251221 184.928551,37.5996487 C184.376461,39.1618144 182.662517,39.980642 181.100351,39.4285513 C179.538186,38.8764606 178.719358,37.1625171 179.271449,35.6003513 C183.617411,23.3032528 190.882053,15.6975858 198.055411,15.2313175 Z" id="Path_2_" fill="#2E186A"></path>
                                    <path d="M168.5,72.6 C168.5,72.6 196.2,9.9 183.8,4.3 C172.5,-0.8 163.9,22.1 149.7,66.3" id="Path" fill="#FFFFFF"></path>
                                    <path d="M165.581976,14.6320086 C171.599074,2.99966049 177.710999,-1.73952614 185.03476,1.5658882 C192.566511,4.96732396 191.137687,17.9525495 184.401964,39.1587901 C183.258015,42.7603118 181.971464,46.520236 180.567778,50.3945692 C178.755639,55.396281 176.829775,60.3693438 174.891219,65.1363711 L174.163863,66.914002 C173.484639,68.5638819 172.848299,70.081027 172.267498,71.4431278 L171.244135,73.8123212 C170.574589,75.3278652 168.803223,76.0136816 167.287679,75.3441351 C165.772135,74.6745885 165.086318,72.9032227 165.755865,71.3876788 L166.537036,69.5840672 L167.187136,68.0558744 C167.635686,66.9944303 168.113639,65.8492719 168.615632,64.6298987 C170.767585,59.4026685 172.919617,53.8902727 174.926607,48.3507513 C176.304283,44.5482095 177.565195,40.8632134 178.683497,37.3424373 L179.173435,35.7783969 C184.221468,19.4320351 185.35723,8.29501067 182.565888,7.03440453 C179.093877,5.46739075 175.393951,8.46488326 170.517617,18.1604507 L169.957968,19.2917784 C165.469349,28.5147117 160.664943,41.9777831 152.55622,67.2176092 C152.049439,68.795056 150.359838,69.6630017 148.782391,69.1562201 C147.204944,68.6494386 146.336998,66.9598376 146.84378,65.3823908 L148.586749,59.9819156 C155.999631,37.128766 160.552107,24.6941588 165.011981,15.7548196 L165.581976,14.6320086 Z" id="Path_2_" fill="#2E186A"></path>
                                </g>
                            </g>
                            <g id="head" transform="translate(313.000000, 0.000000)">
                                <path d="M84.8,336.2 L88.7,406.9 C88.7,406.9 82.1,445.1 135.1,438 C187.9,431 181.4,399.7 181.4,399.7 L165.1,311.9 L84.8,336.2 Z" id="neck" fill="#FFFFFF"></path>
                                <path d="M164.23107,309.028596 L83.9310696,333.328596 C82.6068013,333.72934 81.7283481,334.983761 81.804554,336.365237 L85.6879654,406.754212 L85.6467296,407.074778 C85.6256375,407.250123 85.604031,407.447828 85.5827972,407.666843 C85.0903011,412.746658 85.6617047,418.538084 88.1559782,424.114812 C94.2469487,437.733082 109.421597,444.466736 135.498329,440.973438 C156.782238,438.151711 170.627056,431.25111 178.219848,421.366178 C183.737931,414.182276 185.236687,406.628933 184.507612,400.223439 L184.457119,399.817095 C184.423309,399.567703 184.389715,399.361717 184.359402,399.201529 L168.049601,311.352409 C167.72331,309.594841 165.942043,308.51083 164.23107,309.028596 Z M87.925,338.388 L162.762,315.741 L178.478495,400.401939 C178.498643,400.523708 178.521476,400.685607 178.546104,400.90198 C179.113319,405.885409 177.918014,411.909439 173.461546,417.711242 C166.92766,426.217601 154.527537,432.39813 134.705723,435.026022 C111.071362,438.192132 98.5374436,432.630285 93.6330996,421.66509 C91.6277557,417.181516 91.154001,412.379805 91.5547956,408.245838 L91.5998365,407.823522 C91.6233017,407.62424 91.6433907,407.484904 91.6562014,407.410757 L91.6862812,407.186574 C91.7006807,407.036522 91.7037605,406.88549 91.695446,406.734763 L87.925,338.388 Z" id="neck_2_" fill="#2E186A"></path>
                                <path d="M185.4,222.7 C185.4,222.7 226.4,207.3 228,250 C229.6,292.7 185.4,281.6 185.4,281.6" id="ear" fill="#FFFFFF"></path>
                                <path d="M189.370125,218.428318 C195.293655,217.028221 201.404695,216.526309 207.206553,217.471777 C221.338182,219.774662 230.256931,230.113155 230.997896,249.887667 C231.764064,270.334766 222.660471,281.526867 207.362574,284.874791 C201.135052,286.237676 194.576792,286.157835 188.377612,285.215311 L187.409194,285.060308 C186.188883,284.854762 185.256897,284.657216 184.669296,284.509651 C183.06234,284.106095 182.086792,282.476252 182.490349,280.869296 C182.879493,279.319731 184.408895,278.357279 185.9585,278.652354 L186.609557,278.799481 L186.919588,278.864814 C187.607159,279.006667 188.398634,279.149555 189.279488,279.28348 C194.813484,280.124869 200.675545,280.196235 206.07984,279.013512 C218.598149,276.273897 225.657206,267.59538 225.002104,250.112333 L224.956029,249.096164 C224.088764,232.845799 217.296881,225.195239 206.241525,223.393662 C201.331023,222.593449 195.969491,223.033802 190.750269,224.267428 C189.740083,224.506198 188.80761,224.759034 187.968068,225.012807 L187.556112,225.139711 C187.249837,225.235868 186.997972,225.318704 186.804595,225.384608 L186.454872,225.508424 C184.903822,226.091014 183.174165,225.305921 182.591576,223.754872 C182.008986,222.203822 182.794079,220.474165 184.345128,219.891576 L184.73211,219.75083 C185.773064,219.3833 187.35984,218.903473 189.370125,218.428318 Z" id="ear_2_" fill="#2E186A"></path>
                                <path d="M108.5,357.7 L108.5,357.7 C64.1,357.7 28.1,321.7 28.1,277.3 L28.1,207.1 C28.1,178.7 51.2,155.6 79.6,155.6 L150,155.6 C171.5,155.6 189,173.1 189,194.6 L189,277.2 C189,321.6 153,357.7 108.5,357.7 Z" id="face" fill="#FFFFFF"></path>
                                <path d="M150,152.6 L79.6,152.6 C49.5431458,152.6 25.1,177.043146 25.1,207.1 L25.1,277.3 C25.1,323.356854 62.4431458,360.7 108.5,360.7 L109.856743,360.689099 C155.420454,359.949916 192,322.776157 192,277.2 L192,194.6 C192,171.443146 173.156854,152.6 150,152.6 Z M79.6,158.6 L150,158.6 C169.843146,158.6 186,174.756854 186,194.6 L186,277.2 C186,319.500252 152.047937,354.003846 109.783753,354.689593 L108.475679,354.700099 C65.7568542,354.700099 31.1,320.043146 31.1,277.3 L31.1,207.1 C31.1,180.356854 52.8568542,158.6 79.6,158.6 Z" id="face_2_" fill="#2E186A"></path>
                                <g id="headphones" transform="translate(14.000000, 250.000000)" fill="#FE7624">
                                    <path d="M193.7,65.3 C193.6,38 189.8,18.1 188.8,13.1 C188.8,12.8 188.9,12.4 188.9,12.1 C188.9,5.8 183.8,0.7 177.5,0.7 L177.5,12.1 L177.8,23.5 C180.2,23.4 182.4,22.6 184.2,21.3 C187.9,44.3 195.2,112.9 164.4,171.2 C158.8,181.9 153.5,191.8 148.3,201.3 C119.3,255.4 100.1,291.2 100.6,323.1 C100.6,324.7 102,326.1 103.6,326.1 C103.6,326.1 103.6,326.1 103.6,326.1 C105.3,326.1 106.6,324.7 106.6,323.1 C106.2,292.7 125.1,257.5 153.6,204.2 C158.7,194.6 164,184.8 169.7,174 C189.8,135.9 193.9,93.9 193.7,65.3 Z" id="Path"></path>
                                    <path d="M6.3,24.8 C7.7,25.6 9.2,26.1 10.9,26.2 L10.9,3.5 C5.6,4 1.4,8 0.7,13.2 C0.4,13.7 0.2,14.3 0.2,14.9 C0.2,19.5 0.2,127.2 32.2,175.8 C64.9,225.6 75,254 77.3,302.2 C77.4,303.8 78.7,305.1 80.3,305.1 C80.3,305.1 80.4,305.1 80.4,305.1 C82.1,305 83.3,303.6 83.3,302 C81,252.4 70.7,223.4 37.2,172.5 C11.6,133.7 7.1,52.9 6.3,24.8 Z" id="Path"></path>
                                </g>
                                <path d="M83.8490814,225.999991 C85.4465321,225.973315 86.7735218,227.199889 86.891484,228.77292 L86.8995679,228.949081 L87.977,292.433 L88.02405,292.451144 C88.241739,292.521468 88.4823073,292.506184 88.8126926,292.384198 L88.9599804,292.325324 C90.5023042,291.66551 92.5344212,289.433531 94.8670272,285.162135 C95.6611379,283.707985 97.4837139,283.172917 98.9378646,283.967027 C100.392015,284.761138 100.927083,286.583714 100.132973,288.037865 C94.6518036,298.074811 88.7542986,300.597791 84.0432268,297.037439 C83.3435853,296.508691 82.8514213,295.964765 82.5372844,295.513193 C82.2398925,295.085693 82.059643,294.589245 82.01246,294.073158 L82.0004321,293.850919 L80.9004321,229.050919 C80.8723106,227.394303 82.1924658,226.028554 83.8490814,225.999991 Z" id="nose" fill="#2E186A"></path>
                                <path d="M115.457257,301.889742 C117.13077,300.794575 119.387059,301.612636 119.969822,303.525859 L120.039856,303.773556 C120.113091,304.050667 120.19459,304.415025 120.272303,304.857659 C120.889585,308.373555 120.555011,312.262759 118.544459,315.986878 C115.194531,322.19191 107.954816,326.237146 96.294032,327.385556 C94.6451549,327.547946 93.1768333,326.342909 93.0144439,324.694032 C92.8520545,323.045155 94.0570909,321.576833 95.705968,321.414444 C105.524911,320.447427 110.956151,317.412688 113.264746,313.136504 C113.833843,312.082373 114.193687,310.989006 114.38243,309.897664 L114.447,309.474 L114.355915,309.524179 C101.315578,316.547107 88.2886986,317.015343 81.8326208,309.793197 L81.6174981,309.54684 C80.5422882,308.286249 80.6925692,306.392708 81.9531602,305.317498 C83.2137511,304.242288 85.1072919,304.392569 86.1825019,305.65316 C90.8239325,311.094838 103.108471,309.970933 115.457257,301.889742 Z" id="mouth" fill="#2E186A"></path>
                                <path d="M111.167654,202.595216 C117.713587,197.616501 125.485451,197.084602 133.867571,203.752197 C135.164227,204.783628 135.379234,206.670915 134.347803,207.967571 C133.316372,209.264227 131.429085,209.479234 130.132429,208.447803 C124.066996,203.623027 119.298401,203.949384 114.799914,207.370851 C114.191703,207.833445 113.64884,208.307073 113.062984,208.869762 L111.961243,209.95829 C111.806734,210.107173 111.675527,210.22644 111.534646,210.340477 C111.147378,210.653951 110.810209,210.864777 110.227607,211.010428 C108.620222,211.412274 106.991419,210.434992 106.589572,208.827607 C106.288188,207.622068 106.762563,206.404482 107.696702,205.701506 L107.827,205.608 L108.483751,204.955201 C109.382244,204.065515 110.198908,203.332027 111.167654,202.595216 Z" id="brow" fill="#2E186A"></path>
                                <ellipse id="eye_II" fill="#2E186A" cx="132" cy="248.1" rx="5" ry="7.7"></ellipse>
                                <ellipse id="eye" fill="#2E186A" cx="59.3" cy="250" rx="5" ry="7.7"></ellipse>
                                <path d="M45.354726,201.648408 C52.8431003,195.674854 61.0549739,195.393668 68.2671459,204.657008 C69.2850024,205.964346 69.0503308,207.849289 67.7429922,208.867146 C66.4356536,209.885002 64.5507106,209.650331 63.5328541,208.342992 C58.6643046,202.089809 54.2326694,202.241555 49.0963441,206.338855 C48.4014146,206.893207 47.7736333,207.459228 47.07968,208.138361 L45.9011143,209.314854 C45.7420053,209.469794 45.6095869,209.592194 45.4722893,209.706458 C45.0623693,210.047607 44.7423526,210.256741 44.1276069,210.410428 C42.5202222,210.812274 40.8914187,209.834992 40.4895725,208.227607 C40.1881879,207.022068 40.6625629,205.804482 41.5967024,205.101506 L41.712,205.019 L42.4841071,204.245006 C43.4687407,203.260454 44.3403004,202.457625 45.354726,201.648408 Z" id="brow_II" fill="#2E186A"></path>
                                <g id="hair_shape" transform="translate(24.000000, 0.000000)">
                                    <path d="M104.6,138.1 C85.1,138.4 70.3,139.3 61.5,141 C61.5,141 61.5,141 61.5,141 C-10.1,157.3 1.5,210.3 1.5,210.3 C1.5,210.3 36.5,217 65,174.8 C65,174.8 104.1,206.7 162,219.6 C162.9,219.4 164,219.1 165,218.8 L165,221.7 C168.4,220.8 173.9,219.8 179.6,220.2 C179,199.3 175.2,172.9 158,155.9 C145.8,143.8 127.8,137.8 104.6,138.1 Z" id="Path" fill="#2E186A"></path>
                                    <path d="M63.0872949,134.528523 C74.4956767,132.944026 92.4566061,131.902812 107.931768,132.000168 C138.839241,132.327479 159.495058,143.715827 171.736702,163.801192 C176.556077,171.708537 179.916607,180.70816 182.180441,190.80457 C183.851646,198.257928 184.74781,205.087903 185.588679,214.739623 C185.732482,216.390225 184.510979,217.844877 182.860377,217.988679 C181.209775,218.132482 179.755123,216.910979 179.611321,215.260377 L179.450165,213.465612 C177.585432,193.317952 174.386633,179.677836 166.613298,166.923808 C155.464897,148.632173 136.734766,138.305529 107.881132,137.999941 L106.118198,137.993856 C91.343646,137.98401 74.5906388,138.98843 63.9127051,140.471477 C62.2716038,140.699408 60.7564539,139.553806 60.5285232,137.912705 C60.3005924,136.271604 61.4461936,134.756454 63.0872949,134.528523 Z" id="Path" fill="#FFFFFF"></path>
                                    <path d="M292.5,94.6 C267.8,24 197.8,-15.7 136.1,5.9 C85.4,23.6 56.1,77.3 60.9,135 C70.2,133.4 84.8,132.4 104.6,132.1 C129.5,131.8 148.9,138.3 162.3,151.6 C181.3,170.4 185.2,198.9 185.7,221.1 C194.9,223.6 203.4,231.1 204.1,250 C204.2,251.9 202.5,266.6 202.9,266.5 C202.9,271.2 203.9,277.1 207.4,282.9 C214.3,294 228.3,300.9 249.1,303.3 C249.2,303.3 249.3,303.3 249.5,303.3 C251,303.3 252.3,302.2 252.5,300.7 C252.7,299.1 251.5,297.6 249.9,297.4 C231.1,295.2 218.5,289.3 212.6,279.8 C210.2,276 209.3,272.1 209,268.7 C214.1,274.7 223,281.2 237.1,281.2 C240.5,281.2 244.2,280.8 248.2,280 C249.8,279.7 250.9,278.1 250.5,276.5 C250.2,274.9 248.6,273.8 247,274.2 C228.8,278 218.7,271.1 213.4,264.9 C217.5,264 221.5,262.9 225.5,261.5 C287.1,239.8 317.1,165.1 292.5,94.6 Z" id="Path" fill="#2E186A"></path>
                                </g>
                                <g id="glasses" transform="translate(0.000000, 213.000000)" fill="#2E186A">
                                    <path d="M136.3,-2.6 C114.429524,-2.6 96.7,15.1295239 96.7,37 C96.7,58.8704761 114.429524,76.6 136.3,76.6 C158.170476,76.6 175.9,58.8704761 175.9,37 C175.9,15.1295239 158.170476,-2.6 136.3,-2.6 Z M136.3,3.4 C154.856768,3.4 169.9,18.4432324 169.9,37 C169.9,55.5567676 154.856768,70.6 136.3,70.6 C117.743232,70.6 102.7,55.5567676 102.7,37 C102.7,18.4432324 117.743232,3.4 136.3,3.4 Z" id="Oval"></path>
                                    <path d="M98.9,33.1 C100.556854,33.1 101.9,34.4431458 101.9,36.1 C101.9,37.6976809 100.65108,39.0036609 99.0762728,39.0949073 L98.9,39.1 L75.1,39.1 C73.4431458,39.1 72.1,37.7568542 72.1,36.1 C72.1,34.5023191 73.34892,33.1963391 74.9237272,33.1050927 L75.1,33.1 L98.9,33.1 Z" id="Path"></path>
                                    <path d="M187.523828,4.98831148 C188.966224,4.17304433 190.796421,4.68143249 191.611689,6.12382823 C192.396761,7.5128019 191.95441,9.26138315 190.632575,10.1169979 L190.476172,10.2116885 L169.776172,21.9116885 C168.333776,22.7269557 166.503579,22.2185675 165.688311,20.7761718 C164.903239,19.3871981 165.34559,17.6386169 166.667425,16.7830021 L166.823828,16.6883115 L187.523828,4.98831148 Z" id="Path"></path>
                                    <path d="M37.3,-2.6 C15.4295239,-2.6 -2.3,15.1295239 -2.3,37 C-2.3,58.8704761 15.4295239,76.6 37.3,76.6 C59.1704761,76.6 76.9,58.8704761 76.9,37 C76.9,15.1295239 59.1704761,-2.6 37.3,-2.6 Z M37.3,3.4 C55.8567676,3.4 70.9,18.4432324 70.9,37 C70.9,55.5567676 55.8567676,70.6 37.3,70.6 C18.7432324,70.6 3.7,55.5567676 3.7,37 C3.7,18.4432324 18.7432324,3.4 37.3,3.4 Z" id="Oval"></path>
                                </g>
                            </g>
                        </g>
                        <g id="laptop" transform="translate(482.000000, 497.000000)">
                            <path d="M360,170.8 L339.2,170.8 L329,19.5 C328.3,8.9 319.1,0.3 308.5,0.3 L18.6,0.3 C8,0.3 -0.1,8.9 0.7,19.5 L12,187 C12.7,197.6 21.9,206.2 32.5,206.2 L359.9,205.8 C365.9,205.8 370.701535,200.9 370.701535,195 L370.701535,181.7 C370.8,175.7 366,170.8 360,170.8 Z" id="shape" fill="#FE7624"></path>
                            <g id="icon" transform="translate(140.000000, 61.000000)" fill="#FFFFFF">
                                <path d="M44,39.4 C39.9,35 34.4,32.2 28.6,31.1 C29.5,29.8 30.1,28.2 30.3,26.5 C30.8,21.1 26.9,16.1 21.7,15.3 C21.6,15.3 21.5,15.3 21.4,15.3 C20.3,11.2 18.2,4.4 15.8,1.5 C14.9,0.4 13.2,2.27429187e-13 12,0.7 C10.9,1.4 10.7,2.8 11.6,3.9 C13.2,5.8 15.1,11.7 16.3,16.2 C13.6,17.6 11.7,20.3 11.4,23.7 C11.1,26.8 12.3,29.7 14.2,31.8 C12.4,32.4 10.7,33.1 9.1,34.1 C-1.3,40.6 -2.6,53.4 6.2,62.9 C15,72.3 30.7,74.7 41.1,68.2 C51.6,61.7 52.9,48.8 44,39.4 Z" id="Path"></path>
                                <path d="M39.6,1 C39.6,1 24.6,-2 22.6,10.5 C22.7,10.5 34.5,14.7 39.6,1 Z" id="Path"></path>
                            </g>
                        </g>
                        <path d="M1222.9,703.2 C1224.55685,703.2 1225.9,704.543146 1225.9,706.2 C1225.9,707.797681 1224.65108,709.103661 1223.07627,709.194907 L1222.9,709.2 L3.8,709.2 C2.14314575,709.2 0.8,707.856854 0.8,706.2 C0.8,704.602319 2.04891996,703.296339 3.62372721,703.205093 L3.8,703.2 L1222.9,703.2 Z" id="line" fill="#2E186A"></path>
                    </g>
                </g>
            </g>
        </g>
    </g>
</svg>
