<svg width="300" height="300" viewBox="0 0 300 300" fill="none" xmlns="http://www.w3.org/2000/svg">
  <path d="M148.23 274.398V211.956H166.17V196.824L181.302 211.956H261.912V274.398H148.23Z" fill="white" />
  <path
    d="M148.231 274.398C148.171 273.798 147.925 212.184 147.883 211.608H148.231L166.171 211.548L165.757 211.956L165.703 196.8V195.672L166.507 196.47L181.681 211.566C179.725 211.11 262.351 211.512 261.919 211.344H262.519V211.944L262.447 274.386V274.902H261.931C233.593 274.8 176.581 274.578 148.249 274.392L148.231 274.398ZM148.231 274.398C176.563 274.206 233.593 273.984 261.913 273.882L261.403 274.398L261.331 211.956L261.931 212.556L181.111 212.49L180.955 212.334L165.841 197.154L166.633 196.824L166.579 211.956V212.4H166.201L148.261 212.334L148.615 211.986L148.261 274.428L148.231 274.398Z"
    fill="#C5B3D1" />
  <path
    d="M232.814 247.632C235.268 246.283 236.162 243.2 234.812 240.746C233.463 238.293 230.38 237.399 227.926 238.748C225.473 240.098 224.579 243.181 225.928 245.634C227.278 248.088 230.361 248.982 232.814 247.632Z"
    fill="#C5B3D1" />
  <path
    d="M206.988 247.891C209.578 246.828 210.817 243.867 209.755 241.276C208.692 238.685 205.731 237.447 203.14 238.509C200.549 239.572 199.311 242.533 200.373 245.124C201.436 247.714 204.397 248.953 206.988 247.891Z"
    fill="#C5B3D1" />
  <path
    d="M180.364 248.228C183.143 247.887 185.12 245.358 184.779 242.579C184.439 239.799 181.909 237.823 179.13 238.163C176.351 238.504 174.374 241.033 174.715 243.813C175.055 246.592 177.585 248.569 180.364 248.228Z"
    fill="#C5B3D1" />
  <path
    d="M58.0116 100.655C72.1894 95.7228 79.6231 80.0539 74.6152 65.6569C69.6073 51.26 54.0542 43.5869 39.8763 48.5186C25.6985 53.4503 18.2648 69.1193 23.2727 83.5162C28.2806 97.9131 43.8337 105.586 58.0116 100.655Z"
    fill="#C5B3D1" />
  <path
    d="M27.7075 74.2379C27.6295 86.1059 37.0735 95.8859 48.8035 96.0779C51.6024 96.1153 54.3808 95.5958 56.9771 94.5496C59.5734 93.5034 61.9357 91.9514 63.9267 89.9838C65.9177 88.0163 67.4976 85.6725 68.5745 83.0888C69.6513 80.5051 70.2037 77.7331 70.1995 74.9339C70.2775 63.0599 60.8275 53.2859 49.1035 53.0939C46.3046 53.0565 43.5262 53.5761 40.9299 54.6223C38.3337 55.6685 35.9713 57.2205 33.9803 59.188C31.9894 61.1555 30.4095 63.4993 29.3326 66.083C28.2557 68.6667 27.7033 71.4388 27.7075 74.2379Z"
    fill="white" />
  <path
    d="M33.6355 74.3338C33.5964 78.4293 35.1695 82.376 38.0153 85.3216C40.861 88.2673 44.751 89.9756 48.8455 90.0778C50.8623 90.1033 52.8641 89.7275 54.7343 88.9723C56.6046 88.2172 58.3061 87.0977 59.7398 85.6791C61.1736 84.2604 62.311 82.5708 63.0858 80.7087C63.8607 78.8465 64.2576 76.8488 64.2535 74.8318C64.2926 70.7363 62.7194 66.7896 59.8737 63.844C57.028 60.8983 53.1379 59.19 49.0435 59.0878C47.0269 59.0632 45.0255 59.4395 43.1556 60.1949C41.2856 60.9504 39.5845 62.0699 38.1509 63.4884C36.7173 64.9069 35.5799 66.5961 34.8048 68.4579C34.0296 70.3198 33.6321 72.3171 33.6355 74.3338Z"
    fill="#C5B3D1" />
  <path
    d="M39.6003 74.4299C39.5696 76.9264 40.5243 79.3344 42.2575 81.1315C43.9906 82.9287 46.3624 83.9701 48.8583 84.0299C50.0863 84.045 51.3049 83.816 52.4436 83.3562C53.5823 82.8963 54.6182 82.2148 55.4913 81.3512C56.3644 80.4876 57.0572 79.4592 57.5294 78.3256C58.0017 77.192 58.244 75.9759 58.2423 74.7479C58.2715 72.2519 57.3162 69.8448 55.5834 68.048C53.8506 66.2512 51.4798 65.2093 48.9843 65.1479C47.7564 65.1328 46.5377 65.3618 45.3991 65.8217C44.2604 66.2815 43.2244 66.963 42.3514 67.8266C41.4783 68.6902 40.7855 69.7186 40.3132 70.8522C39.841 71.9858 39.5986 73.2019 39.6003 74.4299Z"
    fill="white" />
  <path
    d="M44.7956 74.514C44.7763 75.6269 45.1996 76.702 45.9725 77.503C46.7454 78.304 47.8046 78.7655 48.9175 78.786C49.4662 78.7956 50.0112 78.6957 50.5208 78.4921C51.0304 78.2886 51.4942 77.9855 51.8853 77.6006C52.2763 77.2157 52.5867 76.7567 52.7983 76.2504C53.0099 75.7441 53.1184 75.2007 53.1175 74.652C53.1352 73.5401 52.7112 72.4666 51.9385 71.6668C51.1657 70.8671 50.1074 70.4065 48.9956 70.386C48.4472 70.3756 47.9023 70.4748 47.3928 70.6776C46.8832 70.8805 46.4193 71.183 46.0282 71.5675C45.637 71.9519 45.3265 72.4105 45.1149 72.9165C44.9032 73.4224 44.7947 73.9656 44.7956 74.514Z"
    fill="#C5B3D1" />
  <path d="M49.1654 74.6759L77.6654 59.6879L77.4494 59.2739L48.9434 74.2619L49.1654 74.6759Z" fill="#C5B3D1" />
  <path d="M79.35 60.4139L79.242 60.3779L77.418 59.8139L81.018 57.9299L82.968 58.5239L79.35 60.4139Z" fill="#C5B3D1" />
  <path
    d="M81.4511 55.6199L80.8031 57.5159L77.2031 59.3999C77.4855 58.7958 77.6989 58.1618 77.8391 57.5099L81.4511 55.6199Z"
    fill="#C5B3D1" />
  <path d="M48.0723 74.1179L48.8223 75.4679L50.8263 75.2999L49.5123 74.2259L49.3803 72.5339L48.0723 74.1179Z"
    fill="#C5B3D1" />
  <path d="M70.5337 215.317L28.6445 230.762L38.4399 257.328L80.329 241.882L70.5337 215.317Z" fill="#C5B3D1" />
  <path
    d="M70.5483 215.304C69.4503 217.548 68.2983 219.732 67.1823 221.952C66.0663 224.172 64.8903 226.338 63.7263 228.516C62.5263 230.788 61.3063 233.052 60.0663 235.308L59.9583 235.518L56.6763 241.518L56.5083 241.8L56.2083 241.692L49.8423 239.292L49.6143 239.208C47.2143 238.296 44.8143 237.372 42.4143 236.418C40.1383 235.486 37.8443 234.556 35.5323 233.628C33.2403 232.662 30.9483 231.75 28.6562 230.754C30.9662 231.48 33.2703 232.278 35.5743 233.046C37.8783 233.814 40.1943 234.63 42.4983 235.446C45.0603 236.352 47.6343 237.276 50.2023 238.224L55.9803 240.342C56.9763 238.542 57.9783 236.742 58.9803 234.984C60.3243 232.584 61.6683 230.232 63.0363 227.868C64.2363 225.756 65.4843 223.668 66.7323 221.556C67.9803 219.444 69.2583 217.356 70.5483 215.304Z"
    fill="white" />
  <path
    d="M50.4907 238.8C50.4823 238.824 50.4702 238.846 50.4547 238.866L50.0047 239.67C49.2767 240.942 48.5167 242.19 47.7247 243.414C46.7647 244.926 45.7627 246.414 44.7247 247.878C43.6867 249.342 42.6607 250.794 41.5807 252.222C40.5007 253.65 39.3967 255.06 38.2207 256.422C39.0787 254.838 40.0207 253.314 40.9747 251.808C41.9287 250.302 42.9487 248.808 43.9747 247.344C45.0007 245.88 46.0387 244.422 47.1187 242.994C47.9827 241.854 48.8647 240.72 49.7887 239.622C50.0007 239.37 50.2167 239.118 50.4367 238.866C50.4367 238.866 50.4787 238.836 50.4907 238.8Z"
    fill="white" />
  <path
    d="M79.9317 241.056C78.1317 240.792 76.3917 240.456 74.6457 240.048C72.8997 239.64 71.1657 239.226 69.4317 238.788C67.6977 238.35 65.9817 237.852 64.2717 237.324C62.8797 236.904 61.4877 236.46 60.1197 235.956L59.2437 235.638L59.1777 235.608H59.2497L60.2397 235.77C61.6557 236.004 63.0597 236.298 64.4397 236.604C66.1857 236.988 67.9197 237.42 69.6477 237.87C71.3757 238.32 73.1037 238.8 74.8137 239.328C76.5237 239.856 78.2517 240.408 79.9317 241.056Z"
    fill="white" />
  <path d="M227.297 103.666L222.707 131.606L266.762 138.844L271.353 110.904L227.297 103.666Z" fill="#C5B3D1" />
  <path
    d="M271.345 110.892C269.287 112.302 267.205 113.634 265.135 115.014C263.065 116.394 260.977 117.696 258.895 119.022C256.719 120.402 254.539 121.766 252.355 123.114C252.291 123.161 252.225 123.205 252.157 123.246C250.231 124.446 248.293 125.646 246.361 126.846L246.073 127.014L245.863 126.768C244.411 125.024 242.963 123.276 241.519 121.524C241.464 121.466 241.414 121.404 241.369 121.338C239.725 119.358 238.099 117.372 236.479 115.338C234.931 113.43 233.389 111.492 231.847 109.56C230.305 107.628 228.787 105.66 227.287 103.668C228.937 105.468 230.545 107.268 232.171 109.068C233.797 110.868 235.405 112.728 237.001 114.582C238.789 116.626 240.567 118.698 242.335 120.798L246.313 125.496C248.065 124.434 249.823 123.36 251.575 122.316C253.921 120.906 256.261 119.502 258.619 118.116C260.725 116.886 262.819 115.656 264.949 114.45C267.079 113.244 269.209 112.038 271.345 110.892Z"
    fill="white" />
  <path
    d="M242.299 121.44L242.233 121.482L241.447 121.956C240.187 122.706 238.909 123.414 237.613 124.092C236.035 124.932 234.433 125.724 232.813 126.492C231.193 127.26 229.585 128.004 227.941 128.712C226.297 129.42 224.641 130.11 222.943 130.704C224.473 129.756 226.039 128.904 227.617 128.058C229.195 127.212 230.809 126.426 232.417 125.658C234.025 124.89 235.657 124.134 237.301 123.426C238.609 122.862 239.941 122.31 241.285 121.812L242.221 121.47L242.299 121.44Z"
    fill="white" />
  <path
    d="M266.796 137.922C265.38 136.812 264.024 135.63 262.698 134.436C261.372 133.242 260.076 132.006 258.786 130.77C257.496 129.534 256.242 128.25 255.012 126.948C254.01 125.892 253.026 124.818 252.084 123.708L251.484 123L251.436 122.94L251.502 122.988C251.766 123.198 252.024 123.402 252.276 123.618C253.392 124.518 254.466 125.466 255.534 126.42C256.866 127.62 258.162 128.85 259.446 130.092C260.73 131.334 261.984 132.612 263.214 133.914C264.444 135.216 265.65 136.53 266.796 137.922Z"
    fill="white" />
  <path d="M94.1521 272.658L113.514 270.264L106.578 214.2L82.0801 217.23L94.1521 272.658Z" fill="#25003F" />
  <path d="M82.0859 217.23L86.6819 238.374L94.1579 272.664L113.52 270.27L106.584 214.2L82.0859 217.23Z"
    fill="#25003F" />
  <path opacity="0.2" d="M82.0859 217.23L86.6819 238.374L94.1579 272.664L113.52 270.27L106.584 214.2L82.0859 217.23Z"
    fill="white" />
  <path opacity="0.1" d="M82.0859 217.23L85.1159 231.174L108.696 231.276L106.584 214.2L82.0859 217.23Z" fill="black" />
  <path d="M80.7155 226.091L111.197 222.322L108.333 199.164L77.8516 202.934L80.7155 226.091Z" fill="#25003F" />
  <path opacity="0.2" d="M80.7155 226.091L111.197 222.322L108.333 199.164L77.8516 202.934L80.7155 226.091Z"
    fill="black" />
  <path d="M56.3937 197.004L80.3638 196.44L75.7318 158.97L52.3438 164.262L56.3937 197.004Z" fill="#25003F" />
  <g opacity="0.2">
    <path d="M56.3937 197.004L80.3638 196.44L75.7318 158.97L52.3438 164.262L56.3937 197.004Z" fill="white" />
  </g>
  <path
    d="M86.9941 150.042L93.8281 205.338L134.148 205.188L230.73 227.742L214.302 94.95L126.132 140.37L86.9941 150.042Z"
    fill="#25003F" />
  <path opacity="0.2"
    d="M86.9941 150.042L93.8281 205.338L134.148 205.188L230.73 227.742L214.302 94.95L126.132 140.37L86.9941 150.042Z"
    fill="white" />
  <path opacity="0.1"
    d="M230.73 227.754L134.154 205.2L93.8342 205.356L92.0762 191.154C103.998 192.3 135.276 195.288 135.918 195.504L230.73 227.754Z"
    fill="black" />
  <path
    d="M232.922 227.811C244.768 226.346 250.676 195.283 246.118 158.431C241.561 121.578 228.263 92.8905 216.417 94.3555C204.572 95.8205 198.663 126.883 203.221 163.736C207.779 200.588 221.076 229.276 232.922 227.811Z"
    fill="#25003F" />
  <path opacity="0.2"
    d="M208.073 162C212.123 194.718 223.265 220.266 232.961 219.066C242.657 217.866 247.241 190.374 243.197 157.656C239.153 124.938 227.999 99.3659 218.309 100.56C208.619 101.754 204.029 129.258 208.073 162Z"
    fill="black" />
  <path
    d="M210.936 161.622C211.476 165.978 212.136 170.202 212.922 174.252C215.061 175.593 217.536 176.299 220.06 176.289C222.584 176.28 225.054 175.554 227.182 174.197C229.311 172.84 231.01 170.907 232.084 168.623C233.158 166.339 233.563 163.797 233.25 161.292L232.476 155.028C232.174 152.529 231.171 150.167 229.584 148.214C227.996 146.26 225.888 144.796 223.504 143.991C221.119 143.185 218.555 143.07 216.108 143.66C213.661 144.25 211.431 145.52 209.676 147.324C209.91 151.926 210.33 156.72 210.936 161.622Z"
    fill="#25003F" />
  <path opacity="0.2"
    d="M210.936 161.622C211.476 165.978 212.136 170.202 212.922 174.252C215.061 175.593 217.536 176.299 220.06 176.289C222.584 176.28 225.054 175.554 227.182 174.197C229.311 172.84 231.01 170.907 232.084 168.623C233.158 166.339 233.563 163.797 233.25 161.292L232.476 155.028C232.174 152.529 231.171 150.167 229.584 148.214C227.996 146.26 225.888 144.796 223.504 143.991C221.119 143.185 218.555 143.07 216.108 143.66C213.661 144.25 211.431 145.52 209.676 147.324C209.91 151.926 210.33 156.72 210.936 161.622Z"
    fill="white" />
  <path d="M72.7792 211.056L119.135 209.964L110.171 137.502L64.9492 147.744L72.7792 211.056Z" fill="#25003F" />
  <g opacity="0.1">
    <path d="M72.7792 211.056L119.135 209.964L110.171 137.502L64.9492 147.744L72.7792 211.056Z" fill="black" />
  </g>
  <path opacity="0.2"
    d="M209.778 99.6001C206.646 104.13 205.056 109.524 203.742 114.834C202.541 120.202 201.769 125.658 201.432 131.148C201.186 133.89 201.186 136.638 201.09 139.386C201.15 142.134 201.126 144.882 201.246 147.624C201.366 150.366 201.486 153.114 201.738 155.85C201.99 158.586 202.2 161.322 202.512 164.052C203.838 174.942 205.776 185.808 209.064 196.314C210.682 201.575 212.762 206.683 215.28 211.578C217.932 216.378 220.992 221.124 225.42 224.424C221.22 220.86 218.364 216.084 215.97 211.224C213.613 206.311 211.69 201.202 210.222 195.954C207.26 185.451 205.205 174.714 204.078 163.86C202.794 153.06 202.098 142.098 202.632 131.214C202.829 125.774 203.45 120.357 204.492 115.014C205.542 109.692 206.952 104.328 209.778 99.6001Z"
    fill="black" />
  <path
    d="M154.284 98.076C152.994 105.126 143.766 106.644 142.356 105.132C136.632 99.018 130.554 87.132 123.972 73.86C118.824 63.492 122.136 63.162 126.612 65.928C137.022 72.366 154.98 94.29 154.284 98.076Z"
    fill="#9903FF" />
  <path opacity="0.1"
    d="M154.283 98.0819C152.993 105.126 143.771 106.644 142.355 105.132C136.631 99.0179 130.559 87.1319 123.971 73.8599C121.481 68.8379 120.869 65.6939 121.847 64.7639L154.151 96.6779C154.298 97.1306 154.343 97.6099 154.283 98.0819Z"
    fill="black" />
  <path
    d="M138.6 98.4299C137.328 93.9539 141.066 87.2159 149.736 70.9439C150.936 68.6879 169.092 74.7119 167.934 77.1839C166.476 80.2919 158.874 91.9619 157.386 93.5519C150.12 101.328 139.47 101.46 138.6 98.4299Z"
    fill="#EB9481" />
  <path
    d="M161.183 83.286C161.183 83.286 167.627 80.814 171.761 79.002C174.065 77.988 177.869 75.9 179.225 74.382C181.253 72.108 188.279 61.314 185.693 59.556C183.359 57.96 178.493 68.004 178.493 68.004C178.493 68.004 184.295 58.302 181.127 56.904C177.959 55.506 173.999 67.578 173.999 67.578C173.999 67.578 179.735 57.48 176.237 56.55C173.591 55.848 169.367 66.6 169.367 66.6C169.367 66.6 174.233 57.888 171.551 57.048C168.587 56.118 164.069 65.784 164.069 65.784C156.869 64.8 151.337 68.184 149.339 71.706C148.955 72.378 161.183 83.286 161.183 83.286Z"
    fill="#EB9481" />
  <path
    d="M177.001 71.022C181.801 64.2 182.089 59.382 182.059 59.508C181.273 62.508 179.119 66.708 178.495 67.908C177.871 69.108 177.577 69.816 176.959 70.992C176.911 71.028 176.953 71.046 177.001 71.022Z"
    fill="#263238" />
  <path
    d="M172.427 69.3239C174.499 66.6518 176.08 63.6329 177.095 60.4079C177.095 60.2819 177.065 60.2999 177.005 60.4079C176.255 61.9199 173.207 67.8179 172.391 69.2939C172.379 69.3299 172.409 69.3419 172.427 69.3239Z"
    fill="#263238" />
  <path
    d="M168.413 68.124C169.978 66.021 171.135 63.6442 171.827 61.116C171.863 60.996 171.767 61.026 171.713 61.116C170.627 63.462 169.787 65.316 168.341 68.046C168.317 68.118 168.383 68.172 168.413 68.124Z"
    fill="#263238" />
  <path
    d="M163.992 85.92L144.702 76.668C144.702 76.668 135.6 95.172 137.712 99.258C138.66 101.058 141.972 105.828 145.692 105.954C154.242 106.248 163.992 85.92 163.992 85.92Z"
    fill="#9903FF" />
  <path
    d="M143.585 81.4799C145.721 82.6019 147.905 83.6099 150.095 84.6119C152.285 85.6139 154.481 86.6219 156.695 87.5699C157.949 88.1039 159.197 88.6499 160.469 89.1419C160.505 89.1419 160.529 89.0999 160.499 89.0819C158.369 87.9599 156.179 86.9399 154.001 85.9259C151.823 84.9119 149.615 83.9159 147.401 82.9259C146.153 82.3799 144.899 81.8519 143.627 81.3599C143.579 81.3479 143.525 81.4439 143.585 81.4799Z"
    fill="#263238" />
  <path
    d="M144.941 76.6379C144.755 76.5059 144.485 76.3439 144.461 76.3919C143.861 77.5919 143.339 78.9299 142.841 80.1779C142.343 81.4259 141.887 82.6499 141.443 83.8979C141.203 84.5699 140.975 85.2479 140.771 85.9259C140.2 86.6945 139.779 87.5636 139.529 88.4879C139.529 88.5359 139.595 88.5599 139.607 88.4879C139.863 87.6724 140.228 86.8953 140.693 86.1779C140.172 87.8382 139.905 89.5678 139.901 91.3079C139.901 88.7099 141.035 86.1959 141.899 83.7959C142.331 82.5959 142.793 81.3959 143.255 80.1959C143.717 78.9959 144.233 77.8319 144.683 76.6379L144.935 76.7579C144.995 76.7999 144.977 76.6679 144.941 76.6379Z"
    fill="#263238" />
  <path
    d="M123.671 65.364C127.271 67.554 133.679 77.172 136.757 88.59C137.533 91.787 138.148 95.0211 138.599 98.28C140.399 110.208 142.799 123.582 143.045 128.034C143.351 133.968 133.007 144.27 127.919 142.986C122.831 141.702 114.455 143.904 123.371 110.082C125.711 101.196 128.321 81.714 125.363 71.022C124.895 69.1086 124.33 67.2201 123.671 65.364Z"
    fill="#9903FF" />
  <path
    d="M176.652 212.208C174.99 211.854 135.216 188.436 134.262 186.582C133.896 185.88 136.974 179.892 140.862 172.782C141.708 171.24 142.59 169.656 143.496 168.048C149.364 157.62 155.838 146.688 155.838 146.688L182.49 162.288L169.416 183.222L166.578 187.8C166.578 187.8 177.798 203.58 178.62 205.722C179.442 207.864 178.32 212.562 176.652 212.208Z"
    fill="#EB9481" />
  <path
    d="M176.651 212.208C174.989 211.854 135.215 188.436 134.261 186.582C133.943 185.982 136.295 181.236 139.541 175.23C141.089 177.594 164.183 197.574 171.839 199.482C174.965 200.262 170.117 192.834 169.913 192.516C173.285 197.346 178.079 204.312 178.607 205.686C179.441 207.84 178.319 212.562 176.651 212.208Z"
    fill="#263238" />
  <path d="M170.363 193.134C170.363 193.134 166.889 190.062 160.217 192.756L170.363 193.134Z" fill="#263238" />
  <path
    d="M200.117 129.258C197.615 141.678 171.671 183.144 171.671 183.144L143.225 165.942L162.341 136.158C162.341 136.158 123.341 140.838 108.509 134.592C92.6454 127.926 94.9554 108.924 94.9554 108.924L133.565 104.334C133.565 104.334 134.591 107.964 138.929 107.634C153.881 106.47 174.275 107.034 182.129 107.886C192.257 108.99 202.415 117.864 200.117 129.258Z"
    fill="#37474F" />
  <path
    d="M171.168 125.754C170.268 126.641 169.424 127.583 168.642 128.574C167.778 129.564 166.902 130.542 166.032 131.532V131.562L166.518 130.674C167.118 129.666 167.568 128.622 168.228 127.674C168.264 127.614 168.18 127.548 168.138 127.608C167.46 128.55 166.692 129.408 166.098 130.44C165.822 130.914 165.552 131.394 165.306 131.88C165.168 132.144 165.024 132.414 164.898 132.684C164.844 132.81 164.772 132.942 164.73 133.074C164.34 133.536 163.956 133.998 163.578 134.472C162.75 135.516 162 136.632 161.178 137.67C161.13 137.724 161.22 137.784 161.268 137.73C162.114 136.758 163.068 135.864 163.908 134.904C164.748 133.944 165.612 132.912 166.44 131.904C167.268 130.896 168.03 129.9 168.84 128.904C169.715 127.93 170.528 126.902 171.276 125.826C171.246 125.772 171.204 125.724 171.168 125.754Z"
    fill="#263238" />
  <path
    d="M173.502 176.466C172.758 175.902 171.966 175.386 171.192 174.864C170.418 174.342 169.662 173.826 168.888 173.316C167.316 172.272 165.72 171.252 164.124 170.232C160.926 168.18 157.704 166.17 154.476 164.16C152.676 163.032 150.84 161.94 149.022 160.824C148.992 160.824 148.944 160.86 148.98 160.878C152.068 163.002 155.176 165.1 158.304 167.172C161.432 169.244 164.632 171.288 167.904 173.304C168.804 173.856 169.71 174.4 170.622 174.936C171.546 175.476 172.47 176.052 173.424 176.538C173.484 176.562 173.538 176.496 173.502 176.466Z"
    fill="#263238" />
  <path
    d="M100.265 110.118C99.8789 115.173 101.439 120.185 104.627 124.128C106.233 126.044 108.195 127.632 110.405 128.802C112.633 129.937 115.027 130.712 117.497 131.1C122.442 131.938 127.446 132.381 132.461 132.426C137.481 132.514 142.497 132.364 147.509 131.976C152.515 131.642 157.495 130.991 162.419 130.026C163.619 129.768 164.867 129.486 166.067 129.15C166.667 128.976 167.267 128.796 167.867 128.598C168.462 128.353 169.081 128.172 169.715 128.058C170.058 128.002 170.41 128.019 170.747 128.106C170.937 128.159 171.109 128.261 171.248 128.4C171.387 128.54 171.487 128.714 171.539 128.904C171.585 129.078 171.606 129.258 171.599 129.438C171.589 129.62 171.546 129.799 171.473 129.966C171.353 130.278 171.215 130.566 171.071 130.848C170.471 131.97 169.841 133.056 169.199 134.136C163.967 142.734 158.363 151.086 152.747 159.426C155.487 155.21 158.203 150.98 160.895 146.736C163.589 142.494 166.295 138.246 168.839 133.926C169.469 132.84 170.099 131.754 170.639 130.644C170.777 130.362 170.915 130.086 171.023 129.804C171.075 129.684 171.105 129.556 171.113 129.426C171.121 129.293 171.107 129.159 171.071 129.03C170.957 128.526 170.327 128.43 169.751 128.52C169.148 128.635 168.559 128.812 167.993 129.048C167.393 129.252 166.793 129.438 166.193 129.612C164.993 129.954 163.745 130.212 162.515 130.506C157.563 131.494 152.552 132.165 147.515 132.516C142.495 132.88 137.463 133.012 132.419 132.912C127.376 132.863 122.347 132.391 117.383 131.502C114.923 130.986 112.421 130.374 110.183 129.102C107.948 127.897 105.971 126.266 104.363 124.302C102.802 122.316 101.656 120.037 100.991 117.6C100.289 115.172 100.043 112.635 100.265 110.118Z"
    fill="#263238" />
  <path
    d="M139.799 214.992C138.245 214.302 104.219 183.114 103.673 181.104C103.463 180.342 107.711 175.104 113.033 168.96C114.179 167.628 115.373 166.26 116.597 164.88C124.505 155.88 133.115 146.556 133.115 146.556L155.915 167.352L138.779 185.106L134.999 189C134.999 189 142.685 206.766 143.045 209.034C143.405 211.302 141.341 215.682 139.799 214.992Z"
    fill="#EB9481" />
  <path
    d="M139.799 214.992C138.251 214.302 104.225 183.114 103.679 181.104C103.493 180.432 106.775 176.304 111.203 171.096C112.223 173.73 130.649 198.096 137.735 201.54C140.639 202.956 137.441 194.682 137.303 194.34C139.595 199.74 142.835 207.582 143.063 209.034C143.399 211.302 141.341 215.688 139.799 214.992Z"
    fill="#263238" />
  <path d="M137.604 195C137.604 195 134.85 191.274 127.758 192.522L137.604 195Z" fill="#263238" />
  <path
    d="M182.784 132.156C180.282 144.576 146.946 178.656 143.094 182.556L142.2 183.456L117.984 162.09L118.308 161.73L136.674 141.51C136.674 141.51 108.39 151.11 96.276 133.602C91.476 126.648 94.938 108.924 94.938 108.924L125.958 105.366C125.958 105.366 126.486 110.676 130.824 110.34C145.782 109.176 157.536 108.072 165.39 108.924C175.536 110.028 185.082 120.762 182.784 132.156Z"
    fill="#37474F" />
  <path
    d="M131.688 110.274C141.287 109.356 150.948 108.558 160.632 108.57C161.832 108.57 163.031 108.612 164.267 108.69C165.488 108.747 166.701 108.899 167.897 109.146C168.494 109.3 169.078 109.5 169.643 109.746C170.207 109.98 170.765 110.226 171.311 110.502C172.405 111.044 173.456 111.668 174.456 112.368C176.476 113.753 178.253 115.462 179.717 117.426C181.183 119.398 182.244 121.641 182.838 124.026C183.128 125.218 183.303 126.436 183.36 127.662C183.36 127.968 183.36 128.262 183.36 128.58C183.36 128.898 183.36 129.18 183.36 129.504C183.307 130.11 183.212 130.711 183.078 131.304C182.466 133.667 181.555 135.941 180.365 138.072C178.017 142.313 175.33 146.358 172.332 150.168C169.38 154.002 166.265 157.704 163.067 161.328C159.87 164.952 156.546 168.468 153.192 171.948C156.48 168.408 159.726 164.826 162.87 161.148C166.014 157.47 169.098 153.768 172.002 149.91C174.949 146.094 177.601 142.058 179.934 137.838C181.095 135.742 181.983 133.506 182.574 131.184C182.703 130.607 182.791 130.021 182.838 129.432C182.871 128.832 182.871 128.231 182.838 127.632C182.78 126.442 182.607 125.26 182.321 124.104C181.756 121.785 180.736 119.601 179.321 117.678C177.9 115.752 176.168 114.075 174.197 112.716C173.219 112.026 172.19 111.411 171.12 110.874C170.586 110.604 170.046 110.358 169.488 110.13C168.947 109.885 168.387 109.685 167.814 109.53C166.643 109.286 165.455 109.13 164.261 109.062C163.061 108.978 161.861 108.936 160.661 108.912C155.861 108.834 151.008 109.026 146.184 109.266C141.36 109.506 136.499 109.884 131.688 110.274Z"
    fill="#263238" />
  <path
    d="M146.677 129.546C145.777 130.429 144.936 131.369 144.157 132.36C143.287 133.35 142.411 134.328 141.547 135.318V135.348C141.709 135.054 141.865 134.748 142.033 134.46C142.603 133.458 143.077 132.414 143.737 131.46C143.745 131.448 143.749 131.433 143.747 131.418C143.744 131.404 143.736 131.391 143.725 131.382C143.713 131.373 143.698 131.37 143.683 131.372C143.668 131.374 143.655 131.382 143.647 131.394C142.975 132.342 142.201 133.23 141.607 134.232C141.331 134.7 141.067 135.18 140.815 135.666C140.677 135.936 140.539 136.2 140.413 136.47C140.347 136.599 140.289 136.731 140.239 136.866C139.849 137.322 139.465 137.79 139.093 138.258C138.259 139.302 137.509 140.418 136.693 141.456C136.651 141.51 136.741 141.57 136.783 141.516C137.629 140.55 138.583 139.656 139.423 138.69C140.263 137.724 141.133 136.698 141.955 135.69C142.777 134.682 143.551 133.692 144.355 132.69C145.226 131.712 146.038 130.682 146.785 129.606C146.761 129.564 146.713 129.51 146.677 129.546Z"
    fill="#263238" />
  <path
    d="M145.313 177.828C144.677 177.144 143.975 176.502 143.303 175.854C142.631 175.206 141.971 174.576 141.293 173.946C139.919 172.65 138.515 171.378 137.093 170.1C134.291 167.544 131.447 165.018 128.603 162.492C127.013 161.076 125.393 159.69 123.803 158.292C123.773 158.292 123.719 158.292 123.749 158.34C126.437 160.952 129.149 163.542 131.885 166.11C134.621 168.678 137.437 171.234 140.333 173.778C141.125 174.474 141.929 175.158 142.733 175.842C143.537 176.526 144.365 177.252 145.223 177.894C145.283 177.918 145.343 177.864 145.313 177.828Z"
    fill="#263238" />
  <path
    d="M99.162 110.634C98.6032 113.346 98.4015 116.12 98.562 118.884C98.6985 121.642 99.3497 124.351 100.482 126.87C101.643 129.368 103.486 131.487 105.798 132.984C108.142 134.415 110.784 135.286 113.52 135.528C116.271 135.824 119.044 135.849 121.8 135.6C124.552 135.373 127.29 134.998 130.002 134.478C135.434 133.462 140.789 132.068 146.028 130.308L146.226 130.242L146.316 130.416C146.646 131.081 146.849 131.801 146.916 132.54C146.986 133.266 146.942 133.999 146.784 134.712C146.625 135.422 146.373 136.108 146.034 136.752C145.675 137.367 145.274 137.956 144.834 138.516C143.07 140.73 141.174 142.824 139.278 144.912C137.382 147 135.438 149.052 133.488 151.08C131.538 153.108 129.57 155.142 127.59 157.152C129.526 155.1 131.448 153.036 133.356 150.96C135.258 148.878 137.16 146.796 139.038 144.696C140.916 142.596 142.776 140.496 144.498 138.258C144.927 137.714 145.318 137.14 145.668 136.542C145.979 135.932 146.213 135.285 146.364 134.616C146.665 133.286 146.518 131.893 145.944 130.656L146.232 130.758C140.951 132.551 135.549 133.969 130.068 135C127.334 135.515 124.574 135.884 121.8 136.104C119.021 136.341 116.226 136.305 113.454 135.996C110.662 135.735 107.971 134.818 105.6 133.32C103.238 131.765 101.366 129.572 100.2 126.996C99.0822 124.438 98.4709 121.687 98.4 118.896C98.2894 116.121 98.5456 113.343 99.162 110.634Z"
    fill="#263238" />
  <path
    d="M112.457 110.244C112.175 111.702 111.803 113.148 111.395 114.576C111.102 115.876 110.56 117.106 109.799 118.2C108.982 119.16 107.956 119.919 106.799 120.42C106.137 120.733 105.455 121.006 104.759 121.236C104.043 121.437 103.343 121.692 102.665 121.998C102.638 122.013 102.617 122.036 102.604 122.064C102.59 122.091 102.587 122.123 102.593 122.153C102.599 122.183 102.614 122.211 102.637 122.231C102.66 122.252 102.689 122.265 102.719 122.268C103.506 122.256 104.288 122.147 105.047 121.944C105.788 121.778 106.515 121.554 107.219 121.272C108.502 120.751 109.63 119.911 110.495 118.83C111.315 117.649 111.86 116.3 112.091 114.882C112.431 113.36 112.622 111.809 112.661 110.25C112.662 110.223 112.652 110.197 112.634 110.177C112.615 110.157 112.59 110.146 112.562 110.145C112.535 110.144 112.509 110.154 112.489 110.173C112.47 110.191 112.458 110.217 112.457 110.244Z"
    fill="#263238" />
  <path
    d="M94.373 110.04L135.239 108.6L132.239 93.3C132.239 93.3 135.623 88.878 134.789 84.24C133.871 79.164 124.223 66.552 123.389 65.85C120.179 63.036 117.287 61.992 114.599 63.972C105.257 70.884 94.373 110.04 94.373 110.04Z"
    fill="#9903FF" />
  <path
    d="M126.762 91.758C124.938 91.9874 123.133 92.3504 121.362 92.844C120.492 93.102 119.634 93.402 118.776 93.72C118.35 93.876 117.918 94.02 117.486 94.158C117.038 94.3185 116.573 94.4233 116.1 94.47C116.058 94.47 116.058 94.536 116.1 94.536C116.549 94.5451 116.998 94.5211 117.444 94.464C117.876 94.398 118.303 94.3018 118.722 94.176C119.61 93.924 120.492 93.63 121.38 93.366C123.18 92.838 124.98 92.31 126.78 91.908C126.876 91.89 126.846 91.746 126.762 91.758Z"
    fill="#263238" />
  <path
    d="M131.334 93.222C129.822 93.115 128.306 93.095 126.792 93.162C126.036 93.198 125.286 93.276 124.536 93.378C124.176 93.426 123.816 93.48 123.462 93.54C123.108 93.6 122.682 93.72 122.262 93.78C122.22 93.78 122.22 93.852 122.262 93.846C122.634 93.798 123.018 93.846 123.396 93.798L124.524 93.726L126.786 93.594C128.298 93.486 129.786 93.396 131.316 93.348C131.4 93.342 131.4 93.228 131.334 93.222Z"
    fill="#263238" />
  <path
    d="M109.332 69.462C99.2218 82.098 87.6838 107.55 90.9718 112.062C94.6378 117.084 108.702 99.384 108.528 98.466C108.396 97.77 112.248 82.68 115.23 71.682C118.212 60.684 111.834 66.342 109.332 69.462Z"
    fill="#EB9481" />
  <path
    d="M108.635 98.4661C108.935 96.8641 114.257 76.9321 115.709 70.6561C117.011 65.0281 115.709 62.9281 111.509 66.8161C103.709 73.9681 89.171 94.8301 87.239 104.97C85.385 114.744 93.533 114.57 99.599 109.476C104.537 105.294 108.635 98.4661 108.635 98.4661Z"
    fill="#9903FF" />
  <path d="M107.957 101.04C109.589 93.504 111.511 86.036 113.723 78.636C112.099 86.176 110.177 93.644 107.957 101.04Z"
    fill="#263238" />
  <path
    d="M112.686 82.9921C112.89 81.9768 113.364 81.0356 114.06 80.2681C113.923 81.3053 113.438 82.2656 112.686 82.9921Z"
    fill="#263238" />
  <path d="M171.791 107.472H130.043V109.476H171.791V107.472Z" fill="#455A64" />
  <path d="M149.591 107.472H130.043V109.476H149.591V107.472Z" fill="#A6A6A6" />
  <path d="M148.758 109.476H192.318L198.474 79.8901H154.914L148.758 109.476Z" fill="#A6A6A6" />
  <path d="M150.732 109.476H194.292L200.448 79.8901H156.888L150.732 109.476Z" fill="#C7C7C7" />
  <path
    d="M172.685 95.3401C172.636 95.7071 172.666 96.0805 172.775 96.4346C172.884 96.7887 173.068 97.1149 173.315 97.391C173.562 97.667 173.866 97.8862 174.205 98.0335C174.545 98.1808 174.913 98.2526 175.283 98.2441C176.078 98.2281 176.841 97.9255 177.431 97.3919C178.021 96.8583 178.398 96.1297 178.493 95.3401C178.542 94.9732 178.51 94.6002 178.401 94.2466C178.292 93.893 178.108 93.5671 177.861 93.2913C177.614 93.0155 177.311 92.7963 176.972 92.6487C176.632 92.5011 176.265 92.4286 175.895 92.4361C175.1 92.4533 174.338 92.7563 173.749 93.2897C173.159 93.823 172.782 94.551 172.685 95.3401Z"
    fill="#C5B3D1" />
  <path
    d="M90.9889 111.144C94.7449 113.67 101.585 111.786 119.249 108.654C121.691 108.222 123.275 90.1501 120.641 90.4801C117.323 90.8941 104.537 93.2161 103.625 93.4801C95.9209 95.9341 88.4389 109.434 90.9889 111.144Z"
    fill="#EB9481" />
  <path
    d="M118.068 91.6919C118.068 91.6919 124.218 88.2719 128.004 87.4919C131.96 86.7599 136.036 87.0029 139.878 88.1999C144.03 89.4719 153.192 95.3999 151.944 98.3579C150.804 101.016 141.744 94.4639 141.744 94.4639C141.744 94.4639 152.082 99.6239 150.144 102.57C148.206 105.516 138.108 97.3199 138.108 97.3199C138.108 97.3199 148.614 102.858 146.112 105.582C144.228 107.64 134.676 100.722 134.676 100.722C134.676 100.722 143.676 105.522 141.822 107.742C139.782 110.178 130.566 104.34 130.566 104.34C124.92 109.14 120.27 109.14 116.964 108.714C116.154 108.6 118.068 91.6919 118.068 91.6919Z"
    fill="#EB9481" />
  <path
    d="M138.288 92.4299C139.524 92.9879 140.778 93.5519 141.96 94.2299C143.142 94.9079 144.306 95.6099 145.416 96.3899C146.892 97.3775 148.251 98.5311 149.466 99.8279C147.144 97.6799 142.95 95.2199 141.768 94.5479C140.586 93.8759 139.44 93.1499 138.264 92.4839L138.288 92.4299Z"
    fill="#263238" />
  <path
    d="M135.792 96.6539C137.34 97.4399 138.906 98.1599 140.418 99.0119C141.93 99.8639 143.28 100.812 144.72 101.754C144.834 101.826 144.756 101.862 144.642 101.796C143.16 100.902 141.726 100.188 140.232 99.3119C138.738 98.4359 137.286 97.5119 135.768 96.6839C135.744 96.6719 135.768 96.6419 135.792 96.6539Z"
    fill="#263238" />
  <path
    d="M132.996 99.8939C135.4 101.041 137.68 102.432 139.8 104.046C139.908 104.124 139.8 104.16 139.692 104.088C137.454 102.66 135.714 101.532 132.966 99.9779C132.918 99.9539 132.948 99.8699 132.996 99.8939Z"
    fill="#263238" />
  <path
    d="M117.054 89.1421L109.8 114.42C109.8 114.42 91.7216 114.738 88.7996 111.66C86.7116 109.458 94.8596 96.4501 103.308 93.4861L117.054 89.1421Z"
    fill="#9903FF" />
  <path
    d="M94.5778 100.518C95.3698 98.94 98.4358 95.256 103.296 93.468C103.338 93.468 103.374 93.516 103.332 93.54C99.8398 95.22 95.5318 99.102 94.6378 100.554C94.6138 100.596 94.5538 100.554 94.5778 100.518Z"
    fill="#263238" />
  <path
    d="M106.201 110.862C106.711 108.372 107.353 105.912 108.001 103.452C108.649 100.992 109.291 98.5261 109.999 96.0841C110.401 94.7041 110.791 93.3181 111.241 91.9501C111.241 91.9141 111.313 91.9501 111.307 91.9501C110.803 94.4401 110.167 96.9061 109.507 99.3661C108.847 101.826 108.223 104.292 107.539 106.746C107.155 108.132 106.747 109.512 106.297 110.874C106.273 110.958 106.159 110.934 106.201 110.862Z"
    fill="#263238" />
  <path
    d="M117 88.932C116.028 89.1142 115.07 89.3628 114.132 89.676C113.184 89.96 112.24 90.258 111.3 90.57C109.428 91.17 105.396 92.274 102.21 93.93C102.174 93.93 102.444 94.026 102.474 94.008C103.95 93.144 115.956 89.682 116.874 89.286C116.868 89.3619 116.868 89.4381 116.874 89.514C116.874 89.568 116.952 89.604 116.982 89.55C117.012 89.496 117.09 89.28 117.15 89.142C117.163 89.1184 117.169 89.0916 117.167 89.0648C117.165 89.0381 117.156 89.0123 117.14 88.9905C117.125 88.9686 117.104 88.9516 117.079 88.9413C117.054 88.9309 117.027 88.9277 117 88.932Z"
    fill="#263238" />
  <path
    d="M111.096 110.136C110.724 111.624 110.322 113.1 109.896 114.57C108.444 114.57 106.992 114.57 105.546 114.522C101.346 114.384 97.0562 114.198 92.9102 113.322C97.6742 113.886 104.91 114.048 109.782 114.276L109.632 114.384C110.1 112.96 110.586 111.546 111.09 110.142L111.096 110.136Z"
    fill="#263238" />
  <path
    d="M115.488 66.2759C115.71 67.0319 119.616 71.8379 123.114 71.4959C124.248 71.3879 123.918 65.1359 123.918 65.1359L123.996 64.6679L125.118 58.1279L117.288 53.6339L116.16 53.0339C116.16 53.0339 115.974 54.8339 115.758 57.1019C115.758 57.2039 115.758 57.3059 115.728 57.4199C115.698 57.5339 115.728 57.6659 115.686 57.7859C115.65 58.1219 115.614 58.4699 115.59 58.8119C115.566 59.1539 115.542 59.3279 115.53 59.5979C115.518 59.8679 115.494 60.1439 115.47 60.4199C115.346 62.3702 115.352 64.3265 115.488 66.2759Z"
    fill="#EB9481" />
  <path
    d="M115.758 57.1079C116.5 58.8904 117.621 60.49 119.044 61.7955C120.467 63.101 122.156 64.0812 123.996 64.6679L125.118 58.1279L117.288 53.6339L116.16 53.0339C116.16 53.0339 115.974 54.8519 115.758 57.1079Z"
    fill="#263238" />
  <path
    d="M114.299 52.9141C111.647 52.8181 105.437 55.8301 103.865 59.6281C102.293 63.4261 103.487 68.8921 104.711 69.2281C105.935 69.5641 110.711 68.2561 113.711 65.8081C116.711 63.3601 115.601 52.9621 114.299 52.9141Z"
    fill="#263238" />
  <path
    d="M114.306 52.9259C114.39 52.8899 114.372 52.7519 114.306 52.7639C112.068 53.1179 109.818 54.3059 107.808 55.3079C106.182 56.1119 104.532 57.0179 103.362 58.4399C102.796 59.1122 102.383 59.8989 102.15 60.7461C101.917 61.5933 101.87 62.4809 102.012 63.3479C102.3 65.3279 103.02 67.6499 104.298 69.2159C104.34 69.2579 104.436 69.2159 104.4 69.1619C102.696 65.6399 100.968 61.2719 104.196 58.0679C106.902 55.3439 110.862 54.3599 114.306 52.9259Z"
    fill="#263238" />
  <path
    d="M104.904 68.184C102.732 68.88 97.7042 74.184 97.5302 78.588C97.3562 82.992 101.91 88.626 103.086 88.878C104.262 89.13 108.438 84.174 109.494 80.898C110.202 78.714 108.93 76.548 108.024 74.298C106.68 71.046 105.246 68.076 104.904 68.184Z"
    fill="#263238" />
  <path
    d="M110.729 80.124C110.603 75.69 107.381 71.8681 105.197 68.2381C105.197 68.2021 105.108 68.2381 105.126 68.2741C106.626 71.8741 109.487 74.808 110.267 78.708C110.723 81.018 110.333 83.4421 108.683 85.2181C107.255 86.7541 105.275 87.6961 103.481 88.7281C103.361 88.8001 103.481 88.968 103.595 88.908C107.195 86.952 110.861 84.702 110.729 80.124Z"
    fill="#263238" />
  <path
    d="M104.495 68.67C104.597 68.598 104.495 68.436 104.387 68.508C101.495 70.584 98.087 73.47 96.977 76.986C95.777 80.796 98.285 84.096 100.493 86.934C100.493 86.97 100.577 86.934 100.547 86.892C98.357 84.006 95.933 80.37 97.403 76.602C98.663 73.362 101.783 70.686 104.495 68.67Z"
    fill="#263238" />
  <path
    d="M103.32 88.7161C104.898 89.3521 107.34 91.7161 108.12 94.6861C109.476 99.7741 111.324 98.5741 117.12 99.4081C122.004 100.11 123.528 105.354 121.236 108.234C121.236 108.234 122.394 104.802 119.028 103.494C115.002 101.934 106.602 106.812 101.7 101.802C95.3458 95.3221 103.32 88.7161 103.32 88.7161Z"
    fill="#263238" />
  <path
    d="M105.601 90.9119C105.535 90.8459 105.643 90.7259 105.715 90.7919C106.425 91.3794 107.023 92.0909 107.479 92.8919C108.079 93.9359 108.205 95.1179 108.715 96.1919C110.017 98.9339 113.425 98.5079 115.915 98.4419C119.263 98.3639 122.131 100.14 122.671 103.62C122.667 103.628 122.662 103.634 122.655 103.639C122.648 103.644 122.64 103.646 122.632 103.646C122.623 103.646 122.615 103.644 122.608 103.639C122.601 103.634 122.596 103.628 122.593 103.62C122.416 102.547 121.949 101.542 121.243 100.715C120.536 99.8882 119.617 99.2702 118.585 98.9279C116.563 98.3279 114.385 98.9279 112.345 98.6459C110.929 98.4419 109.501 97.9859 108.745 96.7019C108.381 95.9641 108.098 95.1898 107.899 94.3919C107.442 93.0551 106.651 91.8572 105.601 90.9119Z"
    fill="#263238" />
  <path
    d="M102.503 89.4301C102.503 89.4001 102.581 89.4301 102.557 89.4721C100.847 91.5181 99.0293 93.5761 98.7473 96.3481C98.4473 99.3481 100.235 102.12 102.707 103.668C105.473 105.402 108.143 104.19 110.969 103.35C113.009 102.75 115.109 102.3 117.221 102.816C117.287 102.816 117.263 102.936 117.221 102.93C113.855 102.48 110.939 103.746 107.753 104.58C105.155 105.258 102.989 104.538 101.093 102.648C96.8933 98.4841 98.6933 93.1021 102.503 89.4301Z"
    fill="#263238" />
  <path d="M111.919 50.94C111.049 50.172 109.873 51.54 110.749 52.308C111.625 53.076 112.801 51.708 111.919 50.94Z"
    fill="#25003F" />
  <path d="M112.885 52.314C112.015 51.546 110.839 52.914 111.685 53.682C112.531 54.45 113.755 53.082 112.885 52.314Z"
    fill="#25003F" />
  <path
    d="M114.078 53.514C113.208 52.746 112.032 54.114 112.878 54.882C113.059 55.0411 113.296 55.1216 113.537 55.1059C113.778 55.0901 114.003 54.9794 114.162 54.798C114.321 54.6166 114.402 54.3794 114.386 54.1386C114.37 53.8978 114.259 53.6731 114.078 53.514Z"
    fill="#25003F" />
  <path
    d="M115.386 54.5159C114.516 53.7479 113.34 55.1159 114.186 55.8839C115.032 56.6519 116.262 55.2899 115.386 54.5159Z"
    fill="#25003F" />
  <path
    d="M116.881 55.2961C116.011 54.5281 114.835 55.8961 115.681 56.6701C116.527 57.4441 117.757 56.0701 116.881 55.2961Z"
    fill="#25003F" />
  <path
    d="M118.428 55.8001C117.558 55.0321 116.382 56.4001 117.258 57.1681C118.134 57.9361 119.304 56.5501 118.428 55.8001Z"
    fill="#25003F" />
  <path
    d="M132.666 46.3381C135.474 57.6421 129.03 60.6001 126.6 61.2001C124.392 61.7461 116.796 63.3361 112.836 52.3861C108.876 41.4361 113.238 36.5521 118.236 35.0341C123.234 33.5161 129.858 35.0401 132.666 46.3381Z"
    fill="#EB9481" />
  <path
    d="M114.299 53.34C116.645 52.626 115.181 47.208 115.181 47.208C115.181 47.208 118.943 45.306 119.801 42.126C119.801 42.126 119.381 44.784 118.103 46.2C117.887 46.44 125.723 43.272 124.703 36.858C124.703 36.858 127.667 42.624 131.717 42.804C131.909 42.804 129.719 38.346 127.781 36.9C126.944 36.2227 126.048 35.6204 125.105 35.1C122.142 34.0001 118.865 34.1078 115.979 35.4C111.227 37.572 109.499 43.728 109.745 45.978C110.231 50.4 113.189 53.682 114.299 53.34Z"
    fill="#263238" />
  <path
    d="M118.398 46.26C122.748 44.784 125.43 40.95 124.488 36.342C124.488 36.228 124.638 36.18 124.686 36.282C126.612 40.674 122.652 45.462 118.386 46.35C118.278 46.374 118.296 46.296 118.398 46.26Z"
    fill="#263238" />
  <path
    d="M114.24 53.0879C116.268 51.1679 115.95 48.6599 115.44 46.1699C115.44 46.0979 115.548 46.0559 115.572 46.1339C116.304 48.5339 116.718 51.5339 114.408 53.2619C114.385 53.2842 114.354 53.2964 114.322 53.2958C114.29 53.2953 114.259 53.282 114.237 53.2589C114.215 53.2358 114.203 53.2049 114.203 53.1728C114.204 53.1407 114.217 53.1102 114.24 53.0879Z"
    fill="#263238" />
  <path
    d="M124.457 35.9159C124.457 35.9159 124.457 35.8799 124.499 35.9159C125.771 38.2799 127.121 42.5159 130.535 42.2039C130.55 42.2083 130.563 42.2174 130.572 42.2299C130.581 42.2423 130.586 42.2574 130.586 42.2729C130.586 42.2884 130.581 42.3035 130.572 42.3159C130.563 42.3284 130.55 42.3375 130.535 42.3419C127.301 42.9179 124.871 38.6279 124.457 35.9159Z"
    fill="#263238" />
  <path
    d="M129.313 45C129.037 45 128.785 45 128.515 45C128.232 45.0413 127.944 44.9908 127.693 44.856C127.624 44.7967 127.576 44.7167 127.557 44.628C127.537 44.5393 127.547 44.4467 127.585 44.364C127.685 44.213 127.825 44.0917 127.988 44.0126C128.152 43.9335 128.334 43.8994 128.515 43.914C128.887 43.8856 129.257 43.9968 129.553 44.226C129.617 44.2826 129.663 44.3566 129.687 44.4391C129.71 44.5215 129.709 44.6089 129.683 44.6908C129.658 44.7726 129.609 44.8453 129.544 44.9002C129.478 44.955 129.398 44.9897 129.313 45Z"
    fill="#263238" />
  <path
    d="M121.566 46.74C121.816 46.6423 122.06 46.5321 122.298 46.41C122.568 46.3267 122.804 46.1584 122.97 45.93C123.01 45.8477 123.021 45.7545 123.001 45.6653C122.982 45.5761 122.933 45.4961 122.862 45.438C122.706 45.345 122.528 45.2959 122.346 45.2959C122.165 45.2959 121.987 45.345 121.83 45.438C121.481 45.5684 121.194 45.8255 121.026 46.158C120.995 46.2352 120.986 46.3198 121.001 46.4018C121.016 46.4838 121.054 46.5599 121.111 46.621C121.168 46.6821 121.241 46.7258 121.321 46.7469C121.402 46.7679 121.487 46.7655 121.566 46.74Z"
    fill="#263238" />
  <path
    d="M123.979 49.1101C123.979 49.1101 123.925 49.1641 123.937 49.1941C124.147 49.9501 124.267 50.8561 123.637 51.2821C123.637 51.2821 123.637 51.3361 123.637 51.3241C124.471 51.0001 124.303 49.8001 123.979 49.1101Z"
    fill="#263238" />
  <path
    d="M123.096 48.4799C121.842 48.6959 122.358 51.1859 123.522 50.9879C124.686 50.7899 124.146 48.3059 123.096 48.4799Z"
    fill="#263238" />
  <path
    d="M122.635 48.7139C122.449 48.8999 122.287 49.1939 122.035 49.2719C121.783 49.3499 121.435 49.1519 121.201 48.9419C121.201 48.9419 121.159 48.9419 121.165 48.9839C121.261 49.4579 121.543 49.9139 122.071 49.8779C122.599 49.8419 122.797 49.3559 122.815 48.8459C122.815 48.7559 122.713 48.6419 122.635 48.7139Z"
    fill="#263238" />
  <path
    d="M128.227 48.03C128.227 48.03 128.293 48.03 128.299 48.084C128.425 48.864 128.707 49.734 129.457 49.848C129.457 49.848 129.487 49.896 129.457 49.896C128.581 49.944 128.221 48.786 128.227 48.03Z"
    fill="#263238" />
  <path
    d="M128.754 47.0881C129.954 46.7461 130.554 49.218 129.438 49.536C128.322 49.854 127.728 47.4001 128.754 47.0881Z"
    fill="#263238" />
  <path
    d="M129.312 47.124C129.534 47.208 129.786 47.4 130.026 47.358C130.266 47.316 130.434 46.998 130.548 46.698C130.548 46.698 130.584 46.698 130.59 46.698C130.716 47.172 130.68 47.7 130.248 47.898C129.816 48.096 129.45 47.748 129.222 47.298C129.18 47.238 129.216 47.094 129.312 47.124Z"
    fill="#263238" />
  <path
    d="M125.441 55.356C125.657 55.506 125.879 55.728 126.167 55.71C126.454 55.6547 126.728 55.5425 126.971 55.38C126.971 55.38 127.025 55.38 127.013 55.416C126.929 55.5901 126.799 55.738 126.638 55.8437C126.476 55.9494 126.288 56.009 126.095 56.016C125.928 55.9992 125.77 55.9332 125.641 55.8264C125.512 55.7196 125.417 55.5767 125.369 55.416C125.351 55.362 125.399 55.332 125.441 55.356Z"
    fill="#263238" />
  <path
    d="M128.141 53.4479C127.939 53.961 127.609 54.4135 127.181 54.7619C126.942 54.9421 126.653 55.0446 126.353 55.0559C125.693 55.0559 125.519 54.5099 125.495 53.9999C125.483 53.7282 125.506 53.4561 125.561 53.1899C126.373 53.5459 127.276 53.6362 128.141 53.4479Z"
    fill="#263238" />
  <path
    d="M127.2 54.762C126.96 54.9422 126.671 55.0447 126.372 55.056C125.712 55.056 125.538 54.51 125.514 54C125.839 53.9192 126.183 53.9504 126.489 54.0886C126.795 54.2269 127.045 54.4641 127.2 54.762Z"
    fill="#FF9CBD" />
  <path
    d="M128.052 51.87C128.052 51.87 128.46 52.9861 128.58 53.5261C128.58 53.574 128.466 53.6281 128.28 53.6821C127.833 53.8687 127.342 53.9288 126.863 53.8558C126.384 53.7828 125.934 53.5795 125.562 53.2681C125.553 53.258 125.548 53.2453 125.547 53.2319C125.546 53.2185 125.55 53.2053 125.557 53.1942C125.565 53.1832 125.576 53.175 125.589 53.171C125.602 53.1669 125.615 53.1673 125.628 53.1721C126.423 53.4943 127.3 53.5512 128.13 53.3341C128.13 53.1721 127.362 51.444 127.446 51.42C127.876 51.3603 128.312 51.3603 128.742 51.42C127.95 49.074 126.792 46.872 126.042 44.52C126.038 44.5026 126.039 44.4841 126.047 44.4678C126.055 44.4514 126.068 44.4383 126.084 44.4305C126.1 44.4227 126.119 44.4208 126.136 44.4251C126.154 44.4294 126.169 44.4396 126.18 44.454C127.492 46.7771 128.57 49.2252 129.396 51.762C129.492 52.074 128.286 51.912 128.052 51.87Z"
    fill="#263238" />
  <path
    d="M115.068 52.728C115.068 52.728 111.99 49.536 110.508 50.694C109.026 51.852 111.708 56.748 113.754 57.156C114.01 57.2258 114.277 57.2431 114.54 57.207C114.802 57.171 115.055 57.0822 115.283 56.946C115.51 56.8098 115.708 56.6291 115.864 56.4146C116.02 56.2002 116.131 55.9564 116.19 55.698L115.068 52.728Z"
    fill="#EB9481" />
  <path
    d="M111.317 52.0799C111.287 52.0799 111.287 52.1219 111.317 52.1279C112.739 52.4579 113.639 53.5919 114.317 54.8039C114.219 54.6822 114.094 54.5833 113.954 54.5141C113.813 54.4449 113.659 54.407 113.502 54.403C113.345 54.399 113.19 54.429 113.045 54.491C112.901 54.5529 112.772 54.6454 112.667 54.7619C112.631 54.7619 112.667 54.8459 112.715 54.8279C112.939 54.7147 113.192 54.674 113.439 54.7116C113.687 54.7493 113.916 54.8634 114.095 55.0379C114.395 55.3307 114.663 55.6545 114.893 56.0039C114.971 56.1119 115.181 56.0039 115.115 55.8839C114.881 54.1379 113.177 51.9599 111.317 52.0799Z"
    fill="#263238" />
  <path
    d="M74.5805 152.16H73.8605V151.71H74.5745H76.2545V152.16H74.5805ZM70.8545 152.094C70.0385 152.064 69.2405 152.022 68.4545 151.974V151.524C69.2405 151.572 70.0385 151.614 70.8545 151.644V152.094ZM79.2545 152.058V151.608C80.0405 151.578 80.8385 151.536 81.6545 151.482L81.6845 151.932C80.8625 151.986 80.0585 152.028 79.2725 152.058H79.2545ZM65.4545 151.728C64.6385 151.65 63.8345 151.56 63.0545 151.458L63.1145 151.008C63.8825 151.11 64.6805 151.2 65.5145 151.284L65.4545 151.728ZM84.6545 151.728L84.6185 151.278C85.4045 151.212 86.2025 151.134 87.0185 151.05L87.0665 151.494C86.2565 151.566 85.4585 151.638 84.6665 151.71L84.6545 151.728ZM90.0545 151.128L89.9945 150.678L92.3945 150.354L92.4605 150.798C91.6265 150.924 90.8345 151.032 90.0485 151.134L90.0545 151.128ZM60.0965 150.996C59.2925 150.858 58.4945 150.702 57.7325 150.54L57.8225 150.102C58.5845 150.264 59.3765 150.414 60.1685 150.558L60.0965 150.996ZM95.4005 150.348L95.3285 149.904L97.6925 149.49L97.7705 149.934L95.4005 150.348ZM54.8045 149.832C54.0065 149.616 53.2325 149.382 52.4945 149.136L52.6325 148.71C53.3645 148.956 54.1385 149.184 54.9185 149.4L54.8045 149.832ZM100.723 149.37L100.633 148.926C101.407 148.77 102.193 148.608 102.979 148.434L103.075 148.878C102.277 149.046 101.497 149.214 100.717 149.4L100.723 149.37ZM106.003 148.212L105.901 147.774C106.675 147.594 107.449 147.402 108.229 147.21L108.337 147.648C107.551 147.84 106.801 148.032 105.997 148.2L106.003 148.212ZM49.6685 148.086C48.9005 147.762 48.1625 147.42 47.4785 147.06L47.6825 146.664C48.3605 147.012 49.0865 147.348 49.8425 147.666L49.6685 148.086ZM111.247 146.886L111.133 146.448C111.895 146.244 112.669 146.034 113.443 145.812L113.563 146.244C112.801 146.472 112.009 146.682 111.241 146.892L111.247 146.886ZM44.8745 145.506C44.2055 145.053 43.5716 144.549 42.9785 144L43.2845 143.67C43.8639 144.208 44.4815 144.703 45.1325 145.152L44.8745 145.506ZM116.443 145.41L116.311 144.984C117.073 144.756 117.835 144.516 118.603 144.276L118.741 144.708L116.443 145.41ZM121.597 143.784L121.453 143.358C122.209 143.112 122.965 142.854 123.727 142.59L123.871 143.016C123.109 143.28 122.353 143.538 121.597 143.784ZM126.703 142.02L126.553 141.594L128.803 140.766L128.959 141.192C128.209 141.474 127.453 141.75 126.703 142.02ZM41.0285 141.648C40.5879 140.953 40.258 140.194 40.0505 139.398L40.4825 139.284C40.6815 140.035 40.9909 140.753 41.4005 141.414L41.0285 141.648ZM131.767 140.118L131.605 139.698L133.831 138.816L133.999 139.236L131.767 140.118ZM136.777 138.09L136.603 137.676L138.811 136.74L138.991 137.154L136.777 138.09ZM40.3385 136.398L39.8945 136.338C40.0068 135.534 40.2081 134.745 40.4945 133.986L40.9145 134.142C40.6396 134.87 40.4465 135.627 40.3385 136.398ZM141.739 135.948L141.553 135.534L141.949 135.354C142.549 135.09 143.149 134.814 143.749 134.538L143.941 134.946L142.141 135.768L141.739 135.948ZM146.635 133.644L146.431 133.236C147.151 132.884 147.865 132.524 148.573 132.156L148.783 132.552C148.069 132.924 147.349 133.284 146.635 133.644ZM42.2345 131.49L41.8505 131.262C42.2646 130.569 42.7152 129.898 43.2005 129.252L43.5605 129.522C43.0812 130.155 42.6346 130.812 42.2225 131.49H42.2345ZM151.435 131.142L151.219 130.746C151.921 130.368 152.623 129.978 153.319 129.588L153.535 129.978C152.845 130.374 152.143 130.764 151.441 131.142H151.435ZM156.139 128.472L155.911 128.088C156.601 127.68 157.285 127.272 157.969 126.852L158.203 127.236C157.525 127.656 156.835 128.064 156.145 128.472H156.139ZM45.4505 127.2L45.1145 126.9C45.6245 126.33 46.1825 125.736 46.7705 125.148L47.0945 125.466C46.5065 126.066 45.9545 126.654 45.4505 127.2ZM160.753 125.634L160.513 125.256L162.529 123.96L162.775 124.332L160.753 125.634ZM49.2605 123.426L48.9605 123.09C49.5605 122.568 50.1605 122.034 50.7605 121.506L51.0485 121.848C50.4485 122.4 49.8365 122.904 49.2605 123.426ZM165.271 122.688L165.019 122.316C165.679 121.872 166.333 121.422 166.987 120.966L167.245 121.332C166.591 121.8 165.931 122.244 165.271 122.688ZM53.4005 119.964L53.1245 119.61C53.7245 119.118 54.3905 118.632 55.0385 118.146L55.3085 118.506C54.6565 118.986 54.0205 119.472 53.4005 119.964ZM169.705 119.598L169.441 119.232C170.089 118.764 170.737 118.296 171.379 117.822L171.649 118.182L169.705 119.598ZM57.7265 116.748L57.4685 116.382C58.1245 115.918 58.7845 115.462 59.4485 115.014L59.7005 115.386C59.0405 115.836 58.3805 116.286 57.7265 116.748ZM174.049 116.4L173.773 116.046C174.415 115.56 175.045 115.074 175.675 114.582L175.951 114.936C175.321 115.41 174.685 115.896 174.049 116.4ZM62.2025 113.748L61.9625 113.37C62.6345 112.932 63.3125 112.5 63.9965 112.08L64.2365 112.458C63.5525 112.866 62.8805 113.292 62.2025 113.73V113.748ZM178.315 113.076L178.033 112.728L179.899 111.222L180.181 111.57L178.315 113.076ZM66.7925 110.892L66.5645 110.508C67.2565 110.108 67.9465 109.708 68.6345 109.308L68.8625 109.698C68.1725 110.052 67.4825 110.46 66.7925 110.874V110.892ZM182.497 109.656L182.209 109.308C182.809 108.792 183.439 108.276 184.039 107.76L184.333 108.102L182.497 109.656ZM71.4965 108.186L71.2745 107.796C71.9825 107.4 72.6905 107.016 73.3865 106.638L73.5965 107.034C72.8825 107.4 72.1805 107.778 71.4725 108.168L71.4965 108.186ZM186.601 106.116L186.301 105.78C186.901 105.252 187.501 104.718 188.101 104.19L188.401 104.526C187.801 105.054 187.201 105.6 186.601 106.116ZM76.2005 105.6L75.9965 105.204L78.1385 104.106L78.3425 104.508C77.6645 104.868 76.9505 105.228 76.2005 105.6ZM81.0365 103.2L80.8445 102.798C81.6005 102.438 82.3265 102.096 83.0285 101.778L83.2145 102.186C82.5425 102.498 81.8105 102.84 81.0605 103.2H81.0365ZM190.615 102.522L190.309 102.186C190.909 101.646 191.509 101.1 192.079 100.56L192.385 100.89L190.615 102.522ZM85.9865 100.98L85.8125 100.56C86.5025 100.272 87.1445 100.014 87.7385 99.792L87.8945 100.212C87.3125 100.434 86.6705 100.692 85.9865 100.98ZM194.587 98.826L194.275 98.502L196.009 96.84L196.321 97.164L194.587 98.826ZM198.469 95.064L198.151 94.746C198.751 94.176 199.297 93.612 199.855 93.048L200.173 93.366C199.627 93.93 199.057 94.494 198.481 95.064H198.469ZM202.285 91.23L201.961 90.912C202.531 90.312 203.083 89.76 203.629 89.19L203.953 89.502L202.285 91.23ZM206.023 87.324L205.699 87.012L207.337 85.26L207.667 85.566L206.023 87.324ZM209.695 83.346L209.365 83.046C209.917 82.446 210.451 81.846 210.967 81.246L211.303 81.546C210.799 82.14 210.259 82.734 209.707 83.346H209.695ZM213.295 79.302L212.959 79.008C213.505 78.378 214.033 77.772 214.531 77.208L214.873 77.496C214.375 78.066 213.853 78.672 213.301 79.302H213.295ZM216.817 75.186L216.469 74.898C217.027 74.232 217.537 73.614 218.005 73.044L218.353 73.326C217.891 73.896 217.381 74.52 216.823 75.186H216.817ZM220.243 70.986L219.889 70.704C220.861 69.504 221.371 68.802 221.371 68.802L221.731 69.072C221.731 69.072 221.227 69.75 220.249 70.986H220.243Z"
    fill="#263238" />
  <path d="M222.804 56.0101L221.082 69.7981L229.074 59.9701L263.178 37.9561L222.804 56.0101Z" fill="#25003F" />
  <path opacity="0.4" d="M222.804 56.0101L221.082 69.7981L229.074 59.9701L263.178 37.9561L222.804 56.0101Z"
    fill="white" />
  <path d="M231 62.652L221.082 69.798L229.074 59.97L231 62.652Z" fill="#25003F" />
  <path opacity="0.3" d="M231 62.652L221.082 69.798L229.074 59.97L231 62.652Z" fill="white" />
  <path d="M229.074 59.9701L263.178 37.9561L239.49 74.7181L229.074 59.9701Z" fill="#25003F" />
  <path opacity="0.7" d="M229.074 59.9701L263.178 37.9561L239.49 74.7181L229.074 59.9701Z" fill="white" />
  <path d="M222.805 56.0101L205.057 49.5721L263.179 37.9561L222.805 56.0101Z" fill="#25003F" />
  <path opacity="0.7" d="M222.805 56.0101L205.057 49.5721L263.179 37.9561L222.805 56.0101Z" fill="white" />
  <path
    d="M74.3457 32.0761C74.3451 35.1231 75.1913 38.1103 76.7899 40.7043C78.3885 43.2983 80.6765 45.397 83.3986 46.7662C86.1207 48.1353 89.1697 48.721 92.2054 48.4579C95.241 48.1947 98.1438 47.0932 100.59 45.2761L108.648 47.3341L105.294 39.8341C106.473 37.6296 107.134 35.1853 107.226 32.687C107.319 30.1887 106.841 27.7021 105.828 25.4164C104.816 23.1306 103.295 21.1058 101.383 19.4958C99.4701 17.8858 97.2156 16.7331 94.7906 16.1252C92.3656 15.5173 89.834 15.4703 87.3881 15.9876C84.9422 16.505 82.6465 17.5732 80.6754 19.1111C78.7043 20.6489 77.1097 22.6158 76.0129 24.8624C74.9161 27.109 74.3459 29.5761 74.3457 32.0761Z"
    fill="white" />
  <path
    d="M74.3458 32.076C74.6038 45.786 89.6578 53.022 100.644 45.072L108.714 47.082L108.408 47.442L105.03 39.954L104.976 39.822C110.052 30.684 104.898 18.822 94.7758 16.296C84.6058 13.524 74.3158 21.558 74.3758 32.076H74.3458ZM74.3458 32.076C74.3878 18.078 90.7138 10.416 101.526 19.326C107.496 24.162 109.326 33.246 105.552 39.972V39.714L108.882 47.226L109.104 47.73L108.582 47.592L100.536 45.486C90.2338 53.286 74.4298 45.954 74.3398 32.076H74.3458Z"
    fill="#263238" />
  <path
    d="M88.1631 42.1621L80.7891 34.6981L83.2671 32.2561L87.5691 36.6121L96.5151 22.5901L99.4491 24.4621L88.1631 42.1621Z"
    fill="#25003F" />
</svg>