<svg width="353" height="365" viewBox="0 0 353 365" fill="none" xmlns="http://www.w3.org/2000/svg">
<path fill-rule="evenodd" clip-rule="evenodd" d="M91 16C91 7.16344 83.8366 0 75 0H19.4783C10.6417 0 3.47826 7.16344 3.47826 16V50C3.47826 58.8366 10.6417 66 19.4783 66H23.7005L35.6505 82.199C36.1943 82.9361 37.3608 82.6149 37.4504 81.7032L38.995 66H75C83.8366 66 91 58.8366 91 50V16Z" fill="#C5B3D1"/>
<g clip-path="url(#clip0_12693_8033)">
<path d="M165.63 116.988C169.421 113.13 174.485 111.959 176.94 114.372C179.395 116.785 178.311 121.868 174.518 125.728C173.024 127.29 171.178 128.472 169.133 129.174L152.863 145.319L145.449 137.523L162.276 122.434C162.943 120.377 164.093 118.51 165.63 116.988Z" fill="#FFB6B6"/>
<path d="M113.589 103.66L130.648 141.506L157.889 126.76L167.638 131.934C167.638 131.934 145.37 169.164 130.122 164.926C114.875 160.688 87.7991 122.259 92.6774 110.399C97.5558 98.5389 113.589 103.66 113.589 103.66Z" fill="#9903FF"/>
<path d="M192.666 125.022C188.706 121.337 187.397 116.307 189.743 113.787C192.088 111.267 197.199 112.212 201.16 115.899C202.762 117.35 203.994 119.163 204.752 121.188L221.334 137.012L213.743 144.636L198.201 128.226C196.127 127.616 194.229 126.517 192.666 125.022Z" fill="#A0616A"/>
<path d="M276.196 127.462L244.189 161.539C244.189 161.539 237.001 168.651 225.176 158.394C213.35 148.138 200.203 131.312 200.203 131.312L207.579 123.284L220.644 134.94C220.644 134.94 228.4 138.061 228.94 140.081C229.479 142.1 227.971 142.936 230.395 142.289C232.818 141.641 232.865 140.198 233.017 142.387C233.169 144.577 231.689 147.136 234.489 144.657C237.289 142.179 238.124 143.686 238.124 143.686L258.581 116.588C258.581 116.588 271.8 106.135 275.6 115.505C279.4 124.875 276.196 127.462 276.196 127.462Z" fill="#25003F"/>
<path d="M106.102 355.885L118.541 355.884L124.458 307.904L106.1 307.906L106.102 355.885Z" fill="#FFB6B6"/>
<path d="M148.723 355.602C149.111 356.254 149.315 358.359 149.315 359.118C149.315 361.45 147.425 363.34 145.093 363.34H106.571C104.981 363.34 103.691 362.05 103.691 360.46V358.856C103.691 358.856 101.786 354.036 105.709 348.094C105.709 348.094 110.585 352.746 117.871 345.46L120.02 341.568L135.574 352.943L144.195 354.004C146.081 354.236 147.753 353.968 148.723 355.602Z" fill="#25003F"/>
<path d="M249.471 134.47H280.297V88.9206H249.471V134.47Z" fill="#2F2E41"/>
<path d="M273.383 120.583L272.304 107.537H257.95L254.768 121.359L273.383 120.583Z" fill="#A0616A"/>
<path opacity="0.1" d="M273.383 120.583L272.304 107.537H257.95L254.768 121.359L273.383 120.583Z" fill="black"/>
<path d="M115.522 106.088L115.774 89.3105L105.428 82.8611L94.1777 96.6225L115.522 106.088Z" fill="#FFB6B6"/>
<path opacity="0.1" d="M115.518 106.088L116.188 89.7285L105.424 82.8611L109.081 103.106L115.518 106.088Z" fill="black"/>
<path d="M262.868 111.685C271.533 111.685 278.558 104.66 278.558 95.9942C278.558 87.3286 271.533 80.3037 262.868 80.3037C254.203 80.3037 247.178 87.3286 247.178 95.9942C247.178 104.66 254.203 111.685 262.868 111.685Z" fill="#A0616A"/>
<path d="M258.908 79.4886C258.908 79.4886 258.908 73.0472 264.889 74.4275C270.871 75.8078 272.711 78.1083 272.711 78.1083C272.711 78.1083 275.011 81.7891 278.692 82.2492C282.373 82.7093 285.594 93.2916 285.134 95.5921C284.673 97.8926 282.373 103.874 285.594 106.635C288.814 109.395 293.415 113.536 292.035 117.677C290.655 121.818 286.514 132.4 286.514 132.4C286.514 132.4 298.063 134.088 297.119 141.296C297.119 141.296 291.575 137.001 284.213 137.001C276.852 137.001 277.772 123.646 277.772 123.646C277.772 123.646 277.312 115.376 275.932 113.076C274.551 110.775 276.392 97.8926 269.49 90.9911C262.589 84.0896 258.908 79.4886 258.908 79.4886Z" fill="#2F2E41"/>
<path d="M260.744 78.1065C260.744 78.1065 252.002 79.9468 248.782 88.6887C245.561 97.4306 247.188 99.0573 247.188 99.0573C247.188 99.0573 246.476 104.321 242.568 106.167C238.66 108.013 241.88 115.835 241.88 115.835C241.88 115.835 240.96 123.656 228.538 126.417C216.115 129.178 244.116 150.347 244.116 150.347C244.116 150.347 242.103 140.356 254.985 139.896C267.868 139.436 252.463 115.835 252.463 115.835L251.082 100.651C251.082 100.651 253.843 83.1675 262.124 80.867C270.406 78.5665 260.744 78.1065 260.744 78.1065Z" fill="#2F2E41"/>
<path d="M115.556 94.5339C125.718 94.5339 133.956 86.2959 133.956 76.1338C133.956 65.9717 125.718 57.7336 115.556 57.7336C105.394 57.7336 97.1562 65.9717 97.1562 76.1338C97.1562 86.2959 105.394 94.5339 115.556 94.5339Z" fill="#FFB6B6"/>
<path d="M140.646 217.029L123.506 333.668H102.001L104.861 267.088L106.366 232.079L102.001 215.415C102.001 215.415 100.011 211.711 98.3348 207.221C96.4452 202.154 94.9527 196.08 97.1684 193.199C97.9836 192.137 100.103 191.351 102.984 190.766C104.744 190.407 106.792 190.127 109.004 189.909C121.721 188.651 139.81 189.437 139.81 189.437L140.27 204.612L140.525 213.087L140.646 217.029Z" fill="#25003F"/>
<path d="M35.2969 337.301L46.255 343.187L74.1752 303.722L58.0023 295.034L35.2969 337.301Z" fill="#FFB6B6"/>
<path d="M72.9661 357.224C72.9986 357.982 72.1822 359.933 71.8232 360.601C70.7197 362.655 68.1601 363.426 66.1061 362.322L32.1719 344.09C30.7707 343.338 30.245 341.591 30.9979 340.19L31.7569 338.777C31.7569 338.777 32.3595 333.629 38.6275 330.252C38.6275 330.252 40.7213 336.658 50.5884 333.688L54.3234 331.276L62.641 348.658L69.7331 353.673C71.2847 354.77 72.8848 355.325 72.9661 357.224Z" fill="#25003F"/>
<path d="M140.525 213.086L131.428 231.326L104.861 267.087L61.1238 325.963L42.1816 315.787L94.1042 228.362L98.151 211.614C98.151 211.614 98.151 209.804 98.3349 207.221C98.6945 202.108 99.773 193.96 102.984 190.766C103.418 190.331 103.891 189.988 104.405 189.758C105.371 189.323 106.976 189.428 109.004 189.909C117.474 191.932 133.28 200.624 140.27 204.612L140.525 213.086Z" fill="#25003F"/>
<path d="M272.201 357.345L261.506 357.344L256.418 316.091L272.203 316.092L272.201 357.345Z" fill="#A0616A"/>
<path d="M235.559 357.102C235.226 357.662 235.051 359.473 235.051 360.125C235.051 362.13 236.676 363.755 238.681 363.755H271.802C273.17 363.755 274.279 362.646 274.279 361.278V359.899C274.279 359.899 275.917 355.755 272.544 350.647C272.544 350.647 268.351 354.646 262.086 348.382L260.239 345.035L246.866 354.815L239.453 355.728C237.832 355.927 236.394 355.697 235.559 357.102Z" fill="#25003F"/>
<path d="M314.347 344.745L304.46 348.824L284.021 312.63L298.613 306.61L314.347 344.745Z" fill="#A0616A"/>
<path d="M280.378 358.499C280.284 359.145 280.812 360.885 281.061 361.488C281.826 363.341 283.948 364.224 285.801 363.459L316.418 350.825C317.683 350.303 318.285 348.855 317.763 347.591L317.237 346.316C317.237 346.316 317.171 341.86 312.104 338.425C312.104 338.425 309.754 343.722 301.573 340.32L298.589 337.931L289.957 352.073L283.454 355.744C282.031 356.547 280.613 356.883 280.378 358.499Z" fill="#25003F"/>
<path d="M277.118 215.835L272.753 232.499L273.915 259.539L275.843 304.452L275.897 305.718L276.114 310.768L277.118 334.088H255.613L246.039 268.941L238.473 217.449L239.267 191.228L239.309 189.857C239.309 189.857 277.77 188.184 281.95 193.619C286.131 199.054 277.118 215.835 277.118 215.835Z" fill="#9903FF"/>
<path d="M307.038 317.325L303.393 319.21L289.91 326.187L287.937 327.207L276.114 310.769L246.039 268.942L238.473 217.45L239.267 191.229C242.67 190.146 245.391 189.703 246.771 190.347C252.983 193.252 252.687 212.299 252.687 212.299L256.47 229.105L273.915 259.54L307.038 317.325Z" fill="#9903FF"/>
<path d="M342.487 363.867C342.487 364.138 342.267 364.357 341.997 364.357H1.9375V363.376H341.997C342.267 363.376 342.487 363.596 342.487 363.867Z" fill="#E6E6E6"/>
<path d="M96.5438 93.0757L117.447 103.109C117.447 103.109 139.604 168.745 139.604 172.089C139.604 175.434 145.874 177.524 142.112 181.287C138.349 185.049 149.115 188.236 143.314 191.241C137.513 194.247 101.327 210.686 97.303 209.203C86.2052 205.115 97.7733 190.091 97.7733 190.091C97.7733 190.091 89.4369 183.377 90.691 180.032C91.9452 176.688 83.166 112.725 83.166 112.725L96.5438 93.0757Z" fill="#9903FF"/>
<path d="M114.429 80.5402L116.795 85.2735C116.795 85.2735 119.162 76.7536 122.948 74.8603C126.735 72.967 127.208 70.127 127.208 70.127C127.208 70.127 131.942 76.2802 135.255 74.8603C138.568 73.4403 139.988 72.4936 136.201 66.8137C132.415 61.1338 133.362 63.9738 133.362 63.9738C133.362 63.9738 130.048 59.2405 130.522 60.6605C130.995 62.0804 127.682 56.8738 127.682 58.2938C127.682 59.7138 125.315 55.4539 125.315 56.8738C125.315 58.2938 115.375 53.5606 116.795 55.4539C118.215 57.3472 108.276 51.6673 103.542 59.2405C98.8091 66.8137 92.246 65.4132 94.5809 70.1367C96.9159 74.8603 95.9692 87.6401 95.9692 87.6401H102.497C102.497 87.6401 109.222 74.8603 114.429 80.5402Z" fill="#2F2E41"/>
<path d="M253.73 120.668L254.113 120.56L272.961 115.233L288.011 135.718L277.977 178.361L281.74 195.501C281.74 195.501 251.222 187.558 239.098 194.247C239.098 194.247 238.262 190.435 239.098 188.578C239.934 186.722 241.188 178.996 239.934 175.543C238.68 172.09 242.443 155.785 242.443 155.785C242.443 155.785 241.188 144.916 246.623 139.481C252.058 134.046 253.73 120.668 253.73 120.668Z" fill="#25003F"/>
<path d="M236.613 197.664L170.384 164.75C170.054 164.586 169.766 164.361 169.528 164.08L159.194 151.901C158.509 151.093 158.361 149.953 158.816 148.997L178.193 108.343C178.533 107.63 179.165 107.104 179.927 106.899C180.69 106.695 181.5 106.833 182.151 107.28L228.858 139.319C229.817 139.976 230.245 141.169 229.924 142.286L220.441 175.287C220.182 176.19 220.513 177.175 221.264 177.738L240.023 191.808C241.034 192.566 241.383 193.948 240.853 195.094L240.26 196.38C239.952 197.047 239.401 197.549 238.708 197.793C238.414 197.896 238.111 197.948 237.81 197.948C237.4 197.947 236.992 197.853 236.613 197.664Z" fill="#25003F"/>
<path d="M236.088 189.654L217.651 174.316C217.493 174.182 217.367 174.019 217.279 173.839C217.112 173.5 217.079 173.095 217.204 172.723L227.71 141.983C227.982 141.188 227.689 140.302 226.995 139.825L183.225 109.859C182.777 109.549 182.217 109.453 181.69 109.591C181.159 109.729 180.72 110.089 180.478 110.578L162.025 148.049C161.745 148.613 161.766 149.261 162.075 149.8C162.113 149.876 162.159 149.947 162.213 150.014L171.494 162.263C171.674 162.497 171.908 162.689 172.171 162.819L234.068 192.79C234.328 192.915 234.608 192.978 234.888 192.978C235.373 192.978 235.858 192.79 236.217 192.426C236.259 192.38 236.301 192.338 236.343 192.288C236.635 191.933 236.786 191.477 236.765 191.013C236.74 190.486 236.493 189.993 236.088 189.654Z" fill="#F7EBFF"/>
<path d="M169.287 145.751C169.44 145.751 169.587 145.667 169.661 145.521L184.665 115.713C184.768 115.506 184.685 115.255 184.479 115.151C184.272 115.047 184.022 115.13 183.918 115.337L168.914 145.145C168.81 145.351 168.893 145.603 169.099 145.706C169.16 145.737 169.224 145.751 169.287 145.751Z" fill="#25003F"/>
<path d="M177.222 150.767C177.376 150.767 177.523 150.683 177.596 150.537L192.6 120.728C192.704 120.522 192.621 120.271 192.415 120.167C192.208 120.062 191.957 120.146 191.853 120.352L176.849 150.161C176.746 150.367 176.829 150.618 177.035 150.722C177.095 150.752 177.159 150.767 177.222 150.767Z" fill="#25003F"/>
<path d="M183.91 154.946C184.063 154.946 184.21 154.862 184.284 154.716L199.288 124.908C199.391 124.701 199.308 124.45 199.102 124.346C198.895 124.242 198.645 124.326 198.541 124.532L183.537 154.34C183.433 154.547 183.516 154.798 183.722 154.902C183.783 154.932 183.847 154.946 183.91 154.946Z" fill="#25003F"/>
<path d="M160.236 150.911C165.424 149.378 170.42 150.813 171.395 154.115C172.369 157.416 168.954 161.334 163.765 162.867C161.7 163.507 159.512 163.644 157.384 163.266L135.321 169.482L132.625 159.066L154.661 154.044C156.242 152.569 158.154 151.495 160.236 150.911Z" fill="#FFB6B6"/>
<path d="M121.217 113.996L117.76 155.365L148.733 155.698L154.745 164.954C154.745 164.954 117.203 186.692 105.93 175.585C94.657 164.477 89.6412 117.736 99.6637 109.736C109.686 101.735 121.217 113.996 121.217 113.996Z" fill="#9903FF"/>
<path d="M222.668 188.688C217.274 188.282 213.112 185.169 213.371 181.737C213.63 178.304 218.212 175.851 223.608 176.259C225.766 176.392 227.86 177.039 229.716 178.148L252.549 180.158L251.377 190.853L228.993 187.736C226.991 188.554 224.822 188.88 222.668 188.688Z" fill="#A0616A"/>
<path d="M289.445 138.449L285.714 185.052C285.714 185.052 284.539 195.095 268.898 194.465C253.257 193.836 232.482 188.899 232.482 188.899L233.233 178.023L250.716 178.972C250.716 178.972 258.724 176.568 260.406 177.809C262.088 179.05 261.432 180.644 262.921 178.626C264.41 176.607 263.546 175.45 265.031 177.065C266.517 178.681 266.958 181.604 267.598 177.92C268.238 174.236 269.831 174.892 269.831 174.892L268.896 140.952C268.896 140.952 272.697 124.534 281.515 129.481C290.333 134.429 289.445 138.449 289.445 138.449Z" fill="#25003F"/>
</g>
<path fill-rule="evenodd" clip-rule="evenodd" d="M265.477 16C265.477 7.16344 272.64 0 281.477 0H336.998C345.835 0 352.998 7.16344 352.998 16V50C352.998 58.8366 345.835 66 336.998 66H332.776L320.826 82.199C320.282 82.9361 319.116 82.6149 319.026 81.7032L317.482 66H281.477C272.64 66 265.477 58.8366 265.477 50V16Z" fill="#C5B3D1"/>
<defs>
<clipPath id="clip0_12693_8033">
<rect width="340.55" height="309.357" fill="white" transform="translate(0.9375 55)"/>
</clipPath>
</defs>
</svg>
