<svg width="185" height="192" viewBox="0 0 185 192" fill="none" xmlns="http://www.w3.org/2000/svg">
<path fill-rule="evenodd" clip-rule="evenodd" d="M47.3242 8.40786C47.3242 3.76447 43.56 0.000244141 38.9166 0.000244141H9.74126C5.09786 0.000244141 1.33364 3.76446 1.33364 8.40786V26.274C1.33364 30.9174 5.09786 34.6817 9.74126 34.6817H11.9596L18.2389 43.1936C18.5246 43.581 19.1376 43.4122 19.1847 42.9331L19.9963 34.6817H38.9166C43.56 34.6817 47.3242 30.9174 47.3242 26.274V8.40786Z" fill="#C5B3D1"/>
<g clip-path="url(#clip0_12767_8317)">
<path d="M86.5419 61.4745C88.5341 59.4471 91.1951 58.8316 92.4852 60.0997C93.7753 61.3678 93.2058 64.0389 91.2126 66.0668C90.4275 66.8878 89.4572 67.5089 88.3829 67.878L79.8332 76.3618L75.9375 72.2648L84.7796 64.3362C85.1301 63.2553 85.7344 62.274 86.5419 61.4745Z" fill="#FFB6B6"/>
<path d="M59.1957 54.471L68.1599 74.3578L82.4743 66.6093L87.5972 69.3283C87.5972 69.3283 75.8954 88.8917 67.8833 86.6647C59.8711 84.4376 45.6435 64.2443 48.207 58.0121C50.7704 51.7798 59.1957 54.471 59.1957 54.471Z" fill="#9903FF"/>
<path d="M100.748 65.6957C98.6669 63.7594 97.9791 61.1162 99.2116 59.792C100.444 58.4678 103.13 58.9643 105.211 60.9015C106.053 61.664 106.7 62.617 107.099 63.6809L115.812 71.9963L111.823 76.0022L103.656 67.3794C102.566 67.0585 101.569 66.4812 100.748 65.6957Z" fill="#A0616A"/>
<path d="M144.64 66.9779L127.821 84.8846C127.821 84.8846 124.044 88.6217 117.83 83.2324C111.616 77.843 104.707 69.0011 104.707 69.0011L108.583 64.7828L115.448 70.9077C115.448 70.9077 119.524 72.5479 119.807 73.6091C120.091 74.6703 119.299 75.1092 120.572 74.7692C121.845 74.4291 121.87 73.6705 121.95 74.821C122.03 75.9715 121.252 77.3161 122.723 76.0137C124.195 74.7113 124.633 75.5036 124.633 75.5036L135.383 61.2641C135.383 61.2641 142.329 55.7712 144.326 60.695C146.323 65.6188 144.64 66.9779 144.64 66.9779Z" fill="#25003F"/>
<path d="M55.2591 187.009L61.7954 187.008L64.9048 161.796L55.2578 161.797L55.2591 187.009Z" fill="#FFB6B6"/>
<path d="M77.6564 186.86C77.8599 187.203 77.9673 188.309 77.9673 188.707C77.9673 189.933 76.9741 190.926 75.7488 190.926H55.5066C54.6707 190.926 53.9931 190.248 53.9931 189.413V188.57C53.9931 188.57 52.9918 186.037 55.0534 182.915C55.0534 182.915 57.6157 185.359 61.4445 181.531L62.5736 179.485L70.7465 185.462L75.2767 186.02C76.2678 186.142 77.1466 186.001 77.6564 186.86Z" fill="#25003F"/>
<path d="M130.596 70.6609H146.795V46.7255H130.596V70.6609Z" fill="#2F2E41"/>
<path d="M143.163 63.3635L142.596 56.5081H135.053L133.381 63.7713L143.163 63.3635Z" fill="#A0616A"/>
<path opacity="0.1" d="M143.163 63.3635L142.596 56.5081H135.053L133.381 63.7713L143.163 63.3635Z" fill="black"/>
<path d="M60.2121 55.7464L60.3443 46.9303L54.9077 43.5413L48.9961 50.7725L60.2121 55.7464Z" fill="#FFB6B6"/>
<path opacity="0.1" d="M60.2106 55.7464L60.5625 47.1499L54.9062 43.5413L56.828 54.1797L60.2106 55.7464Z" fill="black"/>
<path d="M137.639 58.6875C142.193 58.6875 145.884 54.9961 145.884 50.4425C145.884 45.8889 142.193 42.1975 137.639 42.1975C133.086 42.1975 129.395 45.8889 129.395 50.4425C129.395 54.9961 133.086 58.6875 137.639 58.6875Z" fill="#A0616A"/>
<path d="M135.557 41.7689C135.557 41.7689 135.557 38.3841 138.7 39.1095C141.843 39.8348 142.81 41.0436 142.81 41.0436C142.81 41.0436 144.019 42.9778 145.953 43.2196C147.887 43.4613 149.579 49.0221 149.337 50.2309C149.096 51.4398 147.887 54.5828 149.579 56.0334C151.272 57.4841 153.689 59.66 152.964 61.836C152.239 64.0119 150.063 69.5726 150.063 69.5726C150.063 69.5726 156.132 70.4598 155.636 74.2472C155.636 74.2472 152.722 71.9903 148.854 71.9903C144.986 71.9903 145.469 64.9723 145.469 64.9723C145.469 64.9723 145.227 60.6271 144.502 59.4182C143.777 58.2094 144.744 51.4398 141.117 47.8132C137.491 44.1867 135.557 41.7689 135.557 41.7689Z" fill="#2F2E41"/>
<path d="M136.522 41.043C136.522 41.043 131.928 42.0101 130.236 46.6037C128.543 51.1974 129.398 52.0521 129.398 52.0521C129.398 52.0521 129.024 54.8182 126.97 55.7882C124.917 56.7581 126.609 60.8682 126.609 60.8682C126.609 60.8682 126.126 64.9783 119.598 66.429C113.07 67.8796 127.784 79.0037 127.784 79.0037C127.784 79.0037 126.726 73.7535 133.495 73.5117C140.265 73.2699 132.17 60.8682 132.17 60.8682L131.444 52.8898C131.444 52.8898 132.895 43.7025 137.247 42.4936C141.599 41.2847 136.522 41.043 136.522 41.043Z" fill="#2F2E41"/>
<path d="M60.2292 49.6753C65.5691 49.6753 69.8979 45.3464 69.8979 40.0065C69.8979 34.6665 65.5691 30.3376 60.2292 30.3376C54.8894 30.3376 50.5605 34.6665 50.5605 40.0065C50.5605 45.3464 54.8894 49.6753 60.2292 49.6753Z" fill="#FFB6B6"/>
<path d="M73.414 114.043L64.4072 175.334H53.1069L54.6095 140.348L55.4004 121.952L53.1069 113.195C53.1069 113.195 52.0613 111.249 51.1803 108.889C50.1874 106.227 49.4031 103.035 50.5674 101.521C50.9958 100.963 52.1096 100.55 53.6232 100.243C54.548 100.054 55.6244 99.9066 56.7865 99.7924C63.4691 99.1311 72.9746 99.5441 72.9746 99.5441L73.2163 107.519L73.3503 111.972L73.414 114.043Z" fill="#25003F"/>
<path d="M18.0547 177.243L23.8129 180.336L38.4843 159.598L29.9859 155.033L18.0547 177.243Z" fill="#FFB6B6"/>
<path d="M37.8491 187.713C37.8662 188.111 37.4372 189.136 37.2485 189.487C36.6686 190.567 35.3236 190.972 34.2443 190.392L16.4127 180.811C15.6764 180.416 15.4002 179.498 15.7958 178.762L16.1946 178.019C16.1946 178.019 16.5113 175.314 19.805 173.54C19.805 173.54 20.9052 176.906 26.0901 175.345L28.0528 174.078L32.4235 183.211L36.1502 185.847C36.9655 186.423 37.8064 186.715 37.8491 187.713Z" fill="#25003F"/>
<path d="M73.351 111.971L68.5708 121.556L54.6102 140.348L31.6275 171.285L21.6738 165.938L48.9579 119.999L51.0844 111.198C51.0844 111.198 51.0844 110.247 51.181 108.889C51.37 106.203 51.9367 101.921 53.6238 100.243C53.8523 100.014 54.1006 99.834 54.3708 99.7132C54.8782 99.4847 55.7218 99.5396 56.7872 99.7923C61.2379 100.856 69.5439 105.423 73.2169 107.518L73.351 111.971Z" fill="#25003F"/>
<path d="M142.543 187.776L136.923 187.776L134.25 166.098L142.545 166.098L142.543 187.776Z" fill="#A0616A"/>
<path d="M123.289 187.648C123.114 187.943 123.021 188.894 123.021 189.237C123.021 190.29 123.875 191.144 124.929 191.144H142.333C143.052 191.144 143.635 190.562 143.635 189.843V189.118C143.635 189.118 144.496 186.94 142.723 184.256C142.723 184.256 140.52 186.358 137.228 183.066L136.257 181.307L129.23 186.447L125.335 186.926C124.483 187.031 123.727 186.91 123.289 187.648Z" fill="#25003F"/>
<path d="M164.689 181.155L159.494 183.298L148.754 164.28L156.422 161.116L164.689 181.155Z" fill="#A0616A"/>
<path d="M146.84 188.383C146.79 188.722 147.068 189.636 147.199 189.953C147.6 190.927 148.716 191.391 149.689 190.989L165.778 184.35C166.442 184.076 166.759 183.315 166.485 182.651L166.208 181.981C166.208 181.981 166.173 179.639 163.511 177.834C163.511 177.834 162.276 180.617 157.977 178.83L156.409 177.574L151.873 185.006L148.456 186.935C147.708 187.357 146.963 187.533 146.84 188.383Z" fill="#25003F"/>
<path d="M145.125 113.416L142.832 122.172L143.443 136.381L144.455 159.982L144.484 160.647L144.598 163.301L145.125 175.555H133.825L128.795 141.322L124.818 114.264L125.236 100.486L125.258 99.765C125.258 99.765 145.468 98.8863 147.665 101.742C149.862 104.598 145.125 113.416 145.125 113.416Z" fill="#9903FF"/>
<path d="M160.848 166.747L158.932 167.737L151.848 171.404L150.811 171.94L144.598 163.302L128.795 141.323L124.818 114.265L125.236 100.486C127.024 99.9173 128.454 99.6844 129.179 100.023C132.443 101.55 132.287 111.558 132.287 111.558L134.276 120.389L143.443 136.382L160.848 166.747Z" fill="#9903FF"/>
<path d="M179.476 191.203C179.476 191.346 179.361 191.461 179.218 191.461H0.525391V190.945H179.218C179.361 190.945 179.476 191.061 179.476 191.203Z" fill="#E6E6E6"/>
<path d="M50.2387 48.9089L61.2226 54.1813C61.2226 54.1813 72.8655 88.6712 72.8655 90.4287C72.8655 92.1861 76.1607 93.2846 74.1836 95.2617C72.2065 97.2388 77.8636 98.9132 74.8154 100.493C71.7672 102.072 52.752 110.71 50.6376 109.931C44.806 107.783 50.8847 99.888 50.8847 99.888C50.8847 99.888 46.5042 96.3601 47.1632 94.6026C47.8222 92.8452 43.209 59.234 43.209 59.234L50.2387 48.9089Z" fill="#9903FF"/>
<path d="M59.6367 42.3219L60.8803 44.8091C60.8803 44.8091 62.1239 40.3321 64.1136 39.3372C66.1034 38.3423 66.3521 36.85 66.3521 36.85C66.3521 36.85 68.8393 40.0834 70.5803 39.3372C72.3214 38.5911 73.0675 38.0936 71.0778 35.1089C69.088 32.1243 69.5855 33.6166 69.5855 33.6166C69.5855 33.6166 67.8444 31.1294 68.0931 31.8756C68.3419 32.6217 66.6008 29.8858 66.6008 30.6319C66.6008 31.3781 65.3572 29.1396 65.3572 29.8858C65.3572 30.6319 60.1341 28.1447 60.8803 29.1396C61.6265 30.1345 56.4034 27.1498 53.9162 31.1294C51.429 35.1089 47.9802 34.373 49.2072 36.8551C50.4341 39.3372 49.9367 46.0527 49.9367 46.0527H53.3669C53.3669 46.0527 56.9008 39.3372 59.6367 42.3219Z" fill="#2F2E41"/>
<path d="M132.837 63.4079L133.038 63.351L142.942 60.552L150.851 71.3164L145.578 93.7239L147.556 102.731C147.556 102.731 131.519 98.5569 125.148 102.072C125.148 102.072 124.709 100.069 125.148 99.0931C125.588 98.1175 126.247 94.0577 125.588 92.2432C124.929 90.4287 126.906 81.8611 126.906 81.8611C126.906 81.8611 126.247 76.1494 129.103 73.2935C131.958 70.4377 132.837 63.4079 132.837 63.4079Z" fill="#25003F"/>
<path d="M123.842 103.868L89.0401 86.5722C88.867 86.4862 88.7157 86.3676 88.5904 86.2201L83.1602 79.8202C82.8002 79.3958 82.7222 78.7968 82.9617 78.2943L93.1438 56.9315C93.3222 56.5572 93.6543 56.2808 94.0549 56.1731C94.4559 56.0656 94.8816 56.1384 95.2237 56.373L119.767 73.2088C120.271 73.5543 120.496 74.1809 120.327 74.7681L115.344 92.1092C115.208 92.5835 115.382 93.1011 115.776 93.3971L125.634 100.79C126.165 101.189 126.348 101.915 126.07 102.517L125.758 103.193C125.597 103.543 125.307 103.807 124.943 103.935C124.789 103.99 124.629 104.017 124.471 104.017C124.255 104.017 124.041 103.967 123.842 103.868Z" fill="#25003F"/>
<path d="M123.567 99.6584L113.879 91.5983C113.795 91.528 113.729 91.4423 113.683 91.3479C113.595 91.1699 113.578 90.9568 113.644 90.7613L119.164 74.6082C119.307 74.1908 119.153 73.725 118.789 73.4746L95.7882 57.7278C95.5531 57.5653 95.2588 57.5148 94.982 57.5873C94.703 57.6597 94.4723 57.8487 94.3449 58.1057L84.6483 77.7957C84.5011 78.0923 84.5121 78.4328 84.6747 78.7162C84.6945 78.7557 84.7186 78.7931 84.7472 78.8282L89.624 85.2649C89.7185 85.3879 89.8415 85.489 89.9799 85.5571L122.505 101.306C122.642 101.372 122.789 101.405 122.936 101.405C123.191 101.405 123.446 101.306 123.635 101.115C123.657 101.091 123.679 101.069 123.701 101.042C123.854 100.856 123.933 100.616 123.922 100.372C123.909 100.096 123.78 99.8364 123.567 99.6584Z" fill="#F7EBFF"/>
<path d="M88.4636 76.5885C88.5441 76.5885 88.6214 76.5443 88.66 76.4676L96.5442 60.804C96.5988 60.6955 96.5552 60.5635 96.4468 60.509C96.3382 60.4542 96.2064 60.498 96.1518 60.6064L88.2677 76.27C88.2131 76.3785 88.2567 76.5105 88.3651 76.565C88.3968 76.581 88.4305 76.5885 88.4636 76.5885Z" fill="#25003F"/>
<path d="M92.6336 79.224C92.714 79.224 92.7914 79.1798 92.83 79.1031L100.714 63.4395C100.769 63.331 100.725 63.199 100.617 63.1445C100.508 63.0896 100.376 63.1337 100.322 63.2419L92.4376 78.9056C92.383 79.014 92.4267 79.1461 92.535 79.2005C92.5667 79.2165 92.6004 79.224 92.6336 79.224Z" fill="#25003F"/>
<path d="M96.1472 81.4203C96.2277 81.4203 96.305 81.3761 96.3436 81.2994L104.228 65.6357C104.282 65.5273 104.239 65.3953 104.13 65.3408C104.022 65.286 103.89 65.3298 103.835 65.4382L95.9513 81.1018C95.8967 81.2103 95.9403 81.3423 96.0487 81.3968C96.0804 81.4128 96.1141 81.4203 96.1472 81.4203Z" fill="#25003F"/>
<path d="M83.7083 79.3001C86.4343 78.4947 89.0595 79.2484 89.5717 80.9834C90.084 82.7183 88.2895 84.7771 85.5624 85.5824C84.4775 85.919 83.3277 85.9909 82.2093 85.792L70.6161 89.0585L69.1992 83.5855L80.7785 80.9463C81.6096 80.1715 82.6143 79.6069 83.7083 79.3001Z" fill="#FFB6B6"/>
<path d="M63.2054 59.9022L61.3883 81.6402L77.6644 81.8152L80.8232 86.6792C80.8232 86.6792 61.0957 98.102 55.1721 92.2653C49.2485 86.4287 46.6128 61.8675 51.8794 57.6634C57.146 53.4592 63.2054 59.9022 63.2054 59.9022Z" fill="#9903FF"/>
<path d="M116.517 99.1512C113.682 98.9377 111.495 97.3021 111.631 95.4983C111.767 93.6944 114.175 92.4057 117.01 92.6196C118.144 92.6896 119.245 93.03 120.22 93.6125L132.218 94.6687L131.603 100.289L119.84 98.6507C118.788 99.0805 117.648 99.2522 116.517 99.1512Z" fill="#A0616A"/>
<path d="M151.606 72.7517L149.646 97.2403C149.646 97.2403 149.028 102.518 140.809 102.187C132.591 101.856 121.674 99.2616 121.674 99.2616L122.068 93.5466L131.255 94.0456C131.255 94.0456 135.463 92.7823 136.347 93.4344C137.231 94.0865 136.886 94.924 137.668 93.8634C138.451 92.8027 137.997 92.1946 138.777 93.0435C139.558 93.8925 139.79 95.4284 140.126 93.4925C140.462 91.5567 141.3 91.9016 141.3 91.9016L140.808 74.0668C140.808 74.0668 142.805 65.4393 147.439 68.0391C152.073 70.639 151.606 72.7517 151.606 72.7517Z" fill="#25003F"/>
</g>
<path fill-rule="evenodd" clip-rule="evenodd" d="M139.01 8.40762C139.01 3.76422 142.774 0 147.417 0H176.593C181.236 0 185 3.76422 185 8.40762V26.2738C185 30.9172 181.236 34.6814 176.593 34.6814H174.373L168.094 43.1936C167.808 43.581 167.195 43.4122 167.148 42.9331L166.336 34.6814H147.417C142.774 34.6814 139.01 30.9172 139.01 26.2738V8.40762Z" fill="#C5B3D1"/>
<defs>
<clipPath id="clip0_12767_8317">
<rect width="178.951" height="162.56" fill="white" transform="translate(0 28.9011)"/>
</clipPath>
</defs>
</svg>
