<svg width="450" height="280" viewBox="0 0 450 280" fill="none" xmlns="http://www.w3.org/2000/svg">
<g clip-path="url(#clip0_5358_51279)">
<path d="M163.87 245.982C130.6 229.702 100.65 205.232 82.0403 173.212C63.4303 141.192 57.1503 101.212 69.3803 66.2116C81.6103 31.2116 113.73 2.91161 150.59 -0.708387C166.04 -2.22839 182.47 0.741611 194.67 10.3516C208.85 21.5216 215.23 39.5816 224.13 55.2816C233.03 70.9816 248.13 86.3416 266.06 84.5316C276.37 83.5316 285.17 76.9616 294.7 72.9116C324.58 60.2216 361.98 74.6116 379.38 102.012C396.78 129.412 395.31 166.352 379.74 194.842C364.17 223.332 336.18 243.702 305.64 254.692C265.26 269.064 221.041 268.329 181.16 252.622" fill="#EBEBEB"/>
<path d="M320.931 -15.5582C313.411 -27.5582 305.531 -34.9182 293.651 -35.4882L295.011 -35.6182C291.15 -35.9212 287.267 -35.5559 283.531 -34.5382C272.681 -31.6382 263.161 -23.6482 259.091 -13.1382C253.671 1.00174 258.791 18.5118 271.091 27.3918C283.391 36.2718 301.701 35.6018 313.211 25.7518C324.721 15.9018 328.961 -2.70826 320.931 -15.5582Z" fill="#EBEBEB"/>
<path d="M442.171 22.1118H263.121V177.502H442.171V22.1118Z" fill="#FAFAFA"/>
<path d="M442.17 177.502C442.17 177.502 442.17 176.502 442.17 174.632C442.17 172.762 442.17 169.972 442.17 166.332C442.17 159.062 442.17 148.412 442.11 134.832C442.11 107.692 442.04 68.8318 442 22.1118L442.22 22.3318H263.22L263.48 22.0718C263.48 78.4918 263.48 131.652 263.48 177.462L263.25 177.232L392.76 177.342L429.3 177.402H438.96H441.45H442.3H439.01H429.39L392.91 177.462L263.25 177.582H263.02V177.352C263.02 131.542 263.02 78.3518 263.02 21.9618V21.8918H263.29H442.29H442.51V22.1118C442.46 68.9218 442.42 107.792 442.39 134.962C442.39 148.522 442.39 159.162 442.34 166.422C442.34 170.042 442.34 172.812 442.34 174.682C442.34 176.552 442.17 177.502 442.17 177.502Z" fill="#263238"/>
<path d="M425.66 63.8918C425.66 63.8918 425.41 63.8918 424.93 63.8918H422.8H414.55L383.87 63.9718L279.6 64.1918L279.86 63.9318V135.672L279.6 135.422L383.12 135.512L413.57 135.582L421.75 135.632H423.86H424.58C424.58 135.632 424.34 135.632 423.86 135.632H421.75H413.57L383.12 135.712L279.6 135.892H279.35V135.632C279.35 123.872 279.35 111.702 279.35 99.2318C279.35 87.1218 279.35 75.3018 279.35 63.8918V63.6418H279.6L383.85 63.7318L414.6 63.8918L422.85 63.9418H424.98L425.66 63.8918Z" fill="#E0E0E0"/>
<path d="M425.66 76.0117C425.66 76.1517 392.97 76.2717 352.66 76.2717C312.35 76.2717 279.66 76.1517 279.66 76.0117C279.66 75.8717 312.35 75.7517 352.66 75.7517C392.97 75.7517 425.66 75.8917 425.66 76.0117Z" fill="#E0E0E0"/>
<path d="M425.66 85.8916C425.66 86.0316 392.97 86.1516 352.66 86.1516C312.35 86.1516 279.66 86.0316 279.66 85.8916C279.66 85.7516 312.35 85.6316 352.66 85.6316C392.97 85.6316 425.66 85.7516 425.66 85.8916Z" fill="#E0E0E0"/>
<path d="M425.66 95.7717C425.66 95.9217 392.97 96.0317 352.66 96.0317C312.35 96.0317 279.66 95.9217 279.66 95.7717C279.66 95.6217 312.35 95.5117 352.66 95.5117C392.97 95.5117 425.66 95.6317 425.66 95.7717Z" fill="#E0E0E0"/>
<path d="M425.66 105.652C425.66 105.802 392.97 105.912 352.66 105.912C312.35 105.912 279.66 105.802 279.66 105.652C279.66 105.502 312.35 105.392 352.66 105.392C392.97 105.392 425.66 105.512 425.66 105.652Z" fill="#E0E0E0"/>
<path d="M425.66 115.542C425.66 115.682 392.97 115.802 352.66 115.802C312.35 115.802 279.66 115.682 279.66 115.542C279.66 115.402 312.35 115.282 352.66 115.282C392.97 115.282 425.66 115.392 425.66 115.542Z" fill="#E0E0E0"/>
<path d="M279.6 125.422C279.6 125.272 312.3 125.162 352.6 125.162C392.9 125.162 425.6 125.272 425.6 125.422C425.6 125.572 392.91 125.682 352.6 125.682C312.29 125.682 279.6 125.562 279.6 125.422Z" fill="#E0E0E0"/>
<path d="M308.539 136.762C308.399 136.762 308.279 120.462 308.279 100.352C308.279 80.2417 308.399 63.9316 308.539 63.9316C308.679 63.9316 308.799 80.2317 308.799 100.352C308.799 120.472 308.689 136.762 308.539 136.762Z" fill="#E0E0E0"/>
<path d="M337.821 136.762C337.681 136.762 337.561 120.462 337.561 100.352C337.561 80.2417 337.681 63.9316 337.821 63.9316C337.961 63.9316 338.081 80.2317 338.081 100.352C338.081 120.472 337.971 136.762 337.821 136.762Z" fill="#E0E0E0"/>
<path d="M367.1 136.762C366.96 136.762 366.84 120.462 366.84 100.352C366.84 80.2417 366.96 63.9316 367.1 63.9316C367.24 63.9316 367.36 80.2317 367.36 100.352C367.36 120.472 367.24 136.762 367.1 136.762Z" fill="#E0E0E0"/>
<path d="M396.381 136.762C396.241 136.762 396.121 120.462 396.121 100.352C396.121 80.2417 396.241 63.9316 396.381 63.9316C396.521 63.9316 396.641 80.2317 396.641 100.352C396.641 120.472 396.521 136.762 396.381 136.762Z" fill="#E0E0E0"/>
<path d="M425.66 136.762C425.52 136.762 425.4 120.462 425.4 100.352C425.4 80.2417 425.52 63.9316 425.66 63.9316C425.8 63.9316 425.92 80.2317 425.92 100.352C425.92 120.472 425.8 136.762 425.66 136.762Z" fill="#E0E0E0"/>
<path d="M425.66 76.0117C425.321 76.3321 424.953 76.6201 424.56 76.8717L421.28 79.1917L409.03 87.6517C398.59 94.8017 384.03 104.742 367.39 115.962L367.18 116.112L366.94 116.022L354.5 111.832L337.66 106.142L338.11 106.082L308.77 125.752H308.72L287.54 133.072L281.72 135.072L280.2 135.552C280.027 135.619 279.845 135.66 279.66 135.672C279.817 135.572 279.984 135.491 280.16 135.432L281.6 134.892L287.34 132.742L308.4 125.092H308.31L337.53 105.232L337.73 105.092L337.97 105.172L354.83 110.892L367.27 115.092L366.81 115.152C383.43 103.962 398.11 94.1517 408.65 87.1517L421.08 78.9517L424.45 76.7817C424.827 76.485 425.232 76.227 425.66 76.0117Z" fill="#CC9EFF"/>
<path d="M308.54 127.202C309.523 127.202 310.32 126.405 310.32 125.422C310.32 124.439 309.523 123.642 308.54 123.642C307.557 123.642 306.76 124.439 306.76 125.422C306.76 126.405 307.557 127.202 308.54 127.202Z" fill="#CC9EFF"/>
<path d="M339.601 105.652C339.601 106.004 339.497 106.348 339.301 106.641C339.105 106.933 338.827 107.161 338.502 107.296C338.177 107.431 337.819 107.466 337.474 107.397C337.128 107.329 336.811 107.159 336.562 106.91C336.313 106.661 336.144 106.344 336.075 105.999C336.007 105.654 336.042 105.296 336.177 104.97C336.311 104.645 336.539 104.367 336.832 104.172C337.125 103.976 337.469 103.872 337.821 103.872C338.293 103.872 338.746 104.059 339.08 104.393C339.413 104.727 339.601 105.179 339.601 105.652Z" fill="#CC9EFF"/>
<path d="M368.88 115.372C368.878 115.723 368.772 116.067 368.575 116.358C368.379 116.649 368.1 116.876 367.775 117.009C367.449 117.142 367.092 117.176 366.747 117.106C366.402 117.037 366.086 116.866 365.838 116.617C365.59 116.368 365.422 116.05 365.354 115.705C365.286 115.36 365.322 115.003 365.457 114.678C365.592 114.354 365.82 114.076 366.112 113.881C366.405 113.686 366.749 113.582 367.1 113.582C367.335 113.582 367.567 113.628 367.784 113.718C368 113.808 368.197 113.94 368.362 114.107C368.528 114.273 368.659 114.47 368.748 114.688C368.837 114.905 368.882 115.137 368.88 115.372Z" fill="#CC9EFF"/>
<path d="M398.46 95.8918C398.46 96.2439 398.356 96.588 398.16 96.8807C397.965 97.1735 397.687 97.4016 397.362 97.5363C397.036 97.671 396.678 97.7063 396.333 97.6376C395.988 97.5689 395.671 97.3994 395.422 97.1505C395.173 96.9015 395.003 96.5844 394.935 96.2391C394.866 95.8938 394.901 95.5359 395.036 95.2106C395.171 94.8854 395.399 94.6074 395.691 94.4118C395.984 94.2162 396.328 94.1118 396.68 94.1118C397.152 94.1118 397.605 94.2993 397.939 94.6332C398.273 94.967 398.46 95.4197 398.46 95.8918Z" fill="#CC9EFF"/>
<path d="M425.659 125.422C425.467 125.339 425.283 125.239 425.109 125.122L423.549 124.122L417.599 120.322L396.129 106.172H396.599L367.379 125.892L366.979 126.152L366.699 125.772L351.299 105.012C346.499 98.5316 341.839 92.2316 337.419 86.2416L338.179 86.3016L308.819 115.862L308.749 115.922H308.659L286.899 122.992L280.959 124.892L279.409 125.352C279.231 125.413 279.047 125.453 278.859 125.472C279.018 125.372 279.19 125.295 279.369 125.242L280.889 124.682L286.769 122.612L308.419 115.222L308.269 115.322L337.459 85.5916L337.879 85.1716L338.229 85.6416L352.139 104.392C357.499 111.642 362.689 118.652 367.499 125.172L366.819 125.052L396.159 105.562L396.379 105.412L396.599 105.562L417.879 120.002L423.679 124.002L425.169 125.072C425.347 125.167 425.512 125.284 425.659 125.422Z" fill="#455A64"/>
<path d="M339.601 85.8916C339.601 86.2437 339.497 86.5878 339.301 86.8805C339.105 87.1732 338.827 87.4014 338.502 87.5361C338.177 87.6708 337.819 87.7061 337.474 87.6374C337.128 87.5687 336.811 87.3992 336.562 87.1503C336.313 86.9013 336.144 86.5841 336.075 86.2389C336.007 85.8936 336.042 85.5357 336.177 85.2104C336.311 84.8852 336.539 84.6072 336.832 84.4116C337.125 84.216 337.469 84.1116 337.821 84.1116C338.055 84.1103 338.287 84.1554 338.504 84.2444C338.72 84.3334 338.917 84.4644 339.083 84.63C339.248 84.7955 339.379 84.9923 339.468 85.2089C339.557 85.4254 339.602 85.6575 339.601 85.8916Z" fill="#455A64"/>
<path d="M310.32 115.542C310.318 115.893 310.212 116.236 310.015 116.528C309.818 116.819 309.539 117.046 309.214 117.179C308.889 117.312 308.531 117.346 308.186 117.276C307.842 117.206 307.526 117.036 307.278 116.787C307.03 116.538 306.861 116.22 306.793 115.875C306.725 115.53 306.761 115.173 306.896 114.848C307.031 114.524 307.259 114.246 307.552 114.051C307.844 113.856 308.188 113.752 308.54 113.752C308.774 113.752 309.007 113.798 309.223 113.888C309.44 113.978 309.637 114.11 309.802 114.277C309.967 114.443 310.098 114.64 310.187 114.857C310.276 115.075 310.321 115.307 310.32 115.542Z" fill="#455A64"/>
<path d="M368.88 125.422C368.88 125.774 368.776 126.118 368.58 126.411C368.385 126.703 368.107 126.931 367.781 127.066C367.456 127.201 367.098 127.236 366.753 127.167C366.408 127.099 366.091 126.929 365.842 126.68C365.593 126.431 365.423 126.114 365.355 125.769C365.286 125.424 365.321 125.066 365.456 124.74C365.591 124.415 365.819 124.137 366.111 123.942C366.404 123.746 366.748 123.642 367.1 123.642C367.572 123.642 368.025 123.829 368.359 124.163C368.693 124.497 368.88 124.95 368.88 125.422Z" fill="#455A64"/>
<path d="M396.38 109.222C397.363 109.222 398.16 108.425 398.16 107.442C398.16 106.459 397.363 105.662 396.38 105.662C395.397 105.662 394.6 106.459 394.6 107.442C394.6 108.425 395.397 109.222 396.38 109.222Z" fill="#455A64"/>
<path d="M296.32 143.892C294.456 144.238 292.544 144.238 290.68 143.892C292.544 143.545 294.456 143.545 296.32 143.892Z" fill="#E0E0E0"/>
<path d="M326.24 143.892C324.376 144.238 322.464 144.238 320.6 143.892C322.464 143.545 324.376 143.545 326.24 143.892Z" fill="#E0E0E0"/>
<path d="M356.169 143.892C354.305 144.238 352.393 144.238 350.529 143.892C352.393 143.545 354.305 143.545 356.169 143.892Z" fill="#E0E0E0"/>
<path d="M386.101 143.892C384.237 144.238 382.325 144.238 380.461 143.892C382.325 143.545 384.237 143.545 386.101 143.892Z" fill="#E0E0E0"/>
<path d="M416.021 143.892C414.157 144.238 412.245 144.238 410.381 143.892C412.245 143.545 414.157 143.545 416.021 143.892Z" fill="#E0E0E0"/>
<path d="M275.499 135.272C273.999 135.618 272.44 135.618 270.939 135.272C272.44 134.925 273.999 134.925 275.499 135.272Z" fill="#E0E0E0"/>
<path d="M275.499 123.782C273.999 124.128 272.44 124.128 270.939 123.782C272.44 123.435 273.999 123.435 275.499 123.782Z" fill="#E0E0E0"/>
<path d="M275.499 112.292C273.999 112.638 272.44 112.638 270.939 112.292C272.44 111.945 273.999 111.945 275.499 112.292Z" fill="#E0E0E0"/>
<path d="M275.499 100.792C273.999 101.138 272.44 101.138 270.939 100.792C272.44 100.445 273.999 100.445 275.499 100.792Z" fill="#E0E0E0"/>
<path d="M275.499 89.3017C273.999 89.6482 272.44 89.6482 270.939 89.3017C272.44 88.9551 273.999 88.9551 275.499 89.3017Z" fill="#E0E0E0"/>
<path d="M275.499 77.8117C273.999 78.1582 272.44 78.1582 270.939 77.8117C272.44 77.4651 273.999 77.4651 275.499 77.8117Z" fill="#E0E0E0"/>
<path d="M275.499 66.3117C273.999 66.6582 272.44 66.6582 270.939 66.3117C272.44 65.9651 273.999 65.9651 275.499 66.3117Z" fill="#E0E0E0"/>
<path d="M320.809 39.0818H278.859V42.0618H320.809V39.0818Z" fill="#CC9EFF"/>
<path d="M395.75 47.7717C395.75 47.9117 369.52 48.0317 337.16 48.0317C304.8 48.0317 278.6 47.8917 278.6 47.7717C278.6 47.6517 304.82 47.5117 337.18 47.5117C369.54 47.5117 395.75 47.6217 395.75 47.7717Z" fill="#263238"/>
<path d="M352.93 158.202C352.93 158.342 336.93 158.462 317.21 158.462C297.49 158.462 281.48 158.342 281.48 158.202C281.48 158.062 297.48 157.932 317.21 157.932C336.94 157.932 352.93 158.052 352.93 158.202Z" fill="#263238"/>
<path d="M298.599 163.592C296.068 163.855 293.522 163.942 290.979 163.852C288.436 163.942 285.89 163.855 283.359 163.592C285.891 163.334 288.436 163.247 290.979 163.332C293.522 163.247 296.068 163.334 298.599 163.592Z" fill="#263238"/>
<path d="M417.7 157.242C417.7 157.392 406.33 157.502 392.3 157.502C378.27 157.502 366.9 157.392 366.9 157.242C366.9 157.092 378.27 156.982 392.3 156.982C406.33 156.982 417.7 157.102 417.7 157.242Z" fill="#263238"/>
<path d="M390.079 160.742C384.792 161.088 379.487 161.088 374.199 160.742C376.837 160.478 379.49 160.391 382.139 160.482C384.789 160.392 387.441 160.478 390.079 160.742Z" fill="#263238"/>
<path d="M163.69 54.9419H66.25V142.122H163.69V54.9419Z" fill="#FAFAFA"/>
<path d="M163.69 142.122C163.69 142.122 163.69 141.562 163.69 140.502C163.69 139.442 163.69 137.862 163.69 135.832C163.69 131.732 163.69 125.752 163.69 118.132C163.69 102.902 163.62 81.1317 163.57 54.9417L163.79 55.1617H66.3602L66.6202 54.9017C66.6202 86.6217 66.6202 116.462 66.6202 142.082L66.3902 141.852L136.87 141.962L156.75 142.022H162.01H163.37H163.83H162.06H156.84L137.02 142.082L66.3902 142.192H66.1602V141.972C66.1602 116.352 66.1602 86.5117 66.1602 54.7917V54.5317H66.4302H163.86H164.09V54.7517C164.09 81.0017 164 102.822 163.97 118.082C163.97 125.682 163.97 131.652 163.91 135.732C163.91 137.732 163.91 139.302 163.91 140.362C163.91 141.422 163.69 142.122 163.69 142.122Z" fill="#263238"/>
<path d="M103.599 70.4316C103.599 70.5716 98.4695 70.6916 92.1395 70.6916C85.8095 70.6916 80.6895 70.5716 80.6895 70.4316C80.6895 70.2916 85.8095 70.1716 92.1395 70.1716C98.4695 70.1716 103.599 70.2916 103.599 70.4316Z" fill="#263238"/>
<path d="M144.901 76.9717C144.901 77.1217 130.811 77.2317 113.441 77.2317C96.0707 77.2317 81.9707 77.1217 81.9707 76.9717C81.9707 76.8217 96.0507 76.7117 113.441 76.7117C130.831 76.7117 144.901 76.8317 144.901 76.9717Z" fill="#263238"/>
<path d="M84.9811 88.0618H80.8711V92.1718H84.9811V88.0618Z" fill="#263238"/>
<path d="M95.0905 88.0618H90.9805V92.1718H95.0905V88.0618Z" fill="#263238"/>
<path d="M105.38 87.8816H101.27V91.9916H105.38V87.8816Z" fill="#CC9EFF"/>
<path d="M115.299 88.0618H111.189V92.1718H115.299V88.0618Z" fill="#263238"/>
<path d="M125.401 88.0618H121.291V92.1718H125.401V88.0618Z" fill="#263238"/>
<path d="M135.51 88.0618H131.4V92.1718H135.51V88.0618Z" fill="#263238"/>
<path d="M145.61 88.0618H141.5V92.1718H145.61V88.0618Z" fill="#263238"/>
<path d="M84.9811 96.7917H80.8711V100.902H84.9811V96.7917Z" fill="#263238"/>
<path d="M95.0905 96.7917H90.9805V100.902H95.0905V96.7917Z" fill="#263238"/>
<path d="M105.19 96.7917H101.08V100.902H105.19V96.7917Z" fill="#263238"/>
<path d="M115.299 96.7917H111.189V100.902H115.299V96.7917Z" fill="#263238"/>
<path d="M125.401 96.7917H121.291V100.902H125.401V96.7917Z" fill="#263238"/>
<path d="M135.7 96.6018H131.59V100.712H135.7V96.6018Z" fill="#CC9EFF"/>
<path d="M145.61 96.7917H141.5V100.902H145.61V96.7917Z" fill="#263238"/>
<path d="M84.9811 105.522H80.8711V109.632H84.9811V105.522Z" fill="#263238"/>
<path d="M95.2799 105.332H91.1699V109.442H95.2799V105.332Z" fill="#CC9EFF"/>
<path d="M105.19 105.522H101.08V109.632H105.19V105.522Z" fill="#263238"/>
<path d="M115.299 105.522H111.189V109.632H115.299V105.522Z" fill="#263238"/>
<path d="M125.401 105.522H121.291V109.632H125.401V105.522Z" fill="#263238"/>
<path d="M135.51 105.522H131.4V109.632H135.51V105.522Z" fill="#263238"/>
<path d="M145.61 105.522H141.5V109.632H145.61V105.522Z" fill="#263238"/>
<path d="M84.9811 114.242H80.8711V118.352H84.9811V114.242Z" fill="#263238"/>
<path d="M95.0905 114.242H90.9805V118.352H95.0905V114.242Z" fill="#263238"/>
<path d="M105.19 114.242H101.08V118.352H105.19V114.242Z" fill="#263238"/>
<path d="M115.491 114.062H111.381V118.172H115.491V114.062Z" fill="#CC9EFF"/>
<path d="M125.401 114.242H121.291V118.352H125.401V114.242Z" fill="#263238"/>
<path d="M135.51 114.242H131.4V118.352H135.51V114.242Z" fill="#263238"/>
<path d="M145.61 114.242H141.5V118.352H145.61V114.242Z" fill="#263238"/>
<path d="M84.9811 122.972H80.8711V127.082H84.9811V122.972Z" fill="#263238"/>
<path d="M95.0905 122.972H90.9805V127.082H95.0905V122.972Z" fill="#263238"/>
<path d="M105.19 122.972H101.08V127.082H105.19V122.972Z" fill="#263238"/>
<path d="M115.299 122.972H111.189V127.082H115.299V122.972Z" fill="#263238"/>
<path d="M125.401 122.972H121.291V127.082H125.401V122.972Z" fill="#263238"/>
<path d="M135.7 122.782H131.59V126.892H135.7V122.782Z" fill="#CC9EFF"/>
<path d="M145.61 122.972H141.5V127.082H145.61V122.972Z" fill="#263238"/>
<path d="M158.54 20.1017C158.54 20.1017 158.54 19.9717 158.54 19.7317C158.54 19.4917 158.54 19.1117 158.54 18.7317C158.54 17.7317 158.54 16.4917 158.48 14.8917C158.48 11.5717 158.41 6.95166 158.36 1.48166L158.59 1.72166H143.8C143.75 1.78166 144.3 1.23166 144.06 1.47166V6.53166C144.06 8.19166 144.06 9.80167 144.06 11.3717C144.06 14.5017 144.06 17.4317 144.06 20.1017L143.84 19.8917L154.52 20.0017H157.52C158.23 20.0017 158.61 20.0017 158.62 20.0017C158.288 20.0415 157.954 20.0582 157.62 20.0517L154.62 20.1117L143.81 20.2217H143.6V20.0017C143.6 17.3317 143.6 14.4017 143.6 11.2717V6.53166C143.6 5.70166 143.6 4.86166 143.6 4.02166V1.47166L143.86 1.20166H158.65H158.89V1.43166C158.84 6.96166 158.8 11.6317 158.77 14.9917C158.77 16.5717 158.72 17.8417 158.71 18.7817C158.71 19.1717 158.71 19.5017 158.71 19.7817C158.67 19.8966 158.613 20.0046 158.54 20.1017Z" fill="#263238"/>
<path d="M178.161 20.1018C178.153 20.022 178.153 19.9416 178.161 19.8618C178.161 19.6818 178.161 19.4618 178.161 19.1818C178.161 18.5518 178.161 17.6818 178.161 16.5718C178.161 14.2818 178.161 11.0018 178.091 6.92181C178.091 -1.28819 178.021 -12.7382 177.971 -25.8782L178.231 -25.6282H164.331C164.851 -26.1482 164.481 -25.7582 164.591 -25.8782V-12.3582C164.591 -8.01819 164.591 -3.85818 164.591 0.0518131C164.591 7.86182 164.541 14.7018 164.521 20.0518L164.351 19.8918L174.481 19.9818H177.211H177.931H178.181C178.108 19.9909 178.034 19.9909 177.961 19.9818H177.271H174.581L164.351 20.0718H164.191V19.9018C164.191 14.5018 164.191 7.66182 164.121 -0.0981884C164.121 -4.00818 164.121 -8.16819 164.121 -12.5082C164.121 -14.6782 164.121 -16.8982 164.121 -19.1582V-25.8682C164.241 -25.9882 163.861 -25.6182 164.381 -26.1382H178.461V-25.8882C178.411 -12.6782 178.371 -1.16819 178.351 7.1118C178.351 11.1618 178.291 14.4218 178.271 16.7018C178.271 17.7818 178.271 18.6318 178.271 19.2518C178.271 19.5218 178.271 19.7318 178.271 19.9018C178.24 19.9715 178.203 20.0385 178.161 20.1018Z" fill="#263238"/>
<path d="M198.289 20.1017C198.277 19.9152 198.277 19.7281 198.289 19.5417C198.289 19.1417 198.289 18.6317 198.289 17.9817C198.289 16.5817 198.289 14.6317 198.229 12.1917C198.229 7.19167 198.159 0.301664 198.109 -7.80833L198.359 -7.55833H184.339L184.589 -7.80833V0.031662C184.589 2.57166 184.589 5.03166 184.589 7.39166C184.589 12.0917 184.589 16.3917 184.589 20.0317L184.389 19.8417L194.539 19.9417H197.339H198.079H198.349C198.036 19.9667 197.722 19.9667 197.409 19.9417H194.659L184.389 20.0517H184.199V19.8517C184.199 16.1917 184.199 11.9117 184.199 7.21166C184.199 4.85166 184.199 2.39166 184.199 -0.148338C184.199 -1.42834 184.199 -2.71834 184.199 -4.02834V-8.02834L184.469 -8.29834H198.419H198.659V-8.05833C198.609 0.081666 198.569 7.06166 198.539 12.0617C198.539 14.4817 198.489 16.4117 198.479 17.8017C198.479 18.4317 198.479 18.9317 198.479 19.3117C198.459 19.5835 198.395 19.8503 198.289 20.1017Z" fill="#263238"/>
<path d="M218.81 20.1017C218.806 20.0318 218.806 19.9616 218.81 19.8917C218.81 19.7317 218.81 19.5417 218.81 19.3017C218.81 18.7617 218.81 18.0117 218.81 17.0617C218.81 15.0617 218.81 12.2517 218.74 8.73174C218.74 1.64174 218.67 -8.26826 218.62 -19.7183L218.87 -19.4683H204.27L204.52 -19.7283V-8.22826C204.52 -4.51826 204.52 -0.958263 204.52 2.42174C204.52 9.17174 204.52 15.1717 204.46 20.0917L204.28 19.9217L214.91 20.0117H217.8H218.56H218.83C218.83 20.0117 218.76 20.0117 218.6 20.0117H217.87H215.02L204.28 20.1117H204.11V19.9317C204.11 15.0117 204.11 9.01174 204.05 2.26174C204.05 -1.11826 204.05 -4.67826 204.05 -8.38826V-13.8783C204.05 -14.8783 204.05 -15.8083 204.05 -16.7783V-19.7183C204.17 -19.8283 203.79 -19.4683 204.32 -19.9883H219.12V-19.7283C219.12 -8.21826 219.04 1.76174 219.01 8.89174C219.01 12.3917 218.95 15.1917 218.94 17.1617C218.94 18.0884 218.94 18.8184 218.94 19.3517C218.83 19.8917 218.82 20.1117 218.81 20.1017Z" fill="#263238"/>
<path d="M214.16 264.302C215.72 267.962 222.24 353.092 221.55 351.802L238 350.712L239.07 262.312L214.16 264.302Z" fill="#FFBE9D"/>
<path d="M182.4 264.712C182.86 266.322 191.48 352.412 191.48 352.412L207.93 351.332L209 264.712H182.4Z" fill="#FFBE9D"/>
<path d="M280.84 112.542C284.16 110.392 286.23 108.612 288.48 107.322C291.25 105.732 292.28 104.882 291.95 104.392C291.5 103.722 291.7 103.962 286.26 106.122C286.26 106.122 294 102.962 291.79 102.332C290.79 102.052 284.35 104.612 284.35 104.612C289.72 103.032 291.5 101.612 291.22 100.782C290.81 99.6217 282.99 102.782 282.99 102.782C282.99 102.782 288.99 100.482 289.93 99.7817C290.87 99.0817 289.46 98.7817 288.24 98.7817C286.86 98.8717 278.96 100.532 276.65 100.892C276.458 100.945 276.257 100.956 276.06 100.924C275.863 100.892 275.676 100.818 275.51 100.707C275.345 100.596 275.206 100.45 275.102 100.28C274.998 100.11 274.933 99.9196 274.91 99.7217C275.02 96.3317 273.29 93.6417 272.48 93.1317C271.67 92.6217 270.7 93.5617 271.1 94.5417C271.437 95.641 271.619 96.782 271.64 97.9317C271.697 98.8489 271.595 99.769 271.34 100.652C271.05 101.652 270.76 102.532 270.49 103.242L255.18 127.242L261.82 143.652L280.84 112.542Z" fill="#FFBE9D"/>
<path d="M283.01 107.512C284.326 107.231 285.6 106.781 286.8 106.172C288.071 105.726 289.278 105.114 290.39 104.352C289.075 104.632 287.801 105.079 286.6 105.682C285.328 106.132 284.121 106.747 283.01 107.512Z" fill="#EB996E"/>
<path d="M281.961 105.502C283.379 105.279 284.763 104.879 286.081 104.312C287.459 103.912 288.782 103.345 290.021 102.622C288.603 102.845 287.219 103.244 285.901 103.812C284.522 104.207 283.198 104.774 281.961 105.502Z" fill="#EB996E"/>
<path d="M280.881 103.422C282.229 103.237 283.546 102.877 284.801 102.352C286.111 101.998 287.368 101.474 288.541 100.792C287.193 100.97 285.875 101.326 284.621 101.852C283.312 102.211 282.054 102.739 280.881 103.422Z" fill="#EB996E"/>
<path d="M237.691 87.5418V124.132L237.881 150.452L197.051 163.862L197.461 143.862C197.461 143.862 189.021 117.472 189.021 117.032C189.021 116.592 188.221 88.2818 188.221 88.2818L203.311 84.6118L222.311 84.3918L237.691 87.5418Z" fill="#CC9EFF"/>
<path d="M188.221 88.2717C188.221 88.2717 182.891 90.6217 180.741 92.3717C179.301 93.5417 166.741 116.022 158.591 130.862C157.676 132.523 157.109 134.352 156.923 136.239C156.737 138.126 156.936 140.031 157.508 141.838C158.081 143.646 159.014 145.318 160.252 146.754C161.49 148.19 163.007 149.36 164.711 150.192L188.161 161.642L195.241 141.982L181.821 134.732L191.961 117.082L188.221 88.2717Z" fill="#CC9EFF"/>
<path d="M188.16 161.642L179.43 160.992V153.672L192.19 150.452L188.16 161.642Z" fill="#CC9EFF"/>
<path d="M179.5 134.412C180.926 134.598 182.368 134.625 183.8 134.492C185.241 134.352 186.593 133.732 187.64 132.732C189.02 131.292 189.36 129.182 189.64 127.212L191.08 117.022C187.63 117.232 184.74 119.912 183.25 123.022C181.76 126.132 181.43 129.652 181.12 133.082" fill="#CC9EFF"/>
<path d="M237.691 87.5417L254.161 124.952L264.751 110.432C264.751 110.432 275.531 115.722 274.231 131.112L261.421 148.522C260.08 149.584 258.526 150.345 256.864 150.751C255.203 151.157 253.473 151.2 251.793 150.876C250.114 150.553 248.524 149.87 247.132 148.875C245.741 147.88 244.581 146.596 243.731 145.112L232.211 124.952L237.691 87.5417Z" fill="#CC9EFF"/>
<path d="M196.161 86.3517C195.991 86.3517 219.891 112.952 219.891 112.952L224.801 84.8617C224.801 84.8617 210.001 81.3817 196.161 86.3517Z" fill="#FFBE9D"/>
<path d="M237.88 132.292C237.704 132.176 237.543 132.038 237.4 131.882C237.07 131.552 236.64 131.132 236.1 130.622C234.98 129.512 233.39 127.892 231.44 125.862C227.54 121.812 222.27 116.092 216.56 109.692L201.98 93.2518L197.56 88.2518L196.37 86.8618C196.222 86.7102 196.091 86.5425 195.98 86.3618C196.148 86.4924 196.305 86.6362 196.45 86.7918L197.71 88.0918C198.8 89.2318 200.35 90.8918 202.25 92.9618C206.06 97.1018 211.25 102.902 216.95 109.302C222.65 115.702 227.88 121.452 231.7 125.572L236.25 130.432L237.48 131.762C237.629 131.926 237.763 132.104 237.88 132.292Z" fill="#263238"/>
<path d="M196.29 140.212C196.11 139.805 195.966 139.384 195.86 138.952L194.86 135.472C194 132.532 192.75 128.472 191.37 124.042C189.99 119.612 188.81 115.512 188.08 112.532C187.72 111.042 187.44 109.832 187.28 108.992C187.169 108.563 187.099 108.124 187.07 107.682C187.254 108.088 187.392 108.514 187.48 108.952C187.73 109.872 188.05 111.042 188.48 112.442C189.3 115.382 190.48 119.442 191.9 123.892C193.32 128.342 194.49 132.412 195.26 135.372C195.64 136.852 195.94 138.062 196.12 138.892C196.224 139.325 196.281 139.767 196.29 140.212Z" fill="#263238"/>
<path d="M170.851 132.542C170.851 132.542 170.751 132.352 170.801 131.992C170.912 131.473 171.216 131.015 171.651 130.712C172.279 130.242 173.061 130.027 173.841 130.112C174.75 130.25 175.622 130.573 176.401 131.062C179.611 133.062 182.401 134.122 182.401 134.262C180.176 133.713 178.062 132.786 176.151 131.522C175.426 131.067 174.622 130.751 173.781 130.592C173.111 130.492 172.428 130.642 171.861 131.012C171.474 131.243 171.172 131.594 171.001 132.012C170.891 132.342 170.891 132.542 170.851 132.542Z" fill="#263238"/>
<path d="M190.161 139.522C190.231 139.592 189.251 140.522 187.851 142.212C184.174 146.584 181.544 151.738 180.161 157.282C179.631 159.402 179.451 160.752 179.361 160.742C179.309 160.41 179.309 160.073 179.361 159.742C179.441 158.874 179.575 158.013 179.761 157.162C180.941 151.491 183.605 146.235 187.481 141.932C188.059 141.28 188.673 140.663 189.321 140.082C189.572 139.855 189.855 139.666 190.161 139.522Z" fill="#263238"/>
<path d="M236.33 96.8618C236.518 97.3281 236.666 97.8099 236.77 98.3018C237.02 99.2318 237.37 100.592 237.77 102.302C238.866 106.705 239.469 111.216 239.57 115.752C239.507 120.283 239.005 124.798 238.07 129.232C237.74 130.932 237.44 132.302 237.22 133.232C237.137 133.728 237.003 134.213 236.82 134.682C236.846 134.181 236.913 133.682 237.02 133.192L237.71 129.142C238.534 124.718 238.982 120.232 239.05 115.732C238.938 111.233 238.389 106.755 237.41 102.362C237.08 100.742 236.8 99.3618 236.58 98.3618C236.447 97.8714 236.363 97.3689 236.33 96.8618Z" fill="#263238"/>
<path d="M253.81 136.912C253.672 135.096 253.705 133.271 253.91 131.462C253.942 129.639 254.153 127.823 254.54 126.042C254.672 127.858 254.635 129.682 254.43 131.492C254.394 133.314 254.186 135.129 253.81 136.912Z" fill="#263238"/>
<path d="M258.561 136.462C257.515 134.511 256.622 132.481 255.891 130.392C254.997 128.365 254.261 126.272 253.691 124.132C254.748 126.079 255.645 128.109 256.371 130.202C257.271 132.225 258.003 134.319 258.561 136.462Z" fill="#263238"/>
<path d="M267.161 140.722C267.071 140.722 267.231 139.352 267.161 137.162C267.074 134.321 266.453 131.523 265.331 128.912C264.147 126.323 262.553 123.943 260.611 121.862C259.121 120.262 258.091 119.362 258.151 119.292C258.437 119.439 258.7 119.628 258.931 119.852C261.863 122.245 264.215 125.27 265.811 128.702C266.962 131.373 267.547 134.253 267.531 137.162C267.529 138.035 267.469 138.907 267.351 139.772C267.339 140.097 267.275 140.417 267.161 140.722Z" fill="#263238"/>
<path d="M203.64 95.7519C203.64 95.7519 203.25 95.5519 202.53 95.2419C201.508 94.8314 200.411 94.6406 199.31 94.6819C197.687 94.7197 196.123 95.2928 194.86 96.3119C193.43 97.4519 192.48 99.3119 191.06 101.002C190.377 101.87 189.491 102.557 188.48 103.002C187.525 103.367 186.494 103.491 185.48 103.362C183.788 103.134 182.192 102.442 180.87 101.362C179.978 100.673 179.148 99.9065 178.39 99.0719C178.092 98.786 177.824 98.4711 177.59 98.1319C177.935 98.3593 178.25 98.6279 178.53 98.9319C179.336 99.6925 180.188 100.404 181.08 101.062C182.377 102.05 183.912 102.678 185.53 102.882C186.469 102.985 187.419 102.861 188.3 102.522C189.226 102.113 190.042 101.489 190.68 100.702C192.04 99.0919 193.02 97.1819 194.57 95.9719C195.925 94.9132 197.6 94.3456 199.32 94.3619C200.463 94.3449 201.594 94.5985 202.62 95.1019C202.897 95.2385 203.161 95.3991 203.41 95.5819C203.577 95.6885 203.653 95.7452 203.64 95.7519Z" fill="#FAFAFA"/>
<path d="M188.93 129.442C188.93 129.442 188.84 129.502 188.66 129.562C188.385 129.652 188.1 129.706 187.81 129.722C186.736 129.746 185.683 129.42 184.81 128.792C183.488 127.902 182.447 126.653 181.81 125.192C181.05 123.592 180.57 121.722 179.81 119.892C179.145 118.161 178.079 116.612 176.7 115.372C175.566 114.367 174.258 113.577 172.84 113.042C171.51 112.59 170.13 112.298 168.73 112.172C169.109 112.094 169.496 112.074 169.88 112.112C170.93 112.15 171.968 112.346 172.96 112.692C174.451 113.195 175.83 113.983 177.02 115.012C178.475 116.285 179.6 117.89 180.3 119.692C181.05 121.582 181.51 123.442 182.22 124.992C182.803 126.386 183.753 127.596 184.97 128.492C185.781 129.101 186.757 129.45 187.77 129.492C188.53 129.532 188.92 129.392 188.93 129.442Z" fill="#FAFAFA"/>
<path d="M164.561 150.322C164.9 150.283 165.234 150.212 165.561 150.112C166.415 149.708 167.101 149.018 167.501 148.162C168.091 146.871 168.501 145.505 168.721 144.102C169 142.341 169.504 140.624 170.221 138.992C170.641 138.145 171.221 137.387 171.931 136.762C172.597 136.188 173.354 135.729 174.171 135.402C175.545 134.878 177.01 134.633 178.481 134.682C179.458 134.709 180.432 134.82 181.391 135.012C181.734 135.064 182.07 135.158 182.391 135.292C182.391 135.392 180.871 135.052 178.441 135.052C177.028 135.049 175.629 135.321 174.321 135.852C172.724 136.489 171.417 137.693 170.651 139.232C169.947 140.831 169.444 142.51 169.151 144.232C168.899 145.672 168.438 147.066 167.781 148.372C167.325 149.288 166.544 150.001 165.591 150.372C165.328 150.451 165.053 150.478 164.781 150.452C164.7 150.422 164.625 150.378 164.561 150.322Z" fill="#FAFAFA"/>
<path d="M192.311 150.512C190.327 150.607 188.356 150.878 186.421 151.322C184.537 151.943 182.713 152.733 180.971 153.682C182.455 152.274 184.288 151.287 186.281 150.822C188.229 150.19 190.308 150.083 192.311 150.512Z" fill="#FAFAFA"/>
<path d="M218.261 111.962C217.88 112.148 217.486 112.305 217.081 112.432C216.041 112.904 215.061 113.498 214.161 114.202C213.011 115.082 211.761 116.282 210.361 117.612C208.895 119.134 207.21 120.428 205.361 121.452C203.419 122.406 201.225 122.724 199.091 122.362C197.385 122.063 195.726 121.535 194.161 120.792C192.821 120.172 191.791 119.582 191.091 119.172C190.71 118.979 190.351 118.744 190.021 118.472C190.071 118.382 191.641 119.292 194.311 120.472C195.862 121.142 197.492 121.609 199.161 121.862C201.207 122.187 203.304 121.869 205.161 120.952C206.979 119.951 208.645 118.699 210.111 117.232C211.344 116.035 212.646 114.913 214.011 113.872C214.952 113.178 215.986 112.619 217.081 112.212C217.462 112.077 217.859 111.993 218.261 111.962Z" fill="#FAFAFA"/>
<path d="M239.671 115.972C239.671 116.132 236.031 115.972 231.671 116.672C227.311 117.372 223.821 118.482 223.771 118.322C224.467 117.934 225.21 117.638 225.981 117.442C227.815 116.866 229.691 116.434 231.591 116.152C233.492 115.877 235.411 115.747 237.331 115.762C238.117 115.728 238.904 115.798 239.671 115.972Z" fill="#FAFAFA"/>
<path d="M237.03 102.542C236.279 102.453 235.541 102.279 234.83 102.022L229.61 100.502L224.4 98.9619C223.66 98.7933 222.943 98.5417 222.26 98.2119C223.016 98.252 223.765 98.3829 224.49 98.6019C225.85 98.9219 227.71 99.4019 229.76 100.002C231.81 100.602 233.63 101.202 234.94 101.672C235.668 101.878 236.37 102.17 237.03 102.542Z" fill="#FAFAFA"/>
<path d="M244.511 104.632C244.571 104.782 243.091 105.392 241.511 106.522C239.931 107.652 238.831 108.802 238.711 108.702C240.034 106.631 242.123 105.168 244.521 104.632H244.511Z" fill="#FAFAFA"/>
<path d="M253.44 122.862C253.438 123.132 253.388 123.4 253.29 123.652C253.087 124.348 252.805 125.019 252.45 125.652C251.222 127.748 249.507 129.518 247.45 130.812C245.429 132.087 243.264 133.118 241 133.882C240.085 134.25 239.138 134.532 238.17 134.722C239.033 134.253 239.933 133.855 240.86 133.532C243.058 132.686 245.168 131.628 247.16 130.372C249.133 129.111 250.811 127.44 252.08 125.472C253.07 123.862 253.35 122.792 253.44 122.862Z" fill="#FAFAFA"/>
<path d="M256.24 151.412C255.982 150.338 255.818 149.244 255.75 148.142C255.52 146.142 255.29 143.312 255.15 140.202C255.01 137.092 254.99 134.272 255.04 132.202C255.01 131.098 255.077 129.994 255.24 128.902C255.369 129.997 255.423 131.099 255.4 132.202C255.46 134.202 255.53 137.042 255.67 140.142C255.81 143.242 255.98 146.052 256.11 148.082C256.231 149.187 256.275 150.3 256.24 151.412Z" fill="#FAFAFA"/>
<path d="M273.68 122.222C271.364 120.944 268.908 119.937 266.36 119.222C263.77 118.678 261.127 118.43 258.48 118.482C259.238 118.249 260.028 118.134 260.82 118.142C262.728 118.067 264.636 118.259 266.49 118.712C268.342 119.17 270.119 119.887 271.77 120.842C272.477 121.197 273.122 121.663 273.68 122.222Z" fill="#FAFAFA"/>
<path d="M279.691 109.092C279.691 109.142 279.361 108.862 278.811 108.552C278.084 108.141 277.254 107.95 276.421 108.002H276.031L276.171 107.632C276.286 107.334 276.383 107.03 276.461 106.722C276.739 105.228 276.685 103.692 276.301 102.222C276.361 102.222 276.671 102.632 276.921 103.472C277.212 104.576 277.212 105.737 276.921 106.842C276.84 107.183 276.733 107.517 276.601 107.842L276.351 107.492C277.283 107.451 278.2 107.73 278.951 108.282C279.531 108.692 279.731 109.062 279.691 109.092Z" fill="#EB996E"/>
<path d="M198.85 142.652L198.7 144.142C198.7 144.142 180.33 166.352 178.85 181.612C177.63 194.212 180.97 289.852 180.97 289.852L241.29 283.102L238.59 144.102L198.85 142.652Z" fill="#263238"/>
<path d="M224.991 163.642C225.001 163.748 225.001 163.855 224.991 163.962C224.991 164.202 224.991 164.502 224.991 164.892C224.991 165.742 224.931 166.892 224.881 168.442C224.791 171.532 224.571 176.002 224.311 181.522C223.741 192.522 222.811 207.802 221.611 224.622C220.411 241.442 219.201 256.622 218.281 267.672C217.801 273.152 217.411 277.602 217.141 280.672C217.001 282.182 216.881 283.372 216.801 284.212L216.701 285.132C216.694 285.237 216.674 285.341 216.641 285.442C216.627 285.339 216.627 285.235 216.641 285.132L216.691 284.202C216.751 283.362 216.831 282.202 216.941 280.652C217.171 277.542 217.501 273.092 217.941 267.602C218.761 256.602 219.881 241.342 221.121 224.542C222.361 207.742 223.311 192.492 223.971 181.462C224.281 175.972 224.531 171.522 224.711 168.392C224.801 166.882 224.871 165.692 224.921 164.842C224.921 164.462 224.971 164.162 224.991 163.922C224.978 163.829 224.978 163.735 224.991 163.642Z" fill="#455A64"/>
<path d="M216.351 190.662C215.976 190.981 215.708 191.406 215.581 191.882C215.524 192.125 215.521 192.378 215.571 192.624C215.621 192.869 215.723 193.1 215.871 193.302C216.076 193.511 216.334 193.66 216.618 193.734C216.901 193.808 217.199 193.803 217.48 193.721C217.761 193.639 218.015 193.482 218.214 193.268C218.413 193.053 218.55 192.788 218.611 192.502C218.626 192.253 218.588 192.003 218.498 191.77C218.408 191.537 218.269 191.326 218.091 191.152C217.729 190.82 217.276 190.604 216.791 190.532C216.791 190.532 216.931 190.422 217.221 190.422C217.636 190.442 218.031 190.605 218.341 190.882C218.585 191.082 218.78 191.336 218.91 191.624C219.041 191.912 219.102 192.226 219.091 192.542C219.034 192.933 218.867 193.3 218.607 193.599C218.348 193.897 218.008 194.115 217.629 194.225C217.249 194.336 216.846 194.335 216.467 194.223C216.088 194.111 215.749 193.892 215.491 193.592C215.307 193.335 215.186 193.037 215.139 192.724C215.092 192.411 215.12 192.092 215.221 191.792C215.331 191.385 215.583 191.03 215.931 190.792C216.161 190.642 216.341 190.632 216.351 190.662Z" fill="#455A64"/>
<path d="M214.54 212.862C214.166 213.181 213.897 213.606 213.77 214.082C213.714 214.325 213.71 214.578 213.761 214.823C213.811 215.069 213.913 215.3 214.06 215.502C214.255 215.726 214.513 215.886 214.8 215.963C215.087 216.04 215.39 216.029 215.67 215.932C215.958 215.86 216.219 215.705 216.419 215.486C216.62 215.267 216.753 214.995 216.8 214.702C216.816 214.453 216.777 214.203 216.687 213.97C216.598 213.737 216.459 213.526 216.28 213.352C215.919 213.02 215.466 212.804 214.98 212.732C214.98 212.732 215.12 212.622 215.41 212.622C215.825 212.645 216.219 212.807 216.53 213.082C216.775 213.282 216.97 213.536 217.1 213.824C217.23 214.112 217.292 214.426 217.28 214.742C217.238 215.139 217.074 215.514 216.811 215.814C216.548 216.115 216.199 216.327 215.81 216.422C215.434 216.55 215.027 216.559 214.645 216.446C214.263 216.333 213.926 216.105 213.68 215.792C213.496 215.535 213.376 215.237 213.329 214.924C213.282 214.611 213.31 214.292 213.41 213.992C213.52 213.585 213.772 213.23 214.12 212.992C214.36 212.862 214.53 212.862 214.54 212.862Z" fill="#455A64"/>
<path d="M212.341 234.312C212.401 234.392 211.771 234.642 211.581 235.542C211.525 235.785 211.522 236.037 211.57 236.282C211.618 236.526 211.717 236.758 211.861 236.962C212.06 237.183 212.32 237.34 212.608 237.415C212.896 237.489 213.199 237.478 213.481 237.382C213.768 237.313 214.029 237.16 214.23 236.943C214.431 236.726 214.564 236.454 214.611 236.162C214.627 235.911 214.589 235.66 214.499 235.425C214.409 235.19 214.27 234.978 214.091 234.802C213.728 234.468 213.27 234.254 212.781 234.192C212.781 234.192 212.921 234.082 213.211 234.082C213.627 234.103 214.024 234.261 214.341 234.532C214.584 234.735 214.778 234.991 214.908 235.28C215.038 235.57 215.101 235.885 215.091 236.202C215.032 236.593 214.863 236.959 214.602 237.257C214.342 237.555 214.002 237.772 213.622 237.882C213.242 237.993 212.839 237.992 212.459 237.88C212.08 237.769 211.74 237.55 211.481 237.252C211.303 236.99 211.187 236.69 211.142 236.377C211.097 236.063 211.124 235.743 211.221 235.442C211.331 235.037 211.579 234.684 211.921 234.442C212.161 234.302 212.331 234.292 212.341 234.312Z" fill="#455A64"/>
<path d="M210.581 258.862C210.631 258.942 210.001 259.192 209.811 260.092C209.754 260.335 209.751 260.588 209.801 260.833C209.851 261.079 209.953 261.31 210.101 261.512C210.299 261.732 210.557 261.889 210.843 261.964C211.129 262.038 211.431 262.027 211.711 261.932C212 261.866 212.263 261.715 212.465 261.497C212.667 261.279 212.798 261.006 212.841 260.712C212.859 260.461 212.822 260.209 212.732 259.974C212.642 259.739 212.502 259.527 212.321 259.352C211.96 259.02 211.507 258.807 211.021 258.742C211.021 258.742 211.161 258.632 211.451 258.632C211.864 258.652 212.258 258.811 212.571 259.082C212.815 259.285 213.009 259.541 213.139 259.83C213.268 260.12 213.331 260.435 213.321 260.752C213.265 261.143 213.097 261.51 212.837 261.809C212.578 262.107 212.238 262.325 211.859 262.435C211.479 262.546 211.076 262.545 210.697 262.433C210.318 262.321 209.979 262.101 209.721 261.802C209.542 261.54 209.425 261.241 209.378 260.928C209.332 260.614 209.356 260.294 209.451 259.992C209.569 259.588 209.819 259.236 210.161 258.992C210.401 258.862 210.571 258.862 210.581 258.862Z" fill="#455A64"/>
<path d="M236.021 65.7217C236.131 65.8517 236.021 66.2117 235.521 66.6517C234.799 67.2634 233.905 67.637 232.961 67.7217C232.226 67.8 231.482 67.7277 230.776 67.5094C230.069 67.291 229.414 66.9312 228.851 66.4517C228.139 65.8601 227.574 65.1117 227.199 64.2651C226.824 63.4185 226.651 62.4967 226.691 61.5717C226.859 59.934 227.384 58.3533 228.231 56.9417C228.802 55.8586 229.437 54.8101 230.131 53.8017C231.331 52.0817 232.291 51.1717 232.591 51.3617C232.891 51.5517 232.501 52.7917 231.751 54.6717C231.351 55.6717 230.891 56.7617 230.401 57.9617C229.834 59.1375 229.459 60.3969 229.291 61.6917C229.268 62.2455 229.36 62.7982 229.561 63.3146C229.763 63.8311 230.069 64.3 230.461 64.6917C231.121 65.3674 231.993 65.7948 232.931 65.9017C234.661 66.0817 235.791 65.4117 236.021 65.7217Z" fill="#263238"/>
<path d="M201.53 40.0319C202.859 39.5034 203.974 38.5468 204.699 37.3134C205.423 36.08 205.716 34.6402 205.53 33.2219C205.291 31.8091 204.676 30.4864 203.751 29.3923C202.826 28.2981 201.623 27.4725 200.27 27.0019C198.908 26.5581 197.471 26.3949 196.044 26.5221C194.618 26.6493 193.232 27.0642 191.97 27.7419C189.569 28.9254 187.692 30.956 186.7 33.4419C186.222 34.6817 186.042 36.0167 186.176 37.3389C186.31 38.661 186.753 39.933 187.47 41.0519C188.502 42.4168 189.91 43.4512 191.521 44.0284C193.132 44.6057 194.876 44.7007 196.54 44.3019C198.192 43.8644 199.735 43.0906 201.074 42.0289C202.413 40.9672 203.518 39.6405 204.32 38.1319" fill="#263238"/>
<path d="M192.041 27.8619C192.731 27.6663 193.466 27.705 194.131 27.9719C195.79 28.5145 197.205 29.6222 198.131 31.1019C198.997 32.5567 199.606 34.15 199.931 35.8119C200.109 36.4801 200.186 37.1709 200.161 37.8619C199.873 37.2206 199.655 36.55 199.511 35.8619C199.101 34.277 198.468 32.7585 197.631 31.3519C196.769 29.9728 195.496 28.899 193.991 28.2819C193.353 28.0904 192.701 27.95 192.041 27.8619Z" fill="#455A64"/>
<path d="M200.551 26.6418C200.94 27.0333 201.234 27.5089 201.411 28.0318C201.934 29.2533 202.219 30.5634 202.251 31.8918C202.294 33.2186 202.087 34.5417 201.641 35.7918C201.497 36.3263 201.23 36.8196 200.861 37.2318C201.415 35.5084 201.708 33.7119 201.731 31.9018C201.597 30.1002 201.2 28.328 200.551 26.6418Z" fill="#455A64"/>
<path d="M186.281 34.6318C186.371 34.6318 186.551 35.4118 187.211 36.5218C188.056 37.9728 189.33 39.1255 190.858 39.8206C192.386 40.5157 194.093 40.7188 195.741 40.4018C197.011 40.1718 197.741 39.7918 197.741 39.8718C197.164 40.338 196.474 40.6449 195.741 40.7618C194.012 41.1971 192.186 41.0314 190.563 40.2917C188.94 39.5521 187.617 38.2827 186.811 36.6918C186.462 36.0615 186.28 35.3524 186.281 34.6318Z" fill="#455A64"/>
<path d="M201.951 27.9718C202.051 27.8766 202.166 27.7989 202.291 27.7418C202.626 27.5772 202.998 27.5014 203.371 27.5218C203.934 27.5391 204.479 27.7197 204.941 28.0418C205.504 28.444 205.924 29.0149 206.141 29.6718C206.556 30.8426 206.521 32.1259 206.041 33.2718C205.887 33.6149 205.65 33.914 205.351 34.1418C205.248 34.2324 205.124 34.2975 204.991 34.3318C205.393 34.051 205.709 33.663 205.901 33.2118C206.315 32.0922 206.315 30.8614 205.901 29.7418C205.688 29.129 205.299 28.5931 204.781 28.2018C204.354 27.8903 203.848 27.7034 203.321 27.6618C202.846 27.6553 202.377 27.7615 201.951 27.9718Z" fill="#263238"/>
<path d="M203.431 70.3218C200.431 66.4518 197.241 61.5118 195.851 56.8318C194.325 52.1439 194.542 47.0629 196.461 42.5218C198.861 37.3318 203.971 33.6818 209.461 32.2518C214.157 30.9276 219.179 31.4166 223.531 33.6218C225.673 34.7466 227.487 36.4073 228.797 38.442C230.106 40.4768 230.865 42.8161 231.001 45.2318" fill="#263238"/>
<path d="M219.98 34.7019C221.19 34.5819 226.7 35.8919 229.73 38.0219C231.48 39.2501 232.875 40.9189 233.772 42.8594C234.669 44.7999 235.038 46.9431 234.84 49.0719C234.56 51.4219 232.14 54.6219 231.17 56.4419C229.613 59.3514 227.859 62.1512 225.92 64.8219" fill="#263238"/>
<path d="M203.16 51.542C203.197 49.7315 203.596 47.9468 204.336 46.2937C205.075 44.6407 206.139 43.153 207.465 41.9191C208.79 40.6851 210.35 39.73 212.051 39.1103C213.753 38.4907 215.562 38.2192 217.37 38.312C220.859 38.568 224.121 40.1397 226.495 42.709C228.87 45.2783 230.18 48.6536 230.16 52.152C230.279 57.1563 230.132 62.1633 229.72 67.152C228.63 74.002 224.22 76.092 222.48 76.652C221.865 76.7805 221.238 76.8441 220.61 76.8419L220.56 76.892L220.94 84.992C220.87 90.262 217.32 94.442 212.06 94.442C206.8 94.442 203.31 89.892 203.27 84.602L203.16 51.542Z" fill="#FFBE9D"/>
<path d="M227.001 55.1819C227.004 55.4695 226.895 55.7471 226.697 55.956C226.499 56.1649 226.228 56.2889 225.941 56.3019C225.8 56.3128 225.658 56.2953 225.524 56.2507C225.39 56.206 225.267 56.1351 225.16 56.0419C225.054 55.9487 224.968 55.8353 224.906 55.7082C224.844 55.5811 224.808 55.443 224.801 55.3019C224.798 55.0152 224.907 54.7388 225.105 54.5315C225.303 54.3241 225.574 54.2023 225.861 54.1919C226.001 54.181 226.142 54.1981 226.275 54.2421C226.409 54.2861 226.532 54.3563 226.638 54.4484C226.744 54.5405 226.831 54.6528 226.893 54.7787C226.955 54.9046 226.992 55.0417 227.001 55.1819Z" fill="#263238"/>
<path d="M228.341 53.7818C228.201 53.9218 227.341 53.3018 226.181 53.3118C225.021 53.3218 224.121 53.9018 224.001 53.7618C223.881 53.6218 224.071 53.4318 224.451 53.1618C224.963 52.8038 225.575 52.615 226.201 52.6218C226.818 52.616 227.421 52.8088 227.921 53.1718C228.281 53.4518 228.411 53.7118 228.341 53.7818Z" fill="#263238"/>
<path d="M215.6 55.1819C215.603 55.4695 215.494 55.7471 215.297 55.956C215.099 56.1649 214.828 56.2889 214.54 56.3019C214.4 56.3127 214.258 56.2953 214.124 56.2507C213.99 56.206 213.866 56.135 213.76 56.0419C213.654 55.9487 213.567 55.8352 213.505 55.7082C213.444 55.5811 213.408 55.4429 213.4 55.3019C213.398 55.0135 213.508 54.7356 213.708 54.528C213.909 54.3204 214.182 54.1997 214.47 54.1919C214.61 54.181 214.75 54.1981 214.883 54.2423C215.016 54.2864 215.139 54.3567 215.244 54.4489C215.349 54.5412 215.435 54.6535 215.496 54.7794C215.557 54.9053 215.593 55.0421 215.6 55.1819Z" fill="#263238"/>
<path d="M216.671 54.0019C216.541 54.1419 215.671 53.5219 214.521 53.5319C213.371 53.5419 212.461 54.1219 212.331 53.9819C212.201 53.8419 212.401 53.6619 212.791 53.3819C213.301 53.0259 213.909 52.8371 214.531 52.8419C215.148 52.8389 215.75 53.0314 216.251 53.3919C216.621 53.6719 216.741 53.9319 216.671 54.0019Z" fill="#263238"/>
<path d="M220.981 62.8019C221.608 62.6076 222.256 62.49 222.911 62.4519C223.211 62.4519 223.501 62.3619 223.551 62.1519C223.573 61.842 223.503 61.5326 223.351 61.2619L222.451 58.9519C221.629 57.007 220.961 55.0009 220.451 52.9519C221.436 54.8359 222.268 56.7955 222.941 58.8119C223.241 59.6219 223.531 60.3919 223.801 61.1319C223.992 61.4975 224.049 61.9187 223.961 62.3219C223.916 62.4291 223.848 62.525 223.761 62.6028C223.675 62.6805 223.573 62.7383 223.461 62.7719C223.295 62.8171 223.123 62.8406 222.951 62.8419C222.295 62.9118 221.634 62.8983 220.981 62.8019Z" fill="#263238"/>
<path d="M220.601 76.8618C220.601 76.8618 216.021 77.2417 210.281 73.7917C210.281 73.7917 212.091 79.8517 220.701 79.0417L220.601 76.8618Z" fill="#EB996E"/>
<path d="M220.481 65.6618C220.254 65.3787 219.959 65.1578 219.623 65.0196C219.287 64.8815 218.922 64.8306 218.561 64.8718C218.034 64.9233 217.548 65.1823 217.211 65.5918C217.055 65.7897 216.962 66.0307 216.946 66.2827C216.93 66.5347 216.991 66.7855 217.121 67.0018C217.312 67.2163 217.562 67.3689 217.84 67.4402C218.118 67.5115 218.411 67.4981 218.681 67.4018C219.24 67.2005 219.753 66.8913 220.191 66.4918C220.326 66.3984 220.442 66.2795 220.531 66.1418C220.576 66.0769 220.599 66.0003 220.599 65.9218C220.599 65.8433 220.576 65.7666 220.531 65.7018" fill="#EB996E"/>
<path d="M217.491 63.6218C217.681 63.6218 217.681 64.9018 218.791 65.8118C219.901 66.7218 221.261 66.5918 221.271 66.8118C221.281 67.0318 220.971 67.0618 220.391 67.0718C219.635 67.0836 218.899 66.8287 218.311 66.3518C217.751 65.8923 217.392 65.232 217.311 64.5118C217.261 63.9318 217.401 63.6118 217.491 63.6218Z" fill="#263238"/>
<path d="M217.211 51.9218C217.091 52.2418 215.911 52.0917 214.511 52.2617C213.111 52.4317 212.001 52.8118 211.811 52.5218C211.731 52.3818 211.921 52.0717 212.381 51.7617C212.986 51.3791 213.672 51.1397 214.384 51.0617C215.096 50.9837 215.817 51.0692 216.491 51.3118C217.001 51.5118 217.261 51.7718 217.211 51.9218Z" fill="#263238"/>
<path d="M227.9 51.3517C227.7 51.6217 226.9 51.3517 225.9 51.3517C224.9 51.3517 224.09 51.5317 223.9 51.2517C223.71 50.9717 223.9 50.8417 224.31 50.5917C224.793 50.2742 225.363 50.1168 225.94 50.1417C226.518 50.155 227.077 50.3472 227.54 50.6917C227.88 50.9417 228 51.2217 227.9 51.3517Z" fill="#263238"/>
<path d="M201.74 55.8619C206.51 57.0419 211.24 54.8019 215.11 51.6719C217.073 50.0193 218.671 47.9764 219.802 45.6729C220.933 43.3695 221.572 40.8559 221.68 38.2919C221.68 37.2419 221.82 34.9219 220.81 34.7019C218.69 34.2319 218.42 34.3119 217.08 34.7019C213.08 35.8119 205.7 36.5319 203.16 40.0619C200.62 43.5919 200.1 49.3419 200.1 53.8319" fill="#263238"/>
<path d="M230.47 50.5718C230.76 50.5201 231.047 50.4534 231.33 50.3718C232.095 50.1319 232.784 49.6977 233.33 49.1118C234.153 48.2635 234.649 47.151 234.73 45.9718C234.831 44.5281 234.481 43.0887 233.73 41.8518C232.959 40.6217 231.937 39.5686 230.73 38.7618C229.751 38.0949 228.71 37.5256 227.62 37.0618C226.7 36.6518 225.93 36.3618 225.4 36.1518L224.79 35.9118C224.716 35.8874 224.646 35.8538 224.58 35.8118C224.656 35.8182 224.731 35.8385 224.8 35.8718L225.43 36.0718C225.96 36.2618 226.74 36.5318 227.68 36.9218C228.787 37.3748 229.846 37.9376 230.84 38.6018C232.073 39.4174 233.117 40.4882 233.9 41.7418C234.672 43.0182 235.021 44.5052 234.9 45.9918C234.803 47.2093 234.279 48.3533 233.42 49.2218C232.85 49.8068 232.136 50.2311 231.35 50.4518C231.065 50.5387 230.768 50.5792 230.47 50.5718Z" fill="#263238"/>
<path d="M195.53 45.6019C195.53 45.6019 195.87 45.8919 196.53 46.3019C197.466 46.8684 198.52 47.2106 199.61 47.3019C201.232 47.4246 202.859 47.15 204.35 46.5019C206.19 45.7005 207.951 44.7296 209.61 43.6019C211.315 42.5425 212.912 41.3201 214.38 39.9519C216.709 37.8224 218.328 35.0302 219.02 31.9519C219.04 32.3661 218.996 32.781 218.89 33.1819C218.656 34.2849 218.265 35.3489 217.73 36.3419C216.943 37.8223 215.931 39.1716 214.73 40.3419C213.257 41.7549 211.642 43.0116 209.91 44.0919C208.221 45.2308 206.426 46.2053 204.55 47.0019C202.971 47.6586 201.251 47.9062 199.55 47.7219C198.416 47.5948 197.33 47.1895 196.39 46.5419C196.143 46.3588 195.912 46.1548 195.7 45.9319C195.58 45.7019 195.52 45.6119 195.53 45.6019Z" fill="#455A64"/>
<path d="M206.161 34.2219C204.267 35.3342 202.461 36.5913 200.761 37.9819C199.176 39.5031 197.712 41.1447 196.381 42.8919C196.588 42.2645 196.899 41.6763 197.301 41.1519C199.072 38.5185 201.48 36.3755 204.301 34.9219C204.873 34.5778 205.504 34.3406 206.161 34.2219Z" fill="#455A64"/>
<path d="M204.921 56.4918C204.356 56.2207 203.723 56.1207 203.101 56.2042C202.479 56.2877 201.896 56.551 201.421 56.9618C201.058 57.3158 200.78 57.7484 200.61 58.2264C200.44 58.7044 200.382 59.2151 200.44 59.7191C200.498 60.2232 200.67 60.7073 200.945 61.1342C201.219 61.5611 201.587 61.9195 202.021 62.1818C202.313 62.4352 202.653 62.6262 203.021 62.7431C203.389 62.8601 203.777 62.9004 204.161 62.8618" fill="#FFBE9D"/>
<path d="M203.831 60.7619C203.831 60.8219 203.571 61.0319 203.041 60.9619C202.729 60.9177 202.439 60.7779 202.211 60.5619C201.928 60.3007 201.75 59.9451 201.711 59.5619C201.677 59.1652 201.791 58.77 202.031 58.4519C202.22 58.2022 202.482 58.017 202.781 57.9219C203.291 57.7619 203.611 57.9219 203.591 57.9819C203.571 58.0419 203.291 58.0519 202.921 58.2619C202.696 58.3819 202.51 58.5651 202.388 58.7889C202.265 59.0128 202.211 59.2675 202.231 59.5219C202.252 59.7756 202.348 60.0173 202.506 60.2166C202.665 60.4159 202.878 60.5639 203.121 60.6419C203.521 60.7419 203.811 60.6919 203.831 60.7619Z" fill="#EB996E"/>
<path d="M204.44 71.7319C204.44 71.8819 203.66 72.2019 202.13 72.0919C199.936 71.8319 197.905 70.8007 196.4 69.1819C195.314 68.0435 194.545 66.6403 194.17 65.1119C193.756 63.3381 193.853 61.483 194.45 59.7619C195.084 57.8312 196.287 56.1371 197.9 54.9019C199.631 53.7142 201.619 52.9536 203.7 52.6819C205.505 52.4378 207.281 52.0123 209 51.4119C211.081 50.6085 212.981 49.3989 214.59 47.8537C216.199 46.3086 217.484 44.4587 218.37 42.4119C219.128 40.6258 219.623 38.7397 219.84 36.8119C220 35.4219 220.04 34.6219 220.23 34.6019C220.42 34.5819 220.71 35.3419 220.86 36.8219C221.026 38.9325 220.764 41.0549 220.09 43.0619C219.086 46.1085 217.251 48.8137 214.79 50.8719C213.339 52.0996 211.702 53.0887 209.94 53.8019C208.083 54.4965 206.155 54.983 204.19 55.2519C202.492 55.4609 200.861 56.0487 199.42 56.972C198.184 57.8848 197.242 59.1398 196.71 60.5819C196.198 61.8845 196.05 63.3015 196.28 64.6819C196.507 65.8946 197.026 67.0338 197.79 68.0019C198.961 69.4665 200.542 70.5491 202.33 71.1119C203.62 71.492 204.43 71.5319 204.44 71.7319Z" fill="#455A64"/>
<path d="M194.4 50.7119C194.4 50.3419 196.4 50.1019 199.47 49.7119C202.54 49.3219 206.81 48.7119 210.84 46.7119C212.712 45.7637 214.388 44.4711 215.78 42.9019C216.898 41.6095 217.766 40.121 218.34 38.5119C219.34 35.7319 219.02 33.7619 219.42 33.6919C219.58 33.6919 219.89 34.1019 220.11 35.0119C220.395 36.33 220.395 37.6937 220.11 39.0119C219.702 40.9802 218.858 42.8322 217.64 44.4319C216.131 46.3616 214.216 47.9355 212.03 49.0419C209.896 50.1233 207.605 50.8624 205.24 51.2319C203.359 51.5326 201.454 51.6565 199.55 51.6019C196.34 51.4719 194.4 51.0619 194.4 50.7119Z" fill="#455A64"/>
<path d="M204.381 126.542L201.611 160.972C201.58 161.34 201.627 161.71 201.749 162.059C201.871 162.408 202.065 162.727 202.319 162.995C202.573 163.263 202.881 163.474 203.223 163.615C203.564 163.756 203.932 163.823 204.301 163.812L230.081 163.112C230.719 163.095 231.329 162.847 231.797 162.412C232.265 161.978 232.558 161.387 232.621 160.752L236.161 127.032C236.199 126.666 236.159 126.297 236.045 125.947C235.932 125.598 235.746 125.276 235.5 125.002C235.254 124.729 234.953 124.511 234.618 124.361C234.282 124.211 233.919 124.133 233.551 124.132H206.991C206.333 124.132 205.699 124.38 205.215 124.827C204.731 125.273 204.434 125.886 204.381 126.542Z" fill="#455A64"/>
<path d="M221.991 129.562C221.991 129.868 221.9 130.168 221.729 130.423C221.559 130.678 221.317 130.876 221.034 130.994C220.751 131.111 220.439 131.142 220.138 131.082C219.838 131.022 219.561 130.875 219.345 130.658C219.128 130.441 218.98 130.165 218.92 129.864C218.861 129.563 218.891 129.252 219.009 128.969C219.126 128.685 219.325 128.443 219.579 128.273C219.834 128.103 220.134 128.012 220.441 128.012C220.645 128.01 220.847 128.05 221.035 128.127C221.224 128.204 221.395 128.319 221.54 128.463C221.684 128.607 221.798 128.778 221.875 128.967C221.953 129.156 221.992 129.358 221.991 129.562Z" fill="#FAFAFA"/>
<path d="M203.991 139.632C203.991 139.632 200.461 140.632 199.841 141.332C198.926 142.03 197.941 142.63 196.901 143.122L194.251 143.832L190.541 155.022L213.031 155.742C213.031 155.742 219.231 151.342 218.451 150.862C217.671 150.382 215.281 150.782 214.241 151.862C212.601 153.552 209.931 151.182 209.931 151.182C209.931 151.182 221.091 148.902 222.021 147.762C222.951 146.622 224.021 146.462 223.421 145.322C222.821 144.182 218.161 144.862 216.591 144.862C214.876 144.976 213.17 145.193 211.481 145.512C211.481 145.512 218.481 143.052 218.981 142.762C220.381 142.002 218.921 140.462 217.031 140.912C215.341 141.312 209.031 143.562 207.911 143.402C206.791 143.242 203.911 142.912 203.911 142.912L203.991 139.632Z" fill="#FFBE9D"/>
<path d="M80.4591 311.112C80.3191 311.112 80.1491 289.002 80.0791 261.742C80.0091 234.482 80.0791 212.382 80.1791 212.382C80.2791 212.382 80.4791 234.472 80.5591 261.742C80.6391 289.012 80.5891 311.112 80.4591 311.112Z" fill="#263238"/>
<path d="M95.4198 255.792C95.3827 255.972 95.3222 256.147 95.2398 256.312C95.0798 256.682 94.8898 257.162 94.6398 257.742L94.1998 258.742C94.0598 259.132 93.9198 259.552 93.7598 259.992C93.5998 260.432 93.4198 260.932 93.2398 261.432C93.0598 261.932 92.9198 262.502 92.7398 263.072C91.9409 265.773 91.313 268.521 90.8598 271.302C90.3515 274.712 90.0177 278.147 89.8598 281.592C89.6115 287.86 89.7886 294.137 90.3898 300.382C90.6098 302.782 90.8298 304.722 90.9898 306.052C91.0498 306.682 91.1098 307.192 91.1598 307.602C91.1842 307.781 91.1842 307.962 91.1598 308.142C91.1016 307.969 91.0614 307.792 91.0398 307.612C90.9698 307.212 90.8898 306.702 90.7798 306.082C90.5598 304.752 90.2998 302.811 90.0398 300.411C89.3374 294.154 89.1101 287.853 89.3598 281.562C89.5317 278.101 89.8956 274.652 90.4498 271.232C90.9293 268.436 91.5975 265.677 92.4498 262.971C92.6398 262.401 92.7898 261.842 92.9798 261.332C93.1698 260.822 93.3598 260.332 93.5398 259.902L94.0198 258.652C94.1898 258.282 94.3598 257.942 94.4998 257.652C94.7798 257.092 95.0098 256.652 95.1798 256.262C95.2504 256.1 95.3305 255.943 95.4198 255.792Z" fill="#263238"/>
<path d="M93.6995 237.921C93.6557 238.171 93.5853 238.416 93.4895 238.651C93.3195 239.161 93.0795 239.841 92.7895 240.651C92.6295 241.101 92.4595 241.651 92.2795 242.131C92.0995 242.611 91.9295 243.281 91.7395 243.921C91.3395 245.201 90.8895 246.651 90.4795 248.291C90.2695 249.101 90.0395 249.951 89.8095 250.841C89.5795 251.731 89.3995 252.671 89.1795 253.641C88.7095 255.561 88.3695 257.641 87.9395 259.831C87.1995 264.221 86.5495 269.081 86.0995 274.191C85.6495 279.301 85.4895 284.191 85.4195 288.671C85.3495 293.151 85.4195 297.131 85.6495 300.501C85.7095 302.181 85.8095 303.701 85.8995 305.041C85.9895 306.381 86.0595 307.521 86.1495 308.461C86.2395 309.401 86.2695 310.091 86.3095 310.631C86.3231 310.885 86.3231 311.138 86.3095 311.391C86.2452 311.146 86.205 310.895 86.1895 310.641C86.1195 310.101 86.0395 309.381 85.9295 308.481C85.8195 307.581 85.7095 306.391 85.5995 305.061C85.4895 303.731 85.3595 302.201 85.2795 300.511C85.0495 297.151 84.9595 293.131 84.9495 288.661C84.9395 284.191 85.1595 279.291 85.5895 274.151C86.0195 269.011 86.7095 264.151 87.4695 259.751C87.9195 257.571 88.2695 255.471 88.7595 253.551L89.4195 250.751C89.6695 249.861 89.8995 249.011 90.1295 248.201C90.5495 246.561 91.0295 245.111 91.4495 243.841L92.0295 242.061L92.5895 240.591C92.9095 239.741 93.1695 239.071 93.3695 238.591C93.4609 238.359 93.5713 238.135 93.6995 237.921Z" fill="#263238"/>
<path d="M76.2101 315.022C76.1939 314.936 76.1939 314.847 76.2101 314.762C76.2101 314.562 76.2101 314.312 76.1401 314.002C76.1401 313.292 76.0301 312.312 75.9501 311.072C75.7901 308.492 75.5601 304.822 75.2701 300.302C74.6901 291.222 73.8501 278.662 72.3201 264.852C71.5401 257.952 70.6301 251.392 69.6901 245.452C69.1901 242.452 68.6901 239.652 68.2201 237.032C67.7501 234.412 67.2201 231.952 66.7701 229.722C66.3201 227.492 65.8301 225.492 65.4401 223.722C65.0501 221.952 64.6701 220.442 64.3601 219.212C64.0501 217.982 63.8301 217.042 63.6601 216.362C63.5901 216.052 63.5301 215.812 63.4901 215.612C63.4747 215.529 63.4747 215.444 63.4901 215.362L63.5801 215.602C63.5801 215.792 63.7001 216.032 63.7901 216.332C63.9801 217.012 64.2401 217.962 64.5801 219.162C64.9201 220.362 65.3201 221.892 65.7401 223.662C66.1601 225.432 66.6701 227.412 67.1401 229.662C67.6101 231.912 68.1401 234.332 68.6501 236.962C69.1601 239.592 69.6501 242.412 70.1601 245.382C71.1601 251.332 72.0501 257.902 72.8301 264.812C74.3601 278.632 75.1501 291.202 75.6501 300.292C75.9001 304.842 76.0701 308.532 76.1701 311.072C76.1701 312.322 76.2501 313.302 76.2801 314.002C76.2801 314.322 76.2801 314.572 76.2801 314.772C76.2801 314.972 76.2101 315.022 76.2101 315.022Z" fill="#263238"/>
<path d="M79.9104 223.001C79.6204 219.871 76.4504 217.511 73.3104 217.481C71.7343 217.547 70.1942 217.973 68.8077 218.725C67.4212 219.477 66.2249 220.536 65.3104 221.821C63.4929 224.399 62.186 227.302 61.4604 230.371C59.3404 237.741 58.1804 245.491 59.0904 253.121C60.0004 260.751 63.0904 268.241 68.5504 273.631C69.4404 274.501 70.5504 275.381 71.8104 275.121C72.4671 274.921 73.0601 274.552 73.5304 274.051C78.8869 269.151 83.1331 263.162 85.9842 256.485C88.8352 249.809 90.225 242.599 90.0604 235.341C89.9704 232.441 89.5904 229.431 87.9904 227.011C86.3904 224.591 82.6404 222.011 79.9104 223.011" fill="#CC9EFF"/>
<path d="M56.4308 197.922L52.0008 205.922C51.8908 206.112 51.7608 206.322 51.5408 206.342C51.3208 206.362 51.1408 206.142 51.0108 205.942L39.3008 187.942L42.0008 186.412L56.4308 197.922Z" fill="#CC9EFF"/>
<g opacity="0.2">
<path d="M56.4308 197.922L52.0008 205.922C51.8908 206.112 51.7608 206.322 51.5408 206.342C51.3208 206.362 51.1408 206.142 51.0108 205.942L39.3008 187.942L42.0008 186.412L56.4308 197.922Z" fill="black"/>
</g>
<path d="M80.1597 212.382L40.2297 188.862C39.8297 188.612 39.3797 188.332 39.2297 187.862C39.0797 187.392 39.5097 186.702 39.9397 186.262C42.6884 183.404 46.0217 181.175 49.7117 179.725C53.4017 178.275 57.3613 177.64 61.3197 177.862C65.2694 178.144 69.0907 179.384 72.4535 181.475C75.8162 183.566 78.6191 186.444 80.6197 189.862C84.4697 196.752 84.6197 205.862 80.1797 212.402" fill="#CC9EFF"/>
<path d="M45.9902 181.282C46.1597 181.237 46.3349 181.216 46.5102 181.222C46.8602 181.222 47.3702 181.142 48.0202 181.142C49.8764 181.121 51.7306 181.268 53.5602 181.582C59.6527 182.619 65.3277 185.357 69.9302 189.482C74.4955 193.647 77.7861 199.022 79.4202 204.982C79.9189 206.771 80.2537 208.602 80.4202 210.452C80.4902 211.102 80.4202 211.272 80.4802 211.612C80.4477 211.925 80.3415 212.227 80.1702 212.492C80.2904 211.832 80.3106 211.157 80.2302 210.492C79.4381 203.494 76.4122 196.938 71.601 191.795C66.7899 186.653 60.4496 183.197 53.5202 181.942C51.7092 181.597 49.8732 181.399 48.0302 181.352C46.7202 181.302 45.9902 181.322 45.9902 181.282Z" fill="#263238"/>
<path d="M74.7692 196.112C74.137 196.488 73.4666 196.797 72.7692 197.032C71.4992 197.532 69.7692 198.172 67.7692 198.802C65.7692 199.432 63.9592 199.932 62.6292 200.262C61.9217 200.486 61.1897 200.623 60.4492 200.672C61.1209 200.359 61.8207 200.112 62.5392 199.932L67.6292 198.342L72.6992 196.712C73.3664 196.44 74.0602 196.239 74.7692 196.112Z" fill="#263238"/>
<path d="M68.48 179.211C68.834 180.671 68.992 182.17 68.95 183.671C69.0704 185.165 68.9897 186.669 68.71 188.141C68.5086 186.664 68.4284 185.172 68.47 183.681C68.3557 182.193 68.3591 180.699 68.48 179.211Z" fill="#263238"/>
<path d="M39.8809 188.361C40.8218 187.949 41.7951 187.614 42.7909 187.361C44.6009 186.801 47.1309 186.091 49.9409 185.361C52.7509 184.631 55.3409 184.161 57.2109 183.831C58.1975 183.61 59.2011 183.473 60.2109 183.421C59.2309 183.743 58.2281 183.991 57.2109 184.161C55.3609 184.581 52.8109 185.161 50.0009 185.831C47.1909 186.501 44.6509 187.161 42.8209 187.631C41.8586 187.941 40.8763 188.185 39.8809 188.361Z" fill="#263238"/>
<path d="M63.33 216.212C59.89 213.602 56.26 213.092 51.95 213.212C47.6364 213.497 43.414 214.586 39.5 216.422C32.77 219.372 26.43 223.722 22.41 229.882C18.39 236.042 16.98 244.182 20 250.882C20.2353 251.58 20.7194 252.167 21.36 252.532C22.1097 252.744 22.9106 252.684 23.62 252.362C31.28 249.862 38.99 247.362 46.04 243.422C53.09 239.482 59.49 234.072 63.27 226.952C64.2438 225.275 64.8632 223.417 65.09 221.492C65.1918 220.528 65.0875 219.553 64.7841 218.632C64.4806 217.712 63.985 216.866 63.33 216.152" fill="#CC9EFF"/>
<path d="M63.4007 215.402C63.2224 215.495 63.0347 215.568 62.8407 215.622L61.2407 216.182L60.0807 216.562C59.6607 216.712 59.2107 216.902 58.7207 217.092C57.7207 217.482 56.6207 217.882 55.4407 218.452L53.5607 219.312C52.9107 219.612 52.2607 219.982 51.5607 220.312C50.1707 220.992 48.7707 221.862 47.2707 222.752C44.0809 224.758 41.0488 227.004 38.2007 229.472C35.3915 231.986 32.7742 234.707 30.3707 237.612C29.3007 238.992 28.2607 240.272 27.3707 241.612C26.9307 242.252 26.4807 242.842 26.1007 243.452L25.0107 245.212C24.2907 246.312 23.7607 247.372 23.2507 248.292C23.0007 248.752 22.7507 249.172 22.5507 249.572L22.0207 250.672L21.2707 252.192C21.1947 252.378 21.0938 252.553 20.9707 252.712C21.0242 252.519 21.0944 252.332 21.1807 252.152C21.3507 251.752 21.5707 251.232 21.8507 250.592L22.3507 249.462C22.5407 249.062 22.7707 248.632 23.0107 248.162C23.5007 247.232 24.0107 246.162 24.7207 245.032L25.7907 243.252C26.1707 242.642 26.6107 242.032 27.0407 241.382C27.8907 240.072 28.9207 238.772 30.0407 237.382C34.7942 231.433 40.5467 226.357 47.0407 222.382C48.5507 221.502 49.9707 220.642 51.3807 219.972C52.0807 219.622 52.7307 219.262 53.3807 218.972L55.2807 218.142C56.4807 217.582 57.6207 217.212 58.6107 216.842C59.1007 216.662 59.6107 216.492 59.9807 216.352L61.1607 216.002L62.8007 215.532C62.9943 215.463 63.1959 215.419 63.4007 215.402Z" fill="#263238"/>
<path d="M36.5609 229.932C33.8117 230.98 31.0076 231.878 28.1609 232.622C25.3885 233.526 22.5674 234.274 19.7109 234.862C22.4458 233.811 25.2367 232.913 28.0709 232.172C30.8598 231.277 33.6937 230.529 36.5609 229.932Z" fill="#263238"/>
<path d="M36.2097 248.372C36.0667 247.513 36.0064 246.642 36.0297 245.772C35.9797 244.162 35.9797 241.932 36.0297 239.482C36.0797 237.032 36.2297 234.802 36.3597 233.202C36.3839 232.329 36.4944 231.462 36.6897 230.612C36.7698 231.476 36.7698 232.347 36.6897 233.212C36.6297 234.982 36.5697 237.122 36.4897 239.492C36.4097 241.862 36.3797 244.012 36.3397 245.772C36.3718 246.64 36.3283 247.51 36.2097 248.372Z" fill="#263238"/>
<path d="M52.0099 240.332C51.8799 240.332 51.4599 235.812 51.0699 230.232C50.6799 224.652 50.4799 220.102 50.6099 220.092C50.7399 220.082 51.1599 224.612 51.5499 230.192C51.9399 235.772 52.1599 240.322 52.0099 240.332Z" fill="#263238"/>
<path d="M32.3496 219.661C33.2348 219.546 34.1292 219.52 35.0196 219.582C36.6796 219.582 38.9596 219.641 41.4696 219.721C43.9796 219.801 46.2696 219.902 47.9196 220.002C48.8157 220.006 49.7095 220.093 50.5896 220.262C49.7006 220.37 48.8035 220.396 47.9096 220.342C46.2596 220.342 43.9796 220.282 41.4596 220.202C38.9396 220.122 36.6596 220.011 35.0096 219.911C34.1172 219.908 33.227 219.824 32.3496 219.661Z" fill="#263238"/>
<path d="M70.2707 274.681C70.2262 274.505 70.206 274.323 70.2107 274.141C70.2107 273.741 70.2107 273.231 70.1407 272.611C70.0807 271.271 70.0607 269.341 70.1407 266.951C70.2207 264.561 70.3407 261.721 70.6307 258.571C70.9207 255.421 71.3907 251.981 72.0307 248.381C72.6707 244.781 73.4907 241.381 74.3107 238.381C75.1307 235.381 76.0007 232.601 76.8007 230.381C77.6007 228.161 78.2907 226.311 78.8007 225.071L79.4007 223.661C79.4639 223.489 79.5478 223.324 79.6507 223.171C79.616 223.35 79.5624 223.524 79.4907 223.691C79.3607 224.071 79.1806 224.551 78.9706 225.141C78.5006 226.391 77.8507 228.211 77.1007 230.481C76.3507 232.751 75.5307 235.481 74.7107 238.481C73.8907 241.481 73.1507 244.911 72.4907 248.481C71.8307 252.051 71.3807 255.481 71.0507 258.621C70.7207 261.761 70.5407 264.621 70.4507 266.971C70.3607 269.321 70.3207 271.281 70.3207 272.611C70.3207 273.241 70.3207 273.751 70.3207 274.151C70.3162 274.329 70.2995 274.506 70.2707 274.681Z" fill="#263238"/>
<path d="M72.3695 248.521C71.9071 249.163 71.3737 249.75 70.7795 250.271C69.7795 251.271 68.2795 252.691 66.5995 254.151C64.9195 255.611 63.3695 256.901 62.2095 257.791C61.6125 258.309 60.9622 258.761 60.2695 259.141C60.783 258.541 61.3597 257.998 61.9895 257.521L66.2895 253.791L70.5495 250.031C71.1084 249.473 71.7176 248.968 72.3695 248.521Z" fill="#263238"/>
<path d="M85.0209 258.711C84.392 257.975 83.8235 257.189 83.3209 256.361C82.2309 254.761 80.8709 252.791 79.3209 250.601L75.3209 244.891C74.7176 244.135 74.179 243.329 73.7109 242.481C74.4007 243.162 75.0298 243.901 75.5909 244.691C76.7009 246.101 78.1809 248.081 79.7409 250.321C81.3009 252.561 82.6509 254.651 83.5809 256.171C84.136 256.973 84.618 257.823 85.0209 258.711Z" fill="#263238"/>
<path d="M78.39 226.682C78.46 226.792 74.26 229.622 69.01 232.992C63.76 236.362 59.44 238.992 59.37 238.902C59.3 238.812 63.5 235.972 68.75 232.592C74 229.212 78.32 226.572 78.39 226.682Z" fill="#263238"/>
<path d="M90.2409 239.462C88.0127 237.626 85.8893 235.666 83.8809 233.592C81.7738 231.628 79.771 229.555 77.8809 227.382C80.1121 229.214 82.2356 231.174 84.2409 233.252C86.3508 235.212 88.3537 237.285 90.2409 239.462Z" fill="#263238"/>
<path d="M93.2109 239.201L96.8209 238.901C99.3793 238.695 101.863 237.938 104.101 236.681C105.191 236.036 106.324 235.465 107.491 234.971C111.951 233.181 116.921 233.501 121.721 233.261C129.579 232.865 137.278 230.896 144.361 227.471C144.78 227.288 145.13 226.977 145.361 226.581C146.101 225.231 144.731 224.031 143.541 223.301C137.471 219.561 131.291 215.771 124.401 213.911C117.511 212.051 109.691 212.361 103.811 216.411C96.9109 221.161 94.4009 230.911 93.2309 239.201" fill="#CC9EFF"/>
<path d="M145.421 226.142C145.212 226.056 145.009 225.959 144.811 225.852L143.101 224.962C141.621 224.182 139.491 223.032 136.791 221.732C133.652 220.191 130.383 218.932 127.021 217.972C122.909 216.802 118.605 216.463 114.361 216.972C110.101 217.459 106.081 219.199 102.811 221.972C100.259 224.349 98.2174 227.22 96.8108 230.412C95.5508 233.112 94.8108 235.412 94.2008 236.992C93.9308 237.742 93.7208 238.342 93.5608 238.802C93.5012 239.022 93.4138 239.234 93.3008 239.432C93.3375 239.211 93.391 238.994 93.4608 238.782L94.0208 236.932C94.7186 234.664 95.5501 232.441 96.5108 230.272C97.8877 227.008 99.9314 224.069 102.511 221.642C105.841 218.804 109.943 217.028 114.291 216.542C118.604 216.006 122.982 216.346 127.161 217.542C130.54 218.533 133.821 219.835 136.961 221.432C139.651 222.772 141.761 223.962 143.211 224.792L144.881 225.792C145.076 225.884 145.257 226.001 145.421 226.142Z" fill="#263238"/>
<path d="M136.76 230.791C136.69 230.901 131.98 227.851 126.23 223.981C120.48 220.111 115.9 216.871 115.97 216.771C116.04 216.671 120.76 219.711 126.5 223.581C132.24 227.451 136.84 230.681 136.76 230.791Z" fill="#263238"/>
<path d="M131.741 216.522C130.631 216.897 129.472 217.102 128.301 217.132C127.141 217.313 125.96 217.313 124.801 217.132C125.943 216.925 127.1 216.808 128.261 216.782C129.412 216.605 130.576 216.518 131.741 216.522Z" fill="#263238"/>
<path d="M111.091 213.862C110.708 214.741 110.188 215.555 109.551 216.272C108.995 217.107 108.321 217.858 107.551 218.502C107.935 217.62 108.454 216.803 109.091 216.082C109.645 215.248 110.319 214.5 111.091 213.862Z" fill="#263238"/>
<path d="M115.32 233.571C114.525 233.236 113.765 232.824 113.05 232.341C111.69 231.511 109.85 230.341 107.88 228.871C105.91 227.401 104.18 226.091 102.93 225.101C102.212 224.606 101.542 224.043 100.93 223.421C101.718 223.828 102.465 224.31 103.16 224.861L108.16 228.511C110.16 229.931 111.92 231.181 113.23 232.081C113.965 232.522 114.664 233.02 115.32 233.571Z" fill="#263238"/>
<path d="M98.5206 254.522C95.0806 253.612 90.9806 256.962 90.2706 260.442C89.5606 263.922 90.8706 267.492 92.4006 270.702C95.6782 277.897 100.539 284.259 106.621 289.312C112.759 294.358 120.425 297.178 128.371 297.312C126.921 290.552 128.751 283.502 127.941 276.642C127.227 270.603 124.487 264.985 120.168 260.706C115.848 256.427 110.205 253.739 104.161 253.082C101.971 252.842 99.4306 252.492 98.5506 254.522" fill="#CC9EFF"/>
<path d="M128.37 297.322C128.199 297.26 128.035 297.183 127.88 297.092C127.426 296.842 126.994 296.554 126.59 296.232C125.147 294.974 123.992 293.423 123.2 291.682C122.65 290.622 122.04 289.462 121.44 288.182L119.59 284.092C118.921 282.589 118.159 281.13 117.31 279.721C116.379 278.228 115.336 276.807 114.19 275.471C111.83 272.701 109.31 270.312 107.12 268.022C105.135 266.03 103.328 263.868 101.72 261.562C100.647 260.006 99.764 258.327 99.0895 256.562C98.8695 255.932 98.7095 255.432 98.6295 255.092C98.5735 254.919 98.5366 254.742 98.5195 254.562C98.5195 254.562 98.7595 255.262 99.2595 256.502C99.9965 258.227 100.915 259.87 102 261.402C103.631 263.667 105.448 265.795 107.43 267.762C109.63 270.022 112.17 272.402 114.55 275.202C115.717 276.554 116.774 277.999 117.71 279.522C118.563 280.948 119.325 282.428 119.99 283.952C120.63 285.392 121.23 286.772 121.8 288.062C122.37 289.352 122.97 290.502 123.5 291.572C124.249 293.291 125.341 294.839 126.71 296.122C127.72 296.952 128.4 297.272 128.37 297.322Z" fill="#263238"/>
<path d="M110.59 291.711C110.598 290.928 110.702 290.149 110.9 289.391C111.17 287.971 111.61 286.031 112.21 283.911C112.81 281.791 113.44 279.911 113.95 278.561C114.178 277.814 114.494 277.096 114.89 276.421C114.758 277.19 114.55 277.944 114.27 278.671C113.85 280.041 113.27 281.931 112.67 284.041C112.07 286.151 111.58 288.041 111.23 289.461C111.082 290.229 110.868 290.981 110.59 291.711Z" fill="#263238"/>
<path d="M127.721 275.131C126.899 275.019 126.089 274.831 125.301 274.571C123.811 274.191 121.771 273.661 119.491 273.141C117.211 272.621 115.141 272.231 113.631 271.951C112.81 271.842 112 271.662 111.211 271.411C112.042 271.391 112.874 271.458 113.691 271.611C115.211 271.811 117.311 272.161 119.601 272.681C121.891 273.201 123.931 273.781 125.391 274.251C126.197 274.461 126.978 274.756 127.721 275.131Z" fill="#263238"/>
<path d="M97.8203 279.952C97.8596 279.048 97.9869 278.15 98.2003 277.272C98.5003 275.622 98.9803 273.372 99.6203 270.902C100.26 268.432 100.95 266.232 101.49 264.652C101.744 263.782 102.079 262.939 102.49 262.132C102.35 263.023 102.129 263.9 101.83 264.752C101.38 266.352 100.75 268.572 100.11 271.022C99.4703 273.472 98.9303 275.722 98.5503 277.342C98.3803 278.23 98.1362 279.104 97.8203 279.952Z" fill="#263238"/>
<path d="M119.829 260.682C116.621 260.591 113.42 260.334 110.239 259.912C104.959 259.352 100.689 258.792 100.699 258.662C103.907 258.758 107.107 259.015 110.289 259.432C115.569 259.992 119.839 260.552 119.829 260.682Z" fill="#263238"/>
</g>
<defs>
<clipPath id="clip0_5358_51279">
<rect width="450" height="280" fill="white"/>
</clipPath>
</defs>
</svg>
