<svg width="438" height="563" viewBox="0 0 438 563" fill="none" xmlns="http://www.w3.org/2000/svg">
<path d="M190.408 538.829L214.997 562.275L283.639 538.2L259.051 514.754L190.408 538.829Z" fill="#EAEAEA"/>
<path d="M67.5683 455.973L77.5835 461.751L110.903 442.389L53.8937 409.467L20.5611 428.842L35.1858 437.278L12.0225 440.668L31.963 485.801L77.7761 479.098L67.5683 455.973Z" fill="#EAEAEA"/>
<path d="M368.281 413.292L433.457 386.174L405.748 363.909L353.797 385.583L352.77 373.603L354.658 374.04L372.364 348.604L306.508 333.196L354.221 305.641L320.837 286.266L263.828 319.187L293.912 336.663L280.096 356.526L305.686 362.471L272.469 363.357L287.171 334.069L241.768 326.365L227.375 355.024L149.397 357.104L151.349 379.972L130.972 375.157L113.202 400.516L169.775 413.908L106.859 417.246L111.314 444.519L185.439 440.667L186.197 442.541L143.825 446.945L148.833 462.816L108.63 476.002L111.365 478.789L100.156 474.949L60.1338 515.267L101.222 528.967L131.139 498.793L148.486 516.461L186.685 503.929L183.501 507.139L224.589 520.84L252.605 492.592L256.457 494.813L309.101 464.395L348.443 450.502L320.516 424.103L321.184 424.36L347.583 401.684L316.767 389.589L345.862 388.806L340.649 390.976L368.281 413.292ZM264.765 378.752L271.609 365.129L273.072 382.335L266.858 387.676L250.923 376.402L264.765 378.752ZM231.997 382.322L231.214 373.038L246.442 375.606L203.146 396.15L205.483 392.812L168.426 384.042L231.997 382.322ZM232.601 469.878L223.42 466.822L204.288 486.082L196.276 460.71L264.136 451.619L232.601 469.878ZM177.517 490.704L202.35 488.136L188.598 502.003L177.517 490.704ZM270.864 447.793L261.208 423.923L190.242 433.412L187.751 418.145L193.888 409.388L216.358 425.387L264.893 402.403L295.709 414.499L265.959 425.002L291.716 449.398L279.929 442.554L270.864 447.793Z" fill="#EAEAEA"/>
<path d="M277.965 528.633L324.343 534.065L340.033 488.444L293.655 483L277.965 528.633Z" fill="#EAEAEA"/>
<path d="M336.605 434.478C359.717 421.137 397.03 421.137 419.975 434.478C442.92 447.819 442.792 469.429 419.705 482.757C396.619 496.085 359.28 496.097 336.335 482.757C313.39 469.416 313.519 447.806 336.605 434.478Z" fill="#EAEAEA"/>
<path d="M235.477 320.1L98.8725 399.554C97.261 400.487 95.4318 400.979 93.5695 400.979C91.7073 400.979 89.8781 400.487 88.2666 399.554L18.5454 359.287C18.1427 359.055 17.8083 358.722 17.5757 358.319C17.3431 357.917 17.2207 357.46 17.2207 356.996C17.2207 356.531 17.3431 356.074 17.5757 355.672C17.8083 355.27 18.1427 354.936 18.5454 354.704L155.15 275.288C156.762 274.355 158.591 273.863 160.453 273.863C162.315 273.863 164.145 274.355 165.756 275.288L235.477 315.554C235.871 315.789 236.197 316.122 236.424 316.52C236.65 316.918 236.769 317.369 236.769 317.827C236.769 318.285 236.65 318.736 236.424 319.134C236.197 319.533 235.871 319.865 235.477 320.1Z" fill="#EAEAEA"/>
<path d="M93.6338 368.636L93.5439 397.706L231.381 317.597L231.471 288.527L93.6338 368.636Z" fill="#7400C2"/>
<path d="M69.9048 327.535L21.8318 299.801L21.6777 356.22L93.5047 397.706L93.5946 368.636L69.9048 327.535Z" fill="#7400C2"/>
<path opacity="0.3" d="M69.9048 327.535L21.8318 299.801L21.6777 356.22L93.5047 397.706L93.5946 368.636L69.9048 327.535Z" fill="black"/>
<path d="M93.6336 368.636L231.471 288.527L207.756 247.439L69.9053 327.535L93.6336 368.636Z" fill="#7400C2"/>
<path opacity="0.1" d="M93.6336 368.636L231.471 288.527L207.756 247.439L69.9053 327.535L93.6336 368.636Z" fill="black"/>
<g opacity="0.5">
<path d="M207.178 266.429L215.255 283.429C215.384 283.656 215.425 283.923 215.371 284.179C215.316 284.434 215.17 284.661 214.959 284.816L192.207 297.951C192.095 298.003 191.973 298.03 191.849 298.032C191.726 298.034 191.603 298.01 191.49 297.962C191.376 297.913 191.274 297.842 191.189 297.751C191.105 297.661 191.04 297.554 191 297.438L182.962 280.502C182.962 280.373 182.885 280.283 182.859 280.206C182.849 280.091 182.849 279.975 182.859 279.86C182.874 279.76 182.895 279.661 182.923 279.564C182.962 279.478 183.009 279.397 183.065 279.32C183.124 279.239 183.198 279.169 183.283 279.115L206.048 265.98C206.116 265.941 206.19 265.915 206.267 265.903C206.359 265.876 206.457 265.876 206.549 265.903C206.632 265.914 206.711 265.945 206.78 265.993C206.877 266.041 206.964 266.106 207.037 266.185C207.091 266.262 207.138 266.344 207.178 266.429ZM213.316 283.352L206.729 269.369L201.837 285.201C201.777 285.404 201.644 285.578 201.464 285.689C201.382 285.738 201.29 285.769 201.195 285.78C201.1 285.791 201.004 285.782 200.912 285.753L185.376 281.58L192.053 295.704L213.316 283.429M204.841 269.151L186.365 279.821L200.373 283.673L204.841 269.203" fill="white"/>
</g>
<path d="M207.743 247.439L159.708 219.705L21.8711 299.801L69.9055 327.535L207.743 247.439Z" fill="#7400C2"/>
<path opacity="0.2" d="M207.743 247.439L159.708 219.705L21.8711 299.801L69.9055 327.535L207.743 247.439Z" fill="black"/>
<path opacity="0.2" d="M159.709 219.705L21.8711 299.801L51.2619 316.775L189.099 236.667L159.709 219.705Z" fill="black"/>
<path d="M127.018 303.523L80.7422 330.423L96.5225 357.772L142.811 330.873L127.018 303.523Z" fill="#354147"/>
<g opacity="0.5">
<path d="M116.617 330.809L114.716 331.9L110.864 325.057L113.715 323.4L116.617 330.809Z" fill="white"/>
<path d="M116.103 332.248C116.298 332.136 116.515 332.067 116.74 332.048C116.964 332.029 117.19 332.06 117.401 332.139C117.612 332.217 117.803 332.342 117.96 332.503C118.118 332.664 118.238 332.857 118.312 333.07C118.557 333.497 118.629 334.002 118.512 334.48C118.395 334.959 118.098 335.373 117.682 335.638C117.482 335.748 117.261 335.813 117.033 335.83C116.806 335.846 116.577 335.813 116.364 335.732C116.15 335.652 115.956 335.526 115.796 335.363C115.636 335.201 115.513 335.005 115.435 334.791C115.191 334.364 115.124 333.858 115.249 333.383C115.374 332.907 115.681 332.5 116.103 332.248Z" fill="white"/>
<path d="M125.232 328.768C125.771 329.208 126.206 329.763 126.505 330.391C126.805 331.019 126.962 331.705 126.966 332.401C127.008 333.041 126.879 333.68 126.593 334.253C126.306 334.826 125.872 335.313 125.335 335.663L113.368 342.571C112.837 342.863 112.227 342.983 111.625 342.914C111.022 342.845 110.456 342.59 110.004 342.185C109.468 341.744 109.036 341.189 108.738 340.561C108.441 339.933 108.286 339.247 108.284 338.552L108.04 321.988C107.993 321.348 108.12 320.707 108.407 320.134C108.694 319.56 109.13 319.074 109.67 318.727C110.199 318.434 110.805 318.312 111.405 318.379C112.006 318.446 112.57 318.697 113.022 319.099L125.232 328.768ZM125.618 332.247C125.616 331.829 125.521 331.417 125.342 331.04C125.162 330.662 124.901 330.329 124.578 330.065L112.38 320.409C112.108 320.168 111.769 320.017 111.408 319.976C111.047 319.935 110.683 320.005 110.364 320.178C110.037 320.385 109.772 320.678 109.598 321.024C109.424 321.369 109.347 321.756 109.375 322.142L109.619 338.706C109.623 339.123 109.719 339.535 109.898 339.912C110.078 340.289 110.338 340.622 110.659 340.889C110.931 341.129 111.27 341.28 111.631 341.321C111.991 341.363 112.356 341.292 112.675 341.12L124.642 334.212C124.963 334 125.223 333.706 125.394 333.361C125.566 333.016 125.643 332.632 125.618 332.247Z" fill="white"/>
</g>
<path d="M146.393 328.78L130.613 301.443L127.018 303.523L142.811 330.873L146.393 328.78Z" fill="#0B348F"/>
<path opacity="0.3" d="M146.393 328.78L130.613 301.443L127.018 303.523L142.811 330.873L146.393 328.78Z" fill="black"/>
<path opacity="0.1" d="M96.5225 357.773L142.811 330.873L141.347 328.433L98.975 353.061L84.4273 328.279L80.7422 330.424L96.5225 357.773Z" fill="black"/>
<path d="M225.154 306.914L220.313 309.7L225.18 312.512L225.154 306.914Z" fill="#455A64"/>
<path d="M220.313 309.699L100.451 378.868L100.464 384.467L225.179 312.511L220.313 309.699Z" fill="#131313"/>
<path d="M49.2584 98.8798C49.2584 99.0211 49.2584 99.1623 49.3483 99.2907C49.3483 99.4448 49.4382 99.6117 49.4895 99.7658C49.5374 99.9016 49.5931 100.035 49.6565 100.164L49.9004 100.677L50.1187 101.037C50.2385 101.225 50.3669 101.418 50.5039 101.615L50.735 101.91L50.9533 102.18L51.056 102.295C51.2101 102.462 51.377 102.616 51.5439 102.783L51.7751 103.001C51.9291 103.143 52.1089 103.284 52.2887 103.425L52.584 103.656L52.7637 103.81L53.3672 104.208C53.5727 104.35 53.7781 104.491 54.0092 104.619L69.5328 113.607L126.401 80.7754L110.878 71.7874C104.316 67.9354 93.6591 67.9354 87.0465 71.7874L54.1248 90.9319C50.5938 92.9734 48.9888 95.6955 49.1942 98.3662C49.2023 98.5388 49.2238 98.7106 49.2584 98.8798Z" fill="#455A64"/>
<path opacity="0.5" d="M49.2584 98.8798C49.2584 99.0211 49.2584 99.1623 49.3483 99.2907C49.3483 99.4448 49.4382 99.6117 49.4895 99.7658C49.5374 99.9016 49.5931 100.035 49.6565 100.164L49.9004 100.677L50.1187 101.037C50.2385 101.225 50.3669 101.418 50.5039 101.615L50.735 101.91L50.9533 102.18L51.056 102.295C51.2101 102.462 51.377 102.616 51.5439 102.783L51.7751 103.001C51.9291 103.143 52.1089 103.284 52.2887 103.425L52.584 103.656L52.7637 103.81L53.3672 104.208C53.5727 104.35 53.7781 104.491 54.0092 104.619L69.5328 113.607L126.401 80.7754L110.878 71.7874C104.316 67.9354 93.6591 67.9354 87.0465 71.7874L54.1248 90.9319C50.5938 92.9734 48.9888 95.6955 49.1942 98.3662C49.2023 98.5388 49.2238 98.7106 49.2584 98.8798Z" fill="white"/>
<path d="M54.0477 104.735C53.8294 104.606 53.624 104.465 53.4185 104.324L52.8151 103.926L52.6353 103.772L52.3528 103.554C52.1731 103.412 51.9933 103.271 51.8392 103.13L51.6081 102.912C51.4403 102.763 51.2816 102.604 51.133 102.436L51.0303 102.321L50.812 102.051L50.5938 101.769C50.4482 101.572 50.3198 101.379 50.2085 101.191C50.1315 101.075 50.0545 100.96 49.9903 100.844L49.7463 100.331C49.7463 100.202 49.6308 100.087 49.5794 99.9583C49.5794 99.8043 49.4895 99.6373 49.4381 99.4833C49.4381 99.3549 49.3739 99.2265 49.3483 99.0981C49.3357 98.9314 49.3357 98.764 49.3483 98.5973C49.3483 98.4304 49.3483 98.2763 49.3483 98.1094L49.5024 151.216V151.37C49.4961 151.481 49.4961 151.592 49.5024 151.704C49.4898 151.883 49.4898 152.063 49.5024 152.243V152.333C49.5024 152.448 49.5794 152.551 49.6051 152.667C49.6307 152.782 49.6949 153.013 49.7463 153.18V153.283C49.7881 153.384 49.8353 153.482 49.8875 153.578C49.9646 153.758 50.0416 153.938 50.1315 154.105V154.233C50.1315 154.323 50.2471 154.4 50.2984 154.477C50.3498 154.554 50.5552 154.875 50.6965 155.068C50.7395 155.125 50.7781 155.185 50.812 155.247L51.1459 155.633L51.2614 155.761C51.4495 155.975 51.6511 156.176 51.8649 156.364L51.9676 156.454C52.1217 156.596 52.3143 156.737 52.4812 156.878C52.6482 157.019 52.7894 157.135 52.9563 157.25L53.5598 157.661L53.9964 157.944L54.2018 158.072L69.7254 167.06L69.5713 113.967L54.0477 104.735Z" fill="#37474F"/>
<path opacity="0.3" d="M54.0477 104.735C53.8294 104.606 53.624 104.465 53.4185 104.324L52.8151 103.926L52.6353 103.772L52.3528 103.554C52.1731 103.412 51.9933 103.271 51.8392 103.13L51.6081 102.912C51.4403 102.763 51.2816 102.604 51.133 102.436L51.0303 102.321L50.812 102.051L50.5938 101.769C50.4482 101.572 50.3198 101.379 50.2085 101.191C50.1315 101.075 50.0545 100.96 49.9903 100.844L49.7463 100.331C49.7463 100.202 49.6308 100.087 49.5794 99.9583C49.5794 99.8043 49.4895 99.6373 49.4381 99.4833C49.4381 99.3549 49.3739 99.2265 49.3483 99.0981C49.3357 98.9314 49.3357 98.764 49.3483 98.5973C49.3483 98.4304 49.3483 98.2763 49.3483 98.1094L49.5024 151.216V151.37C49.4961 151.481 49.4961 151.592 49.5024 151.704C49.4898 151.883 49.4898 152.063 49.5024 152.243V152.333C49.5024 152.448 49.5794 152.551 49.6051 152.667C49.6307 152.782 49.6949 153.013 49.7463 153.18V153.283C49.7881 153.384 49.8353 153.482 49.8875 153.578C49.9646 153.758 50.0416 153.938 50.1315 154.105V154.233C50.1315 154.323 50.2471 154.4 50.2984 154.477C50.3498 154.554 50.5552 154.875 50.6965 155.068C50.7395 155.125 50.7781 155.185 50.812 155.247L51.1459 155.633L51.2614 155.761C51.4495 155.975 51.6511 156.176 51.8649 156.364L51.9676 156.454C52.1217 156.596 52.3143 156.737 52.4812 156.878C52.6482 157.019 52.7894 157.135 52.9563 157.25L53.5598 157.661L53.9964 157.944L54.2018 158.072L69.7254 167.06L69.5713 113.967L54.0477 104.735Z" fill="white"/>
<path d="M126.44 80.9297L69.5713 113.762L69.7254 166.855L126.594 134.036L126.44 80.9297Z" fill="#263238"/>
<path d="M8.18339 320.6L7.83671 165.108C7.96407 162.7 8.6585 160.357 9.86341 158.268C11.0683 156.179 12.7496 154.405 14.7703 153.09L208.012 41.7926C208.713 41.2851 209.535 40.9706 210.396 40.8805C211.257 40.7903 212.126 40.9277 212.917 41.279L205.637 37.0675C204.353 36.2585 202.568 36.3227 200.591 37.4783L7.33595 148.788C5.31695 150.103 3.6367 151.875 2.43188 153.961C1.22706 156.047 0.531687 158.388 0.402344 160.794L0.749029 316.248C0.663919 317.072 0.786139 317.904 1.10457 318.668C1.423 319.433 1.92754 320.106 2.57231 320.626L2.95751 320.844L10.1351 325.03C9.4544 324.524 8.91677 323.849 8.57469 323.073C8.23261 322.296 8.09779 321.444 8.18339 320.6Z" fill="#9903FF"/>
<path opacity="0.3" d="M205.676 37.0675C204.392 36.2585 202.607 36.3227 200.629 37.4783L7.33612 148.788C5.0538 150.231 3.21777 152.281 2.0332 154.708L9.46756 159.009C10.6521 156.582 12.4882 154.533 14.7705 153.09L208.012 41.7926C208.714 41.2851 209.536 40.9706 210.396 40.8805C211.257 40.7903 212.126 40.9277 212.917 41.279L205.676 37.0675Z" fill="white"/>
<path opacity="0.2" d="M0.402344 160.794L0.749029 316.248C0.663919 317.072 0.786139 317.904 1.10457 318.669C1.423 319.434 1.92754 320.107 2.57231 320.627L2.95751 320.845L10.1351 325.031C9.44536 324.528 8.89897 323.853 8.54991 323.074C8.20086 322.295 8.06124 321.438 8.14486 320.588L7.79819 165.096C7.84991 162.962 8.40888 160.871 9.42886 158.997L1.99451 154.695C0.993395 156.576 0.448016 158.665 0.402344 160.794Z" fill="black"/>
<path d="M215.036 45.7615C215.121 44.9122 214.981 44.0554 214.629 43.2777C214.277 42.5 213.727 41.8287 213.033 41.3317C212.242 40.9804 211.373 40.843 210.512 40.9331C209.651 41.0233 208.829 41.3378 208.128 41.8453L14.7705 153.091C12.7498 154.407 11.0685 156.181 9.86362 158.269C8.65871 160.358 7.96427 162.701 7.83691 165.109L8.1836 320.602C8.09998 321.451 8.2396 322.308 8.58865 323.087C8.9377 323.866 9.48409 324.541 10.1738 325.044H10.2894C11.0748 325.37 11.9301 325.49 12.7747 325.393C13.6194 325.297 14.4255 324.986 15.1172 324.492L208.449 213.272C210.469 211.959 212.151 210.188 213.356 208.101C214.561 206.015 215.255 203.673 215.383 201.267L215.036 45.7615ZM205.008 207.327L15.0402 316.724L14.7063 165.096C14.8309 163.9 15.2064 162.742 15.8081 161.7C16.4099 160.658 17.2245 159.755 18.1988 159.049L208.231 49.652L208.565 201.28C208.431 202.481 208.045 203.641 207.432 204.683C206.819 205.725 205.993 206.626 205.008 207.327Z" fill="#9903FF"/>
<path d="M208.179 49.6523L203.262 52.4771L203.583 198.853C203.455 200.049 203.078 201.205 202.477 202.247C201.875 203.288 201.062 204.192 200.09 204.901L15.0273 311.473V316.711L205.059 207.315C206.035 206.609 206.851 205.705 207.455 204.664C208.059 203.622 208.437 202.464 208.565 201.267L208.179 49.6523Z" fill="#407BFF"/>
<path opacity="0.3" d="M208.179 49.6523L203.262 52.4771L203.583 198.853C203.455 200.049 203.078 201.205 202.477 202.247C201.875 203.288 201.062 204.192 200.09 204.901L15.0273 311.473V316.711L205.059 207.315C206.035 206.609 206.851 205.705 207.455 204.664C208.059 203.622 208.437 202.464 208.565 201.267L208.179 49.6523Z" fill="black"/>
<path d="M203.582 198.878L203.261 52.502L18.1985 159.074C17.2242 159.78 16.4096 160.684 15.8079 161.726C15.2061 162.768 14.8307 163.925 14.7061 165.122L15.0271 311.498L200.09 204.926C201.062 204.217 201.875 203.313 202.476 202.272C203.078 201.23 203.455 200.074 203.582 198.878Z" fill="#455A64"/>
<g opacity="0.5">
<path d="M146.817 207.674L146.83 213.182L90.4621 245.719L90.4492 240.21L146.817 207.674Z" fill="#FFE040"/>
<path d="M95.8675 191.084L99.2701 193.023L91.3864 206.672L99.3086 211.191L95.9446 217.021L88.0094 212.514L80.1385 226.15L76.7359 224.224L84.6197 210.575L76.6846 206.055L80.0615 200.213L87.9966 204.72L95.8675 191.084Z" fill="#FFE040"/>
<path d="M156.935 155.826L160.325 157.765L152.454 171.414L160.376 175.934L156.999 181.776L149.077 177.256L141.206 190.892L137.803 188.966L145.674 175.33L137.752 170.81L141.129 164.955L149.051 169.475L156.935 155.826Z" fill="#FFE040"/>
</g>
<path d="M83.0275 68.4355L77.532 57.9195V57.7654L79.3296 45.8884C79.4863 44.882 79.3332 43.8518 78.8905 42.9344C78.4479 42.0171 77.7368 41.2561 76.8515 40.7524L52.0831 26.5771C51.5332 26.2604 50.8799 26.1751 50.2671 26.3401C49.6542 26.505 49.132 26.9066 48.8153 27.4566C48.4986 28.0066 48.4134 28.6598 48.5783 29.2726C48.7433 29.8855 49.1449 30.4077 49.6949 30.7244L74.4761 44.9511L74.5916 45.2079L72.8069 57.0977C72.6469 58.1534 72.8268 59.2326 73.3205 60.1793L78.816 70.6953V70.9007L70.9323 89.7755C70.6766 90.3899 70.5457 91.049 70.547 91.7144V95.3224C70.5387 95.5498 70.5992 95.7744 70.7206 95.9669C70.842 96.1593 71.0187 96.3106 71.2276 96.401C71.7551 96.6673 72.3379 96.8061 72.9289 96.8061C73.5199 96.8061 74.1026 96.6673 74.6302 96.401C74.8256 96.3145 74.9942 96.1771 75.1184 96.0032C75.2426 95.8293 75.3179 95.6252 75.3364 95.4123V91.5603L83.2073 72.6855C83.4894 72.0069 83.6195 71.2748 83.5885 70.5406C83.5574 69.8063 83.3659 69.0878 83.0275 68.4355Z" fill="#AB30FF"/>
<path d="M89.8843 56.353V56.1861L92.9402 47.3136C93.2324 46.4629 93.2901 45.5493 93.1071 44.6686L88.6902 22.8406C88.5642 22.2157 88.1951 21.6665 87.6641 21.3137C87.1332 20.9609 86.4839 20.8335 85.859 20.9595C85.2341 21.0855 84.6848 21.4546 84.3321 21.9856C83.9793 22.5165 83.8519 23.1659 83.9779 23.7908L88.4077 45.7728L85.3518 54.6581C84.9711 55.7516 84.9711 56.9416 85.3518 58.035L88.4462 66.4324V66.5865L83.6441 82.1486C83.5015 82.6323 83.428 83.1337 83.4258 83.638V87.0278C83.4452 87.2371 83.5196 87.4375 83.6414 87.6088C83.7631 87.7802 83.9279 87.9164 84.1191 88.0036C84.6449 88.276 85.2283 88.4182 85.8204 88.4182C86.4126 88.4182 86.996 88.276 87.5217 88.0036C87.733 87.9152 87.9124 87.7648 88.0362 87.5722C88.16 87.3796 88.2224 87.1539 88.2151 86.925V83.5353L93.0173 67.9732C93.3415 66.9181 93.3099 65.7857 92.9274 64.7504L89.8843 56.353Z" fill="#7400C2"/>
<path d="M132.976 35.1543H124.668C123.84 35.1516 123.024 35.3543 122.294 35.7442C121.563 36.1341 120.941 36.699 120.482 37.3885L115.834 44.3349L115.68 44.4376L109.594 45.8757C108.83 46.0565 108.119 46.4129 107.518 46.9167C106.916 47.4204 106.44 48.0576 106.127 48.7776C105.656 49.8833 105.588 51.1192 105.935 52.27L106.615 54.838C106.64 54.8998 106.64 54.9689 106.615 55.0306C106.576 55.0829 106.522 55.123 106.461 55.1462L104.587 55.6084C103.738 55.8193 102.959 56.2475 102.326 56.8509C101.694 57.4542 101.229 58.212 100.978 59.0496L95.1877 78.3994C95.0594 78.8763 95.0031 79.3697 95.0207 79.8632V82.8421C95.0353 83.0544 95.1076 83.2587 95.2298 83.4329C95.352 83.6072 95.5194 83.7447 95.7141 83.8308C96.2416 84.0971 96.8244 84.2359 97.4154 84.2359C98.0064 84.2359 98.5891 84.0971 99.1167 83.8308C99.3366 83.7407 99.5216 83.5821 99.6442 83.3786C99.7668 83.175 99.8205 82.9373 99.7972 82.7008V79.7862L105.588 60.4363L105.755 60.2694L107.63 59.8071C108.381 59.6121 109.078 59.2466 109.666 58.7389C110.254 58.2313 110.717 57.595 111.019 56.8796C111.464 55.7762 111.527 54.5562 111.199 53.4128L110.506 50.8448C110.493 50.8144 110.486 50.7816 110.486 50.7485C110.486 50.7154 110.493 50.6826 110.506 50.6522C110.518 50.6203 110.539 50.5925 110.566 50.572C110.593 50.5516 110.626 50.5393 110.66 50.5366L116.849 49.1756C118.09 48.8762 119.174 48.1255 119.892 47.0698L124.527 40.1234L124.732 40.0078H133.04C133.369 40.032 133.7 39.9879 134.011 39.8785C134.323 39.7691 134.608 39.5967 134.85 39.3719C135.092 39.1472 135.285 38.8751 135.417 38.5724C135.548 38.2698 135.617 37.9433 135.617 37.6132C135.617 37.2831 135.548 36.9565 135.417 36.6539C135.285 36.3513 135.092 36.0791 134.85 35.8544C134.608 35.6297 134.323 35.4572 134.011 35.3478C133.7 35.2384 133.369 35.1944 133.04 35.2185L132.976 35.1543Z" fill="#AB30FF"/>
<g opacity="0.1">
<path d="M83.0275 68.4355L77.532 57.9195V57.7654L79.3296 45.8884C79.4863 44.882 79.3332 43.8518 78.8905 42.9344C78.4479 42.0171 77.7368 41.2561 76.8515 40.7524L52.0831 26.5771C51.5332 26.2604 50.8799 26.1751 50.2671 26.3401C49.6542 26.505 49.132 26.9066 48.8153 27.4566C48.4986 28.0066 48.4134 28.6598 48.5783 29.2726C48.7433 29.8855 49.1449 30.4077 49.6949 30.7244L74.4761 44.9511L74.5916 45.2079L72.8069 57.0977C72.6469 58.1534 72.8268 59.2326 73.3205 60.1793L78.816 70.6953V70.9007L70.9323 89.7755C70.6766 90.3899 70.5457 91.049 70.547 91.7144V95.3224C70.5387 95.5498 70.5992 95.7744 70.7206 95.9669C70.842 96.1593 71.0187 96.3106 71.2276 96.401C71.7551 96.6673 72.3379 96.8061 72.9289 96.8061C73.5199 96.8061 74.1026 96.6673 74.6302 96.401C74.8256 96.3145 74.9942 96.1771 75.1184 96.0032C75.2426 95.8293 75.3179 95.6252 75.3364 95.4123V91.5603L83.2073 72.6855C83.4894 72.0069 83.6195 71.2748 83.5885 70.5406C83.5574 69.8063 83.3659 69.0878 83.0275 68.4355Z" fill="white"/>
<path d="M89.8843 56.353V56.1861L92.9402 47.3136C93.2324 46.4629 93.2901 45.5493 93.1071 44.6686L88.6902 22.8406C88.5642 22.2157 88.1951 21.6665 87.6641 21.3137C87.1332 20.9609 86.4839 20.8335 85.859 20.9595C85.2341 21.0855 84.6848 21.4546 84.3321 21.9856C83.9793 22.5165 83.8519 23.1659 83.9779 23.7908L88.4077 45.7728L85.3518 54.6581C84.9711 55.7516 84.9711 56.9416 85.3518 58.035L88.4462 66.4324V66.5865L83.6441 82.1486C83.5015 82.6323 83.428 83.1337 83.4258 83.638V87.0278C83.4452 87.2371 83.5196 87.4375 83.6414 87.6088C83.7631 87.7802 83.9279 87.9164 84.1191 88.0036C84.6449 88.276 85.2283 88.4182 85.8204 88.4182C86.4126 88.4182 86.996 88.276 87.5217 88.0036C87.733 87.9152 87.9124 87.7648 88.0362 87.5722C88.16 87.3796 88.2224 87.1539 88.2151 86.925V83.5353L93.0173 67.9732C93.3415 66.9181 93.3099 65.7857 92.9274 64.7504L89.8843 56.353Z" fill="white"/>
<path d="M132.975 35.1543H124.667C123.839 35.1516 123.023 35.3543 122.293 35.7442C121.562 36.1341 120.94 36.699 120.481 37.3885L115.833 44.3349L115.679 44.4376L109.593 45.8757C108.829 46.0565 108.118 46.4129 107.517 46.9167C106.915 47.4204 106.439 48.0576 106.126 48.7776C105.655 49.8833 105.587 51.1192 105.934 52.27L106.614 54.838C106.639 54.8998 106.639 54.9689 106.614 55.0306C106.575 55.0829 106.521 55.123 106.46 55.1462L104.586 55.6084C103.737 55.8193 102.958 56.2475 102.325 56.8509C101.693 57.4542 101.228 58.212 100.978 59.0496L95.1867 78.3994C95.0584 78.8763 95.0022 79.3697 95.0197 79.8632V82.8421C95.0343 83.0544 95.1066 83.2587 95.2288 83.4329C95.351 83.6072 95.5184 83.7447 95.7131 83.8308C96.2407 84.0971 96.8234 84.2359 97.4144 84.2359C98.0054 84.2359 98.5881 84.0971 99.1157 83.8308C99.3356 83.7407 99.5206 83.5821 99.6432 83.3786C99.7658 83.175 99.8195 82.9373 99.7962 82.7008V79.7862L105.587 60.4363L105.754 60.2694L107.629 59.8071C108.38 59.6121 109.077 59.2466 109.665 58.7389C110.253 58.2313 110.716 57.595 111.018 56.8796C111.463 55.7762 111.526 54.5562 111.198 53.4128L110.505 50.8448C110.492 50.8144 110.485 50.7816 110.485 50.7485C110.485 50.7154 110.492 50.6826 110.505 50.6522C110.517 50.6203 110.538 50.5925 110.565 50.572C110.592 50.5516 110.625 50.5393 110.659 50.5366L116.848 49.1756C118.089 48.8762 119.173 48.1255 119.891 47.0698L124.526 40.1234L124.732 40.0078H133.039C133.368 40.032 133.699 39.9879 134.01 39.8785C134.322 39.7691 134.607 39.5967 134.849 39.3719C135.091 39.1472 135.284 38.8751 135.416 38.5724C135.547 38.2698 135.616 37.9433 135.616 37.6132C135.616 37.2831 135.547 36.9565 135.416 36.6539C135.284 36.3513 135.091 36.0791 134.849 35.8544C134.607 35.6297 134.322 35.4572 134.01 35.3478C133.699 35.2384 133.368 35.1944 133.039 35.2185L132.975 35.1543Z" fill="white"/>
</g>
<path d="M8.20898 5.44336L22.089 21.3906L31.7319 15.7154L43.0439 42.6665L29.9214 23.5606L19.6623 30.4428L8.20898 5.44336Z" fill="#9903FF"/>
<path d="M74.1293 0.166016L67.6836 13.0702L74.1293 14.0589L68.8392 27.1172L79.9201 12.0687L71.1504 10.5793L74.1293 0.166016Z" fill="#9903FF"/>
<path d="M130.677 4.50586L128.032 19.8497L122.742 17.8595L119.981 33.4087L124.283 21.4932L130.241 24.0355L130.677 4.50586Z" fill="#9903FF"/>
<path d="M139.164 31.7527L149.808 22.4308V27.0917L157.474 21.7246L147.163 32.8055L147.433 26.2571L139.164 31.7527Z" fill="#9903FF"/>
<path d="M135.376 45.7607L144.685 54.646L146.444 49.6512L156.472 57.4322L145.93 44.207L144.017 50.8196L135.376 45.7607Z" fill="#9903FF"/>
<path d="M61.4823 64.7129L47.3326 70.003L52.3274 73.8165L41.3877 80.1209L59.2481 75.293L53.8939 70.9917L61.4823 64.7129Z" fill="#9903FF"/>
<g opacity="0.5">
<path d="M8.20898 5.44336L22.089 21.3906L31.7319 15.7154L43.0439 42.6665L29.9214 23.5606L19.6623 30.4428L8.20898 5.44336Z" fill="white"/>
<path d="M74.1293 0.166016L67.6836 13.0702L74.1293 14.0589L68.8392 27.1172L79.9201 12.0687L71.1504 10.5793L74.1293 0.166016Z" fill="white"/>
<path d="M130.677 4.50586L128.032 19.8497L122.742 17.8595L119.981 33.4087L124.283 21.4932L130.241 24.0355L130.677 4.50586Z" fill="white"/>
<path d="M139.164 31.7527L149.808 22.4308V27.0917L157.474 21.7246L147.163 32.8055L147.433 26.2571L139.164 31.7527Z" fill="white"/>
<path d="M135.376 45.7607L144.685 54.646L146.444 49.6512L156.472 57.4322L145.93 44.207L144.017 50.8196L135.376 45.7607Z" fill="white"/>
<path d="M61.4823 64.7129L47.3326 70.003L52.3274 73.8165L41.3877 80.1209L59.2481 75.293L53.8939 70.9917L61.4823 64.7129Z" fill="white"/>
</g>
<path d="M261.157 419.66L182.923 430.125L193.708 456.819L271.955 446.342L261.157 419.66Z" fill="#B655F7"/>
<path opacity="0.2" d="M261.157 419.66L230.803 442.798L182.923 430.125L261.157 419.66Z" fill="white"/>
<path opacity="0.1" d="M261.157 419.66L271.955 446.342L193.708 456.819L182.923 430.125L230.803 442.798L261.157 419.66Z" fill="white"/>
<path d="M297.738 326.84L280.096 352.225L354.658 369.725L372.313 344.341L297.738 326.84Z" fill="#B655F7"/>
<path opacity="0.3" d="M372.313 344.341L324.433 353.136L297.738 326.84L372.313 344.341Z" fill="white"/>
<path opacity="0.1" d="M372.313 344.341L354.658 369.725L280.096 352.225L297.738 326.84L324.432 353.136L372.313 344.341Z" fill="white"/>
<path d="M128.558 371.332L110.903 396.717L185.465 414.218L203.12 388.833L128.558 371.332Z" fill="#B655F7"/>
<path opacity="0.3" d="M203.12 388.833L155.24 397.628L128.559 371.332L203.12 388.833Z" fill="white"/>
<path opacity="0.1" d="M203.12 388.833L185.465 414.218L110.903 396.717L128.558 371.332L155.24 397.628L203.12 388.833Z" fill="white"/>
<path d="M405.8 359.646L340.611 386.752L368.282 409.016L433.457 381.911L405.8 359.646Z" fill="#B655F7"/>
<path opacity="0.5" d="M405.8 359.646L393.178 387.792L340.611 386.752L405.8 359.646Z" fill="white"/>
<path opacity="0.3" d="M405.8 359.646L433.457 381.911L368.282 409.016L340.611 386.752L393.178 387.792L405.8 359.646Z" fill="white"/>
<path d="M280.93 371.332L254.519 394.007L321.184 420.124L347.583 397.461L280.93 371.332Z" fill="#B655F7"/>
<path opacity="0.2" d="M347.583 397.461L297.584 400.261L280.931 371.332L347.583 397.461Z" fill="white"/>
<path opacity="0.1" d="M347.583 397.461L321.184 420.124L254.519 394.007L280.93 371.332L297.584 400.261L347.583 397.461Z" fill="white"/>
<path d="M340.033 484.17L293.655 478.738L277.965 524.359L324.343 529.803L340.033 484.17Z" fill="#B655F7"/>
<path opacity="0.5" d="M293.655 478.738L317.563 504.393L277.965 524.359L293.655 478.738Z" fill="white"/>
<path opacity="0.3" d="M324.343 529.803L277.965 524.359L317.563 504.393L293.655 478.738L340.033 484.17L324.343 529.803Z" fill="white"/>
<path d="M259.051 510.479L190.408 534.554L214.997 558.012L283.639 533.937L259.051 510.479Z" fill="#B655F7"/>
<path opacity="0.5" d="M259.051 510.479L242.68 537.982L190.408 534.554L259.051 510.479Z" fill="white"/>
<path opacity="0.3" d="M259.051 510.479L283.639 533.937L214.997 558.012L190.408 534.554L242.68 537.982L259.051 510.479Z" fill="white"/>
<path d="M320.838 281.965L263.828 314.887L297.161 334.249L354.17 301.34L320.838 281.965Z" fill="#B655F7"/>
<path opacity="0.5" d="M263.828 314.887L313.878 312.177L320.838 281.965L263.828 314.887Z" fill="white"/>
<path opacity="0.3" d="M263.828 314.887L297.161 334.249L354.17 301.34L320.838 281.965L313.878 312.177L263.828 314.887Z" fill="white"/>
<path d="M245.582 370.74L185.876 398.462L217.36 420.713L277.066 392.992L245.582 370.74Z" fill="#B655F7"/>
<path opacity="0.6" d="M185.876 398.462L235.978 400.208L245.582 370.74L185.876 398.462Z" fill="white"/>
<path opacity="0.4" d="M185.876 398.462L217.36 420.713L277.066 392.992L245.582 370.74L235.978 400.208L185.876 398.462Z" fill="white"/>
<path d="M351.731 357.002L271.455 359.146L273.792 386.508L354.068 384.364L351.731 357.002Z" fill="#B655F7"/>
<path opacity="0.5" d="M351.731 357.002L314.662 376.596L271.455 359.146L351.731 357.002Z" fill="white"/>
<path opacity="0.3" d="M351.731 357.002L354.068 384.364L273.792 386.508L271.455 359.146L314.662 376.596L351.731 357.002Z" fill="white"/>
<path d="M229.673 350.697L149.397 352.842L151.734 380.204L231.997 378.059L229.673 350.697Z" fill="#B655F7"/>
<path opacity="0.5" d="M229.673 350.697L192.604 370.291L149.397 352.842L229.673 350.697Z" fill="white"/>
<path opacity="0.3" d="M229.673 350.697L231.997 378.059L151.734 380.204L149.397 352.842L192.604 370.291L229.673 350.697Z" fill="white"/>
<path d="M264.431 476.259L223.42 462.623L183.449 502.928L224.537 516.641L264.431 476.259Z" fill="#B655F7"/>
<path opacity="0.2" d="M223.407 462.559L231.997 491.269L183.437 502.863L223.407 462.559Z" fill="white"/>
<path opacity="0.1" d="M224.46 516.564L183.437 502.863L231.997 491.269L223.407 462.559L264.431 476.259L224.46 516.564Z" fill="white"/>
<path d="M241.768 322.104L219.337 366.761L264.765 374.491L287.171 329.82L241.768 322.104Z" fill="#B655F7"/>
<path opacity="0.5" d="M241.768 322.104L261.773 348.849L219.337 366.761L241.768 322.104Z" fill="white"/>
<path opacity="0.3" d="M264.765 374.491L219.337 366.761L261.773 348.849L241.768 322.104L287.171 329.82L264.765 374.491Z" fill="white"/>
<path d="M306.341 406.436L266.011 420.675L307.998 460.453L348.315 446.214L306.341 406.436Z" fill="#B655F7"/>
<path opacity="0.5" d="M306.341 406.436L348.315 446.214L300.756 436.725L306.341 406.436Z" fill="white"/>
<path opacity="0.3" d="M306.341 406.436L300.756 436.725L348.315 446.214L307.998 460.453L266.011 420.675L306.341 406.436Z" fill="white"/>
<path d="M279.98 438.229L222.971 471.15L256.303 490.526L313.313 457.604L279.98 438.229Z" fill="#B655F7"/>
<path opacity="0.6" d="M222.971 471.15L273.021 468.441L279.98 438.229L222.971 471.15Z" fill="white"/>
<path opacity="0.4" d="M222.971 471.15L256.303 490.526L313.313 457.604L279.98 438.229L273.021 468.441L222.971 471.15Z" fill="white"/>
<path d="M149.732 458.193L108.644 471.675L148.422 512.198L189.523 498.716L149.732 458.193Z" fill="#B655F7"/>
<path opacity="0.5" d="M155.676 482.038L148.422 512.199L108.644 471.676L155.676 482.038Z" fill="white"/>
<path opacity="0.3" d="M149.732 458.193L189.523 498.716L148.422 512.198L108.644 471.675L148.422 512.198L155.676 482.037L108.644 471.675L149.732 458.193Z" fill="white"/>
<path d="M190.357 437.766L143.838 442.619L158.296 488.432L204.815 483.592L190.357 437.766Z" fill="#B655F7"/>
<path opacity="0.6" d="M190.357 437.766L204.815 483.592L166.308 464.807L190.357 437.766Z" fill="white"/>
<path opacity="0.4" d="M190.357 437.766L166.308 464.807L204.815 483.592L158.296 488.432L143.838 442.619L190.357 437.766Z" fill="white"/>
<path d="M141.129 484.388L100.092 470.688L108.682 499.398L100.092 470.688L60.1338 510.992L101.158 524.705L141.129 484.388Z" fill="#B655F7"/>
<path opacity="0.6" d="M100.092 470.688L108.682 499.398L60.1338 510.992L100.092 470.688Z" fill="white"/>
<path opacity="0.4" d="M101.158 524.705L60.1338 510.992L108.682 499.398L100.092 470.688L141.129 484.388L101.158 524.705Z" fill="white"/>
<path d="M53.8942 405.203L20.5615 424.566L77.584 457.488L110.904 438.112L53.8942 405.203Z" fill="#B655F7"/>
<path opacity="0.2" d="M110.903 438.112L60.8528 435.403L53.8936 405.203L110.903 438.112Z" fill="white"/>
<path opacity="0.1" d="M110.904 438.112L77.584 457.488L20.5615 424.566L53.8942 405.203L60.8534 435.403L110.904 438.112Z" fill="white"/>
<path d="M57.8356 429.701L12.0225 436.404L31.963 481.536L77.7761 474.834L57.8356 429.701Z" fill="#B655F7"/>
<path opacity="0.5" d="M57.8352 429.701L77.7758 474.834L37.0986 457.654L57.8352 429.701Z" fill="white"/>
<path opacity="0.3" d="M57.8356 429.701L37.099 457.654L77.7761 474.834L31.963 481.536L12.0225 436.404L57.8356 429.701Z" fill="white"/>
<path d="M186.864 408.746L106.858 412.97L111.301 440.255L191.307 436.031L186.864 408.746Z" fill="#B655F7"/>
<path opacity="0.6" d="M186.864 408.746L151.349 429.29L106.858 412.97L186.864 408.746Z" fill="white"/>
<path opacity="0.3" d="M186.864 408.746L191.307 436.031L111.301 440.255L106.858 412.97L151.349 429.29L186.864 408.746Z" fill="white"/>
<path opacity="0.1" d="M183.064 331.168L171.264 337.986L148.986 350.839L206.997 373.553L233.396 350.877L183.064 331.168Z" fill="black"/>
<path d="M187.057 328.895L175.244 335.7L152.967 348.553L206.998 369.726L233.397 347.05L187.057 328.895Z" fill="#B655F7"/>
<path opacity="0.6" d="M183.398 349.849L233.396 347.05L187.057 328.895L175.244 335.7L183.398 349.849Z" fill="white"/>
<path opacity="0.4" d="M233.397 347.052L183.398 349.851L175.244 335.701L152.967 348.554L206.998 369.727L233.397 347.052Z" fill="white"/>
<path d="M430.465 249.839L432.173 220.91C432.412 216.969 431.671 213.029 430.015 209.444C428.359 205.859 425.84 202.74 422.684 200.366L412.297 192.547L413.812 254.615L430.465 249.839Z" fill="#F4CE09"/>
<path opacity="0.1" d="M430.465 249.839L432.173 220.91C432.412 216.969 431.671 213.029 430.015 209.444C428.359 205.859 425.84 202.74 422.684 200.366L412.297 192.547L413.812 254.615L430.465 249.839Z" fill="black"/>
<path opacity="0.1" d="M414.312 218.188C419.305 219.893 424.473 221.03 429.721 221.577C428.506 222.502 427.115 223.169 425.633 223.535C424.152 223.902 422.61 223.961 421.105 223.709C419.653 223.308 418.299 222.61 417.13 221.66C415.961 220.709 415.002 219.527 414.312 218.188Z" fill="black"/>
<path d="M395.091 473.448C394.243 476.106 391.316 477.634 388.53 477.852C385.736 477.852 382.953 477.499 380.248 476.799C374.085 475.682 368.14 476.799 362.002 476.645C359.985 476.659 357.973 476.44 356.006 475.99C354.022 475.534 352.229 474.475 350.87 472.96C350.104 472.038 349.595 470.931 349.393 469.75C349.273 470.644 349.342 471.553 349.597 472.418C349.851 473.283 350.285 474.084 350.87 474.77C352.233 476.278 354.026 477.331 356.006 477.788C357.973 478.237 359.985 478.457 362.002 478.443C368.14 478.584 374.085 477.48 380.248 478.597C382.951 479.307 385.735 479.665 388.53 479.662C391.316 479.431 394.243 477.916 395.091 475.246C395.356 474.324 395.43 473.359 395.309 472.408C395.261 472.759 395.188 473.107 395.091 473.448Z" fill="#263238"/>
<path d="M394.937 468.336L393.794 462.738C393.655 461.742 393.333 460.78 392.844 459.901C392.599 459.458 392.238 459.09 391.798 458.839C391.359 458.588 390.859 458.462 390.353 458.475C386.989 458.026 382.238 456.806 379.439 458.732C375.007 461.766 369.72 463.3 364.352 463.111C361.566 463.008 358.779 462.43 356.006 462.777C353.233 463.123 350.369 464.651 349.586 467.322C349.36 468.111 349.311 468.939 349.445 469.749C349.646 470.93 350.156 472.037 350.921 472.959C352.28 474.474 354.074 475.533 356.057 475.989C358.024 476.438 360.036 476.658 362.054 476.644C368.191 476.785 374.136 475.681 380.299 476.798C383.004 477.498 385.787 477.851 388.581 477.851C391.367 477.633 394.295 476.105 395.142 473.447C395.24 473.106 395.312 472.758 395.361 472.407C395.431 471.036 395.288 469.663 394.937 468.336Z" fill="#37474F"/>
<path d="M378.618 452.865L378.387 460.158C378.358 460.904 378.621 461.632 379.119 462.188C379.618 462.744 380.313 463.084 381.058 463.137C383.502 463.33 385.958 463.33 388.402 463.137C389.384 463.045 390.301 462.607 390.99 461.902C391.679 461.196 392.095 460.269 392.164 459.285L392.459 453.892L378.618 452.865Z" fill="#FFA8A7"/>
<path d="M426.293 448.987C426.258 450.065 425.92 451.111 425.317 452.004C424.447 453.051 423.222 453.741 421.876 453.943C420.266 454.217 418.612 454.032 417.102 453.41C415.592 452.788 414.287 451.753 413.337 450.425C412.413 449.141 411.886 447.536 411.026 446.175C409.711 444.357 408.09 442.78 406.237 441.514C404.381 440.253 402.75 438.69 401.409 436.892C400.778 436.011 400.367 434.992 400.208 433.92C400.049 432.849 400.149 431.754 400.497 430.729C400.316 430.973 400.161 431.235 400.035 431.512C399.63 432.593 399.498 433.757 399.65 434.902C399.803 436.046 400.235 437.135 400.908 438.073C402.271 439.923 403.933 441.533 405.826 442.837C407.724 444.14 409.379 445.765 410.718 447.639C411.604 449.038 412.13 450.643 413.068 452.017C414.027 453.384 415.354 454.449 416.895 455.091C418.436 455.732 420.128 455.921 421.773 455.638C423.152 455.435 424.407 454.725 425.291 453.648C426.079 452.397 426.435 450.922 426.306 449.449C426.293 449.295 426.293 449.141 426.293 448.987Z" fill="#263238"/>
<path d="M424.007 439.844C421.799 435.992 417.228 433.129 413.735 430.381C411.808 428.704 409.435 427.625 406.905 427.274C405.632 427.112 404.341 427.335 403.197 427.914C402.052 428.493 401.108 429.402 400.485 430.522C400.485 430.587 400.485 430.664 400.42 430.728C400.072 431.754 399.972 432.848 400.131 433.92C400.29 434.991 400.701 436.01 401.332 436.891C402.673 438.69 404.305 440.252 406.16 441.513C408.013 442.779 409.634 444.356 410.949 446.174C411.809 447.535 412.336 449.102 413.26 450.424C414.21 451.753 415.515 452.787 417.025 453.409C418.535 454.031 420.189 454.216 421.799 453.943C423.145 453.74 424.37 453.05 425.24 452.004C425.843 451.11 426.181 450.064 426.216 448.986C426.216 448.64 426.216 448.293 426.216 447.933C426.171 445.094 425.412 442.312 424.007 439.844Z" fill="#37474F"/>
<path d="M414.402 436.469V443.094C416.024 443.853 417.805 444.208 419.593 444.13C421.382 444.051 423.125 443.542 424.674 442.645L425.291 436.674L414.402 436.469Z" fill="#FFA8A7"/>
<path d="M427.076 316.248C429.053 322.219 426.614 350.531 425.458 377.7C429.759 387.972 429.888 417.389 427.397 438.048C427.397 438.048 418.974 440.616 411.193 437.933L404.259 380.641L402.898 348.348C402.898 348.348 400.446 376.994 397.634 395.381C400.279 409.505 400.561 412.42 394.026 455.729C394.026 455.729 383.42 458.926 375.472 455.023C371.774 394.187 376.075 339.129 376.756 319.188L427.076 316.248Z" fill="#455A64"/>
<path opacity="0.3" d="M403.719 368.069L402.615 341.721C409.42 341.721 415.751 336.585 420.591 331.809C415.969 340.026 407.032 343.673 407.032 343.673L403.719 368.069Z" fill="black"/>
<path d="M375.947 263.257L375.741 320.857C406.108 333.581 425.817 322.141 428.475 316.106C427.076 295.113 432.032 270.55 431.647 260.111C431.261 249.672 429.99 237.91 413.812 240.273L396.606 241.955L387.875 244.074L375.947 263.257Z" fill="#F4CE09"/>
<path d="M413.812 232.03C415.041 232.109 416.25 231.698 417.176 230.887C417.525 230.501 417.778 230.038 417.917 229.537C418.055 229.035 418.074 228.508 417.972 227.998C418.482 227.901 418.96 227.678 419.364 227.351C419.767 227.024 420.083 226.602 420.284 226.123C420.441 225.593 420.474 225.033 420.381 224.488C420.287 223.942 420.069 223.425 419.744 222.978C420.481 222.787 421.167 222.439 421.757 221.958C422.346 221.477 422.825 220.874 423.16 220.191C423.504 219.489 423.696 218.723 423.722 217.941C423.749 217.16 423.61 216.382 423.314 215.659C424.125 215.443 424.868 215.023 425.47 214.439C426.073 213.854 426.515 213.125 426.755 212.32C427.007 211.485 427.05 210.601 426.88 209.746C426.71 208.891 426.332 208.09 425.779 207.415C426.476 206.48 426.914 205.378 427.049 204.219C427.185 203.06 427.012 201.886 426.549 200.816C426.018 199.74 425.217 198.82 424.225 198.145C423.233 197.47 422.083 197.063 420.887 196.964C421.055 195.842 420.94 194.697 420.552 193.632C420.164 192.566 419.516 191.615 418.666 190.865C417.813 190.146 416.792 189.657 415.697 189.443C414.603 189.23 413.473 189.299 412.413 189.645C412.024 188.708 411.404 187.884 410.612 187.251C409.819 186.618 408.879 186.196 407.879 186.024C406.879 185.852 405.852 185.937 404.894 186.269C403.935 186.601 403.076 187.171 402.397 187.924C401.896 187.361 401.263 186.93 400.556 186.668C399.848 186.406 399.088 186.321 398.34 186.422C397.58 186.502 396.85 186.765 396.213 187.187C395.576 187.61 395.05 188.18 394.681 188.849C393.722 188.412 392.667 188.229 391.617 188.317C390.568 188.405 389.558 188.762 388.685 189.352C387.813 189.942 387.107 190.747 386.634 191.688C386.162 192.63 385.939 193.677 385.988 194.73C385.225 194.961 384.56 195.437 384.096 196.085C383.632 196.733 383.394 197.515 383.42 198.312C383.485 199.132 383.81 199.909 384.348 200.53C384.887 201.152 385.61 201.585 386.412 201.766C387.934 209.996 390.651 217.96 394.475 225.404C396.183 228.73 398.327 232.094 401.589 233.814C405.132 235.715 410.743 234.649 413.812 232.03Z" fill="#455A64"/>
<path d="M385.153 212.59L381.597 218.792L385.5 220.23L385.153 212.59Z" fill="#F28F8F"/>
<path d="M386.386 201.805C384.022 210.383 383.67 219.391 385.359 228.127C385.545 229.634 386.111 231.07 387.002 232.3C388.179 233.557 389.802 234.304 391.522 234.38C393.248 234.446 394.976 234.282 396.658 233.892V241.955C402.77 243.393 409.062 243.958 413.864 240.273V232.03C410.412 233.132 406.741 233.357 403.181 232.685C398.957 230.412 398.109 222.695 398.7 220.654C399.076 221.149 399.589 221.522 400.176 221.727C400.763 221.933 401.397 221.961 402 221.809C402.582 221.656 403.127 221.384 403.6 221.011C404.073 220.638 404.463 220.171 404.747 219.639C405.312 218.575 405.661 217.41 405.775 216.211C406.072 214.765 405.849 213.259 405.145 211.961C404.605 211.238 403.858 210.696 403.002 210.407C402.147 210.118 401.224 210.096 400.356 210.343C398.62 210.887 397.17 212.096 396.324 213.707C396.053 214.203 395.817 214.718 395.618 215.248C395.549 215.457 395.409 215.634 395.223 215.751C395.038 215.869 394.817 215.918 394.599 215.89C394.381 215.863 394.179 215.761 394.028 215.602C393.877 215.443 393.785 215.236 393.769 215.017C393.548 212.702 393.965 210.371 394.976 208.276C394.279 208.203 393.607 207.975 393.009 207.608C392.411 207.242 391.903 206.746 391.522 206.157C391.125 205.609 390.858 204.976 390.742 204.309C390.626 203.641 390.665 202.956 390.854 202.305C389.347 202.405 387.834 202.235 386.386 201.805Z" fill="#FFA8A7"/>
<path d="M391.265 213.323C394.072 213.411 396.867 212.903 399.463 211.832C402.059 210.761 404.399 209.15 406.327 207.108C406.601 206.822 406.774 206.454 406.821 206.06C406.867 205.666 406.784 205.268 406.583 204.925C406.456 204.714 406.286 204.532 406.085 204.39C405.883 204.248 405.654 204.15 405.413 204.102C405.171 204.053 404.922 204.056 404.681 204.109C404.441 204.163 404.214 204.266 404.015 204.412C402.368 205.7 400.411 206.533 398.34 206.826C398.481 203.834 402.629 198.005 404.76 195.899C405.436 195.403 405.932 194.699 406.172 193.896C406.206 193.631 406.175 193.363 406.084 193.113C405.992 192.863 405.842 192.638 405.646 192.458C405.461 192.272 405.233 192.135 404.982 192.059C404.731 191.983 404.465 191.97 404.208 192.021C404.459 191.919 404.672 191.739 404.815 191.509C404.958 191.278 405.024 191.008 405.004 190.737C404.955 190.459 404.833 190.2 404.65 189.985C404.467 189.771 404.23 189.609 403.964 189.517C403.707 189.406 403.429 189.349 403.149 189.349C402.868 189.349 402.591 189.406 402.333 189.517C402.293 189.281 402.187 189.061 402.029 188.882C401.87 188.703 401.664 188.571 401.434 188.503C400.976 188.349 400.48 188.349 400.022 188.503C399.552 188.665 399.1 188.876 398.674 189.132C398.416 188.767 398.041 188.502 397.611 188.38C397.181 188.259 396.722 188.288 396.311 188.464C390.906 191.212 384.421 200.02 384.37 206.081C384.436 207.922 385.173 209.675 386.444 211.01C387.714 212.344 389.429 213.167 391.265 213.323Z" fill="#FFA8A7"/>
<path d="M404.143 191.918C401.108 193.382 398.672 195.849 397.248 198.903C397.749 194.268 402.307 192.123 404.143 191.918Z" fill="#F28F8F"/>
<path d="M402.269 189.375C397.698 191.545 395.682 193.818 394.437 195.795C395.099 194.154 396.164 192.706 397.532 191.584C398.901 190.462 400.53 189.703 402.269 189.375Z" fill="#F28F8F"/>
<path d="M398.609 189.041C395.99 190.148 393.741 191.979 392.125 194.318C392.626 192.934 393.494 191.712 394.637 190.782C395.779 189.853 397.152 189.251 398.609 189.041Z" fill="#F28F8F"/>
<path d="M400.343 210.291C397.359 211.723 394.012 212.224 390.739 211.729C390.255 209.858 389.195 208.187 387.709 206.953C386.728 206.14 385.586 205.544 384.357 205.206C384.357 205.463 384.357 205.733 384.357 205.99C384.403 207.857 385.14 209.64 386.426 210.995C387.712 212.35 389.454 213.179 391.317 213.321C394.115 213.402 396.9 212.891 399.487 211.82C402.073 210.749 404.405 209.142 406.327 207.107C406.59 206.833 406.76 206.483 406.811 206.106C406.861 205.73 406.791 205.347 406.609 205.014C404.994 207.269 402.84 209.083 400.343 210.291Z" fill="#F28F8F"/>
<path opacity="0.2" d="M392.524 261.035C387.388 261.125 382.252 261.382 377.026 261.574L375.947 263.321V274.106C379.522 273.332 382.874 271.752 385.746 269.487C388.619 267.222 390.937 264.331 392.524 261.035Z" fill="black"/>
<path d="M393.024 242.816L358.716 233.096L388.928 218.664C393.319 210.626 385.269 203.782 378.438 204.771L343.5 222.028C340.935 223.206 338.762 225.095 337.24 227.471C335.717 229.847 334.908 232.611 334.91 235.433C334.909 238.291 335.739 241.088 337.298 243.484C338.857 245.88 341.079 247.771 343.693 248.928L383.497 266.57C395.476 270.589 403.848 245.885 393.024 242.816Z" fill="#F4CE09"/>
<path opacity="0.2" d="M358.716 233.095L348.919 230.309C353.987 229.278 359.184 229.031 364.327 229.577L365.765 229.731L358.716 233.095Z" fill="black"/>
<path d="M247.404 79.9912L330.133 127.73C331.579 128.56 332.773 129.767 333.587 131.223C334.364 132.607 334.775 134.167 334.781 135.755V186.563C334.781 192.778 329.503 196.989 322.557 192.983L315.957 189.221L314.609 188.451L314.314 188.284L270.093 162.604L239.829 145.308C238.414 144.499 237.239 143.331 236.42 141.922C235.602 140.513 235.17 138.913 235.168 137.283V86.4112C235.168 79.7858 243.257 77.6158 247.404 79.9912Z" fill="#C4C4C4"/>
<path opacity="0.4" d="M326.139 135.395C325.541 134.2 324.697 133.146 323.661 132.301C323.31 132.015 322.936 131.757 322.544 131.53L239.79 83.8427C239.322 83.5721 238.79 83.4297 238.249 83.4298C237.708 83.4299 237.176 83.5725 236.708 83.8432C236.239 84.1139 235.85 84.5032 235.58 84.9719C235.31 85.4406 235.168 85.9723 235.168 86.5134C235.168 79.8366 243.257 77.6666 247.404 80.0934L330.133 127.833C331.579 128.662 332.773 129.87 333.587 131.325L326.139 135.395Z" fill="white"/>
<path opacity="0.2" d="M327.167 190.326V139.557C327.168 139.187 327.142 138.818 327.09 138.452C326.938 137.388 326.613 136.356 326.127 135.396L333.587 131.236C334.365 132.621 334.776 134.181 334.781 135.769V186.564C334.781 192.778 329.504 196.99 322.558 192.984C323.025 193.251 323.554 193.391 324.092 193.389C324.63 193.388 325.159 193.246 325.625 192.977C326.091 192.709 326.479 192.322 326.749 191.857C327.02 191.392 327.164 190.864 327.167 190.326Z" fill="white"/>
<path d="M315.958 189.233L314.609 188.463L315.958 189.233Z" fill="#C4C4C4"/>
<path d="M229.044 114.326L235.169 110.77V112.567L229.044 114.326Z" fill="#C4C4C4"/>
<path opacity="0.4" d="M229.044 114.326L235.169 110.77V112.567L229.044 114.326Z" fill="white"/>
<path d="M236.26 112.258L229.39 114.171C229.129 114.241 228.891 114.38 228.703 114.574C228.514 114.768 228.381 115.009 228.318 115.272C228.255 115.535 228.264 115.81 228.344 116.068C228.424 116.326 228.573 116.558 228.774 116.739L235.913 123.352L236.26 112.258Z" fill="#C4C4C4"/>
<path d="M38.2898 167.601L38.4996 185.13L35.0356 187.104L28.4518 179.148L28.5911 190.778L25.127 192.753L24.9171 175.225L28.3812 173.25L34.965 181.206L34.8257 169.576L38.2898 167.601Z" fill="#FFE040"/>
<path d="M54.7563 166.652L54.7657 167.434C54.7817 168.768 54.6261 170.064 54.2989 171.321C53.9804 172.563 53.5162 173.736 52.9065 174.841C52.2966 175.936 51.5671 176.928 50.7179 177.816C49.8685 178.694 48.9253 179.429 47.8882 180.02C46.8512 180.611 45.9033 180.954 45.0446 181.05C44.1857 181.136 43.4382 180.986 42.8018 180.602C42.1653 180.207 41.6709 179.58 41.3184 178.721C40.9658 177.851 40.7815 176.749 40.7655 175.415L40.7562 174.633C40.7402 173.299 40.8958 172.008 41.2231 170.761C41.5503 169.504 42.0187 168.323 42.6284 167.218C43.2382 166.113 43.9677 165.122 44.8171 164.244C45.6663 163.356 46.6095 162.616 47.6465 162.025C48.6835 161.434 49.6315 161.095 50.4903 161.01C51.3491 160.914 52.0923 161.066 52.72 161.466C53.3565 161.86 53.851 162.492 54.2036 163.362C54.5561 164.221 54.7403 165.318 54.7563 166.652ZM51.3016 169.409L51.2919 168.597C51.2814 167.724 51.1894 166.999 51.0158 166.421C50.8507 165.829 50.6129 165.388 50.3024 165.101C50.0006 164.808 49.626 164.668 49.1787 164.681C48.7399 164.679 48.2417 164.837 47.684 165.154C47.1262 165.472 46.6266 165.883 46.1852 166.388C45.7523 166.877 45.3862 167.439 45.0867 168.074C44.7959 168.705 44.5762 169.405 44.4275 170.177C44.2786 170.938 44.2095 171.755 44.2199 172.628L44.2296 173.441C44.2401 174.313 44.3278 175.046 44.4928 175.639C44.6578 176.221 44.8955 176.661 45.2062 176.959C45.5256 177.251 45.9046 177.399 46.3434 177.401C46.7907 177.389 47.2932 177.223 47.851 176.905C48.4087 176.587 48.904 176.184 49.3368 175.695C49.7696 175.196 50.1313 174.626 50.4219 173.986C50.7213 173.34 50.9454 172.637 51.0942 171.875C51.2429 171.104 51.312 170.282 51.3016 169.409Z" fill="#FFE040"/>
<path d="M63.6757 153.13L69.8588 149.605C70.7912 149.073 71.6336 148.709 72.3858 148.513C73.1466 148.301 73.7912 148.272 74.3195 148.425C74.8563 148.564 75.2682 148.884 75.555 149.387C75.8416 149.88 75.9901 150.558 76.0005 151.421C76.0122 152.404 75.8741 153.321 75.5859 154.172C75.2978 155.023 74.8906 155.821 74.3643 156.565C73.8378 157.299 73.219 158.011 72.5077 158.699L71.3924 160.077L66.0459 163.125L65.9821 159.995L69.9952 157.707C70.5617 157.384 71.0354 157.013 71.4165 156.594C71.7975 156.175 72.0817 155.725 72.269 155.245C72.4563 154.764 72.5469 154.273 72.5409 153.772C72.5346 153.25 72.4291 152.861 72.2242 152.604C72.0279 152.332 71.7325 152.208 71.3379 152.231C70.9521 152.249 70.4716 152.422 69.8964 152.75L67.1905 154.292L67.3627 168.676L63.8855 170.658L63.6757 153.13ZM73.0229 165.449L69.2177 159.817L72.8775 157.7L76.7462 163.145L76.7484 163.325L73.0229 165.449Z" fill="#FFE040"/>
<path d="M89.7437 152.766L89.7812 155.896L81.0491 160.874L81.0116 157.744L89.7437 152.766ZM82.0027 142.682L82.2125 160.211L78.7484 162.185L78.5386 144.657L82.0027 142.682ZM88.5299 145.914L88.5673 149.044L80.9594 153.381L80.9219 150.251L88.5299 145.914ZM89.5714 138.368L89.609 141.512L80.8769 146.49L80.8393 143.345L89.5714 138.368Z" fill="#FFE040"/>
<path d="M94.944 135.305L95.1538 152.833L91.6897 154.808L91.4799 137.28L94.944 135.305ZM101.542 138.936L101.579 142.066L94.102 146.328L94.0645 143.199L101.542 138.936ZM102.225 131.154L102.263 134.299L94.0143 139.001L93.9766 135.856L102.225 131.154Z" fill="#FFE040"/>
<path d="M104.094 130.088L110.277 126.564C111.21 126.032 112.052 125.668 112.805 125.472C113.565 125.26 114.21 125.231 114.738 125.384C115.275 125.523 115.687 125.843 115.974 126.346C116.26 126.839 116.409 127.517 116.419 128.38C116.431 129.363 116.293 130.28 116.005 131.131C115.716 131.982 115.309 132.779 114.783 133.524C114.257 134.258 113.638 134.969 112.926 135.658L111.811 137.036L106.465 140.084L106.401 136.954L110.414 134.666C110.98 134.343 111.454 133.972 111.835 133.553C112.216 133.134 112.5 132.684 112.688 132.203C112.875 131.723 112.966 131.232 112.96 130.731C112.953 130.209 112.848 129.82 112.643 129.563C112.447 129.291 112.151 129.167 111.757 129.19C111.371 129.207 110.89 129.38 110.315 129.708L107.609 131.251L107.781 145.635L104.304 147.617L104.094 130.088ZM113.442 142.408L109.636 136.776L113.296 134.659L117.165 140.104L117.167 140.284L113.442 142.408Z" fill="#FFE040"/>
<path d="M130.162 129.725L130.2 132.855L121.468 137.833L121.43 134.703L130.162 129.725ZM122.421 119.641L122.631 137.169L119.167 139.144L118.957 121.616L122.421 119.641ZM128.949 122.873L128.986 126.003L121.378 130.34L121.341 127.21L128.949 122.873ZM129.99 115.326L130.028 118.471L121.296 123.449L121.258 120.304L129.99 115.326Z" fill="#FFE040"/>
<path d="M140.589 122.266C140.585 121.956 140.53 121.704 140.422 121.513C140.323 121.317 140.159 121.183 139.93 121.112C139.701 121.041 139.385 121.029 138.982 121.077C138.588 121.12 138.093 121.23 137.499 121.407C136.563 121.678 135.745 121.857 135.044 121.943C134.343 122.03 133.755 121.996 133.279 121.843C132.813 121.685 132.458 121.388 132.216 120.95C131.982 120.497 131.861 119.885 131.852 119.113C131.843 118.37 131.974 117.614 132.246 116.843C132.526 116.057 132.92 115.292 133.429 114.547C133.946 113.798 134.557 113.102 135.26 112.459C135.971 111.8 136.75 111.23 137.595 110.749C138.824 110.048 139.903 109.66 140.832 109.585C141.77 109.505 142.501 109.724 143.025 110.244C143.548 110.753 143.817 111.559 143.83 112.663L140.366 114.638C140.361 114.176 140.251 113.819 140.037 113.568C139.832 113.301 139.528 113.166 139.124 113.164C138.721 113.162 138.223 113.33 137.63 113.667C137.064 113.99 136.594 114.359 136.222 114.773C135.858 115.172 135.587 115.58 135.407 115.995C135.237 116.395 135.153 116.766 135.157 117.107C135.161 117.388 135.216 117.614 135.323 117.785C135.439 117.941 135.616 118.047 135.854 118.104C136.1 118.145 136.42 118.139 136.814 118.086C137.208 118.023 137.685 117.918 138.245 117.77C139.172 117.485 139.986 117.308 140.687 117.242C141.397 117.161 141.985 117.214 142.452 117.402C142.928 117.585 143.288 117.911 143.53 118.378C143.773 118.846 143.899 119.476 143.908 120.268C143.917 121.051 143.786 121.832 143.515 122.613C143.243 123.384 142.844 124.137 142.318 124.871C141.8 125.59 141.177 126.274 140.447 126.922C139.727 127.555 138.917 128.127 138.02 128.639C137.218 129.096 136.428 129.435 135.65 129.657C134.872 129.878 134.166 129.937 133.533 129.834C132.9 129.72 132.392 129.409 132.008 128.9C131.625 128.392 131.427 127.636 131.415 126.633L134.892 124.65C134.898 125.152 134.973 125.544 135.117 125.825C135.27 126.102 135.482 126.278 135.755 126.355C136.037 126.417 136.378 126.389 136.781 126.27C137.183 126.142 137.637 125.934 138.142 125.646C138.735 125.308 139.213 124.94 139.576 124.54C139.94 124.141 140.199 123.746 140.352 123.356C140.514 122.961 140.593 122.597 140.589 122.266Z" fill="#FFE040"/>
<path d="M157.189 107.213L157.227 110.358L148.665 115.239L148.627 112.094L157.189 107.213ZM149.611 104.141L149.821 121.669L146.357 123.644L146.147 106.116L149.611 104.141ZM159.533 98.485L159.743 116.013L156.292 117.981L156.082 100.452L159.533 98.485Z" fill="#FFE040"/>
<path d="M166.082 94.7516L166.292 112.28L162.828 114.255L162.618 96.7264L166.082 94.7516Z" fill="#FFE040"/>
<path d="M182.553 85.3623L182.763 102.891L179.298 104.865L172.715 96.9087L172.854 108.539L169.39 110.514L169.18 92.9855L172.644 91.0108L179.228 98.9674L179.089 87.337L182.553 85.3623Z" fill="#FFE040"/>
<path d="M198.56 84.5234L198.645 91.6551C198.388 92.1351 197.991 92.7197 197.455 93.4089C196.928 94.0831 196.244 94.7915 195.401 95.5342C194.559 96.2769 193.541 96.9885 192.347 97.6691C191.293 98.2702 190.328 98.6336 189.452 98.7593C188.576 98.885 187.82 98.7655 187.184 98.401C186.547 98.0265 186.053 97.4095 185.701 96.55C185.348 95.6906 185.164 94.5838 185.148 93.2297L185.135 92.1915C185.119 90.8374 185.27 89.5443 185.589 88.3124C185.907 87.0704 186.367 85.9094 186.968 84.8294C187.57 83.7495 188.286 82.7854 189.119 81.9374C189.959 81.0743 190.89 80.3522 191.909 79.7709C193.356 78.9463 194.54 78.5289 195.461 78.5188C196.391 78.4937 197.101 78.7909 197.591 79.4104C198.081 80.0299 198.389 80.8841 198.516 81.973L195.17 83.8807C195.084 83.3437 194.922 82.9366 194.681 82.6595C194.45 82.3673 194.119 82.2327 193.689 82.2554C193.268 82.2732 192.722 82.4734 192.051 82.8559C191.511 83.1639 191.024 83.5524 190.591 84.0215C190.158 84.4906 189.792 85.0377 189.492 85.663C189.193 86.2782 188.968 86.9615 188.819 87.713C188.67 88.4644 188.601 89.2865 188.612 90.1792L188.625 91.2475C188.635 92.1302 188.723 92.8628 188.888 93.4454C189.062 94.0231 189.312 94.4457 189.64 94.7133C189.968 94.9708 190.373 95.0783 190.855 95.0357C191.346 94.9882 191.905 94.7857 192.532 94.428C193.29 93.9958 193.873 93.5726 194.281 93.1586C194.688 92.7345 194.978 92.3976 195.15 92.1478L195.116 89.3041L192.005 91.0776L191.972 88.2791L198.56 84.5234Z" fill="#FFE040"/>
<path d="M253.094 127.741C253.173 127.162 253.072 126.62 252.791 126.113C252.519 125.611 252.159 125.146 251.712 124.718C251.273 124.284 250.843 123.89 250.422 123.536C249.896 123.094 249.365 122.614 248.83 122.097C248.295 121.579 247.803 121.026 247.356 120.437C246.917 119.843 246.566 119.217 246.303 118.56C246.049 117.897 245.935 117.202 245.961 116.474C245.996 115.691 246.18 115.086 246.514 114.659C246.856 114.237 247.295 113.968 247.83 113.853C248.374 113.744 248.966 113.766 249.606 113.92C250.247 114.075 250.883 114.332 251.515 114.692C252.41 115.208 253.221 115.869 253.949 116.674C254.686 117.484 255.27 118.384 255.7 119.374C256.129 120.365 256.331 121.39 256.305 122.449L253.949 121.128C253.967 120.566 253.866 120.018 253.647 119.485C253.427 118.952 253.125 118.469 252.739 118.034C252.352 117.589 251.914 117.226 251.422 116.943C250.957 116.676 250.501 116.508 250.054 116.441C249.606 116.363 249.225 116.422 248.909 116.618C248.593 116.804 248.4 117.169 248.33 117.712C248.277 118.114 248.334 118.502 248.501 118.875C248.668 119.238 248.896 119.585 249.185 119.916C249.484 120.242 249.795 120.55 250.12 120.841C250.453 121.126 250.756 121.384 251.028 121.615C251.747 122.244 252.458 122.929 253.16 123.669C253.862 124.409 254.432 125.212 254.87 126.077C255.309 126.932 255.507 127.849 255.463 128.828C255.428 129.661 255.23 130.294 254.87 130.727C254.52 131.154 254.063 131.418 253.502 131.518C252.949 131.613 252.339 131.571 251.673 131.392C251.006 131.213 250.339 130.933 249.672 130.554C248.751 130.023 247.891 129.331 247.093 128.477C246.303 127.618 245.671 126.666 245.198 125.621C244.724 124.566 244.5 123.479 244.526 122.36L246.909 123.695C246.909 124.347 247.027 124.964 247.264 125.547C247.509 126.125 247.847 126.648 248.277 127.117C248.707 127.586 249.198 127.979 249.751 128.295C250.216 128.563 250.69 128.755 251.172 128.872C251.664 128.994 252.085 128.977 252.436 128.82C252.796 128.659 253.015 128.299 253.094 127.741Z" fill="#767676"/>
<path d="M258.424 127.234L258.463 126.91C258.569 125.875 258.805 124.953 259.174 124.144C259.551 123.34 260.047 122.712 260.661 122.26C261.275 121.808 262.003 121.59 262.846 121.605C263.688 121.621 264.627 121.93 265.662 122.534C266.662 123.109 267.518 123.829 268.228 124.694C268.948 125.564 269.527 126.512 269.965 127.538C270.413 128.558 270.724 129.604 270.9 130.674C271.075 131.744 271.119 132.772 271.031 133.756L271.005 134.088C270.891 135.118 270.645 136.03 270.268 136.824C269.891 137.618 269.391 138.234 268.768 138.671C268.154 139.113 267.425 139.326 266.583 139.311C265.741 139.285 264.807 138.973 263.78 138.374C262.789 137.804 261.933 137.089 261.214 136.229C260.503 135.364 259.928 134.423 259.49 133.408C259.051 132.392 258.744 131.354 258.569 130.294C258.393 129.233 258.345 128.214 258.424 127.234ZM260.832 128.223L260.806 128.57C260.744 129.168 260.74 129.822 260.793 130.533C260.854 131.25 260.994 131.959 261.214 132.663C261.442 133.371 261.771 134.03 262.201 134.639C262.631 135.249 263.188 135.753 263.872 136.153C264.6 136.576 265.241 136.771 265.794 136.736C266.346 136.692 266.816 136.48 267.202 136.102C267.596 135.729 267.908 135.245 268.136 134.649C268.373 134.058 268.531 133.429 268.61 132.76L268.636 132.429C268.698 131.831 268.698 131.174 268.636 130.457C268.584 129.736 268.443 129.016 268.215 128.298C267.996 127.575 267.671 126.908 267.241 126.299C266.811 125.679 266.254 125.17 265.57 124.77C264.842 124.337 264.197 124.145 263.635 124.195C263.083 124.239 262.613 124.456 262.227 124.843C261.841 125.231 261.53 125.726 261.293 126.327C261.065 126.923 260.911 127.555 260.832 128.223Z" fill="#767676"/>
<path d="M277.177 131.897L275.111 144.354L272.729 143.033L275.203 128.124L277.519 129.408L277.177 131.897ZM281.796 131.643L281.573 134.137C281.388 133.995 281.2 133.856 281.007 133.718C280.823 133.586 280.638 133.469 280.454 133.367C279.884 133.041 279.371 132.857 278.914 132.814C278.467 132.767 278.068 132.832 277.717 133.008C277.375 133.19 277.081 133.463 276.835 133.829C276.598 134.199 276.409 134.636 276.269 135.14L275.519 135.175C275.615 134.416 275.773 133.671 275.993 132.94C276.221 132.214 276.532 131.599 276.927 131.096C277.331 130.597 277.835 130.295 278.441 130.189C279.055 130.088 279.792 130.291 280.651 130.798C280.845 130.905 281.033 131.03 281.217 131.172C281.41 131.319 281.603 131.476 281.796 131.643Z" fill="#767676"/>
<path d="M286.047 136.813L283.981 149.27L281.599 147.95L284.073 133.041L286.389 134.325L286.047 136.813ZM290.666 136.56L290.443 139.054C290.259 138.912 290.07 138.772 289.877 138.635C289.693 138.503 289.508 138.386 289.324 138.284C288.754 137.958 288.241 137.773 287.784 137.731C287.337 137.684 286.938 137.748 286.587 137.925C286.245 138.106 285.951 138.38 285.705 138.745C285.468 139.115 285.28 139.553 285.139 140.057L284.389 140.092C284.486 139.333 284.643 138.588 284.863 137.857C285.091 137.131 285.402 136.516 285.797 136.013C286.201 135.514 286.705 135.212 287.311 135.106C287.925 135.005 288.662 135.208 289.522 135.715C289.715 135.822 289.903 135.946 290.087 136.089C290.28 136.236 290.473 136.393 290.666 136.56Z" fill="#767676"/>
<path d="M294.865 153.452L300.866 142.349L303.498 143.808L295.141 157.984C294.922 158.394 294.663 158.763 294.365 159.089C294.075 159.42 293.742 159.676 293.364 159.858C292.996 160.045 292.579 160.12 292.114 160.083C291.649 160.046 291.136 159.872 290.574 159.561C290.337 159.419 290.101 159.258 289.864 159.077C289.618 158.89 289.381 158.704 289.153 158.517L289.298 156.31C289.403 156.389 289.508 156.462 289.614 156.53C289.719 156.609 289.82 156.68 289.916 156.743C290.504 157.089 291.009 157.274 291.43 157.296C291.86 157.324 292.228 157.217 292.535 156.976C292.851 156.74 293.132 156.404 293.378 155.969L294.865 153.452ZM294.207 138.658L295.904 152.389L296.062 155.35L294.286 155.358L291.706 137.272L294.207 138.658Z" fill="#767676"/>
<path d="M301.932 157.791C301.932 157.3 302.068 156.964 302.34 156.783C302.62 156.608 302.976 156.634 303.406 156.863C303.836 157.091 304.186 157.436 304.458 157.898C304.739 158.364 304.875 158.841 304.866 159.328C304.866 159.819 304.726 160.148 304.445 160.313C304.173 160.483 303.822 160.454 303.392 160.226C302.971 160.003 302.62 159.663 302.34 159.206C302.059 158.749 301.923 158.278 301.932 157.791Z" fill="#767676"/>
<path d="M308.828 161.614C308.828 161.122 308.964 160.786 309.236 160.606C309.516 160.431 309.872 160.457 310.302 160.685C310.732 160.913 311.082 161.258 311.354 161.72C311.635 162.187 311.771 162.663 311.762 163.15C311.762 163.642 311.622 163.97 311.341 164.135C311.069 164.306 310.718 164.277 310.288 164.048C309.867 163.825 309.516 163.485 309.236 163.028C308.955 162.572 308.819 162.1 308.828 161.614Z" fill="#767676"/>
<path d="M315.724 165.436C315.724 164.945 315.86 164.609 316.132 164.428C316.412 164.253 316.768 164.279 317.198 164.508C317.628 164.736 317.978 165.081 318.25 165.543C318.531 166.009 318.667 166.486 318.658 166.973C318.658 167.464 318.518 167.793 318.237 167.958C317.965 168.128 317.614 168.099 317.184 167.871C316.763 167.648 316.412 167.308 316.132 166.851C315.851 166.394 315.715 165.923 315.724 165.436Z" fill="#767676"/>
</svg>
