<svg width="642" height="642" viewBox="0 0 642 642" fill="none" xmlns="http://www.w3.org/2000/svg">
<path d="M294.408 571.829L318.997 595.275L387.639 571.2L363.051 547.754L294.408 571.829Z" fill="#EAEAEA"/>
<path d="M171.567 488.973L181.583 494.751L214.902 475.389L157.893 442.467L124.56 461.842L139.185 470.278L116.021 473.668L135.962 518.801L181.775 512.098L171.567 488.973Z" fill="#EAEAEA"/>
<path d="M472.28 446.292L537.456 419.174L509.747 396.909L457.796 418.583L456.769 406.603L458.657 407.04L476.363 381.604L410.507 366.196L458.22 338.641L424.836 319.266L367.827 352.187L397.911 369.663L384.095 389.526L409.685 395.471L376.468 396.357L391.17 367.069L345.767 359.365L331.374 388.024L253.396 390.104L255.348 412.972L234.971 408.157L217.201 433.516L273.774 446.908L210.858 450.246L215.313 477.519L289.438 473.667L290.196 475.541L247.824 479.945L252.832 495.816L212.63 509.002L215.364 511.789L204.155 507.949L164.133 548.267L205.221 561.967L235.138 531.793L252.485 549.461L290.684 536.929L287.5 540.139L328.588 553.84L356.604 525.592L360.456 527.813L413.1 497.395L452.442 483.502L424.515 457.103L425.183 457.36L451.582 434.684L420.766 422.589L449.861 421.806L444.648 423.976L472.28 446.292ZM368.764 411.752L375.608 398.129L377.071 415.335L370.857 420.676L354.922 409.402L368.764 411.752ZM335.996 415.322L335.213 406.038L350.441 408.606L307.145 429.15L309.482 425.812L272.425 417.042L335.996 415.322ZM336.6 502.878L327.419 499.822L308.288 519.082L300.275 493.71L368.135 484.619L336.6 502.878ZM281.516 523.704L306.349 521.136L292.597 535.003L281.516 523.704ZM374.863 480.793L365.207 456.923L294.241 466.412L291.75 451.145L297.887 442.388L320.357 458.387L368.892 435.403L399.708 447.499L369.958 458.002L395.715 482.398L383.928 475.554L374.863 480.793Z" fill="#EAEAEA"/>
<path d="M381.963 561.633L428.341 567.065L444.031 521.444L397.653 516L381.963 561.633Z" fill="#EAEAEA"/>
<path d="M440.604 467.478C463.716 454.137 501.029 454.137 523.974 467.478C546.919 480.819 546.791 502.429 523.704 515.757C500.618 529.085 463.279 529.097 440.334 515.757C417.389 502.416 417.518 480.806 440.604 467.478Z" fill="#EAEAEA"/>
<path d="M339.475 353.1L202.871 432.554C201.259 433.487 199.43 433.979 197.568 433.979C195.705 433.979 193.876 433.487 192.265 432.554L122.543 392.287C122.141 392.055 121.806 391.722 121.574 391.319C121.341 390.917 121.219 390.46 121.219 389.996C121.219 389.531 121.341 389.074 121.574 388.672C121.806 388.27 122.141 387.936 122.543 387.704L259.148 308.288C260.76 307.355 262.589 306.863 264.451 306.863C266.313 306.863 268.143 307.355 269.754 308.288L339.475 348.554C339.869 348.789 340.195 349.122 340.422 349.52C340.648 349.918 340.767 350.369 340.767 350.827C340.767 351.285 340.648 351.736 340.422 352.134C340.195 352.533 339.869 352.865 339.475 353.1Z" fill="#EAEAEA"/>
<path d="M197.633 401.636L197.543 430.706L335.38 350.597L335.47 321.527L197.633 401.636Z" fill="#7400C2"/>
<path d="M173.905 360.535L125.832 332.801L125.678 389.22L197.505 430.706L197.595 401.636L173.905 360.535Z" fill="#7400C2"/>
<path opacity="0.3" d="M173.905 360.535L125.832 332.801L125.678 389.22L197.505 430.706L197.595 401.636L173.905 360.535Z" fill="black"/>
<path d="M197.633 401.636L335.47 321.527L311.755 280.439L173.904 360.535L197.633 401.636Z" fill="#7400C2"/>
<path opacity="0.1" d="M197.633 401.636L335.47 321.527L311.755 280.439L173.904 360.535L197.633 401.636Z" fill="black"/>
<g opacity="0.5">
<path d="M311.178 299.429L319.255 316.429C319.384 316.656 319.425 316.923 319.371 317.179C319.316 317.434 319.17 317.661 318.959 317.816L296.207 330.951C296.095 331.003 295.973 331.03 295.849 331.032C295.726 331.034 295.603 331.01 295.49 330.962C295.376 330.913 295.274 330.842 295.189 330.751C295.105 330.661 295.04 330.554 295 330.438L286.962 313.502C286.962 313.373 286.885 313.283 286.859 313.206C286.849 313.091 286.849 312.975 286.859 312.86C286.874 312.76 286.895 312.661 286.923 312.564C286.962 312.478 287.009 312.397 287.065 312.32C287.124 312.239 287.198 312.169 287.283 312.115L310.048 298.98C310.116 298.941 310.19 298.915 310.267 298.903C310.359 298.876 310.457 298.876 310.549 298.903C310.632 298.914 310.711 298.945 310.78 298.993C310.877 299.041 310.964 299.106 311.037 299.185C311.091 299.262 311.138 299.344 311.178 299.429ZM317.316 316.352L310.729 302.369L305.837 318.201C305.777 318.404 305.644 318.578 305.464 318.689C305.382 318.738 305.29 318.769 305.195 318.78C305.1 318.791 305.004 318.782 304.912 318.753L289.376 314.58L296.053 328.704L317.316 316.429M308.841 302.151L290.365 312.821L304.373 316.673L308.841 302.203" fill="white"/>
</g>
<path d="M311.743 280.439L263.708 252.705L125.871 332.801L173.906 360.535L311.743 280.439Z" fill="#7400C2"/>
<path opacity="0.2" d="M311.743 280.439L263.708 252.705L125.871 332.801L173.906 360.535L311.743 280.439Z" fill="black"/>
<path opacity="0.2" d="M263.709 252.705L125.871 332.801L155.262 349.775L293.099 269.667L263.709 252.705Z" fill="black"/>
<path d="M231.018 336.523L184.742 363.423L200.523 390.772L246.811 363.873L231.018 336.523Z" fill="#354147"/>
<g opacity="0.5">
<path d="M220.618 363.809L218.717 364.9L214.865 358.057L217.716 356.4L220.618 363.809Z" fill="white"/>
<path d="M220.105 365.248C220.3 365.136 220.517 365.067 220.742 365.048C220.966 365.029 221.192 365.06 221.403 365.139C221.614 365.217 221.805 365.342 221.962 365.503C222.12 365.664 222.24 365.857 222.313 366.07C222.559 366.497 222.631 367.002 222.514 367.48C222.397 367.959 222.1 368.373 221.684 368.638C221.484 368.748 221.263 368.813 221.035 368.83C220.808 368.846 220.579 368.813 220.366 368.732C220.152 368.652 219.958 368.526 219.798 368.363C219.638 368.201 219.515 368.005 219.437 367.791C219.193 367.364 219.126 366.858 219.251 366.383C219.376 365.907 219.683 365.5 220.105 365.248Z" fill="white"/>
<path d="M229.233 361.768C229.772 362.208 230.207 362.763 230.506 363.391C230.806 364.019 230.963 364.705 230.967 365.401C231.009 366.041 230.88 366.68 230.594 367.253C230.307 367.826 229.873 368.313 229.336 368.663L217.369 375.571C216.838 375.863 216.228 375.983 215.626 375.914C215.023 375.845 214.457 375.59 214.005 375.185C213.469 374.744 213.036 374.189 212.739 373.561C212.442 372.933 212.287 372.247 212.285 371.552L212.041 354.988C211.994 354.348 212.121 353.707 212.408 353.134C212.695 352.56 213.131 352.074 213.671 351.727C214.2 351.434 214.806 351.312 215.406 351.379C216.007 351.446 216.571 351.697 217.023 352.099L229.233 361.768ZM229.619 365.247C229.617 364.829 229.522 364.417 229.343 364.04C229.163 363.662 228.902 363.329 228.579 363.065L216.381 353.409C216.109 353.168 215.769 353.017 215.409 352.976C215.048 352.935 214.684 353.005 214.365 353.178C214.038 353.385 213.773 353.678 213.599 354.024C213.425 354.369 213.348 354.756 213.376 355.142L213.62 371.706C213.624 372.123 213.72 372.535 213.899 372.912C214.079 373.289 214.339 373.622 214.66 373.889C214.932 374.129 215.271 374.28 215.632 374.321C215.992 374.363 216.357 374.292 216.676 374.12L228.643 367.212C228.964 367 229.224 366.706 229.395 366.361C229.567 366.016 229.644 365.632 229.619 365.247Z" fill="white"/>
</g>
<path d="M250.393 361.78L234.613 334.443L231.018 336.523L246.811 363.873L250.393 361.78Z" fill="#0B348F"/>
<path opacity="0.3" d="M250.393 361.78L234.613 334.443L231.018 336.523L246.811 363.873L250.393 361.78Z" fill="black"/>
<path opacity="0.1" d="M200.523 390.773L246.811 363.873L245.347 361.433L202.975 386.061L188.427 361.279L184.742 363.424L200.523 390.773Z" fill="black"/>
<path d="M329.153 339.914L324.312 342.7L329.179 345.512L329.153 339.914Z" fill="#455A64"/>
<path d="M324.313 342.699L204.451 411.868L204.464 417.467L329.179 345.511L324.313 342.699Z" fill="#131313"/>
<path d="M153.259 131.88C153.259 132.021 153.259 132.162 153.349 132.291C153.349 132.445 153.439 132.612 153.491 132.766C153.538 132.902 153.594 133.035 153.657 133.164L153.901 133.677L154.12 134.037C154.24 134.225 154.368 134.418 154.505 134.615L154.736 134.91L154.954 135.18L155.057 135.295C155.211 135.462 155.378 135.616 155.545 135.783L155.776 136.001C155.93 136.143 156.11 136.284 156.29 136.425L156.585 136.656L156.765 136.81L157.368 137.208C157.574 137.35 157.779 137.491 158.01 137.619L173.534 146.607L230.402 113.775L214.879 104.787C208.317 100.935 197.66 100.935 191.048 104.787L158.126 123.932C154.595 125.973 152.99 128.696 153.195 131.366C153.203 131.539 153.225 131.711 153.259 131.88Z" fill="#455A64"/>
<path opacity="0.5" d="M153.259 131.88C153.259 132.021 153.259 132.162 153.349 132.291C153.349 132.445 153.439 132.612 153.491 132.766C153.538 132.902 153.594 133.035 153.657 133.164L153.901 133.677L154.12 134.037C154.24 134.225 154.368 134.418 154.505 134.615L154.736 134.91L154.954 135.18L155.057 135.295C155.211 135.462 155.378 135.616 155.545 135.783L155.776 136.001C155.93 136.143 156.11 136.284 156.29 136.425L156.585 136.656L156.765 136.81L157.368 137.208C157.574 137.35 157.779 137.491 158.01 137.619L173.534 146.607L230.402 113.775L214.879 104.787C208.317 100.935 197.66 100.935 191.048 104.787L158.126 123.932C154.595 125.973 152.99 128.696 153.195 131.366C153.203 131.539 153.225 131.711 153.259 131.88Z" fill="white"/>
<path d="M158.049 137.735C157.83 137.606 157.625 137.465 157.42 137.324L156.816 136.926L156.636 136.772L156.354 136.554C156.174 136.412 155.994 136.271 155.84 136.13L155.609 135.912C155.441 135.763 155.283 135.604 155.134 135.436L155.031 135.321L154.813 135.051L154.595 134.769C154.449 134.572 154.321 134.379 154.21 134.191C154.132 134.075 154.055 133.96 153.991 133.844L153.747 133.331C153.747 133.202 153.632 133.087 153.58 132.958C153.58 132.804 153.49 132.637 153.439 132.483C153.439 132.355 153.375 132.226 153.349 132.098C153.337 131.931 153.337 131.764 153.349 131.597C153.349 131.43 153.349 131.276 153.349 131.109L153.503 184.216V184.37C153.497 184.481 153.497 184.592 153.503 184.704C153.491 184.883 153.491 185.063 153.503 185.243V185.333C153.503 185.448 153.58 185.551 153.606 185.667C153.632 185.782 153.696 186.013 153.747 186.18V186.283C153.789 186.384 153.836 186.482 153.889 186.578C153.966 186.758 154.043 186.938 154.132 187.105V187.233C154.132 187.323 154.248 187.4 154.299 187.477C154.351 187.554 154.556 187.875 154.697 188.068C154.74 188.125 154.779 188.185 154.813 188.247L155.147 188.633L155.262 188.761C155.451 188.975 155.652 189.176 155.866 189.364L155.969 189.454C156.123 189.596 156.315 189.737 156.482 189.878C156.649 190.019 156.79 190.135 156.957 190.25L157.561 190.661L157.997 190.944L158.203 191.072L173.726 200.06L173.572 146.967L158.049 137.735Z" fill="#37474F"/>
<path opacity="0.3" d="M158.049 137.735C157.83 137.606 157.625 137.465 157.42 137.324L156.816 136.926L156.636 136.772L156.354 136.554C156.174 136.412 155.994 136.271 155.84 136.13L155.609 135.912C155.441 135.763 155.283 135.604 155.134 135.436L155.031 135.321L154.813 135.051L154.595 134.769C154.449 134.572 154.321 134.379 154.21 134.191C154.132 134.075 154.055 133.96 153.991 133.844L153.747 133.331C153.747 133.202 153.632 133.087 153.58 132.958C153.58 132.804 153.49 132.637 153.439 132.483C153.439 132.355 153.375 132.226 153.349 132.098C153.337 131.931 153.337 131.764 153.349 131.597C153.349 131.43 153.349 131.276 153.349 131.109L153.503 184.216V184.37C153.497 184.481 153.497 184.592 153.503 184.704C153.491 184.883 153.491 185.063 153.503 185.243V185.333C153.503 185.448 153.58 185.551 153.606 185.667C153.632 185.782 153.696 186.013 153.747 186.18V186.283C153.789 186.384 153.836 186.482 153.889 186.578C153.966 186.758 154.043 186.938 154.132 187.105V187.233C154.132 187.323 154.248 187.4 154.299 187.477C154.351 187.554 154.556 187.875 154.697 188.068C154.74 188.125 154.779 188.185 154.813 188.247L155.147 188.633L155.262 188.761C155.451 188.975 155.652 189.176 155.866 189.364L155.969 189.454C156.123 189.596 156.315 189.737 156.482 189.878C156.649 190.019 156.79 190.135 156.957 190.25L157.561 190.661L157.997 190.944L158.203 191.072L173.726 200.06L173.572 146.967L158.049 137.735Z" fill="white"/>
<path d="M230.441 113.93L173.572 146.762L173.726 199.855L230.595 167.036L230.441 113.93Z" fill="#263238"/>
<path d="M112.183 353.6L111.837 198.108C111.964 195.7 112.658 193.357 113.863 191.268C115.068 189.179 116.75 187.405 118.77 186.09L312.012 74.7926C312.713 74.2851 313.535 73.9706 314.396 73.8805C315.257 73.7903 316.126 73.9277 316.917 74.279L309.637 70.0675C308.353 69.2585 306.568 69.3227 304.591 70.4783L111.336 181.788C109.317 183.103 107.637 184.875 106.432 186.961C105.227 189.047 104.532 191.388 104.402 193.794L104.749 349.248C104.664 350.072 104.786 350.904 105.105 351.668C105.423 352.433 105.928 353.106 106.572 353.626L106.958 353.844L114.135 358.03C113.454 357.524 112.917 356.849 112.575 356.073C112.233 355.296 112.098 354.444 112.183 353.6Z" fill="#9903FF"/>
<path opacity="0.3" d="M309.676 70.0675C308.392 69.2585 306.607 69.3227 304.629 70.4783L111.336 181.788C109.054 183.231 107.218 185.281 106.033 187.708L113.468 192.009C114.652 189.582 116.488 187.533 118.77 186.09L312.012 74.7926C312.714 74.2851 313.536 73.9706 314.396 73.8805C315.257 73.7903 316.126 73.9277 316.917 74.279L309.676 70.0675Z" fill="white"/>
<path opacity="0.2" d="M104.402 193.794L104.749 349.248C104.664 350.072 104.786 350.904 105.105 351.669C105.423 352.434 105.928 353.107 106.572 353.627L106.958 353.845L114.135 358.031C113.445 357.528 112.899 356.853 112.55 356.074C112.201 355.295 112.061 354.438 112.145 353.588L111.798 198.096C111.85 195.962 112.409 193.871 113.429 191.997L105.995 187.695C104.993 189.576 104.448 191.665 104.402 193.794Z" fill="black"/>
<path d="M319.035 78.7615C319.12 77.9122 318.98 77.0554 318.628 76.2777C318.276 75.5 317.726 74.8287 317.032 74.3317C316.241 73.9804 315.372 73.843 314.511 73.9331C313.65 74.0233 312.828 74.3378 312.127 74.8453L118.77 186.091C116.749 187.407 115.068 189.181 113.863 191.269C112.658 193.358 111.963 195.701 111.836 198.109L112.183 353.602C112.099 354.451 112.239 355.308 112.588 356.087C112.937 356.866 113.483 357.541 114.173 358.044H114.288C115.074 358.37 115.929 358.49 116.774 358.393C117.618 358.297 118.425 357.986 119.116 357.492L312.448 246.272C314.469 244.959 316.15 243.188 317.355 241.101C318.56 239.015 319.254 236.673 319.382 234.267L319.035 78.7615ZM309.007 240.327L119.039 349.724L118.705 198.096C118.83 196.9 119.205 195.742 119.807 194.7C120.409 193.658 121.223 192.755 122.198 192.049L312.23 82.652L312.564 234.28C312.43 235.481 312.044 236.641 311.431 237.683C310.818 238.725 309.992 239.626 309.007 240.327Z" fill="#9903FF"/>
<path d="M312.179 82.6523L307.262 85.4771L307.583 231.853C307.455 233.049 307.078 234.205 306.477 235.247C305.875 236.288 305.062 237.192 304.09 237.901L119.027 344.473V349.711L309.059 240.315C310.035 239.609 310.851 238.705 311.455 237.664C312.059 236.622 312.437 235.464 312.565 234.267L312.179 82.6523Z" fill="#407BFF"/>
<path opacity="0.3" d="M312.179 82.6523L307.262 85.4771L307.583 231.853C307.455 233.049 307.078 234.205 306.477 235.247C305.875 236.288 305.062 237.192 304.09 237.901L119.027 344.473V349.711L309.059 240.315C310.035 239.609 310.851 238.705 311.455 237.664C312.059 236.622 312.437 235.464 312.565 234.267L312.179 82.6523Z" fill="black"/>
<path d="M307.583 231.878L307.262 85.502L122.2 192.074C121.225 192.78 120.411 193.684 119.809 194.726C119.207 195.768 118.832 196.925 118.707 198.122L119.028 344.498L304.091 237.926C305.063 237.217 305.876 236.313 306.477 235.272C307.079 234.23 307.456 233.074 307.583 231.878Z" fill="#455A64"/>
<g opacity="0.5">
<path d="M250.817 240.674L250.83 246.182L194.462 278.719L194.449 273.21L250.817 240.674Z" fill="#FFE040"/>
<path d="M199.869 224.084L203.271 226.023L195.387 239.672L203.31 244.191L199.946 250.021L192.01 245.514L184.14 259.15L180.737 257.224L188.621 243.575L180.686 239.055L184.062 233.213L191.998 237.72L199.869 224.084Z" fill="#FFE040"/>
<path d="M260.935 188.826L264.325 190.765L256.454 204.414L264.376 208.934L260.999 214.776L253.077 210.256L245.206 223.892L241.803 221.966L249.674 208.33L241.752 203.81L245.129 197.955L253.051 202.475L260.935 188.826Z" fill="#FFE040"/>
</g>
<path d="M187.028 101.435L181.532 90.9195V90.7654L183.33 78.8884C183.486 77.882 183.333 76.8518 182.891 75.9344C182.448 75.0171 181.737 74.2561 180.851 73.7524L156.083 59.5771C155.533 59.2604 154.88 59.1751 154.267 59.3401C153.654 59.505 153.132 59.9066 152.815 60.4566C152.499 61.0066 152.413 61.6598 152.578 62.2726C152.743 62.8855 153.145 63.4077 153.695 63.7244L178.476 77.9511L178.592 78.2079L176.807 90.0977C176.647 91.1534 176.827 92.2326 177.32 93.1793L182.816 103.695V103.901L174.932 122.776C174.677 123.39 174.546 124.049 174.547 124.714V128.322C174.539 128.55 174.599 128.774 174.721 128.967C174.842 129.159 175.019 129.311 175.228 129.401C175.755 129.667 176.338 129.806 176.929 129.806C177.52 129.806 178.103 129.667 178.63 129.401C178.826 129.314 178.994 129.177 179.118 129.003C179.243 128.829 179.318 128.625 179.336 128.412V124.56L187.207 105.686C187.489 105.007 187.62 104.275 187.588 103.541C187.557 102.806 187.366 102.088 187.028 101.435Z" fill="#AB30FF"/>
<path d="M193.884 89.353V89.1861L196.94 80.3136C197.232 79.4629 197.29 78.5493 197.107 77.6686L192.69 55.8406C192.564 55.2157 192.195 54.6665 191.664 54.3137C191.133 53.9609 190.484 53.8335 189.859 53.9595C189.234 54.0855 188.685 54.4546 188.332 54.9856C187.979 55.5165 187.852 56.1659 187.978 56.7908L192.408 78.7728L189.352 87.6581C188.971 88.7516 188.971 89.9416 189.352 91.035L192.446 99.4324V99.5865L187.644 115.149C187.502 115.632 187.428 116.134 187.426 116.638V120.028C187.445 120.237 187.52 120.437 187.641 120.609C187.763 120.78 187.928 120.916 188.119 121.004C188.645 121.276 189.228 121.418 189.82 121.418C190.413 121.418 190.996 121.276 191.522 121.004C191.733 120.915 191.912 120.765 192.036 120.572C192.16 120.38 192.222 120.154 192.215 119.925V116.535L197.017 100.973C197.341 99.9181 197.31 98.7857 196.927 97.7504L193.884 89.353Z" fill="#7400C2"/>
<path d="M236.976 68.1543H228.668C227.84 68.1516 227.024 68.3543 226.294 68.7442C225.563 69.1341 224.941 69.699 224.482 70.3885L219.834 77.3349L219.68 77.4376L213.594 78.8757C212.83 79.0565 212.119 79.4129 211.518 79.9167C210.916 80.4204 210.44 81.0576 210.127 81.7776C209.656 82.8833 209.588 84.1192 209.935 85.27L210.615 87.838C210.64 87.8998 210.64 87.9689 210.615 88.0306C210.576 88.0829 210.522 88.123 210.461 88.1462L208.587 88.6084C207.738 88.8193 206.959 89.2475 206.326 89.8509C205.694 90.4543 205.229 91.212 204.978 92.0496L199.188 111.399C199.059 111.876 199.003 112.37 199.021 112.863V115.842C199.035 116.054 199.108 116.259 199.23 116.433C199.352 116.607 199.519 116.745 199.714 116.831C200.242 117.097 200.824 117.236 201.415 117.236C202.006 117.236 202.589 117.097 203.117 116.831C203.337 116.741 203.522 116.582 203.644 116.379C203.767 116.175 203.82 115.937 203.797 115.701V112.786L209.588 93.4363L209.755 93.2694L211.63 92.8071C212.381 92.6121 213.078 92.2466 213.666 91.7389C214.254 91.2313 214.717 90.595 215.019 89.8796C215.464 88.7762 215.527 87.5562 215.199 86.4128L214.506 83.8448C214.493 83.8144 214.486 83.7816 214.486 83.7485C214.486 83.7154 214.493 83.6826 214.506 83.6522C214.518 83.6203 214.539 83.5925 214.566 83.572C214.593 83.5516 214.626 83.5393 214.66 83.5366L220.849 82.1756C222.09 81.8762 223.174 81.1255 223.892 80.0698L228.527 73.1234L228.732 73.0078H237.04C237.369 73.032 237.7 72.9879 238.011 72.8785C238.323 72.7691 238.608 72.5967 238.85 72.3719C239.092 72.1472 239.285 71.8751 239.417 71.5724C239.548 71.2698 239.617 70.9433 239.617 70.6132C239.617 70.2831 239.548 69.9565 239.417 69.6539C239.285 69.3513 239.092 69.0791 238.85 68.8544C238.608 68.6297 238.323 68.4572 238.011 68.3478C237.7 68.2384 237.369 68.1944 237.04 68.2185L236.976 68.1543Z" fill="#AB30FF"/>
<g opacity="0.1">
<path d="M187.028 101.435L181.532 90.9195V90.7654L183.33 78.8884C183.486 77.882 183.333 76.8518 182.891 75.9344C182.448 75.0171 181.737 74.2561 180.851 73.7524L156.083 59.5771C155.533 59.2604 154.88 59.1751 154.267 59.3401C153.654 59.505 153.132 59.9066 152.815 60.4566C152.499 61.0066 152.413 61.6598 152.578 62.2726C152.743 62.8855 153.145 63.4077 153.695 63.7244L178.476 77.9511L178.592 78.2079L176.807 90.0977C176.647 91.1534 176.827 92.2326 177.32 93.1793L182.816 103.695V103.901L174.932 122.776C174.677 123.39 174.546 124.049 174.547 124.714V128.322C174.539 128.55 174.599 128.774 174.721 128.967C174.842 129.159 175.019 129.311 175.228 129.401C175.755 129.667 176.338 129.806 176.929 129.806C177.52 129.806 178.103 129.667 178.63 129.401C178.826 129.314 178.994 129.177 179.118 129.003C179.243 128.829 179.318 128.625 179.336 128.412V124.56L187.207 105.686C187.489 105.007 187.62 104.275 187.588 103.541C187.557 102.806 187.366 102.088 187.028 101.435Z" fill="white"/>
<path d="M193.884 89.353V89.1861L196.94 80.3136C197.232 79.4629 197.29 78.5493 197.107 77.6686L192.69 55.8406C192.564 55.2157 192.195 54.6665 191.664 54.3137C191.133 53.9609 190.484 53.8335 189.859 53.9595C189.234 54.0855 188.685 54.4546 188.332 54.9856C187.979 55.5165 187.852 56.1659 187.978 56.7908L192.408 78.7728L189.352 87.6581C188.971 88.7516 188.971 89.9416 189.352 91.035L192.446 99.4324V99.5865L187.644 115.149C187.502 115.632 187.428 116.134 187.426 116.638V120.028C187.445 120.237 187.52 120.437 187.641 120.609C187.763 120.78 187.928 120.916 188.119 121.004C188.645 121.276 189.228 121.418 189.82 121.418C190.413 121.418 190.996 121.276 191.522 121.004C191.733 120.915 191.912 120.765 192.036 120.572C192.16 120.38 192.222 120.154 192.215 119.925V116.535L197.017 100.973C197.341 99.9181 197.31 98.7857 196.927 97.7504L193.884 89.353Z" fill="white"/>
<path d="M236.976 68.1543H228.668C227.84 68.1516 227.024 68.3543 226.294 68.7442C225.563 69.1341 224.941 69.699 224.482 70.3885L219.834 77.3349L219.68 77.4376L213.594 78.8757C212.83 79.0565 212.119 79.4129 211.518 79.9167C210.916 80.4204 210.44 81.0576 210.127 81.7776C209.656 82.8833 209.588 84.1192 209.935 85.27L210.615 87.838C210.64 87.8998 210.64 87.9689 210.615 88.0306C210.576 88.0829 210.522 88.123 210.461 88.1462L208.587 88.6084C207.738 88.8193 206.959 89.2475 206.326 89.8509C205.694 90.4543 205.229 91.212 204.978 92.0496L199.188 111.399C199.059 111.876 199.003 112.37 199.021 112.863V115.842C199.035 116.054 199.108 116.259 199.23 116.433C199.352 116.607 199.519 116.745 199.714 116.831C200.242 117.097 200.824 117.236 201.415 117.236C202.006 117.236 202.589 117.097 203.117 116.831C203.337 116.741 203.522 116.582 203.644 116.379C203.767 116.175 203.82 115.937 203.797 115.701V112.786L209.588 93.4363L209.755 93.2694L211.63 92.8071C212.381 92.6121 213.078 92.2466 213.666 91.7389C214.254 91.2313 214.717 90.595 215.019 89.8796C215.464 88.7762 215.527 87.5562 215.199 86.4128L214.506 83.8448C214.493 83.8144 214.486 83.7816 214.486 83.7485C214.486 83.7154 214.493 83.6826 214.506 83.6522C214.518 83.6203 214.539 83.5925 214.566 83.572C214.593 83.5516 214.626 83.5393 214.66 83.5366L220.849 82.1756C222.09 81.8762 223.174 81.1255 223.892 80.0698L228.527 73.1234L228.732 73.0078H237.04C237.369 73.032 237.7 72.9879 238.011 72.8785C238.323 72.7691 238.608 72.5967 238.85 72.3719C239.092 72.1472 239.285 71.8751 239.417 71.5724C239.548 71.2698 239.617 70.9433 239.617 70.6132C239.617 70.2831 239.548 69.9565 239.417 69.6539C239.285 69.3513 239.092 69.0791 238.85 68.8544C238.608 68.6297 238.323 68.4572 238.011 68.3478C237.7 68.2384 237.369 68.1944 237.04 68.2185L236.976 68.1543Z" fill="white"/>
</g>
<path d="M112.209 38.4434L126.089 54.3906L135.732 48.7154L147.044 75.6665L133.921 56.5606L123.662 63.4428L112.209 38.4434Z" fill="#9903FF"/>
<path d="M178.129 33.166L171.684 46.0702L178.129 47.0589L172.839 60.1172L183.92 45.0687L175.15 43.5793L178.129 33.166Z" fill="#9903FF"/>
<path d="M234.676 37.5059L232.031 52.8497L226.741 50.8595L223.98 66.4087L228.282 54.4932L234.24 57.0355L234.676 37.5059Z" fill="#9903FF"/>
<path d="M243.164 64.7527L253.808 55.4308V60.0917L261.474 54.7246L251.163 65.8055L251.433 59.2571L243.164 64.7527Z" fill="#9903FF"/>
<path d="M239.377 78.7607L248.686 87.646L250.445 82.6512L260.473 90.4322L249.931 77.207L248.018 83.8196L239.377 78.7607Z" fill="#9903FF"/>
<path d="M165.481 97.7129L151.332 103.003L156.326 106.816L145.387 113.121L163.247 108.293L157.893 103.992L165.481 97.7129Z" fill="#9903FF"/>
<g opacity="0.5">
<path d="M112.209 38.4434L126.089 54.3906L135.732 48.7154L147.044 75.6665L133.921 56.5606L123.662 63.4428L112.209 38.4434Z" fill="white"/>
<path d="M178.129 33.166L171.684 46.0702L178.129 47.0589L172.839 60.1172L183.92 45.0687L175.15 43.5793L178.129 33.166Z" fill="white"/>
<path d="M234.676 37.5059L232.031 52.8497L226.741 50.8595L223.98 66.4087L228.282 54.4932L234.24 57.0355L234.676 37.5059Z" fill="white"/>
<path d="M243.164 64.7527L253.808 55.4308V60.0917L261.474 54.7246L251.163 65.8055L251.433 59.2571L243.164 64.7527Z" fill="white"/>
<path d="M239.377 78.7607L248.686 87.646L250.445 82.6512L260.473 90.4322L249.931 77.207L248.018 83.8196L239.377 78.7607Z" fill="white"/>
<path d="M165.481 97.7129L151.332 103.003L156.326 106.816L145.387 113.121L163.247 108.293L157.893 103.992L165.481 97.7129Z" fill="white"/>
</g>
<path d="M365.156 452.66L286.922 463.125L297.707 489.819L375.954 479.342L365.156 452.66Z" fill="#B655F7"/>
<path opacity="0.2" d="M365.156 452.66L334.802 475.798L286.922 463.125L365.156 452.66Z" fill="white"/>
<path opacity="0.1" d="M365.156 452.66L375.954 479.342L297.707 489.819L286.922 463.125L334.802 475.798L365.156 452.66Z" fill="white"/>
<path d="M401.738 359.84L384.096 385.225L458.658 402.725L476.313 377.341L401.738 359.84Z" fill="#B655F7"/>
<path opacity="0.3" d="M476.311 377.341L428.431 386.136L401.736 359.84L476.311 377.341Z" fill="white"/>
<path opacity="0.1" d="M476.313 377.341L458.658 402.725L384.096 385.225L401.738 359.84L428.432 386.136L476.313 377.341Z" fill="white"/>
<path d="M232.557 404.332L214.902 429.717L289.464 447.218L307.119 421.833L232.557 404.332Z" fill="#B655F7"/>
<path opacity="0.3" d="M307.119 421.833L259.238 430.628L232.557 404.332L307.119 421.833Z" fill="white"/>
<path opacity="0.1" d="M307.119 421.833L289.464 447.218L214.902 429.717L232.557 404.332L259.239 430.628L307.119 421.833Z" fill="white"/>
<path d="M509.798 392.646L444.609 419.752L472.28 442.016L537.455 414.911L509.798 392.646Z" fill="#B655F7"/>
<path opacity="0.5" d="M509.798 392.646L497.176 420.792L444.609 419.752L509.798 392.646Z" fill="white"/>
<path opacity="0.3" d="M509.798 392.646L537.455 414.911L472.28 442.016L444.609 419.752L497.176 420.792L509.798 392.646Z" fill="white"/>
<path d="M384.929 404.332L358.518 427.007L425.183 453.124L451.582 430.461L384.929 404.332Z" fill="#B655F7"/>
<path opacity="0.2" d="M451.582 430.461L401.583 433.261L384.93 404.332L451.582 430.461Z" fill="white"/>
<path opacity="0.1" d="M451.582 430.461L425.183 453.124L358.518 427.007L384.929 404.332L401.583 433.261L451.582 430.461Z" fill="white"/>
<path d="M444.031 517.17L397.653 511.738L381.963 557.359L428.341 562.803L444.031 517.17Z" fill="#B655F7"/>
<path opacity="0.5" d="M397.653 511.738L421.561 537.393L381.963 557.359L397.653 511.738Z" fill="white"/>
<path opacity="0.3" d="M428.341 562.803L381.963 557.359L421.561 537.393L397.653 511.738L444.031 517.17L428.341 562.803Z" fill="white"/>
<path d="M363.051 543.479L294.408 567.554L318.997 591.012L387.639 566.937L363.051 543.479Z" fill="#B655F7"/>
<path opacity="0.5" d="M363.051 543.479L346.68 570.982L294.408 567.554L363.051 543.479Z" fill="white"/>
<path opacity="0.3" d="M363.051 543.479L387.639 566.937L318.997 591.012L294.408 567.554L346.68 570.982L363.051 543.479Z" fill="white"/>
<path d="M424.836 314.965L367.826 347.887L401.159 367.249L458.168 334.34L424.836 314.965Z" fill="#B655F7"/>
<path opacity="0.5" d="M367.826 347.887L417.877 345.177L424.836 314.965L367.826 347.887Z" fill="white"/>
<path opacity="0.3" d="M367.826 347.887L401.159 367.249L458.168 334.34L424.836 314.965L417.877 345.177L367.826 347.887Z" fill="white"/>
<path d="M349.581 403.74L289.875 431.462L321.359 453.713L381.065 425.992L349.581 403.74Z" fill="#B655F7"/>
<path opacity="0.6" d="M289.875 431.462L339.977 433.208L349.581 403.74L289.875 431.462Z" fill="white"/>
<path opacity="0.4" d="M289.875 431.462L321.359 453.713L381.065 425.992L349.581 403.74L339.977 433.208L289.875 431.462Z" fill="white"/>
<path d="M455.729 390.002L375.453 392.146L377.79 419.508L458.066 417.364L455.729 390.002Z" fill="#B655F7"/>
<path opacity="0.5" d="M455.729 390.002L418.66 409.596L375.453 392.146L455.729 390.002Z" fill="white"/>
<path opacity="0.3" d="M455.729 390.002L458.066 417.364L377.79 419.508L375.453 392.146L418.66 409.596L455.729 390.002Z" fill="white"/>
<path d="M333.672 383.697L253.396 385.842L255.733 413.204L335.996 411.059L333.672 383.697Z" fill="#B655F7"/>
<path opacity="0.5" d="M333.672 383.697L296.603 403.291L253.396 385.842L333.672 383.697Z" fill="white"/>
<path opacity="0.3" d="M333.672 383.697L335.996 411.059L255.733 413.204L253.396 385.842L296.603 403.291L333.672 383.697Z" fill="white"/>
<path d="M368.431 509.259L327.42 495.623L287.449 535.928L328.537 549.641L368.431 509.259Z" fill="#B655F7"/>
<path opacity="0.2" d="M327.406 495.559L335.996 524.269L287.436 535.863L327.406 495.559Z" fill="white"/>
<path opacity="0.1" d="M328.459 549.564L287.436 535.863L335.996 524.269L327.406 495.559L368.43 509.259L328.459 549.564Z" fill="white"/>
<path d="M345.767 355.104L323.336 399.761L368.764 407.491L391.17 362.82L345.767 355.104Z" fill="#B655F7"/>
<path opacity="0.5" d="M345.767 355.104L365.772 381.849L323.336 399.761L345.767 355.104Z" fill="white"/>
<path opacity="0.3" d="M368.764 407.491L323.336 399.761L365.772 381.849L345.767 355.104L391.17 362.82L368.764 407.491Z" fill="white"/>
<path d="M410.34 439.436L370.01 453.675L411.997 493.453L452.314 479.214L410.34 439.436Z" fill="#B655F7"/>
<path opacity="0.5" d="M410.339 439.436L452.313 479.214L404.754 469.725L410.339 439.436Z" fill="white"/>
<path opacity="0.3" d="M410.34 439.436L404.755 469.725L452.314 479.214L411.997 493.453L370.01 453.675L410.34 439.436Z" fill="white"/>
<path d="M383.98 471.229L326.971 504.15L360.303 523.526L417.313 490.604L383.98 471.229Z" fill="#B655F7"/>
<path opacity="0.6" d="M326.971 504.15L377.021 501.441L383.98 471.229L326.971 504.15Z" fill="white"/>
<path opacity="0.4" d="M326.971 504.15L360.303 523.526L417.313 490.604L383.98 471.229L377.021 501.441L326.971 504.15Z" fill="white"/>
<path d="M253.731 491.193L212.643 504.675L252.421 545.198L293.522 531.716L253.731 491.193Z" fill="#B655F7"/>
<path opacity="0.5" d="M259.676 515.038L252.421 545.199L212.643 504.676L259.676 515.038Z" fill="white"/>
<path opacity="0.3" d="M253.731 491.193L293.522 531.716L252.421 545.198L212.643 504.675L252.421 545.198L259.676 515.037L212.643 504.675L253.731 491.193Z" fill="white"/>
<path d="M294.357 470.766L247.838 475.619L262.296 521.432L308.815 516.592L294.357 470.766Z" fill="#B655F7"/>
<path opacity="0.6" d="M294.356 470.766L308.814 516.592L270.307 497.807L294.356 470.766Z" fill="white"/>
<path opacity="0.4" d="M294.357 470.766L270.308 497.807L308.815 516.592L262.296 521.432L247.838 475.619L294.357 470.766Z" fill="white"/>
<path d="M245.128 517.388L204.091 503.688L212.681 532.398L204.091 503.688L164.133 543.992L205.157 557.705L245.128 517.388Z" fill="#B655F7"/>
<path opacity="0.6" d="M204.091 503.688L212.681 532.398L164.133 543.992L204.091 503.688Z" fill="white"/>
<path opacity="0.4" d="M205.157 557.705L164.133 543.992L212.681 532.398L204.091 503.688L245.128 517.388L205.157 557.705Z" fill="white"/>
<path d="M157.893 438.203L124.561 457.566L181.583 490.488L214.903 471.112L157.893 438.203Z" fill="#B655F7"/>
<path opacity="0.2" d="M214.902 471.112L164.852 468.403L157.893 438.203L214.902 471.112Z" fill="white"/>
<path opacity="0.1" d="M214.903 471.112L181.583 490.488L124.561 457.566L157.893 438.203L164.852 468.403L214.903 471.112Z" fill="white"/>
<path d="M161.835 462.701L116.021 469.404L135.962 514.536L181.775 507.834L161.835 462.701Z" fill="#B655F7"/>
<path opacity="0.5" d="M161.834 462.701L181.775 507.834L141.098 490.654L161.834 462.701Z" fill="white"/>
<path opacity="0.3" d="M161.835 462.701L141.098 490.654L181.775 507.834L135.962 514.536L116.021 469.404L161.835 462.701Z" fill="white"/>
<path d="M290.863 441.746L210.857 445.97L215.3 473.255L295.306 469.031L290.863 441.746Z" fill="#B655F7"/>
<path opacity="0.6" d="M290.863 441.746L255.348 462.29L210.857 445.97L290.863 441.746Z" fill="white"/>
<path opacity="0.3" d="M290.863 441.746L295.306 469.031L215.3 473.255L210.857 445.97L255.348 462.29L290.863 441.746Z" fill="white"/>
<path opacity="0.1" d="M287.064 364.168L275.264 370.986L252.986 383.839L310.997 406.553L337.396 383.877L287.064 364.168Z" fill="black"/>
<path d="M291.057 361.895L279.244 368.7L256.967 381.553L310.998 402.726L337.397 380.05L291.057 361.895Z" fill="#B655F7"/>
<path opacity="0.6" d="M287.398 382.849L337.396 380.05L291.057 361.895L279.244 368.7L287.398 382.849Z" fill="white"/>
<path opacity="0.4" d="M337.397 380.052L287.398 382.851L279.244 368.701L256.967 381.554L310.998 402.727L337.397 380.052Z" fill="white"/>
<path d="M534.465 282.839L536.173 253.91C536.412 249.969 535.671 246.029 534.015 242.444C532.359 238.859 529.84 235.74 526.684 233.366L516.297 225.547L517.812 287.615L534.465 282.839Z" fill="#F4CE09"/>
<path opacity="0.1" d="M534.465 282.839L536.173 253.91C536.412 249.969 535.671 246.029 534.015 242.444C532.359 238.859 529.84 235.74 526.684 233.366L516.297 225.547L517.812 287.615L534.465 282.839Z" fill="black"/>
<path opacity="0.1" d="M518.312 251.188C523.305 252.893 528.473 254.03 533.721 254.577C532.506 255.502 531.115 256.169 529.633 256.535C528.152 256.902 526.61 256.961 525.105 256.709C523.653 256.308 522.299 255.61 521.13 254.66C519.961 253.709 519.002 252.527 518.312 251.188Z" fill="black"/>
<path d="M499.091 506.448C498.243 509.106 495.316 510.634 492.53 510.852C489.736 510.852 486.953 510.499 484.248 509.799C478.085 508.682 472.14 509.799 466.002 509.645C463.985 509.659 461.973 509.44 460.006 508.99C458.022 508.534 456.229 507.475 454.87 505.96C454.104 505.038 453.595 503.931 453.393 502.75C453.273 503.644 453.342 504.553 453.597 505.418C453.851 506.283 454.285 507.084 454.87 507.77C456.233 509.278 458.026 510.331 460.006 510.788C461.973 511.237 463.985 511.457 466.002 511.443C472.14 511.584 478.085 510.48 484.248 511.597C486.951 512.307 489.735 512.665 492.53 512.662C495.316 512.431 498.243 510.916 499.091 508.246C499.356 507.324 499.43 506.359 499.309 505.408C499.261 505.759 499.188 506.107 499.091 506.448Z" fill="#263238"/>
<path d="M498.937 501.337L497.794 495.738C497.655 494.742 497.333 493.78 496.844 492.901C496.599 492.458 496.238 492.09 495.798 491.839C495.359 491.588 494.859 491.462 494.353 491.475C490.989 491.026 486.238 489.806 483.439 491.732C479.007 494.766 473.72 496.3 468.352 496.111C465.566 496.008 462.779 495.43 460.006 495.777C457.233 496.123 454.369 497.651 453.586 500.322C453.36 501.111 453.311 501.939 453.445 502.749C453.646 503.93 454.156 505.037 454.921 505.959C456.28 507.474 458.074 508.533 460.057 508.989C462.024 509.438 464.036 509.658 466.054 509.644C472.191 509.785 478.136 508.681 484.299 509.798C487.004 510.498 489.787 510.851 492.581 510.851C495.367 510.633 498.295 509.105 499.142 506.447C499.24 506.106 499.312 505.758 499.361 505.407C499.431 504.036 499.288 502.663 498.937 501.337Z" fill="#37474F"/>
<path d="M482.618 485.865L482.387 493.158C482.358 493.904 482.621 494.632 483.119 495.188C483.618 495.744 484.313 496.084 485.058 496.137C487.502 496.33 489.958 496.33 492.402 496.137C493.384 496.045 494.301 495.607 494.99 494.902C495.679 494.196 496.095 493.269 496.164 492.285L496.459 486.892L482.618 485.865Z" fill="#FFA8A7"/>
<path d="M530.292 481.987C530.257 483.065 529.919 484.111 529.316 485.004C528.446 486.051 527.221 486.741 525.875 486.943C524.265 487.217 522.611 487.032 521.101 486.41C519.591 485.788 518.286 484.753 517.336 483.425C516.412 482.141 515.885 480.536 515.025 479.175C513.71 477.357 512.089 475.78 510.236 474.514C508.381 473.253 506.749 471.69 505.408 469.892C504.777 469.011 504.366 467.992 504.207 466.92C504.048 465.849 504.148 464.754 504.496 463.729C504.315 463.973 504.16 464.235 504.034 464.512C503.629 465.593 503.497 466.757 503.649 467.902C503.802 469.046 504.234 470.135 504.907 471.073C506.27 472.923 507.932 474.533 509.825 475.837C511.723 477.14 513.378 478.765 514.717 480.639C515.603 482.038 516.129 483.643 517.067 485.017C518.026 486.384 519.353 487.449 520.894 488.091C522.435 488.732 524.127 488.921 525.772 488.638C527.151 488.435 528.406 487.725 529.29 486.648C530.078 485.397 530.434 483.922 530.305 482.449C530.292 482.295 530.292 482.141 530.292 481.987Z" fill="#263238"/>
<path d="M528.006 472.844C525.798 468.992 521.227 466.129 517.734 463.381C515.807 461.704 513.434 460.625 510.904 460.274C509.631 460.112 508.34 460.335 507.196 460.914C506.051 461.493 505.107 462.402 504.484 463.522C504.484 463.587 504.484 463.664 504.419 463.728C504.071 464.754 503.971 465.848 504.13 466.92C504.289 467.991 504.7 469.01 505.331 469.891C506.672 471.69 508.304 473.252 510.159 474.513C512.012 475.779 513.633 477.356 514.948 479.174C515.808 480.535 516.335 482.102 517.259 483.424C518.209 484.753 519.514 485.787 521.024 486.409C522.534 487.031 524.188 487.216 525.798 486.943C527.144 486.74 528.369 486.05 529.239 485.004C529.842 484.11 530.18 483.064 530.215 481.986C530.215 481.64 530.215 481.293 530.215 480.933C530.17 478.094 529.411 475.312 528.006 472.844Z" fill="#37474F"/>
<path d="M518.402 469.469V476.094C520.024 476.853 521.805 477.208 523.593 477.13C525.382 477.051 527.125 476.542 528.674 475.645L529.291 469.674L518.402 469.469Z" fill="#FFA8A7"/>
<path d="M531.075 349.248C533.052 355.219 530.613 383.531 529.457 410.7C533.758 420.972 533.887 450.389 531.396 471.048C531.396 471.048 522.973 473.616 515.192 470.933L508.258 413.641L506.897 381.348C506.897 381.348 504.445 409.994 501.633 428.381C504.278 442.505 504.56 445.42 498.025 488.729C498.025 488.729 487.419 491.926 479.471 488.023C475.773 427.187 480.074 372.129 480.755 352.188L531.075 349.248Z" fill="#455A64"/>
<path opacity="0.3" d="M507.719 401.069L506.615 374.721C513.42 374.721 519.751 369.585 524.591 364.809C519.969 373.026 511.032 376.673 511.032 376.673L507.719 401.069Z" fill="black"/>
<path d="M479.948 296.257L479.742 353.857C510.109 366.581 529.818 355.141 532.476 349.106C531.077 328.113 536.033 303.55 535.648 293.111C535.262 282.672 533.991 270.91 517.813 273.273L500.607 274.955L491.876 277.074L479.948 296.257Z" fill="#F4CE09"/>
<path d="M517.812 265.03C519.041 265.109 520.25 264.698 521.176 263.887C521.525 263.501 521.778 263.038 521.917 262.537C522.055 262.035 522.074 261.508 521.972 260.998C522.482 260.901 522.96 260.678 523.364 260.351C523.767 260.024 524.083 259.602 524.284 259.123C524.441 258.593 524.474 258.033 524.381 257.488C524.287 256.942 524.069 256.425 523.744 255.978C524.481 255.787 525.167 255.439 525.757 254.958C526.346 254.477 526.825 253.874 527.16 253.191C527.504 252.489 527.696 251.723 527.722 250.941C527.749 250.16 527.61 249.382 527.314 248.659C528.125 248.443 528.868 248.023 529.47 247.439C530.073 246.854 530.515 246.125 530.755 245.32C531.007 244.485 531.05 243.601 530.88 242.746C530.71 241.891 530.332 241.09 529.779 240.415C530.476 239.48 530.914 238.378 531.049 237.219C531.185 236.06 531.012 234.886 530.549 233.816C530.018 232.74 529.217 231.82 528.225 231.145C527.233 230.47 526.083 230.063 524.887 229.964C525.055 228.842 524.94 227.697 524.552 226.632C524.164 225.566 523.516 224.615 522.666 223.865C521.813 223.146 520.792 222.657 519.697 222.443C518.603 222.23 517.473 222.299 516.413 222.645C516.024 221.708 515.404 220.884 514.612 220.251C513.819 219.618 512.879 219.196 511.879 219.024C510.879 218.852 509.852 218.937 508.894 219.269C507.935 219.601 507.076 220.171 506.397 220.924C505.896 220.361 505.263 219.93 504.556 219.668C503.848 219.406 503.088 219.321 502.34 219.422C501.58 219.502 500.85 219.765 500.213 220.187C499.576 220.61 499.05 221.18 498.681 221.849C497.722 221.412 496.667 221.229 495.617 221.317C494.568 221.405 493.558 221.762 492.685 222.352C491.813 222.942 491.107 223.747 490.634 224.688C490.162 225.63 489.939 226.677 489.988 227.73C489.225 227.961 488.56 228.437 488.096 229.085C487.632 229.733 487.394 230.515 487.42 231.312C487.485 232.132 487.81 232.909 488.348 233.53C488.887 234.152 489.61 234.585 490.412 234.766C491.934 242.996 494.651 250.96 498.475 258.404C500.183 261.73 502.327 265.094 505.589 266.814C509.132 268.715 514.743 267.649 517.812 265.03Z" fill="#455A64"/>
<path d="M489.152 245.59L485.596 251.792L489.499 253.23L489.152 245.59Z" fill="#F28F8F"/>
<path d="M490.386 234.805C488.022 243.383 487.67 252.391 489.359 261.127C489.545 262.634 490.111 264.07 491.002 265.3C492.179 266.557 493.802 267.304 495.522 267.38C497.248 267.446 498.976 267.282 500.658 266.892V274.955C506.77 276.393 513.062 276.958 517.864 273.273V265.03C514.412 266.132 510.741 266.357 507.181 265.685C502.957 263.412 502.109 255.695 502.7 253.654C503.076 254.149 503.589 254.522 504.176 254.727C504.763 254.933 505.397 254.961 506 254.809C506.582 254.656 507.127 254.384 507.6 254.011C508.073 253.638 508.463 253.171 508.747 252.639C509.312 251.575 509.661 250.41 509.775 249.211C510.072 247.765 509.849 246.259 509.145 244.961C508.605 244.238 507.858 243.696 507.002 243.407C506.147 243.118 505.224 243.096 504.356 243.343C502.62 243.887 501.17 245.096 500.324 246.707C500.053 247.203 499.817 247.718 499.618 248.248C499.549 248.457 499.409 248.634 499.223 248.751C499.038 248.869 498.817 248.918 498.599 248.89C498.381 248.863 498.179 248.761 498.028 248.602C497.877 248.443 497.785 248.236 497.769 248.017C497.548 245.702 497.965 243.371 498.976 241.276C498.279 241.203 497.607 240.975 497.009 240.608C496.411 240.242 495.903 239.746 495.522 239.157C495.125 238.609 494.858 237.976 494.742 237.309C494.626 236.641 494.665 235.956 494.854 235.305C493.347 235.405 491.834 235.235 490.386 234.805Z" fill="#FFA8A7"/>
<path d="M495.264 246.323C498.071 246.411 500.866 245.903 503.462 244.832C506.058 243.761 508.398 242.15 510.326 240.108C510.6 239.822 510.773 239.454 510.82 239.06C510.866 238.666 510.783 238.268 510.582 237.925C510.455 237.714 510.285 237.532 510.084 237.39C509.882 237.248 509.653 237.15 509.412 237.102C509.17 237.053 508.921 237.056 508.68 237.109C508.44 237.163 508.213 237.266 508.014 237.412C506.367 238.7 504.41 239.533 502.339 239.826C502.48 236.834 506.628 231.005 508.759 228.899C509.435 228.403 509.931 227.699 510.171 226.896C510.205 226.631 510.174 226.363 510.083 226.113C509.991 225.863 509.841 225.638 509.645 225.458C509.46 225.272 509.232 225.135 508.981 225.059C508.73 224.983 508.464 224.97 508.207 225.021C508.458 224.919 508.671 224.739 508.814 224.509C508.957 224.278 509.023 224.008 509.003 223.737C508.954 223.459 508.832 223.2 508.649 222.985C508.466 222.771 508.229 222.609 507.963 222.517C507.706 222.406 507.428 222.349 507.148 222.349C506.867 222.349 506.59 222.406 506.332 222.517C506.292 222.281 506.186 222.061 506.028 221.882C505.869 221.703 505.663 221.571 505.434 221.503C504.975 221.349 504.479 221.349 504.021 221.503C503.551 221.665 503.099 221.876 502.673 222.132C502.415 221.767 502.04 221.502 501.61 221.38C501.18 221.259 500.721 221.288 500.31 221.464C494.905 224.212 488.421 233.02 488.369 239.081C488.435 240.922 489.172 242.675 490.443 244.01C491.713 245.344 493.428 246.167 495.264 246.323Z" fill="#FFA8A7"/>
<path d="M508.143 224.918C505.108 226.382 502.672 228.849 501.248 231.903C501.749 227.268 506.307 225.123 508.143 224.918Z" fill="#F28F8F"/>
<path d="M506.268 222.375C501.697 224.545 499.681 226.818 498.436 228.795C499.098 227.154 500.163 225.706 501.531 224.584C502.9 223.462 504.529 222.703 506.268 222.375Z" fill="#F28F8F"/>
<path d="M502.609 222.041C499.99 223.148 497.741 224.979 496.125 227.318C496.626 225.934 497.494 224.712 498.637 223.782C499.779 222.853 501.152 222.251 502.609 222.041Z" fill="#F28F8F"/>
<path d="M504.343 243.291C501.359 244.723 498.012 245.224 494.739 244.729C494.255 242.858 493.195 241.187 491.709 239.953C490.728 239.14 489.586 238.544 488.357 238.206C488.357 238.463 488.357 238.733 488.357 238.99C488.403 240.857 489.14 242.64 490.426 243.995C491.712 245.35 493.454 246.179 495.317 246.321C498.115 246.402 500.9 245.891 503.487 244.82C506.073 243.749 508.405 242.142 510.327 240.107C510.59 239.833 510.76 239.483 510.811 239.106C510.861 238.73 510.791 238.347 510.609 238.014C508.994 240.269 506.84 242.083 504.343 243.291Z" fill="#F28F8F"/>
<path opacity="0.2" d="M496.524 294.035C491.388 294.125 486.252 294.382 481.026 294.574L479.947 296.321V307.106C483.522 306.332 486.874 304.752 489.746 302.487C492.619 300.222 494.937 297.331 496.524 294.035Z" fill="black"/>
<path d="M497.024 275.816L462.716 266.096L492.928 251.664C497.319 243.626 489.269 236.782 482.438 237.771L447.5 255.028C444.935 256.206 442.762 258.095 441.24 260.471C439.717 262.847 438.908 265.611 438.91 268.433C438.909 271.291 439.739 274.088 441.298 276.484C442.857 278.88 445.079 280.771 447.693 281.928L487.497 299.57C499.476 303.589 507.848 278.885 497.024 275.816Z" fill="#F4CE09"/>
<path opacity="0.2" d="M462.715 266.095L452.918 263.309C457.986 262.278 463.183 262.031 468.326 262.577L469.764 262.731L462.715 266.095Z" fill="black"/>
<path d="M351.406 112.991L434.135 160.73C435.581 161.56 436.775 162.767 437.589 164.223C438.366 165.607 438.777 167.167 438.783 168.755V219.563C438.783 225.778 433.505 229.989 426.559 225.983L419.959 222.221L418.611 221.451L418.316 221.284L374.095 195.604L343.831 178.308C342.416 177.499 341.241 176.331 340.422 174.922C339.604 173.513 339.172 171.913 339.17 170.283V119.411C339.17 112.786 347.259 110.616 351.406 112.991Z" fill="#C4C4C4"/>
<path opacity="0.4" d="M430.141 168.395C429.543 167.2 428.698 166.146 427.663 165.301C427.312 165.015 426.938 164.757 426.546 164.53L343.792 116.843C343.324 116.572 342.792 116.43 342.251 116.43C341.71 116.43 341.178 116.572 340.71 116.843C340.241 117.114 339.852 117.503 339.582 117.972C339.312 118.441 339.17 118.972 339.17 119.513C339.17 112.837 347.259 110.667 351.406 113.093L434.135 160.833C435.581 161.662 436.775 162.87 437.589 164.325L430.141 168.395Z" fill="white"/>
<path opacity="0.2" d="M431.168 223.326V172.557C431.169 172.187 431.143 171.818 431.091 171.452C430.939 170.388 430.614 169.356 430.128 168.396L437.588 164.236C438.366 165.621 438.777 167.181 438.782 168.769V219.564C438.782 225.778 433.505 229.99 426.559 225.984C427.026 226.251 427.555 226.391 428.093 226.389C428.631 226.388 429.16 226.246 429.626 225.977C430.092 225.709 430.48 225.322 430.75 224.857C431.021 224.392 431.165 223.864 431.168 223.326Z" fill="white"/>
<path d="M419.958 222.233L418.609 221.463L419.958 222.233Z" fill="#C4C4C4"/>
<path d="M333.045 147.326L339.17 143.77V145.567L333.045 147.326Z" fill="#C4C4C4"/>
<path opacity="0.4" d="M333.045 147.326L339.17 143.77V145.567L333.045 147.326Z" fill="white"/>
<path d="M340.261 145.258L333.391 147.171C333.13 147.241 332.892 147.38 332.704 147.574C332.515 147.768 332.382 148.009 332.319 148.272C332.256 148.535 332.265 148.81 332.345 149.068C332.425 149.326 332.574 149.558 332.775 149.739L339.914 156.352L340.261 145.258Z" fill="#C4C4C4"/>
<path d="M142.29 200.601L142.5 218.13L139.036 220.104L132.452 212.148L132.591 223.778L129.127 225.753L128.917 208.225L132.381 206.25L138.965 214.206L138.826 202.576L142.29 200.601Z" fill="#FFE040"/>
<path d="M158.756 199.652L158.766 200.434C158.782 201.768 158.626 203.064 158.299 204.321C157.98 205.563 157.516 206.736 156.906 207.841C156.297 208.936 155.567 209.928 154.718 210.816C153.868 211.694 152.925 212.429 151.888 213.02C150.851 213.611 149.903 213.954 149.045 214.05C148.186 214.136 147.438 213.986 146.802 213.602C146.165 213.207 145.671 212.58 145.318 211.721C144.966 210.851 144.782 209.749 144.766 208.415L144.756 207.633C144.74 206.299 144.896 205.008 145.223 203.761C145.55 202.504 146.019 201.323 146.628 200.218C147.238 199.113 147.968 198.122 148.817 197.244C149.666 196.356 150.609 195.616 151.646 195.025C152.684 194.434 153.631 194.095 154.49 194.01C155.349 193.914 156.092 194.066 156.72 194.466C157.357 194.86 157.851 195.492 158.204 196.362C158.556 197.221 158.74 198.318 158.756 199.652ZM155.302 202.409L155.292 201.597C155.281 200.724 155.189 199.999 155.016 199.421C154.851 198.829 154.613 198.388 154.302 198.101C154.001 197.808 153.626 197.668 153.179 197.681C152.74 197.679 152.242 197.837 151.684 198.154C151.126 198.472 150.627 198.883 150.185 199.388C149.752 199.877 149.386 200.439 149.087 201.074C148.796 201.705 148.576 202.405 148.427 203.177C148.279 203.938 148.209 204.755 148.22 205.628L148.23 206.441C148.24 207.313 148.328 208.046 148.493 208.639C148.658 209.221 148.896 209.661 149.206 209.959C149.526 210.251 149.905 210.399 150.343 210.401C150.791 210.389 151.293 210.223 151.851 209.905C152.409 209.587 152.904 209.184 153.337 208.695C153.77 208.196 154.131 207.626 154.422 206.986C154.721 206.34 154.945 205.637 155.094 204.875C155.243 204.104 155.312 203.282 155.302 202.409Z" fill="#FFE040"/>
<path d="M167.676 186.13L173.859 182.605C174.791 182.073 175.634 181.709 176.386 181.513C177.147 181.301 177.791 181.272 178.319 181.425C178.856 181.564 179.268 181.884 179.555 182.387C179.842 182.88 179.99 183.558 180 184.421C180.012 185.404 179.874 186.321 179.586 187.172C179.298 188.023 178.891 188.821 178.364 189.565C177.838 190.299 177.219 191.011 176.508 191.699L175.392 193.077L170.046 196.125L169.982 192.995L173.995 190.707C174.562 190.384 175.035 190.013 175.416 189.594C175.798 189.175 176.082 188.725 176.269 188.245C176.456 187.764 176.547 187.273 176.541 186.772C176.535 186.25 176.429 185.861 176.224 185.604C176.028 185.332 175.732 185.208 175.338 185.231C174.952 185.249 174.472 185.422 173.896 185.75L171.19 187.292L171.363 201.676L167.886 203.658L167.676 186.13ZM177.023 198.449L173.218 192.817L176.877 190.7L180.746 196.145L180.748 196.325L177.023 198.449Z" fill="#FFE040"/>
<path d="M193.744 185.766L193.781 188.896L185.049 193.874L185.012 190.744L193.744 185.766ZM186.003 175.682L186.213 193.211L182.748 195.185L182.539 177.657L186.003 175.682ZM192.53 178.914L192.567 182.044L184.959 186.381L184.922 183.251L192.53 178.914ZM193.571 171.368L193.609 174.512L184.877 179.49L184.839 176.345L193.571 171.368Z" fill="#FFE040"/>
<path d="M198.944 168.305L199.154 185.833L195.69 187.808L195.48 170.28L198.944 168.305ZM205.542 171.936L205.579 175.066L198.102 179.328L198.065 176.199L205.542 171.936ZM206.225 164.154L206.263 167.299L198.014 172.001L197.977 168.856L206.225 164.154Z" fill="#FFE040"/>
<path d="M208.094 163.088L214.277 159.564C215.21 159.032 216.052 158.668 216.805 158.472C217.565 158.26 218.21 158.231 218.738 158.384C219.275 158.523 219.687 158.843 219.974 159.346C220.26 159.839 220.409 160.517 220.419 161.38C220.431 162.363 220.293 163.28 220.005 164.131C219.716 164.982 219.309 165.779 218.783 166.524C218.257 167.258 217.638 167.969 216.926 168.658L215.811 170.036L210.465 173.084L210.401 169.954L214.414 167.666C214.98 167.343 215.454 166.972 215.835 166.553C216.216 166.134 216.5 165.684 216.688 165.203C216.875 164.723 216.966 164.232 216.96 163.731C216.953 163.209 216.848 162.82 216.643 162.563C216.447 162.291 216.151 162.167 215.757 162.19C215.371 162.207 214.89 162.38 214.315 162.708L211.609 164.251L211.781 178.635L208.304 180.617L208.094 163.088ZM217.442 175.408L213.636 169.776L217.296 167.659L221.165 173.104L221.167 173.284L217.442 175.408Z" fill="#FFE040"/>
<path d="M234.162 162.725L234.2 165.855L225.468 170.833L225.43 167.703L234.162 162.725ZM226.421 152.641L226.631 170.169L223.167 172.144L222.957 154.616L226.421 152.641ZM232.949 155.873L232.986 159.003L225.378 163.34L225.341 160.21L232.949 155.873ZM233.99 148.326L234.028 151.471L225.296 156.449L225.258 153.304L233.99 148.326Z" fill="#FFE040"/>
<path d="M244.589 155.266C244.585 154.956 244.53 154.704 244.422 154.513C244.323 154.317 244.159 154.183 243.93 154.112C243.701 154.041 243.385 154.029 242.982 154.077C242.588 154.12 242.094 154.23 241.499 154.407C240.563 154.678 239.745 154.857 239.044 154.943C238.343 155.03 237.755 154.996 237.279 154.843C236.813 154.685 236.458 154.388 236.216 153.95C235.982 153.497 235.861 152.885 235.852 152.113C235.843 151.37 235.974 150.614 236.246 149.843C236.526 149.057 236.92 148.292 237.429 147.547C237.946 146.798 238.557 146.102 239.26 145.459C239.971 144.8 240.75 144.23 241.595 143.749C242.824 143.048 243.903 142.66 244.832 142.585C245.77 142.505 246.501 142.724 247.025 143.244C247.548 143.753 247.817 144.559 247.83 145.663L244.366 147.638C244.361 147.176 244.251 146.819 244.037 146.568C243.832 146.301 243.528 146.166 243.124 146.164C242.721 146.162 242.223 146.33 241.63 146.667C241.064 146.99 240.594 147.359 240.222 147.773C239.858 148.172 239.587 148.58 239.407 148.995C239.237 149.395 239.153 149.766 239.157 150.107C239.161 150.388 239.216 150.614 239.323 150.785C239.439 150.941 239.616 151.047 239.854 151.104C240.1 151.145 240.42 151.139 240.814 151.086C241.208 151.023 241.685 150.918 242.245 150.77C243.172 150.485 243.986 150.308 244.687 150.242C245.397 150.161 245.985 150.214 246.452 150.402C246.928 150.585 247.288 150.911 247.53 151.378C247.773 151.846 247.899 152.476 247.908 153.268C247.917 154.051 247.786 154.832 247.515 155.613C247.243 156.384 246.844 157.137 246.318 157.871C245.8 158.59 245.177 159.274 244.447 159.922C243.727 160.555 242.917 161.127 242.02 161.639C241.218 162.096 240.428 162.435 239.65 162.657C238.872 162.878 238.166 162.937 237.533 162.834C236.9 162.72 236.392 162.409 236.008 161.9C235.625 161.392 235.427 160.636 235.415 159.633L238.892 157.65C238.898 158.152 238.973 158.544 239.117 158.825C239.27 159.102 239.482 159.278 239.755 159.355C240.037 159.417 240.378 159.389 240.781 159.27C241.183 159.142 241.637 158.934 242.142 158.646C242.735 158.308 243.213 157.94 243.576 157.54C243.94 157.141 244.199 156.746 244.352 156.356C244.514 155.961 244.593 155.597 244.589 155.266Z" fill="#FFE040"/>
<path d="M261.189 140.213L261.227 143.358L252.665 148.239L252.627 145.094L261.189 140.213ZM253.611 137.141L253.821 154.669L250.357 156.644L250.147 139.116L253.611 137.141ZM263.533 131.485L263.743 149.013L260.292 150.981L260.082 133.452L263.533 131.485Z" fill="#FFE040"/>
<path d="M270.082 127.752L270.292 145.28L266.828 147.255L266.618 129.726L270.082 127.752Z" fill="#FFE040"/>
<path d="M286.553 118.362L286.763 135.891L283.298 137.865L276.715 129.909L276.854 141.539L273.39 143.514L273.18 125.986L276.644 124.011L283.228 131.967L283.089 120.337L286.553 118.362Z" fill="#FFE040"/>
<path d="M302.56 117.523L302.645 124.655C302.388 125.135 301.991 125.72 301.455 126.409C300.928 127.083 300.244 127.792 299.401 128.534C298.559 129.277 297.541 129.989 296.347 130.669C295.293 131.27 294.328 131.634 293.452 131.759C292.576 131.885 291.82 131.766 291.184 131.401C290.547 131.026 290.053 130.409 289.701 129.55C289.348 128.691 289.164 127.584 289.148 126.23L289.135 125.192C289.119 123.837 289.27 122.544 289.589 121.312C289.907 120.07 290.367 118.909 290.969 117.829C291.57 116.749 292.286 115.785 293.119 114.937C293.959 114.074 294.89 113.352 295.909 112.771C297.356 111.946 298.54 111.529 299.461 111.519C300.391 111.494 301.101 111.791 301.591 112.41C302.081 113.03 302.389 113.884 302.516 114.973L299.17 116.881C299.084 116.344 298.922 115.937 298.681 115.659C298.45 115.367 298.119 115.233 297.689 115.255C297.268 115.273 296.722 115.473 296.051 115.856C295.511 116.164 295.024 116.552 294.591 117.022C294.158 117.491 293.792 118.038 293.492 118.663C293.193 119.278 292.968 119.962 292.819 120.713C292.67 121.464 292.601 122.286 292.612 123.179L292.625 124.247C292.635 125.13 292.723 125.863 292.888 126.445C293.062 127.023 293.312 127.446 293.64 127.713C293.968 127.971 294.373 128.078 294.855 128.036C295.346 127.988 295.905 127.786 296.532 127.428C297.29 126.996 297.873 126.573 298.281 126.159C298.688 125.735 298.978 125.398 299.15 125.148L299.116 122.304L296.005 124.078L295.972 121.279L302.56 117.523Z" fill="#FFE040"/>
<path d="M357.093 160.741C357.172 160.162 357.071 159.62 356.79 159.113C356.518 158.611 356.158 158.146 355.711 157.718C355.272 157.284 354.842 156.89 354.421 156.536C353.895 156.094 353.364 155.614 352.829 155.097C352.294 154.579 351.802 154.026 351.355 153.437C350.916 152.843 350.565 152.217 350.302 151.56C350.048 150.897 349.934 150.202 349.96 149.474C349.995 148.691 350.179 148.086 350.513 147.659C350.855 147.237 351.294 146.968 351.829 146.853C352.373 146.744 352.965 146.766 353.605 146.92C354.246 147.075 354.882 147.332 355.514 147.692C356.409 148.208 357.22 148.869 357.948 149.674C358.685 150.484 359.269 151.384 359.699 152.374C360.129 153.365 360.33 154.39 360.304 155.449L357.948 154.128C357.966 153.566 357.865 153.018 357.646 152.485C357.426 151.952 357.124 151.469 356.738 151.034C356.352 150.589 355.913 150.226 355.422 149.943C354.957 149.676 354.5 149.508 354.053 149.441C353.605 149.363 353.224 149.422 352.908 149.618C352.592 149.804 352.399 150.169 352.329 150.712C352.276 151.114 352.333 151.502 352.5 151.875C352.667 152.238 352.895 152.585 353.184 152.916C353.483 153.242 353.794 153.55 354.119 153.841C354.452 154.126 354.755 154.384 355.027 154.615C355.746 155.244 356.457 155.929 357.159 156.669C357.861 157.409 358.431 158.212 358.87 159.077C359.308 159.932 359.506 160.849 359.462 161.828C359.427 162.661 359.229 163.294 358.87 163.727C358.519 164.154 358.062 164.418 357.501 164.518C356.948 164.613 356.338 164.571 355.672 164.392C355.005 164.213 354.338 163.933 353.671 163.554C352.75 163.023 351.89 162.331 351.092 161.477C350.302 160.618 349.67 159.666 349.197 158.621C348.723 157.566 348.499 156.479 348.526 155.36L350.908 156.695C350.908 157.347 351.026 157.964 351.263 158.547C351.509 159.125 351.846 159.648 352.276 160.117C352.706 160.586 353.197 160.979 353.75 161.295C354.215 161.563 354.689 161.755 355.171 161.872C355.663 161.994 356.084 161.977 356.435 161.82C356.795 161.659 357.014 161.299 357.093 160.741Z" fill="#767676"/>
<path d="M362.423 160.234L362.462 159.91C362.568 158.875 362.804 157.953 363.173 157.144C363.55 156.34 364.046 155.712 364.66 155.26C365.274 154.808 366.002 154.59 366.845 154.605C367.687 154.621 368.626 154.93 369.661 155.534C370.661 156.109 371.517 156.829 372.227 157.694C372.947 158.564 373.526 159.512 373.964 160.538C374.412 161.558 374.723 162.604 374.899 163.674C375.074 164.744 375.118 165.772 375.03 166.756L375.004 167.088C374.89 168.118 374.644 169.03 374.267 169.824C373.89 170.618 373.39 171.234 372.767 171.671C372.153 172.113 371.424 172.326 370.582 172.311C369.74 172.285 368.806 171.973 367.779 171.374C366.788 170.804 365.932 170.089 365.213 169.229C364.502 168.364 363.927 167.423 363.489 166.408C363.05 165.392 362.743 164.354 362.568 163.294C362.392 162.233 362.344 161.214 362.423 160.234ZM364.831 161.223L364.805 161.57C364.743 162.168 364.739 162.822 364.792 163.533C364.853 164.25 364.993 164.959 365.213 165.663C365.441 166.371 365.77 167.03 366.2 167.639C366.63 168.249 367.187 168.753 367.871 169.153C368.599 169.576 369.24 169.771 369.793 169.736C370.345 169.692 370.815 169.48 371.201 169.102C371.596 168.729 371.907 168.245 372.135 167.649C372.372 167.058 372.53 166.429 372.609 165.76L372.635 165.429C372.697 164.831 372.697 164.174 372.635 163.457C372.583 162.736 372.442 162.016 372.214 161.298C371.995 160.575 371.67 159.908 371.24 159.299C370.81 158.679 370.253 158.17 369.569 157.77C368.841 157.337 368.196 157.145 367.634 157.195C367.082 157.239 366.612 157.456 366.226 157.843C365.84 158.231 365.529 158.726 365.292 159.327C365.064 159.923 364.91 160.555 364.831 161.223Z" fill="#767676"/>
<path d="M381.176 164.897L379.11 177.354L376.728 176.033L379.202 161.124L381.518 162.408L381.176 164.897ZM385.795 164.643L385.572 167.137C385.387 166.995 385.199 166.856 385.006 166.718C384.822 166.586 384.637 166.469 384.453 166.367C383.883 166.041 383.37 165.857 382.913 165.814C382.466 165.767 382.067 165.832 381.716 166.008C381.374 166.19 381.08 166.463 380.834 166.829C380.597 167.199 380.409 167.636 380.268 168.14L379.518 168.175C379.615 167.416 379.772 166.671 379.992 165.94C380.22 165.214 380.531 164.599 380.926 164.096C381.33 163.597 381.834 163.295 382.44 163.189C383.054 163.088 383.791 163.291 384.651 163.798C384.844 163.905 385.032 164.03 385.216 164.172C385.409 164.319 385.602 164.476 385.795 164.643Z" fill="#767676"/>
<path d="M390.046 169.813L387.98 182.27L385.598 180.95L388.072 166.041L390.388 167.325L390.046 169.813ZM394.666 169.56L394.442 172.054C394.258 171.912 394.069 171.772 393.876 171.635C393.692 171.503 393.507 171.386 393.323 171.284C392.753 170.958 392.24 170.773 391.783 170.731C391.336 170.684 390.937 170.748 390.586 170.925C390.244 171.106 389.95 171.38 389.704 171.745C389.467 172.115 389.279 172.553 389.138 173.057L388.388 173.092C388.485 172.333 388.642 171.588 388.862 170.857C389.09 170.131 389.401 169.516 389.796 169.013C390.2 168.514 390.704 168.212 391.31 168.106C391.924 168.005 392.661 168.208 393.521 168.715C393.714 168.822 393.902 168.946 394.086 169.089C394.279 169.236 394.472 169.393 394.666 169.56Z" fill="#767676"/>
<path d="M398.864 186.452L404.865 175.349L407.497 176.808L399.14 190.984C398.921 191.394 398.662 191.763 398.364 192.089C398.074 192.42 397.741 192.676 397.363 192.858C396.995 193.045 396.578 193.12 396.113 193.083C395.648 193.046 395.135 192.872 394.573 192.561C394.336 192.419 394.1 192.258 393.863 192.077C393.617 191.89 393.38 191.704 393.152 191.517L393.297 189.31C393.402 189.389 393.507 189.462 393.613 189.53C393.718 189.609 393.819 189.68 393.915 189.743C394.503 190.089 395.008 190.274 395.429 190.296C395.859 190.324 396.227 190.217 396.534 189.976C396.85 189.74 397.131 189.404 397.377 188.969L398.864 186.452ZM398.206 171.658L399.903 185.389L400.061 188.35L398.285 188.358L395.705 170.272L398.206 171.658Z" fill="#767676"/>
<path d="M405.931 190.791C405.931 190.3 406.067 189.964 406.339 189.783C406.619 189.608 406.975 189.634 407.405 189.863C407.835 190.091 408.186 190.436 408.457 190.898C408.738 191.364 408.874 191.841 408.865 192.328C408.865 192.819 408.725 193.148 408.444 193.313C408.172 193.483 407.821 193.454 407.392 193.226C406.97 193.003 406.619 192.663 406.339 192.206C406.058 191.749 405.922 191.278 405.931 190.791Z" fill="#767676"/>
<path d="M412.827 194.614C412.827 194.122 412.963 193.786 413.235 193.606C413.515 193.431 413.871 193.457 414.301 193.685C414.731 193.913 415.082 194.258 415.353 194.72C415.634 195.187 415.77 195.663 415.761 196.15C415.761 196.642 415.621 196.97 415.34 197.135C415.068 197.306 414.717 197.277 414.288 197.048C413.866 196.825 413.515 196.485 413.235 196.028C412.954 195.572 412.818 195.1 412.827 194.614Z" fill="#767676"/>
<path d="M419.723 198.436C419.723 197.945 419.859 197.609 420.131 197.428C420.411 197.253 420.767 197.279 421.197 197.508C421.627 197.736 421.978 198.081 422.249 198.543C422.53 199.009 422.666 199.486 422.657 199.973C422.657 200.464 422.517 200.793 422.236 200.958C421.964 201.128 421.613 201.099 421.184 200.871C420.762 200.648 420.411 200.308 420.131 199.851C419.85 199.394 419.714 198.923 419.723 198.436Z" fill="#767676"/>
</svg>
