<svg width="244" height="286" viewBox="0 0 244 286" fill="none" xmlns="http://www.w3.org/2000/svg">
<path d="M122 283.624C187.726 283.624 241.007 230.343 241.007 164.618C241.007 98.8922 187.726 45.6113 122 45.6113C56.2751 45.6113 2.99414 98.8922 2.99414 164.618C2.99414 230.343 56.2751 283.624 122 283.624Z" fill="#FADB87" fill-opacity="0.69"/>
<path d="M122 259.005C174.128 259.005 216.386 216.747 216.386 164.619C216.386 112.491 174.128 70.2324 122 70.2324C69.8715 70.2324 27.6133 112.491 27.6133 164.619C27.6133 216.747 69.8715 259.005 122 259.005Z" fill="#F9A7A7" fill-opacity="0.47"/>
<path d="M146.566 31.6484H97.4352C94.7223 31.6484 92.5215 29.4488 92.5215 26.7348V7.28867C92.5215 4.57578 94.7211 2.375 97.4352 2.375H146.566C149.279 2.375 151.48 4.57461 151.48 7.28867V26.7359C151.479 29.4488 149.279 31.6484 146.566 31.6484Z" fill="#FADB87" fill-opacity="0.69"/>
<path d="M39.1307 79.2486C44.0268 74.4955 49.3179 70.149 54.971 66.2877L46.6003 51.7892C45.2432 49.4385 42.2386 48.6346 39.8889 49.9916L30.9065 55.1771C28.5569 56.5342 27.7518 59.5388 29.1077 61.8896L39.1307 79.2486Z" fill="#FFFAF2"/>
<path d="M204.87 79.2495L214.893 61.8894C216.25 59.5386 215.445 56.5339 213.094 55.178L204.111 49.9913C201.762 48.6343 198.757 49.4394 197.4 51.789L189.029 66.2874C194.682 70.1487 199.973 74.4964 204.87 79.2495Z" fill="#FFFAF2"/>
<path d="M138.377 46.7621V31.6484H105.623V46.7621C116.339 45.2855 126.861 45.1754 138.377 46.7621Z" fill="#FFFAF2"/>
<path d="M122 285.968C55.0875 285.968 0.650391 231.53 0.650391 164.618C0.650391 97.7047 55.0875 43.2676 122 43.2676C188.913 43.2676 243.35 97.7059 243.35 164.618C243.35 231.529 188.913 285.968 122 285.968ZM122 47.9551C57.6726 47.9551 5.33789 100.29 5.33789 164.618C5.33789 228.945 57.6726 281.28 122 281.28C186.328 281.28 238.663 228.945 238.663 164.618C238.663 100.29 186.328 47.9551 122 47.9551Z" fill="#C674FF" fill-opacity="0.85"/>
<path d="M122 261.349C68.6637 261.349 25.2715 217.957 25.2715 164.619C25.2715 111.281 68.6637 67.8887 122 67.8887C175.338 67.8887 218.73 111.281 218.73 164.619C218.73 217.957 175.338 261.349 122 261.349ZM122 72.5762C71.2477 72.5762 29.959 113.866 29.959 164.619C29.959 215.371 71.2477 256.661 122 256.661C172.753 256.661 214.043 215.371 214.043 164.619C214.043 113.866 172.753 72.5762 122 72.5762Z" fill="#C674FF" fill-opacity="0.85"/>
<path d="M146.566 33.9922H97.4352C93.4332 33.9922 90.1777 30.7367 90.1777 26.7359V7.2875C90.1777 3.28672 93.4332 0.03125 97.4352 0.03125H146.566C150.567 0.03125 153.822 3.28672 153.822 7.2875V26.7359C153.822 30.7367 150.567 33.9922 146.566 33.9922ZM97.4352 4.71875C96.0184 4.71875 94.8652 5.8707 94.8652 7.2875V26.7359C94.8652 28.1527 96.0184 29.3047 97.4352 29.3047H146.566C147.983 29.3047 149.135 28.1527 149.135 26.7359V7.2875C149.135 5.8707 147.983 4.71875 146.566 4.71875H97.4352Z" fill="#C674FF" fill-opacity="0.85"/>
<path d="M39.1299 81.5941C39.0221 81.5941 38.9143 81.5871 38.8065 81.5706C38.0916 81.471 37.4612 81.048 37.1002 80.4222L27.0772 63.0632C26.108 61.3839 25.8502 59.4281 26.3518 57.5566C26.8533 55.6828 28.0545 54.1183 29.7338 53.1492L38.7162 47.9636C40.3944 46.9957 42.3514 46.7367 44.2229 47.2382C46.0955 47.7398 47.6611 48.941 48.6303 50.6203L57.001 65.1175C57.6139 66.1792 57.3057 67.5339 56.2932 68.2242C50.8346 71.9531 45.6092 76.2281 40.7647 80.932C40.3229 81.3585 39.7358 81.5941 39.1299 81.5941ZM42.3408 51.6761C41.8955 51.6761 41.4561 51.7945 41.06 52.0218L32.0764 57.2085C31.4822 57.5507 31.0569 58.105 30.8799 58.7683C30.7018 59.4304 30.7932 60.1242 31.1365 60.7183L39.6737 75.505C43.5467 71.9226 47.6307 68.6027 51.8635 65.5956L44.5686 52.9628C44.2252 52.3675 43.6709 51.9433 43.0088 51.7664C42.7885 51.7066 42.5635 51.6761 42.3408 51.6761Z" fill="#C674FF" fill-opacity="0.85"/>
<path d="M204.87 81.594C204.264 81.594 203.677 81.3597 203.236 80.9319C198.391 76.228 193.166 71.953 187.708 68.2241C186.695 67.5327 186.387 66.1792 187 65.1175L195.371 50.6202C196.341 48.9409 197.905 47.7398 199.779 47.2382C201.653 46.7366 203.608 46.9956 205.285 47.9648L214.267 53.1491C215.946 54.1183 217.146 55.6827 217.648 57.5566C218.151 59.4292 217.893 61.3851 216.924 63.0632L206.901 80.4222C206.539 81.0479 205.909 81.4722 205.193 81.5706C205.084 81.587 204.978 81.594 204.87 81.594ZM192.136 65.5956C196.369 68.6026 200.454 71.9226 204.325 75.505L212.862 60.7183C213.205 60.123 213.297 59.4304 213.12 58.7683C212.943 58.105 212.516 57.5507 211.923 57.2085L202.941 52.023C202.347 51.6796 201.653 51.587 200.991 51.7651C200.329 51.9421 199.775 52.3687 199.431 52.9616L192.136 65.5956Z" fill="#C674FF" fill-opacity="0.85"/>
<path d="M105.623 49.1059C105.061 49.1059 104.512 48.9031 104.083 48.5293C103.572 48.084 103.279 47.4394 103.279 46.7621V31.6484C103.279 30.3547 104.329 29.3047 105.623 29.3047H138.377C139.671 29.3047 140.721 30.3547 140.721 31.6484V46.7609C140.721 47.4383 140.428 48.0828 139.917 48.5281C139.405 48.9734 138.727 49.1762 138.057 49.0836C127.1 47.5754 116.896 47.5754 105.943 49.0836C105.836 49.0988 105.73 49.1059 105.623 49.1059ZM121.999 43.2641C126.638 43.2641 131.277 43.5418 136.033 44.1008V33.9922H107.967V44.0996C112.722 43.543 117.361 43.2641 121.999 43.2641Z" fill="#C674FF" fill-opacity="0.85"/>
<path d="M195.219 164.618H195.276C195.247 123.541 161.773 91.3149 122 91.3418V164.618H122.029L122 164.629V237.905C124.114 237.904 126.242 237.83 128.388 237.642C166.503 234.308 195.302 202.202 195.276 164.629L195.219 164.618Z" fill="#FFFAF2"/>
<path d="M49.9879 150.184C47.4918 149.516 46.0035 146.95 46.6715 144.442C47.3394 141.946 49.9058 140.457 52.4137 141.125C54.9098 141.793 56.398 144.36 55.7301 146.856V146.868C55.1676 148.954 53.2691 150.348 51.2066 150.348C50.8082 150.348 50.398 150.289 49.9879 150.184ZM56.1754 132.043C53.9371 130.743 53.1754 127.883 54.4762 125.645C55.7652 123.395 58.6363 122.633 60.8746 123.934C63.1129 125.235 63.8863 128.094 62.5855 130.332V130.344C61.7183 131.844 60.1363 132.676 58.5191 132.676C57.7223 132.676 56.9137 132.477 56.1754 132.043ZM66.8746 116.141C65.0465 114.313 65.0465 111.348 66.8746 109.52C68.7144 107.692 71.6793 107.692 73.5074 109.52C75.3355 111.348 75.3355 114.325 73.4957 116.153C72.5816 117.067 71.3863 117.524 70.191 117.524C68.984 117.524 67.7887 117.067 66.8746 116.141ZM81.3004 103.543C79.9996 101.293 80.7613 98.434 82.9996 97.1332C85.2496 95.8324 88.109 96.5942 89.4098 98.8324C90.7105 101.082 89.9371 103.942 87.6988 105.243C86.9605 105.676 86.1519 105.875 85.3551 105.875C83.7379 105.875 82.1676 105.043 81.3004 103.543ZM98.4801 95.059C97.8004 92.5629 99.2887 89.9848 101.785 89.3168C104.281 88.6489 106.859 90.1254 107.527 92.6215C108.195 95.1293 106.718 97.6957 104.222 98.3754C103.812 98.4809 103.402 98.5278 103.004 98.5278C100.929 98.5278 99.0426 97.1567 98.4801 95.059Z" fill="#FFFAF2"/>
<path d="M199.098 157.873C197.403 138.484 188.527 120.577 174.107 107.45C159.788 94.4168 141.303 87.2402 122.05 87.2402C122.032 87.2402 122.015 87.2402 121.997 87.2402C119.732 87.2414 117.897 89.0789 117.898 91.3441C117.899 93.6082 119.736 95.4434 122 95.4434C122.009 95.4469 122.03 95.4434 122.049 95.4434C157.575 95.4434 187.827 123.172 190.927 158.588C192.535 176.968 186.87 194.896 174.977 209.071C163.083 223.246 146.41 231.938 128.03 233.545C109.653 235.158 91.7219 229.489 77.5457 217.595C64.1313 206.339 55.6364 190.8 53.4004 173.586H61.4957C62.4543 173.586 63.0075 172.499 62.4426 171.724L50.5082 155.345C50.0407 154.703 49.0821 154.703 48.6145 155.345L36.6801 171.724C36.1153 172.499 36.6696 173.586 37.627 173.586H45.1481C47.4332 193.266 56.9946 211.059 72.2723 223.88C86.3594 235.699 103.761 242.019 121.891 242.018C124.164 242.018 126.453 241.918 128.744 241.718C149.307 239.919 167.957 230.197 181.259 214.344C194.563 198.491 200.897 178.436 199.098 157.873Z" fill="#9903FF" fill-opacity="0.47"/>
<path d="M122 174.674C117.856 174.674 114.496 171.316 114.496 167.171V91.6773C114.496 87.5324 117.856 84.1738 122 84.1738C126.143 84.1738 129.503 87.5324 129.503 91.6773V167.171C129.503 171.314 126.143 174.674 122 174.674Z" fill="#C674FF" fill-opacity="0.85"/>
</svg>
