<svg width="450" height="280" viewBox="0 0 450 280" fill="none" xmlns="http://www.w3.org/2000/svg">
<g clip-path="url(#clip0_5358_51089)">
<path d="M70.9744 -36.7221C98.8944 -96.1721 198.034 -87.7821 236.284 -45.9721C274.534 -4.16211 286.984 22.6179 321.494 7.02789C356.004 -8.56212 400.014 -4.41212 402.544 45.1879C405.074 94.7879 364.624 153.438 300.454 170.788C236.284 188.138 236.284 249.548 151.374 237.158C105.064 230.398 104.004 180.298 110.544 138.848C117.084 97.3979 38.5944 32.2179 70.9744 -36.7221Z" fill="#CC9EFF"/>
<path opacity="0.9" d="M70.9744 -36.7221C98.8944 -96.1721 198.034 -87.7821 236.284 -45.9721C274.534 -4.16211 286.984 22.6179 321.494 7.02789C356.004 -8.56212 400.014 -4.41212 402.544 45.1879C405.074 94.7879 364.624 153.438 300.454 170.788C236.284 188.138 236.284 249.548 151.374 237.158C105.064 230.398 104.004 180.298 110.544 138.848C117.084 97.3979 38.5944 32.2179 70.9744 -36.7221Z" fill="white"/>
<path d="M224.999 278.32C332.082 278.32 418.889 273.252 418.889 267C418.889 260.748 332.082 255.68 224.999 255.68C117.917 255.68 31.1094 260.748 31.1094 267C31.1094 273.252 117.917 278.32 224.999 278.32Z" fill="#F5F5F5"/>
<path d="M310.076 6.70996H154.436V266.18H310.076V6.70996Z" fill="#CC9EFF"/>
<path opacity="0.5" d="M310.076 6.70996H154.436V266.18H310.076V6.70996Z" fill="white"/>
<path d="M289.826 6.70996H134.186V266.18H289.826V6.70996Z" fill="#CC9EFF"/>
<path opacity="0.7" d="M289.826 6.70996H134.186V266.18H289.826V6.70996Z" fill="white"/>
<g opacity="0.2">
<path d="M294.554 6.67969L294.064 139.23L293.584 6.67969H294.554Z" fill="black"/>
<path d="M298.733 6.67969L298.253 152.7L297.773 6.67969H298.733Z" fill="black"/>
<path d="M307.714 6.67969L307.234 73.9997L306.754 6.67969H307.714Z" fill="black"/>
<path d="M297.773 265.25L298.253 174.53L298.733 265.25H297.773Z" fill="black"/>
<path d="M302.174 266.22L302.664 87.1196L303.144 266.22H302.174Z" fill="black"/>
<path d="M306.754 265.25L307.234 178.72L307.714 265.25H306.754Z" fill="black"/>
<path d="M303.144 6.67969L302.664 65.3497L302.174 6.67969H303.144Z" fill="black"/>
<path d="M293.584 265.72L294.064 164.08L294.554 265.72H293.584Z" fill="black"/>
</g>
<path d="M127.123 43.7397H141.473V84.5297H127.123C126.776 84.5297 126.443 84.3917 126.197 84.146C125.952 83.9003 125.813 83.5671 125.813 83.2197V45.0597C125.812 44.8868 125.845 44.7154 125.91 44.5553C125.976 44.3952 126.072 44.2496 126.194 44.1269C126.315 44.0042 126.46 43.9068 126.62 43.8404C126.779 43.7739 126.951 43.7397 127.123 43.7397Z" fill="#263238"/>
<path d="M142.055 76.5293C141.927 76.5293 141.805 76.4788 141.715 76.3887C141.625 76.2987 141.575 76.1766 141.575 76.0493V71.4493L121.675 67.2993C121.305 67.8184 120.818 68.2429 120.253 68.5383C119.689 68.8337 119.062 68.9917 118.425 68.9993C117.235 68.8564 116.139 68.2824 115.344 67.3859C114.549 66.4894 114.109 65.3326 114.109 64.1343C114.109 62.936 114.549 61.7792 115.344 60.8828C116.139 59.9863 117.235 59.4123 118.425 59.2693C119.063 59.2789 119.689 59.4388 120.254 59.7359C120.819 60.033 121.306 60.459 121.675 60.9793L141.575 56.8193V53.0493C141.577 52.9228 141.629 52.8022 141.718 52.7127C141.808 52.6233 141.928 52.5719 142.055 52.5693C142.182 52.5693 142.304 52.6199 142.394 52.7099C142.484 52.7999 142.535 52.922 142.535 53.0493V57.2093C142.535 57.3206 142.498 57.4287 142.429 57.516C142.36 57.6032 142.263 57.6643 142.155 57.6893L121.555 61.9793C121.461 62.0012 121.363 61.9938 121.273 61.958C121.184 61.9223 121.108 61.8599 121.055 61.7793C120.782 61.3217 120.398 60.9406 119.938 60.6713C119.478 60.4021 118.957 60.2535 118.425 60.2393C117.498 60.3883 116.654 60.8626 116.045 61.5773C115.436 62.292 115.101 63.2003 115.101 64.1393C115.101 65.0783 115.436 65.9866 116.045 66.7013C116.654 67.416 117.498 67.8904 118.425 68.0393C118.957 68.0252 119.478 67.8766 119.938 67.6073C120.398 67.3381 120.782 66.9569 121.055 66.4993C121.107 66.418 121.183 66.3544 121.272 66.3169C121.361 66.2795 121.46 66.2698 121.555 66.2893L142.155 70.5893C142.262 70.6123 142.359 70.6714 142.428 70.757C142.497 70.8426 142.535 70.9493 142.535 71.0593V76.0593C142.535 76.1219 142.522 76.1838 142.498 76.2415C142.474 76.2992 142.438 76.3515 142.394 76.3953C142.349 76.439 142.296 76.4734 142.238 76.4965C142.18 76.5195 142.117 76.5307 142.055 76.5293Z" fill="#CC9EFF"/>
<path d="M142.665 43.62V54.91H140.885V43.62C140.885 43.3839 140.979 43.1576 141.145 42.9906C141.312 42.8237 141.539 42.73 141.775 42.73C142.011 42.73 142.237 42.8237 142.404 42.9906C142.571 43.1576 142.665 43.3839 142.665 43.62Z" fill="#263238"/>
<path d="M142.665 59.5796H140.885V68.6996H142.665V59.5796Z" fill="#263238"/>
<path d="M140.885 73.3696H142.665V84.6796C142.665 84.9156 142.571 85.142 142.404 85.3089C142.237 85.4758 142.011 85.5696 141.775 85.5696C141.539 85.5696 141.312 85.4758 141.145 85.3089C140.979 85.142 140.885 84.9156 140.885 84.6796V73.3696Z" fill="#263238"/>
<path d="M127.123 188.36H141.473V229.15H127.123C126.776 229.15 126.443 229.012 126.197 228.766C125.952 228.521 125.813 228.187 125.813 227.84V189.68C125.812 189.507 125.845 189.336 125.91 189.175C125.976 189.015 126.072 188.87 126.194 188.747C126.315 188.624 126.46 188.527 126.62 188.461C126.779 188.394 126.951 188.36 127.123 188.36Z" fill="#263238"/>
<path d="M142.055 221.15C141.992 221.15 141.929 221.138 141.871 221.113C141.813 221.089 141.76 221.054 141.715 221.009C141.671 220.965 141.635 220.912 141.611 220.854C141.587 220.795 141.575 220.733 141.575 220.67V216.07L121.675 211.92C121.305 212.439 120.818 212.864 120.253 213.159C119.689 213.454 119.062 213.612 118.425 213.62C117.235 213.477 116.139 212.903 115.344 212.007C114.549 211.11 114.109 209.953 114.109 208.755C114.109 207.557 114.549 206.4 115.344 205.503C116.139 204.607 117.235 204.033 118.425 203.89C119.063 203.9 119.689 204.059 120.254 204.357C120.819 204.654 121.306 205.08 121.675 205.6L141.575 201.44V197.68C141.577 197.553 141.629 197.433 141.718 197.343C141.808 197.254 141.928 197.203 142.055 197.2C142.182 197.2 142.304 197.251 142.394 197.341C142.484 197.431 142.535 197.553 142.535 197.68V201.85C142.533 201.96 142.495 202.065 142.426 202.151C142.357 202.236 142.262 202.295 142.155 202.32L121.555 206.62C121.46 206.637 121.363 206.626 121.274 206.589C121.185 206.551 121.109 206.489 121.055 206.41C120.782 205.952 120.398 205.571 119.938 205.302C119.478 205.033 118.957 204.884 118.425 204.87C117.498 205.019 116.654 205.493 116.045 206.208C115.436 206.923 115.101 207.831 115.101 208.77C115.101 209.709 115.436 210.617 116.045 211.332C116.654 212.047 117.498 212.521 118.425 212.67C118.957 212.656 119.478 212.507 119.938 212.238C120.398 211.969 120.782 211.588 121.055 211.13C121.107 211.049 121.183 210.985 121.272 210.948C121.361 210.91 121.46 210.9 121.555 210.92L142.155 215.22C142.262 215.243 142.359 215.302 142.428 215.388C142.497 215.473 142.535 215.58 142.535 215.69V220.69C142.533 220.752 142.52 220.813 142.495 220.869C142.47 220.926 142.435 220.977 142.39 221.019C142.345 221.062 142.293 221.096 142.235 221.118C142.178 221.14 142.116 221.151 142.055 221.15Z" fill="#CC9EFF"/>
<path d="M142.665 188.24V199.53H140.885V188.24C140.885 188.004 140.979 187.777 141.145 187.611C141.312 187.444 141.539 187.35 141.775 187.35C142.011 187.35 142.237 187.444 142.404 187.611C142.571 187.777 142.665 188.004 142.665 188.24Z" fill="#263238"/>
<path d="M142.665 204.2H140.885V213.32H142.665V204.2Z" fill="#263238"/>
<path d="M140.885 217.99H142.665V229.28C142.665 229.516 142.571 229.742 142.404 229.909C142.237 230.076 142.011 230.17 141.775 230.17C141.539 230.17 141.312 230.076 141.145 229.909C140.979 229.742 140.885 229.516 140.885 229.28V217.99Z" fill="#263238"/>
<path opacity="0.2" d="M216.914 51.0498H154.734V98.6898H216.914V51.0498Z" fill="black"/>
<path opacity="0.4" d="M154.734 92.2096L174.604 75.8297L185.824 86.1096L204.714 70.1396L216.914 81.6897V98.6897H154.734V92.2096Z" fill="white"/>
<path opacity="0.4" d="M168.884 70.4895C172.005 70.4895 174.534 67.9599 174.534 64.8396C174.534 61.719 172.005 59.1895 168.884 59.1895C165.764 59.1895 163.234 61.719 163.234 64.8396C163.234 67.9599 165.764 70.4895 168.884 70.4895Z" fill="white"/>
<path opacity="0.2" d="M276.124 21.6895H154.734V41.7595H276.124V21.6895Z" fill="black"/>
<path opacity="0.2" d="M276.125 51.0498H224.535V53.7098H276.125V51.0498Z" fill="black"/>
<path opacity="0.2" d="M276.125 58.5098H224.535V61.1698H276.125V58.5098Z" fill="black"/>
<path opacity="0.2" d="M276.125 65.96H224.535V68.62H276.125V65.96Z" fill="black"/>
<path opacity="0.2" d="M276.125 73.4097H224.535V76.0697H276.125V73.4097Z" fill="black"/>
<path opacity="0.2" d="M276.125 80.8696H224.535V83.5296H276.125V80.8696Z" fill="black"/>
<path opacity="0.2" d="M276.125 88.3193H224.535V90.9793H276.125V88.3193Z" fill="black"/>
<path opacity="0.2" d="M276.125 96.0396H224.535V98.6995H276.125V96.0396Z" fill="black"/>
<path opacity="0.2" d="M276.124 109.52H154.734V112.18H276.124V109.52Z" fill="black"/>
<path opacity="0.2" d="M276.124 116.62H154.734V119.28H276.124V116.62Z" fill="black"/>
<path opacity="0.2" d="M276.124 123.72H154.734V126.38H276.124V123.72Z" fill="black"/>
<path opacity="0.2" d="M276.124 130.82H154.734V133.48H276.124V130.82Z" fill="black"/>
<path opacity="0.2" d="M276.124 137.92H154.734V140.58H276.124V137.92Z" fill="black"/>
<path opacity="0.2" d="M276.124 145.02H154.734V147.68H276.124V145.02Z" fill="black"/>
<path opacity="0.2" d="M276.125 157.1H213.945V204.74H276.125V157.1Z" fill="black"/>
<path opacity="0.4" d="M213.945 198.27L233.815 181.88L245.035 192.17L263.925 176.2L276.125 187.75V204.75H213.945V198.27Z" fill="white"/>
<path opacity="0.4" d="M233.756 170.89C233.758 172.01 233.427 173.105 232.807 174.037C232.186 174.969 231.303 175.696 230.268 176.126C229.234 176.556 228.096 176.67 226.997 176.452C225.899 176.235 224.889 175.697 224.097 174.906C223.304 174.115 222.764 173.106 222.545 172.008C222.326 170.91 222.437 169.771 222.865 168.736C223.294 167.702 224.019 166.817 224.95 166.195C225.881 165.572 226.976 165.24 228.096 165.24C229.595 165.24 231.033 165.835 232.094 166.894C233.155 167.954 233.753 169.391 233.756 170.89Z" fill="white"/>
<path opacity="0.2" d="M154.724 159.77H206.314V157.11H154.724V159.77Z" fill="black"/>
<path opacity="0.2" d="M154.724 167.22H206.314V164.56H154.724V167.22Z" fill="black"/>
<path opacity="0.2" d="M154.724 174.67H206.314V172.01H154.724V174.67Z" fill="black"/>
<path opacity="0.2" d="M154.724 182.12H206.314V179.46H154.724V182.12Z" fill="black"/>
<path opacity="0.2" d="M154.724 189.58H206.314V186.92H154.724V189.58Z" fill="black"/>
<path opacity="0.2" d="M154.724 197.03H206.314V194.37H154.724V197.03Z" fill="black"/>
<path opacity="0.2" d="M154.724 204.75H206.314V202.09H154.724V204.75Z" fill="black"/>
<path opacity="0.2" d="M276.124 214.61H154.734V217.27H276.124V214.61Z" fill="black"/>
<path opacity="0.2" d="M276.124 221.71H154.734V224.37H276.124V221.71Z" fill="black"/>
<path opacity="0.2" d="M276.124 228.81H154.734V231.47H276.124V228.81Z" fill="black"/>
<path opacity="0.2" d="M276.124 235.91H154.734V238.57H276.124V235.91Z" fill="black"/>
<path opacity="0.2" d="M276.124 243.01H154.734V245.67H276.124V243.01Z" fill="black"/>
<path opacity="0.2" d="M276.124 250.11H154.734V252.77H276.124V250.11Z" fill="black"/>
<path d="M165.375 117.68C158.035 117.68 151.775 116.32 149.815 112.62C149.217 111.654 149.009 110.497 149.232 109.383C149.454 108.269 150.092 107.281 151.015 106.62C158.935 100.01 192.545 101.38 198.155 105.79C198.299 105.848 198.427 105.94 198.529 106.056C198.631 106.172 198.704 106.311 198.744 106.461C198.783 106.61 198.787 106.767 198.756 106.919C198.724 107.071 198.658 107.213 198.562 107.334C198.466 107.456 198.344 107.554 198.204 107.62C198.064 107.686 197.91 107.719 197.755 107.715C197.6 107.712 197.449 107.673 197.311 107.6C197.174 107.528 197.056 107.425 196.965 107.3C192.085 103.47 159.365 102.16 152.245 108.1C151.96 108.287 151.715 108.528 151.525 108.81C151.334 109.093 151.201 109.41 151.134 109.744C151.067 110.078 151.067 110.422 151.134 110.756C151.202 111.09 151.334 111.408 151.525 111.69C153.635 115.69 164.345 116.86 178.165 114.6C191.165 112.47 200.325 108.37 200.735 105.86C200.855 105.1 199.865 104.4 199.015 103.95C198.864 103.918 198.722 103.851 198.601 103.755C198.48 103.658 198.383 103.535 198.317 103.395C198.252 103.255 198.22 103.101 198.224 102.947C198.228 102.792 198.267 102.641 198.34 102.504C198.412 102.367 198.515 102.249 198.641 102.159C198.767 102.069 198.912 102.009 199.064 101.984C199.217 101.96 199.373 101.971 199.521 102.017C199.669 102.063 199.804 102.143 199.915 102.25C202.475 103.6 202.805 105.13 202.635 106.17C201.895 110.67 189.635 114.68 178.475 116.5C174.146 117.236 169.766 117.631 165.375 117.68Z" fill="#CC9EFF"/>
<path d="M279.714 222.31C279.489 222.309 279.27 222.231 279.094 222.09L266.414 211.46C266.273 211.396 266.148 211.301 266.05 211.181C265.952 211.062 265.883 210.921 265.849 210.77C265.815 210.619 265.816 210.462 265.853 210.312C265.889 210.161 265.96 210.021 266.06 209.903C266.16 209.785 266.286 209.691 266.428 209.63C266.57 209.569 266.724 209.541 266.879 209.549C267.033 209.558 267.184 209.602 267.318 209.678C267.453 209.755 267.568 209.861 267.654 209.99L280.334 220.61C280.523 220.779 280.64 221.014 280.662 221.266C280.685 221.519 280.61 221.77 280.454 221.97C280.364 222.078 280.251 222.165 280.123 222.224C279.995 222.283 279.855 222.312 279.714 222.31Z" fill="#CC9EFF"/>
<path d="M269.575 222.81C269.396 222.796 269.224 222.734 269.077 222.631C268.93 222.528 268.814 222.387 268.74 222.223C268.667 222.06 268.639 221.879 268.659 221.701C268.679 221.523 268.746 221.353 268.855 221.21C272.716 216.888 276.012 212.093 278.665 206.94C278.697 206.79 278.763 206.65 278.858 206.529C278.953 206.409 279.075 206.311 279.214 206.246C279.352 206.18 279.504 206.147 279.657 206.149C279.811 206.151 279.961 206.19 280.098 206.26C280.234 206.329 280.353 206.429 280.445 206.552C280.536 206.675 280.598 206.818 280.626 206.969C280.654 207.12 280.646 207.275 280.604 207.423C280.563 207.57 280.487 207.706 280.385 207.82C277.654 213.116 274.264 218.046 270.295 222.49C270.205 222.593 270.095 222.675 269.97 222.73C269.846 222.785 269.711 222.813 269.575 222.81Z" fill="#CC9EFF"/>
<path d="M152.475 238.54C152.332 238.537 152.19 238.504 152.061 238.442C151.932 238.379 151.817 238.29 151.725 238.18C150.762 236.975 150.079 235.571 149.725 234.07C149.675 233.824 149.719 233.568 149.849 233.353C149.979 233.138 150.184 232.98 150.425 232.91C150.673 232.857 150.931 232.9 151.148 233.03C151.365 233.159 151.525 233.367 151.595 233.61C151.78 234.369 152.07 235.1 152.455 235.78C154.527 232.398 157.073 229.33 160.015 226.67C160.209 226.508 160.457 226.425 160.709 226.438C160.961 226.451 161.199 226.559 161.375 226.74C161.538 226.933 161.621 227.181 161.608 227.434C161.595 227.686 161.487 227.924 161.305 228.1C158.136 230.966 155.452 234.326 153.355 238.05C153.276 238.186 153.166 238.301 153.034 238.386C152.902 238.471 152.752 238.524 152.595 238.54H152.475Z" fill="#CC9EFF"/>
<path d="M223.725 77.2399H223.605L221.315 76.9399C220.875 76.9331 220.451 76.7739 220.116 76.4894C219.78 76.2049 219.554 75.8128 219.475 75.3799C219.028 73.5352 218.849 71.6356 218.945 69.7399V51.8399C218.946 51.6972 218.978 51.5564 219.039 51.427C219.099 51.2976 219.186 51.1827 219.295 51.0899C219.407 51.0034 219.537 50.9417 219.674 50.9089C219.812 50.8761 219.956 50.8731 220.095 50.8999L221.595 51.1999C221.791 51.2992 221.948 51.46 222.044 51.6577C222.139 51.8554 222.166 52.079 222.122 52.294C222.078 52.5089 221.964 52.7033 221.798 52.8471C221.632 52.991 221.424 53.0763 221.205 53.0899L220.865 53.0199V69.7499C220.777 71.4593 220.928 73.1726 221.315 74.8399V74.9899H221.515L223.805 75.2899C224.01 75.3632 224.185 75.5015 224.305 75.6836C224.424 75.8657 224.481 76.0818 224.466 76.2991C224.451 76.5163 224.366 76.7228 224.223 76.8872C224.08 77.0516 223.888 77.1649 223.675 77.2099L223.725 77.2399Z" fill="#CC9EFF"/>
<path d="M214.845 58.1398H214.795C210.675 57.9098 206.505 57.7798 202.385 57.7598C202.12 57.7598 201.865 57.6545 201.678 57.4669C201.49 57.2794 201.385 57.025 201.385 56.7598C201.385 56.4946 201.49 56.2402 201.678 56.0527C201.865 55.8652 202.12 55.7598 202.385 55.7598C206.535 55.7598 210.745 55.9198 214.885 56.1498C215.092 56.2104 215.275 56.3367 215.405 56.5098C215.535 56.6829 215.605 56.8934 215.605 57.1098C215.605 57.3262 215.535 57.5367 215.405 57.7098C215.275 57.8829 215.092 58.0092 214.885 58.0698L214.845 58.1398Z" fill="#CC9EFF"/>
<path d="M205.704 61.6798C205.494 61.6412 205.301 61.5359 205.155 61.3795C205.008 61.2232 204.916 61.024 204.891 60.8112C204.867 60.5984 204.911 60.3834 205.018 60.1977C205.125 60.012 205.288 59.8655 205.484 59.7798C207.903 59.336 210.377 59.2752 212.814 59.5998C213.504 59.6598 214.204 59.7198 214.894 59.7598C215.144 59.7823 215.376 59.8975 215.544 60.0827C215.713 60.2678 215.805 60.5094 215.804 60.7598C215.782 61.0091 215.667 61.2409 215.482 61.4094C215.296 61.5779 215.055 61.6708 214.804 61.6698C214.084 61.6698 213.374 61.5698 212.664 61.5098C210.431 61.204 208.163 61.2513 205.944 61.6498L205.704 61.6798Z" fill="#CC9EFF"/>
<path d="M214.844 65.2199H214.684C213.669 65.101 212.645 65.0709 211.624 65.1299C210.483 65.1928 209.339 65.1527 208.204 65.0099C208.007 64.9171 207.845 64.7622 207.743 64.5687C207.642 64.3752 207.607 64.1538 207.643 63.9383C207.679 63.7229 207.785 63.5252 207.944 63.3756C208.103 63.226 208.307 63.1327 208.524 63.1099C209.54 63.2291 210.564 63.2592 211.584 63.1999C212.726 63.1369 213.87 63.1771 215.004 63.3199C215.205 63.3984 215.375 63.5396 215.489 63.7224C215.603 63.9052 215.654 64.1199 215.636 64.3345C215.618 64.5491 215.532 64.7522 215.389 64.9135C215.246 65.0749 215.055 65.1858 214.844 65.2299V65.2199Z" fill="#CC9EFF"/>
<path d="M201.875 68.8396C201.62 68.84 201.374 68.7429 201.188 68.5682C201.002 68.3934 200.89 68.1543 200.875 67.8996C200.875 67.6444 200.972 67.3988 201.146 67.2129C201.321 67.027 201.56 66.9149 201.815 66.8996L214.815 66.6196C215.027 66.6771 215.214 66.8028 215.347 66.9772C215.481 67.1516 215.553 67.365 215.553 67.5846C215.553 67.8041 215.481 68.0175 215.347 68.1919C215.214 68.3663 215.027 68.492 214.815 68.5496L201.815 68.8296L201.875 68.8396Z" fill="#CC9EFF"/>
<path d="M214.846 72.2799H208.236C208.028 72.2193 207.845 72.093 207.716 71.9199C207.586 71.7468 207.516 71.5362 207.516 71.3199C207.516 71.1035 207.586 70.893 207.716 70.7199C207.845 70.5468 208.028 70.4204 208.236 70.3599H214.846C215.053 70.4204 215.236 70.5468 215.366 70.7199C215.495 70.893 215.566 71.1035 215.566 71.3199C215.566 71.5362 215.495 71.7468 215.366 71.9199C215.236 72.093 215.053 72.2193 214.846 72.2799Z" fill="#CC9EFF"/>
<path d="M195.045 181.68H194.675C181.335 181.62 167.925 179.82 154.955 178.07C153.715 177.9 151.825 177.65 150.645 176.29C150.096 175.587 149.765 174.739 149.694 173.85C149.623 172.961 149.815 172.071 150.245 171.29C151.041 169.887 152.269 168.778 153.745 168.13C157.285 166.39 161.315 166.42 164.875 166.43C171.965 166.43 179.295 166.5 186.575 166.69C192.845 166.86 198.905 167.24 204.175 170.04C204.326 170.074 204.466 170.142 204.585 170.239C204.705 170.336 204.8 170.46 204.864 170.6C204.928 170.74 204.959 170.893 204.954 171.047C204.949 171.201 204.909 171.351 204.836 171.487C204.763 171.623 204.66 171.74 204.535 171.829C204.41 171.919 204.265 171.978 204.113 172.002C203.961 172.027 203.806 172.016 203.659 171.97C203.512 171.925 203.377 171.846 203.265 171.74C198.365 169.14 192.555 168.74 186.525 168.62C179.265 168.42 171.945 168.39 164.865 168.36C161.515 168.36 157.725 168.36 154.595 169.86C153.488 170.328 152.562 171.142 151.955 172.18C151.703 172.618 151.582 173.12 151.607 173.625C151.632 174.131 151.801 174.618 152.095 175.03C152.976 175.751 154.077 176.149 155.215 176.16C168.125 177.9 181.465 179.7 194.685 179.75C197.945 179.75 201.685 179.62 204.395 177.75C205.147 177.233 205.788 176.572 206.281 175.804C206.774 175.037 207.109 174.179 207.265 173.28C207.378 172.706 207.369 172.116 207.24 171.546C207.11 170.976 206.864 170.439 206.515 169.97C206.364 169.765 206.296 169.511 206.326 169.258C206.356 169.005 206.481 168.774 206.675 168.61C206.88 168.463 207.133 168.398 207.384 168.43C207.634 168.461 207.863 168.586 208.025 168.78C208.54 169.456 208.907 170.233 209.103 171.059C209.3 171.886 209.321 172.745 209.165 173.58C208.966 174.739 208.536 175.846 207.903 176.837C207.269 177.828 206.444 178.682 205.475 179.35C202.385 181.44 198.475 181.68 195.045 181.68Z" fill="#CC9EFF"/>
<path d="M270.075 258.14C264.835 258.14 259.345 257.79 254.195 255.86C253.525 255.61 251.465 254.86 251.195 252.95C250.995 251.49 251.995 250.1 253.945 249.14C260.045 246.14 267.075 246.14 273.325 246.32C272.261 245.826 271.148 245.444 270.005 245.18C269.852 245.185 269.699 245.155 269.559 245.092C269.419 245.028 269.296 244.934 269.198 244.815C269.101 244.696 269.032 244.557 268.997 244.407C268.962 244.258 268.962 244.102 268.997 243.953C269.032 243.803 269.101 243.664 269.199 243.545C269.297 243.426 269.42 243.332 269.56 243.269C269.7 243.206 269.853 243.176 270.006 243.181C270.16 243.186 270.31 243.227 270.445 243.3C272.902 243.877 275.223 244.93 277.275 246.4C278.735 247.4 281.145 249.65 280.865 252.58C280.701 253.641 280.256 254.639 279.575 255.469C278.894 256.299 278.003 256.931 276.995 257.3C275.184 257.943 273.265 258.228 271.345 258.14H270.075ZM269.655 248.2C264.655 248.2 259.375 248.6 254.805 250.86C253.925 251.3 253.025 252.01 253.115 252.68C253.205 253.35 254.115 253.77 254.875 254.06C260.145 256.06 265.875 256.26 271.335 256.21C273.007 256.297 274.681 256.063 276.265 255.52C276.951 255.283 277.561 254.869 278.034 254.319C278.507 253.769 278.824 253.103 278.955 252.39C279.155 250.39 277.065 248.62 276.165 247.97C275.695 247.64 275.225 247.33 274.725 247.04C274.74 247.133 274.74 247.227 274.725 247.32C274.727 247.449 274.702 247.577 274.651 247.696C274.601 247.815 274.526 247.922 274.432 248.01C274.338 248.099 274.227 248.166 274.105 248.209C273.983 248.252 273.854 248.27 273.725 248.26C272.475 248.23 271.055 248.2 269.655 248.2Z" fill="#CC9EFF"/>
<path d="M133.656 122.065L132.916 120.255C132.779 119.918 132.563 119.62 132.286 119.385C132.01 119.15 131.68 118.985 131.326 118.905L127.986 118.115C127.326 117.961 126.639 117.967 125.981 118.132C125.324 118.297 124.715 118.617 124.206 119.065L123.566 119.625C124.566 122.715 127.976 125.285 127.976 125.285L128.856 126.135C129.032 126.313 129.242 126.454 129.473 126.551C129.703 126.647 129.951 126.697 130.201 126.697C130.452 126.697 130.699 126.647 130.93 126.551C131.161 126.454 131.371 126.313 131.546 126.135L133.236 124.405C133.525 124.097 133.719 123.712 133.793 123.297C133.868 122.881 133.82 122.453 133.656 122.065Z" fill="#EBB376"/>
<path d="M93.7061 87.9046C98.5261 95.1946 103.096 102.635 107.566 110.145L105.806 108.725C109.316 110.175 112.806 111.725 116.286 113.245C119.286 114.645 123.686 116.635 126.636 118.165C127.039 118.403 127.346 118.776 127.503 119.218C127.659 119.66 127.655 120.142 127.492 120.582C127.329 121.021 127.017 121.389 126.61 121.622C126.203 121.855 125.728 121.937 125.266 121.855C117.976 120.055 110.436 117.765 103.316 115.445C102.575 115.199 101.947 114.695 101.546 114.025C96.5461 106.845 91.6761 99.6046 87.0261 92.2046C86.5967 91.3245 86.5051 90.3174 86.7687 89.3742C87.0322 88.4311 87.6326 87.6173 88.456 87.0873C89.2795 86.5572 90.2688 86.3477 91.2364 86.4983C92.204 86.6489 93.0828 87.1493 93.7061 87.9046Z" fill="#E9B376"/>
<path d="M102.546 100.064L93.6061 104.174L92.6061 103.174L88.7761 99.3445L88.2461 98.8145L91.7161 81.6045C97.9361 85.5145 102.546 100.064 102.546 100.064Z" fill="#263238"/>
<path opacity="0.2" d="M92.6054 103.195L88.7754 99.3643C89.5071 96.6666 90.9999 94.2365 93.0754 92.3643C93.8245 95.957 93.6629 99.68 92.6054 103.195Z" fill="black"/>
<path d="M65.5259 83.5141C64.1559 88.2341 63.6659 92.3341 62.7059 95.7241C61.0059 101.725 56.9059 117.315 54.8359 120.985L82.2659 122.335C86.6059 114.955 93.6059 97.064 94.6059 94.704C95.3789 92.8881 95.692 90.9096 95.5175 88.9438C95.3431 86.9779 94.6865 85.0855 93.6059 83.434C93.0986 82.7214 92.4647 82.1079 91.7359 81.624C90.6559 80.914 89.5159 80.184 88.3959 79.524C84.773 77.5501 80.7632 76.3898 76.6459 76.124C69.1459 76.114 66.6059 79.7741 65.5259 83.5141Z" fill="#263238"/>
<path d="M104.447 261.764L108.907 260.544C107.267 238.074 102.857 210.964 99.117 190.634C98.527 187.444 97.957 184.434 97.417 181.634C97.147 180.304 96.907 179.014 96.657 177.784C95.467 171.694 94.467 166.874 93.847 163.904C93.387 161.734 93.127 160.534 93.127 160.534L77.127 165.184L78.457 169.184L82.867 182.504L83.367 184.034L86.277 192.834L91.227 207.834C91.897 230.764 104.447 261.764 104.447 261.764Z" fill="#EBB376"/>
<path d="M65.6072 260.674L70.2072 260.234C72.6172 235.864 72.7072 205.524 72.3872 184.444C72.3272 181.174 72.2672 178.124 72.2072 175.354C72.2072 175.214 72.2072 175.084 72.2072 174.944C72.0772 169.454 71.9372 165.094 71.8372 162.334L71.6972 158.984L55.1172 160.834L56.1172 167.734L57.6072 177.874L57.9072 179.874L58.9072 186.784L61.6772 205.304C58.4972 227.984 65.6072 260.674 65.6072 260.674Z" fill="#EBB376"/>
<path opacity="0.2" d="M57.6072 177.874L72.1772 175.354C72.1772 175.214 72.1772 175.084 72.1772 174.944C72.0472 169.454 71.9072 165.094 71.8072 162.334L56.1172 167.734L57.6072 177.874Z" fill="black"/>
<path opacity="0.2" d="M95.4453 171.685L80.1153 174.285L78.4453 169.215L93.8453 163.895C94.2353 165.785 94.7953 168.435 95.4453 171.685Z" fill="black"/>
<path d="M55.7262 117.064C55.7262 117.064 45.7862 140.294 55.0762 173.974L73.1862 171.904V154.544L77.1062 171.274L95.2662 167.624C89.6862 140.294 84.6062 127.894 84.6062 127.894L83.6962 118.634L55.7262 117.064Z" fill="#CC9EFF"/>
<path d="M64.5762 123.295L79.5362 123.905V119.275L64.5762 118.625V123.295Z" fill="#263238"/>
<path d="M63.2562 118.574L55.7462 118.254L55.0762 122.914L63.2562 123.244V118.574Z" fill="#263238"/>
<path d="M80.6855 119.314V123.954L84.0455 124.094V119.464L80.6855 119.314Z" fill="#263238"/>
<path d="M78.1559 119.614C77.8014 119.252 77.3225 119.037 76.8159 119.014L73.2859 118.864C73.0811 118.843 72.8741 118.866 72.6786 118.93C72.4831 118.995 72.3034 119.1 72.1513 119.239C71.9993 119.377 71.8783 119.547 71.7964 119.736C71.7145 119.924 71.6734 120.129 71.6759 120.334V122.494C71.6876 122.986 71.8924 123.453 72.2459 123.794C72.5638 124.121 72.9836 124.329 73.4359 124.384H73.5959L77.1259 124.524C77.3299 124.544 77.5358 124.521 77.7301 124.455C77.9244 124.39 78.1028 124.285 78.2538 124.146C78.4047 124.008 78.5247 123.839 78.6061 123.651C78.6874 123.463 78.7282 123.259 78.7259 123.054V120.904C78.7074 120.417 78.5035 119.956 78.1559 119.614ZM77.0459 123.674L73.5159 123.534C73.2681 123.524 73.0345 123.416 72.8659 123.234C72.7788 123.154 72.709 123.057 72.6608 122.948C72.6127 122.84 72.5872 122.723 72.5859 122.604V120.444C72.5854 120.345 72.6058 120.247 72.6458 120.156C72.6858 120.064 72.7444 119.983 72.8179 119.916C72.8915 119.849 72.9782 119.798 73.0726 119.767C73.167 119.736 73.2669 119.725 73.3659 119.734L76.8959 119.884H76.9759C77.1925 119.916 77.3928 120.018 77.5459 120.174C77.6317 120.255 77.6999 120.353 77.7464 120.461C77.7928 120.57 77.8165 120.687 77.8159 120.804V121.134C77.773 121.126 77.7288 121.126 77.6859 121.134L76.6859 121.084C76.6113 121.077 76.536 121.086 76.4653 121.111C76.3946 121.135 76.3302 121.175 76.2767 121.228C76.2233 121.28 76.182 121.344 76.156 121.414C76.1299 121.485 76.1196 121.56 76.1259 121.634C76.1483 121.795 76.225 121.943 76.3432 122.054C76.4615 122.165 76.6142 122.232 76.7759 122.244L77.7759 122.294V123.004C77.772 123.096 77.7501 123.187 77.7113 123.27C77.6725 123.354 77.6176 123.429 77.5498 123.491C77.482 123.553 77.4026 123.601 77.3161 123.633C77.2297 123.664 77.1378 123.678 77.0459 123.674Z" fill="white"/>
<path d="M63.4053 259.734C63.4053 259.164 70.5253 259.614 70.5253 259.614C70.5253 259.614 74.8953 264.054 79.1353 265.054C83.3753 266.054 81.0153 268.604 76.2653 268.604H64.5253C61.1553 268.604 63.2653 265.734 63.4053 259.734Z" fill="#263238"/>
<path d="M74.257 261.435C73.2329 261.304 72.2386 261 71.317 260.535C71.2929 260.524 71.2722 260.506 71.257 260.485C71.2425 260.439 71.2425 260.39 71.257 260.345C71.257 260.265 71.887 258.615 72.847 258.215C72.9913 258.148 73.1482 258.114 73.307 258.114C73.4658 258.114 73.6227 258.148 73.767 258.215C74.087 258.365 74.247 258.565 74.237 258.815C74.227 259.065 73.707 259.565 73.127 259.815C73.6634 259.726 74.214 259.788 74.717 259.995C74.8105 260.043 74.8927 260.111 74.9582 260.194C75.0237 260.277 75.071 260.372 75.097 260.475C75.1499 260.603 75.162 260.745 75.1316 260.881C75.1012 261.017 75.0298 261.141 74.927 261.235C74.735 261.38 74.4971 261.451 74.257 261.435ZM71.967 260.435C72.967 260.875 74.317 261.265 74.647 260.995C74.647 260.995 74.767 260.895 74.647 260.615C74.615 260.509 74.5434 260.419 74.447 260.365C73.6309 260.157 72.774 260.175 71.967 260.415V260.435ZM73.237 258.435C73.1374 258.436 73.039 258.456 72.947 258.495C72.383 258.874 71.9554 259.424 71.727 260.065C72.787 259.665 73.797 259.065 73.817 258.795C73.817 258.695 73.667 258.605 73.567 258.555C73.4656 258.498 73.353 258.464 73.237 258.455V258.435Z" fill="#CC9EFF"/>
<path d="M103.177 259.734C103.177 259.164 110.297 259.614 110.297 259.614C110.297 259.614 114.667 264.054 118.917 265.054C123.167 266.054 120.787 268.604 116.047 268.604H104.307C100.927 268.604 103.037 265.734 103.177 259.734Z" fill="#263238"/>
<path opacity="0.2" d="M73.1855 154.545C76.2855 148.145 78.4455 142.885 78.4455 142.885C78.4455 142.885 79.1255 159.075 77.1055 171.275L73.1855 154.545Z" fill="black"/>
<path d="M133.971 109.951L137.146 120.378L154.882 114.976L151.706 104.549L133.971 109.951Z" fill="#263238"/>
<path opacity="0.1" d="M133.971 109.951L137.146 120.378L154.882 114.976L151.706 104.549L133.971 109.951Z" fill="white"/>
<path opacity="0.3" d="M154.151 112.604L136.406 118.009L137.132 120.391L154.877 114.986L154.151 112.604Z" fill="black"/>
<path d="M186.926 132.677C205.624 131.834 220.099 115.994 219.256 97.2958C218.414 78.5978 202.573 64.1231 183.875 64.9657C165.177 65.8082 150.703 81.6489 151.545 100.347C152.388 119.045 168.228 133.52 186.926 132.677Z" fill="#CC9EFF"/>
<path opacity="0.8" d="M186.926 132.677C205.624 131.834 220.099 115.994 219.256 97.2958C218.414 78.5978 202.573 64.1231 183.875 64.9657C165.177 65.8082 150.703 81.6489 151.545 100.347C152.388 119.045 168.228 133.52 186.926 132.677Z" fill="white"/>
<path opacity="0.2" d="M219.606 94.4542V110.504H160.936V75.3742C164.943 71.1846 169.966 68.1017 175.516 66.4242C176.706 66.0652 177.914 65.7682 179.136 65.5342H191.606C197.689 66.6768 203.343 69.4636 207.955 73.5922C212.567 77.7209 215.96 83.0337 217.766 88.9542C218.243 90.5263 218.607 92.1303 218.856 93.7542L219.606 94.4542Z" fill="black"/>
<path opacity="0.4" d="M219.626 94.4542V110.504H160.936V104.384L179.696 88.9242L190.276 98.6242L208.116 83.5542L218.896 93.7542V93.7642L219.626 94.4542Z" fill="white"/>
<path opacity="0.4" d="M179.606 78.5444C179.608 79.6014 179.296 80.6352 178.71 81.5149C178.124 82.3946 177.29 83.0806 176.314 83.486C175.338 83.8914 174.263 83.998 173.226 83.7922C172.19 83.5865 171.237 83.0777 170.49 82.3303C169.742 81.5829 169.234 80.6305 169.028 79.5937C168.822 78.5569 168.929 77.4824 169.334 76.5062C169.74 75.5301 170.426 74.6962 171.305 74.1102C172.185 73.5242 173.219 73.2124 174.276 73.2144C174.976 73.2144 175.669 73.3522 176.315 73.6201C176.962 73.888 177.55 74.2806 178.045 74.7755C178.54 75.2704 178.932 75.858 179.2 76.5047C179.468 77.1513 179.606 77.8444 179.606 78.5444Z" fill="white"/>
<path opacity="0.2" d="M211.256 120.725C210.523 121.601 209.742 122.436 208.916 123.225H160.916V120.725H211.256Z" fill="black"/>
<path opacity="0.2" d="M203.606 127.425C202.1 128.385 200.518 129.222 198.876 129.925H171.876C170.241 129.221 168.665 128.385 167.166 127.425H203.606Z" fill="black"/>
<path d="M158.607 119.415L158.527 119.485C158.157 119.005 157.797 118.485 157.457 118.015C164.947 111.775 196.637 113.065 201.927 117.235C202.02 117.308 202.098 117.399 202.156 117.503C202.214 117.607 202.251 117.721 202.265 117.839C202.279 117.956 202.27 118.076 202.237 118.19C202.205 118.305 202.151 118.411 202.077 118.505C202.003 118.598 201.912 118.676 201.809 118.734C201.705 118.792 201.591 118.829 201.473 118.843C201.355 118.857 201.236 118.847 201.121 118.815C201.007 118.783 200.9 118.728 200.807 118.655C196.197 115.065 165.307 113.815 158.607 119.415Z" fill="#CC9EFF"/>
<path d="M206.137 117.594C205.447 121.844 193.837 125.594 183.347 127.344C179.261 128.027 175.129 128.388 170.987 128.424C170.237 128.424 169.507 128.424 168.787 128.374C168.247 128.074 167.717 127.764 167.197 127.424C166.677 127.084 166.087 126.694 165.547 126.294C171.387 126.867 177.278 126.614 183.047 125.544C195.307 123.544 203.967 119.664 204.347 117.304C204.467 116.584 203.527 115.924 202.727 115.494C202.515 115.38 202.357 115.187 202.286 114.957C202.215 114.727 202.237 114.478 202.347 114.265C202.461 114.053 202.655 113.895 202.885 113.825C203.116 113.756 203.365 113.781 203.577 113.894C205.997 115.164 206.307 116.614 206.137 117.594Z" fill="#CC9EFF"/>
<path d="M214.877 82.1242L205.447 82.3242C205.21 82.3217 204.983 82.2278 204.813 82.0619C204.644 81.8961 204.545 81.6712 204.537 81.4342C204.536 81.3147 204.558 81.1961 204.603 81.0852C204.647 80.9743 204.713 80.8732 204.797 80.7878C204.88 80.7023 204.98 80.6342 205.09 80.5873C205.2 80.5403 205.318 80.5155 205.437 80.5142L213.797 80.3242C214.167 80.9142 214.537 81.5142 214.877 82.1242Z" fill="#CC9EFF"/>
<path d="M216.607 85.5744H211.467C211.225 85.5744 210.994 85.4785 210.823 85.3079C210.653 85.1372 210.557 84.9057 210.557 84.6644C210.557 84.4231 210.653 84.1916 210.823 84.0209C210.994 83.8503 211.225 83.7544 211.467 83.7544H215.767C216.037 84.3444 216.317 84.9544 216.607 85.5744Z" fill="#CC9EFF"/>
<path d="M175.436 66.7041C168.55 68.8004 162.441 72.8914 157.881 78.4598C153.321 84.0281 150.514 90.8239 149.816 97.9874C149.118 105.151 150.56 112.361 153.96 118.705C157.359 125.049 162.563 130.242 168.915 133.628C175.266 137.014 182.478 138.441 189.64 137.728C196.802 137.014 203.592 134.193 209.151 129.621C214.709 125.049 218.788 118.932 220.869 112.042C222.951 105.152 222.943 97.7993 220.846 90.9141C218.034 81.6822 211.67 73.9454 203.154 69.4052C194.639 64.865 184.668 63.8934 175.436 66.7041ZM176.696 70.8341C182.766 68.9828 189.25 68.9739 195.326 70.8083C201.402 72.6427 206.797 76.238 210.829 81.1395C214.861 86.041 217.348 92.0283 217.976 98.3439C218.604 104.66 217.345 111.02 214.358 116.619C211.37 122.219 206.789 126.807 201.193 129.802C195.598 132.797 189.24 134.065 182.923 133.446C176.607 132.827 170.616 130.348 165.709 126.323C160.802 122.298 157.199 116.908 155.356 110.834C152.888 102.7 153.748 93.9187 157.75 86.4188C161.751 78.919 168.565 73.3137 176.696 70.8341Z" fill="#263238"/>
<path opacity="0.1" d="M175.436 66.7041C168.55 68.8004 162.441 72.8914 157.881 78.4598C153.321 84.0281 150.514 90.8239 149.816 97.9874C149.118 105.151 150.56 112.361 153.96 118.705C157.359 125.049 162.563 130.242 168.915 133.628C175.266 137.014 182.478 138.441 189.64 137.728C196.802 137.014 203.592 134.193 209.151 129.621C214.709 125.049 218.788 118.932 220.869 112.042C222.951 105.152 222.943 97.7993 220.846 90.9141C218.034 81.6822 211.67 73.9454 203.154 69.4052C194.639 64.865 184.668 63.8934 175.436 66.7041ZM176.696 70.8341C182.766 68.9828 189.25 68.9739 195.326 70.8083C201.402 72.6427 206.797 76.238 210.829 81.1395C214.861 86.041 217.348 92.0283 217.976 98.3439C218.604 104.66 217.345 111.02 214.358 116.619C211.37 122.219 206.789 126.807 201.193 129.802C195.598 132.797 189.24 134.065 182.923 133.446C176.607 132.827 170.616 130.348 165.709 126.323C160.802 122.298 157.199 116.908 155.356 110.834C152.888 102.7 153.748 93.9187 157.75 86.4188C161.751 78.919 168.565 73.3137 176.696 70.8341Z" fill="white"/>
<path d="M174.476 63.5444C167.59 65.6413 161.482 69.733 156.922 75.3021C152.362 80.8712 149.556 87.6674 148.859 94.8312C148.161 101.995 149.604 109.205 153.005 115.549C156.406 121.892 161.611 127.085 167.963 130.47C174.315 133.855 181.528 135.281 188.69 134.566C195.853 133.851 202.642 131.029 208.2 126.456C213.758 121.882 217.835 115.763 219.915 108.873C221.995 101.982 221.985 94.6293 219.886 87.7444C217.072 78.5143 210.708 70.7798 202.192 66.2416C193.676 61.7034 183.707 60.7332 174.476 63.5444ZM175.726 67.6644C181.796 65.8112 188.28 65.8003 194.357 67.6331C200.433 69.4659 205.83 73.0601 209.863 77.9609C213.896 82.8616 216.385 88.8486 217.015 95.1643C217.644 101.48 216.386 107.841 213.4 113.441C210.413 119.042 205.833 123.63 200.237 126.627C194.642 129.623 188.284 130.892 181.967 130.274C175.65 129.655 169.659 127.177 164.751 123.152C159.843 119.128 156.24 113.738 154.396 107.664C151.927 99.5316 152.787 90.7514 156.786 83.2518C160.785 75.7522 167.597 70.1461 175.726 67.6644Z" fill="#263238"/>
<path opacity="0.3" d="M174.476 63.5444C167.59 65.6413 161.482 69.733 156.922 75.3021C152.362 80.8712 149.556 87.6674 148.859 94.8312C148.161 101.995 149.604 109.205 153.005 115.549C156.406 121.892 161.611 127.085 167.963 130.47C174.315 133.855 181.528 135.281 188.69 134.566C195.853 133.851 202.642 131.029 208.2 126.456C213.758 121.882 217.835 115.763 219.915 108.873C221.995 101.982 221.985 94.6293 219.886 87.7444C217.072 78.5143 210.708 70.7798 202.192 66.2416C193.676 61.7034 183.707 60.7332 174.476 63.5444ZM175.726 67.6644C181.796 65.8112 188.28 65.8003 194.357 67.6331C200.433 69.4659 205.83 73.0601 209.863 77.9609C213.896 82.8616 216.385 88.8486 217.015 95.1643C217.644 101.48 216.386 107.841 213.4 113.441C210.413 119.042 205.833 123.63 200.237 126.627C194.642 129.623 188.284 130.892 181.967 130.274C175.65 129.655 169.659 127.177 164.751 123.152C159.843 119.128 156.24 113.738 154.396 107.664C151.927 99.5316 152.787 90.7514 156.786 83.2518C160.785 75.7522 167.597 70.1461 175.726 67.6644Z" fill="white"/>
<path d="M77.0064 133.004C77.5675 134.849 78.8382 136.395 80.5391 137.303C82.2401 138.21 84.2318 138.405 86.0764 137.844L138.346 121.924C138.648 121.832 138.927 121.681 139.17 121.48C139.412 121.279 139.612 121.031 139.758 120.752C139.904 120.473 139.993 120.168 140.02 119.854C140.048 119.54 140.012 119.224 139.916 118.924L137.056 109.544C136.874 108.944 136.461 108.441 135.908 108.145C135.355 107.849 134.707 107.784 134.106 107.964L81.8364 123.884C80.9192 124.164 80.0662 124.622 79.3265 125.233C78.5868 125.843 77.975 126.593 77.5262 127.441C77.0774 128.288 76.8005 129.216 76.7113 130.171C76.622 131.126 76.7224 132.089 77.0064 133.004Z" fill="#263238"/>
<path opacity="0.3" d="M77.0064 133.004C77.5675 134.849 78.8382 136.395 80.5391 137.303C82.2401 138.21 84.2318 138.405 86.0764 137.844L138.346 121.924C138.648 121.832 138.927 121.681 139.17 121.48C139.412 121.279 139.612 121.031 139.758 120.752C139.904 120.473 139.993 120.168 140.02 119.854C140.048 119.54 140.012 119.224 139.916 118.924L137.056 109.544C136.874 108.944 136.461 108.441 135.908 108.145C135.355 107.849 134.707 107.784 134.106 107.964L81.8364 123.884C80.9192 124.164 80.0662 124.622 79.3265 125.233C78.5868 125.843 77.975 126.593 77.5262 127.441C77.0774 128.288 76.8005 129.216 76.7113 130.171C76.622 131.126 76.7224 132.089 77.0064 133.004Z" fill="white"/>
<path opacity="0.3" d="M76.7461 131.784C76.7884 132.199 76.8756 132.608 77.0061 133.004C77.2838 133.918 77.7388 134.767 78.3451 135.504C78.9514 136.241 79.6971 136.852 80.5396 137.3C81.382 137.749 82.3046 138.027 83.2546 138.119C84.2046 138.21 85.1634 138.114 86.0761 137.834L138.346 121.914C138.649 121.825 138.93 121.675 139.174 121.474C139.418 121.274 139.619 121.026 139.765 120.746C139.912 120.467 140 120.16 140.026 119.846C140.052 119.531 140.015 119.214 139.916 118.914L139.196 116.544C139.293 116.845 139.329 117.162 139.302 117.477C139.275 117.791 139.185 118.098 139.038 118.377C138.891 118.657 138.689 118.904 138.445 119.104C138.201 119.305 137.919 119.454 137.616 119.544L85.3561 135.464C83.7175 135.966 81.9543 135.871 80.3786 135.198C78.8028 134.524 77.5161 133.315 76.7461 131.784Z" fill="black"/>
<path opacity="0.3" d="M82.2872 127.654C81.8858 127.857 81.5508 128.171 81.3216 128.558C81.0924 128.945 80.9785 129.389 80.9935 129.839C81.0085 130.289 81.1516 130.724 81.406 131.095C81.6605 131.466 82.0156 131.757 82.4297 131.933C82.8437 132.108 83.2993 132.162 83.7429 132.088C84.1865 132.013 84.5996 131.814 84.9335 131.512C85.2674 131.211 85.5082 130.82 85.6276 130.387C85.7469 129.953 85.7399 129.494 85.6072 129.064C85.3498 128.441 84.8573 127.943 84.2361 127.679C83.6149 127.415 82.9149 127.406 82.2872 127.654Z" fill="black"/>
<path opacity="0.4" d="M195.876 78.9844C192.676 81.1644 192.406 86.3144 195.256 90.4944C198.106 94.6744 202.996 96.3044 206.196 94.1244C209.396 91.9444 209.666 86.7944 206.816 82.6144C203.966 78.4344 199.066 76.8144 195.876 78.9844Z" fill="white"/>
<path opacity="0.4" d="M190.857 91.8444C190.461 91.9806 190.118 92.2375 189.876 92.579C189.634 92.9205 189.505 93.3293 189.508 93.7479C189.51 94.1664 189.644 94.5736 189.89 94.9121C190.137 95.2506 190.483 95.5033 190.88 95.6347C191.278 95.766 191.706 95.7693 192.106 95.6442C192.505 95.519 192.855 95.2717 193.107 94.9371C193.358 94.6024 193.498 94.1973 193.507 93.7789C193.516 93.3604 193.394 92.9496 193.157 92.6044C192.946 92.2056 192.589 91.9038 192.16 91.7622C191.731 91.6206 191.265 91.65 190.857 91.8444Z" fill="white"/>
<path d="M91.0164 77.1442C90.342 77.6445 89.7219 78.2143 89.1664 78.8442C87.8264 80.4342 87.2664 82.4342 89.0664 85.0942C89.0664 85.0942 89.5964 86.9542 85.7964 87.8042C83.3564 79.0642 80.3164 77.0642 80.3164 77.0642C82.1364 76.9642 84.0164 75.3342 85.6764 73.3042C86.712 72.0137 87.648 70.6465 88.4764 69.2142C88.8764 68.5442 89.2264 67.9042 89.4764 67.3242L89.7864 69.3242L91.0164 77.1442Z" fill="#EBB376"/>
<path opacity="0.2" d="M91.0158 77.1446C90.3413 77.6449 89.7213 78.2147 89.1658 78.8446C87.5191 77.3386 86.3128 75.4133 85.6758 73.2746C86.7114 71.9841 87.6474 70.6169 88.4758 69.1846C88.9258 69.1846 89.3758 69.2646 89.8358 69.3246L91.0158 77.1446Z" fill="black"/>
<path d="M92.7758 53.4542C92.7758 53.4542 97.6858 47.8042 91.7758 43.0642C85.8658 38.3242 74.2858 40.4642 72.1458 51.1642C70.0058 61.8642 72.9558 66.3842 72.9558 66.3842C72.9558 66.3842 72.9558 59.5742 74.9558 57.5842C74.6411 59.31 74.6411 61.0784 74.9558 62.8042C75.5458 64.8042 74.9558 63.5242 74.9558 63.5242C74.9558 63.5242 76.7658 54.9842 85.4858 57.4342C94.2058 59.8842 92.7758 53.4542 92.7758 53.4542Z" fill="#263238"/>
<path d="M97.547 54.3142C104.017 56.3142 105.047 60.3942 103.487 67.2042C101.537 75.7242 97.877 81.0842 90.327 76.8342C80.077 71.0642 86.797 51.0642 97.547 54.3142Z" fill="#EBB376"/>
<path d="M99.4069 65.5645C99.6285 66.6909 99.9879 67.7858 100.477 68.8244C100.205 69.0328 99.8816 69.1625 99.5413 69.1995C99.2009 69.2366 98.857 69.1795 98.5469 69.0345L99.4069 65.5645Z" fill="#D58745"/>
<path d="M95.6059 63.8344C95.4559 64.3644 95.0459 64.7144 94.6859 64.6144C94.3259 64.5144 94.1659 64.0044 94.3159 63.4644C94.4659 62.9244 94.8759 62.5844 95.2359 62.6844C95.5959 62.7844 95.7559 63.2944 95.6059 63.8344Z" fill="#263238"/>
<path d="M95.0762 62.6642L96.3662 62.5342C96.3662 62.5342 95.5162 63.3542 95.0762 62.6642Z" fill="#263238"/>
<path d="M102.295 65.5844C102.145 66.1144 101.735 66.4644 101.375 66.3644C101.015 66.2644 100.855 65.7544 101.005 65.2144C101.155 64.6744 101.565 64.3344 101.915 64.4344C102.265 64.5344 102.445 65.0644 102.295 65.5844Z" fill="#263238"/>
<path d="M101.766 64.4142L103.056 64.2842C103.056 64.2842 102.206 65.0642 101.766 64.4142Z" fill="#263238"/>
<path d="M93.7968 59.7444C93.7517 59.7445 93.7072 59.7336 93.6671 59.7127C93.6271 59.6918 93.5927 59.6615 93.5668 59.6244C93.5279 59.5615 93.5145 59.4861 93.5294 59.4136C93.5442 59.341 93.5863 59.277 93.6468 59.2344C94.1604 58.9501 94.7328 58.7886 95.3192 58.7625C95.9057 58.7365 96.4901 58.8467 97.0268 59.0845C97.0604 59.0994 97.0905 59.1211 97.1153 59.1481C97.1402 59.1751 97.1593 59.2069 97.1715 59.2415C97.1836 59.2761 97.1886 59.3129 97.1861 59.3495C97.1836 59.3861 97.1736 59.4218 97.1568 59.4545C97.1263 59.522 97.0702 59.5747 97.0008 59.601C96.9314 59.6272 96.8545 59.6249 96.7868 59.5945C96.3382 59.3965 95.8505 59.3027 95.3604 59.32C94.8703 59.3373 94.3904 59.4654 93.9568 59.6945C93.9093 59.726 93.8538 59.7433 93.7968 59.7444Z" fill="#263238"/>
<path d="M104.106 62.0646C104.065 62.0642 104.024 62.054 103.988 62.0349C103.951 62.0158 103.92 61.9882 103.896 61.9546C103.647 61.5996 103.32 61.3061 102.941 61.0964C102.561 60.8867 102.139 60.7664 101.706 60.7446C101.632 60.7446 101.56 60.7151 101.508 60.6626C101.455 60.6101 101.426 60.5388 101.426 60.4646C101.426 60.3903 101.455 60.3191 101.508 60.2666C101.56 60.2141 101.632 60.1846 101.706 60.1846C102.227 60.2 102.738 60.3363 103.198 60.5827C103.658 60.8291 104.054 61.1789 104.356 61.6046C104.382 61.6298 104.403 61.66 104.417 61.6936C104.432 61.7271 104.439 61.7631 104.439 61.7996C104.439 61.836 104.432 61.8721 104.417 61.9056C104.403 61.9391 104.382 61.9694 104.356 61.9946C104.325 62.029 104.285 62.0539 104.241 62.0663C104.197 62.0787 104.15 62.0781 104.106 62.0646Z" fill="#263238"/>
<path d="M87.1471 63.0645C87.1471 63.0645 91.7871 58.6745 92.5871 54.4245C92.5871 54.4245 107.007 53.1045 103.667 66.3145C103.667 66.3145 108.447 55.1345 97.3971 51.4845C86.3471 47.8345 81.3971 64.1245 85.7071 70.7245C85.7071 70.7245 84.2571 65.8245 87.1471 63.0645Z" fill="#263238"/>
<path d="M97.0458 71.9545C96.19 71.9655 95.3586 71.6686 94.7033 71.1179C94.0481 70.5672 93.6124 69.7995 93.4758 68.9545C93.4702 68.9182 93.4721 68.8812 93.4812 68.8457C93.4904 68.8102 93.5067 68.7769 93.5292 68.7479C93.5516 68.7189 93.5798 68.6947 93.6118 68.6769C93.6439 68.6592 93.6793 68.6481 93.7158 68.6445C93.7886 68.6359 93.8619 68.6563 93.9198 68.7012C93.9778 68.746 94.0159 68.8119 94.0258 68.8845C94.1343 69.5998 94.4977 70.2519 95.049 70.7205C95.6003 71.1891 96.3023 71.4427 97.0258 71.4345C97.1001 71.4345 97.1713 71.464 97.2238 71.5165C97.2763 71.569 97.3058 71.6402 97.3058 71.7145C97.3058 71.7887 97.2763 71.86 97.2238 71.9125C97.1713 71.965 97.1001 71.9945 97.0258 71.9945L97.0458 71.9545Z" fill="#263238"/>
<path d="M86.0255 61.7741C86.0146 61.8152 86.0187 61.8589 86.037 61.8974C86.0553 61.9358 86.0867 61.9665 86.1255 61.9841L92.7155 63.5141C92.6186 64.1355 92.7286 64.7716 93.0286 65.3245C93.3285 65.8773 93.8017 66.3164 94.3755 66.574C95.1334 66.9477 96.0016 67.032 96.8172 66.8111C97.6328 66.5901 98.3398 66.0792 98.8055 65.3741C98.8812 65.2365 98.9448 65.0927 98.9955 64.9441C99.1127 64.8468 99.2486 64.7744 99.3947 64.7314C99.5409 64.6884 99.6943 64.6757 99.8455 64.6941C99.9289 64.7276 100.003 64.7805 100.062 64.8482C100.121 64.916 100.164 64.9968 100.185 65.0841C100.105 65.6971 100.224 66.3198 100.525 66.8601C100.825 67.4004 101.292 67.8295 101.855 68.0841C102.611 68.4593 103.479 68.5444 104.293 68.3233C105.108 68.1021 105.813 67.5901 106.275 66.8841C106.476 66.5401 106.602 66.1574 106.644 65.7612C106.685 65.3651 106.642 64.9647 106.517 64.5864C106.393 64.2082 106.189 63.8608 105.92 63.5673C105.65 63.2738 105.322 63.0409 104.955 62.8841C104.198 62.5082 103.329 62.4227 102.513 62.6438C101.697 62.8649 100.99 63.3772 100.525 64.0841C100.449 64.2225 100.382 64.3662 100.325 64.5141C100.24 64.4118 100.124 64.3385 99.9955 64.3041C99.7088 64.2231 99.4023 64.2516 99.1355 64.3841C99.2218 63.7716 99.1065 63.1477 98.8071 62.6065C98.5076 62.0653 98.0402 61.6363 97.4755 61.3841C96.7191 61.0072 95.851 60.9202 95.035 61.1394C94.2189 61.3587 93.5112 61.869 93.0455 62.574C92.9455 62.7563 92.8619 62.9471 92.7955 63.1441L86.2355 61.6241C86.1884 61.6202 86.1415 61.6332 86.1031 61.6607C86.0646 61.6881 86.0371 61.7283 86.0255 61.7741ZM100.935 64.324C101.345 63.7134 101.964 63.2743 102.675 63.09C103.387 62.9056 104.141 62.9889 104.795 63.324C105.116 63.4599 105.404 63.6624 105.64 63.918C105.876 64.1737 106.054 64.4768 106.164 64.8069C106.274 65.1371 106.312 65.4869 106.276 65.833C106.24 66.1791 106.131 66.5135 105.955 66.8141C105.554 67.4332 104.938 67.8826 104.226 68.0763C103.514 68.27 102.755 68.1945 102.095 67.8641C101.768 67.7293 101.474 67.5252 101.233 67.2658C100.992 67.0064 100.81 66.6978 100.7 66.3614C100.59 66.0249 100.554 65.6686 100.594 65.3168C100.635 64.9651 100.751 64.6264 100.935 64.324ZM93.4555 62.7741C93.8571 62.1549 94.4728 61.7055 95.1849 61.5118C95.8971 61.3181 96.6556 61.3937 97.3155 61.7241C97.6358 61.8599 97.9236 62.0624 98.1596 62.3181C98.3955 62.5737 98.5744 62.8768 98.6841 63.2069C98.7938 63.5371 98.832 63.8869 98.796 64.233C98.7601 64.579 98.6508 64.9135 98.4755 65.214C98.0663 65.8247 97.4472 66.2638 96.7357 66.4481C96.0241 66.6325 95.2697 66.5492 94.6155 66.214C94.302 66.0774 94.0207 65.8766 93.7895 65.6246C93.5583 65.3727 93.3824 65.0751 93.2732 64.7511C93.1639 64.4271 93.1237 64.0838 93.1551 63.7433C93.1865 63.4028 93.2888 63.0726 93.4555 62.7741Z" fill="#263238"/>
<g opacity="0.3">
<path d="M86.0255 61.7741C86.0146 61.8152 86.0187 61.8589 86.037 61.8974C86.0553 61.9358 86.0867 61.9665 86.1255 61.9841L92.7155 63.5141C92.6186 64.1355 92.7286 64.7716 93.0286 65.3245C93.3285 65.8773 93.8017 66.3164 94.3755 66.574C95.1334 66.9477 96.0016 67.032 96.8172 66.8111C97.6328 66.5901 98.3398 66.0792 98.8055 65.3741C98.8812 65.2365 98.9448 65.0927 98.9955 64.9441C99.1127 64.8468 99.2486 64.7744 99.3947 64.7314C99.5409 64.6884 99.6943 64.6757 99.8455 64.6941C99.9289 64.7276 100.003 64.7805 100.062 64.8482C100.121 64.916 100.164 64.9968 100.185 65.0841C100.105 65.6971 100.224 66.3198 100.525 66.8601C100.825 67.4004 101.292 67.8295 101.855 68.0841C102.611 68.4593 103.479 68.5444 104.293 68.3233C105.108 68.1021 105.813 67.5901 106.275 66.8841C106.476 66.5401 106.602 66.1574 106.644 65.7612C106.685 65.3651 106.642 64.9647 106.517 64.5864C106.393 64.2082 106.189 63.8608 105.92 63.5673C105.65 63.2738 105.322 63.0409 104.955 62.8841C104.198 62.5082 103.329 62.4227 102.513 62.6438C101.697 62.8649 100.99 63.3772 100.525 64.0841C100.449 64.2225 100.382 64.3662 100.325 64.5141C100.24 64.4118 100.124 64.3385 99.9955 64.3041C99.7088 64.2231 99.4023 64.2516 99.1355 64.3841C99.2218 63.7716 99.1065 63.1477 98.8071 62.6065C98.5076 62.0653 98.0402 61.6363 97.4755 61.3841C96.7191 61.0072 95.851 60.9202 95.035 61.1394C94.2189 61.3587 93.5112 61.869 93.0455 62.574C92.9455 62.7563 92.8619 62.9471 92.7955 63.1441L86.2355 61.6241C86.1884 61.6202 86.1415 61.6332 86.1031 61.6607C86.0646 61.6881 86.0371 61.7283 86.0255 61.7741ZM100.935 64.324C101.345 63.7134 101.964 63.2743 102.675 63.09C103.387 62.9056 104.141 62.9889 104.795 63.324C105.116 63.4599 105.404 63.6624 105.64 63.918C105.876 64.1737 106.054 64.4768 106.164 64.8069C106.274 65.1371 106.312 65.4869 106.276 65.833C106.24 66.1791 106.131 66.5135 105.955 66.8141C105.554 67.4332 104.938 67.8826 104.226 68.0763C103.514 68.27 102.755 68.1945 102.095 67.8641C101.768 67.7293 101.474 67.5252 101.233 67.2658C100.992 67.0064 100.81 66.6978 100.7 66.3614C100.59 66.0249 100.554 65.6686 100.594 65.3168C100.635 64.9651 100.751 64.6264 100.935 64.324ZM93.4555 62.7741C93.8571 62.1549 94.4728 61.7055 95.1849 61.5118C95.8971 61.3181 96.6556 61.3937 97.3155 61.7241C97.6358 61.8599 97.9236 62.0624 98.1596 62.3181C98.3955 62.5737 98.5744 62.8768 98.6841 63.2069C98.7938 63.5371 98.832 63.8869 98.796 64.233C98.7601 64.579 98.6508 64.9135 98.4755 65.214C98.0663 65.8247 97.4472 66.2638 96.7357 66.4481C96.0241 66.6325 95.2697 66.5492 94.6155 66.214C94.302 66.0774 94.0207 65.8766 93.7895 65.6246C93.5583 65.3727 93.3824 65.0751 93.2732 64.7511C93.1639 64.4271 93.1237 64.0838 93.1551 63.7433C93.1865 63.4028 93.2888 63.0726 93.4555 62.7741Z" fill="white"/>
</g>
<path d="M87.7855 64.7546C87.9409 63.9877 87.7905 63.1903 87.3664 62.5327C86.9424 61.8751 86.2781 61.4094 85.5155 61.2346C83.4455 60.8346 81.2355 64.6645 85.9155 67.1745C86.6055 67.5345 87.2055 66.9546 87.7855 64.7546Z" fill="#EBB376"/>
<path opacity="0.2" d="M66.6059 86.1441C66.6059 86.1441 64.0859 100.305 72.6059 107.635C81.1259 114.965 81.0659 93.6941 79.1059 86.7041C77.6059 81.3541 66.6059 86.1441 66.6059 86.1441Z" fill="black"/>
<path d="M98.6056 133.565L98.6656 131.615C98.6775 131.252 98.6019 130.892 98.4453 130.565C98.2886 130.237 98.0555 129.953 97.7656 129.735L95.0356 127.655C94.497 127.246 93.8682 126.971 93.202 126.855C92.5357 126.738 91.8512 126.783 91.2056 126.985L90.3856 127.235C90.0656 130.465 92.1056 134.235 92.1056 134.235L92.5656 135.365C92.6543 135.599 92.7884 135.813 92.9603 135.995C93.1321 136.177 93.3383 136.324 93.5669 136.426C93.7955 136.528 94.0421 136.584 94.2924 136.591C94.5428 136.598 94.7919 136.555 95.0256 136.465L97.2756 135.575C97.6704 135.407 98.0071 135.128 98.2437 134.77C98.4802 134.413 98.6061 133.993 98.6056 133.565Z" fill="#EBB376"/>
<path d="M76.0367 86.0645C77.4767 94.6845 78.6167 103.345 79.6467 112.065L78.6467 110.065C81.2667 112.831 83.8467 115.635 86.3867 118.475C88.5967 120.995 91.7667 124.585 93.8267 127.175C94.0945 127.557 94.2202 128.02 94.1821 128.485C94.144 128.951 93.9445 129.388 93.6182 129.721C93.2918 130.055 92.8591 130.263 92.395 130.312C91.9309 130.36 91.4645 130.244 91.0767 129.985C85.1567 125.375 79.2067 120.215 73.6367 115.195C73.0822 114.664 72.7288 113.957 72.6367 113.195C71.0067 104.615 69.4867 96.0045 68.2667 87.3545C68.244 86.3835 68.5753 85.4374 69.1988 84.6927C69.8224 83.9481 70.6956 83.4557 71.6555 83.3076C72.6154 83.1594 73.5964 83.3656 74.4155 83.8876C75.2345 84.4096 75.8357 85.2118 76.1067 86.1445L76.0367 86.0645Z" fill="#E9B376"/>
<path d="M74.1361 77.624C69.1361 78.174 65.0361 80.344 67.2061 95.814L79.4561 95.184C79.4561 95.184 80.0461 76.964 74.1361 77.624Z" fill="#263238"/>
<path d="M340.096 58.2241C333.266 59.6541 325.986 87.0941 325.986 87.0941L332.086 93.6741L342.996 73.6741L340.096 58.2241Z" fill="#263238"/>
<path opacity="0.2" d="M342.996 73.6841L342.766 74.1141L333.646 90.8341L332.086 93.6841L325.986 87.0941C325.986 87.0941 333.256 59.6741 340.086 58.2241L342.996 73.6841Z" fill="white"/>
<path opacity="0.1" d="M342.766 74.0844L333.646 90.8044C333.646 90.5244 333.646 90.2244 333.646 89.8944C334.466 77.1744 341.556 70.4644 341.556 70.4644C342.144 71.6013 342.552 72.8225 342.766 74.0844Z" fill="black"/>
<path d="M390.937 128.214C390.937 128.214 370.007 122.654 344.627 130.814C344.627 130.814 340.547 77.6541 341.037 70.3441C341.527 63.0341 380.207 65.1841 380.207 65.1841C380.207 65.1841 381.207 86.4641 383.697 99.2941C386.187 112.124 392.197 125.744 390.937 128.214Z" fill="#263238"/>
<path opacity="0.2" d="M390.937 128.214C390.937 128.214 370.007 122.654 344.627 130.814C344.627 130.814 340.547 77.6541 341.037 70.3441C341.527 63.0341 380.207 65.1841 380.207 65.1841C380.207 65.1841 381.207 86.4641 383.697 99.2941C386.187 112.124 392.197 125.744 390.937 128.214Z" fill="black"/>
<path d="M332.367 266.394L339.197 268.324L340.827 257.694L341.697 252.014L334.867 250.074L333.707 257.694L332.367 266.394Z" fill="#E4897B"/>
<path d="M371.637 266.954L378.677 267.884L378.747 257.694L378.797 251.364L371.737 250.444L371.697 257.694L371.637 266.954Z" fill="#E4897B"/>
<path opacity="0.2" d="M371.737 250.444L371.697 257.694H378.747L378.797 251.364L371.737 250.444Z" fill="black"/>
<path opacity="0.2" d="M333.707 257.694H340.827L341.697 252.014L334.867 250.074L333.707 257.694Z" fill="black"/>
<path d="M332.457 265.324L340.207 265.114C340.348 265.112 340.486 265.157 340.598 265.242C340.711 265.327 340.791 265.448 340.827 265.584L342.457 271.834C342.502 271.987 342.509 272.147 342.48 272.303C342.45 272.459 342.383 272.606 342.285 272.731C342.188 272.856 342.062 272.956 341.918 273.023C341.774 273.089 341.616 273.121 341.457 273.114C338.657 273.114 334.607 273.114 331.087 273.184C326.977 273.294 324.367 273.094 319.537 273.184C316.627 273.264 315.707 270.344 316.917 270.054C322.437 268.694 326.037 268.964 330.737 265.884C331.248 265.542 331.843 265.348 332.457 265.324Z" fill="#263238"/>
<path d="M331.787 266.324C330.647 266.584 328.627 266.924 327.787 266.254C327.666 266.158 327.572 266.034 327.511 265.893C327.45 265.752 327.424 265.598 327.437 265.444C327.438 265.353 327.462 265.264 327.508 265.185C327.553 265.106 327.618 265.041 327.697 264.994C328.547 264.484 331.447 265.854 331.777 265.994C331.81 266.007 331.838 266.031 331.856 266.062C331.874 266.093 331.881 266.129 331.877 266.164C331.877 266.197 331.869 266.229 331.854 266.257C331.838 266.285 331.815 266.308 331.787 266.324ZM327.937 265.254H327.877C327.844 265.271 327.816 265.296 327.798 265.329C327.78 265.361 327.773 265.398 327.777 265.434C327.766 265.534 327.781 265.635 327.819 265.727C327.858 265.82 327.919 265.901 327.997 265.964C328.447 266.344 329.617 266.374 331.177 266.074C330.057 265.604 328.487 265.054 327.937 265.254Z" fill="#CC9EFF"/>
<path d="M331.787 266.324H331.667C330.797 265.964 329.038 264.474 329.148 263.674C329.148 263.484 329.287 263.254 329.757 263.194C329.923 263.17 330.092 263.181 330.254 263.225C330.416 263.27 330.566 263.348 330.697 263.454C331.369 264.203 331.79 265.144 331.898 266.144C331.901 266.175 331.897 266.206 331.885 266.234C331.872 266.262 331.852 266.286 331.827 266.304L331.787 266.324ZM329.627 263.564C329.487 263.614 329.477 263.694 329.477 263.714C329.417 264.204 330.617 265.374 331.477 265.874C331.37 265.07 331.021 264.316 330.477 263.714C330.381 263.636 330.272 263.579 330.153 263.546C330.034 263.513 329.908 263.506 329.787 263.524C329.732 263.53 329.678 263.544 329.627 263.564Z" fill="#CC9EFF"/>
<path d="M371.937 265.324L379.697 265.114C379.838 265.112 379.976 265.157 380.088 265.242C380.201 265.327 380.281 265.448 380.317 265.584L381.947 271.834C381.992 271.987 381.999 272.147 381.969 272.303C381.94 272.459 381.873 272.606 381.775 272.731C381.678 272.856 381.551 272.956 381.407 273.023C381.263 273.089 381.106 273.121 380.947 273.114C378.147 273.114 374.097 273.114 370.587 273.184C366.467 273.294 363.857 273.094 359.037 273.184C356.117 273.264 355.207 270.344 356.417 270.054C361.927 268.694 365.527 268.964 370.227 265.884C370.735 265.545 371.327 265.352 371.937 265.324Z" fill="#263238"/>
<path d="M371.257 266.324C370.127 266.584 368.097 266.924 367.257 266.254C367.141 266.155 367.049 266.03 366.988 265.89C366.928 265.75 366.9 265.597 366.907 265.444C366.909 265.352 366.934 265.262 366.982 265.183C367.029 265.104 367.097 265.039 367.177 264.994C368.017 264.484 370.927 265.854 371.257 265.994C371.288 266.01 371.313 266.035 371.329 266.065C371.345 266.096 371.351 266.13 371.347 266.164C371.349 266.197 371.342 266.229 371.326 266.258C371.31 266.286 371.286 266.309 371.257 266.324ZM367.417 265.254H367.357C367.324 265.271 367.297 265.296 367.279 265.329C367.261 265.361 367.254 265.398 367.257 265.434C367.247 265.534 367.262 265.635 367.3 265.727C367.338 265.82 367.399 265.901 367.477 265.964C367.927 266.344 369.107 266.374 370.657 266.074C369.517 265.604 367.937 265.054 367.417 265.254Z" fill="#CC9EFF"/>
<path d="M371.256 266.324H371.126C370.256 265.964 368.506 264.474 368.606 263.674C368.606 263.484 368.756 263.254 369.216 263.194C369.382 263.169 369.551 263.18 369.713 263.224C369.875 263.269 370.026 263.347 370.156 263.454C370.828 264.202 371.248 265.144 371.356 266.144C371.361 266.174 371.358 266.204 371.347 266.232C371.337 266.26 371.319 266.285 371.296 266.304L371.256 266.324ZM369.086 263.564C369.05 263.574 369.018 263.594 368.991 263.62C368.965 263.646 368.946 263.679 368.936 263.714C368.876 264.204 370.076 265.374 370.936 265.874C370.829 265.069 370.48 264.316 369.936 263.714C369.839 263.636 369.726 263.578 369.606 263.545C369.485 263.513 369.359 263.506 369.236 263.524L369.086 263.564Z" fill="#CC9EFF"/>
<path d="M386.157 112.134C389.887 128.314 383.487 255.524 383.487 255.524H371.117L365.827 149.524L346.347 255.524L333.127 254.524C341.767 172.394 349.407 123.364 349.407 123.364V117.164L386.157 112.134Z" fill="#263238"/>
<path d="M379.497 52.234C379.112 59.9679 379.309 67.7198 380.087 75.424C380.597 80.804 381.317 85.894 382.087 90.484C383.867 101.254 385.888 109.314 386.168 112.134L349.397 117.204C335.987 79.714 341.038 59.814 341.038 59.814L349.467 55.014C349.467 55.014 350.698 54.684 351.328 54.534C356.486 53.5205 361.697 52.8026 366.937 52.384C367.937 52.294 368.937 52.224 369.937 52.184C374.937 51.954 379.497 52.234 379.497 52.234Z" fill="#CC9EFF"/>
<g opacity="0.7">
<path d="M379.497 52.234C379.112 59.9679 379.309 67.7198 380.087 75.424C380.597 80.804 381.317 85.894 382.087 90.484C383.867 101.254 385.888 109.314 386.168 112.134L349.397 117.204C335.987 79.714 341.038 59.814 341.038 59.814L349.467 55.014C349.467 55.014 350.698 54.684 351.328 54.534C356.486 53.5205 361.697 52.8026 366.937 52.384C367.937 52.294 368.937 52.224 369.937 52.184C374.937 51.954 379.497 52.234 379.497 52.234Z" fill="white"/>
</g>
<path d="M365.657 52.204C365.657 52.204 357.227 58.864 354.657 58.834C352.877 58.834 350.297 55.904 350.297 55.904C351.387 55.3915 352.34 54.6272 353.077 53.674C354.837 51.264 353.817 48.334 352.387 45.674L359.777 35.394C359.921 37.8991 360.255 40.3895 360.777 42.844C361.597 46.824 363.097 50.734 365.657 52.204Z" fill="#E4897B"/>
<path opacity="0.2" d="M360.766 42.8143C359.996 47.3143 358.026 52.4943 353.106 53.6643C354.866 51.2543 353.846 48.3243 352.416 45.6643L359.806 35.3843C359.938 37.8816 360.259 40.3654 360.766 42.8143Z" fill="black"/>
<path d="M338.707 31.274C338.407 34.054 339.937 39.344 343.247 36.864C346.557 34.384 339.227 26.484 338.707 31.274Z" fill="#263238"/>
<path d="M358.277 31.0344C360.027 37.6844 361.397 41.4844 359.187 45.8844C355.877 52.5044 346.807 52.1044 343.097 46.0944C339.757 40.6844 337.457 30.7244 343.007 26.0944C344.237 25.0659 345.708 24.3661 347.282 24.0605C348.856 23.7549 350.481 23.8535 352.007 24.347C353.532 24.8405 354.907 25.7128 356.004 26.8823C357.101 28.0518 357.883 29.4804 358.277 31.0344Z" fill="#E4897B"/>
<path d="M352.828 28.3244L351.328 20.8044C351.328 20.8044 359.208 18.6044 359.678 22.8044C364.548 24.1144 364.808 34.2844 359.528 38.8044C355.748 36.8644 353.938 27.6844 353.938 27.6844C353.568 27.8744 353.208 28.0944 352.828 28.3244Z" fill="#263238"/>
<path d="M362.587 35.6839C362.594 36.537 362.432 37.3829 362.109 38.1725C361.786 38.9622 361.31 39.6799 360.707 40.2839C359.087 41.8939 357.137 40.7039 356.647 38.5939C356.207 36.6939 356.517 33.5939 358.647 32.7539C359.105 32.6029 359.591 32.5641 360.067 32.6409C360.542 32.7177 360.992 32.9078 361.379 33.1952C361.765 33.4825 362.077 33.8587 362.287 34.2919C362.497 34.7251 362.6 35.2025 362.587 35.6839Z" fill="#E4897B"/>
<path d="M348.937 36.0238C349.117 36.5538 348.937 37.0238 348.627 37.1838C348.317 37.3438 347.847 36.9538 347.677 36.4238C347.507 35.8938 347.677 35.3738 347.987 35.2638C348.297 35.1538 348.767 35.4938 348.937 36.0238Z" fill="#263238"/>
<path d="M342.937 37.9438C343.117 38.4738 342.937 38.9938 342.627 39.1138C342.317 39.2338 341.847 38.8838 341.677 38.3538C341.507 37.8238 341.677 37.2938 341.987 37.1838C342.297 37.0738 342.747 37.4138 342.937 37.9438Z" fill="#263238"/>
<path d="M344.937 37.604C344.793 39.3818 344.406 41.1314 343.787 42.804C344.236 42.9312 344.706 42.9631 345.167 42.8977C345.629 42.8323 346.072 42.6709 346.467 42.4241L344.937 37.604Z" fill="#DE5753"/>
<path d="M349.937 43.5439C349.717 43.6494 349.489 43.7396 349.257 43.8139C349.237 43.82 349.215 43.822 349.194 43.8198C349.173 43.8175 349.152 43.8111 349.134 43.8009C349.115 43.7906 349.099 43.7768 349.086 43.7601C349.072 43.7435 349.063 43.7244 349.057 43.7039C349.044 43.6628 349.047 43.6182 349.065 43.5792C349.084 43.5402 349.117 43.5097 349.157 43.4939C349.823 43.3002 350.434 42.9507 350.938 42.4742C351.442 41.9977 351.826 41.4081 352.057 40.7539C352.063 40.7335 352.072 40.7144 352.086 40.6977C352.099 40.6811 352.115 40.6672 352.134 40.657C352.152 40.6468 352.173 40.6403 352.194 40.6381C352.215 40.6358 352.237 40.6378 352.257 40.6439C352.278 40.6486 352.298 40.6575 352.316 40.6703C352.334 40.683 352.349 40.6992 352.36 40.718C352.371 40.7367 352.379 40.7576 352.382 40.7792C352.384 40.8009 352.383 40.8229 352.377 40.8439C352.178 41.4377 351.858 41.9839 351.439 42.4485C351.019 42.9131 350.507 43.286 349.937 43.5439Z" fill="#263238"/>
<path d="M350.167 33.4944C350.117 33.5234 350.06 33.5386 350.002 33.5386C349.944 33.5386 349.887 33.5234 349.837 33.4944C349.504 33.2495 349.117 33.0859 348.71 33.0164C348.302 32.947 347.883 32.9737 347.487 33.0944C347.447 33.1133 347.403 33.1238 347.358 33.1253C347.314 33.1267 347.269 33.119 347.227 33.1028C347.186 33.0865 347.148 33.062 347.116 33.0307C347.084 32.9994 347.059 32.9619 347.042 32.9206C347.025 32.8792 347.017 32.8349 347.018 32.7902C347.018 32.7456 347.028 32.7015 347.046 32.6607C347.065 32.62 347.091 32.5833 347.124 32.553C347.156 32.5227 347.195 32.4994 347.237 32.4844C347.739 32.3166 348.274 32.2726 348.796 32.3561C349.319 32.4397 349.813 32.6484 350.237 32.9644C350.273 32.9877 350.304 33.0179 350.328 33.0532C350.352 33.0886 350.369 33.1285 350.377 33.1704C350.386 33.2124 350.386 33.2556 350.377 33.2975C350.368 33.3394 350.351 33.3792 350.327 33.4144C350.282 33.4553 350.227 33.483 350.167 33.4944Z" fill="#263238"/>
<path d="M339.637 36.6844C339.578 36.6997 339.516 36.6997 339.457 36.6844C339.371 36.6698 339.294 36.6238 339.241 36.5554C339.187 36.487 339.161 36.4011 339.167 36.3144C339.23 35.7985 339.414 35.3048 339.704 34.8738C339.994 34.4427 340.382 34.0865 340.837 33.8344C340.917 33.7996 341.007 33.7969 341.089 33.8266C341.171 33.8564 341.238 33.9165 341.277 33.9944C341.315 34.0727 341.321 34.1629 341.293 34.2453C341.264 34.3277 341.205 34.3957 341.127 34.4344C340.76 34.6324 340.449 34.9192 340.222 35.2686C339.995 35.6181 339.859 36.0189 339.827 36.4344C339.817 36.488 339.795 36.5385 339.762 36.5819C339.729 36.6253 339.686 36.6604 339.637 36.6844Z" fill="#263238"/>
<path d="M353.937 27.6841C353.937 27.6841 341.557 34.5841 336.137 31.3441C330.717 28.1041 336.137 25.3441 336.137 25.3441C336.137 25.3441 334.427 27.2441 336.037 28.1941C336.037 28.1941 336.397 22.8641 341.037 21.1941C340.681 21.6453 340.43 22.1702 340.302 22.7306C340.174 23.2911 340.172 23.873 340.297 24.4341C342.805 22.4962 345.679 21.0877 348.747 20.2941C354.067 18.7441 368.387 19.7541 353.937 27.6841Z" fill="#263238"/>
<path d="M354.678 58.8343C354.678 58.8343 356.738 60.7043 359.088 62.5143C361.908 60.6343 368.458 55.7243 367.668 52.0043C367.118 51.0043 364.178 50.6143 364.178 50.6143C364.178 50.6143 361.548 55.0343 354.678 58.8343Z" fill="#CC9EFF"/>
<path d="M354.676 58.8342C353.338 60.2018 352.203 61.7543 351.306 63.4442C348.916 62.2742 349.196 55.1542 349.916 54.2842C351.002 53.4919 352.272 52.9894 353.606 52.8242C353.281 53.8373 353.208 54.9146 353.395 55.9622C353.581 57.0098 354.021 57.9958 354.676 58.8342Z" fill="#CC9EFF"/>
<g opacity="0.5">
<path d="M354.677 58.8343C354.677 58.8343 356.737 60.7043 359.087 62.5143C361.907 60.6343 368.457 55.7243 367.667 52.0043C367.117 51.0043 364.177 50.6143 364.177 50.6143C364.177 50.6143 361.547 55.0343 354.677 58.8343Z" fill="white"/>
<path d="M354.676 58.8342C353.338 60.2018 352.203 61.7543 351.306 63.4442C348.916 62.2742 349.196 55.1542 349.916 54.2842C351.002 53.4919 352.272 52.9894 353.606 52.8242C353.281 53.8373 353.208 54.9146 353.395 55.9622C353.581 57.0098 354.021 57.9958 354.676 58.8342Z" fill="white"/>
</g>
<path d="M367.666 52.004C368.067 61.1514 369.268 70.2462 371.256 79.184C373.976 91.304 378.726 104.874 387.026 113.984C387.026 113.984 390.896 122.864 389.636 130.644C389.636 130.644 392.166 129.644 392.636 128.174C393.106 126.704 385.786 109.104 384.006 95.724C382.226 82.344 381.216 51.964 381.216 51.964C378.176 51.5322 375.1 51.4149 372.036 51.614C370.736 51.684 369.256 51.824 367.666 52.004Z" fill="#263238"/>
<path opacity="0.2" d="M392.677 128.204C392.167 129.644 389.677 130.684 389.677 130.684C390.937 122.894 387.077 114.024 387.077 114.024C386.547 113.444 386.077 112.844 385.527 112.234C380.867 106.494 377.427 99.3344 374.887 91.9544C373.453 87.7792 372.257 83.5256 371.307 79.2144C371.197 78.7444 371.107 78.2844 370.997 77.8244C369.225 69.439 368.128 60.9251 367.717 52.3644C367.717 52.1544 367.717 52.0444 367.717 52.0444C369.317 51.8644 370.797 51.7544 372.147 51.6844C375.208 51.4845 378.281 51.6051 381.317 52.0444C381.317 52.0444 381.557 59.1044 381.997 67.9044C381.997 68.0444 381.997 68.1644 381.997 68.3044C382.127 70.8344 382.277 73.4844 382.427 76.1644C382.727 81.1644 383.077 86.1644 383.497 90.4744C383.677 92.4244 383.877 94.2344 384.077 95.8044C385.827 109.144 393.187 126.784 392.677 128.204Z" fill="white"/>
<path d="M367.666 52.0043C368.067 61.1517 369.268 70.2465 371.256 79.1843L376.116 59.7843L370.976 59.2943L376.116 56.2943L372.116 51.6343C370.736 51.6843 369.256 51.8243 367.666 52.0043Z" fill="#263238"/>
<path d="M344.367 132.684L345.687 133.634C344.438 117.841 344.057 101.99 344.547 86.1542C344.547 84.8442 344.637 83.5842 344.687 82.3842C345.687 59.4342 349.227 55.2642 349.457 55.0142L346.127 56.1442L340.127 58.2242C338.317 77.8042 344.367 132.684 344.367 132.684Z" fill="#263238"/>
<path opacity="0.2" d="M344.367 132.684L345.687 133.634C344.438 117.841 344.057 101.99 344.547 86.1542C344.547 84.8442 344.637 83.5842 344.687 82.3842C345.687 59.4342 349.227 55.2642 349.457 55.0142L346.127 56.1442L340.127 58.2242C338.317 77.8042 344.367 132.684 344.367 132.684Z" fill="white"/>
<path d="M345.878 63.0542L342.068 65.4342C342.068 65.4342 343.068 76.6642 344.688 82.3842C345.688 59.4342 349.228 55.2642 349.458 55.0142L346.128 56.1442C344.297 57.839 342.766 59.8302 341.598 62.0342L345.878 63.0542Z" fill="#263238"/>
<path opacity="0.2" d="M380.188 68.594C380.413 71.2252 381.162 73.7849 382.388 76.124C382.238 73.454 382.087 70.794 381.957 68.264C381.351 68.2441 380.747 68.3567 380.188 68.594Z" fill="black"/>
<path opacity="0.2" d="M361.676 172.064L365.826 149.504L365.026 137.574C365.026 137.574 359.346 158.274 361.676 172.064Z" fill="black"/>
<path opacity="0.1" d="M383.468 90.4341C383.028 90.6008 382.588 90.7508 382.148 90.8841C379.773 91.5612 377.318 91.921 374.848 91.9541C373.16 91.9995 371.471 91.9059 369.798 91.6741C351.868 88.9441 351.328 85.2641 351.328 85.2641C351.328 85.2641 362.558 84.5141 367.888 81.2641C369.174 80.3714 370.222 79.1764 370.938 77.7841C374.318 71.9741 376.118 61.9941 376.118 61.9941C376.118 61.9941 377.498 63.2241 379.398 65.1641C380.178 65.9541 381.038 66.8641 381.928 67.8641C381.928 68.0041 381.928 68.1241 381.928 68.2641C382.058 70.7941 382.208 73.4441 382.358 76.1241C382.698 81.1241 383.048 86.1541 383.468 90.4341Z" fill="black"/>
<path d="M350.258 79.3844L350.458 83.9344C348.958 88.4744 343.458 85.5444 343.458 85.5444L340.238 85.1944C339.675 85.0992 339.164 84.8062 338.797 84.3681C338.431 83.9301 338.232 83.3756 338.238 82.8044L338.068 79.6244C337.996 78.9739 338.181 78.3211 338.582 77.8041C338.983 77.2871 339.57 76.9465 340.218 76.8544L343.038 76.6844C343.86 76.6342 344.682 76.7925 345.428 77.1444L350.258 79.3844Z" fill="#E4897B"/>
<path d="M381.267 52.0044C391.997 55.0044 383.117 88.0044 379.187 89.0844C371.737 91.1644 349.457 87.0844 349.457 87.0844V78.3844C349.457 78.3844 370.907 80.4844 372.717 79.6844C375.057 78.6844 376.187 66.1844 376.717 60.3044C376.801 58.6675 377.254 57.0709 378.042 55.6337C378.83 54.1964 379.932 52.9558 381.267 52.0044Z" fill="#263238"/>
<path opacity="0.2" d="M381.267 52.0044C391.997 55.0044 383.117 88.0044 379.187 89.0844C371.737 91.1644 349.457 87.0844 349.457 87.0844V78.3844C349.457 78.3844 370.907 80.4844 372.717 79.6844C375.057 78.6844 376.187 66.1844 376.717 60.3044C376.801 58.6675 377.254 57.0709 378.042 55.6337C378.83 54.1964 379.932 52.9558 381.267 52.0044Z" fill="white"/>
<path d="M339.636 97.684L322.186 99.284C321.84 99.2997 321.498 99.207 321.208 99.0187C320.917 98.8304 320.693 98.556 320.566 98.234L311.216 73.004C311.157 72.8518 311.136 72.6874 311.155 72.5253C311.175 72.3632 311.233 72.2082 311.326 72.074C311.394 71.9694 311.484 71.8806 311.589 71.8133C311.694 71.7461 311.812 71.702 311.936 71.684L329.416 70.084C329.762 70.072 330.104 70.1674 330.394 70.3572C330.684 70.5469 330.908 70.8218 331.036 71.144L340.376 96.374C340.45 96.5059 340.489 96.6546 340.488 96.8058C340.488 96.957 340.449 97.1056 340.375 97.2372C340.3 97.3689 340.193 97.4791 340.064 97.5574C339.934 97.6356 339.787 97.6792 339.636 97.684Z" fill="#263238"/>
<path opacity="0.6" d="M339.636 97.684L322.186 99.284C321.84 99.2997 321.498 99.207 321.208 99.0187C320.917 98.8304 320.693 98.556 320.566 98.234L311.216 73.004C311.157 72.8518 311.136 72.6874 311.155 72.5253C311.175 72.3632 311.233 72.2082 311.326 72.074C311.394 71.9694 311.484 71.8806 311.589 71.8133C311.694 71.7461 311.812 71.702 311.936 71.684L329.416 70.084C329.762 70.072 330.104 70.1674 330.394 70.3572C330.684 70.5469 330.908 70.8218 331.036 71.144L340.376 96.374C340.45 96.5059 340.489 96.6546 340.488 96.8058C340.488 96.957 340.449 97.1056 340.375 97.2372C340.3 97.3689 340.193 97.4791 340.064 97.5574C339.934 97.6356 339.787 97.6792 339.636 97.684Z" fill="white"/>
<path opacity="0.2" d="M339.597 97.6839L322.147 99.2839C321.801 99.2997 321.459 99.2069 321.169 99.0186C320.878 98.8304 320.654 98.556 320.527 98.2339L311.177 73.0039C311.118 72.8517 311.097 72.6873 311.116 72.5252C311.135 72.3631 311.194 72.2082 311.287 72.0739L328.727 70.4739C329.074 70.4604 329.416 70.5553 329.706 70.7452C329.996 70.9352 330.22 71.2108 330.347 71.5339L339.697 96.7639C339.756 96.914 339.777 97.076 339.76 97.2362C339.742 97.3964 339.686 97.55 339.597 97.6839Z" fill="white"/>
<path opacity="0.2" d="M325.856 84.2739C325.905 84.6231 325.854 84.9789 325.708 85.3C325.563 85.621 325.329 85.8941 325.034 86.0874C324.739 86.2806 324.395 86.3861 324.043 86.3916C323.691 86.397 323.344 86.3022 323.043 86.1181C322.742 85.934 322.5 85.6683 322.345 85.3519C322.189 85.0355 322.127 84.6814 322.165 84.3309C322.203 83.9805 322.34 83.648 322.56 83.3724C322.78 83.0967 323.073 82.8892 323.406 82.7739C323.666 82.7072 323.936 82.6933 324.201 82.733C324.466 82.7727 324.72 82.8653 324.949 83.0052C325.177 83.1451 325.376 83.3295 325.531 83.5475C325.687 83.7654 325.798 84.0125 325.856 84.2739Z" fill="black"/>
<path d="M313.938 86.854L315.807 90.934C319.057 94.884 322.228 91.864 322.228 91.864L324.688 91.334C325.526 91.144 325.757 90.184 325.247 89.044L323.938 86.194C323.684 85.579 323.273 85.0412 322.747 84.6342C322.22 84.2271 321.596 83.9651 320.938 83.874L318.578 83.934C317.95 83.9244 317.338 84.125 316.837 84.504L313.938 86.854Z" fill="#E4897B"/>
</g>
<defs>
<clipPath id="clip0_5358_51089">
<rect width="450" height="280" fill="white"/>
</clipPath>
</defs>
</svg>
