<svg width="216" height="169" viewBox="0 0 216 169" fill="none" xmlns="http://www.w3.org/2000/svg">
<g clip-path="url(#clip0_15341_43063)">
<path d="M51.3085 107.55C68.7115 124.68 88.404 102.987 107.585 114.171C119.179 120.934 120.404 128.741 135.095 130.676C145.322 132.022 155.753 129.229 166.762 131.082C185.578 134.253 208.316 133.4 210.371 111.844C211.226 102.85 208.009 91.2417 195.086 83.2472C184.087 76.4437 172.4 82.4259 161.234 77.6118C139.893 68.4081 148.561 38.9625 119.758 36.0877C94.4536 33.5826 89.0663 58.6066 63.1782 55.5037C43.7778 53.1765 10.8284 43.8176 5.81139 71.5475C3.67839 83.3704 12.8258 90.5618 23.3969 94.226C37.9786 99.3002 39.8717 96.3068 51.3085 107.55Z" fill="#CC9EFF"/>
<path opacity="0.9" d="M51.3085 107.55C68.7115 124.68 88.404 102.987 107.585 114.171C119.179 120.934 120.404 128.741 135.095 130.676C145.322 132.022 155.753 129.229 166.762 131.082C185.578 134.253 208.316 133.4 210.371 111.844C211.226 102.85 208.009 91.2417 195.086 83.2472C184.087 76.4437 172.4 82.4259 161.234 77.6118C139.893 68.4081 148.561 38.9625 119.758 36.0877C94.4536 33.5826 89.0663 58.6066 63.1782 55.5037C43.7778 53.1765 10.8284 43.8176 5.81139 71.5475C3.67839 83.3704 12.8258 90.5618 23.3969 94.226C37.9786 99.3002 39.8717 96.3068 51.3085 107.55Z" fill="white"/>
<path d="M109.224 168.531C165.07 168.531 210.341 166.218 210.341 163.366C210.341 160.513 165.07 158.2 109.224 158.2C53.379 158.2 8.10742 160.513 8.10742 163.366C8.10742 166.218 53.379 168.531 109.224 168.531Z" fill="#F5F5F5"/>
<path d="M23.7539 160.376L185.424 160.376L169.257 135.877L39.9209 135.877L23.7539 160.376Z" fill="#CC9EFF"/>
<path opacity="0.4" d="M23.7539 160.376L185.424 160.376L169.257 135.877L39.9209 135.877L23.7539 160.376Z" fill="white"/>
<path d="M39.9219 135.878L169.258 135.878L153.091 111.374L56.0889 111.374L39.9219 135.878Z" fill="#CC9EFF"/>
<path opacity="0.3" d="M39.9219 135.878L169.258 135.878L153.091 111.374L56.0889 111.374L39.9219 135.878Z" fill="white"/>
<path d="M72.2549 86.874L56.0879 111.373L153.09 111.373L136.923 86.874L72.2549 86.874Z" fill="#CC9EFF"/>
<path opacity="0.2" d="M72.2549 86.874L56.0879 111.373L153.09 111.373L136.923 86.874L72.2549 86.874Z" fill="white"/>
<path d="M120.757 62.375L88.4229 62.375L72.2559 86.8742L136.924 86.8742L120.757 62.375Z" fill="#CC9EFF"/>
<path opacity="0.1" d="M120.757 62.375L88.4229 62.375L72.2559 86.8742L136.924 86.8742L120.757 62.375Z" fill="black"/>
<path d="M54.4127 29.9556C54.1468 30.129 53.7869 30.3754 53.4688 30.6035C53.1507 30.8317 52.8273 31.0598 52.5092 31.3291C51.8834 31.831 51.2628 32.3421 50.6787 32.8805C49.5241 33.9509 48.4934 35.1187 47.6017 36.3667C47.4088 36.6451 47.0802 37.1151 47.1376 37.0512C47.0712 37.2118 47.0515 37.3842 47.0802 37.5531C47.1908 38.188 47.4143 38.8039 47.7425 39.3783C48.5084 40.7385 49.3997 42.0418 50.4075 43.2752L48.942 44.5073C47.4273 43.4238 46.0978 42.1561 44.9941 40.7427C44.3617 39.9461 43.8956 39.0578 43.6173 38.1189C43.4409 37.5028 43.4302 36.8593 43.586 36.2389C43.6302 36.0579 43.693 35.8807 43.7738 35.7096C43.8298 35.5847 43.8942 35.4628 43.9667 35.3446L44.2953 34.7559C45.2099 33.2108 46.3436 31.7727 47.6695 30.4758C48.3192 29.8363 49.0069 29.227 49.7295 28.6505C50.0946 28.3631 50.4701 28.0802 50.8508 27.8064C51.2315 27.5326 51.607 27.2862 52.092 26.9941L54.4127 29.9556Z" fill="#B55B52"/>
<path d="M54.7604 24.6674C52.1945 24.7678 48.3301 29.2853 48.3301 29.2853L52.4553 33.5654C52.4553 33.5654 57.6704 31.1059 58.2441 27.8525C58.5205 26.228 57.2845 24.567 54.7604 24.6674Z" fill="#CC9EFF"/>
<path d="M49.7617 42.7412L52.8177 45.0228L49.9494 45.657C49.9494 45.657 48.1658 44.7444 48.6873 43.4713L49.7617 42.7412Z" fill="#B55B52"/>
<path d="M52.8365 46.3601L51.3449 47.624L49.9473 45.6802L52.8156 45.0459L52.8365 46.3601Z" fill="#B55B52"/>
<path d="M74.0058 18.899C73.8805 19.1317 73.9223 19.3873 74.0997 19.4648C74.2771 19.5424 74.5172 19.4101 74.6215 19.1774C74.7259 18.9446 74.705 18.6891 74.5328 18.6115C74.3606 18.534 74.131 18.6617 74.0058 18.899Z" fill="#263238"/>
<path d="M74.4648 18.5889L75.2006 18.7073C75.2006 18.7073 74.6318 19.0035 74.4648 18.5889Z" fill="#263238"/>
<path d="M74.1097 19.2275C74.0633 19.8711 74.1159 20.5173 74.2663 21.1486C74.0812 21.1736 73.8921 21.1633 73.7119 21.1184C73.5318 21.0735 73.3649 20.9951 73.2227 20.8885L74.1097 19.2275Z" fill="#A02724"/>
<path d="M75.2056 17.4846C75.1778 17.4787 75.1525 17.4661 75.1326 17.4481C74.9751 17.3088 74.7831 17.2029 74.5713 17.1388C74.3596 17.0748 74.1338 17.0541 73.9115 17.0785C73.8889 17.0832 73.8654 17.0838 73.8425 17.0803C73.8196 17.0768 73.7977 17.0693 73.7782 17.0582C73.7587 17.0471 73.7419 17.0327 73.729 17.0158C73.716 16.9989 73.7071 16.9798 73.7028 16.9599C73.6935 16.9199 73.7025 16.8784 73.7279 16.8443C73.7533 16.8101 73.793 16.7861 73.8385 16.7773C74.1172 16.744 74.4009 16.7678 74.6672 16.847C74.9335 16.9262 75.175 17.0586 75.3726 17.2336C75.3889 17.2476 75.4018 17.2643 75.4106 17.2828C75.4194 17.3012 75.4239 17.3209 75.4239 17.3409C75.4239 17.3608 75.4194 17.3806 75.4106 17.399C75.4018 17.4174 75.3889 17.4341 75.3726 17.4481C75.3506 17.4661 75.3237 17.4789 75.2945 17.4853C75.2653 17.4916 75.2347 17.4914 75.2056 17.4846Z" fill="#263238"/>
<path d="M63.8732 19.1143C63.9463 21.0718 62.9867 24.2295 61.2344 25.2288C61.2344 25.2288 62.3661 27.3461 66.3922 28.026C70.8199 28.7789 68.8694 26.4745 68.8694 26.4745C66.5486 25.5619 66.9033 24.0104 67.6021 22.6187L63.8732 19.1143Z" fill="#B55B52"/>
<path d="M75.3302 30.0234C75.5336 31.0182 75.7474 32.0768 75.9978 33.099C76.2481 34.1211 76.4776 35.166 76.754 36.1882C77.0304 37.2103 77.3172 38.2279 77.6249 39.2363C77.7761 39.7428 77.9482 40.2402 78.1151 40.7376L78.5584 41.9468C78.741 42.1999 78.9849 42.4149 79.2729 42.5765C79.692 42.8271 80.1352 43.0454 80.5975 43.229C81.6396 43.6505 82.7149 44.0058 83.8153 44.2922C84.9366 44.6071 86.0995 44.8763 87.273 45.1181C88.4464 45.36 89.6354 45.5744 90.8036 45.798L90.6159 47.5731C88.0813 47.5403 85.5547 47.3159 83.0643 46.9023C81.7702 46.6911 80.4985 46.3858 79.2625 45.9897C78.5876 45.7719 77.938 45.4984 77.3224 45.1729C76.5458 44.7869 75.886 44.244 75.398 43.5895C75.3241 43.4877 75.2562 43.3826 75.1946 43.2746L75.106 43.1012L75.0382 42.9552L74.8661 42.5628L74.5271 41.7825C74.3133 41.2578 74.0942 40.7376 73.896 40.2082C73.4945 39.1587 73.1294 38.1001 72.8165 37.0141C72.1536 34.8822 71.6312 32.7188 71.252 30.5345L75.3302 30.0234Z" fill="#B55B52"/>
<path d="M104.343 34.2314L83.748 56.043L115.634 60.743L104.343 34.2314Z" fill="#CC9EFF"/>
<path d="M90.1418 45.9673L93.0675 45.0957L93.4065 47.4868C93.4065 47.4868 90.7363 48.737 89.7559 47.0305L90.1418 45.9673Z" fill="#B55B52"/>
<path d="M94.5782 45.8717L95.5482 48.1213L93.3839 47.4916L93.0449 45.1006L94.5782 45.8717Z" fill="#B55B52"/>
<path d="M53.4414 119.108L57.139 119.346L58.2394 111.917L54.5418 111.68L53.4414 119.108Z" fill="#B55B52"/>
<path d="M30.0371 110.148L33.4374 111.531L37.9902 105.224L34.59 103.842L30.0371 110.148Z" fill="#B55B52"/>
<path d="M34.3397 110.818L30.9967 108.569C30.9431 108.526 30.8734 108.503 30.8012 108.503C30.7289 108.503 30.6593 108.526 30.6056 108.569L28.2536 110.563C28.1966 110.616 28.1532 110.679 28.126 110.749C28.0989 110.818 28.0887 110.891 28.0961 110.964C28.1035 111.036 28.1283 111.107 28.1689 111.171C28.2095 111.235 28.265 111.29 28.3318 111.334C29.5156 112.101 30.131 112.42 31.6017 113.406C32.5039 114.012 33.7608 114.984 35.0072 115.824C36.2536 116.664 37.2445 115.655 36.8117 115.213C34.8508 113.218 34.9968 112.383 34.7256 111.293C34.6596 111.102 34.5241 110.935 34.3397 110.818Z" fill="#263238"/>
<path d="M57.3747 118.886H53.2025C53.1298 118.885 53.0592 118.907 53.0037 118.948C52.9481 118.989 52.9113 119.047 52.9001 119.109L52.342 121.989C52.33 122.06 52.3358 122.134 52.3592 122.203C52.3826 122.273 52.4229 122.337 52.4775 122.392C52.532 122.446 52.5994 122.49 52.675 122.52C52.7507 122.549 52.8328 122.564 52.9157 122.564C54.3655 122.541 55.0644 122.468 56.8949 122.468C58.0214 122.468 60.3421 122.568 61.8962 122.568C63.4503 122.568 63.5703 121.227 62.9393 121.103C60.0553 120.556 58.934 119.803 57.9796 119.087C57.8109 118.96 57.5969 118.889 57.3747 118.886Z" fill="#263238"/>
<path opacity="0.2" d="M58.2406 111.922L57.6304 116.047L53.9746 115.513L54.5378 111.68L58.2406 111.922Z" fill="black"/>
<path opacity="0.2" d="M34.5898 103.846L37.9901 105.228L35.9718 108.021L32.6445 106.533L34.5898 103.846Z" fill="black"/>
<path d="M53.7188 44.3749L68.5559 46.88C75.5651 28.8239 73.8858 28.2398 73.8858 28.2398C72.7972 27.7245 71.6738 27.2674 70.522 26.8709L70.3238 26.8025C69.3747 26.5013 69.1765 26.4557 67.904 26.1317C65.7189 25.6754 63.6849 25.3103 61.1712 24.9955C61.0096 24.9955 60.8479 24.9499 60.6914 24.9362C60.2325 24.886 59.7788 24.8449 59.3459 24.8084C59.0486 24.7765 58.7566 24.7628 58.475 24.7445L57.5154 24.6989C55.8935 24.6304 54.7357 24.6487 54.7357 24.6487C55.5806 35.9286 54.96 39.1684 53.7188 44.3749Z" fill="#CC9EFF"/>
<path opacity="0.2" d="M70.8872 33.7479C70.462 35.6361 70.6113 37.5888 71.3201 39.4107C72.5508 35.8788 73.2549 33.4787 73.6304 31.8131C72.4935 31.6854 71.2836 32.0048 70.8872 33.7479Z" fill="black"/>
<path d="M73.7615 28.1939C76.2335 29.6039 77.8137 32.757 78.2309 34.5503L72.4942 38.657C72.4942 38.657 69.3651 32.5471 70.4082 30.9865C71.4564 29.3438 72.828 27.6554 73.7615 28.1939Z" fill="#CC9EFF"/>
<path d="M65.3695 14.3226C64.0345 17.3023 63.393 18.5389 64.2691 20.752C65.5834 24.0785 70.0423 24.982 72.3631 22.4358C74.4492 20.1542 76.2953 15.6596 73.6773 13.0997C73.1293 12.5305 72.4212 12.0962 71.6228 11.8396C70.8244 11.583 69.9633 11.513 69.1245 11.6365C68.2857 11.7599 67.4983 12.0726 66.8398 12.5437C66.1813 13.0147 65.6745 13.6279 65.3695 14.3226Z" fill="#B55B52"/>
<path d="M71.6751 17.5851C71.5091 18.1634 71.5528 18.7726 71.8003 19.3282C72.1395 20.113 72.8439 20.0948 73.1831 19.5381C73.5223 18.9814 73.7049 18.0231 73.1466 17.4026C72.5883 16.782 71.889 16.9463 71.6751 17.5851Z" fill="#B55B52"/>
<path d="M65.7918 9.23442C64.8072 9.11527 63.8051 9.27967 62.9367 9.70279C62.0684 10.1259 61.3809 10.7848 60.9782 11.5798C59.7214 13.7929 58.5167 16.7133 56.7174 16.1064C57.0564 16.5627 58.1255 17.0692 58.4906 16.8593C57.2754 17.9225 57.0356 18.785 56.7748 20.9661C56.4515 23.6629 54.7461 23.0697 54.7461 23.0697C54.7461 23.0697 56.7383 25.8942 63.2625 26.8936C69.0617 27.8062 71.7475 26.6472 72.5298 25.698C71.7267 25.4699 70.475 22.9602 71.5754 21.5365C72.6758 20.1128 74.5794 16.1749 74.2665 14.596C74.9705 15.5725 75.007 17.124 75.5963 15.5634C76.1857 14.0028 76.4516 12.3693 74.2665 10.4299C72.3212 8.68229 66.6419 7.82899 65.7918 9.23442Z" fill="#263238"/>
<path d="M64.6381 46.2276C64.6381 46.2276 57.4099 67.414 53.8792 79.5975C50.1556 92.4608 37.4671 107.569 37.4671 107.569L32.7734 105.288C32.7734 105.288 40.471 90.8546 44.0799 78.8491C51.3812 54.4777 47.8818 49.3123 53.7228 44.3613L64.6381 46.2276Z" fill="#263238"/>
<path d="M37.9067 107.97L32.0762 105.123L32.9262 103.617L39.805 106.387L37.9067 107.97Z" fill="#CC9EFF"/>
<path opacity="0.2" d="M61.2448 50.7364C56.5042 53.9305 56.186 66.1277 56.2956 71.6353C58.705 63.9374 61.5577 55.3725 63.2265 50.4124C62.7728 50.0747 62.1157 50.1477 61.2448 50.7364Z" fill="black"/>
<path d="M35.7689 112.164C35.727 112.178 35.6831 112.188 35.6385 112.192C35.1689 112.228 34.5583 111.667 34.24 111.325C34.2312 111.313 34.2266 111.298 34.2266 111.284C34.2266 111.269 34.2312 111.255 34.24 111.243C34.2506 111.229 34.2665 111.219 34.2847 111.215C34.3029 111.211 34.3223 111.213 34.3392 111.22C34.4957 111.22 35.842 111.343 36.0612 111.708C36.0878 111.748 36.1018 111.792 36.1018 111.838C36.1018 111.884 36.0878 111.929 36.0612 111.968C35.9943 112.063 35.8904 112.132 35.7689 112.164ZM34.5166 111.375C34.9601 111.831 35.3671 112.06 35.6228 112.041C35.6772 112.035 35.7289 112.017 35.7728 111.988C35.8166 111.959 35.8513 111.921 35.8733 111.877C35.8848 111.86 35.8908 111.84 35.8908 111.82C35.8908 111.8 35.8848 111.78 35.8733 111.763C35.7637 111.571 35.054 111.434 34.5166 111.375Z" fill="#CC9EFF"/>
<path d="M68.3317 46.8796C68.3317 46.8796 69.2548 72.5013 67.1844 82.1477C65.0358 92.1865 58.4803 115.002 58.4803 115.002L53.1504 114.413C53.1504 114.413 56.5194 91.3469 57.9536 81.3765C59.5181 70.5027 57.4686 45.0361 57.4686 45.0361L68.3317 46.8796Z" fill="#263238"/>
<path d="M59.6174 115.295L52.0137 114.437L52.1075 112.858L60.3788 113.173L59.6174 115.295Z" fill="#CC9EFF"/>
<path d="M35.4458 111.188C35.0805 111.318 34.6862 111.374 34.2926 111.352C34.2778 111.35 34.2638 111.345 34.2519 111.337C34.2401 111.329 34.2307 111.319 34.2247 111.307C34.2182 111.294 34.2148 111.281 34.2148 111.268C34.2148 111.254 34.2182 111.241 34.2247 111.229C34.2561 111.202 34.8927 110.481 35.4249 110.449C35.4945 110.442 35.565 110.449 35.6309 110.47C35.6969 110.49 35.7567 110.524 35.8059 110.567C35.8612 110.605 35.8998 110.659 35.915 110.718C35.9302 110.778 35.9212 110.841 35.8893 110.896C35.7836 111.034 35.6272 111.137 35.4458 111.188ZM34.4804 111.211C34.9344 111.211 35.6337 111.028 35.7432 110.827C35.7432 110.795 35.7745 110.745 35.6911 110.677C35.6602 110.649 35.6226 110.628 35.5811 110.614C35.5395 110.601 35.4951 110.596 35.451 110.599C35.1327 110.618 34.71 110.983 34.4804 111.22V111.211Z" fill="#CC9EFF"/>
<path d="M58.747 119.433C58.3561 119.427 57.9667 119.389 57.584 119.319C57.5664 119.316 57.5502 119.309 57.538 119.297C57.5258 119.286 57.5181 119.271 57.5162 119.255C57.5142 119.24 57.5176 119.224 57.5259 119.21C57.5343 119.196 57.5473 119.185 57.5631 119.178C57.7352 119.1 59.232 118.439 59.6753 118.662C59.7178 118.681 59.7535 118.709 59.7784 118.745C59.8032 118.78 59.8163 118.821 59.8161 118.863C59.8262 118.933 59.8163 119.003 59.7871 119.069C59.758 119.134 59.7105 119.192 59.6492 119.237C59.3829 119.391 59.0645 119.46 58.747 119.433ZM57.8813 119.21C58.6948 119.328 59.305 119.296 59.5345 119.123C59.5729 119.092 59.6028 119.054 59.6218 119.011C59.6408 118.968 59.6484 118.922 59.644 118.877C59.6436 118.86 59.6387 118.844 59.6296 118.83C59.6205 118.816 59.6075 118.803 59.5918 118.794C59.3728 118.694 58.4967 118.977 57.8813 119.228V119.21Z" fill="#CC9EFF"/>
<path d="M57.6052 119.338C57.5882 119.342 57.57 119.342 57.553 119.338C57.5399 119.331 57.5295 119.321 57.523 119.308C57.5165 119.296 57.5142 119.283 57.5165 119.269C57.5165 119.21 57.6939 117.9 58.5236 117.9H58.5966C58.8367 117.923 58.9045 118.028 58.9202 118.115C58.988 118.48 58.0905 119.178 57.6417 119.356L57.6052 119.338ZM58.5288 118.028C58.007 118.028 57.7826 118.795 57.7148 119.123C58.1792 118.886 58.7845 118.334 58.7584 118.115C58.7584 118.115 58.7584 118.042 58.5862 118.028H58.5288Z" fill="#CC9EFF"/>
<path d="M53.636 43.5812L52.7494 44.6261C52.6816 44.7037 52.7859 44.8177 52.958 44.8451L68.5149 47.4826C68.6505 47.5054 68.7704 47.4826 68.7913 47.3959L69.1459 46.2642C69.172 46.1821 69.0677 46.0954 68.9217 46.0726L53.8968 43.5264C53.8516 43.5154 53.8039 43.5147 53.7583 43.5243C53.7127 43.5338 53.6706 43.5534 53.636 43.5812Z" fill="#CC9EFF"/>
<path opacity="0.3" d="M53.636 43.5812L52.7494 44.6261C52.6816 44.7037 52.7859 44.8177 52.958 44.8451L68.5149 47.4826C68.6505 47.5054 68.7704 47.4826 68.7913 47.3959L69.1459 46.2642C69.172 46.1821 69.0677 46.0954 68.9217 46.0726L53.8968 43.5264C53.8516 43.5154 53.8039 43.5147 53.7583 43.5243C53.7127 43.5338 53.6706 43.5534 53.636 43.5812Z" fill="black"/>
<path d="M55.3838 45.383L54.982 45.3191C54.9037 45.3191 54.8463 45.2552 54.862 45.2142L55.3368 43.7448C55.3368 43.7038 55.4255 43.6764 55.5038 43.6901L55.9108 43.7585C55.9891 43.7585 56.0413 43.8179 56.0308 43.8635L55.556 45.3328C55.5403 45.3739 55.4673 45.3967 55.3838 45.383Z" fill="#263238"/>
<path d="M65.5407 47.1271L65.1389 47.0587C65.0606 47.0587 65.0085 46.9994 65.0189 46.9583L65.4938 45.489C65.4938 45.4479 65.5825 45.4205 65.6607 45.4342L66.0678 45.5027C66.146 45.5027 66.1982 45.562 66.1878 45.6076L65.7129 47.0769C65.7025 47.118 65.6294 47.1408 65.5407 47.1271Z" fill="#263238"/>
<path d="M43.3203 163.923H44.6137L48.306 148.006L48.9527 145.218L52.9788 127.879H68.4157L76.76 163.927H78.0533L69.5265 127.217C69.5018 127.089 69.4258 126.973 69.3121 126.889C69.1984 126.806 69.0544 126.76 68.9059 126.761H52.4625C52.314 126.76 52.17 126.806 52.0564 126.889C51.9427 126.973 51.8666 127.089 51.8419 127.217L48.306 142.449L47.6593 145.232L43.3203 163.923Z" fill="#263238"/>
<path d="M18.5371 163.923H19.8305L28.1747 127.875H43.6064L47.6325 145.215L48.2792 147.993L51.9716 163.909H53.2649L48.9259 145.201L48.2792 142.426L44.7694 127.213C44.7447 127.085 44.6686 126.969 44.555 126.885C44.4413 126.802 44.2973 126.756 44.1488 126.757H27.6845C27.536 126.756 27.3921 126.802 27.2784 126.885C27.1647 126.969 27.0887 127.085 27.0639 127.213L18.5371 163.923Z" fill="#263238"/>
<path d="M70.7521 122.567L25.8599 122.567C25.3495 122.567 24.844 122.654 24.3723 122.825C23.9006 122.996 23.472 123.246 23.1111 123.562C22.7501 123.878 22.464 124.253 22.269 124.665C22.074 125.078 21.9739 125.52 21.9746 125.967V126.081C21.9739 126.244 22.01 126.405 22.0807 126.556C22.1514 126.706 22.2554 126.843 22.3867 126.958C22.518 127.074 22.6741 127.165 22.8459 127.228C23.0177 127.29 23.2019 127.322 23.3879 127.322L73.2241 127.322C73.4101 127.322 73.5943 127.29 73.7661 127.228C73.938 127.165 74.094 127.074 74.2253 126.958C74.3566 126.843 74.4606 126.706 74.5313 126.556C74.602 126.405 74.6381 126.244 74.6374 126.081V125.967C74.6381 125.52 74.5381 125.078 74.343 124.665C74.148 124.253 73.8619 123.878 73.5009 123.562C73.14 123.246 72.7114 122.996 72.2397 122.825C71.768 122.654 71.2625 122.567 70.7521 122.567Z" fill="#CC9EFF"/>
<path d="M169.507 71.1113C170.607 72.8864 171.624 74.6614 172.599 76.4775C173.575 78.2936 174.487 80.128 175.337 82.0217L175.65 82.7335L175.807 83.094L175.895 83.3039L176.026 83.6644C176.266 84.4492 176.299 85.2718 176.12 86.0691C175.861 87.243 175.391 88.3735 174.727 89.4184C174.156 90.3605 173.504 91.2636 172.777 92.1198C172.071 92.9648 171.303 93.7682 170.477 94.5245L168.14 93.0598C169.077 91.3719 169.897 89.6363 170.597 87.8624C170.895 87.1143 171.08 86.3348 171.144 85.5444C171.144 85.2432 171.087 85.0014 171.045 85.0105L170.977 84.8827L170.795 84.5587L170.435 83.9108C169.455 82.1768 168.438 80.4383 167.415 78.6997L164.375 73.475L169.507 71.1113Z" fill="#FF8B7B"/>
<path d="M168.569 92.6172L166.379 93.6758L169.67 96.1399C169.67 96.1399 171.036 94.958 170.801 93.5344L168.569 92.6172Z" fill="#FF8B7B"/>
<path d="M164.266 95.5421L167.097 97.4631L169.658 96.1353L166.367 93.6758L164.266 95.5421Z" fill="#FF8B7B"/>
<path d="M152.565 58.375C152.518 58.6123 152.34 58.7857 152.168 58.7583C151.996 58.7309 151.881 58.5256 151.923 58.302C151.964 58.0784 152.142 57.8913 152.319 57.9187C152.497 57.9461 152.606 58.1377 152.565 58.375Z" fill="#263238"/>
<path d="M152.367 58.7861C151.915 59.4583 151.358 60.0725 150.713 60.6114C150.877 60.753 151.075 60.8612 151.292 60.9282C151.509 60.9953 151.741 61.0195 151.97 60.9992L152.367 58.7861Z" fill="#FF5652"/>
<path d="M153.779 57.1965C153.758 57.1966 153.737 57.193 153.717 57.186C153.698 57.1789 153.68 57.1686 153.665 57.1555C153.525 57.0282 153.353 56.9317 153.163 56.8739C152.972 56.816 152.768 56.7986 152.569 56.8229C152.527 56.8296 152.484 56.822 152.449 56.8016C152.414 56.7811 152.39 56.7495 152.381 56.7135C152.376 56.6959 152.376 56.6776 152.379 56.6598C152.383 56.6419 152.39 56.6249 152.402 56.6096C152.413 56.5944 152.427 56.5812 152.444 56.5709C152.461 56.5606 152.481 56.5533 152.501 56.5495C152.754 56.513 153.013 56.5314 153.256 56.6028C153.499 56.6743 153.718 56.7968 153.894 56.9596C153.909 56.9723 153.921 56.9875 153.929 57.0043C153.937 57.0212 153.942 57.0392 153.942 57.0575C153.942 57.0758 153.937 57.0938 153.929 57.1107C153.921 57.1275 153.909 57.1427 153.894 57.1555C153.879 57.1686 153.861 57.1789 153.841 57.186C153.822 57.193 153.801 57.1966 153.779 57.1965Z" fill="#263238"/>
<path d="M161.575 60.9814C161.09 63.1535 160.605 67.1279 162.341 68.5744C162.341 68.5744 161.663 70.7784 157.053 70.7784C151.984 70.7784 154.633 68.5744 154.633 68.5744C157.397 67.9995 157.324 66.2016 156.845 64.5178L161.575 60.9814Z" fill="#FF8B7B"/>
<path d="M165.079 70.7784C165.008 70.6562 164.959 70.5255 164.933 70.3905C164.485 68.2778 162.597 66.6169 160.151 66.5347C157.543 66.4526 154.659 66.8359 152.933 68.6109C152.177 69.3866 153.016 70.5229 153.016 70.5229L165.079 70.7784Z" fill="#CC9EFF"/>
<path d="M173.111 159.334H173.08C173.02 159.304 172.972 159.259 172.944 159.204C172.916 159.149 172.909 159.087 172.923 159.028C172.926 158.981 172.941 158.934 172.968 158.892C172.994 158.851 173.03 158.814 173.075 158.787C173.476 158.517 174.593 158.682 174.64 158.691C174.655 158.694 174.669 158.7 174.681 158.708C174.693 158.717 174.702 158.728 174.708 158.741C174.711 158.754 174.71 158.768 174.704 158.781C174.699 158.794 174.689 158.806 174.677 158.814C174.405 158.987 173.508 159.476 173.111 159.334ZM174.421 158.791C174.004 158.714 173.569 158.748 173.174 158.887C173.147 158.903 173.124 158.923 173.108 158.948C173.091 158.973 173.082 159 173.08 159.028C173.08 159.156 173.132 159.188 173.153 159.197C173.367 159.298 173.998 159.042 174.421 158.791Z" fill="#CC9EFF"/>
<path d="M174.06 158.686C173.674 158.553 173.262 158.334 173.204 158.124C173.19 158.073 173.197 158.019 173.224 157.971C173.251 157.924 173.295 157.886 173.35 157.864C173.402 157.836 173.459 157.817 173.52 157.809C173.58 157.801 173.641 157.804 173.7 157.819C174.19 157.928 174.676 158.681 174.697 158.731C174.704 158.741 174.708 158.753 174.708 158.765C174.708 158.778 174.704 158.789 174.697 158.8C174.689 158.811 174.678 158.82 174.665 158.826C174.653 158.832 174.638 158.836 174.624 158.836C174.429 158.809 174.239 158.758 174.06 158.686ZM173.716 157.969H173.663C173.625 157.96 173.585 157.957 173.545 157.962C173.506 157.966 173.468 157.978 173.434 157.997C173.345 158.042 173.356 158.083 173.361 158.102C173.413 158.298 174.039 158.585 174.467 158.667C174.29 158.382 174.031 158.141 173.716 157.969Z" fill="#CC9EFF"/>
<path d="M147.457 161.269C147.024 161.269 146.601 161.218 146.461 161.045C146.425 161 146.406 160.947 146.406 160.892C146.406 160.838 146.425 160.784 146.461 160.739C146.488 160.698 146.525 160.662 146.569 160.634C146.613 160.606 146.663 160.586 146.716 160.575C147.279 160.443 148.469 161.031 148.515 161.059C148.53 161.065 148.542 161.074 148.55 161.087C148.557 161.099 148.56 161.113 148.557 161.127C148.555 161.142 148.547 161.156 148.535 161.167C148.523 161.178 148.507 161.185 148.489 161.186C148.148 161.24 147.803 161.267 147.457 161.269ZM146.935 160.694C146.883 160.687 146.831 160.687 146.779 160.694C146.714 160.707 146.658 160.741 146.622 160.789C146.565 160.876 146.586 160.922 146.622 160.945C146.779 161.136 147.639 161.141 148.27 161.063C147.852 160.864 147.393 160.739 146.92 160.694H146.935Z" fill="#CC9EFF"/>
<path d="M148.48 161.187H148.449C148.042 161.027 147.228 160.384 147.291 160.05C147.291 159.968 147.369 159.872 147.588 159.854C147.668 159.846 147.749 159.852 147.827 159.872C147.904 159.893 147.975 159.927 148.037 159.973C148.344 160.297 148.526 160.698 148.559 161.118C148.559 161.13 148.556 161.142 148.549 161.152C148.543 161.162 148.533 161.171 148.522 161.178C148.51 161.185 148.495 161.188 148.48 161.187ZM147.656 159.987H147.604C147.458 159.987 147.447 160.05 147.447 160.069C147.405 160.269 147.969 160.771 148.376 160.981C148.34 160.643 148.183 160.324 147.927 160.069C147.851 160.013 147.755 159.984 147.656 159.987Z" fill="#CC9EFF"/>
<path d="M152.208 161.118H148.818L148.484 154.246H151.874L152.208 161.118Z" fill="#FF8B7B"/>
<path d="M178.325 158.024L175.149 158.658L171.441 152.073L174.617 151.435L178.325 158.024Z" fill="#FF8B7B"/>
<path d="M174.692 158.344L178.155 156.975C178.216 156.95 178.285 156.945 178.35 156.959C178.416 156.973 178.474 157.006 178.515 157.053L180.382 159.206C180.423 159.26 180.45 159.321 180.462 159.385C180.474 159.449 180.47 159.515 180.451 159.577C180.432 159.64 180.397 159.698 180.35 159.748C180.303 159.799 180.245 159.839 180.178 159.868C178.963 160.324 178.343 160.507 176.82 161.118C175.886 161.492 172.575 163.537 171.182 163.797C169.79 164.057 169.315 162.884 169.858 162.674C171.791 161.827 173.348 160.439 174.28 158.732C174.356 158.561 174.503 158.423 174.692 158.344Z" fill="#263238"/>
<path d="M148.844 160.776H152.547C152.614 160.777 152.678 160.797 152.73 160.833C152.782 160.87 152.819 160.92 152.834 160.977L153.501 163.615C153.519 163.678 153.519 163.745 153.503 163.809C153.487 163.872 153.454 163.932 153.407 163.983C153.36 164.034 153.301 164.076 153.233 164.103C153.165 164.131 153.091 164.145 153.016 164.144C151.681 164.121 149.752 164.053 148.072 164.053C146.106 164.053 144.422 164.148 142.111 164.148C140.719 164.148 140.333 162.916 140.917 162.807C143.566 162.296 145.731 162.241 148.025 161.005C148.269 160.863 148.552 160.784 148.844 160.776Z" fill="#263238"/>
<path d="M163.41 74.283C163.765 75.0816 164.151 75.8573 164.547 76.5646C165.22 77.824 165.893 78.9237 166.383 79.6857C166.821 80.3702 167.108 80.7763 167.108 80.7763L174.514 77.5822C174.514 77.5822 171.53 70.0759 168.412 69.2408C165.293 68.4058 161.809 70.7056 163.41 74.283Z" fill="#263238"/>
<path opacity="0.2" d="M166.69 75.0264C166.049 75.4416 165.584 76.5596 165.256 77.8692C165.678 78.5901 166.069 79.2381 166.382 79.6944C166.82 80.3789 167.102 80.785 167.102 80.785L167.952 80.4154C167.934 78.5645 167.505 76.7344 166.69 75.0264Z" fill="black"/>
<path d="M147.75 79.0695C147.75 80.078 147.776 81.1914 147.844 82.4143C148.011 85.7408 148.423 89.8886 149.221 95.0403H167.354C167.479 92.6082 165.727 80.7214 168.397 69.2452C166.392 68.9088 164.364 68.6848 162.326 68.5744C159.759 68.4465 157.186 68.4465 154.618 68.5744C152.858 68.7326 151.115 69.0087 149.403 69.4004C149.403 69.4004 147.745 71.0522 147.75 79.0695Z" fill="#263238"/>
<path opacity="0.2" d="M148.281 76.9294C148.114 77.2489 147.937 77.5728 147.76 77.9196C147.76 78.2892 147.76 78.6725 147.76 79.0695C147.76 79.2292 147.76 79.3935 147.76 79.5578C150.013 78.3577 151.489 75.8389 151.489 75.8389L148.281 76.9294Z" fill="black"/>
<path d="M153.204 74.7707L152.682 75.0536L152.224 75.2863C151.916 75.446 151.629 75.5601 151.337 75.7015C150.753 75.9525 150.179 76.1898 149.6 76.4179C148.448 76.8742 147.269 77.2575 146.085 77.6226C143.642 78.3811 141.103 78.8805 138.523 79.1102C138.174 79.1102 137.851 79.1695 137.48 79.1649H136.547H136.354C135.503 79.1091 134.668 78.9334 133.882 78.6447C132.637 78.1876 131.453 77.6123 130.351 76.929C128.306 75.6825 126.418 74.2493 124.719 72.6534L126.534 70.7004C128.547 71.6769 130.601 72.699 132.609 73.5112C133.541 73.9054 134.509 74.229 135.504 74.4786C135.829 74.5616 136.167 74.6 136.505 74.5927L137.162 74.5379C137.392 74.5379 137.652 74.4741 137.897 74.4467C140.025 74.0967 142.109 73.5664 144.119 72.8633C145.162 72.5211 146.205 72.1378 147.217 71.7499C147.739 71.5491 148.224 71.3483 148.703 71.1384L149.392 70.8236L149.71 70.6776L149.96 70.5498L153.204 74.7707Z" fill="#FF8B7B"/>
<path d="M127.164 71.3168L125.047 68.9258L122.898 72.088C122.898 72.088 124.875 73.3748 126.455 73.1421L127.164 71.3168Z" fill="#FF8B7B"/>
<path d="M121.882 67.9531L120.756 70.5632L122.899 72.0873L125.048 68.9251L121.882 67.9531Z" fill="#FF8B7B"/>
<path d="M156.266 74.1092C154.509 76.4912 144.949 79.0967 144.949 79.0967L141.268 72.4711C143.824 71.1626 146.548 70.1212 149.382 69.3682C155.484 67.908 158.379 71.2482 156.266 74.1092Z" fill="#263238"/>
<path opacity="0.2" d="M148.484 154.25L148.656 157.791H152.046L151.874 154.25H148.484Z" fill="black"/>
<path opacity="0.2" d="M174.617 151.439L171.441 152.078L173.355 155.473L176.531 154.834L174.617 151.439Z" fill="black"/>
<path d="M161.685 59.1101C160.96 61.9848 160.704 63.7005 158.759 64.96C155.838 66.8582 151.979 64.96 151.708 61.962C151.463 59.2515 152.688 55.0079 156.141 54.296C156.902 54.1358 157.697 54.1485 158.451 54.333C159.205 54.5175 159.892 54.8676 160.447 55.35C161.003 55.8324 161.408 56.4311 161.625 57.0893C161.841 57.7474 161.862 58.443 161.685 59.1101Z" fill="#FF8B7B"/>
<path d="M164.705 52.0649C167.589 52.1333 168.637 56.3268 167.776 57.5771C167.776 57.5771 166.853 58.0334 165.732 59.5711C164.032 61.9166 161.862 64.4536 159.317 64.3031C156.157 64.1114 155.667 60.9173 155.776 57.9467C154.107 56.5778 153.195 56.4682 152.376 54.4833C149.847 48.3642 154.707 45.2978 164.705 52.0649Z" fill="#263238"/>
<path d="M157.138 58.8323C157.049 59.5748 156.682 60.2709 156.095 60.8127C155.308 61.52 154.53 61.0454 154.437 60.1511C154.348 59.3479 154.65 58.0155 155.589 57.6414C156.528 57.2672 157.232 57.9334 157.138 58.8323Z" fill="#FF8B7B"/>
<path d="M155.651 95.04C155.651 95.04 155.26 116.153 158.29 124.431C163.093 137.541 171.328 155.177 171.328 155.177L177.524 153.808C177.524 153.808 170.697 135.93 168.481 124.887C166.488 114.967 167.333 103.158 167.333 95.0537L155.651 95.04Z" fill="#CC9EFF"/>
<path opacity="0.2" d="M159.036 98.6673C159.677 102.473 157.409 113.064 156.626 116.532C155.802 110.048 155.651 102.354 155.641 98.1562C157.299 97.1706 158.738 96.9151 159.036 98.6673Z" fill="black"/>
<path d="M169.69 153.579C169.664 153.579 171.207 155.295 171.207 155.295L177.987 153.785L177.236 151.772L169.69 153.579Z" fill="#CC9EFF"/>
<path opacity="0.2" d="M169.69 153.579C169.664 153.579 171.207 155.295 171.207 155.295L177.987 153.785L177.236 151.772L169.69 153.579Z" fill="white"/>
<path d="M149.214 95.04C149.214 95.04 144.109 113.981 143.749 123.03C143.347 133.174 147.399 157.107 147.399 157.107H153.136C153.136 157.107 153.861 133.009 154.101 123.746C154.382 113.671 161.162 95.04 161.162 95.04H149.214Z" fill="#CC9EFF"/>
<path d="M146.288 155.104C146.262 155.104 146.612 157.19 146.612 157.19H153.6L153.788 155.328L146.288 155.104Z" fill="#CC9EFF"/>
<path opacity="0.2" d="M146.288 155.104C146.262 155.104 146.612 157.19 146.612 157.19H153.6L153.788 155.328L146.288 155.104Z" fill="white"/>
</g>
<defs>
<clipPath id="clip0_15341_43063">
<rect width="216" height="168" fill="white" transform="translate(0 0.53125)"/>
</clipPath>
</defs>
</svg>
