<svg width="92" height="170" viewBox="0 0 92 170" fill="none" xmlns="http://www.w3.org/2000/svg">
<path d="M10.4186 0.71223H23.794L37.2614 169.726H23.8991C17.5793 169.597 12.35 164.321 11.7062 157.416L0.183348 13.0225C-0.421044 6.92504 3.58633 1.44739 9.13096 0.769891C9.55141 0.712232 9.98499 0.697815 10.4186 0.71223Z" fill="#25003F"/>
<path d="M2.14165 17.6635C2.07596 17.0004 1.57668 16.4959 0.972289 16.4814C0.433592 16.4814 0 16.9571 0 17.5481C0 17.5914 0 17.6346 0 17.6635L0.90659 28.9935C0.959146 29.6566 1.45843 30.1611 2.06282 30.1611C2.58838 30.1756 3.0351 29.7287 3.04824 29.1377C3.04824 29.0944 3.04824 29.0368 3.04824 28.9935L2.14165 17.6635Z" fill="#25003F"/>
<path opacity="0.5" d="M2.14165 17.6635C2.07596 17.0004 1.57668 16.4959 0.972289 16.4814C0.433592 16.4814 0 16.9571 0 17.5481C0 17.5914 0 17.6346 0 17.6635L0.90659 28.9935C0.959146 29.6566 1.45843 30.1611 2.06282 30.1611C2.58838 30.1756 3.0351 29.7287 3.04824 29.1377C3.04824 29.0944 3.04824 29.0368 3.04824 28.9935L2.14165 17.6635Z" fill="white"/>
<path d="M26.6336 169.727H81.712C87.2961 169.843 91.9078 164.956 91.9998 158.83C91.9998 158.354 91.9998 157.893 91.9472 157.417L80.4244 13.0232C79.7806 6.11852 74.5513 0.842677 68.2315 0.712943H13.1662C7.58213 0.597624 2.98348 5.46985 2.86523 11.5818C2.86523 12.0574 2.86524 12.5475 2.93093 13.0232L14.4407 157.374C15.0582 164.293 20.3006 169.597 26.6336 169.727Z" fill="#25003F"/>
<path opacity="0.5" d="M26.6336 169.727H81.712C87.2961 169.843 91.9078 164.956 91.9998 158.83C91.9998 158.354 91.9998 157.893 91.9472 157.417L80.4244 13.0232C79.7806 6.11852 74.5513 0.842677 68.2315 0.712943H13.1662C7.58213 0.597624 2.98348 5.46985 2.86523 11.5818C2.86523 12.0574 2.86524 12.5475 2.93093 13.0232L14.4407 157.374C15.0582 164.293 20.3006 169.597 26.6336 169.727Z" fill="white"/>
<path d="M13.3903 3.53688H27.6986C28.6578 3.5513 29.4855 4.30087 29.6958 5.32432L29.7877 5.81443C30.3133 8.3082 32.3104 10.0956 34.6491 10.1389H48.2874C50.521 10.1966 52.3867 8.26496 52.4524 5.81443V5.32432C52.4787 4.31528 53.2407 3.50805 54.1605 3.53688H68.4688C73.3433 3.63779 77.377 7.70278 77.8631 13.0219L89.3728 157.372C89.8458 162.072 86.7582 166.295 82.488 166.814C82.1596 166.857 81.8311 166.872 81.4895 166.857H26.411C21.5365 166.756 17.5028 162.691 17.0167 157.372L5.49381 12.9786C5.04709 8.27938 8.16102 4.07023 12.4575 3.58012C12.7728 3.55129 13.075 3.53688 13.3903 3.53688Z" fill="white"/>
<path d="M44.3438 5.13784C44.4094 5.81534 44.9087 6.31986 45.5262 6.33428C46.0649 6.33428 46.5248 5.87301 46.5248 5.26758C46.5248 5.22434 46.5248 5.18109 46.5248 5.13784C46.4591 4.46034 45.9598 3.95582 45.3423 3.94141C44.8036 3.94141 44.3438 4.40269 44.3438 5.00811C44.3438 5.05136 44.3438 5.0946 44.3438 5.13784Z" fill="#263238"/>
<path d="M36.5268 3.94141H40.2714C40.889 3.94141 41.4014 4.46034 41.4671 5.13784C41.5196 5.72885 41.1386 6.2622 40.5868 6.33428C40.5474 6.33428 40.5079 6.33428 40.4685 6.33428H36.7239C36.1064 6.33428 35.594 5.81534 35.5283 5.13784C35.4757 4.54683 35.8568 4.01348 36.4086 3.94141C36.448 3.94141 36.4874 3.94141 36.5268 3.94141Z" fill="#263238"/>
<path d="M85.4592 108.838H13.103L6.7832 29.4697H79.1262L85.4592 108.838Z" fill="#263238"/>
<path d="M21.8122 20.0428C22.167 23.1997 20.1041 26.0826 17.2267 26.4574C16.9639 26.4863 16.7011 26.5007 16.4384 26.5007C13.1273 26.4286 10.3813 23.661 10.0397 20.0428C9.68495 16.886 11.7478 14.003 14.6252 13.6282C14.888 13.5994 15.1507 13.585 15.4135 13.585C18.7245 13.657 21.4706 16.4247 21.8122 20.0428Z" fill="#263238"/>
<path d="M70.3975 23.0112H59.098C57.5739 22.9824 56.3125 21.7139 56.1549 20.0417C56.0103 18.5714 56.9826 17.2452 58.3228 17.0867C58.4279 17.0867 58.5199 17.0723 58.625 17.0723H69.9245C71.4486 17.1011 72.7099 18.3696 72.8676 20.0417C73.0121 21.5121 72.0398 22.8382 70.6997 22.9968C70.5945 22.9968 70.5026 23.0112 70.3975 23.0112Z" fill="#263238"/>
<path d="M45.6579 119.894H21.4823C20.0107 119.865 18.7888 118.625 18.6574 117.011C18.4866 115.613 19.3932 114.33 20.6545 114.142C20.7728 114.128 20.891 114.114 21.0224 114.128H45.2112C46.6828 114.157 47.9047 115.397 48.0361 117.011C48.1937 118.424 47.2609 119.707 45.9733 119.88C45.8682 119.88 45.763 119.894 45.6579 119.894Z" fill="#263238"/>
<path d="M77.1902 131.066H22.4009C20.9293 131.023 19.7205 129.797 19.576 128.183C19.4183 126.77 20.3512 125.487 21.6388 125.314C21.7439 125.314 21.849 125.3 21.9541 125.3H76.7435C78.2151 125.329 79.437 126.568 79.5815 128.183C79.7392 129.595 78.8063 130.878 77.5187 131.051C77.4136 131.051 77.2953 131.066 77.1902 131.066Z" fill="#263238"/>
<path d="M64.186 139.743H23.1005C21.6289 139.7 20.4201 138.475 20.2756 136.861C20.118 135.448 21.0245 134.179 22.3122 133.992C22.4173 133.978 22.5355 133.978 22.6406 133.978H63.7392C65.2108 134.021 66.4196 135.246 66.5641 136.861C66.7218 138.273 65.7889 139.556 64.5013 139.729C64.3962 139.729 64.2911 139.743 64.186 139.743Z" fill="#263238"/>
<path d="M72.1432 148.419H23.7919C22.3203 148.39 21.0984 147.151 20.967 145.536C20.8094 144.124 21.7159 142.855 23.0035 142.668C23.1087 142.653 23.2269 142.653 23.332 142.653H71.6965C73.168 142.697 74.3768 143.922 74.5213 145.536C74.679 146.949 73.7461 148.232 72.4585 148.405C72.3534 148.405 72.2483 148.419 72.1432 148.419Z" fill="#263238"/>
<path d="M39.2846 157.099H24.477C23.0055 157.056 21.7967 155.83 21.6522 154.216C21.4945 152.803 22.4274 151.52 23.715 151.347C23.8201 151.347 23.9252 151.333 24.0303 151.333H38.8248C40.2963 151.362 41.5182 152.602 41.6496 154.216C41.8073 155.629 40.9007 156.897 39.6131 157.085C39.508 157.099 39.3897 157.099 39.2846 157.099Z" fill="#263238"/>
<path opacity="0.9" d="M85.4592 108.838H13.103L6.7832 29.4697H79.1262L85.4592 108.838Z" fill="white"/>
<path opacity="0.9" d="M21.8122 20.0428C22.167 23.1997 20.1041 26.0826 17.2267 26.4574C16.9639 26.4863 16.7011 26.5007 16.4384 26.5007C13.1273 26.4286 10.3813 23.661 10.0397 20.0428C9.68495 16.886 11.7478 14.003 14.6252 13.6282C14.888 13.5994 15.1507 13.585 15.4135 13.585C18.7245 13.657 21.4706 16.4247 21.8122 20.0428Z" fill="white"/>
<path opacity="0.9" d="M70.3975 23.0112H59.098C57.5739 22.9824 56.3125 21.7139 56.1549 20.0417C56.0103 18.5714 56.9826 17.2452 58.3228 17.0867C58.4279 17.0867 58.5199 17.0723 58.625 17.0723H69.9245C71.4486 17.1011 72.7099 18.3696 72.8676 20.0417C73.0121 21.5121 72.0398 22.8382 70.6997 22.9968C70.5945 22.9968 70.5026 23.0112 70.3975 23.0112Z" fill="white"/>
<path opacity="0.9" d="M45.6579 119.894H21.4823C20.0107 119.865 18.7888 118.625 18.6574 117.011C18.4866 115.613 19.3932 114.33 20.6545 114.142C20.7728 114.128 20.891 114.114 21.0224 114.128H45.2112C46.6828 114.157 47.9047 115.397 48.0361 117.011C48.1937 118.424 47.2609 119.707 45.9733 119.88C45.8682 119.88 45.763 119.894 45.6579 119.894Z" fill="white"/>
<path opacity="0.9" d="M77.1902 131.066H22.4009C20.9293 131.023 19.7205 129.797 19.576 128.183C19.4183 126.77 20.3512 125.487 21.6388 125.314C21.7439 125.314 21.849 125.3 21.9541 125.3H76.7435C78.2151 125.329 79.437 126.568 79.5815 128.183C79.7392 129.595 78.8063 130.878 77.5187 131.051C77.4136 131.051 77.2953 131.066 77.1902 131.066Z" fill="white"/>
<path opacity="0.9" d="M64.186 139.743H23.1005C21.6289 139.7 20.4201 138.475 20.2756 136.861C20.118 135.448 21.0245 134.179 22.3122 133.992C22.4173 133.978 22.5355 133.978 22.6406 133.978H63.7392C65.2108 134.021 66.4196 135.246 66.5641 136.861C66.7218 138.273 65.7889 139.556 64.5013 139.729C64.3962 139.729 64.2911 139.743 64.186 139.743Z" fill="white"/>
<path opacity="0.9" d="M72.1432 148.419H23.7919C22.3203 148.39 21.0984 147.151 20.967 145.536C20.8094 144.124 21.7159 142.855 23.0035 142.668C23.1087 142.653 23.2269 142.653 23.332 142.653H71.6965C73.168 142.697 74.3768 143.922 74.5213 145.536C74.679 146.949 73.7461 148.232 72.4585 148.405C72.3534 148.405 72.2483 148.419 72.1432 148.419Z" fill="white"/>
<path opacity="0.9" d="M39.2846 157.099H24.477C23.0055 157.056 21.7967 155.83 21.6522 154.216C21.4945 152.803 22.4274 151.52 23.715 151.347C23.8201 151.347 23.9252 151.333 24.0303 151.333H38.8248C40.2963 151.362 41.5182 152.602 41.6496 154.216C41.8073 155.629 40.9007 156.897 39.6131 157.085C39.508 157.099 39.3897 157.099 39.2846 157.099Z" fill="white"/>
<path d="M61.0058 93.8048H38.7747C35.5688 93.7471 32.9147 91.066 32.5862 87.5631L30.6417 63.1732C30.4972 61.5011 30.9964 59.829 32.0213 58.5749C33.0592 57.3496 34.5308 56.6577 36.0549 56.6721H58.286C61.4919 56.7298 64.146 59.4109 64.4745 62.9137L66.419 87.3037C66.5635 88.9758 66.0643 90.6479 65.0394 91.902C64.0015 93.1273 62.5299 93.8192 61.0058 93.8048ZM36.0418 59.5983C34.5571 59.5407 33.3089 60.8236 33.2695 62.4525C33.2695 62.611 33.2695 62.7552 33.2826 62.9137L35.2272 87.3037C35.4111 89.3073 36.9352 90.8353 38.7615 90.8786H60.9926C62.4773 90.9362 63.7255 89.6533 63.7649 88.0244C63.7649 87.8659 63.765 87.7217 63.7518 87.5631L61.8072 63.1732C61.6233 61.1695 60.0992 59.6416 58.2729 59.5983H36.0418Z" fill="#263238"/>
<g opacity="0.5">
<path d="M61.0038 93.8038H38.7727C35.5668 93.7462 32.9128 91.065 32.5843 87.5622L30.6397 63.1722C30.4952 61.5001 30.9945 59.828 32.0193 58.5739C33.0573 57.3486 34.5289 56.6567 36.053 56.6711H58.2841C61.49 56.7288 64.144 59.4099 64.4725 62.9128L66.4171 87.3027C66.5616 88.9748 66.0623 90.647 65.0375 91.901C63.9995 93.1263 62.5279 93.8182 61.0038 93.8038ZM36.0398 59.5973C34.5551 59.5397 33.3069 60.8226 33.2675 62.4515C33.2675 62.61 33.2675 62.7542 33.2807 62.9128L35.2252 87.3027C35.4092 89.3064 36.9333 90.8344 38.7596 90.8776H60.9907C62.4754 90.9353 63.7236 89.6523 63.763 88.0234C63.763 87.8649 63.763 87.7207 63.7499 87.5622L61.8053 63.1722C61.6213 61.1686 60.0972 59.6406 58.2709 59.5973H36.0398Z" fill="white"/>
</g>
<path d="M43.9237 85.3993L26.9482 68.2745C25.7657 67.0636 25.6868 65.0455 26.7774 63.7338C27.881 62.4364 29.7205 62.3499 30.9161 63.5464L43.5558 76.3035L68.0731 46.8395C69.1504 45.5278 71.003 45.4269 72.1987 46.6233C73.3943 47.8198 73.4732 49.8523 72.3958 51.164L43.9237 85.3993Z" fill="#25003F"/>
<g opacity="0.2">
<path d="M43.9198 85.3993L26.9443 68.2745C25.7618 67.0636 25.6829 65.0455 26.7735 63.7338C27.8771 62.4364 29.7166 62.3499 30.9122 63.5464L43.5519 76.3035L68.0691 46.8395C69.1465 45.5278 70.9991 45.4269 72.1948 46.6233C73.3904 47.8198 73.4693 49.8523 72.3919 51.164L43.9198 85.3993Z" fill="black"/>
</g>
</svg>
