<svg width="145" height="146" viewBox="0 0 145 146" fill="none" xmlns="http://www.w3.org/2000/svg">
<path d="M17.0588 145.718C12.3676 145.718 8.35029 144.299 5.00676 141.462C1.66892 138.62 0 135.205 0 131.218V29.7178H17.0588V131.218H110.882V145.718H17.0588ZM51.1765 116.718C46.4853 116.718 42.4708 115.299 39.1329 112.462C35.7894 109.62 34.1176 106.205 34.1176 102.218V15.2178C34.1176 11.2303 35.7894 7.81552 39.1329 4.97352C42.4708 2.13636 46.4853 0.717773 51.1765 0.717773H127.941C132.632 0.717773 136.65 2.13636 139.993 4.97352C143.331 7.81552 145 11.2303 145 15.2178V102.218C145 106.205 143.331 109.62 139.993 112.462C136.65 115.299 132.632 116.718 127.941 116.718H51.1765ZM51.1765 102.218H127.941V15.2178H51.1765V102.218Z" fill="#25003F"/>
</svg>
