<svg width="228" height="135" viewBox="0 0 228 135" fill="none" xmlns="http://www.w3.org/2000/svg">
<path d="M68.0161 31.2013H23.4961V0.905273H68.0161V31.2013ZM23.8476 30.8516H67.6646V1.25499H23.8476V30.8516Z" fill="#EBEBEB"/>
<path d="M26.9769 2.85687C26.9769 3.03118 26.9249 3.20156 26.8276 3.34649C26.7302 3.49142 26.5919 3.60438 26.43 3.67108C26.2681 3.73778 26.09 3.75523 25.9181 3.72123C25.7463 3.68722 25.5884 3.60329 25.4646 3.48004C25.3407 3.35679 25.2563 3.19976 25.2221 3.02881C25.1879 2.85785 25.2055 2.68065 25.2725 2.51962C25.3396 2.35858 25.4531 2.22094 25.5988 2.12411C25.7445 2.02727 25.9158 1.97559 26.091 1.97559C26.3259 1.97559 26.5513 2.06844 26.7174 2.23371C26.8835 2.39898 26.9769 2.62314 26.9769 2.85687Z" fill="#A6A6A6"/>
<path d="M30.5941 2.85687C30.5941 3.03118 30.5421 3.20156 30.4448 3.34649C30.3474 3.49142 30.2091 3.60438 30.0472 3.67108C29.8853 3.73778 29.7072 3.75523 29.5353 3.72123C29.3635 3.68722 29.2056 3.60329 29.0817 3.48004C28.9578 3.35679 28.8735 3.19976 28.8393 3.02881C28.8051 2.85785 28.8226 2.68065 28.8897 2.51962C28.9568 2.35858 29.0703 2.22094 29.216 2.12411C29.3617 2.02727 29.533 1.97559 29.7082 1.97559C29.9431 1.97559 30.1685 2.06844 30.3346 2.23371C30.5007 2.39898 30.5941 2.62314 30.5941 2.85687Z" fill="#EBEBEB"/>
<path d="M34.2163 2.85688C34.217 3.03217 34.1654 3.20371 34.0679 3.34975C33.9704 3.49579 33.8316 3.60974 33.6689 3.67714C33.5062 3.74454 33.3271 3.76235 33.1543 3.72832C32.9814 3.6943 32.8226 3.60996 32.698 3.48601C32.5734 3.36206 32.4886 3.20409 32.4544 3.03213C32.4202 2.86017 32.4381 2.68198 32.5059 2.52017C32.5736 2.35835 32.6882 2.2202 32.835 2.12325C32.9818 2.02629 33.1542 1.9749 33.3304 1.97559C33.5654 1.97559 33.7907 2.06844 33.9569 2.23372C34.123 2.39899 34.2163 2.62315 34.2163 2.85688Z" fill="#C5B3D1"/>
<path d="M67.8404 4.40625H23.6719V4.75597H67.8404V4.40625Z" fill="#EBEBEB"/>
<path d="M213.666 110.556H213.314V66.5546L222.711 53.7969V29.9531H223.063V53.9088L213.666 66.67V110.556Z" fill="#EBEBEB"/>
<path d="M222.887 30.1413C222.687 30.1413 222.491 30.0822 222.325 29.9713C222.158 29.8605 222.028 29.703 221.952 29.5188C221.875 29.3345 221.855 29.1318 221.895 28.9364C221.934 28.7409 222.031 28.5614 222.173 28.4207C222.315 28.28 222.495 28.1843 222.692 28.1459C222.889 28.1074 223.092 28.1279 223.277 28.2046C223.462 28.2814 223.62 28.411 223.731 28.5771C223.842 28.7432 223.901 28.9383 223.9 29.1376C223.9 29.2697 223.874 29.4005 223.823 29.5225C223.772 29.6445 223.697 29.7553 223.603 29.8486C223.509 29.9418 223.397 30.0157 223.275 30.0659C223.152 30.1162 223.02 30.1418 222.887 30.1413ZM222.887 28.4802C222.757 28.4802 222.629 28.5187 222.52 28.591C222.412 28.6632 222.327 28.7659 222.277 28.886C222.227 29.0062 222.214 29.1384 222.239 29.2659C222.265 29.3934 222.328 29.5106 222.42 29.6025C222.513 29.6945 222.63 29.7571 222.759 29.7825C222.887 29.8078 223.02 29.7948 223.14 29.7451C223.261 29.6953 223.364 29.611 223.437 29.5029C223.51 29.3948 223.548 29.2677 223.548 29.1376C223.548 28.9633 223.479 28.796 223.355 28.6727C223.231 28.5494 223.063 28.4802 222.887 28.4802Z" fill="#EBEBEB"/>
<path d="M216.088 110.555H215.736V68.0961L215.768 68.0471L225.133 55.3349V38.6953H225.485V55.4503L216.088 68.208V110.555Z" fill="#EBEBEB"/>
<path d="M225.311 38.8845C225.11 38.8852 224.914 38.8266 224.747 38.7162C224.58 38.6058 224.45 38.4485 224.373 38.2643C224.296 38.0802 224.275 37.8774 224.314 37.6817C224.353 37.486 224.45 37.3062 224.591 37.1651C224.733 37.024 224.914 36.9281 225.111 36.8893C225.307 36.8505 225.511 36.8708 225.696 36.9475C225.882 37.0241 226.04 37.1538 226.151 37.3199C226.262 37.4861 226.321 37.6813 226.32 37.8808C226.319 38.1467 226.212 38.4015 226.023 38.5895C225.834 38.7775 225.578 38.8836 225.311 38.8845ZM225.311 37.2233C225.18 37.2226 225.052 37.2606 224.943 37.3324C224.834 37.4043 224.748 37.5067 224.698 37.6268C224.647 37.7468 224.634 37.8791 224.659 38.0069C224.684 38.1347 224.747 38.2521 224.839 38.3444C224.931 38.4367 225.049 38.4997 225.177 38.5254C225.305 38.551 225.438 38.5382 225.559 38.4885C225.68 38.4389 225.784 38.3546 225.857 38.2464C225.929 38.1382 225.968 38.011 225.968 37.8808C225.968 37.707 225.899 37.5403 225.776 37.4171C225.653 37.2939 225.486 37.2243 225.311 37.2233Z" fill="#EBEBEB"/>
<path d="M211.336 52.3594H210.984V110.556H211.336V52.3594Z" fill="#EBEBEB"/>
<path d="M211.161 52.5339C210.96 52.5346 210.764 52.476 210.597 52.3656C210.43 52.2552 210.299 52.0979 210.222 51.9138C210.145 51.7296 210.125 51.5268 210.164 51.3311C210.203 51.1354 210.299 50.9556 210.441 50.8145C210.583 50.6735 210.764 50.5775 210.96 50.5387C211.157 50.5 211.361 50.5202 211.546 50.5969C211.731 50.6735 211.889 50.8032 212 50.9693C212.111 51.1355 212.17 51.3307 212.169 51.5302C212.169 51.7961 212.062 52.0509 211.873 52.2389C211.684 52.4269 211.428 52.533 211.161 52.5339ZM211.161 50.8727C211.03 50.8721 210.902 50.91 210.792 50.9818C210.683 51.0537 210.598 51.1561 210.547 51.2762C210.497 51.3963 210.483 51.5286 210.508 51.6563C210.533 51.7841 210.596 51.9016 210.688 51.9939C210.781 52.0862 210.898 52.1491 211.027 52.1748C211.155 52.2004 211.288 52.1876 211.409 52.138C211.53 52.0883 211.633 52.004 211.706 51.8958C211.779 51.7876 211.818 51.6604 211.818 51.5302C211.818 51.3564 211.749 51.1897 211.626 51.0665C211.502 50.9433 211.335 50.8737 211.161 50.8727Z" fill="#EBEBEB"/>
<path d="M209.09 110.556H208.738V81.0223L202.361 69.0514V47.5508H202.713V68.9675L209.09 80.9383V110.556Z" fill="#EBEBEB"/>
<path d="M202.534 47.7253C202.334 47.7253 202.138 47.6662 201.971 47.5556C201.805 47.4449 201.675 47.2876 201.599 47.1036C201.522 46.9195 201.502 46.717 201.541 46.5216C201.58 46.3263 201.676 46.1468 201.818 46.0059C201.96 45.8651 202.14 45.7692 202.336 45.7303C202.533 45.6914 202.736 45.7114 202.921 45.7876C203.106 45.8638 203.265 45.9929 203.376 46.1586C203.487 46.3242 203.546 46.5189 203.546 46.7181C203.546 46.9852 203.44 47.2414 203.25 47.4303C203.06 47.6192 202.802 47.7253 202.534 47.7253ZM202.534 46.0642C202.403 46.0642 202.275 46.1028 202.166 46.1752C202.058 46.2476 201.973 46.3505 201.923 46.4708C201.873 46.5912 201.86 46.7235 201.886 46.8512C201.912 46.9788 201.975 47.096 202.068 47.1878C202.161 47.2796 202.279 47.3419 202.407 47.3669C202.536 47.3919 202.669 47.3783 202.789 47.328C202.91 47.2777 203.013 47.1929 203.085 47.0843C203.157 46.9758 203.196 46.8483 203.195 46.7181C203.195 46.6319 203.178 46.5466 203.144 46.4671C203.111 46.3875 203.062 46.3152 203.001 46.2545C202.94 46.1937 202.867 46.1456 202.787 46.1129C202.706 46.0803 202.621 46.0637 202.534 46.0642Z" fill="#EBEBEB"/>
<path d="M206.857 110.556H206.506V82.306L198.986 69.0727V54.8916H199.338V68.9782L206.857 82.215V110.556Z" fill="#EBEBEB"/>
<path d="M199.162 55.0661C198.962 55.0668 198.766 55.0082 198.599 54.8978C198.432 54.7874 198.301 54.6302 198.224 54.446C198.147 54.2618 198.127 54.059 198.166 53.8633C198.205 53.6676 198.301 53.4878 198.443 53.3468C198.585 53.2057 198.766 53.1097 198.962 53.0709C199.159 53.0322 199.363 53.0524 199.548 53.1291C199.733 53.2058 199.891 53.3354 200.002 53.5016C200.113 53.6677 200.172 53.8629 200.171 54.0624C200.17 54.3283 200.064 54.5831 199.875 54.7711C199.686 54.9592 199.43 55.0652 199.162 55.0661ZM199.162 53.405C199.032 53.4043 198.903 53.4422 198.794 53.5141C198.685 53.5859 198.6 53.6883 198.549 53.8084C198.499 53.9285 198.485 54.0608 198.51 54.1885C198.535 54.3163 198.598 54.4338 198.69 54.5261C198.783 54.6184 198.9 54.6813 199.029 54.707C199.157 54.7327 199.29 54.7198 199.411 54.6702C199.532 54.6205 199.635 54.5363 199.708 54.4281C199.781 54.3199 199.82 54.1926 199.82 54.0624C199.82 53.8887 199.751 53.722 199.628 53.5988C199.504 53.4756 199.337 53.4059 199.162 53.405Z" fill="#EBEBEB"/>
<path d="M15.9535 110.556H15.602V87.6496L6.20508 74.8919V61.4277H6.55663V74.7765L15.9535 87.5377V110.556Z" fill="#EBEBEB"/>
<path d="M6.37925 61.6159C6.17871 61.6166 5.98247 61.5581 5.81544 61.4476C5.6484 61.3372 5.51809 61.18 5.44102 60.9958C5.36396 60.8116 5.34361 60.6088 5.38256 60.4131C5.42152 60.2174 5.51802 60.0376 5.65982 59.8966C5.80163 59.7555 5.98236 59.6595 6.17908 59.6207C6.37581 59.582 6.57967 59.6022 6.76481 59.6789C6.94996 59.7556 7.10805 59.8852 7.21903 60.0514C7.33001 60.2175 7.38889 60.4127 7.38819 60.6122C7.38819 60.8784 7.2819 61.1337 7.09268 61.322C6.90347 61.5102 6.64684 61.6159 6.37925 61.6159ZM6.37925 59.9548C6.24839 59.9541 6.12026 59.9921 6.01111 60.0639C5.90197 60.1357 5.81671 60.2381 5.76615 60.3582C5.71559 60.4783 5.702 60.6106 5.7271 60.7384C5.7522 60.8661 5.81487 60.9836 5.90716 61.0759C5.99944 61.1682 6.1172 61.2312 6.2455 61.2568C6.3738 61.2825 6.50687 61.2697 6.62784 61.22C6.74881 61.1703 6.85223 61.0861 6.92501 60.9779C6.99779 60.8697 7.03664 60.7424 7.03664 60.6122C7.03665 60.4385 6.9675 60.2718 6.84431 60.1486C6.72113 60.0254 6.55393 59.9557 6.37925 59.9548Z" fill="#EBEBEB"/>
<path d="M13.5297 110.555H13.1781V89.1911L3.78125 76.4334V70.1699H4.1328V76.318L13.5297 89.0791V110.555Z" fill="#EBEBEB"/>
<path d="M3.96558 70.3591C3.76518 70.3591 3.5693 70.2999 3.40272 70.1891C3.23615 70.0783 3.10638 69.9208 3.02986 69.7365C2.95333 69.5523 2.93349 69.3496 2.97284 69.1541C3.01219 68.9587 3.10897 68.7792 3.25091 68.6385C3.39286 68.4978 3.57359 68.4021 3.77022 68.3637C3.96685 68.3252 4.17053 68.3456 4.35547 68.4224C4.54041 68.4992 4.69829 68.6288 4.80912 68.7949C4.91994 68.961 4.97873 69.1561 4.97804 69.3554C4.97711 69.6219 4.87003 69.8772 4.68026 70.0653C4.49048 70.2535 4.23349 70.3591 3.96558 70.3591ZM3.96558 68.6979C3.83486 68.6979 3.70708 68.7365 3.5984 68.8087C3.48971 68.881 3.405 68.9837 3.35498 69.1038C3.30495 69.2239 3.29187 69.3561 3.31737 69.4837C3.34287 69.6112 3.40581 69.7284 3.49824 69.8203C3.59067 69.9123 3.70844 69.9749 3.83664 70.0002C3.96484 70.0256 4.09773 70.0126 4.2185 69.9628C4.33926 69.9131 4.44248 69.8288 4.51511 69.7207C4.58773 69.6126 4.62649 69.4854 4.62649 69.3554C4.62649 69.181 4.55686 69.0138 4.43291 68.8905C4.30897 68.7672 4.14086 68.6979 3.96558 68.6979Z" fill="#EBEBEB"/>
<path d="M18.2832 73.3418H17.9316V110.555H18.2832V73.3418Z" fill="#EBEBEB"/>
<path d="M18.1082 73.5173C17.9078 73.5173 17.7119 73.4581 17.5453 73.3473C17.3787 73.2365 17.249 73.079 17.1724 72.8947C17.0959 72.7105 17.0761 72.5078 17.1154 72.3123C17.1548 72.1169 17.2515 71.9374 17.3935 71.7967C17.5354 71.656 17.7162 71.5603 17.9128 71.5219C18.1094 71.4834 18.3131 71.5038 18.498 71.5806C18.683 71.6574 18.8409 71.787 18.9517 71.9531C19.0625 72.1192 19.1213 72.3143 19.1206 72.5136C19.1197 72.7801 19.0126 73.0354 18.8228 73.2235C18.6331 73.4117 18.3761 73.5173 18.1082 73.5173ZM18.1082 71.8561C17.9774 71.8561 17.8497 71.8947 17.741 71.967C17.6323 72.0392 17.5476 72.1419 17.4976 72.262C17.4475 72.3821 17.4344 72.5143 17.4599 72.6419C17.4854 72.7694 17.5484 72.8866 17.6408 72.9785C17.7333 73.0705 17.851 73.1331 17.9792 73.1584C18.1074 73.1838 18.2403 73.1708 18.3611 73.121C18.4818 73.0713 18.5851 72.987 18.6577 72.8789C18.7303 72.7708 18.7691 72.6436 18.7691 72.5136C18.7691 72.3392 18.6994 72.172 18.5755 72.0487C18.4515 71.9254 18.2834 71.8561 18.1082 71.8561Z" fill="#EBEBEB"/>
<path d="M20.5293 110.556H20.1777V91.4295L20.1953 91.3876L26.5548 79.4587V58.042H26.9064V79.5426L26.8888 79.5811L20.5293 91.5135V110.556Z" fill="#EBEBEB"/>
<path d="M26.7312 58.2165C26.531 58.2165 26.3352 58.1575 26.1687 58.0468C26.0022 57.9361 25.8724 57.7788 25.7958 57.5948C25.7192 57.4107 25.6991 57.2082 25.7382 57.0128C25.7773 56.8175 25.8737 56.638 26.0153 56.4971C26.1569 56.3563 26.3373 56.2604 26.5337 56.2215C26.7301 56.1826 26.9337 56.2026 27.1187 56.2788C27.3037 56.355 27.4618 56.4841 27.573 56.6498C27.6843 56.8154 27.7437 57.0101 27.7437 57.2093C27.7437 57.4765 27.637 57.7326 27.4471 57.9215C27.2572 58.1104 26.9997 58.2165 26.7312 58.2165ZM26.7312 56.5554C26.6003 56.5554 26.4724 56.594 26.3637 56.6664C26.2549 56.7388 26.1702 56.8417 26.1203 56.962C26.0704 57.0824 26.0575 57.2148 26.0833 57.3424C26.1091 57.47 26.1723 57.5872 26.2651 57.679C26.3579 57.7708 26.476 57.8331 26.6044 57.8581C26.7329 57.8831 26.8659 57.8695 26.9866 57.8192C27.1073 57.7689 27.2102 57.6841 27.2824 57.5756C27.3546 57.467 27.3928 57.3395 27.3921 57.2093C27.3921 57.1232 27.375 57.0378 27.3417 56.9583C27.3085 56.8787 27.2597 56.8064 27.1983 56.7457C27.1369 56.6849 27.064 56.6368 26.9839 56.6041C26.9037 56.5715 26.8178 56.5549 26.7312 56.5554Z" fill="#EBEBEB"/>
<path d="M22.7617 110.556H22.4102V92.7063L22.4312 92.6643L29.9298 79.4694V65.3828H30.2813V79.5639L30.2567 79.6023L22.7617 92.7972V110.556Z" fill="#EBEBEB"/>
<path d="M30.1058 65.5573C29.9053 65.558 29.709 65.4995 29.542 65.3891C29.375 65.2787 29.2447 65.1214 29.1676 64.9372C29.0905 64.753 29.0702 64.5502 29.1091 64.3545C29.1481 64.1588 29.2446 63.979 29.3864 63.838C29.5282 63.6969 29.7089 63.6009 29.9056 63.5622C30.1024 63.5234 30.3062 63.5436 30.4914 63.6203C30.6765 63.697 30.8346 63.8266 30.9456 63.9928C31.0566 64.1589 31.1154 64.3541 31.1148 64.5536C31.1138 64.8196 31.0072 65.0743 30.8182 65.2623C30.6292 65.4504 30.3731 65.5564 30.1058 65.5573ZM30.1058 63.8962C29.9749 63.8955 29.8468 63.9335 29.7377 64.0053C29.6285 64.0771 29.5433 64.1795 29.4927 64.2996C29.4421 64.4197 29.4286 64.552 29.4537 64.6798C29.4788 64.8075 29.5414 64.925 29.6337 65.0173C29.726 65.1096 29.8438 65.1726 29.9721 65.1982C30.1004 65.2239 30.2334 65.2111 30.3544 65.1614C30.4754 65.1117 30.5788 65.0275 30.6516 64.9193C30.7244 64.8111 30.7632 64.6838 30.7632 64.5536C30.7632 64.3799 30.6941 64.2132 30.5709 64.09C30.4477 63.9668 30.2805 63.8971 30.1058 63.8962Z" fill="#EBEBEB"/>
<path d="M223.331 24.0147L225.792 20.0804L224.583 19.3355C224.406 19.2265 224.265 19.0702 224.174 18.8846C224.083 18.699 224.047 18.4915 224.069 18.2863C224.088 18.0532 224.095 17.82 224.09 17.5869C224.084 17.3839 224.135 17.1832 224.237 17.0072C224.338 16.8311 224.487 16.6868 224.667 16.5902L225.922 15.9187L223.683 11.862L222.428 12.5335C222.246 12.6282 222.043 12.6711 221.838 12.6576C221.634 12.644 221.438 12.5744 221.271 12.4565C221.081 12.3271 220.884 12.2047 220.68 12.1068C220.5 12.0112 220.349 11.8672 220.246 11.6911C220.143 11.515 220.091 11.3138 220.097 11.1101L220.143 9.69026L215.492 9.54688L215.446 10.9702C215.438 11.1739 215.373 11.3715 215.259 11.5407C215.145 11.7099 214.986 11.8442 214.799 11.9285C214.694 11.9774 214.592 12.0264 214.493 12.0823C214.395 12.1383 214.293 12.1907 214.194 12.2502C214.02 12.3566 213.82 12.4129 213.616 12.4129C213.412 12.4129 213.212 12.3566 213.038 12.2502L211.818 11.4983L209.357 15.4326L210.57 16.1845C210.746 16.2931 210.888 16.4494 210.979 16.6351C211.07 16.8208 211.106 17.0284 211.083 17.2337C211.063 17.4663 211.056 17.6998 211.062 17.9331C211.067 18.1368 211.016 18.338 210.914 18.5146C210.811 18.6911 210.662 18.836 210.482 18.9333L209.248 19.5558L211.449 23.637L212.704 22.969C212.885 22.8738 213.088 22.8303 213.292 22.8432C213.497 22.8562 213.693 22.9252 213.86 23.0425C214.051 23.1696 214.248 23.2863 214.451 23.3922C214.632 23.4878 214.782 23.6318 214.885 23.8079C214.989 23.984 215.04 24.1852 215.035 24.3889L214.992 25.8087L219.643 25.9521L219.689 24.5323C219.697 24.329 219.761 24.1318 219.876 23.9631C219.99 23.7944 220.149 23.6609 220.336 23.5775L220.642 23.4237L220.941 23.2523C221.115 23.146 221.316 23.0897 221.521 23.0897C221.725 23.0897 221.926 23.146 222.101 23.2523L223.331 24.0147ZM219.394 21.0946C218.729 21.4489 217.973 21.5991 217.222 21.5262C216.472 21.4533 215.759 21.1606 215.176 20.6851C214.592 20.2096 214.163 19.5726 213.944 18.8547C213.724 18.1368 213.723 17.3702 213.942 16.6519C214.16 15.9336 214.587 15.2958 215.17 14.8191C215.753 14.3424 216.464 14.0483 217.215 13.974C217.965 13.8996 218.721 14.0483 219.387 14.4013C220.053 14.7543 220.598 15.2958 220.955 15.9572C221.191 16.3975 221.337 16.8798 221.385 17.3765C221.434 17.8731 221.383 18.3744 221.237 18.8516C221.09 19.3288 220.85 19.7725 220.531 20.1574C220.212 20.5423 219.819 20.8607 219.376 21.0946H219.394Z" fill="#EBEBEB"/>
<path d="M9.30127 58.9894L12.1137 57.3667L11.6145 56.5064C11.5429 56.3826 11.5077 56.2413 11.5127 56.0985C11.5176 55.9558 11.5626 55.8172 11.6426 55.6986C11.7316 55.5634 11.8125 55.4235 11.8851 55.2789C11.9504 55.1494 12.0509 55.0407 12.1752 54.9653C12.2995 54.8899 12.4426 54.8507 12.5882 54.8523H13.5866V51.6069H12.5882C12.4426 51.6085 12.2995 51.5693 12.1752 51.4939C12.0509 51.4184 11.9504 51.3097 11.8851 51.1802C11.8125 51.0357 11.7316 50.8958 11.6426 50.7606C11.5626 50.6419 11.5176 50.5034 11.5127 50.3606C11.5077 50.2179 11.5429 50.0766 11.6145 49.9527L12.1137 49.0924L9.30127 47.4697L8.80207 48.3335C8.73143 48.455 8.62833 48.5546 8.50421 48.6213C8.38008 48.688 8.23981 48.7191 8.09897 48.7112H7.60329C7.46292 48.7186 7.32319 48.6877 7.19925 48.6217C7.07531 48.5558 6.97188 48.4573 6.90019 48.337L6.39748 47.4697L3.58509 49.0924L4.08429 49.9562C4.1558 50.0801 4.19106 50.2214 4.18609 50.3641C4.18112 50.5069 4.13612 50.6454 4.05617 50.7641C3.96782 50.8983 3.88685 51.0373 3.8136 51.1802C3.74838 51.3097 3.64788 51.4184 3.52356 51.4939C3.39924 51.5693 3.25612 51.6085 3.1105 51.6069H2.10156V54.8523H3.09996C3.24557 54.8507 3.3887 54.8899 3.51301 54.9653C3.63733 55.0407 3.73783 55.1494 3.80306 55.2789C3.8763 55.4219 3.95727 55.5608 4.04562 55.6951C4.1255 55.8144 4.17043 55.9535 4.17539 56.0968C4.18036 56.2401 4.14517 56.3819 4.07375 56.5064L3.57455 57.3667L6.38693 58.9894L6.88965 58.1256C6.96117 58.005 7.06446 57.906 7.18837 57.8394C7.31227 57.7729 7.45209 57.7412 7.59274 57.7479C7.67008 57.7479 7.75094 57.7479 7.8318 57.7479C7.91265 57.7479 7.99351 57.7479 8.07436 57.7479C8.21496 57.7416 8.35463 57.7734 8.47846 57.84C8.6023 57.9065 8.70564 58.0052 8.77746 58.1256L9.30127 58.9894ZM7.8318 55.8874C7.30352 55.8867 6.78731 55.7303 6.3484 55.4378C5.90949 55.1453 5.56759 54.73 5.36591 54.2443C5.16423 53.7585 5.11182 53.2243 5.21531 52.7089C5.3188 52.1936 5.57354 51.7203 5.94733 51.349C6.32112 50.9776 6.79719 50.7248 7.31537 50.6225C7.83354 50.5203 8.37057 50.5731 8.85856 50.7744C9.34656 50.9756 9.76362 51.3163 10.057 51.7533C10.3505 52.1903 10.5071 52.704 10.5071 53.2296C10.5075 53.579 10.4386 53.9251 10.3043 54.248C10.17 54.5709 9.97289 54.8643 9.72432 55.1112C9.47576 55.3582 9.18063 55.5539 8.85586 55.6871C8.5311 55.8203 8.18308 55.8883 7.8318 55.8874Z" fill="#EBEBEB"/>
<path d="M208.944 26.8614L207.317 24.0637L206.455 24.5498C206.33 24.6209 206.188 24.6559 206.044 24.6509C205.9 24.646 205.76 24.6013 205.64 24.5218C205.504 24.4332 205.363 24.3526 205.218 24.2805C205.088 24.2156 204.979 24.1157 204.903 23.992C204.827 23.8683 204.788 23.7259 204.789 23.5811V22.5879H201.534V23.5811C201.535 23.7259 201.496 23.8683 201.42 23.992C201.344 24.1157 201.235 24.2156 201.105 24.2805C200.959 24.3533 200.817 24.4339 200.68 24.5218C200.56 24.6014 200.421 24.6461 200.278 24.6511C200.134 24.656 199.992 24.6209 199.867 24.5498L199.003 24.0532L197.375 26.8509L198.243 27.3475C198.367 27.421 198.467 27.5267 198.534 27.6531C198.601 27.7795 198.632 27.9218 198.623 28.0645C198.623 28.1449 198.623 28.2253 198.623 28.3023C198.623 28.3792 198.623 28.4631 198.623 28.5436C198.63 28.6836 198.598 28.8228 198.532 28.9461C198.465 29.0695 198.365 29.1722 198.243 29.243L197.375 29.7431L199.003 32.5409L199.871 32.0443C199.996 31.9731 200.138 31.938 200.281 31.943C200.425 31.9479 200.564 31.9927 200.683 32.0722C200.821 32.1608 200.962 32.2413 201.105 32.3135C201.235 32.3784 201.344 32.4784 201.42 32.6021C201.496 32.7257 201.535 32.8681 201.534 33.013V34.0062H204.793V33.013C204.791 32.8681 204.83 32.7257 204.906 32.6021C204.982 32.4784 205.091 32.3784 205.222 32.3135C205.367 32.2389 205.507 32.1585 205.643 32.0722C205.763 31.9927 205.902 31.9479 206.045 31.943C206.189 31.938 206.331 31.9731 206.455 32.0443L207.324 32.5409L208.951 29.7431L208.083 29.2465C207.963 29.1749 207.864 29.072 207.797 28.9487C207.731 28.8255 207.7 28.6867 207.707 28.5471C207.707 28.4666 207.707 28.3862 207.707 28.3058C207.707 28.2253 207.707 28.1484 207.707 28.068C207.698 27.9253 207.728 27.7828 207.795 27.6563C207.862 27.5298 207.963 27.4242 208.087 27.351L208.944 26.8614ZM205.826 28.2988C205.826 28.8246 205.669 29.3386 205.376 29.7758C205.082 30.2129 204.664 30.5536 204.176 30.7546C203.688 30.9557 203.15 31.0081 202.632 30.9053C202.114 30.8025 201.637 30.549 201.264 30.1769C200.89 29.8049 200.636 29.331 200.534 28.8152C200.431 28.2994 200.484 27.7648 200.687 27.2792C200.89 26.7936 201.233 26.3788 201.673 26.0872C202.112 25.7955 202.629 25.6402 203.158 25.6409C203.509 25.6409 203.856 25.7097 204.18 25.8433C204.504 25.9769 204.798 26.1728 205.046 26.4196C205.294 26.6665 205.49 26.9595 205.624 27.2819C205.758 27.6044 205.827 27.9499 205.826 28.2988Z" fill="#EBEBEB"/>
<path d="M0 110.547L28.5 110.463L57 110.432L114 110.372L171 110.432L199.5 110.463L228 110.547L199.5 110.634L171 110.662L114 110.722L57 110.662L28.5 110.631L0 110.547Z" fill="#263238"/>
<path d="M196.595 8.74121H30.8086V119.063H196.595V8.74121Z" fill="#EBEBEB"/>
<path d="M195.391 10.0879H32.0156V117.717H195.391V10.0879Z" fill="#263238"/>
<path d="M218.187 127.334H9.2168V134.905H218.187V127.334Z" fill="#DBDBDB"/>
<path d="M9.2168 127.334L30.8124 119.063H196.595L218.191 127.334H9.2168Z" fill="#EBEBEB"/>
<path d="M32.7383 124.4L46.6736 119.063H180.733L194.668 124.4H32.7383Z" fill="#263238"/>
<path d="M186.162 18.2637H41.25V109.54H186.162V18.2637Z" fill="white"/>
<path d="M186.162 18.2637H41.127V21.7748H186.162V18.2637Z" fill="#455A64"/>
<path d="M43.9324 20.0192C43.9324 20.1915 43.881 20.3598 43.7848 20.503C43.6886 20.6462 43.5519 20.7578 43.392 20.8237C43.232 20.8897 43.056 20.9069 42.8862 20.8733C42.7164 20.8397 42.5604 20.7568 42.438 20.635C42.3156 20.5132 42.2322 20.358 42.1985 20.1891C42.1647 20.0202 42.182 19.8451 42.2483 19.686C42.3145 19.5269 42.4267 19.3909 42.5707 19.2952C42.7146 19.1995 42.8839 19.1484 43.057 19.1484C43.2892 19.1484 43.5118 19.2402 43.676 19.4035C43.8401 19.5668 43.9324 19.7883 43.9324 20.0192Z" fill="#C7C7C7"/>
<path d="M47.5066 20.0192C47.5066 20.1915 47.4552 20.3598 47.359 20.503C47.2629 20.6462 47.1261 20.7578 46.9662 20.8238C46.8062 20.8897 46.6302 20.9069 46.4604 20.8733C46.2906 20.8397 46.1347 20.7568 46.0122 20.635C45.8898 20.5132 45.8065 20.358 45.7727 20.1891C45.7389 20.0202 45.7562 19.8451 45.8225 19.686C45.8887 19.5269 46.0009 19.3909 46.1449 19.2952C46.2888 19.1995 46.4581 19.1484 46.6312 19.1484C46.7463 19.148 46.8603 19.1702 46.9668 19.2138C47.0732 19.2574 47.1698 19.3215 47.2512 19.4025C47.3326 19.4834 47.3971 19.5796 47.4409 19.6855C47.4847 19.7913 47.507 19.9048 47.5066 20.0192Z" fill="white"/>
<path d="M51.073 20.0192C51.073 20.1915 51.0216 20.3598 50.9255 20.503C50.8293 20.6462 50.6926 20.7578 50.5326 20.8238C50.3727 20.8897 50.1967 20.9069 50.0269 20.8733C49.857 20.8397 49.7011 20.7568 49.5787 20.635C49.4562 20.5132 49.3729 20.358 49.3391 20.1891C49.3053 20.0202 49.3226 19.8451 49.3889 19.686C49.4552 19.5269 49.5674 19.3909 49.7113 19.2952C49.8553 19.1995 50.0245 19.1484 50.1976 19.1484C50.3127 19.148 50.4267 19.1702 50.5332 19.2138C50.6396 19.2574 50.7363 19.3215 50.8176 19.4025C50.899 19.4834 50.9635 19.5796 51.0073 19.6855C51.0511 19.7913 51.0734 19.9048 51.073 20.0192Z" fill="#C5B3D1"/>
<path d="M186.161 21.7754H183.588V109.537H186.161V21.7754Z" fill="#DBDBDB"/>
<path d="M184.871 52.2004C184.695 52.2004 184.526 52.1308 184.402 52.0068C184.277 51.8829 184.207 51.7147 184.207 51.5394V22.95C184.207 22.7747 184.277 22.6066 184.402 22.4827C184.526 22.3587 184.695 22.2891 184.871 22.2891C185.048 22.2891 185.217 22.3587 185.341 22.4827C185.466 22.6066 185.536 22.7747 185.536 22.95V51.5394C185.536 51.7147 185.466 51.8829 185.341 52.0068C185.217 52.1308 185.048 52.2004 184.871 52.2004Z" fill="#A6A6A6"/>
<path d="M165.882 44.5381H62.1191V60.1845H165.882V44.5381Z" fill="white"/>
<path d="M166.058 60.3559H61.9434V44.3633H166.058V60.3559ZM62.2949 60.0062H165.706V44.713H62.2949V60.0062Z" fill="#DBDBDB"/>
<path d="M71.2808 48.7764C71.4827 49.3566 71.6206 49.957 71.6921 50.5669C71.8445 51.757 71.8445 52.9615 71.6921 54.1515C71.619 54.7615 71.4799 55.3618 71.2773 55.9421C71.0731 55.3623 70.9339 54.7618 70.8625 54.1515C70.7125 52.9613 70.7125 51.7571 70.8625 50.5669C70.9381 49.9571 71.0783 49.3569 71.2808 48.7764Z" fill="#37474F"/>
<path d="M74.881 52.3575C74.2986 52.5638 73.6949 52.7045 73.081 52.7771C72.4841 52.8527 71.8829 52.8901 71.2811 52.889C70.6793 52.8919 70.0779 52.8545 69.4812 52.7771C68.8665 52.7064 68.2617 52.568 67.6777 52.3644C68.2626 52.1641 68.8671 52.0258 69.4812 51.9518C70.0781 51.8761 70.6793 51.8387 71.2811 51.8399C71.8829 51.8417 72.484 51.8803 73.081 51.9553C73.6939 52.0238 74.2975 52.1586 74.881 52.3575Z" fill="#37474F"/>
<path d="M73.8264 49.8262C73.5566 50.3785 73.2277 50.9002 72.8455 51.3824C72.4784 51.8568 72.0803 52.3065 71.6538 52.7288C71.2286 53.1535 70.7765 53.5507 70.3003 53.9179C69.8144 54.2981 69.2887 54.6252 68.7324 54.8936C69.0022 54.3402 69.331 53.8172 69.7132 53.3338C70.0824 52.8601 70.4816 52.4104 70.9085 51.9874C71.3346 51.5648 71.7866 51.1689 72.262 50.8019C72.7472 50.4224 73.2716 50.0953 73.8264 49.8262Z" fill="#37474F"/>
<path d="M73.8256 54.8937C73.2708 54.6246 72.7464 54.2975 72.2612 53.918C71.785 53.5508 71.3329 53.1537 70.9077 52.729C70.4774 52.306 70.0757 51.855 69.7054 51.3791C69.3232 50.8957 68.9944 50.3727 68.7246 49.8193C69.2816 50.0864 69.8074 50.4136 70.2925 50.7951C71.2465 51.5284 72.1019 52.3805 72.8377 53.3305C73.2228 53.8146 73.554 54.3387 73.8256 54.8937Z" fill="#37474F"/>
<path d="M85.3204 48.7764C85.5223 49.3566 85.6602 49.957 85.7317 50.5669C85.8071 51.1609 85.8458 51.7588 85.8478 52.3575C85.8488 52.9573 85.8112 53.5565 85.7353 54.1515C85.6604 54.7612 85.5214 55.3613 85.3204 55.9421C85.1162 55.3623 84.9771 54.7618 84.9056 54.1515C84.8279 53.5567 84.7903 52.9573 84.7931 52.3575C84.7922 51.7589 84.8297 51.1608 84.9056 50.5669C84.9784 49.9569 85.1175 49.3565 85.3204 48.7764Z" fill="#37474F"/>
<path d="M88.922 52.3576C88.3392 52.5612 87.7355 52.6996 87.122 52.7703C86.5251 52.8457 85.9239 52.8831 85.3221 52.8822C84.7191 52.885 84.1166 52.8476 83.5187 52.7703C82.9052 52.6992 82.3016 52.5608 81.7188 52.3576C82.3025 52.1577 82.9058 52.0194 83.5187 51.9449C84.1168 51.8694 84.7192 51.832 85.3221 51.833C85.9239 51.835 86.525 51.8735 87.122 51.9484C87.7351 52.0196 88.3386 52.1568 88.922 52.3576Z" fill="#37474F"/>
<path d="M87.8674 49.8262C87.5976 50.3785 87.2688 50.9002 86.8865 51.3824C86.5194 51.8568 86.1213 52.3065 85.6948 52.7288C85.2696 53.1535 84.8175 53.5507 84.3413 53.9179C83.8554 54.2981 83.3297 54.6252 82.7734 54.8936C83.0432 54.3402 83.372 53.8172 83.7542 53.3338C84.1234 52.8601 84.5226 52.4104 84.9495 51.9874C85.374 51.5631 85.8262 51.1671 86.303 50.8019C86.7877 50.4217 87.3122 50.0945 87.8674 49.8262Z" fill="#37474F"/>
<path d="M87.867 54.8937C87.3118 54.6254 86.7873 54.2982 86.3026 53.918C85.8249 53.5526 85.3727 53.1554 84.9491 52.729C84.526 52.3053 84.1314 51.8544 83.7679 51.3791C83.3857 50.8957 83.0569 50.3727 82.7871 49.8193C83.3441 50.0864 83.8699 50.4136 84.355 50.7951C85.309 51.5284 86.1644 52.3805 86.9002 53.3305C87.278 53.8155 87.6021 54.3396 87.867 54.8937Z" fill="#37474F"/>
<path d="M99.3594 48.7764C99.564 49.3561 99.7031 49.9566 99.7742 50.5669C99.85 51.1608 99.8876 51.7589 99.8867 52.3575C99.8895 52.9573 99.8519 53.5567 99.7742 54.1515C99.7027 54.7618 99.5636 55.3623 99.3594 55.9421C99.1579 55.3617 99.02 54.7614 98.948 54.1515C98.8709 53.5566 98.8321 52.9573 98.832 52.3575C98.834 51.7588 98.8727 51.1609 98.948 50.5669C99.0196 49.957 99.1575 49.3566 99.3594 48.7764Z" fill="#37474F"/>
<path d="M102.961 52.3576C102.378 52.5608 101.775 52.6992 101.161 52.7703C100.563 52.8458 99.9606 52.8832 99.3577 52.8822C98.7559 52.8849 98.1545 52.8475 97.5577 52.7703C96.9442 52.6996 96.3405 52.5612 95.7578 52.3576C96.3415 52.1573 96.9448 52.019 97.5577 51.9449C98.1547 51.8695 98.7559 51.8321 99.3577 51.833C99.9606 51.8349 100.563 51.8734 101.161 51.9484C101.774 52.02 102.378 52.1572 102.961 52.3576Z" fill="#37474F"/>
<path d="M101.906 49.8262C101.637 50.3785 101.308 50.9002 100.926 51.3824C100.559 51.8568 100.16 52.3065 99.7339 52.7288C99.3087 53.1535 98.8566 53.5507 98.3804 53.9179C97.8945 54.2981 97.3688 54.6252 96.8125 54.8936C97.081 54.3395 97.4099 53.8164 97.7933 53.3338C98.1623 52.861 98.5603 52.4113 98.9851 51.9874C99.4116 51.564 99.8649 51.168 100.342 50.8019C100.827 50.4217 101.351 50.0945 101.906 49.8262Z" fill="#37474F"/>
<path d="M101.906 54.8937C101.351 54.6254 100.827 54.2982 100.342 53.918C99.864 53.5517 99.4107 53.1545 98.9851 52.729C98.5592 52.3048 98.1612 51.8539 97.7933 51.3791C97.4099 50.8965 97.081 50.3734 96.8125 49.8193C97.3695 50.0864 97.8953 50.4136 98.3804 50.7951C99.3344 51.5284 100.19 52.3805 100.926 53.3305C101.308 53.8149 101.637 54.339 101.906 54.8937Z" fill="#37474F"/>
<path d="M113.4 48.7764C113.603 49.3565 113.742 49.9569 113.815 50.5669C113.965 51.7571 113.965 52.9613 113.815 54.1515C113.744 54.7618 113.605 55.3623 113.4 55.9421C113.198 55.3618 113.059 54.7615 112.986 54.1515C112.91 53.5565 112.872 52.9573 112.873 52.3575C112.875 51.7588 112.914 51.1609 112.989 50.5669C113.061 49.957 113.199 49.3566 113.4 48.7764Z" fill="#37474F"/>
<path d="M117.002 52.3576C116.419 52.5608 115.816 52.6992 115.202 52.7703C114.604 52.8458 114.002 52.8832 113.399 52.8822C112.797 52.8849 112.196 52.8475 111.599 52.7703C110.985 52.6996 110.382 52.5612 109.799 52.3576C110.383 52.1573 110.986 52.019 111.599 51.9449C112.196 51.8695 112.797 51.8321 113.399 51.833C114.002 51.8349 114.604 51.8734 115.202 51.9484C115.815 52.02 116.419 52.1572 117.002 52.3576Z" fill="#37474F"/>
<path d="M115.947 49.8262C115.678 50.3785 115.349 50.9002 114.967 51.3824C114.598 51.8568 114.199 52.3066 113.771 52.7288C113.348 53.1552 112.896 53.5524 112.418 53.9179C111.933 54.2981 111.409 54.6252 110.854 54.8936C111.121 54.3387 111.45 53.8155 111.834 53.3338C112.202 52.8602 112.6 52.4104 113.026 51.9874C113.452 51.5648 113.904 51.1689 114.38 50.8019C114.866 50.4224 115.392 50.0953 115.947 49.8262Z" fill="#37474F"/>
<path d="M115.947 54.8936C115.392 54.6244 114.866 54.2974 114.38 53.9179C113.903 53.5507 113.451 53.1535 113.026 52.7288C112.6 52.3078 112.201 51.8592 111.834 51.3859C111.45 50.9042 111.121 50.381 110.854 49.8262C111.409 50.0932 111.934 50.4204 112.418 50.8019C112.896 51.1661 113.348 51.5622 113.771 51.9874C114.198 52.4117 114.597 52.8626 114.967 53.3373C115.349 53.8195 115.678 54.3413 115.947 54.8936Z" fill="#37474F"/>
<path d="M127.441 48.7764C127.643 49.357 127.782 49.9572 127.856 50.5669C128.006 51.7571 128.006 52.9613 127.856 54.1515C127.785 54.7618 127.645 55.3623 127.441 55.9421C127.239 55.3618 127.1 54.7615 127.026 54.1515C126.874 52.9615 126.874 51.757 127.026 50.5669C127.099 49.9569 127.238 49.3565 127.441 48.7764Z" fill="#37474F"/>
<path d="M131.043 52.3576C130.46 52.5612 129.855 52.6996 129.24 52.7703C128.643 52.846 128.042 52.8833 127.44 52.8822C126.838 52.885 126.237 52.8476 125.64 52.7703C125.028 52.6997 124.425 52.5613 123.844 52.3576C124.427 52.157 125.031 52.0186 125.644 51.9449C126.241 51.8694 126.842 51.832 127.444 51.833C128.045 51.8348 128.646 51.8733 129.244 51.9484C129.857 52.0198 130.46 52.157 131.043 52.3576Z" fill="#37474F"/>
<path d="M129.988 49.8262C129.719 50.3793 129.389 50.9012 129.004 51.3824C128.266 52.3302 127.411 53.1821 126.459 53.9179C125.974 54.2981 125.45 54.6252 124.895 54.8936C125.162 54.3387 125.491 53.8155 125.875 53.3338C126.243 52.8602 126.641 52.4104 127.067 51.9874C127.493 51.5648 127.945 51.1689 128.421 50.8019C128.906 50.4216 129.432 50.0945 129.988 49.8262Z" fill="#37474F"/>
<path d="M129.988 54.8936C129.432 54.6252 128.906 54.2981 128.421 53.9179C127.944 53.5507 127.492 53.1535 127.067 52.7288C126.641 52.3078 126.242 51.8592 125.875 51.3859C125.491 50.9042 125.162 50.381 124.895 49.8262C125.45 50.0932 125.975 50.4204 126.459 50.8019C126.937 51.1661 127.389 51.5622 127.812 51.9874C128.239 52.4109 128.637 52.8618 129.004 53.3373C129.389 53.8185 129.719 54.3404 129.988 54.8936Z" fill="#37474F"/>
<path d="M141.482 48.7764C141.684 49.3566 141.822 49.957 141.893 50.5669C142.046 51.757 142.046 52.9615 141.893 54.1515C141.82 54.7615 141.681 55.3618 141.478 55.9421C141.274 55.3623 141.135 54.7618 141.064 54.1515C140.914 52.9613 140.914 51.7571 141.064 50.5669C141.139 49.9571 141.279 49.3569 141.482 48.7764Z" fill="#37474F"/>
<path d="M145.08 52.3576C144.498 52.5616 143.894 52.7 143.28 52.7703C142.683 52.8459 142.082 52.8832 141.48 52.8822C140.879 52.8851 140.277 52.8477 139.68 52.7703C139.066 52.6996 138.461 52.5612 137.877 52.3576C138.462 52.1573 139.066 52.019 139.68 51.9449C140.277 51.8692 140.879 51.8319 141.48 51.833C142.082 51.8349 142.683 51.8734 143.28 51.9484C143.893 52.0192 144.497 52.1564 145.08 52.3576Z" fill="#37474F"/>
<path d="M144.026 49.8262C143.759 50.3799 143.43 50.902 143.045 51.3824C142.679 51.8576 142.281 52.3074 141.853 52.7288C141.428 53.1535 140.976 53.5507 140.5 53.9179C140.015 54.2973 139.49 54.6244 138.936 54.8936C139.203 54.3396 139.531 53.8165 139.913 53.3338C140.653 52.387 141.509 51.5364 142.462 50.8019C142.947 50.4224 143.471 50.0953 144.026 49.8262Z" fill="#37474F"/>
<path d="M144.026 54.8936C143.471 54.6244 142.947 54.2973 142.462 53.9179C141.511 53.1809 140.655 52.3305 139.913 51.3859C139.531 50.9033 139.203 50.3802 138.936 49.8262C139.491 50.0941 140.016 50.4212 140.5 50.8019C140.976 51.1679 141.428 51.5639 141.853 51.9874C142.28 52.4109 142.678 52.8618 143.045 53.3373C143.43 53.8178 143.759 54.3398 144.026 54.8936Z" fill="#37474F"/>
<path d="M131.741 49.1973V68.2429H126.331V49.1973C126.331 41.9547 120.801 36.0654 113.998 36.0654C107.196 36.0654 101.666 41.9547 101.666 49.1973V68.2429H96.2559V49.1973C96.2559 38.8247 104.215 30.3965 113.998 30.3965C123.782 30.3965 131.741 38.8247 131.741 49.1973Z" fill="#455A64"/>
<path d="M96.2559 54.1494L101.666 54.3662V68.243H96.2559V54.1494Z" fill="#263238"/>
<path d="M131.742 55.5865V68.2428H126.332V55.3662L131.742 55.5865Z" fill="#263238"/>
<path d="M138.678 57.3984H89.3242V101.942H138.678V57.3984Z" fill="#C5B3D1"/>
<path opacity="0.1" d="M138.675 57.3984H114V101.942H138.675V57.3984Z" fill="black"/>
<path d="M116.087 81.3014L118.15 91.048H109.383L111.45 81.3014C110.642 80.8003 110.019 80.051 109.677 79.1668C109.335 78.2827 109.292 77.3117 109.554 76.4008C109.816 75.4899 110.369 74.6886 111.129 74.1182C111.889 73.5478 112.816 73.2393 113.768 73.2393C114.721 73.2393 115.647 73.5478 116.408 74.1182C117.168 74.6886 117.721 75.4899 117.983 76.4008C118.245 77.3117 118.202 78.2827 117.86 79.1668C117.517 80.051 116.895 80.8003 116.087 81.3014Z" fill="#263238"/>
<path d="M99.6634 81.2836C99.6634 81.2836 97.083 101.833 92.8434 106.463C87.7529 112.01 84.0547 111.198 82.0016 114.059C79.9486 111.195 76.2538 112.01 71.1564 106.46C66.9167 101.833 64.3398 81.2801 64.3398 81.2801C75.512 75.8874 82.0086 69.8408 82.0086 69.8408C82.202 70.0297 88.6635 75.9749 99.6634 81.2836Z" fill="#EBEBEB"/>
<path d="M82.0094 69.8443V114.056C79.9564 111.191 76.2616 112.006 71.1642 106.456C66.9245 101.829 64.3477 81.2766 64.3477 81.2766C75.5128 75.8874 82.0094 69.8408 82.0094 69.8408V69.8443Z" fill="#DBDBDB"/>
<path d="M96.9245 82.9412C96.9245 82.9412 94.745 100.298 91.1627 104.208C86.8562 108.901 83.7345 108.212 81.9978 110.628C80.2612 108.212 77.1394 108.901 72.8365 104.208C69.2542 100.298 67.0781 82.9412 67.0781 82.9412C76.5172 78.3948 81.9978 73.2715 81.9978 73.2715C81.9978 73.2715 87.4855 78.3809 96.9245 82.9412Z" fill="#DBDBDB"/>
<path d="M67.082 82.941C67.082 82.941 69.2616 100.298 72.8439 104.207C77.1433 108.897 80.251 108.212 82.0088 110.621V73.2783C81.8365 73.4322 76.384 78.4506 67.082 82.941Z" fill="#C7C7C7"/>
<path d="M86.8931 96.8168C89.5949 94.1291 89.5949 89.7713 86.8931 87.0836C84.1913 84.3958 79.8107 84.3958 77.1089 87.0836C74.4071 89.7713 74.4071 94.1291 77.1089 96.8168C79.8107 99.5046 84.1913 99.5046 86.8931 96.8168Z" fill="#C5B3D1"/>
<path d="M81.2139 96.423L78.1309 93.2336L79.2734 92.139L80.9714 93.8981L84.6345 88.3096L85.9633 89.1699L81.2139 96.423Z" fill="white"/>
</svg>
