<svg width="152" height="153" viewBox="0 0 152 153" fill="none" xmlns="http://www.w3.org/2000/svg">
<path fill-rule="evenodd" clip-rule="evenodd" d="M38 14.1751V139.635C38 146.964 43.8483 152.905 51.0625 152.905H138.938C146.152 152.905 152 146.964 152 139.635V35.8238C152 32.2791 150.604 28.8818 148.123 26.3892L126.577 4.74048C124.132 2.28339 120.831 0.905273 117.392 0.905273H51.0625C43.8483 0.905273 38 6.84639 38 14.1751ZM46.3125 139.635V14.1751C46.3125 11.5101 48.4391 9.34972 51.0625 9.34972H115.781V38.3021C115.781 43.299 119.769 47.3497 124.688 47.3497H143.688V139.635C143.688 142.3 141.561 144.461 138.938 144.461H51.0625C48.4391 144.461 46.3125 142.3 46.3125 139.635ZM143.688 38.9053V35.8238C143.688 34.5348 143.18 33.2994 142.278 32.393L124.094 14.1224V38.3021C124.094 38.6352 124.36 38.9053 124.688 38.9053H143.688Z" fill="#25003F"/>
<path fill-rule="evenodd" clip-rule="evenodd" d="M97.373 63.25C97.373 60.9546 99.2339 59.0938 101.529 59.0938H128.842C131.137 59.0938 132.998 60.9546 132.998 63.25C132.998 65.5454 131.137 67.4062 128.842 67.4062H101.529C99.2339 67.4062 97.373 65.5454 97.373 63.25Z" fill="#25003F"/>
<path fill-rule="evenodd" clip-rule="evenodd" d="M97.373 82.25C97.373 79.9546 99.2339 78.0938 101.529 78.0938H128.842C131.137 78.0938 132.998 79.9546 132.998 82.25C132.998 84.5454 131.137 86.4062 128.842 86.4062H101.529C99.2339 86.4062 97.373 84.5454 97.373 82.25Z" fill="#25003F"/>
<path fill-rule="evenodd" clip-rule="evenodd" d="M97.373 101.25C97.373 98.9546 99.2339 97.0938 101.529 97.0938H128.842C131.137 97.0938 132.998 98.9546 132.998 101.25C132.998 103.545 131.137 105.406 128.842 105.406H101.529C99.2339 105.406 97.373 103.545 97.373 101.25Z" fill="#25003F"/>
<path d="M4 44.8428C4 43.1169 5.39911 41.7178 7.125 41.7178H78.375C80.1009 41.7178 81.5 43.1169 81.5 44.8428V116.093C81.5 117.819 80.1009 119.218 78.375 119.218H7.125C5.39911 119.218 4 117.819 4 116.093V44.8428Z" fill="white" stroke="#25003F" stroke-width="8"/>
<path d="M25.9441 103.132L16.625 55.5303H24.7102L30.5549 88.2283L37.6985 55.5303H47.0825L53.9338 88.7803L59.9409 55.5303H67.8638L58.3823 103.132H50.0049L42.2119 67.5444L34.4839 103.132H25.9441Z" fill="#25003F"/>
</svg>
