<svg width="181" height="168" viewBox="0 0 181 168" fill="none" xmlns="http://www.w3.org/2000/svg">
<path d="M18.6086 20.6705C31.6405 -7.08965 77.915 -3.17194 95.7686 16.3512C113.622 35.8744 119.433 48.3793 135.541 41.0995C151.649 33.8198 172.191 35.7576 173.372 58.9183C174.553 82.079 155.672 109.466 125.721 117.567C95.7686 125.669 95.7686 154.344 56.136 148.559C34.5204 145.402 34.0256 122.008 37.0782 102.653C40.1308 83.2978 3.49488 52.862 18.6086 20.6705Z" fill="#CC9EFF"/>
<path opacity="0.9" d="M18.6086 20.6705C31.6405 -7.08965 77.915 -3.17194 95.7686 16.3512C113.622 35.8744 119.433 48.3793 135.541 41.0995C151.649 33.8198 172.191 35.7576 173.372 58.9183C174.553 82.079 155.672 109.466 125.721 117.567C95.7686 125.669 95.7686 154.344 56.136 148.559C34.5204 145.402 34.0256 122.008 37.0782 102.653C40.1308 83.2978 3.49488 52.862 18.6086 20.6705Z" fill="white"/>
<path d="M90.5 167.779C140.482 167.779 181 165.412 181 162.493C181 159.574 140.482 157.207 90.5 157.207C40.5182 157.207 0 159.574 0 162.493C0 165.412 40.5182 167.779 90.5 167.779Z" fill="#F5F5F5"/>
<path d="M130.209 40.9512L57.5625 40.9512L57.5625 162.111H130.209V40.9512Z" fill="#CC9EFF"/>
<path opacity="0.5" d="M130.209 40.9512L57.5625 40.9512L57.5625 162.111H130.209V40.9512Z" fill="white"/>
<path d="M120.758 40.9512L48.1113 40.9512L48.1113 162.111H120.758L120.758 40.9512Z" fill="#CC9EFF"/>
<path opacity="0.7" d="M120.758 40.9512L48.1113 40.9512L48.1113 162.111H120.758L120.758 40.9512Z" fill="white"/>
<g opacity="0.2">
<path d="M122.964 40.9375L122.736 102.832L122.512 40.9375H122.964Z" fill="black"/>
<path d="M124.915 40.9375L124.691 109.121L124.467 40.9375H124.915Z" fill="black"/>
<path d="M129.106 40.9375L128.882 72.3725L128.658 40.9375H129.106Z" fill="black"/>
<path d="M124.467 161.676L124.691 119.314L124.915 161.676H124.467Z" fill="black"/>
<path d="M126.521 162.129L126.75 78.498L126.974 162.129H126.521Z" fill="black"/>
<path d="M128.658 161.677L128.882 121.271L129.106 161.677H128.658Z" fill="black"/>
<path d="M126.974 40.9375L126.75 68.3334L126.521 40.9375H126.974Z" fill="black"/>
<path d="M122.512 161.896L122.736 114.436L122.964 161.896H122.512Z" fill="black"/>
</g>
<path d="M44.8146 58.2422H51.5126V77.2891H44.8146C44.6524 77.2891 44.4969 77.2246 44.3822 77.1099C44.2676 76.9952 44.2031 76.8396 44.2031 76.6774V58.8586C44.2025 58.7778 44.2179 58.6978 44.2483 58.623C44.2788 58.5483 44.3237 58.4803 44.3806 58.423C44.4374 58.3657 44.505 58.3202 44.5795 58.2892C44.654 58.2582 44.7339 58.2422 44.8146 58.2422Z" fill="#263238"/>
<path d="M51.784 73.5533C51.7246 73.5533 51.6676 73.5297 51.6256 73.4877C51.5836 73.4457 51.56 73.3887 51.56 73.3292V71.1812L42.2714 69.2434C42.0989 69.4858 41.8715 69.684 41.6079 69.8219C41.3443 69.9599 41.0519 70.0336 40.7545 70.0372C40.1991 69.9705 39.6875 69.7024 39.3164 69.2838C38.9452 68.8652 38.7402 68.3251 38.7402 67.7655C38.7402 67.206 38.9452 66.6658 39.3164 66.2472C39.6875 65.8286 40.1991 65.5606 40.7545 65.4938C41.0523 65.4983 41.3448 65.5729 41.6084 65.7116C41.8719 65.8504 42.0991 66.0493 42.2714 66.2923L51.56 64.3498V62.5894C51.5612 62.5303 51.5851 62.474 51.6269 62.4322C51.6687 62.3904 51.725 62.3664 51.784 62.3652C51.8434 62.3652 51.9004 62.3889 51.9424 62.4309C51.9845 62.4729 52.0081 62.5299 52.0081 62.5894V64.5319C52.0083 64.5838 51.9909 64.6343 51.9587 64.6751C51.9264 64.7158 51.8813 64.7444 51.8307 64.756L42.2154 66.7592C42.1717 66.7695 42.1258 66.766 42.0841 66.7493C42.0423 66.7326 42.0067 66.7035 41.9821 66.6658C41.8546 66.4522 41.6753 66.2742 41.4607 66.1485C41.246 66.0227 41.0031 65.9533 40.7545 65.9467C40.3217 66.0163 39.9279 66.2378 39.6436 66.5715C39.3593 66.9052 39.2032 67.3294 39.2032 67.7678C39.2032 68.2063 39.3593 68.6304 39.6436 68.9642C39.9279 69.2979 40.3217 69.5194 40.7545 69.5889C41.0031 69.5823 41.246 69.513 41.4607 69.3872C41.6753 69.2615 41.8546 69.0835 41.9821 68.8698C42.0065 68.8319 42.0419 68.8022 42.0836 68.7847C42.1252 68.7672 42.1712 68.7627 42.2154 68.7718L51.8307 70.7797C51.8809 70.7904 51.9259 70.818 51.9582 70.858C51.9905 70.8979 52.0081 70.9478 52.0081 70.9991V73.3339C52.0081 73.3631 52.0022 73.392 51.9909 73.419C51.9796 73.4459 51.963 73.4703 51.9422 73.4907C51.9213 73.5112 51.8966 73.5272 51.8694 73.538C51.8422 73.5488 51.8132 73.554 51.784 73.5533Z" fill="#CC9EFF"/>
<path d="M52.0691 58.1871V63.4589H51.2383V58.1871C51.2383 58.0768 51.282 57.9711 51.3599 57.8932C51.4379 57.8153 51.5435 57.7715 51.6537 57.7715C51.7639 57.7715 51.8695 57.8153 51.9474 57.8932C52.0253 57.9711 52.0691 58.0768 52.0691 58.1871Z" fill="#263238"/>
<path d="M52.0691 65.6387H51.2383V69.8973H52.0691V65.6387Z" fill="#263238"/>
<path d="M51.2383 72.0781H52.0691V77.3593C52.0691 77.4695 52.0253 77.5752 51.9474 77.6532C51.8695 77.7311 51.7639 77.7749 51.6537 77.7749C51.5435 77.7749 51.4379 77.7311 51.3599 77.6532C51.282 77.5752 51.2383 77.4695 51.2383 77.3593V72.0781Z" fill="#263238"/>
<path d="M44.8146 125.773H51.5126V144.82H44.8146C44.6524 144.82 44.4969 144.756 44.3822 144.641C44.2676 144.526 44.2031 144.371 44.2031 144.209V126.39C44.2025 126.309 44.2179 126.229 44.2483 126.154C44.2788 126.08 44.3237 126.012 44.3806 125.954C44.4374 125.897 44.505 125.851 44.5795 125.82C44.654 125.789 44.7339 125.773 44.8146 125.773Z" fill="#263238"/>
<path d="M51.784 141.084C51.7546 141.084 51.7255 141.078 51.6983 141.067C51.6711 141.056 51.6464 141.039 51.6256 141.018C51.6048 140.997 51.5883 140.973 51.577 140.945C51.5658 140.918 51.56 140.889 51.56 140.86V138.712L42.2714 136.774C42.0989 137.016 41.8715 137.215 41.6079 137.352C41.3443 137.49 41.0519 137.564 40.7545 137.568C40.1991 137.501 39.6875 137.233 39.3164 136.814C38.9452 136.396 38.7402 135.856 38.7402 135.296C38.7402 134.736 38.9452 134.196 39.3164 133.778C39.6875 133.359 40.1991 133.091 40.7545 133.024C41.0523 133.029 41.3448 133.103 41.6084 133.242C41.8719 133.381 42.0991 133.58 42.2714 133.823L51.56 131.88V130.125C51.5612 130.065 51.5851 130.009 51.6269 129.967C51.6687 129.926 51.725 129.902 51.784 129.9C51.8434 129.9 51.9004 129.924 51.9424 129.966C51.9845 130.008 52.0081 130.065 52.0081 130.125V132.072C52.0073 132.123 51.9894 132.172 51.9572 132.212C51.9251 132.252 51.8805 132.28 51.8307 132.291L42.2154 134.299C42.1712 134.307 42.1257 134.302 42.0843 134.284C42.0429 134.267 42.0074 134.238 41.9821 134.201C41.8546 133.987 41.6753 133.809 41.4607 133.684C41.246 133.558 41.0031 133.488 40.7545 133.482C40.3217 133.551 39.9279 133.773 39.6436 134.107C39.3593 134.44 39.2032 134.865 39.2032 135.303C39.2032 135.741 39.3593 136.166 39.6436 136.499C39.9279 136.833 40.3217 137.055 40.7545 137.124C41.0031 137.118 41.246 137.048 41.4607 136.922C41.6753 136.797 41.8546 136.619 41.9821 136.405C42.0065 136.367 42.0419 136.337 42.0836 136.32C42.1252 136.302 42.1712 136.298 42.2154 136.307L51.8307 138.315C51.8809 138.326 51.9259 138.353 51.9582 138.393C51.9905 138.433 52.0081 138.483 52.0081 138.534V140.869C52.0074 140.898 52.0012 140.926 51.9896 140.953C51.978 140.979 51.9613 141.003 51.9405 141.023C51.9197 141.043 51.8952 141.058 51.8683 141.069C51.8415 141.079 51.8128 141.084 51.784 141.084Z" fill="#CC9EFF"/>
<path d="M52.0691 125.716V130.988H51.2383V125.716C51.2383 125.606 51.282 125.5 51.3599 125.422C51.4379 125.345 51.5435 125.301 51.6537 125.301C51.7639 125.301 51.8695 125.345 51.9474 125.422C52.0253 125.5 52.0691 125.606 52.0691 125.716Z" fill="#263238"/>
<path d="M52.0691 133.17H51.2383V137.429H52.0691V133.17Z" fill="#263238"/>
<path d="M51.2383 139.609H52.0691V144.881C52.0691 144.991 52.0253 145.097 51.9474 145.175C51.8695 145.253 51.7639 145.297 51.6537 145.297C51.5435 145.297 51.4379 145.253 51.3599 145.175C51.282 145.097 51.2383 144.991 51.2383 144.881V139.609Z" fill="#263238"/>
<path opacity="0.2" d="M86.7262 61.6563L57.7031 61.6562L57.7031 83.9017H86.7262V61.6563Z" fill="black"/>
<path opacity="0.4" d="M57.7031 80.8759L66.9776 73.2272L72.2147 78.0275L81.0318 70.5703L86.7262 75.9636V83.9017H57.7031V80.8759Z" fill="white"/>
<path opacity="0.4" d="M64.3071 70.7336C65.7636 70.7336 66.9443 69.5524 66.9443 68.0953C66.9443 66.6382 65.7636 65.457 64.3071 65.457C62.8506 65.457 61.6699 66.6382 61.6699 68.0953C61.6699 69.5524 62.8506 70.7336 64.3071 70.7336Z" fill="white"/>
<path opacity="0.2" d="M114.363 47.9473L57.7031 47.9473V57.3189L114.363 57.3189V47.9473Z" fill="black"/>
<path opacity="0.2" d="M114.363 61.6563L90.2832 61.6562V62.8983L114.363 62.8983V61.6563Z" fill="black"/>
<path opacity="0.2" d="M114.363 65.1387H90.2832V66.3808H114.363V65.1387Z" fill="black"/>
<path opacity="0.2" d="M114.363 68.6172H90.2832V69.8593H114.363V68.6172Z" fill="black"/>
<path opacity="0.2" d="M114.363 72.0977H90.2832V73.3397H114.363V72.0977Z" fill="black"/>
<path opacity="0.2" d="M114.363 75.5801H90.2832V76.8222H114.363V75.5801Z" fill="black"/>
<path opacity="0.2" d="M114.363 79.0586H90.2832V80.3007H114.363V79.0586Z" fill="black"/>
<path opacity="0.2" d="M114.363 82.6641H90.2832V83.9061H114.363V82.6641Z" fill="black"/>
<path opacity="0.2" d="M114.363 88.959L57.7031 88.959V90.2011L114.363 90.2011V88.959Z" fill="black"/>
<path opacity="0.2" d="M114.363 92.2734L57.7031 92.2734V93.5155L114.363 93.5155V92.2734Z" fill="black"/>
<path opacity="0.2" d="M114.363 95.5898L57.7031 95.5898V96.8319L114.363 96.8319V95.5898Z" fill="black"/>
<path opacity="0.2" d="M114.363 98.9043L57.7031 98.9043V100.146L114.363 100.146V98.9043Z" fill="black"/>
<path opacity="0.2" d="M114.363 102.221L57.7031 102.221V103.463L114.363 103.463V102.221Z" fill="black"/>
<path opacity="0.2" d="M114.363 105.535L57.7031 105.535V106.777L114.363 106.777V105.535Z" fill="black"/>
<path opacity="0.2" d="M114.363 111.176H85.3398V133.421H114.363V111.176Z" fill="black"/>
<path opacity="0.4" d="M85.3398 130.401L94.6144 122.748L99.8514 127.553L108.668 120.096L114.363 125.489V133.427H85.3398V130.401Z" fill="white"/>
<path opacity="0.4" d="M94.5864 117.615C94.5874 118.138 94.4332 118.649 94.1435 119.084C93.8538 119.52 93.4415 119.859 92.9588 120.06C92.4762 120.261 91.9448 120.314 91.4321 120.212C90.9193 120.111 90.4481 119.859 90.0782 119.49C89.7082 119.121 89.4562 118.65 89.3538 118.137C89.2515 117.624 89.3036 117.092 89.5034 116.609C89.7032 116.126 90.0418 115.713 90.4764 115.422C90.9109 115.132 91.4219 114.977 91.9446 114.977C92.6444 114.977 93.3157 115.254 93.811 115.749C94.3063 116.244 94.5852 116.915 94.5864 117.615Z" fill="white"/>
<path opacity="0.2" d="M57.6972 112.422H81.7773V111.18H57.6972V112.422Z" fill="black"/>
<path opacity="0.2" d="M57.6972 115.902H81.7773V114.66H57.6972V115.902Z" fill="black"/>
<path opacity="0.2" d="M57.6972 119.381H81.7773V118.139H57.6972V119.381Z" fill="black"/>
<path opacity="0.2" d="M57.6972 122.859H81.7773V121.617H57.6972V122.859Z" fill="black"/>
<path opacity="0.2" d="M57.6972 126.342H81.7773V125.1H57.6972V126.342Z" fill="black"/>
<path opacity="0.2" d="M57.6972 129.822H81.7773V128.58H57.6972V129.822Z" fill="black"/>
<path opacity="0.2" d="M57.6972 133.426H81.7773V132.184H57.6972V133.426Z" fill="black"/>
<path opacity="0.2" d="M114.363 138.031H57.7031V139.273H114.363V138.031Z" fill="black"/>
<path opacity="0.2" d="M114.363 141.346H57.7031V142.588H114.363V141.346Z" fill="black"/>
<path opacity="0.2" d="M114.363 144.66H57.7031V145.902H114.363V144.66Z" fill="black"/>
<path opacity="0.2" d="M114.363 147.977H57.7031V149.219H114.363V147.977Z" fill="black"/>
<path opacity="0.2" d="M114.363 151.291H57.7031V152.533H114.363V151.291Z" fill="black"/>
<path opacity="0.2" d="M114.363 154.607H57.7031V155.85H114.363V154.607Z" fill="black"/>
<path d="M62.6697 92.7685C59.2437 92.7685 56.3217 92.1334 55.4069 90.4057C55.1278 89.9547 55.0304 89.4145 55.1344 88.8943C55.2384 88.3742 55.536 87.913 55.967 87.604C59.6637 84.5175 75.3515 85.1572 77.97 87.2165C78.0369 87.2438 78.0966 87.2864 78.1442 87.3408C78.1919 87.3951 78.2263 87.4598 78.2447 87.5297C78.2631 87.5996 78.2651 87.6729 78.2504 87.7437C78.2356 87.8145 78.2047 87.8809 78.16 87.9377C78.1152 87.9945 78.0579 88.0401 77.9925 88.071C77.9272 88.1018 77.8555 88.1171 77.7833 88.1155C77.711 88.1139 77.6401 88.0956 77.5761 88.062C77.5121 88.0283 77.4569 87.9802 77.4146 87.9216C75.1368 86.1331 59.8645 85.5214 56.5411 88.2951C56.4081 88.3823 56.2937 88.4951 56.2047 88.6269C56.1156 88.7587 56.0537 88.9069 56.0224 89.0629C55.9911 89.2189 55.9912 89.3796 56.0225 89.5355C56.0539 89.6915 56.1159 89.8397 56.2051 89.9715C57.1899 91.8393 62.1889 92.3856 68.6395 91.3303C74.7074 90.3357 78.9829 88.4212 79.1743 87.2492C79.2303 86.8943 78.7682 86.5674 78.3715 86.3573C78.3008 86.3423 78.2346 86.311 78.1781 86.2661C78.1216 86.2211 78.0763 86.1637 78.0457 86.0983C78.0151 86.0328 78.0001 85.9612 78.0019 85.8889C78.0037 85.8167 78.0222 85.7459 78.056 85.6821C78.0898 85.6182 78.1379 85.5631 78.1966 85.521C78.2553 85.4789 78.323 85.451 78.3943 85.4395C78.4656 85.4281 78.5385 85.4333 78.6075 85.4548C78.6764 85.4763 78.7394 85.5135 78.7915 85.5635C79.9865 86.1939 80.1405 86.9083 80.0611 87.3939C79.7157 89.4952 73.9933 91.3677 68.7842 92.2175C66.7636 92.5613 64.7191 92.7455 62.6697 92.7685Z" fill="#CC9EFF"/>
<path d="M116.038 141.625C115.933 141.625 115.831 141.588 115.749 141.523L109.83 136.559C109.764 136.529 109.706 136.485 109.66 136.429C109.615 136.373 109.582 136.307 109.566 136.237C109.55 136.166 109.551 136.093 109.568 136.023C109.585 135.952 109.618 135.887 109.665 135.832C109.711 135.777 109.77 135.733 109.836 135.704C109.903 135.676 109.975 135.663 110.047 135.667C110.119 135.671 110.189 135.691 110.252 135.727C110.315 135.763 110.368 135.812 110.409 135.872L116.327 140.831C116.415 140.91 116.47 141.02 116.48 141.138C116.491 141.256 116.456 141.373 116.383 141.466C116.341 141.517 116.288 141.558 116.229 141.585C116.169 141.613 116.104 141.626 116.038 141.625Z" fill="#CC9EFF"/>
<path d="M111.305 141.859C111.222 141.853 111.142 141.824 111.073 141.776C111.005 141.728 110.95 141.662 110.916 141.586C110.882 141.509 110.869 141.425 110.878 141.342C110.887 141.258 110.919 141.179 110.969 141.112C112.772 139.094 114.31 136.855 115.548 134.449C115.563 134.379 115.594 134.313 115.639 134.257C115.683 134.201 115.74 134.156 115.805 134.125C115.869 134.094 115.94 134.079 116.012 134.08C116.083 134.081 116.154 134.099 116.217 134.131C116.281 134.164 116.336 134.211 116.379 134.268C116.422 134.326 116.451 134.392 116.464 134.463C116.477 134.533 116.473 134.605 116.454 134.674C116.434 134.743 116.399 134.807 116.351 134.86C115.077 137.333 113.494 139.635 111.642 141.71C111.6 141.758 111.548 141.796 111.49 141.822C111.432 141.848 111.369 141.861 111.305 141.859Z" fill="#CC9EFF"/>
<path d="M56.6485 149.204C56.5815 149.203 56.5155 149.188 56.4551 149.159C56.3947 149.13 56.3413 149.088 56.2984 149.036C55.8487 148.474 55.5298 147.818 55.3649 147.117C55.3415 147.002 55.3621 146.883 55.4226 146.783C55.4831 146.682 55.5792 146.608 55.6916 146.576C55.8071 146.551 55.9277 146.571 56.029 146.631C56.1303 146.692 56.2049 146.789 56.2377 146.902C56.3242 147.257 56.4592 147.598 56.6391 147.916C57.6063 146.336 58.7946 144.904 60.1678 143.662C60.2582 143.586 60.3739 143.547 60.4917 143.553C60.6094 143.559 60.7205 143.61 60.8026 143.695C60.8784 143.785 60.9171 143.901 60.9111 144.018C60.905 144.136 60.8546 144.247 60.77 144.33C59.2908 145.668 58.0377 147.237 57.0592 148.976C57.0222 149.039 56.9708 149.093 56.9092 149.133C56.8476 149.172 56.7774 149.197 56.7045 149.204H56.6485Z" fill="#CC9EFF"/>
<path d="M89.9049 73.886H89.8489L88.78 73.7459C88.5747 73.7428 88.3768 73.6684 88.2202 73.5356C88.0636 73.4027 87.9579 73.2196 87.9211 73.0175C87.7125 72.1561 87.6292 71.2691 87.6738 70.3839V62.0255C87.6744 61.9588 87.6893 61.8931 87.7175 61.8327C87.7457 61.7723 87.7865 61.7186 87.8371 61.6753C87.8895 61.6349 87.9499 61.6061 88.0143 61.5908C88.0787 61.5755 88.1456 61.574 88.2105 61.5866L88.9107 61.7267C89.002 61.773 89.0756 61.8481 89.1201 61.9404C89.1646 62.0328 89.1774 62.1371 89.1567 62.2375C89.136 62.3379 89.0829 62.4286 89.0055 62.4958C88.9282 62.563 88.8309 62.6028 88.7286 62.6092L88.5699 62.5765V70.3886C88.5287 71.1868 88.5994 71.9868 88.78 72.7653V72.8354H88.8733L89.9422 72.9755C90.0379 73.0097 90.1198 73.0742 90.1755 73.1593C90.2312 73.2443 90.2576 73.3453 90.2507 73.4467C90.2439 73.5481 90.2041 73.6446 90.1375 73.7213C90.0708 73.7981 89.981 73.851 89.8815 73.872L89.9049 73.886Z" fill="#CC9EFF"/>
<path d="M85.7591 64.9668H85.7358C83.8128 64.8594 81.8664 64.7987 79.9433 64.7894C79.8195 64.7894 79.7008 64.7402 79.6133 64.6526C79.5257 64.565 79.4766 64.4463 79.4766 64.3224C79.4766 64.1986 79.5257 64.0798 79.6133 63.9922C79.7008 63.9047 79.8195 63.8555 79.9433 63.8555C81.8804 63.8555 83.8454 63.9302 85.7778 64.0376C85.8748 64.0659 85.9599 64.1249 86.0205 64.2057C86.0811 64.2865 86.1139 64.3848 86.1139 64.4858C86.1139 64.5869 86.0811 64.6852 86.0205 64.766C85.9599 64.8468 85.8748 64.9058 85.7778 64.9341L85.7591 64.9668Z" fill="#CC9EFF"/>
<path d="M81.4939 66.6198C81.3956 66.6018 81.3056 66.5526 81.2373 66.4796C81.169 66.4066 81.1259 66.3136 81.1144 66.2142C81.1029 66.1149 81.1236 66.0145 81.1735 65.9278C81.2233 65.841 81.2996 65.7726 81.3912 65.7326C82.5202 65.5254 83.6748 65.497 84.8126 65.6486C85.1347 65.6766 85.4614 65.7046 85.7835 65.7233C85.8998 65.7338 86.008 65.7876 86.0867 65.874C86.1653 65.9605 86.2087 66.0733 86.2082 66.1902C86.1977 66.3066 86.1439 66.4149 86.0575 66.4936C85.9711 66.5722 85.8583 66.6156 85.7414 66.6151C85.4054 66.6151 85.074 66.5684 84.7426 66.5404C83.7001 66.3977 82.6416 66.4197 81.606 66.6058L81.4939 66.6198Z" fill="#CC9EFF"/>
<path d="M85.7586 68.2724H85.6839C85.2099 68.2169 84.732 68.2028 84.2556 68.2303C83.7229 68.2597 83.1886 68.241 82.6593 68.1743C82.5669 68.131 82.4913 68.0587 82.444 67.9683C82.3966 67.8779 82.3802 67.7746 82.3971 67.674C82.414 67.5734 82.4634 67.4811 82.5378 67.4112C82.6121 67.3414 82.7072 67.2978 82.8086 67.2871C83.2826 67.3428 83.7605 67.3568 84.2369 67.3291C84.7696 67.2997 85.3039 67.3185 85.8332 67.3852C85.9269 67.4218 86.0061 67.4878 86.0593 67.5731C86.1124 67.6585 86.1366 67.7587 86.1282 67.859C86.1198 67.9592 86.0793 68.054 86.0127 68.1293C85.9461 68.2047 85.857 68.2565 85.7586 68.277V68.2724Z" fill="#CC9EFF"/>
<path d="M79.705 69.9624C79.586 69.9626 79.4713 69.9173 79.3845 69.8357C79.2977 69.7541 79.2454 69.6424 79.2383 69.5235C79.2381 69.4043 79.2834 69.2896 79.365 69.2028C79.4465 69.116 79.5582 69.0637 79.677 69.0565L85.7449 68.9258C85.8438 68.9527 85.9311 69.0114 85.9933 69.0928C86.0555 69.1742 86.0893 69.2739 86.0893 69.3764C86.0893 69.4789 86.0555 69.5786 85.9933 69.66C85.9311 69.7414 85.8438 69.8001 85.7449 69.827L79.677 69.9577L79.705 69.9624Z" fill="#CC9EFF"/>
<path d="M85.7592 71.5704H82.674C82.577 71.5421 82.4918 71.4831 82.4312 71.4023C82.3707 71.3214 82.3379 71.2231 82.3379 71.1221C82.3379 71.0211 82.3707 70.9228 82.4312 70.8419C82.4918 70.7611 82.577 70.7021 82.674 70.6738H85.7592C85.8562 70.7021 85.9414 70.7611 86.002 70.8419C86.0626 70.9228 86.0953 71.0211 86.0953 71.1221C86.0953 71.2231 86.0626 71.3214 86.002 71.4023C85.9414 71.4831 85.8562 71.5421 85.7592 71.5704Z" fill="#CC9EFF"/>
<path d="M76.5186 122.653H76.3459C70.1194 122.625 63.8601 121.785 57.8062 120.967C57.2275 120.888 56.3453 120.771 55.7945 120.136C55.5381 119.808 55.3837 119.412 55.3505 118.997C55.3173 118.582 55.4068 118.166 55.6078 117.801C55.9791 117.146 56.5521 116.629 57.2415 116.326C58.8938 115.513 60.7748 115.527 62.4365 115.532C65.7458 115.532 69.1672 115.565 72.5652 115.654C75.4918 115.733 78.3203 115.91 80.7801 117.218C80.8502 117.234 80.9157 117.266 80.9715 117.311C81.0272 117.356 81.0718 117.414 81.1016 117.479C81.1315 117.545 81.1458 117.616 81.1435 117.688C81.1413 117.76 81.1224 117.83 81.0885 117.894C81.0546 117.957 81.0065 118.012 80.948 118.053C80.8895 118.095 80.8221 118.123 80.7512 118.134C80.6802 118.146 80.6076 118.141 80.5389 118.119C80.4703 118.098 80.4075 118.061 80.3554 118.012C78.0683 116.798 75.3564 116.611 72.5418 116.555C69.1532 116.461 65.7365 116.447 62.4318 116.433C60.8682 116.433 59.0992 116.433 57.6382 117.134C57.1214 117.352 56.6891 117.732 56.406 118.217C56.2883 118.422 56.2318 118.656 56.2434 118.892C56.255 119.128 56.3341 119.356 56.4713 119.548C56.8825 119.885 57.3963 120.071 57.9276 120.076C63.9535 120.888 70.18 121.729 76.3506 121.752C77.8722 121.752 79.6179 121.691 80.8828 120.818C81.2338 120.577 81.5331 120.268 81.7631 119.91C81.9931 119.551 82.1493 119.15 82.2224 118.731C82.2748 118.463 82.2707 118.187 82.2104 117.921C82.1501 117.655 82.035 117.404 81.8724 117.185C81.8017 117.09 81.7701 116.971 81.784 116.853C81.7979 116.735 81.8562 116.627 81.947 116.55C82.0427 116.481 82.1608 116.451 82.2777 116.466C82.3945 116.481 82.5015 116.539 82.5772 116.629C82.8172 116.945 82.9886 117.308 83.0802 117.694C83.1719 118.08 83.1818 118.481 83.1093 118.871C83.016 119.412 82.8156 119.929 82.5199 120.392C82.2241 120.855 81.8389 121.253 81.3869 121.565C79.9446 122.541 78.1196 122.653 76.5186 122.653Z" fill="#CC9EFF"/>
<path d="M111.539 158.356C109.093 158.356 106.531 158.193 104.127 157.292C103.814 157.175 102.853 156.825 102.727 155.933C102.633 155.251 103.1 154.602 104.01 154.154C106.857 152.753 110.139 152.753 113.056 152.837C112.559 152.606 112.04 152.428 111.506 152.305C111.435 152.307 111.363 152.293 111.298 152.263C111.233 152.234 111.175 152.19 111.13 152.134C111.084 152.079 111.052 152.014 111.036 151.944C111.02 151.874 111.02 151.801 111.036 151.732C111.052 151.662 111.085 151.597 111.13 151.541C111.176 151.486 111.233 151.442 111.299 151.412C111.364 151.383 111.435 151.369 111.507 151.371C111.578 151.374 111.649 151.393 111.712 151.427C112.859 151.696 113.942 152.188 114.9 152.874C115.581 153.341 116.706 154.392 116.575 155.76C116.499 156.256 116.291 156.721 115.973 157.109C115.656 157.497 115.24 157.792 114.769 157.964C113.924 158.264 113.028 158.397 112.132 158.356H111.539ZM111.343 153.715C109.009 153.715 106.545 153.902 104.412 154.957C104.001 155.162 103.581 155.494 103.623 155.807C103.665 156.12 104.09 156.316 104.444 156.451C106.904 157.385 109.579 157.479 112.127 157.455C112.908 157.496 113.689 157.387 114.428 157.133C114.748 157.023 115.033 156.829 115.254 156.572C115.474 156.315 115.623 156.005 115.684 155.671C115.777 154.738 114.802 153.911 114.382 153.608C114.162 153.453 113.943 153.309 113.709 153.173C113.717 153.217 113.717 153.261 113.709 153.304C113.71 153.364 113.699 153.424 113.675 153.48C113.651 153.535 113.617 153.585 113.573 153.626C113.529 153.668 113.477 153.699 113.42 153.719C113.363 153.739 113.303 153.747 113.243 153.743C112.659 153.729 111.996 153.715 111.343 153.715Z" fill="#CC9EFF"/>
<path d="M47.8659 94.8143L47.5204 93.9691C47.4565 93.8122 47.3556 93.6729 47.2264 93.5632C47.0972 93.4534 46.9435 93.3765 46.7783 93.3388L45.2193 92.9699C44.9112 92.898 44.5903 92.9008 44.2835 92.978C43.9766 93.0551 43.6926 93.2044 43.455 93.4135L43.1562 93.675C43.623 95.1178 45.2147 96.3179 45.2147 96.3179L45.6254 96.7148C45.7075 96.798 45.8052 96.864 45.913 96.909C46.0208 96.9541 46.1364 96.9773 46.2532 96.9773C46.37 96.9773 46.4856 96.9541 46.5934 96.909C46.7012 96.864 46.7989 96.798 46.881 96.7148L47.6698 95.907C47.8047 95.7634 47.895 95.5837 47.9298 95.3897C47.9646 95.1958 47.9424 94.9959 47.8659 94.8143Z" fill="#EBB376"/>
<path d="M29.2191 78.8645C31.4689 82.2685 33.602 85.7426 35.6884 89.2494L34.8669 88.5863C36.5052 89.2634 38.1342 89.9872 39.7585 90.6969C41.1588 91.3507 43.2126 92.2799 44.5895 92.9943C44.7778 93.1058 44.9209 93.2799 44.9939 93.4862C45.067 93.6925 45.0653 93.9179 44.9891 94.1231C44.913 94.3282 44.7672 94.5001 44.5773 94.6087C44.3874 94.7174 44.1654 94.7558 43.95 94.7174C40.5474 93.8769 37.028 92.8076 33.7047 91.7242C33.3588 91.6093 33.0656 91.374 32.8785 91.0612C30.5447 87.7085 28.2716 84.3278 26.1012 80.8723C25.9007 80.4614 25.858 79.9911 25.981 79.5507C26.104 79.1103 26.3842 78.7303 26.7686 78.4828C27.1529 78.2353 27.6147 78.1374 28.0663 78.2078C28.518 78.2781 28.9282 78.5118 29.2191 78.8645Z" fill="#E9B376"/>
<path d="M33.3446 84.5418L29.1718 86.4609L28.705 85.994L26.9173 84.2056L26.6699 83.9581L28.2896 75.9219C31.1928 77.7476 33.3446 84.5418 33.3446 84.5418Z" fill="#263238"/>
<path opacity="0.2" d="M28.7037 86.0043L26.916 84.2159C27.2575 82.9562 27.9543 81.8215 28.9231 80.9473C29.2727 82.6249 29.1973 84.3633 28.7037 86.0043Z" fill="black"/>
<path d="M16.0658 76.814C15.4264 79.018 15.1977 80.9325 14.7496 82.5155C13.9561 85.3172 12.0424 92.5969 11.0762 94.3107L23.8794 94.941C25.9051 91.4949 29.1724 83.1412 29.6392 82.0392C30 81.1913 30.1461 80.2674 30.0647 79.3495C29.9833 78.4315 29.6768 77.5478 29.1724 76.7767C28.9356 76.4439 28.6398 76.1574 28.2996 75.9315C27.7955 75.6 27.2634 75.2591 26.7406 74.9509C25.0496 74.0292 23.178 73.4874 21.2562 73.3633C17.7555 73.3586 16.5699 75.0677 16.0658 76.814Z" fill="#263238"/>
<path d="M34.2323 160.049L36.3141 159.479C35.5486 148.987 33.4902 136.328 31.7445 126.834C31.4691 125.345 31.2031 123.939 30.951 122.632C30.825 122.011 30.713 121.409 30.5963 120.834C30.0408 117.99 29.5741 115.74 29.2847 114.353C29.07 113.34 28.9486 112.779 28.9486 112.779L21.4805 114.951L22.1013 116.818L24.1597 123.038L24.3931 123.753L25.7513 127.862L28.0618 134.866C28.3745 145.573 34.2323 160.049 34.2323 160.049Z" fill="#EBB376"/>
<path d="M16.1033 159.539L18.2504 159.333C19.3753 147.954 19.4173 133.787 19.268 123.943C19.24 122.416 19.212 120.992 19.1839 119.699C19.1839 119.633 19.1839 119.573 19.1839 119.507C19.1233 116.944 19.0579 114.908 19.0112 113.619L18.9459 112.055L11.207 112.919L11.6738 116.14L12.3693 120.875L12.5093 121.809L12.9761 125.036L14.269 133.684C12.7847 144.274 16.1033 159.539 16.1033 159.539Z" fill="#EBB376"/>
<path opacity="0.2" d="M12.3693 120.876L19.17 119.699C19.17 119.633 19.17 119.573 19.17 119.507C19.1093 116.944 19.044 114.908 18.9973 113.619L11.6738 116.141L12.3693 120.876Z" fill="black"/>
<path opacity="0.2" d="M30.0306 117.985L22.8752 119.199L22.0957 116.832L29.2838 114.348C29.4658 115.23 29.7272 116.468 30.0306 117.985Z" fill="black"/>
<path d="M11.4909 92.4805C11.4909 92.4805 6.85131 103.328 11.1875 119.055L19.6405 118.088V109.982L21.4702 117.794L29.9466 116.089C27.3421 103.328 24.9709 97.5375 24.9709 97.5375L24.5462 93.2136L11.4909 92.4805Z" fill="#CC9EFF"/>
<path d="M15.6211 95.3896L22.6038 95.6745V93.5125L15.6211 93.209V95.3896Z" fill="#263238"/>
<path d="M15.0056 93.1846L11.5002 93.0352L11.1875 95.2111L15.0056 95.3652V93.1846Z" fill="#263238"/>
<path d="M23.1406 93.5312V95.6979L24.7089 95.7633V93.6013L23.1406 93.5312Z" fill="#263238"/>
<path d="M21.9602 93.6702C21.7948 93.5009 21.5712 93.4008 21.3347 93.3901L19.6871 93.32C19.5915 93.3101 19.4949 93.3206 19.4036 93.3507C19.3124 93.3808 19.2285 93.4299 19.1575 93.4947C19.0866 93.5595 19.0301 93.6386 18.9918 93.7268C18.9536 93.815 18.9344 93.9103 18.9356 94.0064V95.015C18.9411 95.2445 19.0367 95.4626 19.2016 95.6221C19.35 95.7745 19.546 95.8717 19.7571 95.8976H19.8318L21.4794 95.963C21.5747 95.9721 21.6707 95.9612 21.7614 95.9307C21.8522 95.9003 21.9354 95.8511 22.0059 95.7864C22.0763 95.7216 22.1324 95.6428 22.1703 95.5549C22.2083 95.4671 22.2273 95.3722 22.2263 95.2765V94.2726C22.2176 94.0452 22.1224 93.8297 21.9602 93.6702ZM21.4421 95.566L19.7944 95.5007C19.6788 95.4958 19.5697 95.4455 19.491 95.3606C19.4504 95.3231 19.4178 95.2776 19.3953 95.227C19.3728 95.1764 19.3609 95.1218 19.3604 95.0664V94.0578C19.3601 94.0114 19.3696 93.9654 19.3883 93.9229C19.407 93.8804 19.4343 93.8423 19.4687 93.811C19.503 93.7798 19.5435 93.7561 19.5875 93.7415C19.6316 93.7269 19.6782 93.7217 19.7244 93.7263L21.3721 93.7963H21.4094C21.5105 93.8111 21.604 93.8587 21.6755 93.9317C21.7155 93.9695 21.7474 94.0151 21.769 94.0657C21.7907 94.1163 21.8018 94.1708 21.8015 94.2259V94.38C21.7815 94.376 21.7608 94.376 21.7408 94.38L21.2741 94.3566C21.2393 94.3531 21.2041 94.3573 21.1711 94.3688C21.1381 94.3804 21.108 94.3991 21.0831 94.4237C21.0581 94.4482 21.0389 94.4779 21.0267 94.5107C21.0145 94.5435 21.0098 94.5786 21.0127 94.6135C21.0231 94.6885 21.0589 94.7576 21.1141 94.8095C21.1693 94.8613 21.2406 94.8926 21.3161 94.8983L21.7828 94.9217V95.2532C21.781 95.2961 21.7708 95.3383 21.7527 95.3773C21.7346 95.4162 21.709 95.4513 21.6773 95.4803C21.6457 95.5094 21.6086 95.5319 21.5682 95.5466C21.5279 95.5613 21.485 95.5679 21.4421 95.566Z" fill="white"/>
<path d="M15.0751 159.1C15.0751 158.833 18.3985 159.044 18.3985 159.044C18.3985 159.044 20.4382 161.117 22.4173 161.584C24.3963 162.051 23.2948 163.241 21.0777 163.241H15.5979C14.0249 163.241 15.0098 161.901 15.0751 159.1Z" fill="#263238"/>
<path d="M20.1397 159.894C19.6617 159.833 19.1977 159.691 18.7675 159.474C18.7562 159.469 18.7466 159.461 18.7395 159.451C18.7327 159.43 18.7327 159.407 18.7395 159.385C18.7395 159.348 19.0335 158.578 19.4816 158.391C19.5489 158.36 19.6222 158.344 19.6963 158.344C19.7704 158.344 19.8437 158.36 19.911 158.391C20.0604 158.461 20.1351 158.554 20.1304 158.671C20.1257 158.788 19.883 159.021 19.6123 159.138C19.8627 159.097 20.1197 159.126 20.3545 159.222C20.3981 159.245 20.4365 159.277 20.467 159.315C20.4976 159.354 20.5197 159.398 20.5318 159.446C20.5565 159.506 20.5622 159.573 20.548 159.636C20.5338 159.7 20.5004 159.757 20.4525 159.801C20.3629 159.869 20.2518 159.902 20.1397 159.894ZM19.0709 159.427C19.5376 159.633 20.1678 159.815 20.3218 159.689C20.3218 159.689 20.3778 159.642 20.3218 159.511C20.3068 159.462 20.2734 159.42 20.2284 159.395C19.8475 159.298 19.4476 159.306 19.0709 159.418V159.427ZM19.6636 158.494C19.6172 158.494 19.5712 158.504 19.5283 158.522C19.265 158.699 19.0655 158.956 18.9588 159.255C19.4536 159.068 19.925 158.788 19.9344 158.662C19.9344 158.615 19.8644 158.573 19.8177 158.55C19.7703 158.523 19.7178 158.507 19.6636 158.503V158.494Z" fill="#CC9EFF"/>
<path d="M33.6388 159.1C33.6388 158.833 36.9621 159.044 36.9621 159.044C36.9621 159.044 39.0018 161.117 40.9856 161.584C42.9693 162.051 41.8584 163.241 39.646 163.241H34.1662C32.5886 163.241 33.5734 161.901 33.6388 159.1Z" fill="#263238"/>
<path opacity="0.2" d="M19.6406 109.982C21.0876 106.993 22.0958 104.537 22.0958 104.537C22.0958 104.537 22.4132 112.097 21.4703 117.794L19.6406 109.982Z" fill="black"/>
<path d="M48.0117 89.1584L49.4941 94.0273L57.7724 91.5049L56.29 86.636L48.0117 89.1584Z" fill="#263238"/>
<path opacity="0.1" d="M48.0117 89.1584L49.4941 94.0273L57.7724 91.5049L56.29 86.636L48.0117 89.1584Z" fill="white"/>
<path opacity="0.3" d="M57.4311 90.3981L49.1484 92.9219L49.4871 94.0341L57.7698 91.5103L57.4311 90.3981Z" fill="black"/>
<path d="M72.7305 99.7706C81.4579 99.3772 88.2141 91.9804 87.8209 83.2494C87.4276 74.5184 80.0338 67.7595 71.3063 68.1529C62.5789 68.5463 55.8227 75.9431 56.216 84.6741C56.6092 93.4051 64.003 100.164 72.7305 99.7706Z" fill="#CC9EFF"/>
<path opacity="0.8" d="M72.7305 99.7706C81.4579 99.3772 88.2141 91.9804 87.8209 83.2494C87.4276 74.5184 80.0338 67.7595 71.3063 68.1529C62.5789 68.5463 55.8227 75.9431 56.216 84.6741C56.6092 93.4051 64.003 100.164 72.7305 99.7706Z" fill="white"/>
<path opacity="0.2" d="M87.9824 81.9221V89.4167H60.5977V73.0127C62.4683 71.0564 64.8126 69.6168 67.403 68.8336C67.9587 68.6659 68.5227 68.5272 69.0927 68.418H74.9132C77.7527 68.9515 80.3919 70.2528 82.5444 72.1806C84.697 74.1085 86.2807 76.5894 87.1236 79.3539C87.3462 80.088 87.5163 80.837 87.6324 81.5953L87.9824 81.9221Z" fill="black"/>
<path opacity="0.4" d="M87.9918 81.9218V89.4163H60.5977V86.5586L69.3541 79.3395L74.2924 83.869L82.6194 76.832L87.651 81.5949V81.5996L87.9918 81.9218Z" fill="white"/>
<path opacity="0.4" d="M69.3131 74.4928C69.314 74.9863 69.1685 75.4691 68.895 75.8798C68.6215 76.2906 68.2322 76.6109 67.7766 76.8002C67.321 76.9895 66.8194 77.0393 66.3355 76.9432C65.8516 76.8472 65.407 76.6096 65.0582 76.2606C64.7093 75.9116 64.4718 75.4669 64.3758 74.9827C64.2798 74.4986 64.3295 73.9969 64.5187 73.541C64.708 73.0852 65.0282 72.6958 65.4388 72.4222C65.8494 72.1486 66.3319 72.003 66.8253 72.0039C67.152 72.0039 67.4755 72.0683 67.7773 72.1934C68.0792 72.3184 68.3534 72.5018 68.5844 72.7329C68.8155 72.964 68.9987 73.2384 69.1237 73.5403C69.2488 73.8423 69.3131 74.1659 69.3131 74.4928Z" fill="white"/>
<path opacity="0.2" d="M84.0865 94.1895C83.7445 94.5986 83.3798 94.9884 82.9943 95.3568H60.5898V94.1895H84.0865Z" fill="black"/>
<path opacity="0.2" d="M80.5146 97.3184C79.8117 97.767 79.0733 98.1575 78.3068 98.4857H65.7043C64.9409 98.1572 64.2057 97.7668 63.5059 97.3184H80.5146Z" fill="black"/>
<path d="M59.5114 93.5777L59.474 93.6104C59.3013 93.3863 59.1333 93.1435 58.9746 92.924C62.4706 90.0103 77.2622 90.6126 79.7314 92.5598C79.7749 92.5941 79.8113 92.6367 79.8383 92.6851C79.8654 92.7335 79.8827 92.7867 79.8892 92.8418C79.8957 92.8969 79.8913 92.9527 79.8762 93.006C79.8612 93.0594 79.8357 93.1093 79.8014 93.1528C79.7671 93.1964 79.7245 93.2327 79.6762 93.2598C79.6278 93.2869 79.5746 93.3042 79.5195 93.3107C79.4645 93.3172 79.4087 93.3128 79.3553 93.2977C79.302 93.2826 79.2521 93.2572 79.2086 93.2229C77.0569 91.5465 62.6387 90.9628 59.5114 93.5777Z" fill="#CC9EFF"/>
<path d="M81.6958 92.7272C81.3737 94.7117 75.9546 96.4628 71.0583 97.2799C69.1514 97.5987 67.2224 97.7673 65.2892 97.7842C64.9391 97.7842 64.5984 97.7842 64.2623 97.7609C64.0102 97.6208 63.7629 97.4761 63.5202 97.3173C63.2774 97.1585 63.0021 96.9764 62.75 96.7897C65.4757 97.0568 68.2254 96.9389 70.9183 96.4394C76.6408 95.5055 80.6829 93.6938 80.8603 92.5918C80.9163 92.2556 80.4775 91.9474 80.1041 91.7466C80.0053 91.6931 79.9314 91.603 79.8983 91.4956C79.8651 91.3883 79.8754 91.2722 79.9268 91.1723C79.9801 91.0733 80.0705 90.9996 80.1781 90.9672C80.2857 90.9349 80.4018 90.9464 80.5009 90.9995C81.6304 91.5925 81.7751 92.2696 81.6958 92.7272Z" fill="#CC9EFF"/>
<path d="M85.7755 76.1647L81.374 76.2581C81.2633 76.257 81.1573 76.2131 81.0782 76.1357C80.999 76.0582 80.9528 75.9532 80.9492 75.8425C80.9486 75.7867 80.959 75.7314 80.9798 75.6796C81.0006 75.6278 81.0313 75.5806 81.0703 75.5407C81.1094 75.5008 81.1558 75.469 81.2071 75.4471C81.2584 75.4251 81.3136 75.4136 81.3693 75.4129L85.2714 75.3242C85.4441 75.5997 85.6168 75.8799 85.7755 76.1647Z" fill="#CC9EFF"/>
<path d="M86.5837 77.7756H84.1845C84.0719 77.7756 83.9638 77.7309 83.8842 77.6512C83.8045 77.5715 83.7598 77.4634 83.7598 77.3507C83.7598 77.238 83.8045 77.1299 83.8842 77.0502C83.9638 76.9705 84.0719 76.9258 84.1845 76.9258H86.1916C86.3176 77.2013 86.4483 77.4861 86.5837 77.7756Z" fill="#CC9EFF"/>
<path d="M67.3664 68.9652C64.1526 69.9441 61.3011 71.8544 59.1726 74.4545C57.044 77.0547 55.734 80.2279 55.4082 83.5729C55.0824 86.9179 55.7554 90.2844 57.3422 93.2467C58.9289 96.209 61.3582 98.6341 64.3226 100.215C67.2871 101.796 70.6537 102.463 73.9966 102.129C77.3395 101.796 80.5087 100.479 83.1032 98.3443C85.6978 96.2094 87.6013 93.3527 88.5729 90.1355C89.5446 86.9183 89.5408 83.4851 88.562 80.2701C87.2496 75.9593 84.2793 72.3465 80.3044 70.2264C76.3295 68.1064 71.6757 67.6527 67.3664 68.9652ZM67.9546 70.8937C70.7881 70.0293 73.8143 70.025 76.6503 70.8816C79.4862 71.7382 82.0045 73.4171 83.8864 75.7058C85.7683 77.9946 86.9293 80.7904 87.2225 83.7394C87.5157 86.6885 86.9279 89.6582 85.5335 92.273C84.1391 94.8878 82.0008 97.03 79.389 98.4286C76.7773 99.8272 73.8095 100.419 70.8613 100.13C67.913 99.8411 65.1168 98.6835 62.8263 96.804C60.5358 94.9245 58.8541 92.4076 57.9939 89.5717C56.8418 85.7735 57.2437 81.673 59.1113 78.171C60.9789 74.6689 64.1595 72.0516 67.9546 70.8937Z" fill="#263238"/>
<path opacity="0.1" d="M67.3664 68.9652C64.1526 69.9441 61.3011 71.8544 59.1726 74.4545C57.044 77.0547 55.734 80.2279 55.4082 83.5729C55.0824 86.9179 55.7554 90.2844 57.3422 93.2467C58.9289 96.209 61.3582 98.6341 64.3226 100.215C67.2871 101.796 70.6537 102.463 73.9966 102.129C77.3395 101.796 80.5087 100.479 83.1032 98.3443C85.6978 96.2094 87.6013 93.3527 88.5729 90.1355C89.5446 86.9183 89.5408 83.4851 88.562 80.2701C87.2496 75.9593 84.2793 72.3465 80.3044 70.2264C76.3295 68.1064 71.6757 67.6527 67.3664 68.9652ZM67.9546 70.8937C70.7881 70.0293 73.8143 70.025 76.6503 70.8816C79.4862 71.7382 82.0045 73.4171 83.8864 75.7058C85.7683 77.9946 86.9293 80.7904 87.2225 83.7394C87.5157 86.6885 86.9279 89.6582 85.5335 92.273C84.1391 94.8878 82.0008 97.03 79.389 98.4286C76.7773 99.8272 73.8095 100.419 70.8613 100.13C67.913 99.8411 65.1168 98.6835 62.8263 96.804C60.5358 94.9245 58.8541 92.4076 57.9939 89.5717C56.8418 85.7735 57.2437 81.673 59.1113 78.171C60.9789 74.6689 64.1595 72.0516 67.9546 70.8937Z" fill="white"/>
<path d="M66.9179 67.4891C63.704 68.4682 60.8526 70.3789 58.7242 72.9793C56.5958 75.5798 55.2861 78.7533 54.9607 82.0984C54.6353 85.4436 55.3088 88.8102 56.8961 91.7724C58.4834 94.7346 60.9131 97.1593 63.8779 98.74C66.8428 100.321 70.2096 100.986 73.5526 100.653C76.8956 100.319 80.0646 99.0009 82.6588 96.8654C85.253 94.7298 87.1559 91.8726 88.1269 88.655C89.0978 85.4375 89.0931 82.0041 88.1134 78.7892C86.8 74.4793 83.8293 70.8676 79.8546 68.7485C75.8798 66.6294 71.2265 66.1764 66.9179 67.4891ZM67.5013 69.4129C70.3347 68.5475 73.3611 68.5424 76.1974 69.3983C79.0337 70.2541 81.5525 71.9324 83.4351 74.2208C85.3177 76.5092 86.4794 79.3049 86.7732 82.254C87.0671 85.2031 86.4799 88.1731 85.0859 90.7883C83.692 93.4034 81.5539 95.5461 78.9423 96.9453C76.3307 98.3444 73.3629 98.9371 70.4144 98.6483C67.466 98.3595 64.6695 97.2023 62.3787 95.323C60.0879 93.4437 58.4058 90.9268 57.5453 88.0909C56.3931 84.2933 56.7943 80.1934 58.6609 76.6914C60.5276 73.1895 63.7071 70.5717 67.5013 69.4129Z" fill="#263238"/>
<path opacity="0.3" d="M66.9179 67.4891C63.704 68.4682 60.8526 70.3789 58.7242 72.9793C56.5958 75.5798 55.2861 78.7533 54.9607 82.0984C54.6353 85.4436 55.3088 88.8102 56.8961 91.7724C58.4834 94.7346 60.9131 97.1593 63.8779 98.74C66.8428 100.321 70.2096 100.986 73.5526 100.653C76.8956 100.319 80.0646 99.0009 82.6588 96.8654C85.253 94.7298 87.1559 91.8726 88.1269 88.655C89.0978 85.4375 89.0931 82.0041 88.1134 78.7892C86.8 74.4793 83.8293 70.8676 79.8546 68.7485C75.8798 66.6294 71.2265 66.1764 66.9179 67.4891ZM67.5013 69.4129C70.3347 68.5475 73.3611 68.5424 76.1974 69.3983C79.0337 70.2541 81.5525 71.9324 83.4351 74.2208C85.3177 76.5092 86.4794 79.3049 86.7732 82.254C87.0671 85.2031 86.4799 88.1731 85.0859 90.7883C83.692 93.4034 81.5539 95.5461 78.9423 96.9453C76.3307 98.3444 73.3629 98.9371 70.4144 98.6483C67.466 98.3595 64.6695 97.2023 62.3787 95.323C60.0879 93.4437 58.4058 90.9268 57.5453 88.0909C56.3931 84.2933 56.7943 80.1934 58.6609 76.6914C60.5276 73.1895 63.7071 70.5717 67.5013 69.4129Z" fill="white"/>
<path d="M21.424 99.9229C21.6859 100.784 22.279 101.506 23.0729 101.93C23.8668 102.354 24.7965 102.445 25.6575 102.183L50.055 94.7491C50.1956 94.706 50.3262 94.6355 50.4393 94.5415C50.5524 94.4476 50.6457 94.3321 50.7139 94.2018C50.7821 94.0715 50.8237 93.9289 50.8364 93.7824C50.8491 93.6359 50.8326 93.4883 50.7878 93.3482L49.4529 88.9683C49.3677 88.688 49.1749 88.453 48.9168 88.3147C48.6587 88.1764 48.3563 88.1461 48.076 88.2305L23.6784 95.6643C23.2503 95.7949 22.8522 96.0088 22.5069 96.2938C22.1617 96.5788 21.8761 96.9292 21.6666 97.3249C21.4571 97.7206 21.3279 98.1539 21.2862 98.5997C21.2446 99.0455 21.2914 99.4952 21.424 99.9229Z" fill="#263238"/>
<path opacity="0.3" d="M21.424 99.9229C21.6859 100.784 22.279 101.506 23.0729 101.93C23.8668 102.354 24.7965 102.445 25.6575 102.183L50.055 94.7491C50.1956 94.706 50.3262 94.6355 50.4393 94.5415C50.5524 94.4476 50.6457 94.3321 50.7139 94.2018C50.7821 94.0715 50.8237 93.9289 50.8364 93.7824C50.8491 93.6359 50.8326 93.4883 50.7878 93.3482L49.4529 88.9683C49.3677 88.688 49.1749 88.453 48.9168 88.3147C48.6587 88.1764 48.3563 88.1461 48.076 88.2305L23.6784 95.6643C23.2503 95.7949 22.8522 96.0088 22.5069 96.2938C22.1617 96.5788 21.8761 96.9292 21.6666 97.3249C21.4571 97.7206 21.3279 98.1539 21.2862 98.5997C21.2446 99.0455 21.2914 99.4952 21.424 99.9229Z" fill="white"/>
<path opacity="0.3" d="M21.3027 99.3546C21.3225 99.5483 21.3632 99.7393 21.4241 99.9243C21.5537 100.351 21.7661 100.747 22.0491 101.091C22.3321 101.436 22.6802 101.721 23.0734 101.93C23.4666 102.14 23.8972 102.269 24.3407 102.312C24.7841 102.355 25.2316 102.31 25.6576 102.18L50.0551 94.7458C50.1964 94.7038 50.3278 94.6339 50.4416 94.5402C50.5554 94.4465 50.6492 94.331 50.7175 94.2004C50.7859 94.0697 50.8273 93.9267 50.8394 93.7798C50.8515 93.6329 50.834 93.485 50.7879 93.3449L50.4519 92.2383C50.4972 92.3787 50.514 92.5267 50.5013 92.6736C50.4886 92.8206 50.4466 92.9635 50.3779 93.094C50.3092 93.2245 50.2151 93.34 50.1012 93.4336C49.9872 93.5272 49.8557 93.5971 49.7144 93.6391L25.3215 101.073C24.5567 101.307 23.7337 101.263 22.9982 100.949C22.2627 100.634 21.6621 100.069 21.3027 99.3546Z" fill="black"/>
<path opacity="0.3" d="M23.8877 97.4257C23.7003 97.5205 23.5439 97.6669 23.4369 97.8476C23.33 98.0284 23.2768 98.2359 23.2838 98.4458C23.2908 98.6557 23.3576 98.8593 23.4764 99.0325C23.5951 99.2057 23.7609 99.3414 23.9542 99.4235C24.1474 99.5056 24.3601 99.5307 24.5671 99.4959C24.7742 99.4612 24.967 99.3679 25.1229 99.2272C25.2787 99.0865 25.3911 98.9041 25.4468 98.7016C25.5025 98.4991 25.4992 98.2848 25.4373 98.0841C25.3172 97.7928 25.0873 97.5605 24.7973 97.4373C24.5074 97.3141 24.1806 97.3099 23.8877 97.4257Z" fill="black"/>
<path opacity="0.4" d="M76.9066 74.6996C75.413 75.7176 75.287 78.1224 76.6173 80.0742C77.9475 82.0261 80.23 82.7872 81.7236 81.7692C83.2172 80.7513 83.3433 78.3465 82.013 76.3947C80.6827 74.4428 78.3956 73.6864 76.9066 74.6996Z" fill="white"/>
<path opacity="0.4" d="M74.5654 80.7047C74.3806 80.7683 74.2205 80.8882 74.1075 81.0477C73.9945 81.2071 73.9344 81.398 73.9356 81.5935C73.9368 81.7889 73.9992 81.9791 74.1141 82.1371C74.2291 82.2952 74.3907 82.4132 74.5762 82.4745C74.7617 82.5358 74.9617 82.5374 75.1482 82.4789C75.3346 82.4205 75.498 82.305 75.6154 82.1488C75.7327 81.9925 75.7981 81.8034 75.8024 81.6079C75.8066 81.4125 75.7494 81.2207 75.6389 81.0595C75.5403 80.8733 75.3735 80.7324 75.1734 80.6663C74.9734 80.6001 74.7555 80.6139 74.5654 80.7047Z" fill="white"/>
<path d="M27.9631 73.8394C27.6483 74.073 27.3588 74.3391 27.0996 74.6332C26.4741 75.3756 26.2127 76.3095 27.0529 77.5516C27.0529 77.5516 27.3003 78.4201 25.5266 78.817C24.3877 74.7359 22.9688 73.802 22.9688 73.802C23.8183 73.7553 24.6958 72.9942 25.4706 72.0463C25.954 71.4437 26.3909 70.8052 26.7775 70.1364C26.9642 69.8236 27.1276 69.5247 27.2443 69.2539L27.389 70.1878L27.9631 73.8394Z" fill="#EBB376"/>
<path opacity="0.2" d="M27.9632 73.84C27.6484 74.0736 27.359 74.3397 27.0997 74.6338C26.3311 73.9305 25.768 73.0315 25.4707 72.0329C25.9541 71.4303 26.391 70.7919 26.7776 70.123C26.9877 70.123 27.1977 70.1604 27.4124 70.1884L27.9632 73.84Z" fill="black"/>
<path d="M28.7837 62.7776C28.7837 62.7776 31.0755 60.1393 28.3169 57.926C25.5584 55.7126 20.1533 56.7119 19.1544 61.7083C18.1556 66.7046 19.5325 68.8152 19.5325 68.8152C19.5325 68.8152 19.5325 65.6353 20.466 64.7061C20.3191 65.5119 20.3191 66.3377 20.466 67.1436C20.7414 68.0774 20.466 67.4798 20.466 67.4798C20.466 67.4798 21.3109 63.492 25.381 64.636C29.4511 65.7801 28.7837 62.7776 28.7837 62.7776Z" fill="#263238"/>
<path d="M31.0111 63.1793C34.031 64.1132 34.5118 66.0184 33.7837 69.1983C32.8735 73.1767 31.1651 75.6796 27.6411 73.695C22.8568 71.0007 25.9934 61.6617 31.0111 63.1793Z" fill="#EBB376"/>
<path d="M31.8799 68.4316C31.9834 68.9576 32.1511 69.4689 32.3794 69.9539C32.2526 70.0512 32.1015 70.1118 31.9427 70.129C31.7838 70.1463 31.6233 70.1197 31.4785 70.052L31.8799 68.4316Z" fill="#D58745"/>
<path d="M30.1049 67.6252C30.0349 67.8727 29.8435 68.0361 29.6755 67.9894C29.5074 67.9427 29.4327 67.7046 29.5027 67.4524C29.5728 67.2003 29.7641 67.0415 29.9322 67.0882C30.1002 67.1349 30.1749 67.3731 30.1049 67.6252Z" fill="#263238"/>
<path d="M29.8574 67.0783L30.4595 67.0176C30.4595 67.0176 30.0628 67.4005 29.8574 67.0783Z" fill="#263238"/>
<path d="M33.2279 68.4416C33.1579 68.6891 32.9665 68.8525 32.7985 68.8058C32.6305 68.7591 32.5558 68.521 32.6258 68.2688C32.6958 68.0167 32.8872 67.8579 33.0505 67.9046C33.2139 67.9513 33.2979 68.1988 33.2279 68.4416Z" fill="#263238"/>
<path d="M32.9805 67.8947L33.5826 67.834C33.5826 67.834 33.1858 68.1982 32.9805 67.8947Z" fill="#263238"/>
<path d="M29.2604 65.7142C29.2393 65.7142 29.2186 65.7091 29.1999 65.6993C29.1812 65.6896 29.1651 65.6754 29.1531 65.6581C29.1349 65.6287 29.1286 65.5935 29.1356 65.5596C29.1425 65.5258 29.1621 65.4959 29.1904 65.476C29.4301 65.3432 29.6973 65.2678 29.971 65.2557C30.2447 65.2435 30.5176 65.295 30.7681 65.406C30.7837 65.413 30.7978 65.4231 30.8094 65.4357C30.821 65.4483 30.8299 65.4631 30.8356 65.4793C30.8412 65.4955 30.8436 65.5126 30.8424 65.5297C30.8412 65.5468 30.8366 65.5635 30.8287 65.5787C30.8145 65.6103 30.7883 65.6349 30.7559 65.6472C30.7235 65.6594 30.6876 65.6583 30.656 65.6441C30.4466 65.5517 30.219 65.5079 29.9902 65.516C29.7615 65.5241 29.5375 65.5838 29.3351 65.6908C29.3129 65.7055 29.287 65.7136 29.2604 65.7142Z" fill="#263238"/>
<path d="M34.0732 66.7978C34.0539 66.7976 34.035 66.7929 34.018 66.7839C34.0009 66.775 33.9863 66.7621 33.9752 66.7464C33.859 66.5807 33.7065 66.4436 33.5294 66.3457C33.3522 66.2478 33.1551 66.1916 32.953 66.1814C32.9183 66.1814 32.8851 66.1676 32.8605 66.1431C32.836 66.1186 32.8223 66.0853 32.8223 66.0507C32.8223 66.016 32.836 65.9827 32.8605 65.9582C32.8851 65.9337 32.9183 65.9199 32.953 65.9199C33.1964 65.9271 33.4348 65.9908 33.6494 66.1058C33.8641 66.2209 34.0491 66.3842 34.1899 66.583C34.2022 66.5948 34.2119 66.6089 34.2186 66.6245C34.2253 66.6402 34.2287 66.657 34.2287 66.674C34.2287 66.6911 34.2253 66.7079 34.2186 66.7236C34.2119 66.7392 34.2022 66.7533 34.1899 66.7651C34.1756 66.7812 34.157 66.7928 34.1363 66.7986C34.1156 66.8044 34.0937 66.8041 34.0732 66.7978Z" fill="#263238"/>
<path d="M26.1579 67.2645C26.1579 67.2645 28.3236 65.2145 28.697 63.23C28.697 63.23 35.4277 62.6136 33.8687 68.782C33.8687 68.782 36.0998 63.5615 30.9421 61.8572C25.7845 60.1528 23.474 67.7594 25.4857 70.8413C25.4857 70.8413 24.8089 68.5532 26.1579 67.2645Z" fill="#263238"/>
<path d="M30.7772 71.4156C30.3777 71.4208 29.9897 71.2821 29.6838 71.025C29.3779 70.7679 29.1746 70.4093 29.1109 70.0148C29.1082 69.9979 29.1091 69.9806 29.1134 69.964C29.1177 69.9474 29.1253 69.9318 29.1357 69.9183C29.1462 69.9048 29.1594 69.8935 29.1743 69.8852C29.1893 69.8769 29.2058 69.8717 29.2229 69.87C29.2569 69.866 29.2911 69.8755 29.3181 69.8965C29.3452 69.9175 29.3629 69.9482 29.3676 69.9821C29.4182 70.3161 29.5878 70.6206 29.8451 70.8394C30.1025 71.0582 30.4302 71.1766 30.7679 71.1728C30.8025 71.1728 30.8358 71.1866 30.8603 71.2111C30.8848 71.2356 30.8985 71.2689 30.8985 71.3036C30.8985 71.3382 30.8848 71.3715 30.8603 71.396C30.8358 71.4205 30.8025 71.4343 30.7679 71.4343L30.7772 71.4156Z" fill="#263238"/>
<path d="M25.6336 66.6622C25.6286 66.6814 25.6305 66.7018 25.639 66.7198C25.6476 66.7377 25.6622 66.7521 25.6803 66.7603L28.7563 67.4747C28.7111 67.7649 28.7624 68.0619 28.9024 68.3201C29.0424 68.5782 29.2633 68.7832 29.5311 68.9035C29.8848 69.078 30.2901 69.1174 30.6708 69.0142C31.0515 68.9111 31.3815 68.6725 31.5988 68.3432C31.6342 68.279 31.6639 68.2118 31.6875 68.1424C31.7422 68.097 31.8056 68.0632 31.8739 68.0431C31.9421 68.0231 32.0137 68.0171 32.0843 68.0257C32.1232 68.0414 32.1579 68.066 32.1855 68.0977C32.213 68.1293 32.2327 68.1671 32.243 68.2078C32.2053 68.4941 32.2608 68.7848 32.4012 69.0371C32.5416 69.2894 32.7594 69.4898 33.0224 69.6086C33.3753 69.7839 33.7801 69.8236 34.1603 69.7204C34.5405 69.6171 34.8697 69.378 35.0855 69.0483C35.1793 68.8877 35.2378 68.709 35.2573 68.524C35.2768 68.339 35.2567 68.152 35.1984 67.9754C35.1402 67.7988 35.045 67.6366 34.9194 67.4995C34.7937 67.3625 34.6403 67.2537 34.4694 67.1805C34.1158 67.005 33.7103 66.9651 33.3293 67.0683C32.9483 67.1716 32.6183 67.4108 32.4017 67.7408C32.3658 67.8055 32.3347 67.8726 32.3083 67.9416C32.2682 67.8939 32.2145 67.8597 32.1543 67.8436C32.0205 67.8058 31.8774 67.8191 31.7529 67.8809C31.7931 67.5949 31.7393 67.3036 31.5996 67.0509C31.4598 66.7982 31.2416 66.5979 30.978 66.4801C30.625 66.3041 30.2198 66.2635 29.8389 66.3659C29.458 66.4682 29.1277 66.7065 28.9103 67.0357C28.8636 67.1209 28.8246 67.2099 28.7936 67.3019L25.7317 66.5921C25.7097 66.5904 25.6878 66.5964 25.6698 66.6092C25.6519 66.6221 25.6391 66.6408 25.6336 66.6622ZM32.593 67.8529C32.784 67.5678 33.073 67.3627 33.4051 67.2767C33.7372 67.1906 34.0894 67.2295 34.3947 67.386C34.5442 67.4494 34.6785 67.5439 34.7887 67.6633C34.8988 67.7827 34.9823 67.9242 35.0335 68.0784C35.0848 68.2326 35.1026 68.3959 35.0858 68.5575C35.069 68.7191 35.018 68.8753 34.9362 69.0156C34.7487 69.3047 34.4613 69.5146 34.1289 69.605C33.7965 69.6955 33.4425 69.6602 33.1345 69.5059C32.9816 69.443 32.8443 69.3477 32.7318 69.2265C32.6193 69.1054 32.5345 68.9613 32.483 68.8042C32.4315 68.6471 32.4147 68.4807 32.4337 68.3165C32.4527 68.1523 32.5071 67.9941 32.593 67.8529ZM29.1017 67.1291C29.2891 66.84 29.5765 66.6302 29.9089 66.5397C30.2413 66.4493 30.5953 66.4846 30.9034 66.6388C31.0529 66.7023 31.1872 66.7968 31.2973 66.9162C31.4075 67.0356 31.4909 67.1771 31.5422 67.3313C31.5934 67.4855 31.6112 67.6488 31.5944 67.8104C31.5776 67.972 31.5266 68.1282 31.4448 68.2685C31.2538 68.5536 30.9648 68.7587 30.6327 68.8448C30.3006 68.9308 29.9485 68.8919 29.6431 68.7354C29.4968 68.6716 29.3655 68.5779 29.2576 68.4602C29.1497 68.3426 29.0676 68.2036 29.0166 68.0523C28.9656 67.901 28.9468 67.7407 28.9614 67.5817C28.9761 67.4227 29.0239 67.2686 29.1017 67.1291Z" fill="#263238"/>
<g opacity="0.3">
<path d="M25.6336 66.6622C25.6286 66.6814 25.6305 66.7018 25.639 66.7198C25.6476 66.7377 25.6622 66.7521 25.6803 66.7603L28.7563 67.4747C28.7111 67.7649 28.7624 68.0619 28.9024 68.3201C29.0424 68.5782 29.2633 68.7832 29.5311 68.9035C29.8848 69.078 30.2901 69.1174 30.6708 69.0142C31.0515 68.9111 31.3815 68.6725 31.5988 68.3432C31.6342 68.279 31.6639 68.2118 31.6875 68.1424C31.7422 68.097 31.8056 68.0632 31.8739 68.0431C31.9421 68.0231 32.0137 68.0171 32.0843 68.0257C32.1232 68.0414 32.1579 68.066 32.1855 68.0977C32.213 68.1293 32.2327 68.1671 32.243 68.2078C32.2053 68.4941 32.2608 68.7848 32.4012 69.0371C32.5416 69.2894 32.7594 69.4898 33.0224 69.6086C33.3753 69.7839 33.7801 69.8236 34.1603 69.7204C34.5405 69.6171 34.8697 69.378 35.0855 69.0483C35.1793 68.8877 35.2378 68.709 35.2573 68.524C35.2768 68.339 35.2567 68.152 35.1984 67.9754C35.1402 67.7988 35.045 67.6366 34.9194 67.4995C34.7937 67.3625 34.6403 67.2537 34.4694 67.1805C34.1158 67.005 33.7103 66.9651 33.3293 67.0683C32.9483 67.1716 32.6183 67.4108 32.4017 67.7408C32.3658 67.8055 32.3347 67.8726 32.3083 67.9416C32.2682 67.8939 32.2145 67.8597 32.1543 67.8436C32.0205 67.8058 31.8774 67.8191 31.7529 67.8809C31.7931 67.5949 31.7393 67.3036 31.5996 67.0509C31.4598 66.7982 31.2416 66.5979 30.978 66.4801C30.625 66.3041 30.2198 66.2635 29.8389 66.3659C29.458 66.4682 29.1277 66.7065 28.9103 67.0357C28.8636 67.1209 28.8246 67.2099 28.7936 67.3019L25.7317 66.5921C25.7097 66.5904 25.6878 66.5964 25.6698 66.6092C25.6519 66.6221 25.6391 66.6408 25.6336 66.6622ZM32.593 67.8529C32.784 67.5678 33.073 67.3627 33.4051 67.2767C33.7372 67.1906 34.0894 67.2295 34.3947 67.386C34.5442 67.4494 34.6785 67.5439 34.7887 67.6633C34.8988 67.7827 34.9823 67.9242 35.0335 68.0784C35.0848 68.2326 35.1026 68.3959 35.0858 68.5575C35.069 68.7191 35.018 68.8753 34.9362 69.0156C34.7487 69.3047 34.4613 69.5146 34.1289 69.605C33.7965 69.6955 33.4425 69.6602 33.1345 69.5059C32.9816 69.443 32.8443 69.3477 32.7318 69.2265C32.6193 69.1054 32.5345 68.9613 32.483 68.8042C32.4315 68.6471 32.4147 68.4807 32.4337 68.3165C32.4527 68.1523 32.5071 67.9941 32.593 67.8529ZM29.1017 67.1291C29.2891 66.84 29.5765 66.6302 29.9089 66.5397C30.2413 66.4493 30.5953 66.4846 30.9034 66.6388C31.0529 66.7023 31.1872 66.7968 31.2973 66.9162C31.4075 67.0356 31.4909 67.1771 31.5422 67.3313C31.5934 67.4855 31.6112 67.6488 31.5944 67.8104C31.5776 67.972 31.5266 68.1282 31.4448 68.2685C31.2538 68.5536 30.9648 68.7587 30.6327 68.8448C30.3006 68.9308 29.9485 68.8919 29.6431 68.7354C29.4968 68.6716 29.3655 68.5779 29.2576 68.4602C29.1497 68.3426 29.0676 68.2036 29.0166 68.0523C28.9656 67.901 28.9468 67.7407 28.9614 67.5817C28.9761 67.4227 29.0239 67.2686 29.1017 67.1291Z" fill="white"/>
</g>
<path d="M26.4551 68.0537C26.5277 67.6956 26.4575 67.3233 26.2595 67.0162C26.0616 66.7092 25.7516 66.4916 25.3956 66.41C24.4294 66.2232 23.3979 68.0117 25.5823 69.1837C25.9043 69.3518 26.1844 69.081 26.4551 68.0537Z" fill="#EBB376"/>
<path opacity="0.2" d="M16.5687 78.042C16.5687 78.042 15.3925 84.654 19.3693 88.0768C23.3461 91.4995 23.3181 81.5675 22.4032 78.3035C21.7031 75.8053 16.5687 78.042 16.5687 78.042Z" fill="black"/>
<path d="M31.505 100.184L31.533 99.2737C31.5386 99.1044 31.5033 98.9363 31.4302 98.7835C31.3571 98.6307 31.2482 98.4977 31.1129 98.3959L29.8387 97.4246C29.5872 97.2336 29.2938 97.1055 28.9828 97.0511C28.6718 96.9967 28.3523 97.0175 28.051 97.1118L27.6682 97.2285C27.5189 98.7367 28.4711 100.497 28.4711 100.497L28.6858 101.025C28.7272 101.134 28.7898 101.234 28.87 101.319C28.9502 101.404 29.0464 101.473 29.1531 101.52C29.2598 101.568 29.3749 101.594 29.4918 101.597C29.6086 101.601 29.7249 101.58 29.834 101.538L30.8842 101.123C31.0685 101.045 31.2256 100.914 31.3361 100.747C31.4465 100.58 31.5052 100.384 31.505 100.184Z" fill="#EBB376"/>
<path d="M20.971 78.0045C21.6431 82.0296 22.1752 86.0734 22.656 90.1452L22.1892 89.2113C23.4121 90.5032 24.6164 91.8122 25.8019 93.1384C26.8335 94.3151 28.3131 95.9914 29.2746 97.2008C29.3996 97.3793 29.4583 97.5958 29.4405 97.813C29.4227 98.0301 29.3296 98.2342 29.1773 98.3899C29.025 98.5457 28.823 98.6432 28.6064 98.6657C28.3897 98.6881 28.1721 98.6341 27.991 98.513C25.2278 96.3603 22.4506 93.9509 19.8508 91.6068C19.5919 91.3588 19.427 91.0288 19.384 90.6729C18.6232 86.6665 17.9137 82.646 17.3443 78.6069C17.3336 78.1535 17.4883 77.7117 17.7793 77.364C18.0704 77.0163 18.478 76.7864 18.926 76.7172C19.3741 76.648 19.832 76.7443 20.2143 76.988C20.5966 77.2318 20.8771 77.6064 21.0037 78.0419L20.971 78.0045Z" fill="#E9B376"/>
<path d="M20.0845 74.0629C17.7507 74.3197 15.837 75.333 16.8499 82.5567L22.5677 82.2625C22.5677 82.2625 22.8431 73.7547 20.0845 74.0629Z" fill="#263238"/>
<path d="M144.225 65.0039C141.037 65.6716 137.639 78.4847 137.639 78.4847L140.486 81.5573L145.578 72.2183L144.225 65.0039Z" fill="#263238"/>
<path opacity="0.2" d="M145.578 72.2229L145.471 72.4237L141.214 80.2311L140.486 81.5619L137.639 78.4847C137.639 78.4847 141.032 65.681 144.22 65.0039L145.578 72.2229Z" fill="white"/>
<path opacity="0.1" d="M145.472 72.4091L141.215 80.2165C141.215 80.0858 141.215 79.9457 141.215 79.7916C141.598 73.852 144.907 70.7188 144.907 70.7188C145.181 71.2497 145.372 71.8199 145.472 72.4091Z" fill="black"/>
<path d="M167.955 97.6867C167.955 97.6867 158.186 95.0905 146.339 98.9008C146.339 98.9008 144.435 74.0778 144.664 70.6644C144.892 67.251 162.947 68.2549 162.947 68.2549C162.947 68.2549 163.413 78.1916 164.576 84.1825C165.738 90.1735 168.543 96.5334 167.955 97.6867Z" fill="#263238"/>
<path opacity="0.2" d="M167.955 97.6867C167.955 97.6867 158.186 95.0905 146.339 98.9008C146.339 98.9008 144.435 74.0778 144.664 70.6644C144.892 67.251 162.947 68.2549 162.947 68.2549C162.947 68.2549 163.413 78.1916 164.576 84.1825C165.738 90.1735 168.543 96.5334 167.955 97.6867Z" fill="black"/>
<path d="M140.617 162.208L143.805 163.11L144.566 158.146L144.972 155.494L141.784 154.588L141.243 158.146L140.617 162.208Z" fill="#E4897B"/>
<path d="M158.947 162.471L162.233 162.905L162.266 158.147L162.289 155.191L158.994 154.762L158.975 158.147L158.947 162.471Z" fill="#E4897B"/>
<path opacity="0.2" d="M158.993 154.762L158.975 158.147H162.265L162.289 155.191L158.993 154.762Z" fill="black"/>
<path opacity="0.2" d="M141.242 158.146H144.566L144.972 155.494L141.784 154.588L141.242 158.146Z" fill="black"/>
<path d="M140.66 161.709L144.277 161.611C144.343 161.61 144.407 161.631 144.46 161.671C144.512 161.711 144.55 161.767 144.566 161.831L145.327 164.749C145.348 164.82 145.352 164.895 145.338 164.968C145.324 165.041 145.293 165.109 145.247 165.168C145.201 165.226 145.143 165.273 145.075 165.304C145.008 165.335 144.934 165.35 144.86 165.347C143.554 165.347 141.663 165.347 140.02 165.38C138.102 165.431 136.884 165.338 134.629 165.38C133.271 165.417 132.841 164.054 133.406 163.918C135.983 163.283 137.663 163.409 139.857 161.971C140.095 161.811 140.373 161.721 140.66 161.709Z" fill="#263238"/>
<path d="M140.346 162.176C139.814 162.297 138.871 162.456 138.479 162.143C138.423 162.098 138.379 162.04 138.35 161.974C138.322 161.908 138.31 161.837 138.316 161.765C138.316 161.722 138.328 161.681 138.349 161.644C138.37 161.607 138.401 161.576 138.437 161.555C138.834 161.317 140.188 161.956 140.342 162.022C140.357 162.028 140.37 162.039 140.379 162.053C140.387 162.068 140.39 162.085 140.388 162.101C140.389 162.116 140.385 162.131 140.378 162.144C140.37 162.157 140.359 162.168 140.346 162.176ZM138.549 161.676H138.521C138.506 161.684 138.493 161.696 138.485 161.711C138.476 161.726 138.473 161.743 138.475 161.76C138.47 161.807 138.476 161.854 138.494 161.897C138.512 161.94 138.541 161.978 138.577 162.008C138.787 162.185 139.333 162.199 140.062 162.059C139.539 161.84 138.806 161.583 138.549 161.676Z" fill="#CC9EFF"/>
<path d="M140.348 162.176H140.292C139.886 162.008 139.064 161.313 139.116 160.939C139.116 160.85 139.181 160.743 139.4 160.715C139.478 160.704 139.557 160.709 139.632 160.729C139.708 160.75 139.778 160.787 139.839 160.836C140.153 161.186 140.349 161.625 140.399 162.092C140.401 162.107 140.399 162.121 140.393 162.134C140.387 162.147 140.378 162.159 140.367 162.167L140.348 162.176ZM139.34 160.888C139.274 160.911 139.27 160.948 139.27 160.958C139.242 161.187 139.802 161.733 140.203 161.966C140.153 161.591 139.991 161.239 139.736 160.958C139.692 160.921 139.64 160.894 139.585 160.879C139.529 160.864 139.471 160.86 139.414 160.869C139.389 160.872 139.364 160.878 139.34 160.888Z" fill="#CC9EFF"/>
<path d="M159.087 161.709L162.709 161.611C162.775 161.61 162.839 161.631 162.891 161.671C162.944 161.711 162.981 161.767 162.998 161.831L163.759 164.749C163.78 164.82 163.783 164.895 163.769 164.968C163.755 165.041 163.724 165.109 163.679 165.168C163.633 165.226 163.574 165.273 163.507 165.304C163.44 165.335 163.366 165.35 163.292 165.347C161.985 165.347 160.095 165.347 158.457 165.38C156.534 165.431 155.315 165.338 153.065 165.38C151.703 165.417 151.278 164.054 151.843 163.918C154.414 163.283 156.095 163.409 158.289 161.971C158.526 161.813 158.802 161.722 159.087 161.709Z" fill="#263238"/>
<path d="M158.769 162.176C158.242 162.297 157.294 162.456 156.902 162.143C156.848 162.097 156.805 162.039 156.777 161.973C156.748 161.907 156.735 161.836 156.739 161.765C156.739 161.722 156.751 161.68 156.773 161.643C156.796 161.606 156.827 161.576 156.865 161.555C157.257 161.317 158.615 161.956 158.769 162.022C158.783 162.029 158.795 162.041 158.803 162.055C158.81 162.069 158.813 162.085 158.811 162.101C158.812 162.116 158.809 162.131 158.801 162.145C158.794 162.158 158.783 162.169 158.769 162.176ZM156.977 161.676H156.949C156.933 161.684 156.921 161.696 156.912 161.711C156.904 161.726 156.9 161.743 156.902 161.76C156.897 161.807 156.904 161.854 156.922 161.897C156.94 161.94 156.968 161.978 157.005 162.008C157.215 162.185 157.766 162.199 158.489 162.059C157.957 161.84 157.22 161.583 156.977 161.676Z" fill="#CC9EFF"/>
<path d="M158.77 162.177H158.709C158.303 162.009 157.486 161.313 157.533 160.939C157.533 160.851 157.603 160.743 157.818 160.715C157.895 160.704 157.975 160.708 158.05 160.729C158.126 160.75 158.196 160.787 158.257 160.837C158.571 161.186 158.767 161.625 158.817 162.093C158.819 162.106 158.818 162.121 158.813 162.134C158.808 162.147 158.8 162.158 158.789 162.167L158.77 162.177ZM157.757 160.888C157.741 160.893 157.725 160.902 157.713 160.914C157.701 160.926 157.692 160.941 157.687 160.958C157.659 161.187 158.219 161.733 158.621 161.967C158.571 161.591 158.408 161.239 158.154 160.958C158.109 160.921 158.056 160.895 158 160.879C157.944 160.864 157.885 160.861 157.827 160.869L157.757 160.888Z" fill="#CC9EFF"/>
<path d="M165.725 90.1777C167.466 97.733 164.479 157.134 164.479 157.134H158.705L156.236 107.637L147.143 157.134L140.973 156.667C145.005 118.316 148.572 95.4216 148.572 95.4216V92.5265L165.725 90.1777Z" fill="#263238"/>
<path d="M162.617 62.2063C162.437 65.8176 162.529 69.4374 162.892 73.0349C163.131 75.5471 163.467 77.9238 163.826 80.0671C164.657 85.0962 165.6 88.8598 165.73 90.1766L148.568 92.544C142.308 75.0381 144.666 65.7458 144.666 65.7458L148.6 63.5044C148.6 63.5044 149.174 63.3504 149.468 63.2803C151.876 62.807 154.309 62.4718 156.755 62.2764C157.221 62.2343 157.688 62.2017 158.155 62.183C160.489 62.0756 162.617 62.2063 162.617 62.2063Z" fill="#CC9EFF"/>
<g opacity="0.7">
<path d="M162.615 62.2063C162.435 65.8176 162.527 69.4374 162.891 73.0349C163.129 75.5471 163.465 77.9238 163.824 80.0671C164.655 85.0962 165.598 88.8598 165.728 90.1766L148.566 92.544C142.306 75.0381 144.664 65.7458 144.664 65.7458L148.598 63.5044C148.598 63.5044 149.172 63.3504 149.467 63.2803C151.874 62.807 154.307 62.4718 156.753 62.2764C157.219 62.2343 157.686 62.2017 158.153 62.183C160.487 62.0756 162.615 62.2063 162.615 62.2063Z" fill="white"/>
</g>
<path d="M156.156 62.1932C156.156 62.1932 152.221 65.303 151.021 65.289C150.191 65.289 148.986 63.9209 148.986 63.9209C149.495 63.6816 149.94 63.3247 150.284 62.8796C151.105 61.7542 150.629 60.3861 149.962 59.144L153.411 54.3438C153.479 55.5135 153.635 56.6764 153.878 57.8225C154.261 59.681 154.961 61.5068 156.156 62.1932Z" fill="#E4897B"/>
<path opacity="0.2" d="M153.872 57.8093C153.513 59.9106 152.593 62.3293 150.297 62.8757C151.118 61.7503 150.642 60.3822 149.975 59.1401L153.424 54.3398C153.486 55.506 153.635 56.6658 153.872 57.8093Z" fill="black"/>
<path d="M143.576 52.419C143.436 53.7172 144.15 56.1873 145.695 55.0293C147.24 53.8712 143.819 50.1823 143.576 52.419Z" fill="#263238"/>
<path d="M152.711 52.3083C153.528 55.4135 154.167 57.1879 153.136 59.2425C151.591 62.3337 147.357 62.1469 145.626 59.3406C144.067 56.8144 142.993 52.1635 145.584 50.0016C146.158 49.5213 146.844 49.1946 147.579 49.0519C148.313 48.9092 149.072 48.9552 149.784 49.1856C150.496 49.4161 151.138 49.8234 151.65 50.3695C152.162 50.9156 152.527 51.5827 152.711 52.3083Z" fill="#E4897B"/>
<path d="M150.169 51.0421L149.469 47.5306C149.469 47.5306 153.147 46.5033 153.366 48.4645C155.639 49.0762 155.761 53.8251 153.296 55.9357C151.532 55.0298 150.687 50.7432 150.687 50.7432C150.514 50.832 150.346 50.9347 150.169 51.0421Z" fill="#263238"/>
<path d="M154.722 54.4799C154.726 54.8782 154.65 55.2732 154.499 55.642C154.348 56.0107 154.126 56.3458 153.845 56.6279C153.089 57.3796 152.178 56.824 151.95 55.8387C151.744 54.9515 151.889 53.504 152.883 53.1117C153.097 53.0412 153.324 53.0231 153.546 53.0589C153.768 53.0948 153.978 53.1836 154.158 53.3178C154.338 53.452 154.484 53.6276 154.582 53.8299C154.68 54.0322 154.728 54.2551 154.722 54.4799Z" fill="#E4897B"/>
<path d="M148.352 54.638C148.436 54.8855 148.352 55.1049 148.207 55.1796C148.063 55.2543 147.843 55.0722 147.764 54.8248C147.684 54.5773 147.764 54.3345 147.909 54.2831C148.053 54.2317 148.273 54.3905 148.352 54.638Z" fill="#263238"/>
<path d="M145.551 55.5345C145.635 55.7819 145.551 56.0247 145.406 56.0808C145.262 56.1368 145.042 55.9734 144.963 55.7259C144.884 55.4784 144.963 55.2309 145.108 55.1796C145.252 55.1282 145.462 55.287 145.551 55.5345Z" fill="#263238"/>
<path d="M146.484 55.375C146.417 56.2051 146.236 57.0221 145.947 57.8031C146.157 57.8625 146.376 57.8774 146.591 57.8469C146.807 57.8163 147.014 57.741 147.198 57.6257L146.484 55.375Z" fill="#DE5753"/>
<path d="M148.819 58.1483C148.716 58.1975 148.61 58.2397 148.501 58.2744C148.492 58.2772 148.482 58.2782 148.472 58.2771C148.462 58.2761 148.453 58.2731 148.444 58.2683C148.435 58.2635 148.428 58.257 148.421 58.2493C148.415 58.2415 148.411 58.2326 148.408 58.223C148.402 58.2038 148.403 58.183 148.412 58.1648C148.421 58.1465 148.436 58.1323 148.455 58.125C148.766 58.0345 149.051 57.8713 149.286 57.6488C149.521 57.4263 149.7 57.151 149.808 56.8455C149.811 56.836 149.816 56.8271 149.822 56.8193C149.828 56.8115 149.836 56.805 149.844 56.8003C149.853 56.7955 149.862 56.7925 149.872 56.7914C149.882 56.7904 149.892 56.7913 149.902 56.7942C149.912 56.7963 149.921 56.8005 149.929 56.8065C149.938 56.8124 149.945 56.82 149.95 56.8287C149.955 56.8375 149.959 56.8472 149.96 56.8573C149.961 56.8675 149.96 56.8777 149.958 56.8876C149.865 57.1648 149.716 57.4199 149.52 57.6368C149.324 57.8537 149.085 58.0279 148.819 58.1483Z" fill="#263238"/>
<path d="M148.925 53.457C148.902 53.4705 148.875 53.4777 148.848 53.4777C148.821 53.4777 148.795 53.4705 148.771 53.457C148.615 53.3427 148.435 53.2662 148.245 53.2338C148.054 53.2014 147.859 53.2139 147.674 53.2702C147.655 53.2791 147.635 53.284 147.614 53.2846C147.593 53.2853 147.572 53.2817 147.553 53.2741C147.534 53.2665 147.516 53.2551 147.501 53.2405C147.486 53.2258 147.474 53.2083 147.467 53.189C147.459 53.1697 147.455 53.149 147.455 53.1282C147.455 53.1073 147.46 53.0868 147.468 53.0677C147.477 53.0487 147.489 53.0316 147.505 53.0174C147.52 53.0033 147.538 52.9924 147.558 52.9854C147.792 52.907 148.041 52.8865 148.285 52.9255C148.529 52.9645 148.76 53.062 148.958 53.2095C148.975 53.2204 148.989 53.2345 149 53.251C149.012 53.2675 149.019 53.2861 149.023 53.3057C149.027 53.3253 149.027 53.3455 149.023 53.3651C149.019 53.3846 149.011 53.4032 149 53.4197C148.979 53.4387 148.953 53.4517 148.925 53.457Z" fill="#263238"/>
<path d="M144.011 54.9456C143.983 54.9527 143.954 54.9527 143.927 54.9456C143.887 54.9387 143.851 54.9172 143.826 54.8853C143.801 54.8534 143.789 54.8133 143.791 54.7728C143.821 54.5319 143.907 54.3014 144.042 54.1001C144.178 53.8988 144.359 53.7325 144.571 53.6148C144.608 53.5985 144.65 53.5972 144.689 53.6111C144.727 53.625 144.758 53.6531 144.776 53.6895C144.794 53.726 144.797 53.7681 144.784 53.8066C144.77 53.8451 144.743 53.8769 144.706 53.8949C144.535 53.9874 144.39 54.1213 144.284 54.2845C144.178 54.4476 144.114 54.6348 144.099 54.8288C144.095 54.8539 144.084 54.8774 144.069 54.8977C144.054 54.918 144.034 54.9344 144.011 54.9456Z" fill="#263238"/>
<path d="M150.687 50.7435C150.687 50.7435 144.908 53.9655 142.378 52.4525C139.848 50.9396 142.378 49.6508 142.378 49.6508C142.378 49.6508 141.58 50.538 142.332 50.9816C142.332 50.9816 142.5 48.4928 144.665 47.713C144.499 47.9237 144.382 48.1688 144.322 48.4305C144.262 48.6922 144.262 48.9639 144.32 49.2259C145.49 48.321 146.832 47.6633 148.264 47.2927C150.747 46.569 157.431 47.0406 150.687 50.7435Z" fill="#263238"/>
<path d="M151.031 65.2895C151.031 65.2895 151.993 66.1627 153.09 67.0079C154.406 66.13 157.463 63.8373 157.094 62.1002C156.838 61.6333 155.465 61.4512 155.465 61.4512C155.465 61.4512 154.238 63.5151 151.031 65.2895Z" fill="#CC9EFF"/>
<path d="M151.03 65.2888C150.406 65.9274 149.876 66.6523 149.457 67.4414C148.342 66.8951 148.472 63.5704 148.808 63.1642C149.315 62.7942 149.908 62.5596 150.531 62.4824C150.379 62.9555 150.345 63.4585 150.432 63.9477C150.519 64.4369 150.724 64.8973 151.03 65.2888Z" fill="#CC9EFF"/>
<g opacity="0.5">
<path d="M151.029 65.2895C151.029 65.2895 151.991 66.1627 153.088 67.0079C154.404 66.13 157.461 63.8373 157.093 62.1002C156.836 61.6333 155.464 61.4512 155.464 61.4512C155.464 61.4512 154.236 63.5151 151.029 65.2895Z" fill="white"/>
<path d="M151.03 65.2888C150.406 65.9274 149.876 66.6523 149.457 67.4414C148.342 66.8951 148.472 63.5704 148.808 63.1642C149.315 62.7942 149.908 62.5596 150.531 62.4824C150.379 62.9555 150.345 63.4585 150.432 63.9477C150.519 64.4369 150.724 64.8973 151.03 65.2888Z" fill="white"/>
</g>
<path d="M157.094 62.0991C157.281 66.3704 157.842 70.6172 158.769 74.7907C160.039 80.4502 162.256 86.7867 166.13 91.0406C166.13 91.0406 167.937 95.1871 167.348 98.82C167.348 98.82 168.529 98.353 168.749 97.6666C168.968 96.9802 165.551 88.7619 164.721 82.5141C163.89 76.2663 163.418 62.0804 163.418 62.0804C161.999 61.8788 160.564 61.824 159.133 61.9169C158.527 61.9496 157.836 62.015 157.094 62.0991Z" fill="#263238"/>
<path opacity="0.2" d="M168.768 97.6809C168.529 98.3533 167.367 98.839 167.367 98.839C167.955 95.2014 166.154 91.0596 166.154 91.0596C165.906 90.7887 165.687 90.5086 165.43 90.2237C163.255 87.5435 161.649 84.2001 160.464 80.754C159.794 78.8044 159.236 76.8182 158.793 74.8051C158.742 74.5856 158.7 74.3708 158.648 74.156C157.821 70.2404 157.309 66.2649 157.117 62.2675C157.117 62.1694 157.117 62.1181 157.117 62.1181C157.864 62.034 158.555 61.9826 159.185 61.95C160.614 61.8566 162.048 61.9129 163.465 62.1181C163.465 62.1181 163.577 65.4147 163.783 69.5239C163.783 69.5892 163.783 69.6453 163.783 69.7107C163.843 70.892 163.913 72.1294 163.983 73.3809C164.123 75.7156 164.287 78.0504 164.483 80.0629C164.567 80.9735 164.66 81.8187 164.753 82.5518C165.57 88.7809 169.006 97.0179 168.768 97.6809Z" fill="white"/>
<path d="M157.094 62.1005C157.281 66.3719 157.842 70.6187 158.769 74.7922L161.038 65.7334L158.639 65.5046L161.038 64.1037L159.171 61.9277C158.527 61.9511 157.836 62.0165 157.094 62.1005Z" fill="#263238"/>
<path d="M146.219 99.7738L146.835 100.217C146.252 92.8425 146.074 85.4411 146.303 78.0467C146.303 77.435 146.345 76.8466 146.368 76.2863C146.835 65.5698 148.487 63.6226 148.595 63.5059L147.04 64.0335L144.24 65.0048C143.395 74.1476 146.219 99.7738 146.219 99.7738Z" fill="#263238"/>
<path opacity="0.2" d="M146.219 99.7738L146.835 100.217C146.252 92.8425 146.074 85.4411 146.303 78.0467C146.303 77.435 146.345 76.8466 146.368 76.2863C146.835 65.5698 148.487 63.6226 148.595 63.5059L147.04 64.0335L144.24 65.0048C143.395 74.1476 146.219 99.7738 146.219 99.7738Z" fill="white"/>
<path d="M146.924 67.2601L145.145 68.3715C145.145 68.3715 145.612 73.6153 146.368 76.2863C146.835 65.5698 148.487 63.6226 148.595 63.5059L147.04 64.0335C146.186 64.8249 145.471 65.7547 144.926 66.7838L146.924 67.2601Z" fill="#263238"/>
<path opacity="0.2" d="M162.938 69.8465C163.043 71.0752 163.392 72.2705 163.964 73.3627C163.894 72.1159 163.824 70.8738 163.764 69.6925C163.48 69.6832 163.198 69.7358 162.938 69.8465Z" fill="black"/>
<path opacity="0.2" d="M154.297 118.162L156.234 107.627L155.861 102.057C155.861 102.057 153.21 111.722 154.297 118.162Z" fill="black"/>
<path opacity="0.1" d="M164.47 80.0437C164.265 80.1215 164.06 80.1916 163.854 80.2538C162.745 80.57 161.6 80.738 160.447 80.7535C159.659 80.7747 158.871 80.731 158.09 80.6227C149.721 79.348 149.469 77.6296 149.469 77.6296C149.469 77.6296 154.71 77.2794 157.198 75.7618C157.799 75.3449 158.288 74.7869 158.622 74.1368C160.2 71.4238 161.04 66.7637 161.04 66.7637C161.04 66.7637 161.684 67.338 162.571 68.2439C162.935 68.6128 163.336 69.0377 163.752 69.5047C163.752 69.57 163.752 69.6261 163.752 69.6914C163.812 70.8728 163.882 72.1102 163.952 73.3617C164.111 75.6964 164.274 78.0452 164.47 80.0437Z" fill="black"/>
<path d="M148.968 74.8841L149.062 77.0088C148.362 79.1287 145.794 77.7605 145.794 77.7605L144.291 77.5971C144.028 77.5527 143.79 77.4159 143.619 77.2113C143.448 77.0067 143.355 76.7478 143.358 76.4811L143.279 74.9962C143.245 74.6925 143.331 74.3876 143.519 74.1462C143.706 73.9048 143.98 73.7458 144.282 73.7028L145.598 73.6234C145.982 73.6 146.366 73.6739 146.714 73.8382L148.968 74.8841Z" fill="#E4897B"/>
<path d="M163.441 62.0996C168.45 63.5005 164.305 78.9098 162.471 79.4141C158.993 80.3853 148.594 78.4802 148.594 78.4802V74.4177C148.594 74.4177 158.606 75.3983 159.451 75.0248C160.543 74.5578 161.07 68.7209 161.318 65.9753C161.357 65.211 161.568 64.4654 161.936 63.7943C162.304 63.1232 162.818 62.5439 163.441 62.0996Z" fill="#263238"/>
<path opacity="0.2" d="M163.441 62.0996C168.45 63.5005 164.305 78.9098 162.471 79.4141C158.993 80.3853 148.594 78.4802 148.594 78.4802V74.4177C148.594 74.4177 158.606 75.3983 159.451 75.0248C160.543 74.5578 161.07 68.7209 161.318 65.9753C161.357 65.211 161.568 64.4654 161.936 63.7943C162.304 63.1232 162.818 62.5439 163.441 62.0996Z" fill="white"/>
<path d="M144.01 83.4293L135.865 84.1764C135.703 84.1838 135.544 84.1405 135.408 84.0525C135.273 83.9646 135.168 83.8365 135.109 83.6861L130.744 71.905C130.717 71.8339 130.707 71.7572 130.716 71.6815C130.725 71.6058 130.752 71.5334 130.796 71.4707C130.828 71.4219 130.869 71.3804 130.919 71.349C130.968 71.3176 131.023 71.297 131.08 71.2886L139.239 70.5415C139.401 70.5359 139.561 70.5804 139.696 70.6691C139.831 70.7577 139.936 70.886 139.996 71.0365L144.355 82.8176C144.39 82.8792 144.408 82.9486 144.408 83.0192C144.407 83.0898 144.389 83.1592 144.354 83.2207C144.32 83.2822 144.27 83.3336 144.209 83.3702C144.149 83.4067 144.08 83.4271 144.01 83.4293Z" fill="#263238"/>
<path opacity="0.6" d="M144.01 83.4293L135.865 84.1764C135.703 84.1838 135.544 84.1405 135.408 84.0525C135.273 83.9646 135.168 83.8365 135.109 83.6861L130.744 71.905C130.717 71.8339 130.707 71.7572 130.716 71.6815C130.725 71.6058 130.752 71.5334 130.796 71.4707C130.828 71.4219 130.869 71.3804 130.919 71.349C130.968 71.3176 131.023 71.297 131.08 71.2886L139.239 70.5415C139.401 70.5359 139.561 70.5804 139.696 70.6691C139.831 70.7577 139.936 70.886 139.996 71.0365L144.355 82.8176C144.39 82.8792 144.408 82.9486 144.408 83.0192C144.407 83.0898 144.389 83.1592 144.354 83.2207C144.32 83.2822 144.27 83.3336 144.209 83.3702C144.149 83.4067 144.08 83.4271 144.01 83.4293Z" fill="white"/>
<path opacity="0.2" d="M143.992 83.4289L135.847 84.1761C135.686 84.1834 135.526 84.1401 135.391 84.0522C135.255 83.9643 135.15 83.8362 135.091 83.6858L130.727 71.9046C130.699 71.8336 130.69 71.7568 130.699 71.6811C130.707 71.6054 130.735 71.5331 130.778 71.4704L138.918 70.7232C139.08 70.7169 139.24 70.7612 139.376 70.8499C139.511 70.9386 139.616 71.0674 139.675 71.2182L144.039 82.9994C144.066 83.0694 144.076 83.1451 144.068 83.2199C144.06 83.2947 144.034 83.3664 143.992 83.4289Z" fill="white"/>
<path opacity="0.2" d="M137.58 77.1674C137.602 77.3304 137.578 77.4966 137.51 77.6465C137.442 77.7964 137.333 77.9239 137.196 78.0141C137.058 78.1044 136.898 78.1537 136.733 78.1562C136.569 78.1587 136.407 78.1145 136.266 78.0285C136.126 77.9425 136.013 77.8185 135.941 77.6707C135.868 77.523 135.839 77.3576 135.857 77.194C135.874 77.0303 135.938 76.8751 136.041 76.7464C136.143 76.6177 136.28 76.5208 136.436 76.4669C136.557 76.4358 136.683 76.4293 136.807 76.4478C136.931 76.4664 137.049 76.5096 137.156 76.5749C137.263 76.6403 137.355 76.7264 137.428 76.8281C137.501 76.9299 137.552 77.0453 137.58 77.1674Z" fill="black"/>
<path d="M132.016 78.372L132.888 80.2771C134.405 82.1216 135.885 80.7114 135.885 80.7114L137.033 80.4639C137.425 80.3752 137.533 79.9269 137.295 79.3946L136.683 78.0638C136.565 77.7766 136.373 77.5255 136.127 77.3354C135.882 77.1454 135.591 77.023 135.283 76.9805L134.181 77.0085C133.889 77.004 133.603 77.0977 133.369 77.2746L132.016 78.372Z" fill="#E4897B"/>
</svg>
