<svg width="183" height="168" viewBox="0 0 183 168" fill="none" xmlns="http://www.w3.org/2000/svg">
<path d="M65.7839 119.505C51.7882 112.647 39.1891 102.339 31.3604 88.8512C23.5318 75.3629 20.89 58.5215 26.0348 43.7779C31.1796 29.0343 44.6915 17.113 60.1974 15.5881C66.6968 14.9478 73.6084 16.1989 78.7406 20.2471C84.7057 24.9524 87.3895 32.5601 91.1335 39.1737C94.8775 45.7872 101.23 52.2575 108.772 51.4951C113.109 51.0738 116.811 48.3063 120.82 46.6002C133.39 41.2546 149.123 47.3163 156.443 58.8585C163.762 70.4006 163.144 85.9614 156.594 97.9627C150.044 109.964 138.27 118.545 125.422 123.174C108.435 129.229 89.8338 128.919 73.0573 122.302" fill="#EBEBEB"/>
<path d="M131.855 9.33351C128.691 4.27856 125.376 1.17819 120.379 0.938084L120.951 0.88332C119.327 0.755684 117.693 0.909591 116.122 1.33827C111.557 2.55988 107.553 5.92563 105.841 10.3529C103.56 16.3093 105.714 23.6854 110.889 27.426C116.063 31.1667 123.765 30.8844 128.607 26.7352C133.449 22.5859 135.233 14.7465 131.855 9.33351Z" fill="#EBEBEB"/>
<path d="M173.243 166.143C173.243 166.206 134.457 166.252 86.6225 166.252C38.7881 166.252 -0.00195312 166.214 -0.00195312 166.143C-0.00195312 166.071 38.7754 166.033 86.6225 166.033C134.47 166.033 173.243 166.084 173.243 166.143Z" fill="#263238"/>
<path d="M182.856 25.2012H107.535V90.6585H182.856V25.2012Z" fill="#FAFAFA"/>
<path d="M182.855 90.6594C182.855 90.6594 182.855 90.2382 182.855 89.4504C182.855 88.6627 182.855 87.4874 182.855 85.9541C182.855 82.8917 182.855 78.4054 182.83 72.6849C182.83 61.2523 182.801 44.8827 182.784 25.202L182.876 25.2947H107.576L107.686 25.1852C107.686 48.9519 107.686 71.3453 107.686 90.6426L107.589 90.5457L162.07 90.592L177.441 90.6173H181.505H182.552H182.91H181.526H177.479L162.133 90.6426L107.589 90.6931H107.492V90.5962C107.492 71.299 107.492 48.8929 107.492 25.1389V25.1094H107.606H182.906H182.998V25.202C182.977 44.9206 182.96 61.2944 182.948 72.7396C182.948 78.4517 182.948 82.9338 182.927 85.992C182.927 87.5169 182.927 88.6838 182.927 89.4715C182.927 90.2592 182.855 90.6594 182.855 90.6594Z" fill="#263238"/>
<path d="M175.912 42.8006C175.912 42.8006 175.806 42.8006 175.604 42.8006H174.708H171.238L158.332 42.8343L114.468 42.927L114.578 42.8175V73.0376L114.468 72.9323L158.016 72.9702L170.826 72.9997L174.267 73.0208H175.154H175.457C175.457 73.0208 175.356 73.0208 175.154 73.0208H174.267H170.826L158.016 73.0545L114.468 73.1303H114.363V73.0208C114.363 68.0669 114.363 62.9404 114.363 57.6874C114.363 52.5862 114.363 47.607 114.363 42.8006V42.6953H114.468L158.323 42.7332L171.259 42.8006L174.729 42.8217H175.626L175.912 42.8006Z" fill="#E0E0E0"/>
<path d="M175.91 47.9064C175.91 47.9654 162.158 48.0159 145.201 48.0159C128.244 48.0159 114.492 47.9654 114.492 47.9064C114.492 47.8474 128.244 47.7969 145.201 47.7969C162.158 47.7969 175.91 47.8558 175.91 47.9064Z" fill="#E0E0E0"/>
<path d="M175.91 52.0685C175.91 52.1275 162.158 52.178 145.201 52.178C128.244 52.178 114.492 52.1275 114.492 52.0685C114.492 52.0095 128.244 51.959 145.201 51.959C162.158 51.959 175.91 52.0095 175.91 52.0685Z" fill="#E0E0E0"/>
<path d="M175.91 56.2306C175.91 56.2938 162.158 56.3401 145.201 56.3401C128.244 56.3401 114.492 56.2938 114.492 56.2306C114.492 56.1674 128.244 56.1211 145.201 56.1211C162.158 56.1211 175.91 56.1716 175.91 56.2306Z" fill="#E0E0E0"/>
<path d="M175.91 60.3927C175.91 60.4559 162.158 60.5023 145.201 60.5023C128.244 60.5023 114.492 60.4559 114.492 60.3927C114.492 60.3295 128.244 60.2832 145.201 60.2832C162.158 60.2832 175.91 60.3338 175.91 60.3927Z" fill="#E0E0E0"/>
<path d="M175.91 64.5587C175.91 64.6177 162.158 64.6683 145.201 64.6683C128.244 64.6683 114.492 64.6177 114.492 64.5587C114.492 64.4998 128.244 64.4492 145.201 64.4492C162.158 64.4492 175.91 64.4956 175.91 64.5587Z" fill="#E0E0E0"/>
<path d="M114.469 68.7208C114.469 68.6577 128.225 68.6113 145.178 68.6113C162.131 68.6113 175.887 68.6577 175.887 68.7208C175.887 68.784 162.135 68.8304 145.178 68.8304C128.22 68.8304 114.469 68.7798 114.469 68.7208Z" fill="#E0E0E0"/>
<path d="M126.643 73.4977C126.584 73.4977 126.533 66.6314 126.533 58.1601C126.533 49.6889 126.584 42.8184 126.643 42.8184C126.701 42.8184 126.752 49.6847 126.752 58.1601C126.752 66.6356 126.706 73.4977 126.643 73.4977Z" fill="#E0E0E0"/>
<path d="M138.959 73.4977C138.9 73.4977 138.85 66.6314 138.85 58.1601C138.85 49.6889 138.9 42.8184 138.959 42.8184C139.018 42.8184 139.068 49.6847 139.068 58.1601C139.068 66.6356 139.022 73.4977 138.959 73.4977Z" fill="#E0E0E0"/>
<path d="M151.275 73.4977C151.217 73.4977 151.166 66.6314 151.166 58.1601C151.166 49.6889 151.217 42.8184 151.275 42.8184C151.334 42.8184 151.385 49.6847 151.385 58.1601C151.385 66.6356 151.334 73.4977 151.275 73.4977Z" fill="#E0E0E0"/>
<path d="M163.594 73.4977C163.535 73.4977 163.484 66.6314 163.484 58.1601C163.484 49.6889 163.535 42.8184 163.594 42.8184C163.653 42.8184 163.703 49.6847 163.703 58.1601C163.703 66.6356 163.653 73.4977 163.594 73.4977Z" fill="#E0E0E0"/>
<path d="M175.91 73.4977C175.851 73.4977 175.801 66.6314 175.801 58.1601C175.801 49.6889 175.851 42.8184 175.91 42.8184C175.969 42.8184 176.02 49.6847 176.02 58.1601C176.02 66.6356 175.969 73.4977 175.91 73.4977Z" fill="#E0E0E0"/>
<path d="M175.91 47.9062C175.767 48.0412 175.613 48.1625 175.447 48.2685L174.068 49.2458L168.914 52.8095C164.523 55.8215 158.398 60.0086 151.398 64.735L151.309 64.7982L151.208 64.7603L145.975 62.9953L138.891 60.5984L139.08 60.5731L126.738 68.859H126.717L117.807 71.9425L115.359 72.785L114.719 72.9872C114.647 73.0156 114.57 73.0327 114.492 73.0378C114.558 72.9957 114.629 72.9618 114.703 72.9367L115.308 72.7092L117.723 71.8035L126.582 68.581H126.544L138.836 60.2151L138.921 60.1561L139.021 60.1898L146.114 62.5993L151.347 64.3685L151.154 64.3938C158.145 59.6801 164.321 55.5476 168.754 52.5989L173.983 49.1447L175.401 48.2306C175.559 48.1056 175.73 47.9969 175.91 47.9062Z" fill="#CC9EFF"/>
<path d="M126.641 69.4703C127.055 69.4703 127.39 69.1346 127.39 68.7205C127.39 68.3064 127.055 67.9707 126.641 67.9707C126.228 67.9707 125.893 68.3064 125.893 68.7205C125.893 69.1346 126.228 69.4703 126.641 69.4703Z" fill="#CC9EFF"/>
<path d="M139.709 60.3924C139.709 60.5407 139.665 60.6857 139.582 60.809C139.5 60.9323 139.383 61.0284 139.246 61.0851C139.109 61.1419 138.959 61.1567 138.814 61.1278C138.668 61.0989 138.535 61.0275 138.43 60.9226C138.326 60.8177 138.254 60.6841 138.225 60.5387C138.196 60.3932 138.211 60.2425 138.268 60.1055C138.325 59.9684 138.421 59.8513 138.544 59.7689C138.667 59.6866 138.812 59.6426 138.96 59.6426C139.158 59.6426 139.349 59.7216 139.489 59.8622C139.63 60.0028 139.709 60.1935 139.709 60.3924Z" fill="#CC9EFF"/>
<path d="M152.025 64.4864C152.024 64.6346 151.979 64.7791 151.897 64.9019C151.814 65.0246 151.697 65.1201 151.56 65.1762C151.423 65.2323 151.272 65.2465 151.127 65.2171C150.983 65.1877 150.849 65.116 150.745 65.0109C150.641 64.9059 150.57 64.7723 150.541 64.627C150.513 64.4816 150.528 64.3311 150.585 64.1943C150.642 64.0576 150.738 63.9407 150.861 63.8585C150.984 63.7763 151.128 63.7324 151.276 63.7324C151.375 63.7324 151.473 63.752 151.564 63.7899C151.655 63.8278 151.738 63.8834 151.807 63.9535C151.877 64.0236 151.932 64.1068 151.969 64.1982C152.007 64.2897 152.025 64.3876 152.025 64.4864Z" fill="#CC9EFF"/>
<path d="M164.468 56.2811C164.468 56.4294 164.424 56.5743 164.342 56.6976C164.26 56.821 164.143 56.9171 164.006 56.9738C163.869 57.0306 163.719 57.0454 163.573 57.0165C163.428 56.9875 163.295 56.9161 163.19 56.8113C163.085 56.7064 163.014 56.5728 162.985 56.4273C162.956 56.2819 162.971 56.1311 163.028 55.9941C163.084 55.8571 163.18 55.74 163.303 55.6576C163.427 55.5752 163.571 55.5312 163.719 55.5312C163.918 55.5312 164.109 55.6102 164.249 55.7509C164.389 55.8915 164.468 56.0822 164.468 56.2811Z" fill="#CC9EFF"/>
<path d="M175.911 68.7208C175.83 68.6861 175.752 68.6437 175.679 68.5944L175.023 68.1731L172.52 66.5724L163.488 60.6118H163.686L151.394 68.9188L151.226 69.0283L151.108 68.8682L144.63 60.1231C142.61 57.3935 140.65 54.7396 138.791 52.2164L139.11 52.2416L126.76 64.6937L126.73 64.7189H126.692L117.538 67.6971L115.04 68.4975L114.388 68.6913C114.313 68.7169 114.235 68.7339 114.156 68.7418C114.223 68.6999 114.295 68.6673 114.371 68.6449L115.01 68.409L117.484 67.5371L126.591 64.4241L126.528 64.4662L138.808 51.9425L138.984 51.7656L139.131 51.9636L144.983 59.862C147.238 62.916 149.421 65.8689 151.444 68.6155L151.158 68.5649L163.501 60.3548L163.593 60.2916L163.686 60.3548L172.638 66.4376L175.078 68.1226L175.705 68.5733C175.779 68.6134 175.849 68.663 175.911 68.7208Z" fill="#455A64"/>
<path d="M139.709 52.0701C139.709 52.2184 139.665 52.3634 139.582 52.4867C139.5 52.61 139.383 52.7061 139.246 52.7629C139.109 52.8196 138.959 52.8345 138.814 52.8056C138.668 52.7766 138.535 52.7052 138.43 52.6003C138.326 52.4955 138.254 52.3619 138.225 52.2164C138.196 52.071 138.211 51.9202 138.268 51.7832C138.325 51.6462 138.421 51.5291 138.544 51.4467C138.667 51.3643 138.812 51.3203 138.96 51.3203C139.058 51.3198 139.156 51.3388 139.247 51.3763C139.338 51.4137 139.421 51.469 139.49 51.5387C139.56 51.6084 139.615 51.6913 139.653 51.7825C139.69 51.8738 139.709 51.9715 139.709 52.0701Z" fill="#455A64"/>
<path d="M127.39 64.5587C127.389 64.7068 127.345 64.8514 127.262 64.9741C127.179 65.0969 127.062 65.1923 126.925 65.2484C126.788 65.3046 126.638 65.3188 126.493 65.2894C126.348 65.26 126.215 65.1883 126.11 65.0832C126.006 64.9782 125.935 64.8446 125.907 64.6992C125.878 64.5539 125.893 64.4034 125.95 64.2666C126.007 64.1298 126.103 64.013 126.226 63.9308C126.349 63.8486 126.493 63.8047 126.641 63.8047C126.74 63.8047 126.838 63.8242 126.929 63.8622C127.02 63.9001 127.103 63.9557 127.172 64.0258C127.242 64.0959 127.297 64.179 127.334 64.2705C127.372 64.3619 127.391 64.4599 127.39 64.5587Z" fill="#455A64"/>
<path d="M152.025 68.7205C152.025 68.8688 151.981 69.0138 151.899 69.1371C151.816 69.2604 151.7 69.3565 151.563 69.4133C151.426 69.47 151.275 69.4849 151.13 69.4559C150.985 69.427 150.851 69.3556 150.747 69.2507C150.642 69.1459 150.571 69.0123 150.542 68.8668C150.513 68.7214 150.528 68.5706 150.584 68.4336C150.641 68.2966 150.737 68.1795 150.86 68.0971C150.983 68.0147 151.128 67.9707 151.276 67.9707C151.475 67.9707 151.665 68.0497 151.806 68.1903C151.946 68.3309 152.025 68.5217 152.025 68.7205Z" fill="#455A64"/>
<path d="M163.594 61.8961C164.008 61.8961 164.343 61.5604 164.343 61.1463C164.343 60.7322 164.008 60.3965 163.594 60.3965C163.181 60.3965 162.846 60.7322 162.846 61.1463C162.846 61.5604 163.181 61.8961 163.594 61.8961Z" fill="#455A64"/>
<path d="M121.501 76.5021C120.717 76.6482 119.913 76.6482 119.129 76.5021C119.913 76.3561 120.717 76.3561 121.501 76.5021Z" fill="#E0E0E0"/>
<path d="M134.087 76.5021C133.303 76.6482 132.499 76.6482 131.715 76.5021C132.499 76.3561 133.303 76.3561 134.087 76.5021Z" fill="#E0E0E0"/>
<path d="M146.679 76.5021C145.895 76.6482 145.091 76.6482 144.307 76.5021C145.091 76.3561 145.895 76.3561 146.679 76.5021Z" fill="#E0E0E0"/>
<path d="M159.269 76.5021C158.485 76.6482 157.681 76.6482 156.896 76.5021C157.681 76.3561 158.485 76.3561 159.269 76.5021Z" fill="#E0E0E0"/>
<path d="M171.855 76.5021C171.071 76.6482 170.267 76.6482 169.482 76.5021C170.267 76.3561 171.071 76.3561 171.855 76.5021Z" fill="#E0E0E0"/>
<path d="M112.742 72.8693C112.111 73.0152 111.455 73.0152 110.824 72.8693C111.455 72.7233 112.111 72.7233 112.742 72.8693Z" fill="#E0E0E0"/>
<path d="M112.742 68.0294C112.111 68.1754 111.455 68.1754 110.824 68.0294C111.455 67.8834 112.111 67.8834 112.742 68.0294Z" fill="#E0E0E0"/>
<path d="M112.742 63.1896C112.111 63.3356 111.455 63.3356 110.824 63.1896C111.455 63.0436 112.111 63.0436 112.742 63.1896Z" fill="#E0E0E0"/>
<path d="M112.742 58.3458C112.111 58.4918 111.455 58.4918 110.824 58.3458C111.455 58.1998 112.111 58.1998 112.742 58.3458Z" fill="#E0E0E0"/>
<path d="M112.742 53.506C112.111 53.652 111.455 53.652 110.824 53.506C111.455 53.36 112.111 53.36 112.742 53.506Z" fill="#E0E0E0"/>
<path d="M112.742 48.6661C112.111 48.8121 111.455 48.8121 110.824 48.6661C111.455 48.5201 112.111 48.5201 112.742 48.6661Z" fill="#E0E0E0"/>
<path d="M112.742 43.8204C112.111 43.9664 111.455 43.9664 110.824 43.8204C111.455 43.6744 112.111 43.6744 112.742 43.8204Z" fill="#E0E0E0"/>
<path d="M131.803 32.3516H114.156V33.6069H131.803V32.3516Z" fill="#CC9EFF"/>
<path d="M163.328 36.0119C163.328 36.0708 152.294 36.1214 138.681 36.1214C125.068 36.1214 114.047 36.0624 114.047 36.0119C114.047 35.9613 125.077 35.9023 138.69 35.9023C152.303 35.9023 163.328 35.9487 163.328 36.0119Z" fill="#263238"/>
<path d="M145.315 82.5298C145.315 82.5887 138.584 82.6393 130.288 82.6393C121.993 82.6393 115.258 82.5887 115.258 82.5298C115.258 82.4708 121.989 82.416 130.288 82.416C138.588 82.416 145.315 82.4666 145.315 82.5298Z" fill="#263238"/>
<path d="M122.46 84.8004C121.395 84.9113 120.324 84.9479 119.254 84.9099C118.185 84.9479 117.113 84.9113 116.049 84.8004C117.114 84.6919 118.185 84.6554 119.254 84.6908C120.324 84.6554 121.395 84.6919 122.46 84.8004Z" fill="#263238"/>
<path d="M172.563 82.1252C172.563 82.1883 167.78 82.2347 161.878 82.2347C155.976 82.2347 151.193 82.1883 151.193 82.1252C151.193 82.062 155.976 82.0156 161.878 82.0156C167.78 82.0156 172.563 82.0662 172.563 82.1252Z" fill="#263238"/>
<path d="M160.944 83.5987C158.72 83.7447 156.488 83.7447 154.264 83.5987C155.373 83.4877 156.489 83.4511 157.604 83.4892C158.718 83.4513 159.834 83.4878 160.944 83.5987Z" fill="#263238"/>
<path d="M65.7089 39.0312H24.7188V75.7554H65.7089V39.0312Z" fill="#FAFAFA"/>
<path d="M65.7077 75.7563C65.7077 75.7563 65.7077 75.5204 65.7077 75.0739C65.7077 74.6274 65.7077 73.9618 65.7077 73.1067C65.7077 71.3795 65.7077 68.8605 65.7077 65.6506C65.7077 59.235 65.6782 50.0645 65.6572 39.0321L65.7497 39.1248H24.7638L24.8732 39.0152C24.8732 52.3771 24.8732 64.9471 24.8732 75.7394L24.7764 75.6426L54.4253 75.6889L62.7882 75.7142H65.0009H65.5731H65.7666H65.022H62.8261L54.4884 75.7394L24.7764 75.7858H24.6797V75.6931C24.6797 64.9008 24.6797 52.3308 24.6797 38.9689V38.8594H24.7933H65.7792H65.8759V38.952C65.8759 50.0098 65.8381 59.2013 65.8255 65.6295C65.8255 68.831 65.8255 71.3458 65.8002 73.0645C65.8002 73.907 65.8002 74.5684 65.8002 75.0149C65.8002 75.4614 65.7077 75.7563 65.7077 75.7563Z" fill="#263238"/>
<path d="M40.4305 45.5568C40.4305 45.6158 38.2725 45.6663 35.6096 45.6663C32.9468 45.6663 30.793 45.6158 30.793 45.5568C30.793 45.4978 32.9468 45.4473 35.6096 45.4473C38.2725 45.4473 40.4305 45.4978 40.4305 45.5568Z" fill="#263238"/>
<path d="M57.8029 48.3107C57.8029 48.3739 51.8756 48.4202 44.5686 48.4202C37.2615 48.4202 31.3301 48.3739 31.3301 48.3107C31.3301 48.2475 37.2531 48.2012 44.5686 48.2012C51.884 48.2012 57.8029 48.2517 57.8029 48.3107Z" fill="#263238"/>
<path d="M32.5961 52.9824H30.8672V54.7137H32.5961V52.9824Z" fill="#263238"/>
<path d="M36.85 52.9824H35.1211V54.7137H36.85V52.9824Z" fill="#263238"/>
<path d="M41.1782 52.9082H39.4492V54.6395H41.1782V52.9082Z" fill="#CC9EFF"/>
<path d="M45.352 52.9824H43.623V54.7137H45.352V52.9824Z" fill="#263238"/>
<path d="M49.6 52.9824H47.8711V54.7137H49.6V52.9824Z" fill="#263238"/>
<path d="M53.854 52.9824H52.125V54.7137H53.854V52.9824Z" fill="#263238"/>
<path d="M58.102 52.9824H56.373V54.7137H58.102V52.9824Z" fill="#263238"/>
<path d="M32.5961 56.6602H30.8672V58.3915H32.5961V56.6602Z" fill="#263238"/>
<path d="M36.85 56.6602H35.1211V58.3915H36.85V56.6602Z" fill="#263238"/>
<path d="M41.0981 56.6602H39.3691V58.3915H41.0981V56.6602Z" fill="#263238"/>
<path d="M45.352 56.6602H43.623V58.3915H45.352V56.6602Z" fill="#263238"/>
<path d="M49.6 56.6602H47.8711V58.3915H49.6V56.6602Z" fill="#263238"/>
<path d="M53.934 56.5801H52.2051V58.3114H53.934V56.5801Z" fill="#CC9EFF"/>
<path d="M58.102 56.6602H56.373V58.3915H58.102V56.6602Z" fill="#263238"/>
<path d="M32.5961 60.3379H30.8672V62.0692H32.5961V60.3379Z" fill="#263238"/>
<path d="M36.9301 60.2578H35.2012V61.9891H36.9301V60.2578Z" fill="#CC9EFF"/>
<path d="M41.0981 60.3379H39.3691V62.0692H41.0981V60.3379Z" fill="#263238"/>
<path d="M45.352 60.3379H43.623V62.0692H45.352V60.3379Z" fill="#263238"/>
<path d="M49.6 60.3379H47.8711V62.0692H49.6V60.3379Z" fill="#263238"/>
<path d="M53.854 60.3379H52.125V62.0692H53.854V60.3379Z" fill="#263238"/>
<path d="M58.102 60.3379H56.373V62.0692H58.102V60.3379Z" fill="#263238"/>
<path d="M32.5961 64.0117H30.8672V65.743H32.5961V64.0117Z" fill="#263238"/>
<path d="M36.85 64.0117H35.1211V65.743H36.85V64.0117Z" fill="#263238"/>
<path d="M41.0981 64.0117H39.3691V65.743H41.0981V64.0117Z" fill="#263238"/>
<path d="M45.4321 63.9355H43.7031V65.6669H45.4321V63.9355Z" fill="#CC9EFF"/>
<path d="M49.6 64.0117H47.8711V65.743H49.6V64.0117Z" fill="#263238"/>
<path d="M53.854 64.0117H52.125V65.743H53.854V64.0117Z" fill="#263238"/>
<path d="M58.102 64.0117H56.373V65.743H58.102V64.0117Z" fill="#263238"/>
<path d="M32.5961 67.6895H30.8672V69.4208H32.5961V67.6895Z" fill="#263238"/>
<path d="M36.85 67.6895H35.1211V69.4208H36.85V67.6895Z" fill="#263238"/>
<path d="M41.0981 67.6895H39.3691V69.4208H41.0981V67.6895Z" fill="#263238"/>
<path d="M45.352 67.6895H43.623V69.4208H45.352V67.6895Z" fill="#263238"/>
<path d="M49.6 67.6895H47.8711V69.4208H49.6V67.6895Z" fill="#263238"/>
<path d="M53.934 67.6094H52.2051V69.3407H53.934V67.6094Z" fill="#CC9EFF"/>
<path d="M58.102 67.6895H56.373V69.4208H58.102V67.6895Z" fill="#263238"/>
<path d="M63.5407 24.3561C63.5407 24.3561 63.5407 24.3013 63.5407 24.2002C63.5407 24.0991 63.5407 23.939 63.5407 23.779C63.5407 23.3577 63.5407 22.8354 63.5154 22.1614C63.5154 20.7629 63.486 18.8167 63.465 16.5125L63.5617 16.6136H57.34C57.319 16.6389 57.5503 16.4072 57.4494 16.5083V18.6398C57.4494 19.339 57.4494 20.0172 57.4494 20.6786C57.4494 21.9971 57.4494 23.2313 57.4494 24.3561L57.3568 24.2676L61.8496 24.314H63.1116C63.4103 24.314 63.5701 24.314 63.5743 24.314C63.4348 24.3307 63.2942 24.3378 63.1537 24.335L61.8916 24.3603L57.3442 24.4066H57.2559V24.314C57.2559 23.1892 57.2559 21.955 57.2559 20.6365V18.6398C57.2559 18.2901 57.2559 17.9363 57.2559 17.5824V16.5083L57.3652 16.3945H63.587H63.6879V16.4914C63.6669 18.8209 63.65 20.7881 63.6374 22.2035C63.6374 22.8691 63.6164 23.4041 63.6122 23.8C63.6122 23.9643 63.6122 24.1033 63.6122 24.2213C63.5956 24.2697 63.5715 24.3152 63.5407 24.3561Z" fill="#263238"/>
<path d="M71.7948 24.3554C71.7914 24.3217 71.7914 24.2879 71.7948 24.2543C71.7948 24.1784 71.7948 24.0858 71.7948 23.9678C71.7948 23.7024 71.7948 23.3359 71.7948 22.8684C71.7948 21.9037 71.7948 20.522 71.7653 18.8033C71.7653 15.3449 71.7359 10.5216 71.7148 4.98648L71.8242 5.09179H65.9769C66.1956 4.87274 66.04 5.03703 66.0863 4.98648V10.6817C66.0863 12.5099 66.0863 14.2623 66.0863 15.9094C66.0863 19.1993 66.0652 22.0806 66.0568 24.3343L65.9853 24.2669L70.2467 24.3048H71.3951H71.698H71.8032C71.7725 24.3086 71.7414 24.3086 71.7106 24.3048H71.4204H70.2888L65.9853 24.3427H65.918V24.2711C65.918 21.9964 65.918 19.1151 65.8886 15.8462C65.8886 14.1991 65.8886 12.4467 65.8886 10.6185C65.8886 9.70443 65.8886 8.76926 65.8886 7.81725V4.99069C65.939 4.94014 65.7792 5.096 65.9979 4.87695H71.921V4.98226C71.8999 10.5469 71.8831 15.3955 71.8747 18.8834C71.8747 20.5894 71.8495 21.9627 71.841 22.9231C71.841 23.3781 71.841 23.7361 71.841 23.9973C71.841 24.111 71.841 24.1995 71.841 24.2711C71.8281 24.3005 71.8126 24.3287 71.7948 24.3554Z" fill="#263238"/>
<path d="M80.2632 24.356C80.2582 24.2774 80.2582 24.1986 80.2632 24.1201C80.2632 23.9516 80.2632 23.7367 80.2632 23.4629C80.2632 22.8732 80.2632 22.0517 80.2379 21.0239C80.2379 18.9177 80.2085 16.0153 80.1875 12.599L80.2926 12.7043H74.3948L74.5 12.599V15.9016C74.5 16.9715 74.5 18.0078 74.5 19.0019C74.5 20.9818 74.5 22.7931 74.5 24.3265L74.4159 24.2464L78.6857 24.2886H79.8635H80.1748H80.2884C80.1568 24.2991 80.0246 24.2991 79.893 24.2886H78.7361L74.4159 24.3349H74.3359V24.2506C74.3359 22.7089 74.3359 20.906 74.3359 18.9261C74.3359 17.932 74.3359 16.8957 74.3359 15.8257C74.3359 15.2865 74.3359 14.7431 74.3359 14.1913V12.5063L74.4495 12.3926H80.3179H80.4188V12.4937C80.3978 15.9226 80.381 18.8629 80.3683 20.9691C80.3683 21.9886 80.3473 22.8016 80.3431 23.3871C80.3431 23.6525 80.3431 23.8631 80.3431 24.0232C80.3345 24.1377 80.3076 24.2501 80.2632 24.356Z" fill="#263238"/>
<path d="M88.8957 24.3545C88.8939 24.3251 88.8939 24.2955 88.8957 24.2661C88.8957 24.1987 88.8957 24.1186 88.8957 24.0175C88.8957 23.7901 88.8957 23.4741 88.8957 23.074C88.8957 22.2315 88.8957 21.0478 88.8663 19.565C88.8663 16.5783 88.8369 12.4038 88.8158 7.58053L88.921 7.68584H82.7792L82.8844 7.57632V12.4206C82.8844 13.9835 82.8844 15.4831 82.8844 16.9069C82.8844 19.7503 82.8844 22.2778 82.8591 24.3503L82.7834 24.2787L87.2551 24.3166H88.4709H88.7906H88.9042C88.9042 24.3166 88.8747 24.3166 88.8074 24.3166H88.5003H87.3014L82.7834 24.3588H82.7119V24.2829C82.7119 22.2104 82.7119 19.6829 82.6866 16.8395C82.6866 15.4157 82.6866 13.9161 82.6866 12.3532V10.0406C82.6866 9.61936 82.6866 9.22761 82.6866 8.819V7.58053C82.7371 7.5342 82.5773 7.68584 82.8002 7.4668H89.0262V7.57632C89.0262 12.4249 88.9925 16.6289 88.9799 19.6324C88.9799 21.1067 88.9546 22.2862 88.9504 23.1161C88.9504 23.5064 88.9504 23.8139 88.9504 24.0386C88.9042 24.2661 88.9 24.3588 88.8957 24.3545Z" fill="#263238"/>
<path d="M86.9395 127.223C87.5957 128.765 90.3385 164.625 90.0482 164.082L96.9682 163.623L97.4184 126.385L86.9395 127.223Z" fill="#FFBE9D"/>
<path d="M97.1825 163.976L97.1615 163.336L89.7871 163.471L89.8334 165.577H90.2877C92.3153 165.636 100.607 165.758 101.949 165.396C103.45 165.025 97.1825 163.976 97.1825 163.976Z" fill="#CC9EFF"/>
<g opacity="0.3">
<path d="M92.4914 165.497C92.3465 164.966 91.9991 164.512 91.5239 164.234C91.0058 163.915 90.4011 163.768 89.7949 163.812L89.837 165.497H92.4914Z" fill="black"/>
</g>
<g opacity="0.3">
<path d="M100.248 164.578C100.248 164.578 102.448 165.058 102.183 165.362C101.918 165.665 93.5339 165.783 89.832 165.589V165.454L99.6084 165.366C99.6084 165.366 99.8188 164.599 100.248 164.578Z" fill="black"/>
</g>
<path d="M89.7227 165.451H89.8489H90.2148L91.5484 165.481C92.6758 165.481 94.2365 165.481 95.957 165.481C97.6775 165.481 99.234 165.401 100.361 165.35L101.695 165.283L102.057 165.262H102.183H102.053H101.691L100.357 165.304C99.2298 165.342 97.6733 165.384 95.9528 165.409C94.2322 165.434 92.6758 165.443 91.5484 165.439H89.7227V165.451Z" fill="#263238"/>
<path d="M99.6171 165.46C99.6737 165.275 99.7528 165.098 99.8527 164.933C99.9845 164.776 100.134 164.634 100.299 164.512C100.086 164.579 99.9028 164.715 99.777 164.899C99.7119 164.976 99.664 165.065 99.6364 165.162C99.6088 165.259 99.6023 165.36 99.6171 165.46Z" fill="#263238"/>
<path d="M97.4295 164.592C97.4505 164.592 97.5515 164.499 97.6566 164.36C97.7618 164.221 97.8249 164.095 97.8039 164.086C97.7828 164.078 97.6819 164.179 97.5809 164.322C97.4799 164.466 97.4084 164.583 97.4295 164.592Z" fill="#263238"/>
<path d="M96.8283 164.343C96.8283 164.343 96.9587 164.292 97.0849 164.2C97.2111 164.107 97.2952 164.014 97.2784 164.002C97.2616 163.989 97.148 164.052 97.0218 164.145C96.8956 164.238 96.8115 164.33 96.8283 164.343Z" fill="#263238"/>
<path d="M96.4375 163.783C96.5634 163.817 96.6945 163.829 96.8245 163.816C96.9534 163.826 97.0829 163.813 97.2073 163.778C97.0819 163.741 96.9503 163.73 96.8203 163.745C96.6915 163.732 96.5615 163.745 96.4375 163.783Z" fill="#263238"/>
<path d="M96.2988 163.383C96.4283 163.451 96.5732 163.485 96.7195 163.48C96.8621 163.495 97.0063 163.477 97.1402 163.425C97.0002 163.413 96.8595 163.413 96.7195 163.425C96.5803 163.402 96.4398 163.388 96.2988 163.383Z" fill="#263238"/>
<path d="M97.666 164.064C97.8223 164.086 97.9809 164.086 98.1372 164.064C98.3062 164.045 98.4736 164.012 98.6378 163.967C98.7358 163.942 98.8315 163.908 98.9238 163.866C98.9755 163.841 99.016 163.797 99.0374 163.744C99.0428 163.713 99.0384 163.682 99.0248 163.654C99.0112 163.626 98.9891 163.603 98.9617 163.588C98.7816 163.517 98.5846 163.501 98.3953 163.541C98.206 163.582 98.0328 163.677 97.8974 163.816C97.8273 163.887 97.7766 163.976 97.7502 164.073C97.7418 164.107 97.7418 164.143 97.7502 164.178C97.7983 164.055 97.8697 163.942 97.9605 163.845C98.0871 163.728 98.2434 163.647 98.4125 163.612C98.5816 163.577 98.7569 163.589 98.9196 163.647C98.9953 163.689 98.9659 163.765 98.886 163.807C98.8006 163.847 98.7119 163.879 98.6209 163.904C98.4635 163.951 98.3033 163.987 98.1414 164.014C97.8469 164.047 97.666 164.052 97.666 164.064Z" fill="#263238"/>
<path d="M97.7871 164.081C97.815 164.043 97.8339 163.999 97.8427 163.952C97.8514 163.906 97.8497 163.858 97.8376 163.812C97.8169 163.707 97.769 163.61 97.6988 163.53C97.6524 163.469 97.5925 163.42 97.5237 163.387C97.455 163.354 97.3795 163.338 97.3034 163.34C97.2817 163.341 97.2606 163.347 97.2413 163.358C97.2221 163.368 97.2052 163.382 97.1918 163.399C97.1783 163.416 97.1685 163.436 97.1631 163.457C97.1577 163.478 97.1567 163.5 97.1603 163.521C97.1747 163.584 97.2035 163.644 97.2445 163.694C97.3118 163.779 97.3895 163.855 97.4758 163.921C97.5538 163.993 97.6475 164.045 97.7493 164.073C97.7493 164.073 97.6525 164.006 97.5179 163.888C97.4434 163.817 97.3758 163.739 97.316 163.656C97.2487 163.576 97.2024 163.433 97.316 163.412C97.3767 163.415 97.436 163.431 97.4903 163.459C97.5445 163.486 97.5926 163.525 97.6315 163.572C97.6972 163.642 97.7448 163.727 97.7703 163.82C97.7844 163.907 97.79 163.994 97.7871 164.081Z" fill="#263238"/>
<path d="M89.832 163.803C89.832 163.803 90.0424 163.803 90.3747 163.803C90.7972 163.837 91.2062 163.968 91.5694 164.187C91.8979 164.39 92.1621 164.682 92.3308 165.029C92.3891 165.166 92.4383 165.307 92.4781 165.451C92.4781 165.451 92.4781 165.408 92.4781 165.328C92.4591 165.218 92.4295 165.109 92.3897 165.004C92.2324 164.637 91.9648 164.328 91.6241 164.119C91.2423 163.889 90.8078 163.76 90.3621 163.745C90.2221 163.734 90.0814 163.734 89.9414 163.745C89.9028 163.76 89.8661 163.78 89.832 163.803Z" fill="#263238"/>
<path d="M93.4004 164.893C93.7557 164.956 94.1168 164.98 94.4773 164.965C94.8357 164.975 95.194 164.946 95.5458 164.877C95.5458 164.855 95.0663 164.877 94.4731 164.877C93.88 164.877 93.4046 164.872 93.4004 164.893Z" fill="#263238"/>
<path d="M91.9609 164.916C91.9609 164.916 92.003 165 92.0535 165.089C92.104 165.177 92.1334 165.257 92.1587 165.257C92.1839 165.257 92.1965 165.16 92.1334 165.059C92.0703 164.958 91.9862 164.903 91.9609 164.916Z" fill="#263238"/>
<path d="M91.4062 164.372C91.4062 164.372 91.4399 164.448 91.5156 164.511C91.5913 164.574 91.6713 164.612 91.6881 164.595C91.7049 164.578 91.6544 164.519 91.5787 164.456C91.503 164.393 91.4231 164.359 91.4062 164.372Z" fill="#263238"/>
<path d="M90.6235 164.132C90.6235 164.153 90.7287 164.132 90.838 164.178C90.9474 164.225 91.0231 164.254 91.0442 164.241C91.0652 164.229 90.9979 164.145 90.8633 164.111C90.7287 164.077 90.6151 164.107 90.6235 164.132Z" fill="#263238"/>
<path d="M90.0684 164.022C90.0684 164.022 90.102 164.068 90.1651 164.089C90.2282 164.111 90.2829 164.089 90.2913 164.089C90.2997 164.089 90.2577 164.039 90.1946 164.022C90.1315 164.005 90.0768 164.001 90.0684 164.022Z" fill="#263238"/>
<path d="M73.5781 127.395C73.7716 128.073 77.3978 164.338 77.3978 164.338L84.3178 163.883L84.768 127.395H73.5781Z" fill="#FFBE9D"/>
<path d="M84.5282 164.236L84.503 163.592L77.1328 163.731L77.1749 165.837H77.6334C79.661 165.896 87.9482 166.018 89.2944 165.66C90.792 165.285 84.5282 164.236 84.5282 164.236Z" fill="#CC9EFF"/>
<g opacity="0.3">
<path d="M79.8374 165.753C79.6915 165.221 79.3425 164.767 78.8657 164.49C78.3477 164.171 77.7429 164.024 77.1367 164.068L77.1788 165.753H79.8374Z" fill="black"/>
</g>
<g opacity="0.3">
<path d="M87.5916 164.84C87.5916 164.84 89.7917 165.32 89.5267 165.619C89.2616 165.918 80.8819 166.04 77.1758 165.847V165.712L86.9522 165.623C86.9522 165.623 87.1667 164.861 87.5916 164.84Z" fill="black"/>
</g>
<path d="M77.0703 165.712H77.1965H77.5583L78.8918 165.737C80.0234 165.737 81.5799 165.737 83.3004 165.737C85.021 165.737 86.5775 165.657 87.7049 165.61L89.0384 165.543L89.4002 165.518H89.5264C89.4845 165.512 89.4421 165.512 89.4002 165.518H89.0342L87.7007 165.56C86.5775 165.598 85.021 165.64 83.3004 165.669C81.5799 165.699 80.0234 165.699 78.896 165.699H77.2133L77.0703 165.712Z" fill="#263238"/>
<path d="M86.9633 165.715C87.0163 165.529 87.0956 165.352 87.1989 165.189C87.3246 165.035 87.4655 164.893 87.6196 164.768C87.4065 164.835 87.2226 164.973 87.098 165.159C87.0356 165.236 86.9912 165.326 86.9679 165.422C86.9446 165.518 86.9431 165.619 86.9633 165.715Z" fill="#263238"/>
<path d="M84.7713 164.852C84.7923 164.852 84.8933 164.756 84.9984 164.617C85.1036 164.478 85.1667 164.355 85.1457 164.343C85.1246 164.33 85.0237 164.44 84.9227 164.579C84.8217 164.718 84.7502 164.84 84.7713 164.852Z" fill="#263238"/>
<path d="M84.1699 164.603C84.2664 164.576 84.3546 164.525 84.4266 164.455C84.5528 164.363 84.6369 164.27 84.6201 164.257C84.6032 164.245 84.4897 164.308 84.3677 164.401C84.2457 164.493 84.1531 164.586 84.1699 164.603Z" fill="#263238"/>
<path d="M83.7832 164.039C83.9072 164.076 84.0374 164.087 84.166 164.073C84.2949 164.085 84.4249 164.072 84.5488 164.035C84.4244 164 84.2946 163.989 84.166 164.001C84.0372 163.991 83.9076 164.004 83.7832 164.039Z" fill="#263238"/>
<path d="M83.6445 163.643C83.7743 163.709 83.9193 163.741 84.0652 163.735C84.2078 163.753 84.3526 163.734 84.4859 163.68C84.3458 163.671 84.2053 163.671 84.0652 163.68C83.9261 163.658 83.7855 163.645 83.6445 163.643Z" fill="#263238"/>
<path d="M85.0078 164.322C85.164 164.345 85.3228 164.345 85.479 164.322C85.6482 164.301 85.8156 164.267 85.9796 164.221C86.0778 164.196 86.1735 164.162 86.2656 164.12C86.2917 164.108 86.3152 164.091 86.3347 164.07C86.3542 164.049 86.3694 164.025 86.3792 163.998C86.385 163.967 86.3808 163.936 86.3671 163.909C86.3534 163.881 86.331 163.859 86.3035 163.846C86.1239 163.774 85.927 163.757 85.7376 163.796C85.5482 163.836 85.3748 163.931 85.2392 164.069C85.1695 164.143 85.1189 164.233 85.0919 164.33C85.0919 164.398 85.0919 164.436 85.0919 164.436C85.1362 164.311 85.2065 164.198 85.2981 164.103C85.407 163.994 85.5438 163.916 85.6935 163.88C85.8787 163.825 86.0765 163.833 86.2572 163.901C86.3329 163.947 86.3077 164.019 86.2235 164.061C86.1393 164.1 86.0521 164.132 85.9627 164.158C85.8039 164.205 85.6424 164.243 85.479 164.271C85.1887 164.305 85.0078 164.309 85.0078 164.322Z" fill="#263238"/>
<path d="M85.1302 164.339C85.1581 164.301 85.177 164.257 85.1858 164.21C85.1945 164.163 85.1928 164.115 85.1807 164.069C85.1627 163.965 85.1144 163.868 85.0419 163.791C84.9958 163.73 84.9359 163.681 84.8672 163.647C84.7986 163.614 84.7229 163.597 84.6465 163.598C84.625 163.6 84.6042 163.606 84.5853 163.616C84.5664 163.627 84.5498 163.641 84.5364 163.658C84.5231 163.675 84.5132 163.694 84.5076 163.715C84.5019 163.736 84.5005 163.757 84.5034 163.779C84.5181 163.843 84.5485 163.902 84.5918 163.952C84.6566 164.039 84.733 164.117 84.8189 164.183C84.8983 164.253 84.9915 164.304 85.0924 164.335C85.0924 164.335 84.9956 164.267 84.8652 164.145C84.7883 164.077 84.7192 164.001 84.6591 163.918C84.5918 163.838 84.5455 163.69 84.6591 163.669C84.7813 163.679 84.8947 163.736 84.9746 163.829C85.0394 163.9 85.0869 163.985 85.1134 164.078C85.1326 164.164 85.1382 164.252 85.1302 164.339Z" fill="#263238"/>
<path d="M77.1738 164.061C77.1738 164.061 77.3842 164.04 77.7165 164.061C78.1389 164.092 78.5481 164.222 78.9112 164.44C79.2414 164.641 79.5061 164.934 79.6726 165.283C79.7904 165.54 79.8072 165.704 79.8241 165.704C79.8306 165.664 79.8306 165.622 79.8241 165.582C79.8096 165.471 79.7798 165.364 79.7357 165.262C79.5801 164.892 79.3122 164.581 78.9701 164.373C78.5883 164.143 78.1536 164.015 77.7081 164.002C77.5682 163.989 77.4273 163.989 77.2874 164.002C77.2474 164.017 77.2092 164.037 77.1738 164.061Z" fill="#263238"/>
<path d="M80.7461 165.155C81.1003 165.216 81.4599 165.238 81.8188 165.223C82.1785 165.233 82.5383 165.203 82.8915 165.134C82.8915 165.113 82.4077 165.134 81.8188 165.134C81.2299 165.134 80.7461 165.134 80.7461 165.155Z" fill="#263238"/>
<path d="M79.3071 165.177C79.2861 165.177 79.345 165.257 79.3996 165.35C79.4543 165.442 79.4796 165.518 79.5048 165.514C79.5301 165.51 79.5385 165.417 79.4796 165.316C79.4207 165.215 79.3197 165.16 79.3071 165.177Z" fill="#263238"/>
<path d="M78.748 164.629C78.748 164.629 78.7817 164.709 78.8574 164.768C78.9331 164.827 79.0131 164.869 79.0299 164.857C79.0467 164.844 79.0005 164.777 78.9205 164.718C78.8406 164.659 78.7649 164.617 78.748 164.629Z" fill="#263238"/>
<path d="M77.965 164.388C77.965 164.409 78.0701 164.409 78.1795 164.439C78.2889 164.468 78.3646 164.51 78.3856 164.498C78.4067 164.485 78.3394 164.401 78.2047 164.367C78.0701 164.333 77.9608 164.371 77.965 164.388Z" fill="#263238"/>
<path d="M77.4102 164.28C77.4102 164.28 77.448 164.331 77.5069 164.348C77.5658 164.364 77.6247 164.348 77.6331 164.348C77.6415 164.348 77.5995 164.297 77.5364 164.28C77.4733 164.263 77.4186 164.263 77.4102 164.28Z" fill="#263238"/>
<path d="M114.988 63.2934C116.384 62.3877 117.255 61.6379 118.202 61.0945C119.367 60.4247 119.8 60.0667 119.661 59.8603C119.472 59.578 119.556 59.6791 117.268 60.589C117.268 60.589 120.524 59.2579 119.594 58.9925C119.173 58.8746 116.464 59.9529 116.464 59.9529C118.723 59.2874 119.472 58.6892 119.354 58.3396C119.182 57.8509 115.892 59.1821 115.892 59.1821C115.892 59.1821 118.416 58.2132 118.812 57.9183C119.207 57.6235 118.614 57.4971 118.101 57.4971C117.52 57.535 114.197 58.2343 113.225 58.3859C113.144 58.4084 113.06 58.4131 112.977 58.3996C112.894 58.3862 112.815 58.355 112.746 58.3082C112.676 58.2614 112.618 58.2 112.574 58.1283C112.531 58.0567 112.503 57.9764 112.493 57.8931C112.539 56.465 111.812 55.3319 111.471 55.117C111.13 54.9022 110.722 55.2982 110.89 55.711C111.032 56.1741 111.109 56.6547 111.118 57.139C111.142 57.5254 111.099 57.913 110.991 58.2848C110.869 58.7061 110.747 59.0768 110.634 59.3758L104.193 69.4857L106.987 76.3984L114.988 63.2934Z" fill="#FFBE9D"/>
<path d="M115.902 61.1749C116.456 61.0566 116.992 60.8669 117.497 60.6104C118.032 60.4225 118.539 60.1647 119.007 59.8438C118.454 59.9619 117.918 60.1502 117.413 60.404C116.878 60.5938 116.37 60.8529 115.902 61.1749Z" fill="#EB996E"/>
<path d="M115.461 60.3284C116.057 60.2346 116.64 60.0662 117.194 59.8271C117.774 59.6588 118.33 59.4197 118.852 59.1152C118.255 59.2091 117.673 59.3775 117.118 59.6165C116.538 59.7828 115.981 60.022 115.461 60.3284Z" fill="#EB996E"/>
<path d="M115.006 59.4516C115.573 59.3739 116.127 59.2224 116.655 59.0009C117.206 58.852 117.735 58.631 118.228 58.3438C117.661 58.4187 117.107 58.5689 116.579 58.7903C116.028 58.9416 115.5 59.1639 115.006 59.4516Z" fill="#EB996E"/>
<path d="M96.836 52.7625V68.1759L96.9159 79.263L79.7399 84.9119L79.9124 76.487C79.9124 76.487 76.3619 65.3704 76.3619 65.185C76.3619 64.9997 76.0254 53.0742 76.0254 53.0742L82.3733 51.5282L90.366 51.4355L96.836 52.7625Z" fill="#CC9EFF"/>
<path d="M76.0264 53.0703C76.0264 53.0703 73.7842 54.0602 72.8798 54.7974C72.274 55.2903 66.9904 64.7599 63.5619 71.0112C63.1773 71.7108 62.9387 72.4815 62.8604 73.2763C62.7822 74.0711 62.866 74.8735 63.1067 75.6349C63.3475 76.3963 63.7401 77.1009 64.2609 77.7057C64.7817 78.3106 65.4198 78.8033 66.1364 79.1538L76.0011 83.9771L78.9795 75.6954L73.3341 72.6414L77.5997 65.2064L76.0264 53.0703Z" fill="#CC9EFF"/>
<path d="M76.0006 83.9774L72.3281 83.7036V80.6201L77.6959 79.2637L76.0006 83.9774Z" fill="#CC9EFF"/>
<path d="M72.3574 72.5071C72.9573 72.5856 73.564 72.5969 74.1663 72.5408C74.7725 72.4819 75.3414 72.2208 75.7817 71.7994C76.3622 71.1928 76.5052 70.304 76.623 69.4741L77.2288 65.1816C75.7775 65.2701 74.5617 66.399 73.9349 67.7091C73.3081 69.0192 73.1693 70.502 73.0389 71.9468" fill="#CC9EFF"/>
<path d="M96.8365 52.7637L103.765 68.5225L108.22 62.406C108.22 62.406 112.755 64.6344 112.208 71.1174L106.819 78.4512C106.255 78.8988 105.601 79.2191 104.902 79.3903C104.203 79.5615 103.476 79.5795 102.769 79.4432C102.062 79.3068 101.394 79.0192 100.808 78.6001C100.223 78.181 99.7348 77.6402 99.3774 77.0148L94.5312 68.5225L96.8365 52.7637Z" fill="#CC9EFF"/>
<path d="M79.3656 52.2614C79.2941 52.2614 89.3481 63.4665 89.3481 63.4665L91.4136 51.6337C91.4136 51.6337 85.1877 50.1678 79.3656 52.2614Z" fill="#FFBE9D"/>
<path d="M96.9171 71.6134C96.8429 71.5645 96.775 71.5065 96.7152 71.4407C96.5764 71.3017 96.3955 71.1248 96.1683 70.91C95.6972 70.4424 95.0283 69.76 94.208 68.9048C92.5674 67.1988 90.3504 64.7893 87.9484 62.0933L81.815 55.168L79.9557 53.0618L79.4551 52.4762C79.3927 52.4124 79.3377 52.3417 79.291 52.2656C79.3616 52.3206 79.4277 52.3812 79.4887 52.4468L80.0188 52.9944C80.4773 53.4746 81.1293 54.1739 81.9286 55.0458C83.5314 56.7898 85.7146 59.233 88.1125 61.929C90.5103 64.625 92.7104 67.0471 94.3174 68.7827L96.2314 70.8299L96.7488 71.3902C96.8114 71.4595 96.8677 71.5342 96.9171 71.6134Z" fill="#263238"/>
<path d="M79.4216 74.9492C79.3458 74.7779 79.2853 74.6003 79.2407 74.4184L78.82 72.9525C78.4582 71.714 77.9324 70.0038 77.3519 68.1377C76.7713 66.2715 76.2749 64.5444 75.9678 63.2891C75.8164 62.6615 75.6986 62.1518 75.6313 61.7979C75.5845 61.6172 75.5549 61.4324 75.543 61.2461C75.6204 61.4173 75.6783 61.5968 75.7154 61.7811C75.8206 62.1686 75.9552 62.6615 76.1361 63.2512C76.4811 64.4897 76.9775 66.1999 77.5748 68.0745C78.1722 69.949 78.6643 71.6635 78.9883 72.9104C79.1481 73.5338 79.2743 74.0435 79.35 74.3932C79.3936 74.5754 79.4176 74.7618 79.4216 74.9492Z" fill="#263238"/>
<path d="M68.7183 71.7187C68.7183 71.7187 68.6763 71.6386 68.6973 71.487C68.7438 71.2683 68.8716 71.0755 69.0549 70.9478C69.319 70.7499 69.6482 70.6596 69.9761 70.695C70.3587 70.7532 70.7252 70.8894 71.0531 71.0952C72.4034 71.9377 73.5771 72.3842 73.5771 72.4432C72.6411 72.2121 71.7518 71.8217 70.9479 71.289C70.6429 71.0973 70.3047 70.9644 69.9509 70.8972C69.6691 70.8554 69.3818 70.9183 69.1432 71.0742C68.9802 71.1716 68.8532 71.3194 68.7814 71.4954C68.7352 71.6344 68.7352 71.7187 68.7183 71.7187Z" fill="#263238"/>
<path d="M76.8429 74.6602C76.8723 74.6896 76.4601 75.0814 75.8711 75.7933C74.3241 77.6351 73.2176 79.8063 72.6362 82.1415C72.4132 83.0345 72.3375 83.6032 72.2996 83.599C72.2777 83.4594 72.2777 83.3173 72.2996 83.1777C72.3332 82.8123 72.3894 82.4494 72.4679 82.0909C72.9641 79.7022 74.0848 77.4882 75.7155 75.6754C75.9584 75.401 76.2169 75.1408 76.4895 74.8961C76.5951 74.8005 76.7142 74.721 76.8429 74.6602Z" fill="#263238"/>
<path d="M96.2656 56.6895C96.3449 56.8859 96.4068 57.0888 96.4507 57.296C96.5559 57.6878 96.7031 58.2607 96.8714 58.981C97.3323 60.8358 97.5863 62.736 97.6286 64.6468C97.6022 66.5556 97.3908 68.4573 96.9976 70.3252C96.8588 71.0413 96.7326 71.6184 96.64 72.0102C96.6049 72.219 96.5485 72.4237 96.4717 72.621C96.4827 72.4098 96.5108 72.1999 96.5559 71.9933L96.8461 70.2873C97.1927 68.4236 97.3813 66.5339 97.4098 64.6384C97.3626 62.7431 97.1316 60.8568 96.7199 59.0063C96.5811 58.3239 96.4633 57.7426 96.3708 57.3213C96.3148 57.1147 96.2796 56.9031 96.2656 56.6895Z" fill="#263238"/>
<path d="M103.617 73.5594C103.559 72.7945 103.573 72.0259 103.659 71.2636C103.672 70.4957 103.761 69.731 103.924 68.9805C103.98 69.7455 103.964 70.5141 103.878 71.2763C103.863 72.0438 103.775 72.8082 103.617 73.5594Z" fill="#263238"/>
<path d="M105.617 73.3697C105.177 72.5479 104.801 71.693 104.494 70.8128C104.118 69.9591 103.808 69.0775 103.568 68.1758C104.013 68.996 104.39 69.8511 104.696 70.7327C105.074 71.5851 105.382 72.467 105.617 73.3697Z" fill="#263238"/>
<path d="M109.235 75.164C109.197 75.164 109.264 74.5869 109.235 73.6644C109.198 72.4679 108.937 71.2889 108.465 70.1891C107.967 69.0987 107.296 68.0959 106.479 67.2193C105.852 66.5453 105.419 66.1662 105.444 66.1367C105.565 66.1986 105.675 66.2782 105.773 66.3726C107.006 67.3806 107.995 68.6551 108.667 70.1006C109.151 71.2259 109.397 72.4392 109.39 73.6644C109.39 74.0321 109.364 74.3994 109.315 74.7638C109.31 74.9007 109.283 75.0358 109.235 75.164Z" fill="#263238"/>
<path d="M82.5132 56.2206C82.5132 56.2206 82.3491 56.1364 82.0462 56.0058C81.6162 55.8329 81.1547 55.7525 80.6916 55.7699C80.0091 55.7858 79.351 56.0272 78.8197 56.4565C78.2181 56.9367 77.8185 57.7203 77.2211 58.4322C76.9339 58.7979 76.5611 59.0873 76.1358 59.2747C75.734 59.4287 75.3005 59.4808 74.8738 59.4263C74.162 59.3303 73.4908 59.0387 72.9345 58.5838C72.5592 58.2935 72.2101 57.9707 71.8912 57.6192C71.7661 57.4988 71.6534 57.3661 71.5547 57.2232C71.6997 57.319 71.8325 57.4322 71.9501 57.5602C72.2893 57.8806 72.6476 58.1802 73.0228 58.4574C73.5684 58.8738 74.2142 59.1383 74.8948 59.2241C75.2898 59.2675 75.6893 59.2155 76.0601 59.0725C76.4498 58.9001 76.793 58.6373 77.0613 58.3058C77.6334 57.6276 78.0456 56.823 78.6977 56.3133C79.2679 55.8673 79.9723 55.6282 80.6959 55.6351C81.1767 55.628 81.6523 55.7348 82.0841 55.9468C82.2005 56.0044 82.3117 56.072 82.4164 56.149C82.4865 56.194 82.5188 56.2178 82.5132 56.2206Z" fill="#FAFAFA"/>
<path d="M76.3257 70.4136C76.3257 70.4136 76.2878 70.4388 76.2121 70.4641C76.0964 70.5023 75.9761 70.525 75.8545 70.5315C75.4025 70.5419 74.9594 70.4043 74.5925 70.1398C74.0361 69.7651 73.5982 69.2389 73.3305 68.6233C73.0108 67.9493 72.8089 67.1615 72.4891 66.3907C72.2091 65.6616 71.7608 65.0091 71.1809 64.4866C70.7037 64.0633 70.1534 63.7307 69.5571 63.5051C68.9973 63.3147 68.4169 63.1917 67.8281 63.1387C67.9872 63.1058 68.1503 63.0973 68.3119 63.1134C68.7535 63.1296 69.1903 63.212 69.6076 63.3577C70.2347 63.5697 70.8147 63.9016 71.3155 64.335C71.9272 64.8713 72.4006 65.5476 72.6953 66.3064C73.0108 67.1026 73.2043 67.8861 73.503 68.539C73.7479 69.1265 74.1478 69.6361 74.6598 70.0134C75.0007 70.2702 75.4115 70.4171 75.8377 70.4346C76.1574 70.4515 76.3215 70.3925 76.3257 70.4136Z" fill="#FAFAFA"/>
<path d="M66.0742 79.208C66.2169 79.1915 66.3577 79.1619 66.4949 79.1195C66.8543 78.9495 67.143 78.6589 67.311 78.2981C67.5593 77.7542 67.732 77.1788 67.8242 76.5879C67.9419 75.8463 68.154 75.1229 68.4552 74.4353C68.6319 74.0784 68.8762 73.7594 69.1746 73.4959C69.4551 73.2544 69.7734 73.0608 70.1169 72.923C70.6951 72.7024 71.3115 72.5993 71.93 72.6197C72.3412 72.6313 72.7507 72.6778 73.1541 72.7587C73.2986 72.7807 73.4399 72.8203 73.5748 72.8767C73.5748 72.9188 72.9354 72.7756 71.9131 72.7756C71.3191 72.7744 70.7304 72.8889 70.18 73.1126C69.5082 73.3812 68.9586 73.888 68.6361 74.5364C68.3403 75.2099 68.1284 75.9173 68.0051 76.6426C67.8994 77.2491 67.7053 77.8367 67.4288 78.3866C67.2371 78.7724 66.9086 79.0728 66.5075 79.2291C66.3972 79.2623 66.2815 79.2738 66.1668 79.2628C66.1328 79.2504 66.1015 79.2318 66.0742 79.208Z" fill="#FAFAFA"/>
<path d="M77.747 79.2883C76.9126 79.3286 76.0835 79.4428 75.2692 79.6295C74.4768 79.8914 73.7095 80.2241 72.9766 80.6236C73.6011 80.0305 74.3721 79.6147 75.2103 79.4189C76.0297 79.1529 76.9046 79.1078 77.747 79.2883Z" fill="#FAFAFA"/>
<path d="M88.6629 63.0508C88.5026 63.129 88.3367 63.1952 88.1665 63.2488C87.7289 63.4475 87.3165 63.6978 86.9382 63.9944C86.4544 64.3651 85.9286 64.8706 85.3396 65.4308C84.7228 66.0718 84.0139 66.617 83.2363 67.0484C82.4191 67.4502 81.4963 67.5843 80.5987 67.4317C79.8807 67.306 79.1831 67.0835 78.5248 66.7704C77.9611 66.5092 77.5278 66.2607 77.2333 66.088C77.0727 66.0068 76.9218 65.9079 76.7832 65.7931C76.8042 65.7552 77.4647 66.1385 78.5879 66.6356C79.24 66.9178 79.9257 67.1146 80.6281 67.2211C81.4888 67.3582 82.3708 67.2243 83.1522 66.8378C83.9166 66.4163 84.6176 65.8888 85.2345 65.2707C85.7527 64.7667 86.3006 64.2941 86.8751 63.8554C87.2709 63.5631 87.7056 63.3277 88.1665 63.1561C88.3266 63.0991 88.4935 63.0637 88.6629 63.0508Z" fill="#FAFAFA"/>
<path d="M97.6691 64.7385C97.6691 64.8059 96.1379 64.7385 94.3038 65.0333C92.4696 65.3282 91.0015 65.7958 90.9805 65.7284C91.273 65.5649 91.5855 65.4403 91.9102 65.3577C92.6814 65.115 93.4705 64.9333 94.2701 64.8143C95.0697 64.6985 95.8769 64.6436 96.6848 64.65C97.0154 64.6356 97.3464 64.6654 97.6691 64.7385Z" fill="#FAFAFA"/>
<path d="M96.559 59.0818C96.2432 59.0444 95.9327 58.9709 95.6335 58.8628L93.4376 58.2225L91.2459 57.5737C90.9349 57.5027 90.6329 57.3967 90.3457 57.2578C90.6639 57.2747 90.9788 57.3299 91.2838 57.4221C91.8559 57.5569 92.6384 57.7591 93.5007 58.0118C94.3631 58.2646 95.1287 58.5173 95.6798 58.7153C95.9863 58.8022 96.2815 58.9252 96.559 59.0818Z" fill="#FAFAFA"/>
<path d="M99.7055 59.9629C99.7308 60.0261 99.1082 60.283 98.4435 60.759C97.7789 61.2351 97.3161 61.7195 97.2656 61.6774C97.8221 60.805 98.7008 60.1886 99.7097 59.9629H99.7055Z" fill="#FAFAFA"/>
<path d="M103.463 67.642C103.462 67.7558 103.441 67.8686 103.4 67.9748C103.314 68.2682 103.196 68.5508 103.046 68.8173C102.53 69.7004 101.808 70.446 100.943 70.9909C100.093 71.5282 99.182 71.9623 98.2296 72.2841C97.8448 72.4394 97.4461 72.5579 97.0391 72.638C97.4021 72.4406 97.7806 72.2729 98.1707 72.1367C99.0953 71.7805 99.9829 71.3347 100.821 70.8055C101.651 70.2745 102.357 69.5704 102.891 68.7414C103.307 68.0632 103.425 67.6125 103.463 67.642Z" fill="#FAFAFA"/>
<path d="M104.64 79.6678C104.531 79.2156 104.462 78.7546 104.434 78.2903C104.337 77.4478 104.241 76.2557 104.182 74.9456C104.123 73.6356 104.114 72.4476 104.135 71.5757C104.123 71.1107 104.151 70.6455 104.22 70.1855C104.274 70.6468 104.296 71.1113 104.287 71.5757C104.312 72.4182 104.342 73.6145 104.4 74.9204C104.459 76.2262 104.531 77.4099 104.586 78.265C104.636 78.7308 104.655 79.1995 104.64 79.6678Z" fill="#FAFAFA"/>
<path d="M111.976 67.3717C111.002 66.8335 109.968 66.4094 108.897 66.108C107.807 65.8789 106.695 65.7743 105.582 65.7963C105.901 65.6981 106.233 65.6498 106.566 65.6531C107.369 65.6217 108.172 65.7025 108.952 65.8932C109.73 66.0862 110.478 66.3883 111.173 66.7904C111.47 66.9399 111.741 67.1362 111.976 67.3717Z" fill="#FAFAFA"/>
<path d="M114.504 61.8412C114.504 61.8623 114.366 61.7443 114.134 61.6138C113.829 61.4409 113.479 61.3604 113.129 61.3821H112.965L113.024 61.2262C113.072 61.101 113.113 60.9729 113.146 60.8429C113.263 60.2137 113.24 59.5665 113.078 58.9473C113.104 58.9473 113.234 59.12 113.339 59.4738C113.462 59.9391 113.462 60.4281 113.339 60.8934C113.305 61.037 113.26 61.1778 113.205 61.3147L113.099 61.1672C113.491 61.1501 113.877 61.2675 114.193 61.5C114.437 61.6727 114.521 61.8286 114.504 61.8412Z" fill="#EB996E"/>
<path d="M80.4988 75.9785L80.4357 76.6062C80.4357 76.6062 72.708 85.962 72.0854 92.3903C71.5722 97.6979 72.9772 137.986 72.9772 137.986L98.3521 135.142L97.2163 76.5893L80.4988 75.9785Z" fill="#263238"/>
<path d="M91.4934 84.8203C91.4978 84.8651 91.4978 84.9103 91.4934 84.9551C91.4934 85.0562 91.4934 85.1826 91.4934 85.3469C91.4934 85.7049 91.4682 86.1894 91.4472 86.8423C91.4093 88.1439 91.3167 90.0269 91.2074 92.3522C90.9676 96.9859 90.5764 103.423 90.0716 110.508C89.5668 117.593 89.0577 123.988 88.6707 128.643C88.4688 130.951 88.3047 132.825 88.1912 134.119C88.1323 134.755 88.0818 135.256 88.0481 135.61L88.0061 135.997C88.0032 136.042 87.9948 136.086 87.9808 136.128C87.9751 136.085 87.9751 136.041 87.9808 135.997L88.0019 135.606C88.0271 135.252 88.0608 134.763 88.107 134.11C88.2038 132.8 88.3426 130.926 88.5277 128.613C88.8726 123.979 89.3438 117.551 89.8654 110.474C90.3871 103.397 90.7867 96.9733 91.0643 92.3269C91.1947 90.0143 91.2999 88.1397 91.3756 86.8212C91.4135 86.1851 91.4429 85.6839 91.464 85.3258C91.464 85.1657 91.485 85.0394 91.4934 84.9383C91.4879 84.8991 91.4879 84.8594 91.4934 84.8203Z" fill="#455A64"/>
<path d="M87.8608 96.2027C87.7032 96.337 87.5902 96.5163 87.5369 96.7166C87.5131 96.8192 87.5117 96.9258 87.5327 97.029C87.5538 97.1322 87.5968 97.2297 87.6589 97.3148C87.7452 97.4027 87.8538 97.4656 87.973 97.4967C88.0922 97.5278 88.2176 97.526 88.3358 97.4914C88.4541 97.4568 88.5607 97.3908 88.6445 97.3004C88.7283 97.2099 88.786 97.0984 88.8115 96.9778C88.8179 96.8728 88.8017 96.7677 88.764 96.6696C88.7262 96.5714 88.6678 96.4826 88.5928 96.4091C88.4406 96.2693 88.2501 96.1784 88.0459 96.1479C88.0459 96.1479 88.1048 96.1016 88.2268 96.1016C88.4014 96.1101 88.5678 96.1785 88.6979 96.2953C88.8008 96.3797 88.8828 96.4866 88.9375 96.6079C88.9922 96.7293 89.0182 96.8616 89.0134 96.9946C88.9897 97.1595 88.9191 97.314 88.81 97.4397C88.7009 97.5655 88.558 97.6571 88.3984 97.7038C88.2387 97.7504 88.069 97.75 87.9095 97.7027C87.7501 97.6554 87.6075 97.5631 87.499 97.4369C87.4215 97.3285 87.3709 97.2033 87.3511 97.0715C87.3314 96.9397 87.3431 96.805 87.3854 96.6787C87.4317 96.5071 87.5376 96.3577 87.6841 96.2574C87.7809 96.1942 87.8566 96.19 87.8608 96.2027Z" fill="#455A64"/>
<path d="M87.0991 105.554C86.9414 105.689 86.8285 105.868 86.7752 106.068C86.7514 106.171 86.75 106.277 86.771 106.381C86.7921 106.484 86.8351 106.581 86.8972 106.666C86.9792 106.761 87.0875 106.828 87.2082 106.861C87.3288 106.893 87.4564 106.888 87.5744 106.847C87.6955 106.817 87.8051 106.752 87.8896 106.66C87.974 106.568 88.0297 106.453 88.0498 106.329C88.0562 106.224 88.04 106.119 88.0022 106.021C87.9645 105.923 87.9061 105.834 87.831 105.761C87.6789 105.621 87.4884 105.53 87.2842 105.499C87.2842 105.499 87.3431 105.453 87.4651 105.453C87.6394 105.463 87.8053 105.531 87.9362 105.647C88.0391 105.731 88.1211 105.838 88.1758 105.96C88.2305 106.081 88.2565 106.213 88.2517 106.346C88.234 106.514 88.165 106.671 88.0544 106.798C87.9437 106.925 87.7966 107.014 87.6333 107.054C87.4749 107.108 87.3036 107.112 87.1431 107.064C86.9826 107.017 86.8408 106.92 86.7373 106.788C86.6598 106.68 86.6091 106.555 86.5894 106.423C86.5696 106.291 86.5814 106.157 86.6237 106.03C86.67 105.859 86.7759 105.709 86.9224 105.609C87.0234 105.554 87.0949 105.554 87.0991 105.554Z" fill="#455A64"/>
<path d="M86.1732 114.589C86.1985 114.623 85.9335 114.728 85.8535 115.107C85.8302 115.21 85.8287 115.316 85.849 115.419C85.8693 115.522 85.9109 115.619 85.9713 115.705C86.0552 115.798 86.1644 115.865 86.2856 115.896C86.4067 115.928 86.5344 115.923 86.6528 115.882C86.7738 115.853 86.8835 115.789 86.9681 115.697C87.0527 115.606 87.1084 115.491 87.1282 115.368C87.1349 115.263 87.1189 115.157 87.0811 115.058C87.0434 114.959 86.9848 114.87 86.9094 114.795C86.7568 114.655 86.5642 114.565 86.3583 114.539C86.3583 114.539 86.4172 114.492 86.5392 114.492C86.7142 114.501 86.8813 114.568 87.0146 114.682C87.117 114.767 87.1987 114.875 87.2533 114.997C87.308 115.119 87.3342 115.252 87.3301 115.385C87.3054 115.55 87.2341 115.704 87.1245 115.83C87.015 115.955 86.8719 116.047 86.7121 116.093C86.5524 116.14 86.3826 116.139 86.223 116.092C86.0634 116.045 85.9206 115.953 85.8115 115.828C85.7367 115.717 85.688 115.591 85.6691 115.459C85.6501 115.327 85.6614 115.192 85.7021 115.065C85.7486 114.895 85.8527 114.746 85.9966 114.644C86.0975 114.585 86.169 114.581 86.1732 114.589Z" fill="#455A64"/>
<path d="M85.4316 124.931C85.4526 124.965 85.1876 125.07 85.1076 125.449C85.0838 125.552 85.0824 125.658 85.1035 125.761C85.1245 125.865 85.1676 125.962 85.2296 126.047C85.3128 126.14 85.4213 126.206 85.5417 126.237C85.6621 126.269 85.7891 126.264 85.9069 126.224C86.0287 126.197 86.1393 126.133 86.2241 126.041C86.309 125.949 86.3641 125.834 86.3823 125.71C86.3899 125.604 86.3742 125.498 86.3364 125.399C86.2986 125.3 86.2396 125.211 86.1635 125.137C86.0118 124.998 85.8209 124.908 85.6166 124.88C85.6166 124.88 85.6755 124.834 85.7975 124.834C85.9713 124.843 86.1372 124.909 86.2687 125.024C86.3711 125.109 86.4528 125.217 86.5074 125.339C86.5621 125.461 86.5884 125.593 86.5842 125.727C86.5604 125.892 86.4898 126.046 86.3808 126.172C86.2717 126.298 86.1288 126.39 85.9691 126.436C85.8095 126.483 85.6398 126.482 85.4803 126.435C85.3208 126.388 85.1783 126.296 85.0698 126.169C84.9946 126.059 84.9454 125.933 84.9257 125.801C84.906 125.669 84.9164 125.534 84.9562 125.407C85.0056 125.237 85.1109 125.088 85.2549 124.986C85.3558 124.931 85.4273 124.931 85.4316 124.931Z" fill="#455A64"/>
<path d="M96.1343 43.5713C96.1806 43.626 96.1343 43.7777 95.924 43.963C95.6199 44.2207 95.2438 44.3781 94.8471 44.4137C94.5377 44.4467 94.2249 44.4163 93.9277 44.3243C93.6304 44.2323 93.355 44.0807 93.1181 43.8788C92.8186 43.6295 92.5806 43.3143 92.423 42.9577C92.2654 42.601 92.1923 42.2127 92.2095 41.8231C92.2798 41.1332 92.501 40.4673 92.8573 39.8727C93.0976 39.4165 93.3644 38.9748 93.6566 38.55C94.1614 37.8255 94.5652 37.4421 94.6914 37.5222C94.8176 37.6022 94.6536 38.1245 94.3381 38.9165C94.1698 39.3377 93.9763 39.7969 93.7702 40.3024C93.5314 40.7977 93.3737 41.3282 93.3032 41.8736C93.2934 42.1069 93.332 42.3397 93.4167 42.5573C93.5015 42.7748 93.6304 42.9724 93.7954 43.1374C94.0728 43.422 94.4398 43.602 94.8345 43.6471C95.5622 43.7229 96.0376 43.4407 96.1343 43.5713Z" fill="#263238"/>
<path d="M81.6256 32.7496C82.1847 32.527 82.6538 32.124 82.9586 31.6044C83.2633 31.0849 83.3864 30.4784 83.3082 29.8809C83.2076 29.2858 82.9491 28.7286 82.5598 28.2677C82.1706 27.8068 81.6649 27.459 81.0955 27.2608C80.5227 27.0738 79.918 27.0051 79.3179 27.0587C78.7177 27.1122 78.1347 27.287 77.6039 27.5725C76.5941 28.071 75.8043 28.9264 75.387 29.9736C75.1858 30.4959 75.1102 31.0582 75.1665 31.6152C75.2228 32.1721 75.4093 32.708 75.7109 33.1793C76.1451 33.7542 76.7373 34.19 77.4149 34.4331C78.0926 34.6763 78.8264 34.7163 79.5264 34.5483C80.2212 34.3641 80.8706 34.0381 81.4337 33.5908C81.9969 33.1436 82.4618 32.5847 82.7992 31.9492" fill="#263238"/>
<path d="M77.6328 27.6221C77.9229 27.5397 78.2321 27.556 78.512 27.6684C79.2098 27.897 79.8053 28.3636 80.1947 28.9869C80.5592 29.5997 80.8153 30.2709 80.9519 30.971C81.0266 31.2525 81.0592 31.5435 81.0487 31.8345C80.9274 31.5644 80.8357 31.2819 80.7752 30.992C80.6028 30.3244 80.3366 29.6848 79.9844 29.0922C79.6217 28.5113 79.0861 28.059 78.4531 27.799C78.1848 27.7184 77.9105 27.6592 77.6328 27.6221Z" fill="#455A64"/>
<path d="M81.2129 27.1094C81.3766 27.2743 81.5004 27.4746 81.5747 27.6949C81.7947 28.2095 81.9147 28.7613 81.928 29.3209C81.9464 29.8798 81.8593 30.4372 81.6714 30.9638C81.611 31.1889 81.4986 31.3967 81.3433 31.5704C81.5762 30.8444 81.6996 30.0876 81.7093 29.3251C81.653 28.5662 81.4858 27.8196 81.2129 27.1094Z" fill="#455A64"/>
<path d="M75.2109 30.4746C75.2488 30.4746 75.3245 30.8032 75.6022 31.2708C75.9574 31.882 76.4935 32.3675 77.1363 32.6603C77.7792 32.9532 78.497 33.0387 79.1905 32.9052C79.7247 32.8083 80.0318 32.6482 80.0318 32.6819C79.7889 32.8783 79.4988 33.0076 79.1905 33.0568C78.463 33.2402 77.6948 33.1704 77.0122 32.8588C76.3295 32.5473 75.7729 32.0125 75.4339 31.3424C75.287 31.0769 75.2102 30.7782 75.2109 30.4746Z" fill="#455A64"/>
<path d="M81.8027 27.6694C81.8447 27.6294 81.893 27.5966 81.9458 27.5726C82.0868 27.5032 82.2432 27.4713 82.4001 27.4799C82.6368 27.4872 82.8663 27.5633 83.0605 27.6989C83.2973 27.8684 83.4741 28.1088 83.5653 28.3856C83.7399 28.8787 83.7249 29.4193 83.5233 29.902C83.4586 30.0466 83.3588 30.1726 83.233 30.2685C83.1895 30.3067 83.1376 30.3341 83.0816 30.3486C83.2508 30.2303 83.3834 30.0668 83.4644 29.8768C83.6386 29.4052 83.6386 28.8867 83.4644 28.4151C83.3749 28.1569 83.2109 27.9312 82.9932 27.7663C82.8134 27.6351 82.6008 27.5564 82.3791 27.5389C82.1793 27.5361 81.9818 27.5809 81.8027 27.6694Z" fill="#263238"/>
<path d="M82.4241 45.5084C81.1621 43.8782 79.8202 41.7973 79.2354 39.8258C78.5936 37.8511 78.6847 35.7107 79.492 33.7978C80.5016 31.6115 82.6513 30.074 84.9607 29.4716C86.9361 28.9138 89.0487 29.1198 90.8796 30.0487C91.7807 30.5225 92.5439 31.2221 93.0947 32.0792C93.6454 32.9363 93.9649 33.9218 94.022 34.9394" fill="#263238"/>
<path d="M89.3867 30.5052C89.8957 30.4546 92.2136 31.0064 93.4883 31.9037C94.2244 32.421 94.811 33.124 95.1885 33.9415C95.566 34.7589 95.721 35.6617 95.6379 36.5585C95.5201 37.5484 94.5021 38.8964 94.094 39.663C93.4389 40.8886 92.701 42.0681 91.8855 43.1931" fill="#263238"/>
<path d="M82.3125 37.5981C82.3278 36.8355 82.496 36.0837 82.8071 35.3873C83.1181 34.691 83.5657 34.0643 84.1233 33.5445C84.6808 33.0247 85.337 32.6224 86.0528 32.3613C86.7686 32.1003 87.5294 31.986 88.2902 32.0251C89.758 32.1329 91.1301 32.7949 92.1289 33.8773C93.1278 34.9596 93.6788 36.3814 93.6706 37.8551C93.7206 39.9631 93.6588 42.0723 93.4855 44.1738C93.027 47.0593 91.1718 47.9397 90.4399 48.1756C90.1811 48.2297 89.9175 48.2565 89.6532 48.2557L89.6322 48.2767L89.792 51.6888C89.7626 53.9088 88.2692 55.6696 86.0565 55.6696C83.8437 55.6696 82.3756 53.7529 82.3588 51.5245L82.3125 37.5981Z" fill="#FFBE9D"/>
<path d="M92.3396 39.1313C92.3408 39.2524 92.295 39.3693 92.2118 39.4574C92.1286 39.5454 92.0145 39.5976 91.8936 39.6031C91.8344 39.6076 91.7748 39.6003 91.7184 39.5815C91.662 39.5627 91.61 39.5328 91.5653 39.4935C91.5206 39.4543 91.4842 39.4065 91.4583 39.353C91.4323 39.2994 91.4173 39.2412 91.4141 39.1818C91.4129 39.0611 91.4589 38.9446 91.5421 38.8573C91.6254 38.7699 91.7395 38.7186 91.86 38.7142C91.9189 38.7096 91.9782 38.7168 92.0343 38.7354C92.0904 38.7539 92.1423 38.7835 92.1869 38.8223C92.2315 38.8611 92.268 38.9084 92.2942 38.9614C92.3204 39.0145 92.3358 39.0722 92.3396 39.1313Z" fill="#263238"/>
<path d="M92.9033 38.5415C92.8444 38.6004 92.4826 38.3393 91.9946 38.3435C91.5066 38.3477 91.128 38.592 91.0775 38.533C91.0271 38.4741 91.107 38.394 91.2668 38.2803C91.4826 38.1295 91.74 38.0499 92.003 38.0528C92.2628 38.0504 92.5164 38.1316 92.7266 38.2845C92.878 38.4024 92.9327 38.512 92.9033 38.5415Z" fill="#263238"/>
<path d="M87.5446 39.1313C87.5458 39.2524 87.5 39.3693 87.4169 39.4574C87.3337 39.5454 87.2196 39.5976 87.0987 39.6031C87.0395 39.6076 86.9799 39.6003 86.9235 39.5815C86.8671 39.5627 86.8151 39.5328 86.7704 39.4935C86.7257 39.4543 86.6893 39.4065 86.6633 39.353C86.6374 39.2994 86.6223 39.2412 86.6192 39.1818C86.618 39.0603 86.6645 38.9433 86.7487 38.8558C86.8329 38.7684 86.948 38.7175 87.0693 38.7142C87.128 38.7096 87.187 38.7169 87.2429 38.7355C87.2988 38.7541 87.3504 38.7837 87.3947 38.8225C87.4389 38.8614 87.475 38.9087 87.5008 38.9617C87.5265 39.0147 87.5414 39.0724 87.5446 39.1313Z" fill="#263238"/>
<path d="M87.9947 38.6352C87.94 38.6941 87.574 38.433 87.0903 38.4372C86.6065 38.4414 86.2237 38.6857 86.169 38.6267C86.1143 38.5678 86.1984 38.4919 86.3625 38.374C86.577 38.224 86.8328 38.1445 87.0945 38.1465C87.354 38.1453 87.6073 38.2264 87.818 38.3782C87.9737 38.4962 88.0241 38.6057 87.9947 38.6352Z" fill="#263238"/>
<path d="M89.8069 42.3407C90.0706 42.2588 90.3432 42.2093 90.6188 42.1932C90.745 42.1932 90.867 42.1553 90.8881 42.0669C90.8972 41.9363 90.8679 41.806 90.8039 41.692L90.4253 40.7189C90.0796 39.8996 89.7983 39.0546 89.584 38.1914C89.9981 38.9851 90.3484 39.8105 90.6315 40.6599C90.7577 41.0011 90.8797 41.3255 90.9932 41.6372C91.0737 41.7912 91.0975 41.9687 91.0605 42.1385C91.0416 42.1836 91.0129 42.224 90.9765 42.2568C90.9402 42.2896 90.897 42.3139 90.8502 42.328C90.7803 42.3471 90.7081 42.357 90.6357 42.3575C90.3598 42.387 90.0814 42.3813 89.8069 42.3407Z" fill="#263238"/>
<path d="M89.648 48.2639C89.648 48.2639 87.7213 48.424 85.3066 46.9707C85.3066 46.9707 86.0681 49.5235 89.69 49.1822L89.648 48.2639Z" fill="#EB996E"/>
<path d="M89.5977 43.5457C89.5021 43.4264 89.3779 43.3334 89.2366 43.2752C89.0954 43.217 88.9417 43.1955 88.79 43.2129C88.568 43.2346 88.3638 43.3437 88.2221 43.5162C88.1562 43.5995 88.1172 43.7011 88.1104 43.8072C88.1037 43.9134 88.1294 44.019 88.1842 44.1101C88.2644 44.2005 88.3697 44.2648 88.4866 44.2948C88.6036 44.3248 88.7268 44.3192 88.8405 44.2786C89.0753 44.1938 89.2911 44.0636 89.4757 43.8953C89.5325 43.8559 89.5811 43.8059 89.6187 43.7478C89.6374 43.7205 89.6473 43.6882 89.6473 43.6552C89.6473 43.6221 89.6374 43.5898 89.6187 43.5625" fill="#EB996E"/>
<path d="M88.3399 42.6876C88.4198 42.6876 88.4198 43.2268 88.8868 43.6101C89.3537 43.9935 89.9258 43.9387 89.93 44.0314C89.9342 44.124 89.8038 44.1367 89.5598 44.1409C89.2417 44.1459 88.9319 44.0385 88.6849 43.8376C88.4491 43.644 88.2981 43.3659 88.2642 43.0625C88.2431 42.8182 88.302 42.6834 88.3399 42.6876Z" fill="#263238"/>
<path d="M88.2225 37.7589C88.172 37.8937 87.6756 37.8305 87.0867 37.9021C86.4977 37.9737 86.0308 38.1338 85.9508 38.0116C85.9172 37.9526 85.9971 37.822 86.1906 37.6915C86.4454 37.5303 86.7336 37.4294 87.0332 37.3966C87.3328 37.3637 87.636 37.3997 87.9196 37.5019C88.1341 37.5861 88.2435 37.6957 88.2225 37.7589Z" fill="#263238"/>
<path d="M92.7177 37.5186C92.6336 37.6323 92.297 37.5186 91.8764 37.5186C91.4557 37.5186 91.115 37.5944 91.035 37.4765C90.9551 37.3585 91.035 37.3038 91.2075 37.1985C91.4105 37.0647 91.6504 36.9984 91.8932 37.0089C92.1361 37.0145 92.3713 37.0954 92.5663 37.2406C92.7093 37.3459 92.7598 37.4638 92.7177 37.5186Z" fill="#263238"/>
<path d="M81.7133 39.4188C83.7199 39.9159 85.7097 38.9723 87.3377 37.6538C88.1636 36.9577 88.8358 36.0971 89.3116 35.1268C89.7874 34.1564 90.0564 33.0976 90.1015 32.0176C90.1015 31.5752 90.1604 30.598 89.7355 30.5053C88.8437 30.3073 88.7301 30.341 88.1664 30.5053C86.4837 30.9729 83.3792 31.2762 82.3107 32.7632C81.2422 34.2502 81.0234 36.6723 81.0234 38.5637" fill="#263238"/>
<path d="M93.8 37.1902C93.922 37.1685 94.0428 37.1404 94.1618 37.106C94.4834 37.0049 94.7733 36.8221 95.0031 36.5752C95.3494 36.2179 95.5581 35.7493 95.5921 35.2525C95.6344 34.6444 95.4874 34.038 95.1714 33.517C94.8471 32.9988 94.417 32.5552 93.9094 32.2153C93.4977 31.9344 93.0595 31.6946 92.6011 31.4992C92.2141 31.3265 91.8902 31.2043 91.6672 31.1159L91.4106 31.0148C91.3795 31.0045 91.3498 30.9903 91.3223 30.9727C91.3544 30.9754 91.3858 30.9839 91.4148 30.9979L91.6798 31.0822C91.9028 31.1622 92.2309 31.276 92.6263 31.4402C93.0919 31.6311 93.5373 31.8682 93.9557 32.1479C94.4743 32.4915 94.9133 32.9426 95.2429 33.4706C95.5674 34.0084 95.7146 34.6347 95.6636 35.2609C95.6227 35.7738 95.4022 36.2557 95.041 36.6216C94.8013 36.868 94.5009 37.0467 94.1702 37.1397C94.0503 37.1763 93.9253 37.1934 93.8 37.1902Z" fill="#263238"/>
<path d="M79.102 35.0957C79.102 35.0957 79.245 35.2179 79.5227 35.3906C79.9163 35.6292 80.3598 35.7734 80.8184 35.8118C81.5005 35.8635 82.1849 35.7478 82.8123 35.4748C83.5862 35.1372 84.3269 34.7283 85.0251 34.2532C85.742 33.807 86.4141 33.292 87.0317 32.7157C88.0111 31.8186 88.6923 30.6424 88.9836 29.3457C88.9919 29.5202 88.9735 29.695 88.9289 29.8638C88.8301 30.3285 88.6658 30.7767 88.4409 31.195C88.1097 31.8186 87.684 32.387 87.1789 32.88C86.5593 33.4752 85.8798 34.0046 85.1513 34.4596C84.4405 34.9394 83.6854 35.3499 82.8965 35.6855C82.232 35.9621 81.5085 36.0664 80.7931 35.9887C80.3159 35.9352 79.8593 35.7645 79.4638 35.4917C79.3598 35.4146 79.2627 35.3286 79.1735 35.2347C79.123 35.1378 79.0978 35.0999 79.102 35.0957Z" fill="#455A64"/>
<path d="M83.5731 30.3027C82.7763 30.7713 82.0168 31.3008 81.3015 31.8866C80.635 32.5274 80.019 33.2189 79.459 33.9549C79.5461 33.6906 79.6769 33.4429 79.846 33.222C80.591 32.1127 81.604 31.2099 82.7907 30.5976C83.0315 30.4526 83.2966 30.3527 83.5731 30.3027Z" fill="#455A64"/>
<path d="M83.0507 39.684C82.8127 39.5698 82.5466 39.5277 82.285 39.5628C82.0234 39.598 81.7778 39.7089 81.5784 39.882C81.4255 40.0311 81.3087 40.2134 81.2372 40.4147C81.1656 40.6161 81.141 40.8312 81.1654 41.0435C81.1898 41.2558 81.2624 41.4597 81.3777 41.6396C81.4931 41.8194 81.6481 41.9704 81.8308 42.0809C81.9534 42.1876 82.0965 42.2681 82.2513 42.3173C82.4061 42.3666 82.5694 42.3836 82.731 42.3673" fill="#FFBE9D"/>
<path d="M82.5934 41.4813C82.5934 41.5066 82.4841 41.595 82.2611 41.5655C82.1301 41.5469 82.0081 41.488 81.912 41.397C81.7929 41.287 81.7181 41.1372 81.7016 40.9758C81.6876 40.8087 81.7355 40.6422 81.8362 40.5082C81.9159 40.403 82.0261 40.325 82.1517 40.285C82.3663 40.2176 82.5009 40.285 82.4925 40.3102C82.4841 40.3355 82.3663 40.3397 82.2106 40.4282C82.1159 40.4787 82.0379 40.5559 81.9864 40.6502C81.9348 40.7445 81.9119 40.8518 81.9204 40.959C81.9293 41.0658 81.9696 41.1676 82.0363 41.2516C82.1029 41.3355 82.1928 41.3979 82.2948 41.4307C82.463 41.4729 82.585 41.4518 82.5934 41.4813Z" fill="#EB996E"/>
<path d="M82.8502 46.1039C82.8502 46.1671 82.5221 46.3019 81.8785 46.2556C80.9553 46.146 80.101 45.7116 79.4681 45.0297C79.0111 44.5502 78.6876 43.959 78.53 43.3153C78.3558 42.568 78.3966 41.7866 78.6477 41.0616C78.9144 40.2483 79.4203 39.5347 80.0991 39.0143C80.8272 38.514 81.6633 38.1936 82.5389 38.0792C83.2982 37.9763 84.0452 37.7971 84.7685 37.5442C85.6438 37.2057 86.4432 36.6962 87.1199 36.0453C87.7966 35.3944 88.3372 34.6152 88.7102 33.753C89.0288 33.0006 89.237 32.2061 89.3286 31.394C89.3959 30.8085 89.4127 30.4715 89.4926 30.4631C89.5726 30.4546 89.6946 30.7748 89.7577 31.3982C89.8273 32.2873 89.7171 33.1813 89.4337 34.0268C89.0115 35.3102 88.2392 36.4497 87.2042 37.3167C86.5938 37.8339 85.9051 38.2505 85.1639 38.551C84.3827 38.8436 83.5715 39.0484 82.7451 39.1618C82.0305 39.2498 81.3447 39.4974 80.7385 39.8863C80.2183 40.2709 79.822 40.7995 79.5985 41.407C79.3832 41.9557 79.3206 42.5526 79.4176 43.1341C79.5131 43.6449 79.7311 44.1248 80.0528 44.5327C80.5453 45.1496 81.2102 45.6057 81.9626 45.8427C82.5053 46.0028 82.846 46.0197 82.8502 46.1039Z" fill="#455A64"/>
<path d="M78.627 37.2477C78.627 37.0919 79.4683 36.9908 80.7597 36.8265C82.0512 36.6622 83.8475 36.4052 85.5428 35.5627C86.3301 35.1633 87.0351 34.6188 87.6209 33.9578C88.091 33.4134 88.4562 32.7864 88.6978 32.1085C89.1185 30.9375 88.9839 30.1076 89.1521 30.0781C89.2194 30.0781 89.3498 30.2508 89.4424 30.6342C89.5622 31.1894 89.5622 31.7639 89.4424 32.3191C89.2705 33.1483 88.9155 33.9284 88.4033 34.6023C87.7685 35.4152 86.9628 36.0782 86.0434 36.5442C85.1454 36.9998 84.1815 37.3111 83.187 37.4668C82.3958 37.5935 81.5944 37.6456 80.7934 37.6226C79.4431 37.5679 78.627 37.3952 78.627 37.2477Z" fill="#455A64"/>
<path d="M82.8235 69.191L81.6582 83.6945C81.6451 83.8495 81.6649 84.0056 81.7162 84.1525C81.7676 84.2993 81.8494 84.4336 81.9563 84.5466C82.0631 84.6596 82.1926 84.7487 82.3363 84.808C82.48 84.8673 82.6345 84.8955 82.7898 84.8908L93.6347 84.5959C93.9032 84.589 94.1599 84.4842 94.3567 84.3012C94.5534 84.1181 94.6767 83.8694 94.7032 83.6018L96.1924 69.3974C96.2083 69.2433 96.1917 69.0877 96.1438 68.9404C96.0959 68.7932 96.0177 68.6576 95.9142 68.5425C95.8108 68.4274 95.6844 68.3353 95.5432 68.2721C95.402 68.209 95.2491 68.1761 95.0945 68.1758H83.9214C83.6445 68.1759 83.3778 68.2805 83.1744 68.4686C82.971 68.6567 82.8457 68.9146 82.8235 69.191Z" fill="#455A64"/>
<path d="M90.2318 70.4635C90.2318 70.5926 90.1936 70.7189 90.1219 70.8262C90.0503 70.9336 89.9484 71.0173 89.8293 71.0667C89.7102 71.1161 89.5791 71.1291 89.4526 71.1039C89.3261 71.0787 89.2099 71.0165 89.1187 70.9252C89.0275 70.8339 88.9654 70.7175 88.9403 70.5909C88.9151 70.4642 88.928 70.3329 88.9774 70.2136C89.0267 70.0943 89.1103 69.9923 89.2175 69.9206C89.3247 69.8489 89.4508 69.8106 89.5798 69.8106C89.6656 69.81 89.7506 69.8265 89.83 69.8591C89.9093 69.8917 89.9814 69.9398 90.0421 70.0006C90.1027 70.0613 90.1507 70.1335 90.1833 70.213C90.2159 70.2924 90.2324 70.3776 90.2318 70.4635Z" fill="#FAFAFA"/>
<path d="M82.66 74.7051C82.66 74.7051 81.175 75.1263 80.9142 75.4212C80.5295 75.7153 80.1149 75.968 79.6774 76.1752L78.5626 76.4743L77.002 81.188L86.4628 81.4913C86.4628 81.4913 89.071 79.6379 88.7429 79.4357C88.4147 79.2335 87.4093 79.402 86.9718 79.8569C86.2819 80.5688 85.1588 79.5705 85.1588 79.5705C85.1588 79.5705 89.8534 78.61 90.2447 78.1298C90.6359 77.6496 91.086 77.5822 90.8336 77.102C90.5812 76.6217 88.6209 76.9082 87.9604 76.9082C87.239 76.9564 86.5212 77.0478 85.8108 77.182C85.8108 77.182 88.7555 76.1457 88.9658 76.0236C89.5548 75.7034 88.9406 75.0547 88.1455 75.2443C87.4346 75.4128 84.7801 76.3606 84.309 76.2932C83.8378 76.2258 82.6263 76.0868 82.6263 76.0868L82.66 74.7051Z" fill="#FFBE9D"/>
<path d="M45.8859 143.758H17.6211V147.646H45.8859V143.758Z" fill="#263238"/>
<path d="M45.9358 147.678H17.5742V143.693H45.9358V147.678ZM17.671 147.581H45.8559V143.79H17.671V147.581Z" fill="#263238"/>
<path d="M20.2422 146.352L24.3143 166.449H39.3659L43.2991 147.649L20.2422 146.352Z" fill="#263238"/>
<path d="M20.2422 164.551L22.4128 167.537H40.712L43.2991 164.551H20.2422Z" fill="#455A64"/>
<path d="M30.6952 146.941C30.6363 146.941 30.5648 137.627 30.5353 126.144C30.5059 114.661 30.5353 105.352 30.5774 105.352C30.6195 105.352 30.7036 114.657 30.7373 126.144C30.7709 137.632 30.7499 146.941 30.6952 146.941Z" fill="#263238"/>
<path d="M36.9889 123.639C36.9734 123.715 36.9479 123.788 36.9132 123.858C36.8459 124.014 36.766 124.216 36.6608 124.46L36.4757 124.881C36.4168 125.046 36.3579 125.223 36.2906 125.408C36.2233 125.593 36.1476 125.804 36.0719 126.015C35.9962 126.225 35.9373 126.465 35.8616 126.705C35.5255 127.843 35.2614 129.001 35.0707 130.172C34.8569 131.609 34.7165 133.056 34.65 134.507C34.5456 137.147 34.6201 139.792 34.873 142.422C34.9655 143.433 35.0581 144.25 35.1254 144.81C35.1506 145.076 35.1759 145.291 35.1969 145.463C35.2072 145.539 35.2072 145.615 35.1969 145.691C35.1724 145.618 35.1555 145.544 35.1464 145.468C35.117 145.299 35.0833 145.084 35.037 144.823C34.9445 144.263 34.8351 143.446 34.7257 142.435C34.4303 139.799 34.3347 137.144 34.4397 134.494C34.512 133.036 34.6651 131.584 34.8982 130.143C35.1 128.965 35.381 127.803 35.7396 126.663C35.8195 126.423 35.8826 126.187 35.9625 125.972C36.0424 125.758 36.1224 125.551 36.1981 125.37L36.4 124.843C36.4715 124.688 36.543 124.544 36.6019 124.422C36.7197 124.186 36.8165 124.001 36.888 123.837C36.9177 123.769 36.9514 123.703 36.9889 123.639Z" fill="#263238"/>
<path d="M36.265 116.111C36.2465 116.217 36.2169 116.32 36.1766 116.419C36.1051 116.634 36.0042 116.92 35.8822 117.261C35.8149 117.451 35.7434 117.683 35.6676 117.885C35.5919 118.087 35.5204 118.369 35.4405 118.639C35.2722 119.178 35.0829 119.789 34.9104 120.48C34.8221 120.821 34.7253 121.179 34.6286 121.554C34.5318 121.929 34.4561 122.325 34.3636 122.733C34.1658 123.542 34.0228 124.418 33.8419 125.341C33.5306 127.19 33.2572 129.237 33.0679 131.39C32.8786 133.542 32.8113 135.602 32.7818 137.49C32.7524 139.377 32.7818 141.053 32.8786 142.473C32.9038 143.181 32.9459 143.821 32.9838 144.385C33.0216 144.95 33.0511 145.43 33.0889 145.826C33.1268 146.222 33.1394 146.513 33.1562 146.74C33.1619 146.847 33.1619 146.954 33.1562 147.06C33.1292 146.957 33.1122 146.851 33.1058 146.744C33.0763 146.517 33.0427 146.214 32.9964 145.834C32.9501 145.455 32.9038 144.954 32.8576 144.394C32.8113 143.834 32.7566 143.189 32.7229 142.477C32.6262 141.062 32.5883 139.368 32.5841 137.485C32.5799 135.602 32.6725 133.538 32.8534 131.373C33.0342 129.208 33.3245 127.161 33.6442 125.307C33.8335 124.389 33.9807 123.504 34.1869 122.695L34.4645 121.516C34.5697 121.141 34.6664 120.783 34.7632 120.442C34.9399 119.751 35.1418 119.14 35.3185 118.605L35.5625 117.855L35.798 117.236C35.9327 116.878 36.042 116.596 36.1262 116.394C36.1646 116.296 36.211 116.201 36.265 116.111Z" fill="#263238"/>
<path d="M28.9085 148.589C28.9017 148.553 28.9017 148.515 28.9085 148.479C28.9085 148.395 28.9085 148.29 28.8791 148.159C28.8791 147.86 28.8328 147.447 28.7992 146.925C28.7319 145.838 28.6351 144.292 28.5131 142.388C28.2691 138.563 27.9158 133.272 27.2721 127.455C26.944 124.548 26.5612 121.785 26.1658 119.283C25.9554 118.019 25.7451 116.839 25.5474 115.736C25.3497 114.632 25.1267 113.596 24.9374 112.657C24.7481 111.717 24.542 110.875 24.3779 110.129C24.2139 109.383 24.054 108.747 23.9236 108.229C23.7932 107.711 23.7006 107.315 23.6291 107.029C23.5997 106.898 23.5744 106.797 23.5576 106.713C23.5511 106.678 23.5511 106.642 23.5576 106.607L23.5955 106.709C23.5955 106.789 23.6459 106.89 23.6838 107.016C23.7637 107.302 23.8731 107.703 24.0161 108.208C24.1592 108.714 24.3274 109.358 24.5041 110.104C24.6808 110.849 24.8953 111.683 25.0931 112.631C25.2908 113.579 25.5137 114.598 25.7283 115.706C25.9428 116.814 26.1489 118.002 26.3635 119.253C26.7841 121.76 27.1585 124.527 27.4867 127.438C28.1303 133.26 28.4626 138.555 28.673 142.384C28.7781 144.3 28.8496 145.855 28.8917 146.925C28.8917 147.451 28.9254 147.864 28.938 148.159C28.938 148.294 28.938 148.399 28.938 148.483C28.938 148.568 28.9085 148.589 28.9085 148.589Z" fill="#263238"/>
<path d="M30.4642 109.825C30.3423 108.507 29.0087 107.513 27.6878 107.5C27.0248 107.528 26.377 107.707 25.7937 108.024C25.2104 108.341 24.7072 108.787 24.3225 109.328C23.5579 110.414 23.0081 111.637 22.7029 112.93C21.8111 116.034 21.3231 119.299 21.7059 122.513C22.0887 125.727 23.3886 128.882 25.6854 131.153C26.0598 131.519 26.5268 131.89 27.0568 131.781C27.3331 131.696 27.5825 131.541 27.7804 131.33C30.0337 129.266 31.82 126.743 33.0193 123.93C34.2187 121.118 34.8033 118.081 34.7341 115.023C34.6962 113.802 34.5363 112.534 33.8633 111.514C33.1902 110.495 31.6127 109.408 30.4642 109.829" fill="#CC9EFF"/>
<path d="M20.5869 99.2607L18.7234 102.631C18.6771 102.711 18.6224 102.799 18.5299 102.808C18.4373 102.816 18.3616 102.723 18.3069 102.639L13.3809 95.0566L14.5167 94.4121L20.5869 99.2607Z" fill="#CC9EFF"/>
<g opacity="0.2">
<path d="M20.5869 99.2607L18.7234 102.631C18.6771 102.711 18.6224 102.799 18.5299 102.808C18.4373 102.816 18.3616 102.723 18.3069 102.639L13.3809 95.0566L14.5167 94.4121L20.5869 99.2607Z" fill="black"/>
</g>
<path d="M30.5688 105.353L13.7714 95.4449C13.6031 95.3395 13.4138 95.2216 13.3507 95.0236C13.2876 94.8256 13.4685 94.535 13.6494 94.3496C14.8057 93.1461 16.2079 92.2069 17.7602 91.5962C19.3125 90.9855 20.9782 90.7177 22.6433 90.8111C24.3048 90.9301 25.9124 91.4526 27.327 92.3334C28.7416 93.2141 29.9207 94.4266 30.7623 95.8661C32.3818 98.7685 32.4449 102.606 30.5772 105.361" fill="#CC9EFF"/>
<path d="M16.1953 92.2512C16.2666 92.2322 16.3403 92.2237 16.4141 92.2259C16.5613 92.2259 16.7758 92.1922 17.0493 92.1922C17.8301 92.1835 18.6101 92.2455 19.3798 92.3776C21.9427 92.8144 24.33 93.9681 26.2662 95.7054C28.1866 97.4601 29.5709 99.7241 30.2583 102.235C30.4681 102.988 30.6089 103.76 30.679 104.539C30.7084 104.813 30.679 104.884 30.7042 105.028C30.6906 105.16 30.6459 105.287 30.5738 105.398C30.6244 105.12 30.6329 104.836 30.5991 104.556C30.2658 101.608 28.9929 98.8464 26.969 96.6801C24.9451 94.5138 22.2779 93.0582 19.363 92.5292C18.6011 92.384 17.8288 92.3008 17.0535 92.2807C16.5024 92.2596 16.1953 92.268 16.1953 92.2512Z" fill="#263238"/>
<path d="M28.3013 98.498C28.0354 98.6567 27.7534 98.7866 27.46 98.8856C26.9258 99.0962 26.198 99.3658 25.3567 99.6312C24.5153 99.8966 23.7539 100.107 23.1944 100.246C22.8968 100.341 22.5889 100.399 22.2773 100.419C22.5599 100.287 22.8543 100.183 23.1565 100.107L25.2978 99.4374L27.4306 98.7508C27.7112 98.6364 28.0031 98.5517 28.3013 98.498Z" fill="#263238"/>
<path d="M25.6564 91.3789C25.8053 91.9936 25.8718 92.6254 25.8541 93.2577C25.9048 93.887 25.8709 94.5203 25.7532 95.1406C25.6685 94.5182 25.6347 93.8898 25.6522 93.2619C25.6041 92.6351 25.6056 92.0055 25.6564 91.3789Z" fill="#263238"/>
<path d="M13.625 95.2333C14.0208 95.0595 14.4303 94.9186 14.8491 94.8121C15.6106 94.5762 16.6749 94.2771 17.8569 93.9696C19.039 93.6621 20.1286 93.4641 20.9152 93.3251C21.3303 93.2319 21.7524 93.1741 22.1772 93.1523C21.765 93.2879 21.3431 93.3921 20.9152 93.4641C20.137 93.641 19.0643 93.8853 17.8822 94.1675C16.7001 94.4498 15.6316 94.7278 14.8618 94.9258C14.457 95.0564 14.0438 95.1591 13.625 95.2333Z" fill="#263238"/>
<path d="M23.4894 106.966C22.0423 105.866 20.5152 105.652 18.7021 105.702C16.8875 105.822 15.1113 106.281 13.4648 107.054C10.6337 108.297 7.96663 110.129 6.27553 112.724C4.58444 115.319 3.99129 118.748 5.26172 121.57C5.36069 121.865 5.56434 122.112 5.83383 122.265C6.1492 122.355 6.48611 122.33 6.78454 122.194C10.0069 121.141 13.2502 120.088 16.216 118.428C19.1817 116.768 21.874 114.489 23.4641 111.49C23.8738 110.784 24.1343 110.001 24.2297 109.19C24.2726 108.784 24.2287 108.373 24.101 107.986C23.9734 107.598 23.7649 107.242 23.4894 106.941" fill="#CC9EFF"/>
<path d="M23.519 106.625C23.444 106.664 23.365 106.695 23.2834 106.718L22.6103 106.954L22.1223 107.114C21.9457 107.177 21.7564 107.257 21.5502 107.337C21.1296 107.501 20.6668 107.67 20.1704 107.91L19.3796 108.272C19.1061 108.398 18.8327 108.554 18.5382 108.693C17.9535 108.98 17.3646 109.346 16.7336 109.721C15.3917 110.566 14.1162 111.513 12.9181 112.552C11.7363 113.611 10.6353 114.757 9.62422 115.981C9.17411 116.562 8.73661 117.101 8.36221 117.666C8.17712 117.935 7.98781 118.184 7.82796 118.441L7.36943 119.182C7.06655 119.646 6.84359 120.092 6.62905 120.48C6.52388 120.674 6.41871 120.85 6.33458 121.019L6.11163 121.482L5.79612 122.123C5.76415 122.201 5.7217 122.275 5.66992 122.342C5.69241 122.261 5.72197 122.182 5.75826 122.106C5.82978 121.937 5.92232 121.718 6.04011 121.449L6.25045 120.973C6.33037 120.804 6.42713 120.623 6.52809 120.425C6.73422 120.033 6.94876 119.583 7.24744 119.107L7.69755 118.357C7.85741 118.1 8.0425 117.843 8.22339 117.569C8.58096 117.017 9.01425 116.47 9.4854 115.884C11.485 113.378 13.9049 111.24 16.6368 109.565C17.272 109.195 17.8694 108.832 18.4625 108.55C18.757 108.403 19.0304 108.251 19.3038 108.129L20.1031 107.779C20.6079 107.543 21.0875 107.387 21.504 107.232C21.7101 107.156 21.9246 107.084 22.0803 107.025L22.5767 106.878L23.2666 106.68C23.348 106.651 23.4328 106.632 23.519 106.625Z" fill="#263238"/>
<path d="M12.2289 112.746C11.0724 113.188 9.89278 113.566 8.69529 113.879C7.52901 114.26 6.34225 114.575 5.14062 114.823C6.29109 114.38 7.46516 114.002 8.65743 113.69C9.83061 113.313 11.0228 112.998 12.2289 112.746Z" fill="#263238"/>
<path d="M12.0798 120.513C12.0196 120.151 11.9943 119.784 12.0041 119.417C11.983 118.739 11.983 117.8 12.0041 116.768C12.0251 115.736 12.0882 114.796 12.1429 114.122C12.1531 113.755 12.1996 113.389 12.2817 113.031C12.3154 113.396 12.3154 113.762 12.2817 114.126C12.2565 114.872 12.2312 115.774 12.1976 116.772C12.1639 117.77 12.1513 118.676 12.1345 119.417C12.148 119.783 12.1297 120.15 12.0798 120.513Z" fill="#263238"/>
<path d="M18.7286 117.126C18.6739 117.126 18.4973 115.222 18.3332 112.871C18.1691 110.52 18.085 108.604 18.1397 108.6C18.1944 108.595 18.3711 110.504 18.5351 112.854C18.6992 115.205 18.7917 117.121 18.7286 117.126Z" fill="#263238"/>
<path d="M10.457 108.418C10.8294 108.37 11.2056 108.359 11.5802 108.385C12.2785 108.385 13.2377 108.41 14.2935 108.444C15.3494 108.477 16.3128 108.52 17.0069 108.562C17.3838 108.564 17.7598 108.6 18.1301 108.671C17.7561 108.717 17.3787 108.728 17.0027 108.705C16.3086 108.705 15.3494 108.68 14.2893 108.646C13.2293 108.612 12.2701 108.566 11.576 108.524C11.2006 108.522 10.8261 108.487 10.457 108.418Z" fill="#263238"/>
<path d="M26.4089 131.597C26.3902 131.522 26.3817 131.446 26.3837 131.369C26.3837 131.201 26.3837 130.986 26.3542 130.725C26.329 130.16 26.3206 129.347 26.3542 128.341C26.3879 127.334 26.4384 126.137 26.5604 124.811C26.6824 123.484 26.8801 122.035 27.1493 120.518C27.4185 119.002 27.7635 117.569 28.1084 116.306C28.4534 115.042 28.8194 113.871 29.1559 112.936C29.4924 112 29.7827 111.221 29.9972 110.699L30.2496 110.105C30.2762 110.032 30.3116 109.963 30.3548 109.898C30.3402 109.974 30.3177 110.047 30.2875 110.117C30.2328 110.278 30.1571 110.48 30.0687 110.728C29.871 111.255 29.5976 112.022 29.2821 112.978C28.9666 113.934 28.6216 115.084 28.2767 116.348C27.9317 117.611 27.6204 119.056 27.3428 120.56C27.0652 122.064 26.8759 123.509 26.737 124.832C26.5982 126.154 26.5225 127.359 26.4846 128.349C26.4468 129.339 26.4299 130.165 26.4299 130.725C26.4299 130.99 26.4299 131.205 26.4299 131.374C26.4281 131.448 26.4211 131.523 26.4089 131.597Z" fill="#263238"/>
<path d="M27.2932 120.576C27.0987 120.846 26.8743 121.094 26.6244 121.313C26.2037 121.735 25.5727 122.333 24.866 122.948C24.1592 123.563 23.5072 124.106 23.0192 124.481C22.7681 124.699 22.4945 124.89 22.2031 125.05C22.4191 124.797 22.6617 124.568 22.9267 124.367L24.7356 122.796L26.5276 121.212C26.7627 120.977 27.019 120.764 27.2932 120.576Z" fill="#263238"/>
<path d="M32.6132 124.868C32.3487 124.558 32.1095 124.227 31.8981 123.878C31.4396 123.204 30.8675 122.374 30.2154 121.452L28.5327 119.046C28.2789 118.728 28.0524 118.388 27.8555 118.031C28.1456 118.318 28.4103 118.629 28.6463 118.962C29.1133 119.556 29.7359 120.39 30.3921 121.334C31.0484 122.277 31.6163 123.158 32.0075 123.798C32.241 124.136 32.4437 124.494 32.6132 124.868Z" fill="#263238"/>
<path d="M29.8238 111.376C29.8532 111.423 28.0864 112.615 25.8779 114.034C23.6694 115.454 21.8521 116.562 21.8226 116.524C21.7932 116.486 23.56 115.29 25.7685 113.866C27.977 112.442 29.7943 111.33 29.8238 111.376Z" fill="#263238"/>
<path d="M34.8089 116.761C33.8715 115.987 32.9783 115.162 32.1334 114.288C31.247 113.461 30.4045 112.587 29.6094 111.672C30.548 112.444 31.4413 113.269 32.2848 114.145C33.1724 114.971 34.015 115.844 34.8089 116.761Z" fill="#263238"/>
<path d="M36.0586 116.649L37.5772 116.523C38.6534 116.436 39.6981 116.117 40.6397 115.588C41.0984 115.316 41.5749 115.075 42.0658 114.868C43.942 114.114 46.0327 114.248 48.0519 114.147C51.3575 113.98 54.5961 113.151 57.5759 111.708C57.7522 111.631 57.8995 111.5 57.9966 111.333C58.3079 110.765 57.7315 110.259 57.2309 109.952C54.6775 108.376 52.0777 106.78 49.1793 105.996C46.2809 105.213 42.9912 105.343 40.5177 107.049C37.6151 109.05 36.5592 113.157 36.067 116.649" fill="#CC9EFF"/>
<path d="M58.021 111.15C57.9334 111.113 57.8477 111.073 57.7644 111.027L57.0451 110.653C56.4225 110.324 55.5265 109.84 54.3907 109.292C53.0704 108.643 51.695 108.113 50.2807 107.708C48.5509 107.216 46.7406 107.072 44.955 107.287C43.163 107.492 41.4721 108.225 40.0963 109.393C39.0227 110.394 38.164 111.604 37.5723 112.948C37.0422 114.086 36.7309 115.055 36.4743 115.72C36.3607 116.036 36.2724 116.289 36.2051 116.483C36.18 116.575 36.1433 116.665 36.0957 116.748C36.1111 116.655 36.1336 116.564 36.163 116.474L36.3986 115.695C36.6922 114.74 37.0419 113.803 37.4461 112.889C38.0253 111.515 38.885 110.276 39.9701 109.254C41.3708 108.059 43.0967 107.311 44.9256 107.106C46.7402 106.88 48.5816 107.023 50.3396 107.527C51.7613 107.945 53.1414 108.493 54.4622 109.166C55.5938 109.73 56.4814 110.231 57.0914 110.581L57.7939 111.002C57.8759 111.041 57.9523 111.09 58.021 111.15Z" fill="#263238"/>
<path d="M54.3789 113.108C54.3494 113.154 52.3681 111.87 49.9492 110.239C47.5304 108.609 45.6037 107.244 45.6331 107.202C45.6626 107.16 47.6482 108.441 50.0628 110.071C52.4775 111.701 54.4125 113.062 54.3789 113.108Z" fill="#263238"/>
<path d="M52.2671 107.096C51.8004 107.254 51.3125 107.34 50.82 107.353C50.3322 107.429 49.8355 107.429 49.3477 107.353C49.8282 107.266 50.3149 107.216 50.8032 107.205C51.2876 107.131 51.777 107.094 52.2671 107.096Z" fill="#263238"/>
<path d="M43.581 105.977C43.4199 106.347 43.2012 106.69 42.9331 106.992C42.6993 107.344 42.4159 107.66 42.0918 107.931C42.2533 107.56 42.4719 107.216 42.7396 106.912C42.9728 106.56 43.2563 106.245 43.581 105.977Z" fill="#263238"/>
<path d="M45.3601 114.28C45.0258 114.138 44.706 113.965 44.4052 113.761C43.8331 113.412 43.059 112.919 42.2303 112.3C41.4016 111.68 40.6738 111.129 40.148 110.712C39.8459 110.503 39.5642 110.266 39.3066 110.004C39.6383 110.175 39.9525 110.378 40.2447 110.611L42.3481 112.148C43.1894 112.746 43.9298 113.273 44.4809 113.652C44.7901 113.837 45.0841 114.047 45.3601 114.28Z" fill="#263238"/>
<path d="M38.2922 123.105C36.8451 122.721 35.1204 124.133 34.8217 125.599C34.523 127.064 35.0741 128.568 35.7177 129.921C37.0965 132.952 39.1414 135.631 41.6997 137.76C44.2819 139.886 47.5068 141.074 50.8492 141.13C50.2393 138.282 51.0091 135.312 50.6684 132.423C50.3683 129.879 49.2155 127.513 47.3985 125.71C45.5815 123.907 43.2076 122.775 40.6648 122.498C39.7435 122.397 38.675 122.25 38.3049 123.105" fill="#CC9EFF"/>
<path d="M50.85 141.134C50.7784 141.108 50.7094 141.075 50.6439 141.037C50.453 140.932 50.2715 140.81 50.1012 140.674C49.4946 140.145 49.0083 139.491 48.6751 138.758C48.4437 138.311 48.1871 137.823 47.9347 137.283L47.1565 135.56C46.8751 134.928 46.5547 134.313 46.1974 133.72C45.8058 133.09 45.367 132.492 44.8849 131.929C43.8921 130.762 42.832 129.756 41.9107 128.791C41.0759 127.952 40.3158 127.041 39.6391 126.07C39.1879 125.414 38.8165 124.707 38.5327 123.964C38.4402 123.698 38.3729 123.488 38.3392 123.344C38.3157 123.272 38.3001 123.197 38.293 123.121C38.293 123.121 38.3939 123.416 38.6043 123.938C38.9143 124.665 39.3007 125.357 39.7569 126.002C40.4434 126.957 41.2074 127.853 42.0411 128.682C42.9666 129.634 44.0351 130.636 45.0363 131.816C45.5275 132.385 45.972 132.994 46.3656 133.635C46.7248 134.236 47.0452 134.86 47.3248 135.502C47.594 136.108 47.8464 136.689 48.0862 137.233C48.326 137.776 48.5784 138.261 48.8013 138.711C49.1167 139.436 49.5762 140.088 50.1517 140.628C50.5765 140.978 50.8626 141.112 50.85 141.134Z" fill="#263238"/>
<path d="M43.3691 138.771C43.3724 138.441 43.4162 138.113 43.4996 137.794C43.6131 137.195 43.7982 136.378 44.0506 135.485C44.303 134.592 44.5681 133.8 44.7826 133.232C44.8788 132.917 45.0115 132.614 45.178 132.33C45.1225 132.654 45.0351 132.971 44.9172 133.278C44.7405 133.855 44.4965 134.651 44.2441 135.54C43.9917 136.429 43.7856 137.225 43.6384 137.823C43.5762 138.146 43.4861 138.463 43.3691 138.771Z" fill="#263238"/>
<path d="M50.5761 131.785C50.2303 131.738 49.8896 131.659 49.5581 131.549C48.9313 131.389 48.0731 131.166 47.114 130.947C46.1549 130.728 45.2841 130.564 44.6489 130.446C44.3036 130.4 43.9629 130.324 43.6309 130.218C43.9806 130.21 44.3303 130.238 44.6741 130.303C45.3135 130.387 46.1969 130.534 47.1603 130.753C48.1236 130.972 48.9818 131.217 49.596 131.415C49.9349 131.503 50.2635 131.627 50.5761 131.785Z" fill="#263238"/>
<path d="M37.998 133.815C38.0146 133.435 38.0681 133.056 38.1579 132.686C38.2841 131.991 38.486 131.043 38.7553 130.003C39.0245 128.962 39.3147 128.036 39.5419 127.37C39.6487 127.004 39.7896 126.649 39.9626 126.309C39.9034 126.684 39.8104 127.053 39.6849 127.412C39.4956 128.086 39.2306 129.021 38.9614 130.053C38.6922 131.086 38.465 132.033 38.3051 132.716C38.2336 133.09 38.1309 133.458 37.998 133.815Z" fill="#263238"/>
<path d="M47.2584 125.699C45.9089 125.661 44.5624 125.552 43.2241 125.374C41.003 125.138 39.2067 124.902 39.2109 124.848C40.5603 124.888 41.9067 124.996 43.2452 125.172C45.4663 125.408 47.2626 125.644 47.2584 125.699Z" fill="#263238"/>
<path d="M45.9316 147.632C45.9316 147.687 39.5837 147.733 31.755 147.733C23.9263 147.733 17.5742 147.687 17.5742 147.632C17.5742 147.578 23.9221 147.531 31.755 147.531C39.5879 147.531 45.9316 147.573 45.9316 147.632Z" fill="#455A64"/>
<path d="M41.5069 155.814C41.5069 155.869 37.2329 155.915 31.9577 155.915C26.6825 155.915 22.4043 155.869 22.4043 155.814C22.4043 155.759 26.6783 155.713 31.9577 155.713C37.2371 155.713 41.5069 155.759 41.5069 155.814Z" fill="#455A64"/>
<path d="M41.3507 156.98C41.3507 157.039 37.144 157.081 31.9655 157.081C26.7871 157.081 22.5762 157.039 22.5762 156.98C22.5762 156.921 26.7829 156.883 31.9655 156.883C37.1482 156.883 41.3507 156.946 41.3507 156.98Z" fill="#455A64"/>
<path d="M41.683 154.841C41.683 154.896 37.2576 154.942 31.8015 154.942C26.3454 154.942 21.9199 154.896 21.9199 154.841C21.9199 154.787 26.3454 154.74 31.8015 154.74C37.2576 154.74 41.683 154.795 41.683 154.841Z" fill="#455A64"/>
<path d="M150.04 143.888C150.583 144.148 151.068 144.514 151.466 144.966C151.864 145.417 152.168 145.945 152.358 146.516C152.729 147.664 152.834 148.881 152.665 150.076C152.405 152.388 151.092 154.709 149.683 156.567C147.739 154.882 147.293 151.908 147.159 150.392C146.948 147.99 148.025 143.529 150.04 143.888Z" fill="#CC9EFF"/>
<path d="M152.113 160.615C151.934 159.966 151.928 159.281 152.098 158.629C152.268 157.977 152.607 157.382 153.081 156.904C153.561 156.434 154.131 156.065 154.756 155.818C155.381 155.572 156.048 155.452 156.72 155.467C157.028 155.44 157.339 155.48 157.63 155.587C157.921 155.693 158.184 155.862 158.402 156.083C158.571 156.32 158.674 156.598 158.699 156.889C158.724 157.179 158.671 157.471 158.545 157.734C158.289 158.257 157.899 158.702 157.414 159.023C155.811 160.202 154.048 161.045 152.105 160.615" fill="#CC9EFF"/>
<path d="M149.553 167.436C149.544 167.272 149.563 167.109 149.607 166.951C149.662 166.64 149.75 166.197 149.872 165.65C150.17 164.21 150.661 162.817 151.332 161.509C152.02 160.19 153.052 159.082 154.319 158.303C154.704 158.074 155.117 157.896 155.547 157.772C155.701 157.717 155.863 157.686 156.027 157.68C155.47 157.899 154.932 158.161 154.416 158.463C153.213 159.261 152.232 160.351 151.564 161.631C150.906 162.922 150.399 164.284 150.053 165.692C149.922 166.283 149.754 166.865 149.553 167.436Z" fill="#263238"/>
<path d="M149.619 147.381C149.665 147.645 149.691 147.913 149.695 148.181C149.728 148.699 149.762 149.445 149.796 150.372C149.867 152.225 149.918 154.782 149.909 157.613C149.901 160.444 149.821 162.996 149.737 164.85C149.695 165.777 149.653 166.535 149.615 167.04C149.611 167.309 149.584 167.577 149.535 167.841C149.503 167.574 149.496 167.304 149.514 167.036C149.514 166.472 149.539 165.735 149.552 164.841C149.59 162.992 149.636 160.435 149.648 157.609C149.661 154.782 149.648 152.229 149.615 150.376C149.615 149.487 149.615 148.75 149.594 148.185C149.578 147.917 149.586 147.648 149.619 147.381Z" fill="#263238"/>
<path d="M148.525 161.855C148.319 160.45 147.783 159.114 146.959 157.958C146.135 156.802 145.048 155.859 143.788 155.208C143.148 154.884 142.303 154.66 141.76 155.132C141.218 155.604 141.319 156.476 141.563 157.154C142.105 158.561 143.05 159.776 144.28 160.646C145.51 161.516 146.969 162.003 148.474 162.045" fill="#CC9EFF"/>
<path d="M143.977 157.367C144.125 157.407 144.266 157.467 144.398 157.544C144.566 157.617 144.727 157.703 144.882 157.801C145.094 157.92 145.299 158.05 145.496 158.193C146.013 158.558 146.492 158.975 146.926 159.436C147.452 160.007 147.916 160.632 148.31 161.302C148.692 161.978 148.999 162.694 149.227 163.437C149.41 164.046 149.529 164.671 149.585 165.303C149.612 165.544 149.623 165.786 149.618 166.028C149.632 166.212 149.632 166.396 149.618 166.58C149.618 166.737 149.596 166.893 149.551 167.043C149.501 167.043 149.551 166.373 149.425 165.325C149.338 164.708 149.198 164.101 149.004 163.509C148.767 162.788 148.46 162.093 148.087 161.432C147.703 160.78 147.256 160.166 146.754 159.6C146.336 159.14 145.88 158.718 145.391 158.336C144.57 157.704 143.952 157.422 143.977 157.367Z" fill="#263238"/>
</svg>
