<svg width="168" height="169" viewBox="0 0 168 169" fill="none" xmlns="http://www.w3.org/2000/svg">
<path d="M140 56.2793L84 91.2793L28 56.2793V42.2793L84 77.2793L140 42.2793V56.2793ZM140 28.2793H28C20.23 28.2793 14 34.5093 14 42.2793V126.279C14 129.992 15.475 133.553 18.1005 136.179C20.726 138.804 24.287 140.279 28 140.279H140C143.713 140.279 147.274 138.804 149.899 136.179C152.525 133.553 154 129.992 154 126.279V42.2793C154 38.5663 152.525 35.0053 149.899 32.3798C147.274 29.7543 143.713 28.2793 140 28.2793V28.2793Z" fill="#25003F"/>
</svg>
