<svg width="168" height="169" viewBox="0 0 168 169" fill="none" xmlns="http://www.w3.org/2000/svg">
<path d="M84 63.0938C78.4305 63.0938 73.089 65.3062 69.1508 69.2445C65.2125 73.1828 63 78.5242 63 84.0938C63 89.6633 65.2125 95.0047 69.1508 98.943C73.089 102.881 78.4305 105.094 84 105.094C89.5695 105.094 94.911 102.881 98.8492 98.943C102.788 95.0047 105 89.6633 105 84.0938C105 78.5242 102.788 73.1828 98.8492 69.2445C94.911 65.3062 89.5695 63.0938 84 63.0938ZM84 119.094C74.7174 119.094 65.815 115.406 59.2513 108.842C52.6875 102.279 49 93.3763 49 84.0938C49 74.8112 52.6875 65.9088 59.2513 59.345C65.815 52.7812 74.7174 49.0938 84 49.0938C93.2826 49.0937 102.185 52.7812 108.749 59.345C115.313 65.9088 119 74.8112 119 84.0938C119 93.3763 115.313 102.279 108.749 108.842C102.185 115.406 93.2826 119.094 84 119.094V119.094ZM84 31.5938C49 31.5938 19.11 53.3638 7 84.0938C19.11 114.824 49 136.594 84 136.594C119 136.594 148.89 114.824 161 84.0938C148.89 53.3638 119 31.5938 84 31.5938Z" fill="#9903FF"/>
</svg>
