<svg width="168" height="169" viewBox="0 0 168 169" fill="none" xmlns="http://www.w3.org/2000/svg">
<path d="M91 91.9668H77V49.9668H91V91.9668ZM91 119.967H77V105.967H91V119.967ZM84 14.9668C74.8075 14.9668 65.7049 16.7774 57.2122 20.2952C48.7194 23.8131 41.0026 28.9692 34.5025 35.4693C21.375 48.5969 14 66.4016 14 84.9668C14 103.532 21.375 121.337 34.5025 134.464C41.0026 140.964 48.7194 146.121 57.2122 149.638C65.7049 153.156 74.8075 154.967 84 154.967C102.565 154.967 120.37 147.592 133.497 134.464C146.625 121.337 154 103.532 154 84.9668C154 75.7743 152.189 66.6717 148.672 58.1789C145.154 49.6862 139.998 41.9694 133.497 35.4693C126.997 28.9692 119.281 23.8131 110.788 20.2952C102.295 16.7774 93.1925 14.9668 84 14.9668V14.9668Z" fill="#2F6FED"/>
</svg>
