<svg width="500" height="276" viewBox="0 0 500 276" fill="none" xmlns="http://www.w3.org/2000/svg">
<path d="M350.357 131.427C348.191 131.731 345.634 130.661 343.985 132.102C343.024 132.942 342.811 134.323 342.431 135.542C341.902 137.233 340.883 138.833 339.36 139.736C337.836 140.639 335.762 140.712 334.351 139.645C332.936 138.574 332.505 136.293 333.66 134.949C334.186 134.338 334.944 133.976 335.531 133.422C338.408 130.703 336.437 125.661 338.624 122.431C339.913 120.524 341.945 118.59 343.362 116.659C344.451 115.175 344.849 113.998 346.853 113.602C355.618 111.878 359.578 130.135 350.357 131.427Z" fill="#EBEBEB"/>
<path d="M149.77 275.018L154.131 242.923L247.237 238.483L253.791 275.112L149.77 275.018Z" fill="#192E35"/>
<path d="M237.006 141.883L264.937 172.88C269.547 177.992 272.875 182.648 279.502 184.522C284.143 185.833 293.917 186.374 296.387 183.324C299.772 179.142 301.873 171.91 297.132 162.81C294.048 156.889 266.947 132.692 266.947 132.692L237.006 141.883Z" fill="#D9745F"/>
<path d="M246.203 147.065C246.361 148.595 253.666 163.835 253.666 163.835L277.646 148.191C277.646 148.191 262.212 111.519 250.938 109.056" fill="#FF725C"/>
<path d="M287.263 104.317L287.603 92.6663L286.825 77.8249L284.468 65.4804C284.468 65.4804 283.847 64.27 282.29 65.1854C280.733 66.1008 282.08 72.8373 282.08 72.8373L282.324 77.901C282.324 77.901 281.411 81.809 281.119 81.4805C280.824 81.1521 279.848 74.3153 279.848 74.3153L277.02 59.6321C277.02 59.6321 276.348 58.0506 274.544 58.6193C273.54 58.9356 272.887 60.3924 273.011 62.5699C273.136 64.7444 274.085 68.4183 274.185 69.653C274.286 70.8908 275.101 78.0287 275.101 78.0287L270.143 61.6058C270.143 61.6058 269.222 56.2623 266.999 57.0318C264.772 57.8012 266.26 61.6332 266.357 63.2907C266.457 64.9482 269.681 76.1279 269.41 79.2452C269.14 82.3625 268.644 80.8023 268.644 80.8023C268.644 80.8023 267.355 75.6596 266.339 71.6025C265.323 67.5454 263.787 65.1976 262.029 64.9026C260.274 64.6045 262.628 74.0051 262.628 74.0051L265.606 87.1404L264.867 91.3191L261.938 87.557C261.938 87.557 261.853 82.6271 258.772 80.5712C255.643 78.4849 254.897 80.8267 254.897 80.8267L260.639 99.9076C261.999 103.028 270.794 109.092 270.794 109.092L272.367 128.222L291.913 127.833" fill="#D9745F"/>
<path d="M280.405 97.432C280.307 97.5263 279.383 96.5896 277.795 95.2423C276.232 93.9498 273.76 92.1433 270.645 92.2862C269.274 92.3379 267.996 92.8002 267.111 93.5727L266.786 93.8555L266.5 93.4784C265.247 91.827 263.903 90.3854 263.103 89.3453C262.261 88.3113 261.847 87.6118 261.938 87.557C262.008 87.5175 262.528 88.074 263.474 89.0168C264.402 89.9992 265.731 91.2309 267.187 93.0556L266.576 92.9644C267.592 92.0307 269.073 91.4772 270.609 91.4225C272.309 91.3465 273.909 91.83 275.171 92.5204C276.445 93.2077 277.433 94.0501 278.203 94.7861C279.727 96.2885 280.481 97.3621 280.405 97.432Z" fill="#8D4132"/>
<path d="M275.338 170.933L271.196 111.401L287.746 106.212L299.762 170.933H275.338Z" fill="#D9745F"/>
<path d="M239.484 34.9156C242.717 35.4752 246.193 33.2764 247.075 30.1165C247.957 26.9566 246.12 23.2767 243.067 22.0815C245.211 20.1259 245.914 16.7531 244.731 14.1012C243.551 11.4492 240.57 9.71869 237.681 10.0046C237.73 7.13969 236.178 4.29915 233.742 2.78763C231.309 1.27612 228.077 1.14839 225.528 2.45918C222.523 -0.43307 217.435 -0.828436 214.02 1.562C211.27 0.886841 208.153 2.19155 206.706 4.62152C205.255 7.05454 205.589 10.4151 207.49 12.5136" fill="#192E35"/>
<path d="M240.324 72.235C240.847 64.8873 240.698 49.6718 240.4 35.904C240.08 21.1052 228.445 9.0374 213.667 8.16152L212.201 8.07636C196.31 8.06724 187.427 21.5583 187.856 37.4429L185.414 98.615L195.009 107.283C203.755 115.181 217.593 112.76 223.134 102.356L223.877 88.9133C223.877 88.9133 239.238 87.4444 240.324 72.235Z" fill="#D9745F"/>
<path d="M224.004 88.8981C224.004 88.8981 214.248 88.9103 204.403 81.8849C204.403 81.8849 208.448 93.1164 223.715 92.6419" fill="#8D4132"/>
<path d="M233.673 48.7473C233.649 49.8969 232.651 50.8245 231.45 50.8184C230.251 50.8093 229.296 49.8756 229.324 48.726C229.351 47.5764 230.349 46.6488 231.547 46.6549C232.748 46.661 233.7 47.5977 233.673 48.7473Z" fill="#192E35"/>
<path d="M236.689 43.1635C236.404 43.4311 234.828 42.1143 232.489 41.9835C230.154 41.8162 228.368 42.9202 228.131 42.6191C228.013 42.4823 228.317 41.9896 229.095 41.4878C229.865 40.989 231.151 40.5359 232.608 40.6301C234.062 40.7244 235.257 41.3327 235.929 41.9227C236.616 42.5157 236.829 43.0419 236.689 43.1635Z" fill="#192E35"/>
<path d="M212.207 48.7473C212.177 49.8999 211.182 50.8245 209.981 50.8184C208.783 50.8123 207.828 49.8756 207.855 48.726C207.882 47.5764 208.88 46.6488 210.081 46.6549C211.283 46.661 212.231 47.5977 212.207 48.7473Z" fill="#192E35"/>
<path d="M213.673 42.2421C213.387 42.5097 211.809 41.1928 209.47 41.0621C207.137 40.8978 205.349 41.9988 205.112 41.6977C204.996 41.5639 205.297 41.0681 206.082 40.5694C206.848 40.0706 208.132 39.6175 209.589 39.7117C211.045 39.803 212.24 40.4112 212.913 41.0043C213.597 41.5973 213.813 42.1235 213.673 42.2421Z" fill="#192E35"/>
<path d="M221.139 60.0912C221.136 59.9544 222.605 59.7901 224.977 59.629C225.579 59.6016 226.151 59.5164 226.276 59.115C226.44 58.6922 226.23 58.0323 225.981 57.3206C225.503 55.8426 225.005 54.2915 224.482 52.6675C222.41 46.0497 220.951 40.621 221.218 40.5389C221.486 40.4568 223.381 45.7577 225.452 52.3786C225.947 54.0087 226.422 55.5658 226.872 57.053C227.057 57.7464 227.401 58.5371 227.045 59.413C226.857 59.851 226.401 60.149 226.011 60.2281C225.622 60.3224 225.284 60.3102 224.989 60.3102C222.611 60.298 221.139 60.222 221.139 60.0912Z" fill="#192E35"/>
<path d="M214.159 61.3017C214.54 61.3017 214.397 63.8411 216.462 65.7693C218.524 67.7066 221.249 67.5819 221.249 67.9377C221.273 68.0989 220.616 68.3939 219.473 68.3574C218.35 68.33 216.732 67.8738 215.47 66.6938C214.208 65.5108 213.725 64.0023 213.7 62.9561C213.667 61.8886 213.986 61.2773 214.159 61.3017Z" fill="#192E35"/>
<path d="M214.817 33.1121C214.549 33.7355 212.232 33.2946 209.47 33.4649C206.7 33.5774 204.44 34.2495 204.111 33.6595C203.965 33.3767 204.385 32.8019 205.316 32.2392C206.24 31.6766 207.688 31.1748 209.348 31.0896C211.006 31.0045 212.499 31.3573 213.472 31.8226C214.458 32.2879 214.935 32.8171 214.817 33.1121Z" fill="#192E35"/>
<path d="M236.23 36.342C235.786 36.8499 234.208 36.2021 232.27 36.0622C230.339 35.8554 228.673 36.2082 228.326 35.6304C228.177 35.3506 228.469 34.8336 229.214 34.3743C229.95 33.9151 231.154 33.5745 232.483 33.6931C233.812 33.8147 234.938 34.3652 235.579 34.9491C236.233 35.533 236.425 36.0957 236.23 36.342Z" fill="#192E35"/>
<path d="M239.348 28.8422C239.348 28.8422 235.896 19.0736 231.431 16.5798C226.024 13.5598 223.268 19.5237 218.056 17.7294C212.84 15.935 207.682 13.0367 202.019 16.817C195.824 20.9531 198.418 24.2651 197.652 30.9954C194.553 58.2878 189.097 65.7358 188.434 52.7557C188.361 51.3324 184.507 49.979 184.276 43.9755C183.981 36.1899 184.237 26.7741 186.29 21.3819C188.017 16.8383 190.845 13.794 195.788 10.5459C203.591 5.42135 213.862 5.90492 220.793 7.01802C227.721 8.13112 240.686 16.9447 239.348 28.8422Z" fill="#192E35"/>
<path d="M189.428 52.3999C189.471 50.0459 187.555 48.0691 185.204 48.1543C182.348 48.2577 179.094 49.681 178.936 55.5598C178.656 65.9852 189.179 64.1148 189.206 63.8198C189.224 63.6161 189.349 56.7611 189.428 52.3999Z" fill="#D9745F"/>
<path d="M187.044 59.8328C186.998 59.7993 186.858 59.9574 186.545 60.0882C186.244 60.219 185.727 60.2981 185.188 60.0821C184.097 59.6472 183.218 57.8742 183.218 55.9916C183.218 55.0428 183.44 54.1456 183.795 53.4066C184.136 52.6523 184.644 52.1323 185.2 52.0501C185.754 51.9376 186.137 52.2782 186.259 52.5763C186.39 52.8713 186.317 53.0781 186.371 53.0963C186.402 53.1237 186.603 52.926 186.53 52.4942C186.49 52.2874 186.374 52.038 186.137 51.8312C185.891 51.6213 185.526 51.5088 185.14 51.5392C184.334 51.5727 183.592 52.2934 183.199 53.1055C182.761 53.9175 182.491 54.9272 182.491 55.9916C182.5 58.0962 183.522 60.0913 185.018 60.5657C185.748 60.7755 186.365 60.5718 186.688 60.3346C187.016 60.0852 187.077 59.854 187.044 59.8328Z" fill="#8D4132"/>
<path d="M190.821 32.2515C192.117 33.2521 193.488 34.2891 195.109 34.5446C196.727 34.8031 198.643 33.9759 199.014 32.3792C199.181 31.6645 199.054 30.813 199.562 30.2807C200.17 29.6451 201.204 29.9158 202.074 30.0618C205.078 30.5605 208.302 28.6019 209.248 25.7067C209.951 26.908 211.754 26.9627 212.964 26.2784C214.178 25.5941 215.002 24.408 215.978 23.4135C216.955 22.4221 218.29 21.5614 219.655 21.8382C220.419 21.9933 221.112 22.4951 221.888 22.4707C223.262 22.4282 224.022 20.868 224.311 19.5238C224.597 18.1795 224.853 16.6072 226.051 15.9381C227.164 15.3177 228.533 15.7952 229.78 16.0567C231.027 16.3152 232.669 16.1145 233.061 14.9041C233.268 14.2684 233.031 13.575 232.708 12.9911C231.239 10.3422 227.772 9.00096 224.904 9.96809C224.089 6.47063 221.03 3.60575 217.487 3.01879C213.941 2.43182 210.124 4.15926 208.226 7.20966C206.143 5.08381 202.998 4.0589 200.063 4.54854C197.129 5.03819 194.486 7.03022 193.208 9.71566C190.714 8.9006 187.774 9.70958 186.046 11.6834C184.322 13.6571 183.914 16.6802 185.055 19.0432C183.12 20.0012 181.411 21.7652 181.244 23.9154C181.08 26.0686 183.05 28.3374 185.161 27.8933C184.224 29.5204 184.772 31.8379 186.341 32.8689C187.91 33.9029 190.255 33.4893 191.381 31.9838" fill="#192E35"/>
<path d="M225.495 13.0762C225.504 13.0792 225.501 13.1431 225.482 13.2678C225.461 13.3925 225.443 13.581 225.382 13.8183C225.26 14.2927 225.023 14.9952 224.509 15.7799C223.992 16.5524 223.211 17.4343 222.058 18.1034C220.927 18.7816 219.403 19.2591 217.721 19.0675L217.913 18.8485C218.183 19.7579 218.031 20.8193 217.536 21.7073C217.061 22.6136 216.35 23.4013 215.601 24.1616C215.221 24.5266 214.884 24.9615 214.367 25.2869C213.868 25.6001 213.278 25.7644 212.682 25.8039C211.502 25.883 210.197 25.442 209.403 24.4049L209.799 24.3167C209.412 26.3696 208.114 28.3707 206.17 29.5203C205.139 30.1772 203.889 30.5422 202.688 30.4388C201.484 30.3567 200.386 29.937 199.364 29.5021L199.65 29.3956C199.014 30.6578 198.09 31.71 196.998 32.4612C195.924 33.2155 194.531 33.6108 193.315 33.2368C190.888 32.5707 189.38 30.4327 189.164 28.4893L189.395 28.614C188.136 29.2071 186.825 29.1919 185.788 28.9273C184.736 28.6718 183.927 28.1609 183.361 27.6682C182.789 27.1694 182.464 26.6707 182.272 26.33C182.096 25.9742 182.029 25.7796 182.041 25.7735C182.096 25.7339 182.339 26.5855 183.473 27.5344C184.039 27.9875 184.833 28.4589 185.846 28.6809C186.846 28.9151 188.09 28.8969 189.252 28.3282L189.456 28.2278L189.483 28.4498C189.708 30.2654 191.165 32.2636 193.412 32.8536C194.516 33.182 195.742 32.8262 196.758 32.1145C197.78 31.4029 198.661 30.3871 199.251 29.204L199.346 29.0155L199.537 29.0976C200.544 29.5234 201.605 29.9157 202.719 29.9887C203.832 30.0799 204.951 29.7545 205.933 29.1341C207.77 28.0453 208.99 26.1719 209.364 24.2316L209.458 23.7419L209.762 24.1403C210.428 25.0284 211.593 25.445 212.657 25.3751C213.19 25.3416 213.713 25.1987 214.148 24.9311C214.576 24.6725 214.926 24.2437 215.312 23.8757C216.058 23.1276 216.748 22.3733 217.198 21.5309C217.672 20.7006 217.806 19.767 217.578 18.9428L217.508 18.6904L217.77 18.7238C219.348 18.9245 220.814 18.4957 221.918 17.8631C223.043 17.2397 223.822 16.4064 224.348 15.6704C225.388 14.1528 225.422 13.0488 225.495 13.0762Z" fill="#375964"/>
<path d="M247.982 162.248L249.08 151.159L252.902 110.515C250.938 108.444 243.027 105.199 243.027 105.199L223.387 98.1375C223.387 98.1375 221.507 103.53 206.754 103.749C191.663 103.971 185.414 94.5306 185.414 94.5306C177.874 96.9575 161.412 103.207 161.412 103.207L155.795 156.086L155.509 173.54L152.036 262.439C152.036 262.439 250.907 258.242 252.388 257.987L248.386 225.974" fill="#FF725C"/>
<path d="M158.453 107.654C158.453 107.654 144.369 109.901 141.467 127.857C139.597 139.435 133.937 190.428 141.68 204.132C150.634 219.983 231.489 193.39 231.489 193.39L234.254 172.868L171.944 176.992L164.122 133.745" fill="#D9745F"/>
<path d="M135.871 167.956H175.356L164.553 102.094C164.553 102.094 141.92 106.68 138.958 130.326C135.968 154.182 135.871 167.956 135.871 167.956Z" fill="#FF725C"/>
<path d="M140.838 167.956C140.838 167.95 140.896 167.944 141.014 167.938C141.154 167.932 141.324 167.926 141.531 167.916C142.021 167.907 142.687 167.895 143.526 167.88C145.296 167.865 147.802 167.843 150.889 167.816C157.145 167.801 165.761 167.78 175.359 167.752L175.156 167.974C175.113 167.46 175.064 166.91 175.019 166.356C174.188 156.423 173.437 147.433 172.893 140.886C172.643 137.65 172.437 135.022 172.294 133.161C172.233 132.276 172.187 131.576 172.154 131.059C172.142 130.84 172.133 130.661 172.126 130.512C172.123 130.39 172.123 130.326 172.13 130.326C172.136 130.326 172.151 130.387 172.166 130.509C172.184 130.655 172.206 130.834 172.233 131.053C172.288 131.564 172.361 132.264 172.452 133.149C172.625 135.007 172.875 137.631 173.179 140.861C173.754 147.406 174.547 156.393 175.42 166.323C175.469 166.876 175.514 167.427 175.56 167.941L175.578 168.16H175.359C165.761 168.135 157.145 168.111 150.889 168.096C147.802 168.072 145.296 168.05 143.526 168.035C142.687 168.017 142.021 168.005 141.531 167.995C141.324 167.989 141.154 167.98 141.014 167.977C140.896 167.971 140.838 167.962 140.838 167.956Z" fill="#192E35"/>
<path d="M250.938 127.945C250.965 127.945 250.971 128.422 250.956 129.289C250.95 130.156 250.892 131.406 250.819 132.951C250.658 136.041 250.333 140.305 249.889 145C249.445 149.702 248.976 153.948 248.602 157.02C248.417 158.555 248.255 159.796 248.134 160.651C248.009 161.508 247.927 161.98 247.9 161.977C247.872 161.974 247.903 161.496 247.976 160.633C248.064 159.705 248.179 158.476 248.319 156.989C248.623 153.848 249.034 149.629 249.487 144.964C249.931 140.268 250.299 136.013 250.533 132.933C250.64 131.442 250.731 130.211 250.798 129.283C250.862 128.419 250.91 127.945 250.938 127.945Z" fill="#192E35"/>
<path d="M175.973 120.771C175.946 120.783 175.791 120.521 175.526 120.038C175.225 119.475 174.86 118.791 174.431 117.985C173.492 116.27 172.181 113.87 170.189 111.659C168.197 109.448 165.809 108.046 163.957 107.48C162.099 106.887 160.855 106.985 160.861 106.899C160.861 106.875 161.165 106.836 161.719 106.842C162.272 106.848 163.081 106.939 164.043 107.207C165.965 107.714 168.449 109.123 170.49 111.385C172.525 113.648 173.808 116.096 174.684 117.854C175.119 118.739 175.45 119.463 175.669 119.968C175.888 120.473 175.998 120.758 175.973 120.771Z" fill="#192E35"/>
<path d="M274.268 173.893L273.051 190.702L267.464 197.733L253.8 215.868L270.35 216.948C270.35 216.948 289.766 212.121 292.622 206.142C295.48 200.163 295.648 173.893 295.648 173.893" fill="#FFD0B4"/>
<path d="M356.06 117.906L356.99 52.5123C357.589 36.9532 349.852 23.4895 334.284 23.3222L332.846 23.3891C318.363 24.0764 306.818 35.764 306.341 50.2527C305.894 63.7468 305.574 78.6642 306.006 85.872C306.9 100.786 321.936 102.398 321.936 102.398C321.961 102.858 321.918 106.568 321.854 111.02L321.879 118.429" fill="#FFD0B4"/>
<path d="M321.897 102.398C321.897 102.398 331.331 102.502 341.054 95.7319C341.054 95.7319 336.832 106.857 321.878 106.218" fill="#FF9E60"/>
<path d="M330.71 57.8863C331.036 57.9806 332.544 56.8887 334.971 56.3231C337.392 55.7422 339.375 56.0068 339.591 55.7817C339.697 55.6814 339.329 55.4563 338.462 55.3286C337.608 55.1978 336.215 55.2039 334.707 55.5627C333.195 55.9216 332.012 56.5238 331.373 57.0073C330.719 57.4939 330.552 57.8437 330.71 57.8863Z" fill="#192E35"/>
<path d="M333.116 62.4999C333.131 63.5674 334.04 64.4342 335.157 64.4403C336.267 64.4464 337.161 63.5918 337.149 62.5243C337.133 61.4598 336.221 60.59 335.111 60.5809C333.995 60.5748 333.101 61.4325 333.116 62.4999Z" fill="#192E35"/>
<path d="M324.548 74.1754C324.551 74.0446 323.113 73.8682 320.792 73.6797C320.202 73.6492 319.643 73.558 319.524 73.1626C319.366 72.746 319.582 72.1043 319.831 71.4078C320.318 69.9663 320.823 68.4517 321.355 66.8672C323.457 60.4045 324.95 55.1005 324.688 55.0184C324.427 54.9363 322.511 60.1095 320.406 66.5722C319.901 68.1658 319.421 69.6834 318.962 71.1341C318.773 71.8123 318.426 72.5848 318.767 73.4485C318.946 73.8804 319.39 74.1754 319.771 74.2605C320.151 74.3548 320.479 74.3457 320.771 74.3518C323.104 74.3639 324.545 74.3062 324.548 74.1754Z" fill="#192E35"/>
<path d="M332.535 47.6404C332.76 48.2 334.767 47.835 337.155 48.0205C339.545 48.1513 341.495 48.7808 341.784 48.2547C341.911 48.0023 341.553 47.4853 340.753 46.9713C339.959 46.4573 338.712 45.992 337.28 45.8977C335.847 45.8034 334.555 46.1015 333.706 46.5029C332.851 46.9105 332.435 47.3758 332.535 47.6404Z" fill="#192E35"/>
<path d="M308.737 51.6609C308.987 52.1171 310.945 51.667 313.305 51.6548C315.665 51.6001 317.612 51.9924 317.873 51.5271C317.989 51.3051 317.612 50.8915 316.797 50.5144C315.994 50.1342 314.741 49.8301 313.324 49.8483C311.909 49.8696 310.65 50.2133 309.835 50.6147C309.014 51.0162 308.625 51.4419 308.737 51.6609Z" fill="#192E35"/>
<path d="M356.287 63.829C356.552 63.7104 366.99 60.4137 366.877 71.1402C366.764 81.8668 356.017 79.5402 356.004 79.2331C355.989 78.9259 356.287 63.829 356.287 63.829Z" fill="#FFD0B4"/>
<path d="M359.322 75.2033C359.371 75.1698 359.508 75.3371 359.821 75.4861C360.128 75.6291 360.658 75.7325 361.22 75.5287C362.358 75.1242 363.331 73.3359 363.401 71.4017C363.44 70.4285 363.246 69.4948 362.908 68.7223C362.589 67.9347 362.087 67.3811 361.518 67.2717C360.953 67.1348 360.542 67.4724 360.408 67.7735C360.262 68.0715 360.329 68.2874 360.271 68.3026C360.241 68.33 360.043 68.1232 360.134 67.6792C360.18 67.4663 360.308 67.2169 360.563 67.0131C360.822 66.8063 361.202 66.7029 361.6 66.7486C362.425 66.8155 363.16 67.5849 363.532 68.4334C363.951 69.285 364.191 70.3342 364.149 71.4291C364.058 73.5914 362.929 75.6017 361.375 76.0336C360.618 76.2221 359.991 75.9879 359.669 75.7325C359.341 75.4618 359.283 75.2215 359.322 75.2033Z" fill="#FF9E60"/>
<path d="M308.938 56.7641C309.172 57.0105 311.012 56.8919 313.381 57.6704C315.753 58.4277 317.323 59.6533 317.618 59.5803C317.764 59.553 317.557 59.1819 316.879 58.6375C316.21 58.0992 315.011 57.3967 313.533 56.9162C312.058 56.4387 310.741 56.3262 309.948 56.3931C309.142 56.4539 308.822 56.6546 308.938 56.7641Z" fill="#192E35"/>
<path d="M311.8 62.2506C311.812 63.318 312.724 64.1848 313.841 64.1909C314.951 64.2 315.845 63.3424 315.833 62.2749C315.817 61.2104 314.905 60.3406 313.795 60.3315C312.679 60.3254 311.788 61.1831 311.8 62.2506Z" fill="#192E35"/>
<path d="M286.521 36.3815C286.7 35.7885 287.147 35.3049 287.689 35.0038C288.875 34.3439 290.213 34.4685 291.512 34.4838C294.741 34.5142 297.962 33.7691 300.879 32.3822C299.887 31.847 298.966 31.2053 298.19 30.3902C296.587 28.7084 295.705 26.172 296.514 23.9944C296.666 23.5869 296.919 23.1611 297.339 23.0425C298.005 22.857 298.564 23.52 299.011 24.0461C300.486 25.7766 301.864 26.54 304.13 26.3696C305.538 26.2632 306.906 25.9834 308.029 25.3234C308.074 25.2809 308.114 25.2292 308.159 25.1866C308.701 24.6544 309.23 24.1465 309.753 23.6538C309.753 23.6507 309.756 23.6507 309.756 23.6507H309.753C313.679 19.9526 317.037 17.407 320.458 16.1297C325.476 14.2563 333.803 13.6571 338.946 15.1474C344.089 16.6376 348.633 20.9562 349.22 26.2814C352.185 23.9001 356.546 24.0309 360.047 25.5424L360.135 25.5059C364.04 27.0114 366.172 31.2296 367.23 35.2745C367.288 35.4965 367.34 35.7215 367.391 35.9436C368.672 38.0877 370.436 39.9428 372.561 41.2567C372.935 41.4878 373.364 41.7706 373.401 42.2086C373.437 42.6435 373.06 42.9963 372.698 43.2396C371.737 43.8934 370.627 44.3101 369.478 44.4834C369.812 45.4475 370.21 46.3873 370.712 47.2845C371.138 48.0478 371.643 48.9632 371.235 49.7388C370.919 50.3349 370.144 50.566 369.478 50.4504C368.811 50.3349 368.228 49.9517 367.665 49.5745C368.079 50.639 368.489 51.7004 368.903 52.7648C367.47 52.9747 365.998 52.8226 364.624 52.3695C363.693 56.1041 362.626 60.8729 361.592 63.3941C359.946 63.3484 358.395 62.9227 357.358 63.8107C355.947 65.0151 355.272 67.3325 353 66.3897C351.844 65.9092 350.844 63.4336 350.482 62.2353C348.091 54.2824 347.447 45.8094 348.593 37.5828C347.006 35.8037 345.071 34.3317 342.933 33.2764L343.107 33.4406C338.983 31.8895 334.314 30.3476 330.318 32.1998C327.219 33.6383 325.34 36.7677 322.986 39.2433C318.527 43.9391 313.193 46.3873 306.718 46.4998C306.021 50.9766 306.359 56.685 306.031 60.8698L302.329 54.0148L302.326 54.0482C302.05 53.5495 301.824 53.0477 301.606 52.5459L301.529 52.3938V52.3725C301.183 51.5666 300.854 50.7576 300.413 49.9608C300.398 49.9699 300.386 49.9821 300.371 49.9942C298.05 51.9406 294.781 48.7929 296.636 46.3964C297.001 45.9189 297.439 45.4992 297.932 45.1556C296.87 46.1044 295.31 46.5302 293.963 46.0771C292.609 45.6239 291.591 44.2219 291.746 42.8047C291.849 41.8406 292.564 40.9921 293.449 40.6302C291.612 40.7244 289.745 40.2774 288.169 39.3255C287.135 38.702 286.135 37.6893 286.521 36.3815Z" fill="#192E35"/>
<path d="M344.49 27.872C344.46 27.9085 345.105 28.2795 345.95 29.274C346.786 30.2655 347.708 31.9716 348.109 34.2769C348.313 35.4204 348.429 36.6978 348.392 38.0694C348.365 39.438 348.216 40.9069 348.073 42.4488C347.933 43.9938 347.781 45.6269 347.836 47.3301C347.863 48.1786 347.945 49.0453 348.106 49.9121C348.271 50.7667 348.471 51.6912 349.092 52.4363C349.587 53.0446 350.433 53.3305 351.175 53.1967C351.923 53.0841 352.595 52.704 353.094 52.1778C354.079 51.083 354.356 49.6718 354.627 48.428L354.311 48.4584C354.794 49.5958 355.29 50.718 356.044 51.6243C356.783 52.5337 357.826 53.151 358.9 53.2757C359.432 53.3366 359.976 53.2636 360.442 53.0446C360.916 52.8287 361.266 52.4485 361.509 52.044C361.743 51.6304 361.871 51.1742 361.859 50.7332C361.847 50.2892 361.683 49.8665 361.412 49.5623L361.251 49.6992C362.364 51.0343 363.559 51.7703 364.386 52.1809C364.806 52.3846 365.141 52.5093 365.369 52.5915C365.597 52.6644 365.718 52.6949 365.721 52.6888C365.724 52.6766 365.609 52.6279 365.39 52.5367C365.171 52.4394 364.846 52.2995 364.438 52.0775C363.635 51.6426 362.482 50.8914 361.415 49.5654L361.254 49.7022C361.74 50.2466 361.746 51.1773 361.296 51.9163C361.068 52.2812 360.746 52.6188 360.329 52.8013C359.916 52.9929 359.42 53.0537 358.933 52.9929C357.948 52.8682 356.975 52.2934 356.281 51.4266C355.57 50.5599 355.092 49.4681 354.615 48.3306L354.414 47.8471L354.301 48.361C354.031 49.6019 353.742 50.9552 352.845 51.9406C352.398 52.4151 351.78 52.7587 351.126 52.853C350.472 52.9625 349.788 52.7314 349.356 52.2113C348.812 51.5665 348.608 50.6876 348.447 49.8482C348.286 49.0028 348.207 48.1542 348.176 47.3179C348.115 45.6422 348.261 44.0212 348.392 42.4792C348.526 40.9343 348.663 39.4623 348.681 38.0724C348.705 36.6856 348.575 35.39 348.35 34.2283C347.915 31.8956 346.935 30.1651 346.05 29.1858C345.159 28.2005 344.49 27.872 344.49 27.872Z" fill="#375964"/>
<path d="M298.066 41.1837C298.063 41.1898 298.102 41.2232 298.184 41.2901C298.282 41.3662 298.403 41.4574 298.549 41.5699C298.707 41.6977 298.911 41.8436 299.17 41.9896C299.422 42.1447 299.711 42.3333 300.064 42.4914C301.429 43.1818 303.631 43.8934 306.405 43.7992C309.154 43.714 312.475 42.826 315.474 40.7092C318.503 38.6473 321.194 35.5634 323.421 32.0082C324.549 30.2351 325.48 28.4073 326.495 26.7255C327.505 25.0437 328.612 23.4926 329.935 22.2791C331.246 21.0596 332.754 20.1685 334.293 19.7823C335.06 19.5754 335.829 19.545 336.562 19.5815C337.295 19.6393 337.985 19.8035 338.621 20.0316C339.895 20.4939 340.911 21.2299 341.677 21.9781C342.45 22.7353 342.958 23.5261 343.304 24.2012C343.946 25.588 343.961 26.467 344.016 26.4518C344.022 26.4518 344.019 26.4001 344.007 26.2967C343.992 26.172 343.971 26.0229 343.949 25.8374C343.885 25.439 343.727 24.8551 343.426 24.1434C343.092 23.447 342.593 22.6289 341.817 21.8412C341.045 21.0626 340.014 20.2932 338.709 19.8005C338.055 19.5602 337.344 19.3808 336.583 19.3139C335.826 19.2683 335.017 19.2957 334.223 19.5055C332.624 19.8917 331.066 20.8011 329.719 22.0419C328.357 23.2767 327.225 24.8551 326.203 26.5491C325.175 28.2431 324.245 30.0648 323.126 31.8226C320.915 35.3505 318.266 38.4009 315.291 40.4446C312.35 42.5431 309.105 43.4373 306.396 43.5528C303.665 43.6745 301.49 43.0145 300.121 42.3698C298.744 41.7129 298.096 41.1441 298.066 41.1837Z" fill="#375964"/>
<path d="M296.876 34.6085C296.864 34.6298 297.052 34.7667 297.402 34.9948C297.749 35.232 298.281 35.5239 298.962 35.8372C299.641 36.1565 300.486 36.4637 301.444 36.7222C302.408 36.9655 303.488 37.1571 304.637 37.227C305.784 37.2879 306.879 37.224 307.861 37.0932C308.846 36.9442 309.719 36.7374 310.431 36.4971C311.143 36.263 311.708 36.0318 312.076 35.8372C312.453 35.6517 312.654 35.5361 312.642 35.5148C312.615 35.457 311.781 35.8585 310.358 36.2599C309.649 36.4667 308.789 36.6431 307.822 36.7739C306.851 36.8864 305.781 36.9412 304.653 36.8834C303.533 36.8104 302.472 36.634 301.523 36.412C300.58 36.1717 299.741 35.898 299.06 35.6121C297.694 35.0495 296.909 34.5538 296.876 34.6085Z" fill="#375964"/>
<path d="M332.042 78.056C332.042 78.056 326.614 79.6345 324.558 80.3856L325.379 82.7457C326.087 84.7742 328.487 85.866 330.479 84.9232C330.944 84.7042 331.37 84.388 331.732 83.9622C332.362 83.2231 332.635 82.2651 332.593 81.3102C332.547 80.1971 332.246 79.0657 332.042 78.056Z" fill="#FF9E60"/>
<path d="M324.558 80.3857C324.485 80.191 327.772 78.9928 331.936 77.6911L332.328 77.5695L332.413 77.98C332.426 78.0348 332.438 78.0956 332.45 78.1564C332.678 79.227 332.918 80.2884 332.943 81.295C333.016 82.2956 332.654 83.2962 332.152 83.871C331.13 85.0905 330.063 85.1605 330.075 85.0875C330.014 84.9689 330.948 84.6952 331.72 83.5547C332.62 82.4385 332.21 80.4678 331.711 78.3115C331.696 78.2477 331.684 78.1868 331.671 78.1291L332.149 78.418C328.01 79.7014 324.631 80.5773 324.558 80.3857Z" fill="#192E35"/>
<path d="M287.548 275.605L393.233 275.112L387.403 185.218L386.965 158.419L380.773 109.852L357.154 104.789C357.154 104.789 351.245 115.649 336.157 115.427C321.404 115.208 321.878 108.934 321.878 108.934L296.788 118.353C296.788 118.353 283.032 125.047 280.511 131.537C278.054 137.85 273.291 174.194 273.291 174.194L294.93 173.926L292.959 242.683" fill="#375964"/>
<path d="M295.647 142.038C295.663 142.038 295.678 142.202 295.702 142.513C295.724 142.869 295.751 143.316 295.784 143.872C295.839 145.049 295.885 146.761 295.894 148.872C295.924 153.096 295.827 158.929 295.629 165.371C295.432 171.812 295.17 177.639 294.957 181.858C294.839 183.923 294.741 185.617 294.671 186.848C294.629 187.402 294.595 187.852 294.571 188.205C294.54 188.515 294.522 188.676 294.507 188.676C294.495 188.676 294.489 188.512 294.489 188.202C294.495 187.846 294.504 187.396 294.513 186.842C294.553 185.608 294.604 183.914 294.671 181.842C294.814 177.579 295.009 171.773 295.225 165.356C295.422 158.92 295.565 153.09 295.605 148.872C295.635 146.761 295.632 145.055 295.626 143.875C295.623 143.322 295.623 142.869 295.62 142.516C295.623 142.202 295.632 142.041 295.647 142.038Z" fill="#192E35"/>
<path d="M380.043 110.515C380.043 110.515 390.672 111.632 396.369 119.092C401.603 125.947 411.693 147.537 411.426 148.072C411.158 148.607 387.658 164.008 387.658 164.008L381.849 153.294" fill="#375964"/>
<path d="M385.222 121.117C385.237 121.117 385.258 121.26 385.286 121.528C385.31 121.844 385.34 122.23 385.383 122.705C385.459 123.727 385.547 125.208 385.635 127.039C385.818 130.7 385.955 135.764 386.037 141.357C386.119 146.95 386.213 152.011 386.32 155.672C386.371 157.461 386.414 158.926 386.444 160.009C386.454 160.487 386.463 160.876 386.469 161.189C386.469 161.46 386.463 161.603 386.447 161.603C386.432 161.606 386.411 161.463 386.387 161.195C386.359 160.879 386.329 160.493 386.289 160.018C386.21 158.996 386.125 157.515 386.034 155.684C385.854 152.023 385.715 146.956 385.632 141.363C385.55 135.773 385.456 130.713 385.35 127.051C385.298 125.263 385.255 123.797 385.225 122.711C385.216 122.237 385.207 121.847 385.204 121.531C385.204 121.263 385.21 121.12 385.222 121.117Z" fill="#192E35"/>
<path d="M238.083 214.682C238.083 214.682 241.583 217.03 243.785 216.738C245.987 216.443 253.176 214.682 253.176 214.682C253.176 214.682 253.325 215.318 255.232 216.762C257.139 218.204 268.735 220.114 273.58 219.527C278.425 218.937 286.642 215.856 286.642 215.856L284.176 201.979L262.361 205.418L238.083 211.011V213.067" fill="#924C41"/>
<path d="M245.4 203.381C245.4 203.381 243.49 211.747 244.518 212.921C245.546 214.095 246.838 214.387 247.571 212.772C248.307 211.157 249.654 205.418 249.654 205.418L250.536 203.381C250.536 203.381 249.362 217.176 251.71 217.912C254.058 218.645 255.378 217.912 255.378 217.912C255.378 217.912 260.077 221.434 260.369 215.856C260.664 210.278 262.361 203.381 262.361 203.381L263.453 201.565V204.701C263.453 204.701 260.977 212.039 262.361 213.067C263.745 214.095 265.214 214.828 266.092 213.654C266.974 212.48 271.065 203.883 271.971 200.872C271.971 200.872 274.724 204.847 278.562 204.895C281.573 204.938 283.321 203.645 282.093 201.766C280.864 199.886 277.835 198.32 277.835 198.32L273.872 189.059L264.186 186.794H253.176" fill="#FFD0B4"/>
<path d="M229.686 197.429C229.686 197.429 238.94 202.94 243.198 203.965C247.453 204.996 270.274 200.942 270.037 199.5C269.803 198.062 266.829 196.775 264.773 196.48C262.717 196.188 256.701 195.16 256.701 195.16H272.847L280.627 200.078C280.627 200.078 283.388 198.968 282.488 196.711C282.014 195.513 275.928 190.756 275.928 190.756L261.105 187.822L234.831 186.794" fill="#FFC09C"/>
<path d="M238.353 172.703C238.353 172.703 264.627 177.107 265.214 177.84C265.801 178.573 272.552 186.207 272.552 186.207C272.552 186.207 282.674 189.686 281.357 191.93C280.043 194.175 277.102 192.812 277.102 192.812C277.102 192.812 281.214 199.269 279.304 200.589C277.397 201.912 275.341 201.03 273.872 199.123C272.403 197.213 268.149 190.169 268.149 190.169C268.149 190.169 271.67 204.555 269.909 204.996C268.149 205.434 265.36 205.58 264.186 201.912C263.012 198.244 262.717 196.188 262.717 196.188L257.139 186.94C257.139 186.94 259.341 203.828 258.021 205.218C258.021 205.218 254.645 206.315 253.471 203.378C252.297 200.443 250.682 193.734 250.682 193.734L247.894 186.353L247.599 191.048C247.599 191.048 249.95 199.71 248.481 200.297C247.012 200.884 245.105 200.303 244.077 198.32C243.049 196.334 241.921 194.007 241.434 192.076C241.145 190.93 239.588 187.022 239.588 187.022L234.01 186.289" fill="#D9745F"/>
<path d="M270.7 183.962C270.791 183.898 272.351 185.957 274.185 188.557C276.019 191.161 277.43 193.323 277.339 193.39C277.245 193.454 275.685 191.395 273.854 188.792C272.02 186.188 270.609 184.026 270.7 183.962Z" fill="#8D4132"/>
<path d="M261.947 179.102C261.99 179.072 262.476 179.619 263.176 180.574C263.878 181.526 264.773 182.898 265.645 184.479C266.521 186.058 267.215 187.539 267.677 188.627C268.139 189.716 268.373 190.407 268.325 190.428C268.273 190.452 267.942 189.798 267.415 188.746C266.892 187.694 266.159 186.243 265.293 184.674C264.423 183.108 263.574 181.724 262.939 180.735C262.306 179.744 261.899 179.139 261.947 179.102Z" fill="#8D4132"/>
<path d="M254.213 179.884C254.241 179.844 254.648 180.069 255.141 180.617C255.64 181.161 256.184 182.046 256.537 183.111C256.893 184.172 257.032 185.173 257.108 185.887C257.181 186.608 257.188 187.052 257.133 187.061C257.075 187.07 256.969 186.635 256.826 185.933C256.677 185.23 256.494 184.26 256.15 183.238C255.813 182.22 255.338 181.362 254.919 180.799C254.505 180.231 254.174 179.933 254.213 179.884Z" fill="#8D4132"/>
<path d="M244.883 180.681C244.904 180.635 245.293 180.76 245.829 181.137C246.358 181.508 247.018 182.171 247.465 183.077C247.915 183.98 248.04 184.908 248.012 185.556C247.985 186.213 247.848 186.596 247.799 186.584C247.675 186.584 247.954 184.963 247.103 183.257C246.263 181.544 244.807 180.778 244.883 180.681Z" fill="#8D4132"/>
<path d="M284.176 201.979L350.244 186.794C350.244 186.794 410.392 151.734 411.316 151.168C412.341 150.539 406.663 186.794 406.663 186.794C406.663 186.794 368.346 206.982 357.315 209.6C351.309 211.023 284.659 216.565 284.659 216.565" fill="#924C41"/>
<path d="M446.832 57.8011C450.905 53.4095 460.84 54.1729 463.17 57.1108C466.64 55.3499 471.412 56.9891 473.069 60.5079C476.588 61.3138 480.107 62.1197 483.626 62.9257C485.426 63.3362 487.309 63.7924 488.683 65.0241C490.058 66.2559 490.684 68.5338 489.529 69.9723C493.245 70.979 494.65 76.5414 491.858 79.1934C493.367 80.8083 493.035 83.7492 491.207 84.987C494.094 88.518 496.372 92.5416 497.907 96.8358C498.552 98.6302 499.063 100.631 498.382 102.414C497.701 104.196 495.338 105.406 493.799 104.275C494.842 105.732 494.912 107.818 493.972 109.342C495.76 109.402 496.268 112.176 495.024 113.465C493.783 114.752 491.782 114.871 489.994 114.813C488.206 114.752 486.268 114.642 484.787 115.649C484.848 116.184 485.055 116.537 485.359 116.79C488.409 119.317 489.24 123.632 486.904 126.829C486.688 127.127 486.484 127.401 486.308 127.647C485.256 129.107 482.68 130.43 481.074 131.248C477.008 133.319 474.602 132.896 470.077 133.504C471.281 136.43 463.882 142.811 455.549 136.388C438.752 140.724 426.656 142.315 409.309 142.193C406.833 142.175 403.862 141.81 402.786 139.581C400.775 140.095 398.619 139.14 397.15 137.674C395.681 136.205 394.766 134.286 393.881 132.41C389.608 131.217 386.344 127.054 386.214 122.617C383.334 120.324 381.494 116.768 381.281 113.091C377.126 111.778 374.882 106.349 376.898 102.487C377.844 97.3893 379.641 92.4503 382.19 87.934C379.359 87.2954 378.328 83.4573 379.52 80.8083C380.712 78.1624 383.312 76.4776 385.776 74.9417C383.65 75.4861 381.825 72.8037 382.351 70.6718C382.877 68.5399 384.815 67.0861 386.706 65.9761C389.48 64.3459 392.454 63.0564 395.538 62.138C396.584 58.4124 401.399 54.2094 404.911 52.5884C419.084 46.0497 428.983 44.456 446.832 57.8011Z" fill="#192E35"/>
<path d="M407.289 84.3029C408.509 74.6012 415.704 63.0535 425.342 64.6836L455.168 74.2241C458.097 74.7198 460.162 77.3718 459.918 80.334L454.861 145.192C454.201 153.644 447.686 160.465 439.274 161.512C428.496 162.85 419.035 154.328 419.235 143.471C419.32 139.009 419.372 135.655 419.369 135.676C419.369 135.676 407.055 132.838 405.486 116.443C404.707 108.292 405.936 95.0811 407.289 84.3029Z" fill="#924C41"/>
<path d="M412.737 97.4837C412.627 98.5785 413.47 99.5761 414.613 99.7069C415.754 99.8407 416.769 99.0621 416.876 97.9642C416.982 96.8663 416.143 95.8718 415.002 95.738C413.856 95.6042 412.843 96.3858 412.737 97.4837Z" fill="#192E35"/>
<path d="M409.731 91.3646C409.975 91.6535 411.623 90.5861 413.864 90.729C416.103 90.8415 417.675 92.0976 417.937 91.8391C418.061 91.7235 417.83 91.2156 417.146 90.653C416.474 90.0873 415.303 89.5094 413.907 89.4273C412.511 89.3483 411.307 89.7892 410.598 90.2758C409.877 90.7594 409.613 91.2369 409.731 91.3646Z" fill="#192E35"/>
<path d="M433.277 98.3413C433.171 99.4392 434.01 100.437 435.154 100.568C436.294 100.701 437.31 99.9228 437.416 98.8249C437.523 97.727 436.683 96.7325 435.543 96.5987C434.399 96.4648 433.384 97.2464 433.277 98.3413Z" fill="#192E35"/>
<path d="M431.729 93.1529C431.969 93.4388 433.624 92.3713 435.862 92.5173C438.1 92.6298 439.673 93.8828 439.931 93.6243C440.059 93.5087 439.828 93.0039 439.144 92.4382C438.471 91.8756 437.301 91.2977 435.905 91.2156C434.509 91.1365 433.301 91.5775 432.593 92.0611C431.875 92.5477 431.61 93.0221 431.729 93.1529Z" fill="#192E35"/>
<path d="M422.566 109.262C422.584 109.135 421.206 108.809 418.968 108.381C418.399 108.286 417.864 108.137 417.794 107.742C417.681 107.319 417.961 106.717 418.281 106.069C418.904 104.719 419.558 103.302 420.242 101.817C422.976 95.7623 424.996 90.7685 424.749 90.659C424.506 90.5526 422.088 95.373 419.354 101.428C418.694 102.924 418.062 104.348 417.463 105.71C417.204 106.346 416.787 107.061 417.025 107.936C417.152 108.374 417.554 108.712 417.913 108.831C418.275 108.967 418.594 108.992 418.877 109.028C421.139 109.293 422.548 109.39 422.566 109.262Z" fill="#192E35"/>
<path d="M419.369 135.676C419.369 135.676 430.248 137.06 441.473 131.23C441.473 131.23 435.503 142.053 419.351 139.523" fill="#66302A"/>
<path d="M431.312 83.8679C431.495 84.4914 433.748 84.3424 436.358 84.8229C438.976 85.2486 441.047 86.1489 441.43 85.6258C441.604 85.3733 441.269 84.7773 440.448 84.1355C439.636 83.4938 438.316 82.8491 436.747 82.5754C435.181 82.3047 433.721 82.4659 432.738 82.7974C431.75 83.1258 431.233 83.5729 431.312 83.8679Z" fill="#192E35"/>
<path d="M411 83.7067C411.365 84.2389 412.941 83.8071 414.799 83.8983C416.657 83.9226 418.205 84.4518 418.6 83.9409C418.774 83.6945 418.558 83.1684 417.901 82.6453C417.253 82.1222 416.146 81.6599 414.869 81.6204C413.588 81.5808 412.457 81.9701 411.779 82.4537C411.088 82.9342 410.842 83.4451 411 83.7067Z" fill="#192E35"/>
<path d="M399.851 91.982C400.048 89.4395 400.894 86.8636 402.67 85.0327C403.64 84.0291 404.866 83.2718 405.732 82.177C407.603 79.8048 407.399 76.4655 408.229 73.561C409.294 69.8203 412.286 66.6817 415.975 65.4378C419.041 64.4007 422.496 64.6075 425.382 63.1386C427.514 62.0559 429.159 60.1338 431.352 59.1789C435.625 57.3146 440.506 59.5742 444.469 62.0316C445.208 65.2249 443.146 67.9408 441.163 70.5502C439.177 73.1596 435.999 74.8201 432.724 74.96C430.181 75.0695 427.228 74.443 425.412 76.2222C423.499 78.0956 424.169 81.4653 422.59 83.6216C420.33 86.7054 415.331 85.4311 411.997 87.3045C409.424 88.7491 408.299 91.7813 406.97 94.415C405.641 97.0518 403.375 99.7859 400.428 99.5943C400.042 97.0731 399.653 94.5245 399.851 91.982Z" fill="#192E35"/>
<path d="M438.034 67.7096C445.451 67.7248 452.866 69.1968 459.727 72.016C461.774 72.8554 463.888 73.9138 465.028 75.8085C466.032 77.4751 466.12 79.5219 466.062 81.4653C465.886 87.5508 463.304 94.9594 460.886 100.546L453.204 104.962C447.373 103.475 450.238 93.4144 450.609 88.3537C446.555 86.4894 443.782 82.1313 443.809 77.6698C440.5 75.4648 438.301 71.6754 438.034 67.7096Z" fill="#192E35"/>
<path d="M453.346 102.779C453.638 99.3023 457.923 98.7002 460.886 100.546C462.51 101.559 463.711 103.53 463.434 107.222C462.698 117.066 452.966 114.296 452.969 114.01C452.972 113.834 453.006 106.848 453.346 102.779Z" fill="#924C41"/>
<path d="M456.257 110.506C456.302 110.479 456.418 110.64 456.698 110.795C456.972 110.944 457.449 111.069 457.978 110.917C459.046 110.613 460.046 109.025 460.229 107.255C460.32 106.361 460.198 105.494 459.931 104.765C459.684 104.022 459.259 103.484 458.742 103.35C458.228 103.192 457.832 103.478 457.692 103.746C457.54 104.01 457.586 104.211 457.534 104.226C457.504 104.248 457.336 104.044 457.446 103.645C457.501 103.451 457.635 103.226 457.878 103.055C458.13 102.882 458.483 102.809 458.845 102.876C459.602 102.985 460.232 103.734 460.524 104.536C460.855 105.345 461.016 106.322 460.913 107.325C460.7 109.305 459.544 111.084 458.091 111.388C457.385 111.519 456.823 111.267 456.543 111.011C456.257 110.747 456.22 110.522 456.257 110.506Z" fill="#66302A"/>
<path d="M460.983 116.771C461.476 116.799 462.008 116.778 462.567 116.698C463.127 116.619 463.723 116.486 464.304 116.206L464.185 116.145C464.374 117.492 465.235 118.955 466.731 119.77C468.209 120.585 470.323 120.564 471.938 119.396L471.77 119.363C472.05 119.81 472.522 120.135 473.048 120.248C473.568 120.378 474.13 120.327 474.644 120.144C475.164 119.962 475.639 119.606 475.949 119.125C476.259 118.648 476.433 118.085 476.478 117.51C476.566 116.355 476.168 115.166 475.462 114.205C474.766 113.225 473.838 112.422 472.908 111.629L472.887 111.857C473.726 111.382 474.289 110.494 474.492 109.548C474.702 108.596 474.626 107.572 474.261 106.635C473.893 105.701 473.282 104.874 472.582 104.147C471.877 103.414 471.083 102.769 470.283 102.131L470.295 102.353C471.04 101.638 471.369 100.549 471.317 99.5092C471.269 98.463 470.898 97.4198 470.256 96.5622C469.015 94.926 467.19 93.9954 465.508 93.1225L465.581 93.2928C466.153 91.1457 465.548 88.8039 464.137 87.2377C462.72 85.6623 460.591 84.8928 458.617 85.0905L458.766 85.2608C459.186 83.4999 458.562 81.7025 457.516 80.4404C456.473 79.1631 454.937 78.3419 453.389 78.3207L453.511 78.4484C453.541 76.6419 452.562 75.0756 451.348 74.1115C450.129 73.1292 448.602 72.7004 447.249 72.9011L447.361 72.9984C447.346 72.0374 447.008 71.1858 446.604 70.4559C446.193 69.726 445.695 69.1026 445.141 68.622C444.061 67.6154 442.802 67.1926 441.796 67.1075C441.671 67.0953 441.546 67.0862 441.428 67.074C441.309 67.0771 441.19 67.0892 441.081 67.0953C440.856 67.1197 440.643 67.1105 440.454 67.1561C440.077 67.2565 439.749 67.293 439.509 67.4055C439.274 67.4998 439.089 67.5758 438.952 67.6306C438.83 67.6823 438.77 67.7127 438.77 67.7157C438.773 67.7188 438.836 67.7005 438.964 67.658C439.104 67.6093 439.287 67.5424 439.524 67.4572C439.767 67.3538 440.096 67.3265 440.467 67.2352C440.652 67.1957 440.862 67.2079 441.084 67.1896C441.193 67.1866 441.309 67.1714 441.425 67.1744C441.543 67.1866 441.665 67.1987 441.786 67.2139C442.769 67.3113 443.991 67.7401 445.041 68.7346C445.576 69.209 446.056 69.8264 446.452 70.5411C446.841 71.2527 447.16 72.0921 447.166 72.9954V73.1079L447.279 73.0927C448.575 72.9133 450.037 73.3299 451.211 74.2849C452.376 75.2186 453.301 76.7331 453.264 78.4423L453.261 78.564L453.386 78.567C454.849 78.5913 456.315 79.379 457.312 80.6077C458.313 81.8212 458.894 83.5425 458.495 85.1939L458.45 85.3855L458.644 85.3673C460.53 85.1818 462.571 85.9269 463.921 87.4293C465.265 88.9256 465.84 91.1731 465.295 93.2168L465.265 93.3324L465.372 93.3871C467.053 94.26 468.836 95.1784 470.016 96.7416C470.621 97.5506 470.974 98.539 471.016 99.5213C471.065 100.501 470.758 101.492 470.085 102.14L469.964 102.258L470.098 102.362C471.682 103.621 473.276 104.95 473.99 106.741C474.337 107.62 474.41 108.593 474.212 109.485C474.021 110.373 473.507 111.185 472.75 111.613L472.573 111.711L472.728 111.842C473.659 112.632 474.568 113.417 475.243 114.36C475.925 115.287 476.299 116.403 476.22 117.489C476.159 118.563 475.545 119.597 474.562 119.913C473.629 120.266 472.461 120.053 471.968 119.244L471.901 119.138L471.801 119.211C470.271 120.33 468.239 120.363 466.825 119.594C465.387 118.824 464.541 117.416 464.347 116.121L464.331 116.011L464.231 116.06C463.678 116.337 463.094 116.47 462.546 116.556C461.999 116.638 461.473 116.665 460.989 116.647C460.019 116.616 459.195 116.434 458.593 116.145C457.993 115.856 457.61 115.476 457.47 115.157C457.318 114.849 457.297 114.664 457.279 114.67C457.276 114.67 457.285 114.712 457.306 114.801C457.336 114.883 457.336 115.029 457.431 115.178C457.562 115.509 457.948 115.914 458.556 116.221" fill="#375964"/>
<path d="M495.009 104.764C495.009 104.764 495.173 104.582 495.392 104.174C495.605 103.767 495.873 103.122 495.949 102.234C496.022 101.358 495.891 100.209 495.195 99.1259C494.516 98.0585 493.282 97.0609 491.664 96.7933L491.743 96.9119C492.086 95.4095 491.87 93.6091 490.937 92.0337C490.481 91.243 489.842 90.5161 489.042 89.9504C488.242 89.3665 487.275 89.0563 486.369 88.6336C485.916 88.4207 485.472 88.1743 485.091 87.8428C484.711 87.5144 484.419 87.0916 484.212 86.6172C483.79 85.6622 483.668 84.5431 483.133 83.5151C482.065 81.4957 479.648 80.1058 477.181 80.4373L477.348 80.6077C477.71 78.3602 477.029 75.8572 475.396 74.0537C473.696 72.1773 471.132 71.2588 468.754 71.5051L468.915 71.6694C469.259 68.7862 467.683 65.9639 465.354 64.7201C463.009 63.4671 460.189 63.7286 458.243 65.0029L458.401 65.0211C457.407 63.9932 456.187 63.3241 454.995 62.8588C453.797 62.4056 452.608 62.1046 451.473 61.986C449.207 61.6879 447.203 61.9221 445.622 62.281C444.037 62.6611 442.857 63.1964 442.124 63.6617C441.741 63.8685 441.498 64.1057 441.312 64.2335C441.136 64.3673 441.051 64.4433 441.051 64.4433C441.066 64.4676 441.422 64.1696 442.164 63.7286C442.903 63.2846 444.08 62.7767 445.652 62.4209C447.225 62.0863 449.211 61.8765 451.446 62.1897C452.565 62.3144 453.736 62.6185 454.91 63.0717C456.078 63.534 457.264 64.197 458.222 65.1945L458.295 65.2705L458.38 65.2127C460.253 63.9993 462.978 63.756 465.22 64.9664C467.446 66.1555 468.957 68.8836 468.623 71.6329L468.602 71.8184L468.784 71.7971C471.065 71.566 473.544 72.454 475.174 74.2544C476.743 75.9849 477.4 78.4027 477.056 80.559L477.026 80.7567L477.224 80.7293C479.547 80.41 481.871 81.736 482.883 83.6489C483.391 84.61 483.519 85.72 483.963 86.7267C484.179 87.2285 484.504 87.6938 484.915 88.0466C485.326 88.3994 485.794 88.6549 486.259 88.8677C487.19 89.2996 488.139 89.6007 488.899 90.1542C489.672 90.6895 490.292 91.389 490.736 92.1493C491.648 93.6699 491.87 95.4126 491.551 96.8693L491.53 96.9727L491.633 96.9879C493.187 97.2312 494.395 98.1832 495.064 99.2111C495.751 100.251 495.897 101.367 495.839 102.225C495.785 103.098 495.535 103.74 495.344 104.15C495.143 104.561 494.997 104.755 495.009 104.764Z" fill="#375964"/>
<path d="M400.693 105.841C400.678 105.853 400.903 105.577 400.745 105.032C400.666 104.771 400.48 104.473 400.182 104.205C399.89 103.928 399.455 103.737 398.975 103.572C398.497 103.402 397.941 103.259 397.448 102.903C396.955 102.55 396.572 101.982 396.365 101.304C396.146 100.625 396.095 99.8559 396.155 99.0439C396.204 98.2319 396.347 97.3712 396.362 96.4497C396.411 94.5793 395.651 92.6694 395.206 90.6013C394.991 89.5673 394.911 88.4542 395.127 87.3563C395.34 86.2706 395.933 85.1909 396.961 84.6161C397.977 84.017 399.218 83.8527 400.437 83.503C401.049 83.3266 401.669 83.0955 402.217 82.7092C402.776 82.3351 403.193 81.7695 403.491 81.1734C404.093 79.9599 404.26 78.6066 404.595 77.311C404.756 76.6601 404.963 76.0184 405.31 75.4528C405.644 74.884 406.17 74.4522 406.782 74.2028C407.639 73.8987 408.585 73.9595 409.516 73.8774C409.984 73.8378 410.461 73.7527 410.902 73.555C411.347 73.3573 411.736 73.041 412.01 72.6517C412.572 71.8762 412.785 70.973 413.083 70.1518C413.36 69.3185 413.789 68.5734 414.36 67.9499C415.489 66.6939 417.107 65.9701 418.685 65.9701C420.267 65.9579 421.781 66.5662 422.846 67.5546L422.973 67.6732L423.049 67.515C424.314 64.857 426.714 63.1782 428.989 62.5608C430.135 62.2506 431.267 62.208 432.289 62.3327C433.311 62.4513 434.226 62.7402 434.983 63.1326C436.513 63.9233 437.362 65.0455 437.818 65.8271C438.058 66.2195 438.198 66.5449 438.292 66.7638C438.338 66.8642 438.371 66.9433 438.405 67.0071C438.429 67.0619 438.444 67.0893 438.447 67.0893C438.45 67.0893 438.441 67.0588 438.423 67.0011C438.399 66.9342 438.365 66.849 438.329 66.7486C438.247 66.5236 438.116 66.1921 437.885 65.7876C437.447 64.9847 436.604 63.826 435.053 62.9988C434.284 62.5882 433.35 62.2841 432.31 62.1533C431.27 62.0134 430.114 62.0468 428.934 62.357C426.602 62.9714 424.132 64.6715 422.815 67.4056L423.022 67.366C421.912 66.3259 420.336 65.6872 418.685 65.6933C417.028 65.6903 415.328 66.4445 414.144 67.7553C413.548 68.4 413.089 69.2029 412.806 70.0545C412.505 70.8878 412.286 71.7728 411.769 72.4754C411.274 73.2053 410.392 73.5215 409.491 73.5793C408.588 73.6614 407.618 73.5915 406.678 73.923C406 74.1906 405.416 74.6803 405.054 75.2976C404.683 75.9059 404.47 76.578 404.306 77.238C403.971 78.5548 403.798 79.893 403.229 81.0426C402.943 81.6083 402.563 82.1253 402.049 82.472C401.541 82.8309 400.954 83.0529 400.358 83.2262C399.169 83.576 397.901 83.7372 396.821 84.3789C396.289 84.6952 395.821 85.1301 395.508 85.6501C395.188 86.1641 394.984 86.7328 394.869 87.3046C394.65 88.4511 394.738 89.5977 394.963 90.65C395.428 92.7515 396.186 94.631 396.149 96.4466C396.14 97.3469 396.006 98.2075 395.964 99.0317C395.912 99.8559 395.97 100.653 396.204 101.355C396.426 102.058 396.84 102.654 397.363 103.019C397.892 103.387 398.461 103.521 398.938 103.682C399.419 103.84 399.835 104.013 400.124 104.272C400.416 104.524 400.602 104.804 400.687 105.05C400.86 105.561 400.659 105.841 400.693 105.841Z" fill="#375964"/>
<path d="M381.819 90.2484C381.825 90.2514 381.859 90.1906 381.923 90.0659C381.996 89.9291 382.087 89.7496 382.205 89.5185C382.452 89.0167 382.808 88.3081 383.258 87.3987C383.717 86.4803 384.237 85.3337 384.976 84.0777C385.712 82.846 386.719 81.4409 388.337 80.5954C389.143 80.1788 390.067 79.9081 391.001 79.5127C391.463 79.312 391.934 79.0748 392.36 78.7463C392.789 78.424 393.151 77.986 393.385 77.4781C393.872 76.4623 393.905 75.3036 394.294 74.2513C394.495 73.7313 394.802 73.2447 395.268 72.9223C395.724 72.5847 396.29 72.3931 396.864 72.2137C397.439 72.0342 398.047 71.8761 398.619 71.575C399.2 71.2922 399.684 70.7873 399.991 70.2064C400.602 69.0173 400.632 67.667 400.897 66.3957C401.028 65.7601 401.213 65.1214 401.581 64.5983C401.943 64.0661 402.527 63.7194 403.163 63.5947C404.464 63.3484 405.851 63.8228 407.299 63.619C408.02 63.5126 408.707 63.1537 409.212 62.6489C409.723 62.144 410.106 61.551 410.468 60.9731C410.83 60.3923 411.17 59.8083 411.578 59.2913C411.979 58.7713 412.466 58.3242 413.05 58.0748C414.233 57.5548 415.559 57.871 416.773 58.1691C417.992 58.4732 419.266 58.8017 420.51 58.5584C421.745 58.3303 422.806 57.719 423.792 57.129C424.78 56.5451 425.717 55.9155 426.721 55.5688C428.746 54.8845 430.823 55.0153 432.572 55.4806C434.336 55.952 435.774 56.8431 436.866 57.7859C437.967 58.7408 438.67 59.7931 439.211 60.6568C439.695 61.554 440.032 62.2778 440.196 62.7918C440.291 63.0351 440.361 63.2237 440.415 63.3666C440.467 63.4974 440.494 63.5613 440.501 63.5613C440.507 63.5613 440.488 63.4913 440.446 63.3605C440.397 63.2115 440.336 63.0199 440.254 62.7736C440.108 62.2505 439.786 61.5145 439.311 60.5991C438.782 59.7171 438.083 58.6405 436.979 57.6612C435.881 56.691 434.421 55.7726 432.63 55.2768C430.851 54.7902 428.734 54.6382 426.635 55.3346C425.589 55.6935 424.646 56.323 423.655 56.9039C422.676 57.4848 421.632 58.0748 420.462 58.2847C419.288 58.5128 418.068 58.2025 416.839 57.8923C416.222 57.7403 415.589 57.5821 414.926 57.5243C414.27 57.4666 413.567 57.5274 412.931 57.8072C412.29 58.0779 411.764 58.5675 411.347 59.1058C410.921 59.6471 410.574 60.2372 410.216 60.815C409.854 61.3898 409.48 61.9616 409.002 62.433C408.528 62.9043 407.916 63.2206 407.253 63.324C405.903 63.5248 404.519 63.0442 403.105 63.3028C402.406 63.4366 401.74 63.8319 401.341 64.425C400.934 65.0089 400.745 65.6841 400.608 66.3379C400.344 67.6396 400.307 68.9717 399.735 70.0726C399.449 70.6109 399.027 71.058 398.488 71.3256C397.956 71.6115 397.363 71.7666 396.782 71.9521C396.204 72.1316 395.608 72.3323 395.11 72.7033C394.596 73.0592 394.255 73.6096 394.048 74.1601C393.647 75.2732 393.616 76.4198 393.16 77.3717C392.734 78.3449 391.81 78.9136 390.907 79.2998C389.997 79.6952 389.063 79.972 388.239 80.4069C386.57 81.298 385.56 82.7426 384.83 83.9925C384.1 85.2668 383.598 86.4225 383.151 87.347C382.722 88.2685 382.388 88.9863 382.151 89.4911C382.044 89.7284 381.959 89.9139 381.895 90.0538C381.84 90.1815 381.813 90.2484 381.819 90.2484Z" fill="#375964"/>
<path d="M392.484 80.1119C392.487 80.1088 392.427 80.0967 392.305 80.0784C392.186 80.0784 391.995 80.0784 391.779 80.1849C391.347 80.3886 390.854 81.006 390.769 81.9154C390.733 82.3746 390.836 82.8673 390.952 83.3934C391.067 83.9165 391.219 84.4913 391.18 85.1026C391.14 85.7169 390.848 86.3282 390.453 86.9122C390.06 87.4991 389.565 88.0739 389.16 88.7765C388.741 89.4547 388.531 90.4035 388.871 91.2521C389.169 92.0975 389.769 92.8092 390.054 93.6699C390.346 94.5275 390.149 95.4946 389.738 96.3766C389.34 97.2707 388.774 98.1345 388.382 99.1289C388.184 99.6247 388.044 100.166 388.038 100.726C388.029 101.285 388.16 101.845 388.382 102.362C388.841 103.399 389.58 104.269 390.21 105.205C390.842 106.127 391.365 107.207 391.198 108.344C391.052 109.481 390.395 110.512 389.948 111.65C389.726 112.222 389.556 112.83 389.553 113.456C389.55 114.08 389.717 114.691 389.984 115.236C390.523 116.33 391.344 117.185 392.062 118.061C392.789 118.931 393.436 119.837 393.737 120.88C394.075 121.911 394.236 122.991 394.708 123.967C394.942 124.451 395.267 124.901 395.687 125.232C396.107 125.57 396.599 125.761 397.071 125.926C397.542 126.093 398.007 126.23 398.43 126.437C398.844 126.652 399.224 126.917 399.555 127.233C400.212 127.869 400.693 128.629 401.134 129.368C401.575 130.11 401.982 130.84 402.445 131.494C403.357 132.823 404.628 133.684 405.833 134.079C407.04 134.496 408.165 134.551 409.047 134.444C409.938 134.338 410.601 134.101 411.024 133.903C411.444 133.699 411.647 133.559 411.647 133.559C411.629 133.495 410.802 134.14 409.035 134.329C408.165 134.417 407.064 134.341 405.89 133.921C404.713 133.517 403.497 132.677 402.618 131.372C402.168 130.728 401.772 130.001 401.331 129.25C400.897 128.505 400.41 127.723 399.729 127.054C399.382 126.722 398.984 126.437 398.543 126.208C398.099 125.986 397.621 125.843 397.159 125.679C396.697 125.512 396.234 125.326 395.857 125.019C395.474 124.715 395.179 124.305 394.957 123.845C394.513 122.924 394.352 121.85 394.011 120.792C393.701 119.709 393.017 118.748 392.29 117.872C391.563 116.99 390.76 116.139 390.252 115.108C390.003 114.594 389.851 114.031 389.851 113.456C389.857 112.885 390.012 112.313 390.228 111.759C390.657 110.655 391.332 109.612 391.493 108.384C391.578 107.775 391.487 107.152 391.283 106.589C391.076 106.027 390.775 105.519 390.453 105.041C389.808 104.089 389.081 103.232 388.646 102.249C388.433 101.76 388.315 101.243 388.318 100.729C388.324 100.215 388.449 99.7068 388.64 99.2293C389.014 98.2713 389.571 97.4045 389.978 96.483C390.398 95.5828 390.617 94.5214 390.289 93.5908C389.972 92.6723 389.373 91.9668 389.09 91.173C388.771 90.3853 388.95 89.5459 389.346 88.8799C389.729 88.2017 390.219 87.6208 390.614 87.0186C391.006 86.4195 391.31 85.7717 391.347 85.1148C391.38 84.4639 391.213 83.8831 391.095 83.36C390.97 82.8399 390.857 82.3533 390.885 81.9245C390.949 81.0516 391.405 80.4464 391.806 80.2396C392.223 80.0328 392.49 80.1423 392.484 80.1119Z" fill="#375964"/>
<path d="M494.769 104.439C494.769 104.439 495.043 104.457 495.55 104.375C496.055 104.284 496.816 104.077 497.643 103.521C498.458 102.973 499.367 102.04 499.775 100.653C500.182 99.2993 500.091 97.505 499.054 95.9843C498.537 95.2332 497.825 94.5975 497.12 93.9224C496.42 93.2533 495.678 92.5203 495.319 91.5471C494.936 90.5739 495.122 89.4517 495.529 88.4177C495.925 87.3654 496.521 86.3466 496.904 85.1818C497.655 82.8673 497.539 80.0967 496.286 77.7002C495.046 75.3159 492.676 73.3877 489.848 72.7399L489.93 72.9711C490.396 72.3506 490.7 71.6086 490.824 70.833C490.943 70.0575 490.906 69.2577 490.721 68.4852C490.532 67.7157 490.222 66.9676 489.772 66.3015C489.322 65.6325 488.762 65.0425 488.133 64.5376C486.229 63.02 483.918 62.2719 481.694 61.7974C479.45 61.3291 477.202 61.2105 475.071 61.3899L475.226 61.5298C475.192 58.8778 473.58 56.4478 471.378 55.3925C470.287 54.8512 469.082 54.62 467.927 54.6626C466.753 54.693 465.685 55.134 464.679 55.4594C464.168 55.6176 463.66 55.7483 463.152 55.7818C462.644 55.8213 462.142 55.7423 461.668 55.5963C460.719 55.3043 459.892 54.766 459.086 54.2824C458.28 53.7867 457.462 53.3457 456.613 53.0963C455.771 52.8378 454.928 52.7162 454.128 52.7162C452.523 52.704 451.102 53.142 450.014 53.7563C448.916 54.3706 448.128 55.1218 447.577 55.794C447.024 56.4691 446.705 57.0652 446.51 57.4697C446.315 57.8803 446.251 58.1084 446.251 58.1084C446.264 58.1144 446.346 57.8924 446.553 57.494C446.762 57.0956 447.094 56.5147 447.65 55.8578C448.207 55.2039 448.998 54.471 450.08 53.881C451.157 53.2879 452.553 52.8743 454.125 52.8956C454.91 52.9078 455.731 53.0294 456.555 53.2849C457.379 53.5373 458.17 53.9692 458.97 54.468C459.776 54.9546 460.609 55.505 461.601 55.8213C462.093 55.9734 462.629 56.0616 463.167 56.0221C463.705 55.9916 464.231 55.8548 464.752 55.6936C465.786 55.3682 466.813 54.9485 467.936 54.9242C469.052 54.8846 470.211 55.1097 471.257 55.6358C473.367 56.6516 474.909 58.9934 474.937 61.5328L474.94 61.6879L475.095 61.6758C477.202 61.5024 479.42 61.6241 481.634 62.0863C483.829 62.5577 486.104 63.3029 487.941 64.7687C488.552 65.2584 489.094 65.8332 489.523 66.4688C489.955 67.1014 490.25 67.8191 490.432 68.5551C490.608 69.2911 490.639 70.0545 490.532 70.7874C490.414 71.5173 490.128 72.2138 489.696 72.7947L489.562 72.9771L489.781 73.0258C492.524 73.6493 494.833 75.5196 496.037 77.828C497.257 80.1515 497.381 82.8491 496.657 85.1027C496.293 86.234 495.699 87.2559 495.298 88.3325C494.887 89.3878 494.69 90.5861 495.103 91.6262C495.496 92.6602 496.271 93.4084 496.977 94.0775C497.688 94.7465 498.391 95.373 498.896 96.0938C499.909 97.5506 500.012 99.2902 499.629 100.61C499.249 101.96 498.376 102.885 497.585 103.432C496.782 103.995 496.04 104.214 495.541 104.32C495.04 104.421 494.769 104.421 494.769 104.439Z" fill="#192E35"/>
<path d="M389.133 73.2752C389.139 73.2752 389.152 73.2114 389.167 73.0867C389.182 72.9468 389.203 72.7643 389.228 72.5362C389.285 72.0283 389.361 71.3167 389.462 70.4104C389.577 69.4889 389.726 68.3636 390 67.0771C390.274 65.7907 390.672 64.3369 391.381 62.8467C392.086 61.3595 393.121 59.8298 394.599 58.5829C395.341 57.9685 396.198 57.4424 397.156 57.0713C398.114 56.7034 399.167 56.5057 400.237 56.2411C401.308 55.9917 402.409 55.5963 403.37 54.9181C404.328 54.246 405.152 53.3762 405.927 52.4638C406.709 51.5575 407.454 50.5965 408.318 49.7297C409.172 48.8599 410.176 48.1178 411.316 47.5978C413.594 46.5364 416.1 46.2657 418.463 46.211C420.845 46.1806 423.147 46.3174 425.315 46.6124C429.661 47.1811 433.451 48.4402 436.404 49.9244C439.369 51.4115 441.449 53.1572 442.76 54.4559C443.082 54.7874 443.381 55.0702 443.621 55.3348C443.846 55.6055 444.04 55.8336 444.205 56.0252C444.357 56.1985 444.475 56.3384 444.567 56.4448C444.652 56.5391 444.694 56.5847 444.7 56.5817C444.703 56.5787 444.667 56.527 444.591 56.4266C444.506 56.3141 444.393 56.1681 444.25 55.9856C444.092 55.791 443.907 55.5538 443.688 55.277C443.454 55.0063 443.162 54.7144 442.842 54.3707C441.55 53.0417 439.472 51.2564 436.501 49.7328C433.536 48.2152 429.725 46.9257 425.355 46.3387C423.171 46.0346 420.857 45.8886 418.46 45.916C416.073 45.9707 413.53 46.2383 411.189 47.3271C410.018 47.8563 408.975 48.6288 408.105 49.5199C407.226 50.4018 406.478 51.369 405.702 52.2753C404.936 53.1816 404.13 54.0301 403.205 54.684C402.281 55.3378 401.232 55.718 400.167 55.9734C399.112 56.2411 398.047 56.4448 397.059 56.825C396.077 57.2112 395.195 57.7587 394.437 58.3943C392.932 59.6777 391.892 61.244 391.189 62.7555C390.484 64.2761 390.097 65.7451 389.836 67.0406C389.577 68.3393 389.444 69.4706 389.346 70.3982C389.255 71.3197 389.2 72.0405 389.167 72.5301C389.155 72.7613 389.143 72.9437 389.133 73.0867C389.13 73.2114 389.127 73.2752 389.133 73.2752Z" fill="#192E35"/>
<path d="M432.207 114.448C432.128 113.122 431.291 111.845 430.072 111.321C428.849 110.798 427.298 111.106 426.428 112.106C425.598 113.064 425.513 114.588 426.243 115.61C426.571 116.151 427.07 116.589 427.648 116.85C428.387 117.185 429.235 117.252 430.035 117.103C430.692 116.984 431.352 116.698 431.76 116.166C432.125 115.686 432.243 115.05 432.207 114.448Z" fill="#66302A"/>
<path d="M430.956 109.652C430.585 109.661 430.786 112.127 428.821 114.053C426.86 115.984 424.208 115.923 424.217 116.27C424.196 116.428 424.843 116.701 425.953 116.638C427.045 116.586 428.605 116.105 429.807 114.925C431.008 113.745 431.443 112.267 431.443 111.252C431.452 110.211 431.127 109.624 430.956 109.652Z" fill="#192E35"/>
<path d="M474.027 150.572L454.895 143.316C454.895 143.316 440.144 152.08 428.776 150.265C419.966 148.857 419.242 144.328 419.242 144.328L408.64 146.034C408.64 146.034 392.585 159.383 389.231 172.947C387.251 180.957 386.77 191.45 386.77 200.656C386.77 204.339 391.46 218.9 391.46 218.9L393.279 239.982L384.41 275.112H476.953V177.907" fill="#FF725C"/>
<path d="M370.456 208.56L357.02 174.911L395.583 148.048L408.639 146.034L405.242 193.664" fill="#FF725C"/>
<path d="M390.593 214.953C390.581 214.959 390.499 214.798 390.35 214.484C390.21 214.171 389.976 213.718 389.738 213.107C389.231 211.899 388.595 210.105 388.017 207.833C386.831 203.296 386.177 196.763 386.834 189.631C387.488 182.496 389.03 176.189 390.186 171.663C390.772 169.401 391.274 167.576 391.633 166.317C391.806 165.724 391.946 165.243 392.056 164.872C392.156 164.544 392.217 164.373 392.229 164.376C392.244 164.379 392.208 164.556 392.135 164.893C392.044 165.267 391.928 165.754 391.785 166.359C391.46 167.673 391.013 169.498 390.462 171.733C389.38 176.271 387.886 182.572 387.239 189.668C386.588 196.757 387.187 203.241 388.297 207.766C388.835 210.032 389.425 211.829 389.884 213.049C390.097 213.666 390.31 214.129 390.423 214.454C390.547 214.773 390.605 214.947 390.593 214.953Z" fill="#192E35"/>
<path d="M414.805 198.089C414.805 198.089 428.323 229.539 438.016 247.573C446.224 262.84 462.966 261.147 468.279 252.652C473.592 244.161 482.479 218.733 482.479 218.733L454.238 213.77L451.093 222.717L429.686 195.419" fill="#924C41"/>
<path d="M437.909 193.557L435.829 184.151C435.829 184.151 434.88 181.547 433.332 183.844C431.784 186.14 432.502 190.471 432.502 190.471C432.502 190.471 429.579 168.099 427.009 165.663C426.069 164.772 424.78 165.997 424.78 165.997C424.78 165.997 424.482 161.621 423.11 161.648C421.739 161.679 420.44 164.939 420.44 164.939C420.44 164.939 418.734 164.008 417.399 165.633C416.197 167.089 416.188 179.251 416.188 179.251C416.188 179.251 415.048 169.23 413.256 168.601C410.379 167.588 410.379 171.399 410.379 171.399L411.219 184.443C411.219 184.443 412.785 193.342 414.765 198.941C416.742 204.536 417.897 204.597 417.897 204.597L430.786 204.251C430.786 204.251 433.694 201.592 435.987 199.534C437.66 198.034 438.393 195.75 437.909 193.557Z" fill="#924C41"/>
<path d="M459.779 235.399C459.767 235.402 459.691 235.268 459.56 235.007C459.414 234.706 459.232 234.326 459.01 233.86C458.724 233.368 458.389 232.787 458.006 232.118C457.595 231.452 457.094 230.71 456.558 229.879C454.329 226.613 450.959 222.303 447.121 217.638C443.28 212.973 439.74 208.8 437.255 205.71C436.012 204.171 435.029 202.9 434.369 202.009C434.071 201.586 433.828 201.24 433.633 200.966C433.469 200.726 433.387 200.595 433.399 200.586C433.408 200.577 433.512 200.692 433.697 200.917C433.907 201.179 434.172 201.51 434.494 201.912C435.19 202.772 436.203 204.013 437.477 205.531C440.017 208.566 443.59 212.711 447.435 217.38C451.276 222.051 454.618 226.4 456.799 229.721C457.322 230.564 457.805 231.321 458.201 232.002C458.575 232.699 458.903 233.295 459.15 233.79C459.347 234.271 459.508 234.663 459.636 234.976C459.743 235.25 459.791 235.393 459.779 235.399Z" fill="#66302A"/>
<path d="M470.852 149.739C470.852 149.739 486.268 152.886 490.146 170.337C493.713 186.383 492.609 220.515 492.609 220.515L450.627 213.128L460.84 154.851" fill="#FF725C"/>
<path d="M456.585 177.578C456.591 177.578 456.588 177.642 456.573 177.764C456.555 177.907 456.533 178.083 456.503 178.302C456.43 178.804 456.327 179.494 456.196 180.364C455.907 182.189 455.496 184.774 454.988 187.961C453.921 194.409 452.458 203.286 450.828 213.161L450.664 212.927C451.096 213.003 451.567 213.088 452.035 213.17C462.199 215.004 471.396 216.668 478.093 217.875C481.396 218.493 484.084 218.991 485.982 219.347C486.885 219.524 487.6 219.664 488.12 219.767C488.345 219.816 488.528 219.855 488.677 219.886C488.801 219.916 488.865 219.934 488.862 219.94C488.862 219.946 488.795 219.943 488.67 219.928C488.518 219.904 488.333 219.88 488.108 219.846C487.582 219.764 486.864 219.648 485.952 219.502C484.051 219.18 481.356 218.721 478.041 218.158C471.338 216.978 462.135 215.36 451.965 213.569C451.494 213.487 451.026 213.405 450.591 213.326L450.393 213.292L450.427 213.091C452.105 203.226 453.614 194.357 454.709 187.916C455.271 184.738 455.724 182.159 456.044 180.34C456.205 179.473 456.333 178.789 456.427 178.287C456.47 178.074 456.506 177.901 456.536 177.755C456.561 177.636 456.579 177.578 456.585 177.578Z" fill="#192E35"/>
<path d="M458.94 171.98C458.912 171.967 459.028 171.612 459.259 170.976C459.493 170.343 459.84 169.431 460.317 168.318C461.278 166.125 462.705 162.999 465.357 160.344C466.67 159.018 468.191 158.041 469.648 157.357C471.111 156.676 472.519 156.284 473.714 156.059C474.906 155.83 475.892 155.773 476.567 155.764C477.245 155.751 477.619 155.791 477.619 155.812C477.622 155.897 476.114 155.833 473.769 156.341C471.451 156.834 468.225 158.032 465.642 160.633C463.057 163.218 461.604 166.28 460.579 168.436C460.107 169.48 459.715 170.349 459.405 171.037C459.128 171.654 458.964 171.989 458.94 171.98Z" fill="#192E35"/>
<path d="M420.203 181.216C420.145 181.216 420.069 180.307 419.99 178.835C419.911 177.363 419.829 175.325 419.819 173.071C419.81 170.818 419.899 168.774 420.051 167.302C420.2 165.827 420.391 164.93 420.443 164.939C420.504 164.948 420.409 165.854 420.337 167.323C420.257 168.792 420.215 170.821 420.224 173.068C420.245 175.252 420.264 177.229 420.276 178.825C420.285 180.3 420.257 181.213 420.203 181.216Z" fill="#66302A"/>
<path d="M424.46 166.149C424.518 166.153 424.549 166.895 424.582 168.096C424.618 169.297 424.67 170.952 424.764 172.779C424.859 174.607 424.98 176.262 425.066 177.46C425.154 178.655 425.199 179.4 425.145 179.406C425.09 179.412 424.944 178.683 424.783 177.487C424.622 176.295 424.454 174.638 424.36 172.801C424.266 170.967 424.26 169.3 424.296 168.096C424.336 166.892 424.406 166.149 424.46 166.149Z" fill="#66302A"/>
<path d="M134.715 75.9575C133.675 69.0265 131.957 61.4537 127.383 56.1436C124.086 52.3147 120.844 49.3768 116.522 46.7613C111.9 43.9634 107.821 43.051 102.858 42.5218L99.6069 45.4049C110.014 47.9231 119.065 55.1522 124.384 64.4463C129.703 73.7404 131.376 84.9445 129.643 95.5129C128.511 102.432 125.996 109.037 124.083 115.786C122.173 122.532 120.853 129.657 122.179 136.543C127.903 134.316 126.285 138.079 128.7 132.434C131.114 126.789 132.367 114.372 133.77 108.396C136.081 98.542 136.139 85.4554 134.715 75.9575Z" fill="#FF725C"/>
<path d="M129.108 60.5261C120.337 46.8951 99.8627 42.6921 99.8627 42.6921C69.8849 40.548 64.5322 63.5796 61.5062 84.5613C59.6236 97.6053 66.5456 138.358 66.5456 138.358L73.8902 141.013L122.125 140.995C122.1 140.116 125.537 132.732 126.38 130.326C130.814 108.52 134.269 68.549 129.108 60.5261Z" fill="#192E35"/>
<path d="M130.446 132.438L130.45 132.434C130.446 132.434 130.446 132.434 130.446 132.434" fill="#192E35"/>
<path d="M104.127 50.5052L102.25 48.7169L81.9861 56.8827C79.0543 57.047 76.7308 59.4252 76.6426 62.3601L76.822 128.392C76.7946 132.869 77.6918 136.75 80.3955 140.317L83.2421 144.076C89.7322 152.643 103.08 151.938 108.22 142.498C108.579 141.838 108.828 141.26 108.938 140.791C109.044 140.201 109.205 139.815 109.239 139.313C109.841 134 109.875 129.396 109.875 129.396C110.236 123.563 110.355 121.169 110.358 121.224C110.358 121.224 122.77 119.794 126.124 103.861C127.794 95.9387 127.48 85.0388 127.009 74.3092C126.361 59.4587 116.064 50.49 104.127 50.5052Z" fill="#FFC09C"/>
<path d="M100.462 84.2085C100.447 85.3003 99.51 86.1853 98.3726 86.1884C97.2351 86.1914 96.3258 85.3155 96.341 84.2237C96.3562 83.1349 97.2929 82.2499 98.4304 82.2438C99.5678 82.2408 100.477 83.1197 100.462 84.2085Z" fill="#192E35"/>
<path d="M120.875 84.9019C120.86 85.9907 119.923 86.8757 118.786 86.8818C117.651 86.8849 116.742 86.0059 116.757 84.9172C116.772 83.8284 117.709 82.9403 118.843 82.9373C119.981 82.9312 120.893 83.8132 120.875 84.9019Z" fill="#192E35"/>
<path d="M124.892 78.5518C124.622 78.8072 123.119 77.5755 120.902 77.4691C118.691 77.3322 117.006 78.3906 116.778 78.1078C116.666 77.98 116.951 77.5086 117.684 77.0281C118.408 76.5506 119.622 76.1127 121.002 76.1857C122.383 76.2647 123.518 76.8304 124.159 77.3839C124.816 77.9405 125.023 78.4393 124.892 78.5518Z" fill="#192E35"/>
<path d="M102.396 78.7829C102.104 79.0079 100.732 77.6272 98.5396 77.2957C96.353 76.9307 94.5677 77.8127 94.3731 77.5055C94.2758 77.3687 94.6042 76.9307 95.3858 76.5263C96.1553 76.1248 97.4083 75.8146 98.7738 76.0275C100.136 76.2465 101.21 76.9277 101.791 77.5451C102.384 78.1655 102.539 78.6825 102.396 78.7829Z" fill="#192E35"/>
<path d="M110.142 94.9169C110.136 94.7891 111.526 94.6219 113.774 94.4485C114.342 94.4181 114.884 94.3329 114.999 93.9497C115.154 93.5483 114.948 92.9248 114.704 92.2527C114.242 90.8568 113.759 89.3939 113.248 87.8611C111.231 81.6083 109.802 76.4776 110.054 76.3986C110.307 76.3195 112.147 81.3254 114.163 87.5752C114.647 89.1172 115.109 90.5861 115.55 91.9912C115.729 92.645 116.064 93.3932 115.729 94.2295C115.556 94.6431 115.127 94.929 114.759 95.0081C114.391 95.1024 114.072 95.0933 113.792 95.0963C111.538 95.1024 110.142 95.0416 110.142 94.9169Z" fill="#192E35"/>
<path d="M110.358 121.224C110.358 121.224 99.5191 121.379 89.1362 114.405C89.1362 114.405 93.984 125.795 110.136 125.098" fill="#FF9B69"/>
<path d="M108.935 100.212C108.193 99.1168 106.824 98.4691 105.431 98.5481C104.464 98.6059 103.466 99.0195 102.843 99.7738C102.22 100.528 102.043 101.635 102.536 102.407C103.092 103.277 104.33 103.536 105.404 103.286C106.477 103.04 107.423 102.389 108.323 101.738C108.573 101.559 108.825 101.37 108.989 101.115C109.151 100.859 109.199 100.516 109.026 100.291" fill="#FF9B69"/>
<path d="M103.543 96.1242C103.901 96.1212 103.786 98.5268 105.76 100.336C107.73 102.155 110.309 102.012 110.309 102.35C110.337 102.502 109.716 102.788 108.634 102.763C107.569 102.745 106.036 102.328 104.826 101.218C103.622 100.111 103.153 98.685 103.12 97.6935C103.08 96.6838 103.378 96.0999 103.543 96.1242Z" fill="#192E35"/>
<path d="M104.519 70.1426C104.212 70.7052 102.064 70.0848 99.4428 70.0027C96.8243 69.8658 94.6315 70.3007 94.373 69.7138C94.2605 69.434 94.7075 68.9261 95.6351 68.479C96.5566 68.0289 97.9678 67.6852 99.5371 67.7491C101.109 67.8191 102.487 68.2783 103.366 68.8044C104.251 69.3306 104.656 69.8719 104.519 70.1426Z" fill="#192E35"/>
<path d="M124.573 69.0295C124.156 69.5131 122.657 68.9139 120.82 68.7953C118.992 68.6159 117.414 68.9656 117.082 68.4213C116.936 68.1567 117.207 67.664 117.912 67.223C118.603 66.782 119.743 66.4505 121.002 66.5509C122.265 66.6543 123.335 67.1652 123.946 67.7126C124.57 68.2631 124.755 68.7923 124.573 69.0295Z" fill="#192E35"/>
<path d="M77.047 90.5404C77.047 90.5404 88.4 94.0744 94.8262 66.0551C97.022 56.4751 105.903 48.7168 105.903 48.7168L102.302 47.6342C102.302 47.6342 79.9149 53.9387 79.5378 54.2215C79.1607 54.5044 73.8901 65.7997 73.8901 65.7997" fill="#192E35"/>
<path d="M79.8446 89.4973C79.9024 88.302 78.6616 85.4128 77.4907 85.1695C74.3582 84.5187 68.6619 84.4883 68.2057 92.496C67.5853 103.441 78.7042 101.808 78.7407 101.495C78.7711 101.252 79.647 93.6273 79.8446 89.4973Z" fill="#FFC09C"/>
<path d="M75.6328 97.1583C75.5871 97.1187 75.4351 97.2799 75.1036 97.4107C74.7812 97.5354 74.2338 97.6053 73.6772 97.359C72.5428 96.8693 71.6761 94.9777 71.7338 93.0009C71.7612 92.0033 72.0228 91.0666 72.4212 90.3002C72.8013 89.5186 73.3518 88.9894 73.9388 88.9195C74.5257 88.8191 74.9181 89.1901 75.0367 89.5034C75.1644 89.8197 75.0823 90.0356 75.1401 90.0569C75.1674 90.0843 75.3864 89.8866 75.3225 89.4304C75.2891 89.2084 75.1766 88.9438 74.9302 88.7187C74.6808 88.4906 74.3007 88.3599 73.8931 88.3812C73.0446 88.3903 72.2417 89.1232 71.8038 89.9657C71.3202 90.8051 71.0009 91.8573 70.9674 92.9796C70.9127 95.1875 71.9254 97.3164 73.4826 97.8638C74.2399 98.1071 74.8968 97.9125 75.2435 97.6722C75.5993 97.4229 75.6693 97.1796 75.6328 97.1583Z" fill="#FF9B69"/>
<path d="M84.7476 85.1818C84.7445 85.1453 85.3528 85.1422 86.3868 84.8503C87.4178 84.5644 88.8654 83.8923 90.2857 82.5906C90.9943 81.9398 91.6877 81.143 92.3203 80.2063C92.9408 79.2665 93.4973 78.1869 93.9748 77.0068C94.9449 74.6499 95.5654 71.9006 96.3318 69.0478C97.1012 66.1921 97.9345 63.4945 98.8499 61.098C99.7532 58.6954 100.757 56.606 101.703 54.912C102.655 53.2211 103.552 51.9285 104.209 51.0648C104.534 50.633 104.814 50.3167 104.993 50.0946C105.179 49.8757 105.279 49.7662 105.285 49.7723C105.294 49.7784 105.209 49.903 105.042 50.1311C104.878 50.3653 104.61 50.6907 104.3 51.1348C103.67 52.0137 102.807 53.3154 101.882 55.0124C100.964 56.7094 99.9843 58.7957 99.1024 61.1922C98.2052 63.5857 97.381 66.2742 96.6116 69.1239C95.8452 71.9675 95.2156 74.7289 94.2211 77.1103C93.7315 78.2994 93.1597 79.3882 92.5211 80.3431C91.8672 81.289 91.1525 82.0919 90.4256 82.7427C88.9628 84.0474 87.4725 84.7043 86.4172 84.9628C85.3589 85.2244 84.7476 85.1818 84.7476 85.1818Z" fill="#192E35"/>
<path d="M67.8047 130.84C67.8047 130.84 68.0297 129.487 68.0449 127.014C68.0692 124.542 67.756 120.962 66.9835 116.616C66.5942 114.442 66.1654 112.063 65.7062 109.512C65.2652 106.96 64.8729 104.214 64.7269 101.31C64.5931 98.4112 64.6813 95.3304 65.3899 92.2496C65.7427 90.7107 66.2445 89.181 66.9288 87.7029C67.607 86.2218 68.4981 84.8198 69.5199 83.4968C71.5728 80.8449 74.0332 78.643 76.4145 76.5536C78.811 74.4764 81.1102 72.4388 83.1539 70.3464C87.2657 66.189 90.5169 62.0255 92.9985 58.3699C95.4893 54.7203 97.2077 51.5757 98.3299 49.3799C98.8925 48.2789 99.3061 47.4152 99.5707 46.8222C99.7015 46.5363 99.8019 46.3143 99.8779 46.15C99.9448 45.998 99.9783 45.9159 99.9722 45.9159C99.9691 45.9128 99.9266 45.9888 99.8505 46.1379C99.7684 46.296 99.6589 46.515 99.516 46.7948C99.2362 47.3787 98.8043 48.2363 98.2265 49.3251C97.0708 51.5027 95.3281 54.623 92.8221 58.2482C90.3253 61.8795 87.065 66.0187 82.9563 70.1487C80.9125 72.2289 78.6225 74.2544 76.2198 76.3316C73.8325 78.421 71.3569 80.6289 69.2797 83.3113C68.2487 84.6495 67.3424 86.0728 66.6551 87.5752C65.9616 89.0745 65.4538 90.6286 65.101 92.1827C64.3893 95.3031 64.3072 98.4051 64.4471 101.325C64.6052 104.244 65.0067 107 65.4598 109.554C65.9312 112.106 66.3722 114.481 66.7737 116.653C67.5735 120.99 67.9141 124.548 67.9263 127.014C67.9415 128.246 67.8989 129.201 67.8564 129.849C67.8381 130.162 67.8199 130.408 67.8107 130.588C67.8016 130.755 67.7986 130.84 67.8047 130.84Z" fill="#375964"/>
<path d="M64.2795 131.868C64.2795 131.868 64.5046 130.515 64.5228 128.042C64.5441 125.57 64.2339 121.993 63.4614 117.644C63.0691 115.473 62.6433 113.095 62.1841 110.543C61.7431 107.988 61.3508 105.245 61.2018 102.338C61.0679 99.4392 61.1592 96.3584 61.8648 93.2776C62.2175 91.7418 62.7193 90.209 63.4036 88.7339C64.0818 87.2528 64.976 85.8508 65.9978 84.5248C68.0507 81.8728 70.508 79.674 72.8894 77.5816C75.2889 75.5044 77.5881 73.4668 79.6288 71.3744C83.7406 67.217 86.9948 63.0535 89.4734 59.4009C91.9642 55.7483 93.6825 52.6037 94.8078 50.4109C95.3674 49.31 95.784 48.4462 96.0486 47.8501C96.1794 47.5673 96.2798 47.3423 96.3528 47.178C96.4197 47.026 96.4531 46.9469 96.447 46.9438C96.444 46.9438 96.4045 47.0168 96.3254 47.1659C96.2463 47.327 96.1338 47.546 95.9939 47.8258C95.711 48.4097 95.2792 49.2643 94.7044 50.3562C93.5487 52.5307 91.8061 55.651 89.297 59.2792C86.8001 62.9075 83.5399 67.0466 79.4311 71.1797C77.3904 73.26 75.1004 75.2824 72.6947 77.3596C70.3104 79.4489 67.8348 81.6599 65.7576 84.3423C64.7235 85.6805 63.8172 87.1038 63.133 88.6062C62.4365 90.1025 61.9317 91.6566 61.5758 93.2137C60.8672 96.331 60.7821 99.4362 60.925 102.353C61.0801 105.275 61.4846 108.031 61.9377 110.585C62.4091 113.134 62.8501 115.509 63.2485 117.681C64.0484 122.018 64.392 125.579 64.4042 128.042C64.4194 129.274 64.3768 130.232 64.3343 130.88C64.313 131.193 64.2978 131.436 64.2856 131.616C64.2765 131.783 64.2734 131.868 64.2795 131.868Z" fill="#375964"/>
<path d="M48.4468 275.018C48.4468 275.018 47.4249 265.909 53.255 250.682C58.0298 238.206 63.6349 231.321 63.6349 231.321L139.128 226.345L144.946 275.018" fill="#192E35"/>
<path d="M138.265 198.04C139.375 181.225 138.265 155.742 138.265 155.742L125.796 134.824L109.373 132.248C109.373 132.248 109.333 143.738 100.742 145.639C86.0523 148.887 76.4784 131.22 76.4784 131.22C75.0916 131.22 54.1889 135.609 47.562 141.917C40.7587 148.391 29.4938 165.575 26.3187 170.498C26.3187 170.498 4.30904 202.636 1.08226 211.452C-1.3538 218.116 0.908905 223.222 2.16191 225.323C2.83099 227.312 23.2045 256.524 38.9643 268.193L40.193 265.864L48.3801 251.834L27.1824 216.999L51.7711 191.103L56.6037 186.559L57.9905 192.675L63.9575 221.422C63.9575 221.422 52.0752 245.174 50.4086 257.521C50.4086 257.521 108.825 277.655 144.87 267.713C144.87 267.713 137.158 214.852 138.265 198.04Z" fill="#EBEBEB"/>
<path d="M76.8311 245.527C76.8311 245.527 66.9469 242.856 65.9494 243.422C64.9519 243.982 57.5737 247.874 57.5737 247.874C57.5737 247.874 55.3049 250.657 54.0884 251.649C54.0884 251.649 51.5551 254.051 49.8063 254.133C48.0576 254.212 47.0296 253.835 47.0296 253.835L40.1929 265.867C40.1929 265.867 44.2499 269.729 46.394 269.692C48.5412 269.656 60.4538 264.647 60.4538 264.647L63.3339 264.017C63.3339 264.017 74.1395 265.581 75.0245 262.33L75.1249 261.405L64.5048 259.325L60.466 259.559L67.6251 257.713C67.6251 257.713 77.7434 258.206 78.6984 258.038C79.6534 257.874 80.8668 256.533 80.5566 255.697L78.4673 255.204C78.4673 255.204 80.9216 253.872 80.9946 252.406L71.6396 249.873C71.6396 249.873 77.6735 247.625 76.8311 245.527Z" fill="#FFC09C"/>
<path d="M79.5775 255.17C79.5654 255.204 79.2643 255.113 78.7169 254.955C78.1755 254.796 77.3848 254.577 76.3994 254.325C74.4378 253.814 71.7098 253.166 68.6837 252.497C68.3035 252.418 67.9325 252.312 67.5858 252.284C67.233 252.254 66.8802 252.278 66.5457 252.357C65.8736 252.543 65.1862 252.777 64.5567 252.987C63.2915 253.422 62.1663 253.854 61.2387 254.252C60.308 254.653 59.5812 255.024 59.0885 255.301C58.5928 255.575 58.3373 255.757 58.313 255.724C58.3008 255.709 58.5228 255.478 58.9973 255.155C59.4687 254.83 60.1864 254.41 61.1079 253.969C62.0294 253.528 63.1547 253.06 64.4229 252.604C65.0646 252.379 65.7124 252.144 66.4484 251.935C66.8255 251.846 67.2239 251.813 67.6223 251.846C68.0329 251.88 68.4009 251.989 68.778 252.065C71.8101 252.737 74.5351 253.434 76.4846 254.024C77.4608 254.316 78.2424 254.58 78.7746 254.793C79.3069 255 79.5867 255.146 79.5775 255.17Z" fill="#FF9B69"/>
<path d="M71.8738 250.329C71.8373 250.396 71.1256 249.985 69.8787 249.605C68.6439 249.219 66.8344 248.918 64.8789 249.21C62.9203 249.498 61.2749 250.307 60.2044 251.031C59.1217 251.758 58.5591 252.357 58.5043 252.303C58.4679 252.275 58.9545 251.594 60.0219 250.779C61.0773 249.964 62.7713 249.073 64.815 248.772C66.8557 248.467 68.7352 248.835 69.9791 249.307C71.2351 249.781 71.8981 250.292 71.8738 250.329Z" fill="#FF9B69"/>
<path d="M189.012 175.152L150.473 146.457L136.081 136.984L125.449 134.824L129.966 179.756H139.95L182.92 198.436L235.558 202.9L236.334 186.584" fill="#EBEBEB"/>
<path d="M138.967 217.732C138.952 217.736 138.934 217.504 138.912 217.066C138.891 216.595 138.864 215.956 138.827 215.153C138.763 213.493 138.697 211.09 138.642 208.116C138.584 205.145 138.548 201.605 138.544 197.675C138.529 193.746 138.581 189.427 138.508 184.899C138.484 175.821 136.79 167.74 135.436 161.971C134.758 159.079 134.165 156.749 133.767 155.137C133.575 154.355 133.426 153.738 133.313 153.276C133.213 152.85 133.167 152.625 133.18 152.622C133.195 152.616 133.268 152.838 133.393 153.255C133.523 153.711 133.697 154.325 133.919 155.098C134.363 156.697 134.998 159.018 135.716 161.904C137.139 167.658 138.888 175.778 138.915 184.89C138.985 189.43 138.925 193.749 138.919 197.675C138.9 201.605 138.909 205.142 138.928 208.113C138.952 211.057 138.973 213.45 138.985 215.15C138.988 215.953 138.992 216.592 138.992 217.066C138.988 217.501 138.982 217.732 138.967 217.732Z" fill="#192E35"/>
<path d="M106.952 43.042C82.8164 45.2073 81.8676 74.7077 78.659 97.9764C74.0728 131.221 98.4029 138.358 98.4029 138.358L68.1818 132.696C68.1818 132.696 51.6525 126.005 51.7711 107.654C51.8898 89.3058 54.7729 66.8429 74.015 49.7723C90.6295 35.0343 105.431 42.0353 106.952 43.042Z" fill="#FF725C"/>
<path d="M130.449 131.22C128.624 129.575 129.332 128.943 124.114 128.462C118.223 127.921 111.644 131.692 105.781 132.47C99.9172 133.252 93.6522 132.473 88.7284 129.192C82.9591 125.345 79.8114 118.709 76.9313 112.401L62.762 124.055C60.0097 126.321 58.3674 129.718 58.5073 133.279C58.5377 134.07 58.6381 134.712 58.8449 135.025C59.6721 136.272 65.7516 133.331 66.9772 134.189C73.4704 138.729 76.2349 145.937 82.1805 151.171C89.1359 157.29 95.5652 162.147 100.462 161.977C105.267 161.81 114.394 156.621 117.639 150.615C120.634 145.061 123.253 141.013 125.607 136.777C126.848 134.542 131.169 137.686 131.686 135.025C131.957 133.647 131.489 132.16 130.449 131.22Z" fill="#FF725C"/>
<path d="M51.7712 165.882C51.7864 165.879 51.8442 166.067 51.9445 166.432C52.051 166.84 52.1939 167.372 52.3703 168.035C52.7261 169.477 53.2249 171.487 53.8331 173.95C55.0436 178.953 56.6707 185.875 58.392 193.536C60.1103 201.197 61.5975 208.152 62.5829 213.204C63.0756 215.731 63.4375 217.781 63.6686 219.201C63.7659 219.886 63.845 220.43 63.9028 220.847C63.9515 221.221 63.9697 221.418 63.9575 221.421C63.9423 221.425 63.8967 221.23 63.8207 220.856C63.7446 220.448 63.6443 219.907 63.5135 219.229C63.2185 217.778 62.8079 215.75 62.3 213.262C61.2447 208.228 59.715 201.285 57.9966 193.624C56.2662 185.988 54.6999 179.075 53.5564 174.017C52.9968 171.542 52.5436 169.519 52.2182 168.075C52.0723 167.399 51.9536 166.861 51.8654 166.454C51.7894 166.083 51.756 165.885 51.7712 165.882Z" fill="#192E35"/>
<path d="M130.449 134.271C130.452 134.277 130.397 134.31 130.291 134.377C130.16 134.45 129.999 134.545 129.804 134.657C129.366 134.879 128.761 135.293 127.897 135.655C126.218 136.488 123.655 137.428 120.388 138.17C117.122 138.921 113.144 139.38 108.719 139.493C104.294 139.63 99.4338 139.402 94.3488 139.07C91.8002 138.906 89.3155 138.656 86.9342 138.285C84.5529 137.908 82.278 137.428 80.1309 136.88C75.8518 135.743 72.105 134.326 69.1032 132.841C66.0954 131.366 63.7871 129.931 62.2665 128.839C61.4879 128.322 60.9344 127.851 60.539 127.559C60.3626 127.419 60.2166 127.303 60.1011 127.212C60.0038 127.13 59.9551 127.087 59.9581 127.081C59.9642 127.075 60.019 127.109 60.1254 127.179C60.2501 127.264 60.4022 127.367 60.5877 127.492C60.9983 127.763 61.567 128.216 62.3577 128.708C63.8996 129.755 66.2201 131.148 69.2249 132.583C72.2297 134.025 75.9643 135.405 80.2252 136.518C82.3632 137.051 84.6289 137.522 86.995 137.893C89.3642 138.258 91.8337 138.501 94.3732 138.666C99.4551 138.994 104.303 139.237 108.71 139.119C113.117 139.027 117.073 138.599 120.327 137.89C123.582 137.187 126.139 136.296 127.83 135.512C128.7 135.171 129.314 134.782 129.764 134.584C129.968 134.487 130.135 134.408 130.269 134.341C130.382 134.286 130.446 134.262 130.449 134.271Z" fill="#192E35"/>
<path d="M84.1393 137.434C84.1332 137.437 84.0815 137.406 83.9842 137.339C83.8686 137.254 83.7287 137.154 83.5554 137.029C83.1569 136.731 82.6156 136.324 81.9313 135.813C81.2288 135.281 80.4076 134.581 79.4344 133.79C78.9509 133.389 78.4612 132.936 77.926 132.467C77.3877 132.002 76.8372 131.488 76.2776 130.932C74.0179 128.742 71.4298 125.959 69.2431 122.379C67.0534 118.818 65.4628 114.323 65.3047 109.472C65.1253 104.621 66.0985 100.063 67.1447 96.039C68.2121 92.0033 69.377 88.4359 70.3137 85.428C71.2382 82.4476 71.9894 80.0237 72.5247 78.3054C72.771 77.4873 72.9657 76.8425 73.1116 76.3651C73.1755 76.1643 73.2272 75.9971 73.2728 75.8632C73.3124 75.7507 73.3336 75.6929 73.3397 75.696C73.3489 75.696 73.3367 75.7568 73.3124 75.8724C73.2789 76.0123 73.2394 76.1826 73.1877 76.3863C73.063 76.8669 72.8927 77.5238 72.6737 78.348C72.2084 80.048 71.5028 82.4993 70.5874 85.5132C69.6841 88.5301 68.5497 92.1067 67.5066 96.1333C66.4817 100.148 65.5328 104.67 65.7092 109.454C65.8673 114.238 67.4153 118.654 69.5625 122.185C71.7066 125.737 74.2521 128.52 76.4783 130.728C77.0288 131.287 77.5701 131.804 78.0993 132.276C78.6255 132.75 79.109 133.212 79.5804 133.62C80.5384 134.423 81.3413 135.141 82.0317 135.688C82.6916 136.226 83.2178 136.652 83.604 136.965C83.7682 137.102 83.899 137.212 84.0085 137.306C84.0997 137.385 84.1423 137.428 84.1393 137.434Z" fill="#192E35"/>
<path d="M106.952 43.0419C106.958 43.127 105.692 43.1909 103.755 43.7505C102.779 44.0029 101.666 44.4682 100.455 45.0187C99.2632 45.6117 97.992 46.3477 96.7238 47.2206C94.1965 48.9875 92.1558 50.9157 90.7325 52.3542C89.3092 53.7988 88.4819 54.7447 88.4333 54.7021C88.4089 54.6838 88.5945 54.4284 88.9473 53.9813C89.3 53.5342 89.8353 52.9077 90.5257 52.1565C91.9034 50.6602 93.9289 48.6773 96.4926 46.8891C97.7791 46.001 99.0747 45.265 100.297 44.6811C101.535 44.1367 102.679 43.6988 103.679 43.4737C104.172 43.3308 104.631 43.2578 105.033 43.1909C105.431 43.1148 105.778 43.0753 106.064 43.0631C106.635 43.0236 106.949 43.0145 106.952 43.0419Z" fill="#192E35"/>
<path d="M130.88 136.412C130.844 136.391 131.072 136.059 131.236 135.378C131.4 134.709 131.452 133.653 130.984 132.498C130.543 131.342 129.49 130.189 128 129.499C126.516 128.778 124.664 128.55 122.757 128.711C120.85 128.873 119.041 129.274 117.408 129.633C115.774 130.004 114.321 130.408 113.107 130.773C111.894 131.141 110.924 131.47 110.248 131.698C109.576 131.923 109.205 132.048 109.193 132.02C109.184 131.996 109.537 131.823 110.194 131.549C110.851 131.275 111.815 130.907 113.022 130.5C114.229 130.098 115.683 129.663 117.322 129.268C118.962 128.888 120.771 128.474 122.727 128.307C124.673 128.143 126.613 128.386 128.161 129.161C129.719 129.904 130.823 131.16 131.251 132.397C131.708 133.629 131.604 134.736 131.388 135.42C131.279 135.767 131.154 136.02 131.054 136.178C130.953 136.339 130.893 136.418 130.88 136.412Z" fill="#192E35"/>
</svg>
